<svg width="465" height="465" xmlns="http://www.w3.org/2000/svg" xmlns:xlink="http://www.w3.org/1999/xlink" xml:space="preserve" overflow="hidden"><defs><clipPath id="clip0"><rect x="3799" y="1871" width="465" height="465"/></clipPath></defs><g clip-path="url(#clip0)" transform="translate(-3799 -1871)"><path d="M4264 2103.5C4264 2231.91 4159.91 2336 4031.5 2336 3903.09 2336 3799 2231.91 3799 2103.5 3799 1975.09 3903.09 1871 4031.5 1871 4159.91 1871 4264 1975.09 4264 2103.5Z" fill="#595959" fill-rule="evenodd"/><path d="M4213 2103.5C4213 2203.74 4131.74 2285 4031.5 2285 3931.26 2285 3850 2203.74 3850 2103.5 3850 2003.26 3931.26 1922 4031.5 1922 4131.74 1922 4213 2003.26 4213 2103.5Z" fill="#FFFFFF" fill-rule="evenodd"/><path d="M199.5 0C309.68 0 399 89.5431 399 200L0 200C0 89.5431 89.3193 0 199.5 0Z" fill="#595959" fill-rule="evenodd" transform="matrix(-1 1.22465e-16 1.22465e-16 1 4231 1904)"/></g></svg>