<svg width="465" height="465" xmlns="http://www.w3.org/2000/svg" xmlns:xlink="http://www.w3.org/1999/xlink" xml:space="preserve" overflow="hidden"><defs><clipPath id="clip0"><rect x="3205" y="116" width="465" height="465"/></clipPath></defs><g clip-path="url(#clip0)" transform="translate(-3205 -116)"><path d="M3205 348.5C3205 220.094 3309.09 116 3437.5 116 3565.91 116 3670 220.094 3670 348.5 3670 476.906 3565.91 581 3437.5 581 3309.09 581 3205 476.906 3205 348.5Z" fill="#009A46" fill-rule="evenodd"/><path d="M3256 348.5C3256 248.26 3337.26 167 3437.5 167 3537.74 167 3619 248.26 3619 348.5 3619 448.74 3537.74 530 3437.5 530 3337.26 530 3256 448.74 3256 348.5Z" fill="#FFFFFF" fill-rule="evenodd"/><path d="M3587.06 480.535C3514.13 563.133 3388.06 570.976 3305.46 498.055 3301.06 494.165 3296.83 490.083 3292.78 485.819L3437.5 348.5Z" fill="#009A46" fill-rule="evenodd"/><path d="M331.536 49.9448C414.133 122.866 421.977 248.939 349.056 331.536 342.826 338.592 336.105 345.198 328.943 351.305L199.5 199.5Z" fill="#009A46" fill-rule="evenodd" transform="matrix(-6.12323e-17 -1 -1 6.12323e-17 3637 548)"/></g></svg>