<svg width="465" height="464" xmlns="http://www.w3.org/2000/svg" xmlns:xlink="http://www.w3.org/1999/xlink" xml:space="preserve" overflow="hidden"><defs><clipPath id="clip0"><rect x="2412" y="1641" width="465" height="464"/></clipPath></defs><g clip-path="url(#clip0)" transform="translate(-2412 -1641)"><path d="M2412 1873C2412 1744.87 2516.09 1641 2644.5 1641 2772.91 1641 2877 1744.87 2877 1873 2877 2001.13 2772.91 2105 2644.5 2105 2516.09 2105 2412 2001.13 2412 1873Z" fill="#595959" fill-rule="evenodd"/><path d="M2463 1873.5C2463 1773.26 2544.04 1692 2644 1692 2743.96 1692 2825 1773.26 2825 1873.5 2825 1973.74 2743.96 2055 2644 2055 2544.04 2055 2463 1973.74 2463 1873.5Z" fill="#FFFFFF" fill-rule="evenodd"/><path d="M199.5 0C309.68 0 399 89.5431 399 200L0 200C0 89.5431 89.3193 0 199.5 0Z" fill="#595959" fill-rule="evenodd" transform="matrix(1 0 0 -1 2445 2072)"/></g></svg>