<svg width="465" height="464" xmlns="http://www.w3.org/2000/svg" xmlns:xlink="http://www.w3.org/1999/xlink" xml:space="preserve" overflow="hidden"><defs><clipPath id="clip0"><rect x="3457" y="1641" width="465" height="464"/></clipPath></defs><g clip-path="url(#clip0)" transform="translate(-3457 -1641)"><path d="M3457 1873C3457 1744.87 3561.09 1641 3689.5 1641 3817.91 1641 3922 1744.87 3922 1873 3922 2001.13 3817.91 2105 3689.5 2105 3561.09 2105 3457 2001.13 3457 1873Z" fill="#2E75B6" fill-rule="evenodd"/><path d="M3509 1873.5C3509 1773.26 3590.04 1692 3690 1692 3789.96 1692 3871 1773.26 3871 1873.5 3871 1973.74 3789.96 2055 3690 2055 3590.04 2055 3509 1973.74 3509 1873.5Z" fill="#FFFFFF" fill-rule="evenodd"/><path d="M199.5 0C309.68 0 399 89.5431 399 200L0 200C0 89.5431 89.3193 0 199.5 0Z" fill="#2E75B6" fill-rule="evenodd" transform="matrix(1 0 0 -1 3490 2072)"/></g></svg>