<svg width="558" height="558" xmlns="http://www.w3.org/2000/svg" xmlns:xlink="http://www.w3.org/1999/xlink" xml:space="preserve" overflow="hidden"><defs><clipPath id="clip0"><rect x="1798" y="846" width="558" height="558"/></clipPath></defs><g clip-path="url(#clip0)" transform="translate(-1798 -846)"><path d="M2288.26 846 2356 913.743 2283.64 986.099 2302.04 1019.99C2313.8 1047.79 2320.3 1078.36 2320.3 1110.45 2320.3 1238.81 2216.25 1342.86 2087.9 1342.86 2055.81 1342.86 2025.24 1336.35 1997.43 1324.59L1963.54 1306.2 1938.86 1330.88 2009.57 1401.59 1798 1404 1800.41 1192.43 1871.12 1263.14 1894.72 1239.54 1873.75 1200.91C1861.99 1173.11 1855.49 1142.54 1855.49 1110.45 1855.49 982.097 1959.54 878.045 2087.9 878.045 2119.98 878.045 2150.55 884.548 2178.36 896.308L2216.98 917.273Z" fill="#0000FF" fill-rule="evenodd"/></g></svg>