<svg width="465" height="465" xmlns="http://www.w3.org/2000/svg" xmlns:xlink="http://www.w3.org/1999/xlink" xml:space="preserve" overflow="hidden"><defs><clipPath id="clip0"><rect x="3922" y="33" width="465" height="465"/></clipPath></defs><g clip-path="url(#clip0)" transform="translate(-3922 -33)"><path d="M3922 265.5C3922 137.094 4026.09 33 4154.5 33 4282.91 33 4387 137.094 4387 265.5 4387 393.906 4282.91 498 4154.5 498 4026.09 498 3922 393.906 3922 265.5Z" fill="#009A46" fill-rule="evenodd"/><path d="M3973 265.5C3973 165.26 4054.26 83.9999 4154.5 83.9999 4254.74 83.9999 4336 165.26 4336 265.5 4336 365.74 4254.74 447 4154.5 447 4054.26 447 3973 365.74 3973 265.5Z" fill="#FFFFFF" fill-rule="evenodd"/><path d="M199.5 0C309.681 0 399 89.0954 399 199L0 199C0 89.0954 89.3194 0 199.5 0Z" fill="#009A46" fill-rule="evenodd" transform="matrix(1 0 0 -1 3955 464)"/></g></svg>