<svg width="465" height="465" xmlns="http://www.w3.org/2000/svg" xmlns:xlink="http://www.w3.org/1999/xlink" xml:space="preserve" overflow="hidden"><defs><clipPath id="clip0"><rect x="359" y="878" width="465" height="465"/></clipPath></defs><g clip-path="url(#clip0)" transform="translate(-359 -878)"><path d="M359 1110.5C359 982.094 463.094 878 591.5 878 719.906 878 824 982.094 824 1110.5 824 1238.91 719.906 1343 591.5 1343 463.094 1343 359 1238.91 359 1110.5Z" fill="#009A46" fill-rule="evenodd"/><path d="M410 1110.5C410 1010.26 491.26 929 591.5 929 691.74 929 773 1010.26 773 1110.5 773 1210.74 691.74 1292 591.5 1292 491.26 1292 410 1210.74 410 1110.5Z" fill="#FFFFFF" fill-rule="evenodd"/></g></svg>