<svg width="465" height="464" xmlns="http://www.w3.org/2000/svg" xmlns:xlink="http://www.w3.org/1999/xlink" xml:space="preserve" overflow="hidden"><defs><clipPath id="clip0"><rect x="1864" y="1641" width="465" height="464"/></clipPath></defs><g clip-path="url(#clip0)" transform="translate(-1864 -1641)"><path d="M1864 1873C1864 1744.87 1968.09 1641 2096.5 1641 2224.91 1641 2329 1744.87 2329 1873 2329 2001.13 2224.91 2105 2096.5 2105 1968.09 2105 1864 2001.13 1864 1873Z" fill="#595959" fill-rule="evenodd"/><path d="M1915 1873.5C1915 1773.26 1996.04 1692 2096 1692 2195.96 1692 2277 1773.26 2277 1873.5 2277 1973.74 2195.96 2055 2096 2055 1996.04 2055 1915 1973.74 1915 1873.5Z" fill="#FFFFFF" fill-rule="evenodd"/><path d="M2228.72 1723.23C2311.23 1796.44 2318.92 1922.84 2245.89 2005.55 2242.11 2009.84 2238.14 2013.96 2234 2017.91L2096.5 1873Z" fill="#595959" fill-rule="evenodd"/><path d="M331.721 50.2345C414.228 123.441 421.915 249.84 348.891 332.553 342.762 339.495 336.16 346.001 329.131 352.025L199.5 200Z" fill="#595959" fill-rule="evenodd" transform="matrix(-1 0 0 1 2296 1673)"/></g></svg>