<svg width="464" height="464" xmlns="http://www.w3.org/2000/svg" xmlns:xlink="http://www.w3.org/1999/xlink" xml:space="preserve" overflow="hidden"><defs><clipPath id="clip0"><rect x="2910" y="1641" width="464" height="464"/></clipPath></defs><g clip-path="url(#clip0)" transform="translate(-2910 -1641)"><path d="M2910 1873C2910 1744.87 3013.87 1641 3142 1641 3270.13 1641 3374 1744.87 3374 1873 3374 2001.13 3270.13 2105 3142 2105 3013.87 2105 2910 2001.13 2910 1873Z" fill="#595959" fill-rule="evenodd"/><path d="M2961 1873.5C2961 1773.26 3042.04 1692 3142 1692 3241.96 1692 3323 1773.26 3323 1873.5 3323 1973.74 3241.96 2055 3142 2055 3042.04 2055 2961 1973.74 2961 1873.5Z" fill="#FFFFFF" fill-rule="evenodd"/><path d="M3291.6 2005.08C3218.29 2087.28 3091.88 2094.8 3009.26 2021.85 3005.1 2018.18 3001.1 2014.34 2997.26 2010.34L3142 1873Z" fill="#595959" fill-rule="evenodd"/><path d="M331.076 50.3998C413.285 123.71 420.796 250.117 347.852 332.739 341.84 339.549 335.372 345.939 328.493 351.863L199 200Z" fill="#595959" fill-rule="evenodd" transform="matrix(-6.12323e-17 -1 -1 6.12323e-17 3342 2072)"/></g></svg>