<svg id="svg" version="1.1" xmlns="http://www.w3.org/2000/svg" xmlns:xlink="http://www.w3.org/1999/xlink" width="400" height="221.42857142857144" viewBox="0, 0, 400,221.42857142857144"><g id="svgg"><path id="path0" d="M237.364 31.669 C 236.291 31.773,235.105 31.966,234.728 32.098 C 234.351 32.229,233.825 32.337,233.559 32.337 C 232.486 32.337,228.045 33.844,225.581 35.045 C 221.521 37.023,217.276 40.232,217.276 41.322 C 217.276 41.639,218.409 42.928,220.691 45.206 C 222.569 47.081,235.950 60.407,250.425 74.819 C 264.901 89.231,278.937 103.216,281.617 105.899 C 284.297 108.581,286.938 111.209,287.486 111.739 C 288.034 112.269,295.559 119.712,304.208 128.278 L 319.934 143.854 320.044 119.870 C 320.141 98.874,320.196 95.860,320.487 95.676 C 320.750 95.510,316.322 90.960,299.336 73.943 C 260.034 34.571,263.136 37.535,259.082 35.477 C 256.354 34.092,252.574 32.751,250.178 32.319 C 249.562 32.207,248.610 32.020,248.062 31.902 C 246.640 31.597,239.671 31.445,237.364 31.669 M245.958 32.111 C 252.616 32.959,257.987 34.846,262.237 37.831 C 263.524 38.734,277.201 52.275,285.913 61.270 L 289.102 64.563 289.124 88.427 C 289.150 115.139,289.282 113.195,287.570 111.382 C 285.370 109.051,274.458 98.139,247.231 71.042 C 228.807 52.705,217.724 41.518,217.734 41.267 C 217.754 40.736,222.838 36.598,223.523 36.555 C 223.609 36.549,224.157 36.264,224.741 35.920 C 225.325 35.577,226.102 35.183,226.467 35.045 C 230.890 33.375,231.622 33.162,234.994 32.561 C 238.796 31.883,242.860 31.716,245.958 32.111 M127.696 83.846 C 127.491 84.159,127.156 84.586,126.951 84.796 C 126.746 85.006,125.784 86.070,124.813 87.162 C 123.842 88.254,122.497 89.745,121.823 90.477 C 121.149 91.208,119.751 92.744,118.715 93.890 C 117.680 95.037,116.733 96.084,116.611 96.217 C 116.489 96.351,115.543 97.401,114.507 98.552 C 113.472 99.703,112.475 100.806,112.292 101.003 C 111.932 101.391,109.711 103.848,106.090 107.863 C 104.826 109.264,103.428 110.808,102.982 111.296 C 102.537 111.783,101.091 113.378,99.769 114.839 C 98.447 116.301,97.261 117.609,97.133 117.745 C 97.004 117.881,96.251 118.727,95.460 119.625 C 94.668 120.523,93.372 121.960,92.580 122.818 C 91.788 123.675,90.343 125.266,89.369 126.353 C 88.394 127.439,87.091 128.881,86.473 129.557 C 85.855 130.233,84.368 131.883,83.169 133.223 C 81.970 134.563,80.881 135.759,80.749 135.880 C 80.617 136.002,79.313 137.446,77.852 139.088 C 76.390 140.730,75.044 142.233,74.862 142.427 C 74.273 143.052,72.792 144.685,70.757 146.951 C 69.664 148.168,68.621 149.320,68.439 149.511 C 68.256 149.703,67.309 150.749,66.334 151.837 C 65.360 152.925,63.624 154.862,62.477 156.143 C 61.329 157.424,60.281 158.571,60.147 158.693 C 60.013 158.815,58.710 160.258,57.250 161.901 C 55.790 163.543,54.446 165.042,54.264 165.232 C 54.081 165.423,53.134 166.468,52.159 167.555 C 51.185 168.642,49.790 170.186,49.059 170.985 C 48.328 171.784,46.883 173.376,45.847 174.524 C 44.812 175.671,43.815 176.768,43.632 176.962 C 43.450 177.156,42.104 178.653,40.642 180.288 C 39.181 181.923,37.835 183.421,37.652 183.617 C 37.312 183.983,32.312 189.516,31.340 190.602 C 31.218 190.738,30.313 191.737,29.329 192.822 C 24.084 198.602,22.667 200.169,22.156 200.751 C 21.847 201.103,21.491 201.501,21.364 201.637 C 21.238 201.772,19.743 203.425,18.042 205.309 C 16.342 207.194,14.801 208.894,14.618 209.088 C 14.435 209.282,13.488 210.331,12.514 211.418 C 9.688 214.570,8.570 215.793,7.905 216.460 C 6.390 217.978,5.796 217.931,27.475 218.003 C 44.060 218.058,44.608 218.011,49.834 216.106 C 56.044 213.841,58.635 211.800,66.774 202.762 C 68.965 200.329,71.207 197.852,71.757 197.257 C 73.114 195.789,72.964 195.955,75.189 193.466 C 76.279 192.248,77.622 190.764,78.175 190.169 C 79.494 188.750,79.338 188.922,81.614 186.379 C 82.704 185.161,83.699 184.054,83.824 183.920 C 83.950 183.786,84.808 182.839,85.731 181.816 C 88.830 178.381,92.214 174.648,93.141 173.643 C 94.237 172.456,98.415 167.823,99.215 166.909 C 99.896 166.131,100.268 165.719,102.735 163.018 C 103.789 161.863,105.050 160.474,105.537 159.929 C 106.024 159.385,106.573 158.777,106.755 158.579 C 106.938 158.381,107.935 157.280,108.970 156.134 C 110.006 154.987,111.451 153.395,112.182 152.596 C 112.913 151.796,114.358 150.208,115.393 149.066 C 116.429 147.925,117.376 146.883,117.498 146.751 C 117.621 146.619,118.613 145.515,119.703 144.297 C 121.423 142.375,122.156 141.564,123.810 139.759 C 125.165 138.279,127.804 135.307,128.300 134.701 L 128.904 133.964 128.904 108.621 C 128.904 83.941,128.893 83.278,128.486 83.278 C 128.257 83.278,127.901 83.534,127.696 83.846 " stroke="none" fill="#5496ec" fill-rule="evenodd"></path><path id="path1" d="M238.095 32.055 C 236.668 32.222,232.682 32.972,231.451 33.304 C 230.389 33.591,229.433 33.925,226.467 35.045 C 226.102 35.183,225.325 35.577,224.741 35.920 C 224.157 36.264,223.609 36.549,223.523 36.555 C 222.838 36.598,217.754 40.736,217.734 41.267 C 217.724 41.518,228.807 52.704,247.231 71.040 C 263.463 87.194,279.407 103.084,282.661 106.351 C 285.916 109.619,288.707 112.292,288.863 112.292 C 289.093 112.292,289.143 107.717,289.126 88.427 L 289.105 64.563 285.110 60.465 C 274.926 50.020,263.543 38.757,262.237 37.836 C 256.177 33.558,246.024 31.127,238.095 32.055 " stroke="none" fill="#83f4d4" fill-rule="evenodd"></path><path id="path2" d="M205.943 0.213 C 205.903 0.331,205.197 0.445,204.374 0.467 C 203.284 0.496,202.879 0.588,202.879 0.807 C 202.879 0.972,202.755 1.114,202.602 1.122 C 201.398 1.183,200.823 1.329,200.596 1.632 C 200.451 1.825,200.008 2.007,199.612 2.036 C 199.088 2.074,198.893 2.195,198.893 2.483 C 198.893 2.790,198.713 2.879,198.094 2.879 C 197.475 2.879,197.323 2.954,197.422 3.212 C 197.548 3.539,197.255 3.641,196.421 3.559 C 196.218 3.539,195.978 3.642,195.888 3.789 C 195.777 3.968,195.825 4.002,196.034 3.894 C 196.206 3.805,196.152 3.889,195.916 4.081 C 195.679 4.273,195.355 4.430,195.196 4.430 C 195.036 4.430,194.906 4.579,194.906 4.762 C 194.906 4.969,194.697 5.094,194.352 5.094 C 194.048 5.094,193.798 5.200,193.798 5.329 C 193.798 5.458,193.696 5.500,193.571 5.423 C 193.447 5.346,193.372 5.406,193.405 5.556 C 193.439 5.707,193.236 5.889,192.955 5.960 C 192.674 6.032,192.449 6.166,192.456 6.257 C 192.497 6.770,192.429 6.866,192.027 6.866 C 191.783 6.866,191.584 7.005,191.584 7.175 C 191.584 7.344,191.434 7.540,191.251 7.611 C 191.069 7.681,190.919 7.891,190.919 8.077 C 190.919 8.269,190.726 8.416,190.476 8.416 C 190.230 8.416,190.033 8.564,190.033 8.749 C 190.033 8.931,189.884 9.081,189.701 9.081 C 189.516 9.081,189.369 9.278,189.369 9.524 C 189.369 9.819,189.221 9.967,188.926 9.967 C 188.676 9.967,188.483 10.114,188.483 10.306 C 188.483 10.493,188.343 10.699,188.172 10.764 C 188.002 10.830,187.798 11.225,187.719 11.643 C 187.635 12.095,187.446 12.403,187.255 12.403 C 187.077 12.403,186.932 12.541,186.932 12.709 C 186.932 12.878,186.730 13.069,186.483 13.133 C 186.236 13.198,186.062 13.334,186.096 13.436 C 186.175 13.674,185.356 14.496,184.844 14.692 C 184.610 14.782,184.502 14.978,184.577 15.174 C 184.692 15.474,184.609 15.530,184.109 15.491 C 184.017 15.484,183.886 15.708,183.817 15.989 C 183.738 16.312,183.554 16.477,183.319 16.435 C 183.069 16.392,182.946 16.521,182.946 16.823 C 182.946 17.078,182.800 17.276,182.614 17.276 C 182.320 17.276,182.166 17.694,182.261 18.236 C 182.279 18.338,182.092 18.474,181.845 18.539 C 181.594 18.604,181.395 18.841,181.395 19.073 C 181.395 19.350,181.238 19.491,180.929 19.491 C 180.605 19.491,180.501 19.592,180.590 19.823 C 180.665 20.021,180.592 20.155,180.407 20.155 C 180.236 20.155,180.033 20.354,179.956 20.598 C 179.876 20.850,179.621 21.041,179.363 21.041 C 179.041 21.041,178.950 21.142,179.047 21.394 C 179.137 21.629,179.035 21.785,178.738 21.862 C 178.494 21.926,178.295 22.098,178.295 22.245 C 178.295 22.556,177.457 23.326,176.878 23.549 C 176.631 23.643,176.527 23.834,176.608 24.044 C 176.683 24.240,176.645 24.328,176.520 24.251 C 176.400 24.176,176.301 24.227,176.301 24.363 C 176.301 24.499,176.202 24.549,176.080 24.474 C 175.958 24.399,175.858 24.482,175.858 24.659 C 175.858 24.836,175.698 25.042,175.503 25.117 C 175.294 25.197,175.202 25.393,175.279 25.595 C 175.354 25.790,175.317 25.879,175.191 25.801 C 175.071 25.727,174.972 25.871,174.972 26.122 C 174.972 26.380,174.828 26.578,174.640 26.578 C 174.456 26.578,174.308 26.775,174.308 27.021 C 174.308 27.316,174.160 27.464,173.865 27.464 C 173.621 27.464,173.422 27.607,173.422 27.781 C 173.422 27.956,173.225 28.161,172.983 28.238 C 172.742 28.314,172.564 28.446,172.588 28.530 C 172.654 28.765,170.883 30.565,170.585 30.565 C 170.440 30.565,170.321 30.764,170.321 31.008 C 170.321 31.303,170.173 31.451,169.878 31.451 C 169.635 31.451,169.435 31.590,169.435 31.759 C 169.435 31.929,169.279 32.128,169.089 32.201 C 168.899 32.274,168.805 32.434,168.881 32.557 C 168.957 32.680,168.764 32.877,168.452 32.996 C 168.140 33.115,167.885 33.348,167.885 33.515 C 167.885 33.682,167.685 33.999,167.442 34.219 C 167.198 34.440,166.999 34.804,166.999 35.029 C 166.999 35.254,166.849 35.437,166.667 35.437 C 166.484 35.437,166.334 35.587,166.334 35.770 C 166.334 35.954,166.138 36.102,165.891 36.102 C 165.596 36.102,165.449 36.250,165.449 36.545 C 165.449 36.791,165.301 36.988,165.116 36.988 C 164.934 36.988,164.784 37.137,164.784 37.320 C 164.784 37.505,164.587 37.652,164.341 37.652 C 164.051 37.652,163.898 37.800,163.898 38.080 C 163.898 38.319,163.695 38.573,163.439 38.654 C 163.165 38.741,163.028 38.925,163.099 39.109 C 163.164 39.280,163.147 39.408,163.060 39.395 C 162.576 39.323,162.348 39.472,162.348 39.860 C 162.348 40.155,162.241 40.255,162.019 40.170 C 161.802 40.087,161.613 40.245,161.465 40.633 C 161.342 40.957,161.162 41.174,161.065 41.114 C 160.911 41.018,160.831 41.298,160.747 42.228 C 160.734 42.370,160.541 42.450,160.317 42.407 C 160.036 42.353,159.911 42.461,159.911 42.759 C 159.911 42.996,159.769 43.189,159.594 43.189 C 159.420 43.189,159.214 43.389,159.136 43.632 C 159.059 43.876,158.853 44.075,158.678 44.075 C 158.504 44.075,158.361 44.275,158.361 44.518 C 158.361 44.818,158.213 44.961,157.905 44.961 C 157.638 44.961,157.510 45.059,157.595 45.198 C 157.675 45.328,157.532 45.489,157.276 45.556 C 157.011 45.625,156.811 45.857,156.811 46.094 C 156.811 46.364,156.654 46.512,156.368 46.512 C 156.075 46.512,155.925 46.659,155.925 46.948 C 155.925 47.244,155.818 47.343,155.592 47.256 C 155.362 47.168,155.260 47.272,155.260 47.595 C 155.260 48.013,155.036 48.166,154.540 48.088 C 154.449 48.074,154.374 48.261,154.374 48.505 C 154.374 48.751,154.227 48.948,154.042 48.948 C 153.849 48.948,153.710 49.149,153.710 49.428 C 153.710 49.692,153.644 49.842,153.564 49.762 C 153.340 49.538,152.824 50.060,152.824 50.511 C 152.824 50.731,152.625 50.975,152.381 51.052 C 152.137 51.129,151.938 51.385,151.938 51.621 C 151.938 51.856,151.800 52.049,151.632 52.049 C 151.463 52.049,151.270 52.258,151.204 52.514 C 151.132 52.789,150.979 52.916,150.831 52.824 C 150.682 52.732,150.529 52.859,150.458 53.134 C 150.391 53.390,150.205 53.599,150.044 53.599 C 149.884 53.599,149.690 53.798,149.612 54.042 C 149.535 54.286,149.341 54.485,149.180 54.485 C 149.020 54.485,148.836 54.687,148.771 54.934 C 148.707 55.182,148.521 55.356,148.358 55.322 C 148.192 55.287,148.076 55.431,148.093 55.648 C 148.112 55.891,147.968 56.035,147.705 56.035 C 147.475 56.035,147.287 56.142,147.287 56.273 C 147.287 56.601,146.706 57.153,146.538 56.985 C 146.463 56.909,146.401 56.978,146.401 57.137 C 146.401 57.296,146.226 57.569,146.013 57.744 C 145.800 57.919,145.743 58.003,145.887 57.931 C 146.031 57.859,146.213 57.904,146.291 58.031 C 146.370 58.157,146.352 58.243,146.251 58.221 C 145.604 58.077,144.859 58.772,144.854 59.524 C 144.851 59.878,144.719 60.022,144.394 60.022 C 144.128 60.022,143.999 60.120,144.085 60.259 C 144.165 60.389,144.022 60.550,143.765 60.617 C 143.500 60.686,143.300 60.918,143.300 61.155 C 143.300 61.425,143.143 61.573,142.857 61.573 C 142.611 61.573,142.414 61.720,142.414 61.905 C 142.414 62.087,142.265 62.237,142.082 62.237 C 141.897 62.237,141.750 62.434,141.750 62.680 C 141.750 63.082,141.513 63.230,141.013 63.144 C 140.913 63.126,140.886 63.202,140.954 63.311 C 141.101 63.549,140.237 64.527,139.694 64.735 C 139.482 64.816,139.326 64.960,139.347 65.055 C 139.422 65.403,139.036 66.002,138.736 66.002 C 138.566 66.002,138.427 66.146,138.427 66.321 C 138.427 66.497,138.312 66.712,138.172 66.799 C 138.013 66.896,137.976 66.859,138.074 66.701 C 138.161 66.560,138.127 66.445,137.998 66.445 C 137.869 66.445,137.763 66.691,137.763 66.991 C 137.763 67.310,137.579 67.635,137.320 67.774 C 137.076 67.904,136.877 68.157,136.877 68.336 C 136.877 68.514,136.728 68.660,136.545 68.660 C 136.360 68.660,136.213 68.857,136.213 69.103 C 136.213 69.398,136.065 69.546,135.770 69.546 C 135.526 69.546,135.327 69.684,135.327 69.852 C 135.327 70.021,135.114 70.214,134.855 70.282 C 134.540 70.365,134.427 70.520,134.516 70.751 C 134.600 70.969,134.526 71.096,134.316 71.096 C 134.133 71.096,133.928 71.242,133.860 71.420 C 133.791 71.598,133.544 71.805,133.310 71.879 C 133.076 71.953,132.934 72.095,132.995 72.195 C 133.151 72.446,132.558 72.901,132.336 72.700 C 132.236 72.610,132.222 72.653,132.303 72.795 C 132.471 73.088,131.843 73.817,131.569 73.648 C 131.471 73.587,131.336 73.746,131.269 74.000 C 131.203 74.255,131.042 74.397,130.912 74.317 C 130.774 74.232,130.676 74.360,130.676 74.627 C 130.676 74.935,130.532 75.083,130.233 75.083 C 129.989 75.083,129.815 75.169,129.845 75.275 C 129.875 75.380,129.516 75.821,129.046 76.254 C 128.576 76.687,128.253 77.141,128.328 77.262 C 128.403 77.384,128.215 77.681,127.909 77.921 C 127.603 78.162,127.353 78.518,127.353 78.714 C 127.353 78.910,127.204 79.070,127.021 79.070 C 126.838 79.070,126.689 79.219,126.689 79.402 C 126.689 79.587,126.492 79.734,126.246 79.734 C 125.960 79.734,125.803 79.882,125.803 80.151 C 125.803 80.389,125.603 80.621,125.338 80.690 C 125.082 80.757,124.931 80.907,125.003 81.023 C 125.075 81.139,124.935 81.286,124.693 81.349 C 124.451 81.413,124.252 81.617,124.252 81.803 C 124.252 81.989,124.052 82.204,123.806 82.282 C 123.561 82.360,123.421 82.523,123.496 82.644 C 123.571 82.766,123.423 82.920,123.167 82.986 C 122.911 83.053,122.702 83.234,122.702 83.389 C 122.702 83.543,122.490 83.725,122.230 83.793 C 121.927 83.872,121.804 84.033,121.885 84.245 C 121.954 84.426,121.849 84.706,121.650 84.868 C 121.387 85.080,121.334 85.085,121.454 84.884 C 121.546 84.731,121.515 84.607,121.386 84.607 C 121.257 84.607,121.152 84.895,121.152 85.248 C 121.152 85.613,121.009 85.943,120.819 86.016 C 120.450 86.158,120.355 85.817,120.714 85.639 C 120.839 85.577,120.814 85.551,120.659 85.582 C 120.504 85.613,120.342 85.877,120.299 86.169 C 120.257 86.461,120.031 86.834,119.797 86.997 C 119.564 87.161,119.430 87.388,119.500 87.501 C 119.570 87.615,119.422 87.708,119.171 87.708 C 118.863 87.708,118.715 87.851,118.715 88.151 C 118.715 88.394,118.569 88.594,118.391 88.594 C 118.213 88.594,117.958 88.796,117.826 89.043 C 117.694 89.290,117.489 89.432,117.370 89.359 C 117.251 89.285,117.168 89.307,117.186 89.408 C 117.273 89.907,117.124 90.144,116.722 90.144 C 116.478 90.144,116.279 90.239,116.279 90.355 C 116.279 90.637,115.212 91.694,114.927 91.694 C 114.804 91.694,114.758 91.784,114.825 91.893 C 114.893 92.002,114.741 92.326,114.489 92.613 C 114.237 92.899,114.105 92.984,114.196 92.802 C 114.288 92.619,114.087 92.739,113.751 93.068 C 113.414 93.397,113.197 93.760,113.268 93.874 C 113.338 93.989,113.148 94.245,112.844 94.444 C 112.541 94.643,112.292 94.991,112.292 95.217 C 112.292 95.444,112.093 95.682,111.849 95.745 C 111.606 95.809,111.406 96.020,111.406 96.214 C 111.406 96.408,111.257 96.567,111.074 96.567 C 110.891 96.567,110.742 96.705,110.742 96.873 C 110.742 97.042,110.543 97.232,110.299 97.296 C 110.055 97.359,109.856 97.570,109.856 97.764 C 109.856 97.959,109.707 98.117,109.524 98.117 C 109.341 98.117,109.192 98.255,109.192 98.422 C 109.192 98.590,109.023 98.864,108.817 99.032 C 108.498 99.290,108.470 99.289,108.630 99.024 C 108.757 98.813,108.735 98.764,108.561 98.871 C 108.421 98.958,108.306 99.173,108.306 99.349 C 108.306 99.524,108.156 99.668,107.973 99.668 C 107.789 99.668,107.641 99.865,107.641 100.111 C 107.641 100.516,107.401 100.663,106.894 100.571 C 106.788 100.551,106.760 100.689,106.832 100.877 C 106.923 101.113,106.829 101.218,106.527 101.218 C 106.209 101.218,106.091 101.369,106.091 101.772 C 106.091 102.094,105.976 102.302,105.816 102.270 C 105.665 102.240,105.445 102.539,105.328 102.935 C 105.210 103.331,104.988 103.654,104.835 103.654 C 104.681 103.654,104.448 103.857,104.316 104.104 C 104.183 104.351,103.981 104.494,103.865 104.423 C 103.749 104.351,103.654 104.498,103.654 104.749 C 103.654 105.057,103.511 105.205,103.212 105.205 C 102.916 105.205,102.769 105.353,102.769 105.648 C 102.769 105.891,102.643 106.091,102.490 106.091 C 102.336 106.091,102.084 106.294,101.929 106.542 C 101.772 106.793,101.535 106.925,101.395 106.838 C 101.228 106.735,101.192 106.809,101.288 107.060 C 101.382 107.307,101.300 107.485,101.048 107.578 C 100.440 107.803,99.676 108.602,99.672 109.019 C 99.669 109.264,99.551 109.354,99.337 109.272 C 99.138 109.196,98.947 109.309,98.856 109.556 C 98.773 109.782,98.572 110.046,98.411 110.144 C 98.249 110.241,98.117 110.466,98.117 110.642 C 98.117 110.819,98.013 110.963,97.885 110.963 C 97.757 110.963,97.506 111.312,97.328 111.738 C 97.150 112.164,96.881 112.488,96.731 112.458 C 96.580 112.428,96.484 112.536,96.518 112.699 C 96.552 112.862,96.387 113.045,96.151 113.107 C 95.915 113.169,95.670 113.419,95.606 113.664 C 95.542 113.909,95.382 114.043,95.251 113.962 C 95.121 113.881,94.947 113.995,94.866 114.216 C 94.784 114.437,94.586 114.698,94.424 114.795 C 94.263 114.892,94.131 115.117,94.131 115.293 C 94.131 115.470,93.925 115.615,93.675 115.615 C 93.408 115.615,93.279 115.713,93.365 115.851 C 93.445 115.981,93.302 116.142,93.046 116.209 C 92.781 116.278,92.580 116.510,92.580 116.748 C 92.580 117.017,92.423 117.165,92.137 117.165 C 91.647 117.165,91.537 117.508,91.971 117.683 C 92.146 117.753,92.114 117.801,91.884 117.812 C 91.684 117.822,91.462 117.980,91.391 118.165 C 91.321 118.350,91.011 118.596,90.703 118.713 C 90.396 118.830,90.144 119.040,90.144 119.180 C 90.144 119.354,90.267 119.339,90.532 119.134 C 90.901 118.848,90.901 118.856,90.532 119.290 C 90.318 119.541,90.144 119.864,90.144 120.006 C 90.144 120.243,89.850 120.359,89.424 120.292 C 89.333 120.278,89.258 120.465,89.258 120.709 C 89.258 120.955,89.110 121.152,88.926 121.152 C 88.743 121.152,88.594 121.301,88.594 121.484 C 88.594 121.669,88.397 121.816,88.151 121.816 C 87.855 121.816,87.708 121.964,87.708 122.259 C 87.708 122.503,87.583 122.704,87.431 122.706 C 87.101 122.710,86.157 123.663,86.157 123.992 C 86.157 124.119,85.960 124.285,85.719 124.362 C 85.478 124.438,85.290 124.570,85.302 124.654 C 85.368 125.120,85.233 125.331,84.939 125.219 C 84.735 125.140,84.607 125.219,84.607 125.421 C 84.607 125.603,84.408 125.803,84.164 125.867 C 83.920 125.931,83.721 126.131,83.721 126.312 C 83.721 126.493,83.581 126.695,83.410 126.761 C 83.238 126.827,83.031 127.186,82.949 127.560 C 82.867 127.933,82.658 128.239,82.485 128.239 C 82.312 128.239,82.171 128.382,82.171 128.557 C 82.171 128.731,81.971 128.937,81.728 129.014 C 81.484 129.092,81.285 129.287,81.285 129.449 C 81.285 129.610,81.135 129.800,80.952 129.870 C 80.770 129.940,80.620 130.150,80.620 130.336 C 80.620 130.534,80.425 130.676,80.153 130.676 C 79.830 130.676,79.726 130.777,79.814 131.008 C 79.930 131.309,79.847 131.366,79.347 131.327 C 79.255 131.320,79.124 131.544,79.055 131.825 C 78.976 132.148,78.792 132.313,78.557 132.272 C 78.340 132.234,78.184 132.350,78.184 132.548 C 78.184 132.736,78.078 132.890,77.949 132.890 C 77.820 132.890,77.755 132.965,77.803 133.056 C 77.896 133.230,77.199 133.981,76.910 134.020 C 76.819 134.032,76.772 134.140,76.806 134.260 C 76.840 134.381,76.665 134.532,76.418 134.596 C 76.146 134.668,75.968 134.900,75.966 135.186 C 75.964 135.446,75.855 135.808,75.723 135.991 C 75.528 136.262,75.509 136.241,75.616 135.880 C 75.747 135.444,75.744 135.444,75.416 135.867 C 75.233 136.104,75.083 136.428,75.083 136.587 C 75.083 136.747,74.884 136.877,74.640 136.877 C 74.345 136.877,74.197 137.025,74.197 137.320 C 74.197 137.566,74.049 137.763,73.865 137.763 C 73.565 137.763,73.434 138.026,73.506 138.483 C 73.521 138.574,73.458 138.637,73.367 138.623 C 72.915 138.551,72.647 138.680,72.647 138.966 C 72.647 139.141,72.446 139.347,72.201 139.425 C 71.955 139.503,71.808 139.654,71.875 139.761 C 71.941 139.868,71.793 140.064,71.546 140.196 C 71.298 140.328,71.096 140.579,71.096 140.754 C 71.096 140.944,70.964 141.021,70.767 140.945 C 70.551 140.862,70.361 141.020,70.214 141.408 C 70.077 141.769,69.890 141.936,69.734 141.840 C 69.584 141.747,69.537 141.778,69.621 141.914 C 69.700 142.042,69.559 142.381,69.306 142.668 C 69.054 142.955,68.922 143.040,69.014 142.857 C 69.105 142.674,68.904 142.794,68.568 143.123 C 68.232 143.453,68.016 143.819,68.090 143.938 C 68.163 144.057,68.019 144.219,67.768 144.299 C 67.497 144.385,67.261 144.704,67.184 145.090 C 67.100 145.510,66.918 145.736,66.665 145.736 C 66.451 145.736,66.221 145.946,66.154 146.202 C 66.087 146.458,65.926 146.601,65.796 146.521 C 65.657 146.435,65.559 146.564,65.559 146.831 C 65.559 147.147,65.416 147.287,65.093 147.287 C 64.757 147.287,64.664 147.386,64.761 147.640 C 64.852 147.875,64.749 148.031,64.453 148.108 C 64.209 148.172,64.009 148.362,64.009 148.531 C 64.009 148.800,63.756 148.926,63.319 148.873 C 63.244 148.864,63.194 149.067,63.208 149.323 C 63.223 149.604,63.085 149.812,62.860 149.845 C 62.655 149.876,62.256 150.125,61.974 150.399 C 61.692 150.672,61.611 150.812,61.794 150.710 C 62.080 150.550,62.084 150.576,61.822 150.899 C 61.655 151.105,61.406 151.274,61.269 151.275 C 60.973 151.277,60.022 152.872,60.022 153.366 C 60.022 153.562,59.832 153.710,59.579 153.710 C 59.336 153.710,59.136 153.848,59.136 154.016 C 59.136 154.185,58.927 154.377,58.671 154.444 C 58.396 154.516,58.269 154.669,58.361 154.817 C 58.453 154.966,58.326 155.118,58.051 155.190 C 57.795 155.257,57.586 155.489,57.586 155.704 C 57.586 155.942,57.433 156.085,57.198 156.066 C 56.981 156.049,56.838 156.166,56.872 156.331 C 56.906 156.494,56.732 156.680,56.485 156.745 C 56.234 156.810,56.035 157.047,56.035 157.279 C 56.035 157.553,55.878 157.697,55.579 157.697 C 55.313 157.697,55.184 157.795,55.269 157.933 C 55.350 158.063,55.206 158.224,54.950 158.291 C 54.694 158.358,54.485 158.589,54.485 158.804 C 54.485 159.019,54.286 159.247,54.042 159.311 C 53.720 159.395,53.599 159.613,53.599 160.112 C 53.599 160.661,53.506 160.797,53.132 160.797 C 52.809 160.797,52.705 160.899,52.793 161.130 C 52.880 161.356,52.781 161.462,52.485 161.462 C 52.196 161.462,52.049 161.612,52.049 161.905 C 52.049 162.200,51.901 162.348,51.606 162.348 C 51.310 162.348,51.163 162.495,51.163 162.791 C 51.163 163.037,51.015 163.234,50.831 163.234 C 50.648 163.234,50.498 163.383,50.498 163.566 C 50.498 163.873,50.224 164.002,49.751 163.915 C 49.645 163.896,49.614 164.026,49.683 164.205 C 49.751 164.384,49.664 164.649,49.488 164.795 C 49.313 164.941,49.169 164.979,49.169 164.880 C 49.169 164.633,48.402 165.477,48.081 166.078 C 47.936 166.348,47.723 166.509,47.606 166.437 C 47.398 166.308,47.187 166.657,47.095 167.283 C 47.070 167.458,46.877 167.773,46.667 167.982 C 46.458 168.192,46.352 168.471,46.433 168.601 C 46.514 168.732,46.490 168.786,46.380 168.720 C 45.973 168.479,45.155 169.005,44.929 169.653 C 44.801 170.021,44.557 170.321,44.386 170.321 C 44.215 170.321,44.075 170.517,44.075 170.757 C 44.075 171.053,43.969 171.152,43.745 171.066 C 43.546 170.990,43.355 171.103,43.263 171.350 C 43.180 171.576,42.980 171.841,42.818 171.938 C 42.657 172.035,42.525 172.260,42.525 172.436 C 42.525 172.613,42.326 172.757,42.082 172.757 C 41.836 172.757,41.639 172.905,41.639 173.090 C 41.639 173.272,41.489 173.422,41.307 173.422 C 41.098 173.422,40.975 173.633,40.975 173.989 C 40.975 174.310,40.879 174.496,40.753 174.419 C 40.631 174.343,40.532 174.370,40.532 174.479 C 40.532 174.587,40.282 174.809,39.978 174.972 C 39.673 175.135,39.424 175.401,39.424 175.563 C 39.424 175.726,39.272 175.858,39.085 175.858 C 38.898 175.858,38.682 176.025,38.604 176.229 C 38.525 176.433,38.279 176.782,38.057 177.004 C 37.834 177.227,37.652 177.608,37.652 177.852 C 37.652 178.098,37.505 178.295,37.320 178.295 C 37.137 178.295,36.988 178.444,36.988 178.627 C 36.988 178.926,36.725 179.057,36.268 178.985 C 36.177 178.971,36.102 179.158,36.102 179.402 C 36.102 179.648,35.954 179.845,35.770 179.845 C 35.472 179.845,35.341 180.104,35.409 180.557 C 35.422 180.644,35.285 180.658,35.104 180.589 C 34.909 180.514,34.714 180.629,34.621 180.874 C 34.403 181.449,33.972 181.846,33.767 181.662 C 33.673 181.576,33.658 181.681,33.734 181.894 C 33.836 182.179,33.758 182.281,33.437 182.281 C 33.197 182.281,33.001 182.419,33.001 182.588 C 33.001 182.756,32.789 182.950,32.529 183.017 C 32.214 183.100,32.102 183.255,32.190 183.486 C 32.284 183.731,32.188 183.832,31.863 183.832 C 31.540 183.832,31.442 183.933,31.534 184.172 C 31.613 184.379,31.513 184.569,31.281 184.654 C 30.777 184.840,30.572 185.160,30.568 185.770 C 30.566 186.124,30.433 186.268,30.109 186.268 C 29.858 186.268,29.711 186.363,29.783 186.478 C 29.854 186.594,29.711 186.797,29.464 186.929 C 29.217 187.061,29.014 187.316,29.014 187.494 C 29.014 187.672,28.827 187.818,28.597 187.818 C 28.360 187.818,28.128 188.019,28.058 188.284 C 27.992 188.540,27.838 188.688,27.716 188.613 C 27.595 188.538,27.464 188.702,27.424 188.978 C 27.377 189.314,27.225 189.458,26.966 189.414 C 26.749 189.378,26.578 189.487,26.578 189.661 C 26.578 190.098,25.720 191.143,25.413 191.081 C 25.273 191.053,25.153 191.130,25.145 191.251 C 25.119 191.684,24.772 192.032,24.514 191.884 C 24.370 191.802,24.319 191.808,24.400 191.898 C 24.481 191.989,24.107 192.509,23.569 193.054 C 23.031 193.600,22.591 194.239,22.591 194.476 C 22.591 194.712,22.442 194.906,22.259 194.906 C 22.075 194.906,21.927 195.103,21.927 195.349 C 21.927 195.644,21.779 195.792,21.484 195.792 C 21.240 195.792,21.041 195.935,21.041 196.109 C 21.041 196.284,20.834 196.492,20.582 196.572 C 20.325 196.654,20.172 196.846,20.234 197.008 C 20.297 197.170,20.156 197.348,19.918 197.410 C 19.683 197.472,19.491 197.678,19.491 197.868 C 19.491 198.083,19.366 198.166,19.161 198.088 C 18.945 198.005,18.756 198.163,18.608 198.551 C 18.485 198.875,18.284 199.079,18.162 199.004 C 18.040 198.928,17.940 199.072,17.940 199.322 C 17.940 199.736,17.707 199.887,17.204 199.799 C 17.103 199.782,17.082 199.961,17.157 200.197 C 17.232 200.434,17.175 200.701,17.029 200.791 C 16.852 200.900,16.823 200.860,16.940 200.670 C 17.057 200.480,17.013 200.420,16.808 200.488 C 16.639 200.544,16.501 200.732,16.501 200.904 C 16.501 201.077,16.301 201.321,16.058 201.446 C 15.814 201.572,15.602 201.796,15.587 201.945 C 15.572 202.093,15.547 202.364,15.532 202.547 C 15.516 202.730,15.305 202.879,15.061 202.879 C 14.815 202.879,14.618 203.027,14.618 203.212 C 14.618 203.394,14.468 203.544,14.286 203.544 C 14.101 203.544,13.953 203.741,13.953 203.987 C 13.953 204.282,13.806 204.430,13.511 204.430 C 13.215 204.430,13.068 204.577,13.068 204.873 C 13.068 205.119,12.920 205.316,12.735 205.316 C 12.553 205.316,12.403 205.465,12.403 205.648 C 12.403 205.952,12.133 206.082,11.667 206.001 C 11.566 205.983,11.542 206.063,11.613 206.178 C 11.752 206.402,11.465 206.729,10.545 207.395 C 10.227 207.626,9.967 207.950,9.967 208.115 C 9.967 208.281,9.817 208.416,9.635 208.416 C 9.452 208.416,9.302 208.522,9.302 208.651 C 9.302 208.780,9.395 208.828,9.509 208.758 C 9.622 208.688,9.787 208.757,9.876 208.911 C 9.965 209.065,9.959 209.121,9.863 209.034 C 9.467 208.677,8.416 209.519,8.416 210.194 C 8.416 210.705,8.317 210.853,7.973 210.853 C 7.730 210.853,7.530 210.948,7.530 211.064 C 7.530 211.339,6.466 212.403,6.191 212.403 C 6.075 212.403,5.980 212.591,5.980 212.821 C 5.980 213.084,5.836 213.228,5.592 213.209 C 5.376 213.192,5.232 213.309,5.267 213.474 C 5.301 213.637,5.126 213.823,4.879 213.888 C 4.628 213.953,4.430 214.189,4.430 214.422 C 4.430 214.696,4.273 214.839,3.974 214.839 C 3.723 214.839,3.580 214.940,3.656 215.063 C 3.732 215.186,3.563 215.379,3.281 215.492 C 2.999 215.605,2.847 215.704,2.942 215.711 C 3.038 215.719,3.010 215.924,2.880 216.166 C 2.751 216.409,2.525 216.583,2.380 216.554 C 2.234 216.524,2.081 216.719,2.040 216.987 C 1.988 217.330,1.861 217.432,1.609 217.336 C 1.342 217.234,1.288 217.293,1.394 217.570 C 1.472 217.773,1.434 217.940,1.309 217.940 C 1.184 217.940,1.139 218.033,1.209 218.147 C 1.279 218.261,1.036 218.531,0.668 218.748 C 0.059 219.108,-0.000 219.246,-0.000 220.314 L 0.000 221.484 22.794 221.484 C 37.209 221.484,45.616 221.406,45.663 221.271 C 45.703 221.153,46.409 221.039,47.231 221.017 C 48.446 220.984,48.726 220.909,48.726 220.617 C 48.726 220.344,48.921 220.267,49.539 220.296 C 49.986 220.317,50.559 220.251,50.813 220.148 C 51.108 220.029,51.154 219.954,50.941 219.941 C 50.180 219.893,51.368 219.495,52.387 219.456 C 53.200 219.425,53.463 219.324,53.545 219.011 C 53.639 218.651,54.306 218.459,55.011 218.587 C 55.117 218.607,55.147 218.475,55.078 218.294 C 54.983 218.046,55.153 217.949,55.770 217.897 C 56.391 217.846,56.582 217.736,56.558 217.442 C 56.529 217.075,56.962 216.932,57.769 217.042 C 57.931 217.064,58.115 216.883,58.179 216.640 C 58.250 216.365,58.416 216.246,58.618 216.323 C 58.823 216.402,58.986 216.275,59.065 215.976 C 59.132 215.716,59.326 215.504,59.494 215.504 C 59.759 215.504,59.881 215.268,59.843 214.832 C 59.837 214.766,60.025 214.694,60.259 214.671 C 61.201 214.578,61.327 214.537,61.217 214.360 C 61.155 214.258,61.215 214.175,61.351 214.175 C 61.487 214.175,61.540 214.081,61.469 213.965 C 61.398 213.850,61.541 213.794,61.788 213.842 C 62.115 213.904,62.237 213.811,62.237 213.498 C 62.237 213.224,62.389 213.068,62.654 213.068 C 62.892 213.068,63.124 212.867,63.193 212.602 C 63.260 212.346,63.421 212.203,63.551 212.283 C 63.689 212.369,63.787 212.240,63.787 211.973 C 63.787 211.665,63.931 211.517,64.230 211.517 C 64.474 211.517,64.673 211.407,64.673 211.272 C 64.673 210.864,65.667 209.818,65.962 209.916 C 66.113 209.967,66.223 209.924,66.204 209.821 C 66.126 209.377,66.243 209.081,66.501 209.077 C 66.931 209.071,67.774 208.073,67.774 207.570 C 67.774 207.312,67.965 207.057,68.217 206.977 C 68.461 206.899,68.660 206.655,68.660 206.434 C 68.660 206.210,68.869 205.977,69.132 205.908 C 69.447 205.826,69.559 205.670,69.471 205.440 C 69.379 205.199,69.470 205.094,69.774 205.094 C 70.014 205.094,70.210 204.956,70.210 204.788 C 70.210 204.619,70.410 204.429,70.653 204.366 C 70.897 204.302,71.096 204.091,71.096 203.897 C 71.096 203.703,71.234 203.544,71.403 203.544 C 71.571 203.544,71.764 203.334,71.831 203.078 C 71.903 202.804,72.055 202.677,72.204 202.769 C 72.352 202.860,72.505 202.734,72.577 202.459 C 72.644 202.203,72.836 201.993,73.005 201.993 C 73.182 201.993,73.311 201.765,73.311 201.452 C 73.311 201.023,73.407 200.930,73.774 201.001 C 74.110 201.065,74.203 201.000,74.114 200.766 C 74.031 200.550,74.134 200.443,74.426 200.443 C 74.743 200.443,74.862 200.292,74.862 199.889 C 74.862 199.541,74.987 199.336,75.199 199.336 C 75.397 199.336,75.592 199.061,75.670 198.671 C 75.743 198.306,75.943 198.007,76.114 198.007 C 76.286 198.007,76.483 197.857,76.553 197.674 C 76.623 197.492,76.820 197.342,76.989 197.342 C 77.159 197.342,77.298 197.143,77.298 196.899 C 77.298 196.503,77.528 196.353,78.018 196.430 C 78.109 196.444,78.184 196.257,78.184 196.013 C 78.184 195.770,78.323 195.570,78.492 195.570 C 78.662 195.570,78.858 195.421,78.928 195.238 C 78.998 195.055,79.208 194.906,79.395 194.906 C 79.587 194.906,79.734 194.713,79.734 194.463 C 79.734 194.219,79.856 194.020,80.004 194.020 C 80.336 194.020,81.285 192.946,81.285 192.570 C 81.285 192.420,81.459 192.311,81.672 192.328 C 81.921 192.348,82.062 192.200,82.065 191.916 C 82.069 191.607,82.195 191.495,82.483 191.545 C 82.775 191.596,82.858 191.519,82.766 191.279 C 82.683 191.065,82.797 190.891,83.077 190.802 C 83.329 190.722,83.571 190.394,83.643 190.035 C 83.718 189.661,83.947 189.361,84.210 189.293 C 84.468 189.225,84.587 189.073,84.496 188.926 C 84.405 188.779,84.525 188.626,84.786 188.558 C 85.030 188.494,85.283 188.242,85.347 187.997 C 85.411 187.752,85.562 187.614,85.683 187.689 C 85.805 187.764,85.965 187.633,86.039 187.399 C 86.113 187.165,86.320 186.917,86.498 186.849 C 86.676 186.781,86.822 186.572,86.822 186.386 C 86.822 186.199,87.009 186.047,87.239 186.047 C 87.476 186.047,87.708 185.846,87.778 185.581 C 87.845 185.325,88.006 185.182,88.136 185.262 C 88.279 185.351,88.372 185.190,88.372 184.854 C 88.372 184.421,88.468 184.319,88.811 184.385 C 89.052 184.431,89.226 184.399,89.198 184.313 C 89.170 184.228,89.546 183.782,90.033 183.322 C 90.762 182.634,90.860 182.449,90.587 182.276 C 90.366 182.137,90.348 182.065,90.532 182.063 C 90.684 182.061,90.808 181.910,90.808 181.728 C 90.808 181.543,91.005 181.395,91.251 181.395 C 91.547 181.395,91.694 181.248,91.694 180.952 C 91.694 180.706,91.842 180.509,92.027 180.509 C 92.209 180.509,92.359 180.360,92.359 180.177 C 92.359 179.993,92.556 179.845,92.802 179.845 C 93.097 179.845,93.245 179.697,93.245 179.402 C 93.245 179.158,93.355 178.959,93.490 178.959 C 93.831 178.959,94.787 178.023,94.791 177.685 C 94.795 177.427,95.094 177.310,95.542 177.391 C 95.648 177.411,95.677 177.275,95.606 177.089 C 95.528 176.885,95.648 176.659,95.909 176.519 C 96.146 176.392,96.317 176.171,96.288 176.028 C 96.259 175.885,96.434 175.764,96.678 175.758 C 96.943 175.752,97.122 175.596,97.123 175.368 C 97.125 175.160,97.264 174.861,97.433 174.704 C 97.685 174.469,97.708 174.474,97.562 174.730 C 97.443 174.938,97.469 174.989,97.640 174.883 C 97.781 174.796,97.896 174.487,97.896 174.197 C 97.896 173.907,97.994 173.609,98.115 173.534 C 98.243 173.455,98.281 173.565,98.208 173.798 C 98.095 174.155,98.119 174.151,98.432 173.767 C 98.624 173.531,98.782 173.160,98.782 172.944 C 98.782 172.696,98.898 172.594,99.094 172.670 C 99.282 172.742,99.464 172.606,99.552 172.331 C 99.632 172.078,99.840 171.872,100.015 171.872 C 100.189 171.872,100.332 171.672,100.332 171.429 C 100.332 171.178,100.480 170.986,100.671 170.986 C 100.858 170.986,101.068 170.836,101.138 170.653 C 101.208 170.471,101.404 170.321,101.574 170.321 C 101.744 170.321,101.883 170.122,101.883 169.878 C 101.883 169.583,102.030 169.435,102.326 169.435 C 102.572 169.435,102.769 169.288,102.769 169.103 C 102.769 168.920,102.874 168.771,103.003 168.771 C 103.132 168.771,103.167 168.656,103.080 168.515 C 102.979 168.352,103.019 168.320,103.192 168.427 C 103.363 168.532,103.506 168.429,103.580 168.144 C 103.652 167.872,103.821 167.741,104.009 167.813 C 104.225 167.896,104.319 167.760,104.319 167.362 C 104.319 166.921,104.403 166.823,104.687 166.933 C 104.919 167.021,105.002 166.986,104.910 166.838 C 104.830 166.709,104.909 166.547,105.085 166.479 C 105.268 166.409,105.367 166.160,105.317 165.897 C 105.267 165.639,105.322 165.495,105.442 165.569 C 105.559 165.641,105.598 165.793,105.528 165.907 C 105.458 166.020,105.506 166.113,105.635 166.113 C 105.764 166.113,105.869 165.938,105.869 165.723 C 105.869 165.509,106.069 165.209,106.312 165.057 C 106.556 164.905,106.755 164.593,106.755 164.365 C 106.755 164.128,106.957 163.897,107.227 163.826 C 107.534 163.746,107.654 163.587,107.571 163.369 C 107.481 163.137,107.544 163.074,107.776 163.163 C 107.991 163.245,108.153 163.130,108.229 162.840 C 108.293 162.592,108.537 162.339,108.769 162.278 C 109.001 162.217,109.192 162.009,109.192 161.815 C 109.192 161.621,109.329 161.462,109.498 161.462 C 109.666 161.462,109.857 161.260,109.922 161.012 C 109.986 160.765,110.173 160.591,110.335 160.625 C 110.498 160.659,110.603 160.553,110.570 160.391 C 110.536 160.228,110.714 160.041,110.966 159.975 C 111.218 159.909,111.390 159.752,111.348 159.626 C 111.239 159.299,112.164 158.361,112.595 158.361 C 112.802 158.361,112.957 158.182,112.957 157.944 C 112.957 157.713,113.155 157.475,113.400 157.411 C 113.722 157.327,113.843 157.109,113.843 156.610 C 113.843 156.142,113.950 155.925,114.182 155.925 C 114.368 155.925,114.578 155.775,114.649 155.592 C 114.719 155.410,114.915 155.260,115.085 155.260 C 115.254 155.260,115.393 155.061,115.393 154.817 C 115.393 154.522,115.541 154.374,115.836 154.374 C 116.080 154.374,116.281 154.250,116.283 154.097 C 116.288 153.748,117.249 152.824,117.608 152.824 C 117.756 152.824,117.824 152.687,117.760 152.519 C 117.609 152.125,118.016 151.717,118.410 151.868 C 118.612 151.946,118.715 151.822,118.715 151.506 C 118.715 151.242,118.815 151.088,118.937 151.163 C 119.136 151.286,119.254 150.995,119.185 150.554 C 119.170 150.462,119.258 150.375,119.380 150.360 C 119.502 150.345,119.726 150.317,119.878 150.299 C 120.030 150.281,120.141 150.094,120.124 149.884 C 120.105 149.646,120.251 149.502,120.512 149.502 C 120.800 149.502,120.930 149.344,120.930 148.997 C 120.930 148.719,121.130 148.348,121.373 148.173 C 121.617 147.997,121.816 147.738,121.816 147.596 C 121.816 147.454,122.026 147.284,122.281 147.217 C 122.556 147.145,122.683 146.992,122.591 146.844 C 122.500 146.697,122.620 146.544,122.881 146.476 C 123.125 146.412,123.378 146.160,123.442 145.915 C 123.506 145.671,123.657 145.532,123.779 145.607 C 123.900 145.682,124.060 145.551,124.134 145.317 C 124.209 145.083,124.415 144.836,124.593 144.767 C 124.771 144.699,124.917 144.490,124.917 144.304 C 124.917 144.117,125.105 143.965,125.334 143.965 C 125.572 143.965,125.804 143.764,125.873 143.499 C 125.940 143.243,126.101 143.100,126.231 143.180 C 126.369 143.266,126.467 143.137,126.467 142.870 C 126.467 142.453,126.704 142.304,127.215 142.397 C 127.322 142.417,127.358 142.235,127.295 141.993 C 127.168 141.507,127.661 140.955,128.332 140.831 C 128.565 140.788,128.806 140.604,128.866 140.421 C 128.963 140.127,128.927 140.126,128.552 140.417 C 128.143 140.734,128.141 140.730,128.516 140.289 C 128.729 140.038,128.904 139.723,128.904 139.590 C 128.904 139.457,129.215 139.280,129.595 139.197 C 129.992 139.109,130.331 138.873,130.392 138.641 C 130.453 138.407,130.627 138.286,130.805 138.355 C 130.991 138.426,131.192 138.263,131.314 137.943 C 131.425 137.651,131.674 137.281,131.868 137.120 C 132.062 136.959,132.162 136.732,132.090 136.616 C 132.019 136.499,132.169 136.350,132.425 136.283 C 132.690 136.213,132.890 135.981,132.890 135.744 C 132.890 135.474,133.047 135.327,133.333 135.327 C 133.629 135.327,133.776 135.179,133.776 134.884 C 133.776 134.638,133.924 134.441,134.109 134.441 C 134.291 134.441,134.441 134.291,134.441 134.109 C 134.441 133.924,134.638 133.776,134.884 133.776 C 135.128 133.776,135.327 133.629,135.327 133.447 C 135.327 133.017,136.008 132.226,136.378 132.226 C 136.537 132.226,136.764 131.971,136.882 131.659 C 137.001 131.347,137.183 131.145,137.287 131.209 C 137.391 131.273,137.591 131.074,137.732 130.767 C 137.884 130.433,138.089 130.271,138.241 130.365 C 138.395 130.460,138.436 130.425,138.345 130.278 C 138.262 130.143,138.403 129.921,138.660 129.784 C 138.965 129.620,139.078 129.408,138.987 129.170 C 138.910 128.970,138.917 128.876,139.002 128.962 C 139.222 129.182,139.978 128.253,139.978 127.762 C 139.978 127.509,140.137 127.353,140.395 127.353 C 140.628 127.353,140.864 127.155,140.930 126.904 C 140.994 126.657,141.180 126.482,141.343 126.516 C 141.506 126.550,141.639 126.429,141.639 126.246 C 141.639 126.063,141.813 125.842,142.027 125.755 C 142.240 125.667,142.414 125.443,142.414 125.256 C 142.414 125.056,142.611 124.917,142.894 124.917 C 143.158 124.917,143.308 124.851,143.228 124.771 C 143.028 124.571,143.524 124.007,143.768 124.157 C 143.876 124.224,143.965 124.029,143.965 123.725 C 143.965 123.282,144.057 123.188,144.428 123.260 C 144.763 123.324,144.857 123.259,144.767 123.026 C 144.693 122.834,144.773 122.702,144.964 122.702 C 145.141 122.702,145.348 122.453,145.424 122.148 C 145.501 121.843,145.951 121.287,146.425 120.911 C 146.899 120.536,147.287 120.038,147.287 119.804 C 147.287 119.571,147.436 119.380,147.619 119.380 C 147.802 119.380,147.951 119.230,147.951 119.048 C 147.951 118.863,148.148 118.715,148.394 118.715 C 148.690 118.715,148.837 118.568,148.837 118.272 C 148.837 118.029,148.975 117.829,149.144 117.829 C 149.312 117.829,149.505 117.620,149.572 117.364 C 149.644 117.089,149.796 116.962,149.945 117.054 C 150.093 117.146,150.245 117.021,150.316 116.752 C 150.382 116.500,150.624 116.234,150.854 116.161 C 151.085 116.088,151.274 115.885,151.274 115.710 C 151.274 115.536,151.423 115.393,151.606 115.393 C 151.789 115.393,151.938 115.197,151.938 114.957 C 151.938 114.653,152.043 114.561,152.283 114.654 C 152.512 114.741,152.669 114.632,152.748 114.330 C 152.814 114.079,153.007 113.820,153.178 113.754 C 153.349 113.689,153.488 113.483,153.488 113.296 C 153.488 113.109,153.627 112.957,153.797 112.957 C 154.134 112.957,154.374 112.492,154.374 111.838 C 154.374 111.570,154.486 111.463,154.687 111.540 C 154.872 111.611,155.055 111.481,155.138 111.221 C 155.214 110.980,155.423 110.727,155.601 110.659 C 155.779 110.590,155.925 110.382,155.925 110.195 C 155.925 110.000,156.119 109.856,156.381 109.856 C 156.648 109.856,156.776 109.758,156.691 109.620 C 156.610 109.489,156.754 109.329,157.010 109.262 C 157.275 109.192,157.475 108.960,157.475 108.723 C 157.475 108.449,157.632 108.306,157.931 108.306 C 158.182 108.306,158.325 108.205,158.249 108.083 C 158.173 107.960,158.275 107.797,158.475 107.720 C 158.674 107.644,158.927 107.347,159.035 107.062 C 159.175 106.693,159.342 106.584,159.611 106.687 C 159.894 106.796,159.954 106.743,159.852 106.478 C 159.703 106.089,160.186 105.553,160.449 105.816 C 160.539 105.906,160.593 105.880,160.568 105.759 C 160.468 105.261,160.597 105.034,160.963 105.063 C 161.195 105.082,161.352 104.939,161.353 104.709 C 161.355 104.497,161.579 104.168,161.852 103.977 C 162.125 103.786,162.348 103.436,162.348 103.199 C 162.348 102.962,162.497 102.769,162.680 102.769 C 162.863 102.769,163.012 102.631,163.012 102.462 C 163.012 102.294,163.212 102.104,163.455 102.040 C 163.699 101.976,163.898 101.765,163.898 101.571 C 163.898 101.377,164.048 101.218,164.230 101.218 C 164.413 101.218,164.563 101.133,164.563 101.029 C 164.563 100.750,165.713 99.558,165.988 99.552 C 166.117 99.549,166.210 99.374,166.193 99.164 C 166.174 98.926,166.320 98.782,166.581 98.782 C 166.811 98.782,166.999 98.675,166.999 98.545 C 166.999 98.197,167.584 97.670,167.769 97.851 C 167.856 97.937,167.893 97.807,167.851 97.564 C 167.795 97.243,167.881 97.139,168.162 97.186 C 168.375 97.222,168.549 97.147,168.549 97.020 C 168.549 96.893,168.425 96.784,168.272 96.780 C 168.120 96.775,168.273 96.620,168.612 96.436 C 168.995 96.229,169.279 95.854,169.360 95.448 C 169.451 94.995,169.622 94.795,169.919 94.795 C 170.166 94.795,170.286 94.695,170.201 94.559 C 170.121 94.429,170.264 94.268,170.520 94.201 C 170.785 94.131,170.986 93.899,170.986 93.662 C 170.986 93.392,171.142 93.245,171.429 93.245 C 171.679 93.245,171.872 93.097,171.872 92.906 C 171.872 92.719,172.021 92.509,172.204 92.439 C 172.386 92.369,172.536 92.173,172.536 92.003 C 172.536 91.833,172.735 91.694,172.979 91.694 C 173.225 91.694,173.422 91.547,173.422 91.362 C 173.422 90.980,174.059 90.287,174.602 90.079 C 174.806 90.000,174.972 89.737,174.972 89.493 C 174.972 89.171,175.073 89.089,175.341 89.192 C 175.555 89.274,175.653 89.243,175.576 89.117 C 175.502 88.998,175.685 88.718,175.982 88.494 C 176.280 88.271,176.523 87.904,176.523 87.678 C 176.523 87.453,176.722 87.144,176.966 86.992 C 177.209 86.840,177.409 86.590,177.409 86.436 C 177.409 86.283,177.558 86.157,177.741 86.157 C 177.925 86.157,178.073 85.960,178.073 85.714 C 178.073 85.419,178.221 85.271,178.516 85.271 C 178.760 85.271,178.959 85.133,178.959 84.965 C 178.959 84.796,179.171 84.603,179.431 84.535 C 179.746 84.453,179.858 84.297,179.770 84.066 C 179.688 83.852,179.758 83.721,179.955 83.721 C 180.129 83.721,180.379 83.522,180.509 83.278 C 180.640 83.034,180.903 82.835,181.095 82.835 C 181.313 82.835,181.395 82.711,181.315 82.503 C 181.201 82.206,181.421 82.070,181.894 82.144 C 182.040 82.167,182.159 81.467,182.086 81.008 C 182.072 80.916,182.159 80.842,182.281 80.842 C 182.403 80.842,182.503 80.947,182.503 81.076 C 182.503 81.205,182.604 81.248,182.728 81.172 C 182.852 81.095,182.896 80.940,182.826 80.826 C 182.755 80.713,182.848 80.620,183.030 80.620 C 183.213 80.620,183.434 80.505,183.521 80.364 C 183.628 80.191,183.579 80.169,183.368 80.297 C 183.196 80.400,183.335 80.142,183.676 79.722 C 184.016 79.302,184.352 78.785,184.421 78.571 C 184.491 78.358,184.735 78.184,184.965 78.184 C 185.194 78.184,185.382 78.034,185.382 77.852 C 185.382 77.422,186.171 76.633,186.600 76.633 C 186.785 76.633,186.932 76.437,186.932 76.190 C 186.932 75.944,187.080 75.748,187.265 75.748 C 187.447 75.748,187.597 75.551,187.597 75.311 C 187.597 75.020,187.704 74.917,187.920 74.999 C 188.135 75.082,188.290 74.934,188.385 74.557 C 188.463 74.245,188.592 73.999,188.671 74.009 C 189.119 74.068,189.369 73.937,189.369 73.643 C 189.369 73.461,189.518 73.311,189.701 73.311 C 189.884 73.311,190.033 73.123,190.033 72.893 C 190.033 72.630,190.178 72.486,190.421 72.505 C 190.699 72.527,190.827 72.346,190.874 71.866 C 190.922 71.373,191.109 71.121,191.576 70.914 C 191.950 70.748,192.309 70.356,192.446 69.962 C 192.574 69.593,192.775 69.350,192.891 69.422 C 193.007 69.494,193.163 69.361,193.237 69.127 C 193.312 68.893,193.518 68.645,193.696 68.577 C 193.874 68.508,194.020 68.300,194.020 68.113 C 194.020 67.919,194.214 67.774,194.476 67.774 C 194.743 67.774,194.871 67.676,194.786 67.538 C 194.705 67.408,194.849 67.247,195.105 67.180 C 195.370 67.110,195.570 66.878,195.570 66.641 C 195.570 66.367,195.727 66.224,196.026 66.224 C 196.277 66.224,196.425 66.130,196.354 66.016 C 196.283 65.901,196.363 65.727,196.530 65.628 C 196.698 65.529,196.950 65.228,197.092 64.958 C 197.255 64.647,197.475 64.517,197.694 64.601 C 197.913 64.685,198.024 64.620,197.997 64.427 C 197.907 63.780,198.013 63.582,198.377 63.722 C 198.655 63.829,198.713 63.774,198.610 63.505 C 198.519 63.267,198.617 63.100,198.901 63.009 C 199.140 62.934,199.413 62.560,199.518 62.168 C 199.646 61.684,199.821 61.482,200.074 61.527 C 200.319 61.570,200.443 61.440,200.443 61.139 C 200.443 60.885,200.588 60.687,200.775 60.687 C 200.958 60.687,201.107 60.490,201.107 60.251 C 201.107 59.947,201.212 59.855,201.453 59.947 C 201.684 60.036,201.839 59.923,201.922 59.608 C 201.990 59.348,202.183 59.136,202.351 59.136 C 202.520 59.136,202.658 59.042,202.658 58.926 C 202.658 58.619,203.784 57.465,204.018 57.532 C 204.128 57.563,204.315 57.333,204.434 57.020 C 204.566 56.674,204.751 56.514,204.906 56.610 C 205.047 56.697,205.106 56.677,205.037 56.566 C 204.907 56.355,205.395 55.548,205.632 55.582 C 205.706 55.593,205.990 55.386,206.261 55.122 C 206.533 54.857,206.606 54.719,206.423 54.814 C 206.240 54.909,206.415 54.680,206.811 54.305 C 207.207 53.931,207.530 53.419,207.530 53.169 C 207.530 52.856,207.674 52.713,207.986 52.713 C 208.253 52.713,208.382 52.615,208.296 52.477 C 208.216 52.347,208.359 52.186,208.616 52.119 C 208.881 52.049,209.081 51.817,209.081 51.580 C 209.081 51.310,209.238 51.163,209.524 51.163 C 209.767 51.163,209.967 51.024,209.967 50.854 C 209.967 50.685,210.116 50.488,210.299 50.418 C 210.482 50.348,210.631 50.094,210.631 49.854 C 210.631 49.534,210.752 49.440,211.080 49.503 C 211.327 49.550,211.472 49.497,211.403 49.385 C 211.334 49.273,211.480 49.007,211.729 48.794 C 211.978 48.581,212.182 48.290,212.182 48.148 C 212.182 48.006,212.306 47.904,212.458 47.921 C 212.611 47.937,212.769 47.852,212.810 47.730 C 212.960 47.282,213.346 46.963,213.570 47.102 C 213.697 47.180,213.741 47.149,213.669 47.031 C 213.596 46.914,213.780 46.636,214.077 46.412 C 214.375 46.189,214.618 45.921,214.618 45.816 C 214.618 45.711,214.817 45.426,215.061 45.183 C 215.475 44.768,215.638 44.888,215.512 45.515 C 215.487 45.637,215.538 45.665,215.625 45.578 C 215.841 45.363,216.655 45.819,216.501 46.069 C 216.433 46.178,216.582 46.378,216.833 46.512 C 217.083 46.646,217.230 46.850,217.158 46.966 C 217.087 47.081,217.233 47.176,217.484 47.176 C 217.793 47.176,217.940 47.320,217.940 47.619 C 217.940 47.863,218.046 48.062,218.175 48.062 C 218.304 48.062,218.334 47.937,218.243 47.785 C 218.122 47.584,218.176 47.589,218.438 47.801 C 218.637 47.963,218.745 48.237,218.679 48.410 C 218.597 48.623,218.711 48.726,219.024 48.726 C 219.343 48.726,219.491 48.867,219.491 49.169 C 219.491 49.413,219.565 49.590,219.657 49.563 C 219.884 49.494,221.164 50.729,221.101 50.954 C 221.073 51.054,221.247 51.098,221.488 51.051 C 221.830 50.985,221.927 51.088,221.927 51.517 C 221.927 51.919,222.032 52.051,222.315 52.003 C 222.574 51.959,222.682 52.062,222.640 52.314 C 222.594 52.586,222.702 52.667,223.027 52.604 C 223.446 52.523,223.610 52.825,223.494 53.460 C 223.475 53.566,223.613 53.595,223.800 53.522 C 224.008 53.443,224.142 53.513,224.142 53.702 C 224.142 53.873,224.341 54.075,224.585 54.153 C 224.987 54.281,225.126 54.527,225.054 54.983 C 225.039 55.075,225.102 55.138,225.194 55.123 C 225.654 55.051,225.897 55.192,226.029 55.608 C 226.110 55.862,226.304 56.018,226.462 55.957 C 226.654 55.884,226.713 55.985,226.640 56.265 C 226.554 56.595,226.630 56.664,226.997 56.594 C 227.431 56.510,227.596 56.796,227.485 57.436 C 227.467 57.537,227.654 57.555,227.900 57.477 C 228.236 57.371,228.316 57.417,228.222 57.662 C 228.143 57.867,228.268 58.043,228.555 58.134 C 228.972 58.267,229.113 58.510,229.041 58.970 C 229.026 59.061,229.109 59.136,229.224 59.136 C 229.537 59.136,230.565 60.143,230.565 60.448 C 230.565 60.594,230.656 60.656,230.768 60.587 C 231.034 60.423,231.714 61.104,231.550 61.369 C 231.481 61.481,231.627 61.573,231.874 61.573 C 232.187 61.573,232.283 61.676,232.192 61.914 C 232.120 62.102,232.148 62.239,232.254 62.220 C 232.700 62.138,233.001 62.254,233.001 62.507 C 233.001 62.797,234.056 63.787,234.364 63.787 C 234.467 63.787,234.551 63.987,234.551 64.230 C 234.551 64.521,234.699 64.673,234.980 64.673 C 235.215 64.673,235.471 64.873,235.548 65.116 C 235.625 65.360,235.828 65.559,235.999 65.559 C 236.198 65.559,236.258 65.692,236.168 65.928 C 236.078 66.163,236.114 66.242,236.268 66.147 C 236.560 65.967,237.265 66.619,237.088 66.906 C 237.018 67.018,237.117 67.110,237.307 67.110 C 237.497 67.110,237.652 67.203,237.652 67.316 C 237.652 67.430,237.852 67.586,238.095 67.663 C 238.345 67.743,238.538 67.998,238.538 68.250 C 238.538 68.496,238.652 68.659,238.790 68.613 C 239.133 68.499,240.239 69.589,240.129 69.934 C 240.078 70.093,240.232 70.210,240.493 70.210 C 240.750 70.210,241.005 70.401,241.085 70.653 C 241.163 70.897,241.366 71.096,241.536 71.096 C 241.725 71.096,241.795 71.230,241.716 71.438 C 241.644 71.625,241.672 71.763,241.778 71.744 C 242.421 71.626,242.715 71.791,242.632 72.224 C 242.574 72.522,242.639 72.650,242.812 72.584 C 243.139 72.458,243.666 72.975,243.453 73.212 C 243.369 73.306,243.418 73.315,243.562 73.232 C 243.819 73.085,244.166 73.433,244.193 73.865 C 244.200 73.987,244.329 74.061,244.479 74.029 C 244.629 73.997,244.815 74.147,244.892 74.361 C 245.024 74.727,245.808 75.601,246.063 75.667 C 246.734 75.839,247.176 76.054,247.176 76.209 C 247.176 76.313,247.002 76.334,246.788 76.257 C 246.515 76.157,246.563 76.277,246.955 76.669 C 247.259 76.973,247.689 77.289,247.910 77.369 C 248.131 77.450,248.245 77.623,248.165 77.754 C 248.083 77.886,248.224 78.046,248.483 78.114 C 248.739 78.181,248.948 78.362,248.948 78.516 C 248.948 78.670,249.148 78.849,249.392 78.913 C 249.688 78.990,249.791 79.146,249.700 79.381 C 249.603 79.635,249.696 79.734,250.032 79.734 C 250.288 79.734,250.498 79.862,250.498 80.017 C 250.498 80.324,251.370 81.164,251.694 81.170 C 251.804 81.172,251.953 81.323,252.026 81.506 C 252.264 82.101,253.024 82.835,253.402 82.835 C 253.609 82.835,253.758 82.995,253.741 83.199 C 253.724 83.399,253.834 83.606,253.987 83.660 C 254.139 83.714,254.264 83.644,254.264 83.505 C 254.264 83.366,254.148 83.323,254.008 83.410 C 253.844 83.511,253.812 83.470,253.919 83.297 C 254.127 82.962,254.177 83.013,254.812 84.200 C 255.095 84.728,255.436 85.173,255.570 85.188 C 255.704 85.203,255.903 85.228,256.011 85.244 C 256.119 85.259,256.194 85.412,256.177 85.583 C 256.160 85.755,256.495 86.138,256.921 86.436 C 257.348 86.733,257.669 87.099,257.635 87.250 C 257.601 87.401,257.775 87.577,258.022 87.642 C 258.270 87.706,258.472 87.903,258.472 88.079 C 258.472 88.254,258.572 88.337,258.694 88.261 C 258.816 88.186,259.016 88.389,259.140 88.714 C 259.287 89.102,259.476 89.260,259.693 89.177 C 259.874 89.107,260.035 89.147,260.050 89.265 C 260.111 89.739,260.157 89.831,260.573 90.310 C 260.812 90.584,261.122 90.808,261.262 90.808 C 261.403 90.808,261.655 90.977,261.822 91.183 C 262.084 91.506,262.080 91.532,261.794 91.370 C 261.611 91.266,261.711 91.430,262.016 91.734 C 262.320 92.037,262.619 92.290,262.680 92.296 C 262.741 92.302,262.926 92.318,263.091 92.333 C 263.260 92.347,263.337 92.501,263.267 92.684 C 263.112 93.087,263.476 93.348,263.696 92.993 C 263.802 92.820,263.759 92.793,263.566 92.913 C 263.362 93.038,263.329 93.006,263.455 92.802 C 263.594 92.577,263.703 92.607,263.948 92.934 C 264.120 93.166,264.333 93.338,264.420 93.316 C 264.508 93.294,264.600 93.527,264.625 93.834 C 264.688 94.588,264.858 94.818,265.299 94.746 C 265.540 94.706,265.649 94.814,265.609 95.055 C 265.537 95.492,265.767 95.667,266.492 95.727 C 266.875 95.758,267.032 95.916,267.064 96.299 C 267.124 97.024,267.299 97.254,267.735 97.182 C 267.970 97.143,268.096 97.260,268.077 97.500 C 268.061 97.708,268.111 97.871,268.188 97.861 C 268.698 97.797,269.075 97.946,269.195 98.259 C 269.313 98.566,269.281 98.578,268.992 98.339 C 268.704 98.100,268.672 98.112,268.789 98.418 C 268.866 98.618,269.068 98.782,269.237 98.782 C 269.407 98.782,269.546 98.876,269.546 98.992 C 269.546 99.352,270.619 100.380,270.848 100.238 C 270.967 100.165,271.097 100.330,271.136 100.606 C 271.181 100.925,271.384 101.133,271.693 101.177 C 272.023 101.224,272.138 101.353,272.051 101.581 C 271.960 101.818,272.043 101.895,272.335 101.844 C 272.617 101.795,272.749 101.906,272.752 102.196 C 272.755 102.429,272.882 102.661,273.034 102.713 C 273.187 102.764,273.311 102.692,273.311 102.552 C 273.311 102.413,273.196 102.371,273.055 102.457 C 272.896 102.556,272.860 102.518,272.960 102.356 C 273.200 101.967,273.533 102.279,273.533 102.892 C 273.533 103.285,273.654 103.433,273.976 103.433 C 274.226 103.433,274.419 103.581,274.419 103.772 C 274.419 103.959,274.568 104.169,274.751 104.239 C 274.934 104.309,275.083 104.495,275.083 104.651 C 275.083 104.808,275.247 104.999,275.447 105.076 C 275.742 105.189,275.760 105.155,275.547 104.897 C 275.341 104.650,275.347 104.543,275.571 104.414 C 275.729 104.323,275.783 104.331,275.690 104.433 C 275.598 104.535,275.747 104.866,276.022 105.169 C 276.298 105.472,276.398 105.647,276.246 105.560 C 276.094 105.472,275.969 105.506,275.969 105.635 C 275.969 105.764,276.118 105.869,276.301 105.869 C 276.484 105.869,276.633 105.966,276.633 106.085 C 276.633 106.384,277.866 106.995,278.081 106.802 C 278.176 106.715,278.191 106.756,278.114 106.892 C 277.940 107.197,278.704 107.927,278.957 107.697 C 279.058 107.605,279.066 107.660,278.975 107.818 C 278.847 108.040,278.737 108.046,278.496 107.846 C 278.262 107.652,278.184 107.651,278.184 107.843 C 278.184 107.983,278.358 108.162,278.571 108.241 C 278.785 108.319,279.039 108.515,279.136 108.677 C 279.234 108.838,279.446 108.970,279.607 108.970 C 279.769 108.970,280.038 109.145,280.205 109.358 C 280.482 109.710,280.474 109.717,280.117 109.437 C 279.773 109.167,279.741 109.174,279.864 109.492 C 279.940 109.692,280.189 109.856,280.415 109.856 C 280.706 109.856,280.792 109.970,280.707 110.244 C 280.592 110.613,280.599 110.613,280.836 110.244 C 281.182 109.706,281.587 109.734,281.297 110.276 C 281.114 110.617,281.176 110.765,281.621 111.057 C 281.923 111.255,282.171 111.567,282.171 111.751 C 282.171 111.934,282.345 112.147,282.558 112.223 C 283.010 112.383,284.607 114.006,284.607 114.304 C 284.607 114.416,284.712 114.507,284.841 114.507 C 284.970 114.507,285.004 114.383,284.917 114.230 C 284.824 114.069,284.842 114.031,284.959 114.138 C 285.070 114.240,285.165 114.439,285.171 114.581 C 285.176 114.723,285.297 114.816,285.440 114.787 C 285.596 114.755,285.643 114.879,285.557 115.102 C 285.450 115.380,285.507 115.435,285.787 115.328 C 286.051 115.226,286.157 115.303,286.157 115.598 C 286.157 115.825,286.321 116.073,286.521 116.150 C 286.840 116.272,286.846 116.241,286.576 115.897 C 286.296 115.540,286.303 115.531,286.656 115.808 C 286.869 115.975,287.043 116.299,287.043 116.528 C 287.043 116.792,287.200 116.944,287.473 116.944 C 287.710 116.944,287.966 117.045,288.042 117.169 C 288.119 117.292,288.289 117.327,288.422 117.245 C 288.569 117.154,288.598 117.200,288.497 117.363 C 288.371 117.567,288.259 117.569,288.020 117.370 C 287.780 117.171,287.708 117.173,287.708 117.380 C 287.708 117.528,287.907 117.702,288.151 117.765 C 288.394 117.829,288.594 118.008,288.594 118.164 C 288.594 118.319,288.757 118.509,288.957 118.586 C 289.252 118.699,289.271 118.666,289.057 118.408 C 288.853 118.162,288.854 118.053,289.060 117.926 C 289.216 117.829,289.269 117.854,289.187 117.987 C 289.009 118.274,289.785 118.995,290.031 118.771 C 290.132 118.680,290.142 118.731,290.053 118.885 C 289.965 119.039,289.774 119.107,289.630 119.035 C 289.486 118.963,289.543 119.047,289.756 119.222 C 289.970 119.396,290.144 119.642,290.144 119.768 C 290.144 119.894,290.308 120.060,290.508 120.136 C 290.803 120.250,290.821 120.216,290.608 119.958 C 290.404 119.713,290.404 119.604,290.610 119.476 C 290.769 119.378,290.819 119.405,290.734 119.542 C 290.656 119.669,290.734 119.891,290.908 120.035 C 291.083 120.180,291.164 120.458,291.089 120.653 C 290.990 120.910,291.048 120.971,291.302 120.873 C 291.533 120.785,291.690 120.890,291.767 121.183 C 291.831 121.428,292.083 121.680,292.327 121.744 C 292.621 121.821,292.726 121.978,292.637 122.209 C 292.534 122.478,292.599 122.521,292.923 122.397 C 293.153 122.308,293.274 122.304,293.190 122.387 C 292.996 122.581,293.410 123.367,293.706 123.367 C 293.829 123.367,294.160 123.614,294.440 123.917 C 294.721 124.219,295.020 124.397,295.106 124.311 C 295.191 124.225,295.189 124.344,295.101 124.575 C 294.975 124.902,295.018 124.964,295.297 124.857 C 295.549 124.760,295.674 124.862,295.723 125.206 C 295.761 125.473,295.941 125.706,296.124 125.722 C 296.307 125.738,296.556 125.775,296.678 125.804 C 296.800 125.832,296.974 125.844,297.065 125.829 C 297.157 125.815,297.220 125.878,297.205 125.969 C 297.191 126.060,297.202 126.235,297.231 126.357 C 297.259 126.478,297.296 126.728,297.312 126.910 C 297.329 127.093,297.517 127.229,297.730 127.212 C 297.980 127.192,298.117 127.338,298.117 127.623 C 298.117 127.923,298.223 128.025,298.447 127.939 C 298.633 127.867,298.754 127.925,298.724 128.071 C 298.695 128.213,298.787 128.334,298.929 128.340 C 299.072 128.345,299.271 128.441,299.372 128.552 C 299.480 128.669,299.441 128.686,299.280 128.594 C 299.128 128.506,299.003 128.540,299.003 128.669 C 299.003 128.798,299.141 128.904,299.310 128.904 C 299.478 128.904,299.668 129.103,299.732 129.347 C 299.801 129.609,300.034 129.790,300.305 129.790 C 300.641 129.790,300.724 129.888,300.619 130.160 C 300.514 130.435,300.568 130.496,300.827 130.397 C 301.037 130.316,301.339 130.454,301.585 130.742 C 301.950 131.170,301.951 131.189,301.601 130.917 C 301.258 130.651,301.226 130.659,301.348 130.976 C 301.424 131.176,301.626 131.340,301.796 131.340 C 301.965 131.340,302.104 131.489,302.104 131.672 C 302.104 131.855,302.210 132.004,302.339 132.004 C 302.468 132.004,302.503 131.880,302.417 131.728 C 302.311 131.539,302.335 131.522,302.493 131.672 C 302.621 131.794,302.764 132.093,302.811 132.337 C 302.860 132.591,303.058 132.767,303.275 132.749 C 303.509 132.730,303.654 132.877,303.654 133.132 C 303.654 133.386,303.863 133.599,304.193 133.682 C 304.570 133.776,304.692 133.923,304.598 134.167 C 304.501 134.421,304.560 134.481,304.813 134.384 C 305.005 134.310,305.346 134.393,305.571 134.567 C 305.967 134.875,305.967 134.880,305.562 134.738 C 305.262 134.633,305.174 134.679,305.249 134.904 C 305.307 135.075,305.545 135.218,305.778 135.221 C 306.061 135.225,306.179 135.358,306.134 135.621 C 306.086 135.896,306.186 135.996,306.461 135.948 C 306.678 135.911,306.871 136.005,306.889 136.157 C 306.907 136.310,306.934 136.534,306.949 136.656 C 306.964 136.777,307.126 136.877,307.309 136.877 C 307.492 136.877,307.641 137.037,307.641 137.233 C 307.641 137.457,307.763 137.542,307.971 137.462 C 308.152 137.393,308.286 137.407,308.268 137.494 C 308.201 137.818,308.581 138.420,308.775 138.300 C 308.886 138.232,308.910 138.067,308.829 137.935 C 308.740 137.791,308.783 137.758,308.936 137.853 C 309.077 137.940,309.192 138.243,309.192 138.528 C 309.192 138.812,309.355 139.107,309.555 139.184 C 309.873 139.306,309.880 139.274,309.614 138.931 C 309.343 138.580,309.361 138.582,309.790 138.947 C 310.078 139.192,310.216 139.494,310.135 139.705 C 310.037 139.960,310.097 140.018,310.357 139.918 C 310.610 139.821,310.735 139.923,310.784 140.267 C 310.822 140.534,311.002 140.766,311.185 140.783 C 311.368 140.799,311.617 140.836,311.739 140.864 C 311.860 140.893,312.014 140.911,312.079 140.906 C 312.145 140.900,312.219 141.146,312.245 141.453 C 312.300 142.123,312.460 142.414,312.772 142.414 C 312.902 142.414,312.939 142.243,312.857 142.027 C 312.743 141.727,312.769 141.699,312.973 141.901 C 313.118 142.045,313.249 142.393,313.263 142.673 C 313.280 142.997,313.451 143.213,313.732 143.263 C 313.976 143.307,314.275 143.448,314.396 143.576 C 314.547 143.734,314.529 143.758,314.341 143.652 C 314.189 143.566,314.064 143.601,314.064 143.730 C 314.064 143.859,314.252 143.965,314.483 143.965 C 314.745 143.965,314.889 144.109,314.870 144.352 C 314.851 144.595,314.984 144.728,315.227 144.709 C 315.583 144.681,315.717 144.896,315.635 145.365 C 315.618 145.466,315.706 145.485,315.831 145.407 C 315.956 145.330,316.155 145.522,316.274 145.834 C 316.442 146.276,316.643 146.401,317.185 146.401 C 317.758 146.401,317.862 146.475,317.772 146.819 C 317.629 147.366,317.935 147.840,318.431 147.841 C 318.678 147.841,318.826 148.007,318.826 148.284 C 318.826 148.571,318.997 148.751,319.312 148.796 C 319.656 148.845,319.758 148.969,319.661 149.222 C 319.561 149.484,319.619 149.542,319.881 149.442 C 320.134 149.345,320.258 149.447,320.307 149.791 C 320.352 150.102,320.536 150.281,320.819 150.287 C 321.067 150.293,321.234 150.426,321.199 150.589 C 321.128 150.913,321.828 151.514,322.088 151.353 C 322.179 151.297,322.195 151.405,322.122 151.594 C 322.029 151.837,322.125 151.938,322.450 151.938 C 322.764 151.938,322.870 152.041,322.784 152.265 C 322.704 152.474,322.865 152.686,323.227 152.851 C 323.540 152.994,323.750 153.184,323.694 153.274 C 323.638 153.365,323.766 153.425,323.978 153.408 C 324.231 153.388,324.341 153.512,324.298 153.767 C 324.256 154.013,324.436 154.233,324.786 154.366 C 325.090 154.482,325.497 154.883,325.691 155.258 C 325.885 155.633,326.164 155.925,326.311 155.906 C 327.035 155.814,327.353 155.955,327.353 156.368 C 327.353 156.663,327.501 156.811,327.796 156.811 C 328.042 156.811,328.239 156.958,328.239 157.142 C 328.239 157.526,329.741 159.258,330.011 159.185 C 330.110 159.158,330.429 159.485,330.718 159.911 C 331.008 160.338,331.465 160.718,331.735 160.757 C 332.005 160.796,332.226 160.971,332.226 161.145 C 332.226 161.319,332.375 161.462,332.558 161.462 C 332.858 161.462,332.989 161.725,332.917 162.182 C 332.902 162.273,333.090 162.348,333.333 162.348 C 333.591 162.348,333.776 162.495,333.776 162.701 C 333.776 162.895,333.975 163.105,334.217 163.169 C 334.459 163.232,334.599 163.379,334.527 163.495 C 334.455 163.611,334.596 163.759,334.841 163.823 C 335.086 163.887,335.336 164.132,335.398 164.368 C 335.460 164.604,335.593 164.782,335.695 164.764 C 336.179 164.679,336.409 164.814,336.293 165.116 C 336.204 165.347,336.308 165.449,336.632 165.449 C 336.893 165.449,337.099 165.591,337.099 165.771 C 337.099 165.962,337.406 166.151,337.858 166.235 C 338.386 166.334,338.582 166.473,338.499 166.688 C 338.411 166.919,338.583 166.999,339.164 166.999 C 339.753 166.999,339.983 167.109,340.089 167.442 C 340.166 167.685,340.336 167.885,340.467 167.885 C 340.597 167.885,340.847 168.059,341.022 168.272 C 341.211 168.503,341.273 168.525,341.174 168.328 C 341.046 168.069,341.103 168.078,341.435 168.367 C 341.669 168.572,341.934 168.749,342.024 168.761 C 342.498 168.824,342.839 169.064,342.723 169.252 C 342.650 169.369,342.726 169.446,342.890 169.424 C 344.148 169.251,345.044 169.450,344.960 169.884 C 344.913 170.131,344.943 170.295,345.028 170.248 C 345.338 170.077,347.396 170.438,347.338 170.653 C 347.305 170.775,347.853 170.925,348.556 170.986 C 349.495 171.067,349.834 171.184,349.834 171.429 C 349.834 171.705,350.369 171.772,353.043 171.830 C 355.448 171.881,356.340 171.978,356.604 172.217 C 357.095 172.662,359.025 172.651,359.025 172.204 C 359.025 171.913,360.303 171.870,369.158 171.863 C 385.170 171.850,391.929 171.802,391.635 171.704 C 391.485 171.654,391.362 171.516,391.362 171.397 C 391.362 171.278,391.455 171.238,391.568 171.308 C 391.682 171.378,391.832 171.343,391.901 171.231 C 392.082 170.939,399.040 170.908,399.220 171.199 C 399.298 171.325,399.505 171.429,399.681 171.429 C 400.133 171.429,400.121 169.303,399.666 168.848 C 399.482 168.664,399.392 168.415,399.467 168.295 C 399.541 168.175,399.392 168.022,399.136 167.955 C 398.880 167.888,398.671 167.707,398.671 167.553 C 398.671 167.398,398.469 167.219,398.222 167.155 C 397.975 167.090,397.800 166.908,397.834 166.751 C 397.868 166.594,397.750 166.461,397.572 166.455 C 397.395 166.450,397.014 166.096,396.727 165.670 C 396.439 165.244,396.120 164.895,396.017 164.895 C 395.775 164.895,395.460 164.580,395.460 164.338 C 395.460 164.235,395.111 163.909,394.684 163.615 C 394.258 163.320,393.937 162.956,393.971 162.805 C 394.005 162.654,393.830 162.478,393.583 162.414 C 393.336 162.349,393.134 162.158,393.134 161.990 C 393.134 161.821,392.996 161.683,392.828 161.683 C 392.659 161.683,392.466 161.474,392.400 161.218 C 392.333 160.962,392.183 160.812,392.067 160.883 C 391.950 160.955,391.732 160.866,391.582 160.684 C 391.431 160.503,391.384 160.354,391.476 160.354 C 391.743 160.354,390.630 159.338,390.185 159.176 C 389.964 159.095,389.850 158.922,389.931 158.791 C 390.012 158.659,389.871 158.499,389.613 158.431 C 389.357 158.364,389.147 158.183,389.147 158.029 C 389.147 157.874,388.945 157.695,388.698 157.631 C 388.451 157.566,388.276 157.380,388.310 157.217 C 388.344 157.055,388.245 156.947,388.089 156.979 C 387.933 157.010,387.742 156.868,387.663 156.663 C 387.487 156.205,386.673 155.371,386.401 155.371 C 386.292 155.371,386.142 155.221,386.069 155.038 C 385.831 154.445,385.071 153.710,384.696 153.710 C 384.494 153.710,384.192 153.535,384.025 153.322 C 383.749 152.971,383.757 152.963,384.109 153.239 C 384.394 153.462,384.496 153.472,384.496 153.273 C 384.496 153.125,384.297 152.952,384.053 152.888 C 383.810 152.824,383.610 152.684,383.610 152.577 C 383.610 152.349,382.684 151.384,382.466 151.384 C 382.273 151.384,381.949 151.057,381.949 150.862 C 381.949 150.611,381.093 149.805,380.661 149.649 C 380.441 149.570,380.322 149.404,380.398 149.281 C 380.474 149.158,380.275 148.959,379.956 148.837 C 379.601 148.703,379.437 148.517,379.534 148.360 C 379.632 148.201,379.595 148.164,379.436 148.263 C 379.279 148.359,379.093 148.192,378.956 147.831 C 378.808 147.443,378.619 147.285,378.402 147.368 C 378.221 147.438,378.061 147.373,378.047 147.224 C 378.032 147.076,378.016 146.905,378.010 146.844 C 378.005 146.783,377.752 146.484,377.448 146.179 C 377.144 145.875,376.977 145.775,377.077 145.958 C 377.177 146.141,376.993 146.049,376.669 145.753 C 376.039 145.179,375.906 144.946,376.357 145.205 C 376.509 145.292,376.384 145.115,376.080 144.811 C 375.775 144.507,375.476 144.254,375.415 144.249 C 375.354 144.243,375.183 144.227,375.035 144.212 C 374.886 144.198,374.822 144.038,374.891 143.857 C 374.974 143.640,374.816 143.451,374.428 143.304 C 374.067 143.167,373.900 142.980,373.997 142.823 C 374.095 142.664,374.058 142.627,373.899 142.726 C 373.742 142.822,373.557 142.658,373.422 142.303 C 373.301 141.984,373.113 141.778,373.004 141.845 C 372.766 141.992,372.261 141.434,372.456 141.239 C 372.531 141.164,372.334 140.984,372.018 140.840 C 371.695 140.692,371.507 140.470,371.589 140.333 C 371.669 140.199,371.566 140.225,371.360 140.393 C 370.993 140.690,370.838 140.410,370.966 139.682 C 370.984 139.580,370.796 139.444,370.549 139.379 C 370.302 139.315,370.100 139.124,370.100 138.955 C 370.100 138.787,369.911 138.649,369.681 138.649 C 369.419 138.649,369.274 138.505,369.294 138.261 C 369.313 138.018,369.180 137.885,368.937 137.905 C 368.724 137.921,368.549 137.847,368.549 137.738 C 368.549 137.630,368.549 137.492,368.549 137.431 C 368.549 137.220,367.552 136.324,367.380 136.381 C 367.286 136.412,367.143 136.263,367.065 136.049 C 366.892 135.581,366.079 134.782,365.581 134.591 C 365.384 134.515,365.249 134.330,365.280 134.180 C 365.312 134.030,365.238 133.901,365.116 133.894 C 364.693 133.868,364.335 133.523,364.482 133.284 C 364.571 133.140,364.528 133.107,364.375 133.202 C 364.219 133.298,364.033 133.134,363.898 132.780 C 363.777 132.460,363.577 132.261,363.454 132.337 C 363.331 132.413,363.164 132.295,363.084 132.074 C 363.003 131.853,362.687 131.423,362.382 131.118 C 362.078 130.814,361.912 130.714,362.015 130.897 C 362.137 131.113,362.038 131.085,361.730 130.815 C 361.470 130.588,361.266 130.338,361.275 130.262 C 361.327 129.845,361.209 129.718,361.031 130.000 C 360.872 130.251,360.795 130.191,360.678 129.723 C 360.595 129.394,360.401 129.125,360.245 129.125 C 360.090 129.125,359.910 128.923,359.846 128.676 C 359.781 128.429,359.602 128.254,359.448 128.288 C 359.293 128.322,358.918 127.974,358.614 127.515 C 358.281 127.014,358.000 126.778,357.909 126.925 C 357.764 127.160,357.428 126.656,357.383 126.135 C 357.373 126.013,357.084 125.881,356.741 125.842 C 356.198 125.780,356.156 125.725,356.409 125.412 C 356.581 125.200,356.595 125.117,356.443 125.207 C 356.302 125.292,356.019 125.297,355.815 125.219 C 355.546 125.116,355.518 125.031,355.713 124.911 C 356.068 124.691,355.746 124.189,355.349 124.341 C 355.066 124.449,354.936 124.211,355.018 123.738 C 355.035 123.637,354.971 123.604,354.875 123.663 C 354.779 123.722,354.453 123.623,354.150 123.443 C 353.847 123.262,353.768 123.166,353.975 123.229 C 354.238 123.309,354.314 123.247,354.229 123.023 C 354.161 122.847,353.979 122.702,353.824 122.702 C 353.669 122.702,353.406 122.533,353.239 122.327 C 352.977 122.005,352.981 121.976,353.267 122.122 C 353.562 122.273,353.562 122.258,353.267 121.989 C 353.084 121.822,352.795 121.540,352.625 121.363 C 352.424 121.154,352.374 121.144,352.482 121.334 C 352.618 121.573,352.567 121.577,352.213 121.355 C 351.973 121.206,351.788 120.924,351.802 120.730 C 351.817 120.521,351.668 120.389,351.440 120.407 C 351.073 120.436,350.944 120.210,351.044 119.712 C 351.069 119.590,351.017 119.562,350.929 119.650 C 350.668 119.911,349.502 118.943,349.502 118.466 C 349.502 118.223,349.417 118.077,349.313 118.142 C 349.209 118.206,349.007 118.003,348.864 117.690 C 348.722 117.377,348.483 117.167,348.334 117.222 C 348.184 117.277,347.864 117.132,347.622 116.898 C 347.254 116.544,347.245 116.498,347.566 116.622 C 348.207 116.867,347.998 116.536,347.277 116.163 C 346.907 115.972,346.507 115.560,346.388 115.249 C 346.260 114.911,346.053 114.730,345.874 114.798 C 345.691 114.869,345.386 114.575,345.085 114.040 C 344.774 113.486,344.459 113.189,344.224 113.228 C 343.965 113.271,343.876 113.160,343.929 112.858 C 343.994 112.485,343.956 112.467,343.647 112.723 C 343.346 112.973,343.309 112.970,343.411 112.705 C 343.477 112.532,343.372 112.194,343.178 111.954 C 342.983 111.714,342.899 111.667,342.990 111.849 C 343.102 112.075,343.002 112.047,342.679 111.764 C 342.417 111.535,342.261 111.254,342.331 111.140 C 342.401 111.027,342.249 110.879,341.993 110.812 C 341.738 110.745,341.528 110.552,341.528 110.384 C 341.528 110.215,341.390 110.078,341.222 110.078 C 341.053 110.078,340.860 109.865,340.792 109.606 C 340.717 109.317,340.548 109.180,340.359 109.253 C 340.173 109.324,339.897 109.114,339.669 108.728 C 339.460 108.374,339.188 108.084,339.066 108.084 C 338.944 108.084,338.916 107.968,339.004 107.825 C 339.108 107.657,339.049 107.610,338.835 107.692 C 338.645 107.765,338.390 107.632,338.229 107.374 C 338.002 107.011,338.005 106.961,338.245 107.099 C 338.406 107.192,338.289 107.021,337.984 106.720 C 337.680 106.419,337.356 106.209,337.264 106.255 C 337.173 106.301,336.999 106.079,336.878 105.762 C 336.738 105.392,336.519 105.208,336.270 105.250 C 336.004 105.295,335.901 105.193,335.945 104.928 C 335.989 104.670,335.867 104.540,335.582 104.540 C 335.313 104.540,335.166 104.399,335.185 104.158 C 335.205 103.916,335.055 103.774,334.773 103.771 C 334.466 103.767,334.352 103.640,334.400 103.355 C 334.439 103.130,334.374 103.005,334.257 103.077 C 334.140 103.150,333.988 103.062,333.919 102.882 C 333.850 102.702,333.665 102.586,333.508 102.625 C 333.351 102.664,333.297 102.654,333.389 102.603 C 333.713 102.422,333.549 102.086,333.167 102.150 C 332.907 102.193,332.778 102.069,332.774 101.772 C 332.770 101.490,332.629 101.340,332.386 101.360 C 332.176 101.377,332.004 101.296,332.004 101.180 C 332.004 101.065,331.912 101.028,331.798 101.098 C 331.685 101.168,331.520 101.109,331.432 100.966 C 331.335 100.810,331.367 100.766,331.512 100.855 C 331.644 100.937,331.816 100.900,331.895 100.773 C 331.973 100.646,331.955 100.557,331.855 100.574 C 331.408 100.652,331.104 100.536,331.228 100.335 C 331.303 100.212,331.221 100.170,331.039 100.240 C 330.732 100.358,330.296 99.597,330.416 99.153 C 330.443 99.053,330.377 99.025,330.270 99.091 C 330.163 99.157,329.959 98.955,329.817 98.642 C 329.652 98.280,329.439 98.119,329.231 98.199 C 329.017 98.281,328.904 98.187,328.904 97.926 C 328.904 97.707,328.658 97.396,328.358 97.235 C 328.057 97.075,327.865 96.856,327.931 96.750 C 327.997 96.643,327.968 96.570,327.868 96.588 C 327.206 96.703,326.868 96.553,327.115 96.254 C 327.397 95.915,327.080 95.550,326.704 95.782 C 326.591 95.852,326.434 95.807,326.357 95.681 C 326.279 95.555,326.107 95.519,325.975 95.601 C 325.830 95.690,325.798 95.646,325.895 95.490 C 325.983 95.348,326.148 95.288,326.261 95.358 C 326.375 95.428,326.467 95.376,326.467 95.241 C 326.467 95.107,326.343 95.013,326.190 95.033 C 325.571 95.114,325.344 94.997,325.406 94.629 C 325.452 94.350,325.299 94.222,324.862 94.171 C 324.431 94.122,324.252 93.976,324.252 93.673 C 324.252 93.392,324.100 93.245,323.810 93.245 C 323.566 93.245,323.367 93.107,323.367 92.938 C 323.367 92.770,323.157 92.577,322.901 92.510 C 322.626 92.438,322.500 92.286,322.591 92.137 C 322.682 91.990,322.563 91.838,322.302 91.770 C 322.057 91.706,321.805 91.453,321.741 91.209 C 321.673 90.948,321.520 90.828,321.373 90.919 C 321.225 91.011,321.072 90.884,321.000 90.609 C 320.933 90.353,320.741 90.144,320.572 90.144 C 320.404 90.144,320.266 89.945,320.266 89.701 C 320.266 89.449,320.118 89.258,319.923 89.258 C 319.502 89.258,318.457 88.168,318.622 87.901 C 318.688 87.795,318.536 87.708,318.285 87.708 C 318.028 87.708,317.829 87.563,317.829 87.375 C 317.829 87.076,317.566 86.945,317.110 87.017 C 317.018 87.031,316.955 86.968,316.970 86.877 C 317.042 86.420,316.911 86.157,316.611 86.157 C 316.427 86.157,316.279 85.960,316.279 85.714 C 316.279 85.471,316.204 85.283,316.113 85.298 C 315.656 85.370,315.393 85.239,315.393 84.939 C 315.393 84.756,315.244 84.607,315.061 84.607 C 314.876 84.607,314.729 84.410,314.729 84.164 C 314.729 83.869,314.581 83.721,314.286 83.721 C 314.042 83.721,313.843 83.583,313.843 83.415 C 313.843 83.246,313.633 83.053,313.377 82.986 C 313.103 82.915,312.976 82.762,313.068 82.614 C 313.159 82.466,313.039 82.314,312.778 82.246 C 312.533 82.182,312.281 81.929,312.217 81.685 C 312.149 81.424,311.997 81.304,311.849 81.395 C 311.701 81.487,311.548 81.360,311.476 81.085 C 311.410 80.830,311.217 80.620,311.048 80.620 C 310.880 80.620,310.742 80.421,310.742 80.177 C 310.742 79.882,310.594 79.734,310.299 79.734 C 310.053 79.734,309.856 79.587,309.856 79.402 C 309.856 79.219,309.707 79.070,309.524 79.070 C 309.224 79.070,309.093 78.807,309.165 78.350 C 309.180 78.259,308.992 78.184,308.749 78.184 C 308.503 78.184,308.306 78.036,308.306 77.852 C 308.306 77.552,308.043 77.421,307.586 77.493 C 307.494 77.508,307.432 77.445,307.446 77.353 C 307.518 76.896,307.387 76.633,307.087 76.633 C 306.903 76.633,306.755 76.437,306.755 76.190 C 306.755 75.947,306.681 75.759,306.589 75.774 C 306.132 75.846,305.869 75.715,305.869 75.415 C 305.869 75.233,305.720 75.083,305.537 75.083 C 305.353 75.083,305.205 74.886,305.205 74.640 C 305.205 74.345,305.057 74.197,304.762 74.197 C 304.518 74.197,304.319 74.059,304.319 73.891 C 304.319 73.722,304.110 73.530,303.854 73.463 C 303.579 73.391,303.452 73.238,303.544 73.090 C 303.635 72.942,303.515 72.790,303.254 72.722 C 303.010 72.658,302.757 72.406,302.693 72.161 C 302.625 71.900,302.473 71.781,302.326 71.872 C 302.177 71.963,302.025 71.837,301.953 71.562 C 301.886 71.306,301.693 71.096,301.525 71.096 C 301.356 71.096,301.218 70.897,301.218 70.653 C 301.218 70.358,301.071 70.210,300.775 70.210 C 300.529 70.210,300.332 70.063,300.332 69.878 C 300.332 69.695,300.183 69.546,300.000 69.546 C 299.700 69.546,299.569 69.283,299.642 68.826 C 299.656 68.735,299.468 68.660,299.225 68.660 C 298.979 68.660,298.782 68.512,298.782 68.328 C 298.782 68.028,298.519 67.897,298.062 67.969 C 297.971 67.984,297.908 67.921,297.922 67.829 C 297.994 67.373,297.863 67.110,297.564 67.110 C 297.379 67.110,297.231 66.913,297.231 66.667 C 297.231 66.423,297.157 66.236,297.065 66.250 C 296.608 66.322,296.346 66.191,296.346 65.891 C 296.346 65.709,296.196 65.559,296.013 65.559 C 295.829 65.559,295.681 65.362,295.681 65.116 C 295.681 64.821,295.533 64.673,295.238 64.673 C 294.994 64.673,294.795 64.535,294.795 64.367 C 294.795 64.198,294.586 64.006,294.330 63.939 C 294.055 63.867,293.928 63.714,294.020 63.566 C 294.112 63.417,293.985 63.265,293.710 63.193 C 293.434 63.121,293.245 62.892,293.245 62.630 C 293.245 62.318,293.142 62.229,292.892 62.325 C 292.657 62.415,292.501 62.313,292.423 62.016 C 292.359 61.772,292.169 61.573,292.001 61.573 C 291.832 61.573,291.694 61.373,291.694 61.130 C 291.694 60.834,291.547 60.687,291.251 60.687 C 291.005 60.687,290.808 60.539,290.808 60.354 C 290.808 60.172,290.659 60.022,290.476 60.022 C 290.177 60.022,290.046 59.759,290.118 59.302 C 290.132 59.211,289.956 59.136,289.727 59.136 C 289.487 59.136,289.257 58.935,289.186 58.664 C 289.104 58.351,288.948 58.237,288.720 58.324 C 288.532 58.397,288.388 58.385,288.401 58.298 C 288.469 57.845,288.337 57.586,288.040 57.586 C 287.855 57.586,287.708 57.389,287.708 57.143 C 287.708 56.899,287.633 56.712,287.542 56.726 C 287.085 56.798,286.822 56.667,286.822 56.368 C 286.822 56.185,286.672 56.035,286.489 56.035 C 286.305 56.035,286.157 55.839,286.157 55.592 C 286.157 55.297,286.010 55.150,285.714 55.150 C 285.471 55.150,285.271 55.012,285.271 54.843 C 285.271 54.675,285.062 54.482,284.806 54.415 C 284.531 54.343,284.404 54.191,284.496 54.042 C 284.588 53.894,284.461 53.741,284.186 53.669 C 283.921 53.600,283.721 53.368,283.721 53.130 C 283.721 52.861,283.564 52.713,283.278 52.713 C 283.032 52.713,282.835 52.566,282.835 52.381 C 282.835 52.198,282.641 52.049,282.405 52.049 C 282.085 52.049,281.998 51.928,282.066 51.576 C 282.116 51.316,282.097 51.163,282.024 51.236 C 281.833 51.426,281.028 50.956,281.165 50.734 C 281.228 50.632,281.071 50.494,280.817 50.428 C 280.562 50.361,280.415 50.207,280.490 50.086 C 280.565 49.965,280.426 49.802,280.180 49.724 C 279.935 49.646,279.734 49.440,279.734 49.265 C 279.734 49.091,279.642 48.948,279.530 48.948 C 279.256 48.948,277.962 47.643,277.962 47.367 C 277.962 47.248,277.856 47.216,277.726 47.296 C 277.596 47.376,277.435 47.233,277.368 46.977 C 277.301 46.721,277.108 46.512,276.940 46.512 C 276.771 46.512,276.633 46.378,276.633 46.215 C 276.633 46.052,276.379 45.802,276.067 45.660 C 275.756 45.518,275.562 45.303,275.637 45.182 C 275.712 45.060,275.618 44.961,275.428 44.961 C 275.238 44.961,275.083 44.818,275.083 44.644 C 275.083 44.469,274.889 44.265,274.651 44.190 C 274.414 44.114,274.156 43.851,274.078 43.605 C 273.996 43.347,273.808 43.206,273.635 43.273 C 273.464 43.338,273.275 43.202,273.197 42.957 C 273.122 42.719,272.967 42.525,272.853 42.525 C 272.740 42.525,272.647 42.366,272.647 42.172 C 272.647 41.978,272.447 41.767,272.204 41.703 C 271.960 41.639,271.761 41.506,271.761 41.407 C 271.761 41.307,271.567 41.164,271.329 41.089 C 271.083 41.011,270.947 40.822,271.013 40.651 C 271.080 40.476,270.936 40.289,270.669 40.204 C 270.323 40.094,270.210 39.873,270.210 39.298 C 270.210 38.695,270.122 38.538,269.782 38.538 C 269.547 38.538,269.291 38.339,269.214 38.095 C 269.133 37.840,268.869 37.645,268.590 37.635 C 268.324 37.625,268.231 37.567,268.383 37.506 C 268.871 37.309,268.681 37.047,267.940 36.898 C 267.505 36.810,267.324 36.689,267.482 36.590 C 267.663 36.477,267.566 36.259,267.163 35.877 C 266.844 35.574,266.671 35.476,266.778 35.659 C 266.946 35.945,266.922 35.949,266.598 35.687 C 266.392 35.520,266.224 35.257,266.224 35.102 C 266.224 34.947,266.060 34.758,265.860 34.681 C 265.541 34.559,265.535 34.590,265.805 34.934 C 266.085 35.291,266.078 35.299,265.725 35.023 C 265.512 34.856,265.338 34.595,265.338 34.444 C 265.338 34.137,263.802 33.001,263.388 33.001 C 263.242 33.001,263.123 32.802,263.123 32.558 C 263.123 32.306,262.975 32.115,262.780 32.115 C 262.359 32.115,261.314 31.026,261.479 30.758 C 261.545 30.652,261.393 30.565,261.143 30.565 C 260.892 30.565,260.687 30.452,260.687 30.313 C 260.687 30.018,259.651 29.014,259.346 29.014 C 259.231 29.014,259.136 28.815,259.136 28.571 C 259.136 28.276,258.989 28.128,258.693 28.128 C 258.447 28.128,258.250 27.981,258.250 27.796 C 258.250 27.614,258.101 27.464,257.918 27.464 C 257.735 27.464,257.586 27.315,257.586 27.132 C 257.586 26.949,257.501 26.800,257.397 26.800 C 257.118 26.800,256.035 25.751,256.035 25.481 C 256.035 25.268,255.728 25.158,255.316 25.223 C 255.224 25.237,255.150 25.100,255.150 24.917 C 255.150 24.734,255.044 24.585,254.915 24.585 C 254.786 24.585,254.752 24.468,254.841 24.326 C 254.948 24.151,254.880 24.113,254.632 24.208 C 254.394 24.299,254.264 24.237,254.264 24.032 C 254.264 23.857,254.065 23.608,253.823 23.478 C 253.580 23.349,253.406 23.121,253.435 22.972 C 253.464 22.824,253.314 22.716,253.101 22.733 C 252.858 22.752,252.713 22.608,252.713 22.345 C 252.713 22.115,252.575 21.927,252.407 21.927 C 252.238 21.927,252.048 21.728,251.985 21.484 C 251.921 21.240,251.710 21.041,251.516 21.041 C 251.322 21.041,251.163 20.898,251.163 20.724 C 251.163 20.549,250.963 20.343,250.720 20.266 C 250.476 20.188,250.277 19.994,250.277 19.834 C 250.277 19.673,250.075 19.489,249.828 19.425 C 249.580 19.360,249.406 19.174,249.440 19.011 C 249.475 18.844,249.310 18.713,249.059 18.710 C 248.763 18.707,248.637 18.578,248.681 18.323 C 248.724 18.070,248.601 17.940,248.318 17.940 C 248.046 17.940,247.901 17.799,247.921 17.553 C 247.938 17.336,247.821 17.192,247.655 17.227 C 247.493 17.261,247.305 17.081,247.239 16.827 C 247.172 16.570,246.992 16.413,246.835 16.473 C 246.668 16.537,246.494 16.351,246.410 16.017 C 246.332 15.706,246.208 15.512,246.134 15.587 C 245.949 15.771,245.382 15.277,245.521 15.052 C 245.582 14.953,245.431 14.808,245.186 14.730 C 244.941 14.652,244.740 14.445,244.740 14.271 C 244.740 14.096,244.551 13.953,244.321 13.953 C 244.059 13.953,243.914 13.809,243.934 13.566 C 243.951 13.353,243.815 13.178,243.632 13.178 C 243.126 13.178,242.736 12.774,243.048 12.573 C 243.212 12.466,243.174 12.409,242.938 12.406 C 242.739 12.405,242.519 12.183,242.449 11.914 C 242.379 11.646,242.251 11.495,242.166 11.580 C 241.968 11.779,241.386 11.304,241.534 11.065 C 241.595 10.966,241.445 10.821,241.199 10.743 C 240.954 10.665,240.753 10.480,240.753 10.331 C 240.753 10.183,240.433 10.037,240.042 10.007 C 239.340 9.953,238.907 9.602,239.120 9.258 C 239.180 9.160,239.073 9.081,238.884 9.081 C 238.694 9.081,238.538 8.931,238.538 8.749 C 238.538 8.564,238.341 8.416,238.095 8.416 C 237.800 8.416,237.652 8.269,237.652 7.973 C 237.652 7.727,237.505 7.530,237.320 7.530 C 237.137 7.530,236.988 7.428,236.988 7.303 C 236.988 7.179,236.733 6.980,236.421 6.861 C 236.109 6.742,235.911 6.552,235.981 6.439 C 236.052 6.325,236.008 6.170,235.884 6.093 C 235.760 6.017,235.657 6.084,235.656 6.244 C 235.653 6.448,235.604 6.459,235.489 6.283 C 235.400 6.144,235.127 5.989,234.884 5.937 C 234.640 5.885,234.464 5.730,234.492 5.593 C 234.520 5.455,234.354 5.283,234.124 5.210 C 233.895 5.137,233.651 4.932,233.582 4.753 C 233.511 4.568,233.171 4.430,232.787 4.430 C 232.263 4.430,232.115 4.332,232.115 3.987 C 232.115 3.691,231.968 3.544,231.672 3.544 C 231.429 3.544,231.229 3.409,231.229 3.245 C 231.229 3.062,230.959 2.939,230.531 2.927 C 229.878 2.908,229.375 2.528,229.575 2.204 C 229.624 2.125,229.358 2.052,228.985 2.041 C 228.611 2.030,228.122 1.856,227.899 1.654 C 227.672 1.448,227.373 1.359,227.222 1.452 C 227.059 1.553,227.010 1.526,227.097 1.385 C 227.188 1.239,226.955 1.152,226.473 1.152 C 226.051 1.152,225.545 0.992,225.350 0.797 C 225.105 0.552,224.591 0.443,223.683 0.443 C 222.955 0.443,222.370 0.344,222.370 0.221 C 222.370 -0.075,206.046 -0.084,205.943 0.213 M249.502 32.007 C 250.354 32.213,251.700 32.568,252.492 32.796 C 253.283 33.024,254.206 33.274,254.543 33.352 C 254.879 33.430,255.208 33.582,255.275 33.690 C 255.342 33.798,255.555 33.887,255.747 33.887 C 256.071 33.887,257.694 34.563,258.472 35.021 C 258.654 35.129,259.038 35.317,259.323 35.440 C 260.321 35.870,262.901 37.483,262.901 37.678 C 262.901 37.785,263.019 37.874,263.163 37.874 C 263.473 37.874,267.699 42.053,299.447 73.754 C 312.684 86.971,324.004 98.378,324.603 99.102 C 325.828 100.583,326.896 101.661,327.138 101.661 C 327.540 101.661,392.833 167.231,392.604 167.406 C 391.619 168.157,354.209 168.628,351.274 167.926 C 345.335 166.506,337.109 162.150,336.279 159.986 C 336.120 159.572,332.465 156.589,332.117 156.589 C 331.966 156.589,328.963 153.641,325.445 150.037 C 314.507 138.834,289.381 113.747,288.787 113.437 C 288.477 113.275,287.085 111.931,285.695 110.452 C 284.305 108.972,268.292 92.906,250.111 74.749 C 231.553 56.215,217.054 41.567,217.054 41.351 C 217.054 40.826,219.364 38.610,221.041 37.526 C 221.589 37.171,222.091 36.809,222.157 36.721 C 222.365 36.439,227.550 33.887,227.913 33.887 C 228.105 33.887,228.356 33.795,228.472 33.683 C 228.674 33.487,230.014 33.072,232.115 32.553 C 232.663 32.418,233.560 32.197,234.109 32.062 C 236.939 31.364,246.700 31.330,249.502 32.007 M129.117 108.361 C 129.111 127.967,129.047 133.996,128.840 134.357 C 128.692 134.616,127.714 135.762,126.666 136.904 C 125.618 138.047,122.689 141.274,120.158 144.075 C 115.295 149.458,108.131 157.367,107.743 157.782 C 107.616 157.918,106.121 159.573,104.421 161.459 C 102.720 163.346,101.179 165.047,100.997 165.239 C 100.609 165.646,97.825 168.734,96.102 170.668 C 95.444 171.406,91.476 175.792,87.284 180.413 C 83.092 185.034,78.906 189.659,77.981 190.689 C 77.057 191.720,75.703 193.218,74.972 194.017 C 74.241 194.816,72.796 196.406,71.761 197.550 C 70.725 198.693,69.775 199.737,69.650 199.870 C 69.524 200.002,68.532 201.107,67.445 202.326 C 57.795 213.144,54.123 215.652,44.827 217.773 C 42.733 218.250,9.310 218.501,7.385 218.053 C 6.831 217.924,6.909 217.185,7.536 216.615 C 7.739 216.430,9.291 214.740,10.985 212.859 C 15.674 207.651,20.673 202.106,22.674 199.892 C 23.664 198.798,24.879 197.452,25.374 196.902 C 27.763 194.247,33.279 188.146,34.988 186.268 C 36.041 185.111,37.791 183.167,38.876 181.949 C 39.962 180.731,40.903 179.684,40.968 179.623 C 41.034 179.563,41.884 178.616,42.858 177.519 C 43.832 176.423,44.685 175.476,44.753 175.415 C 44.903 175.280,53.209 166.116,55.690 163.346 C 56.672 162.251,57.575 161.245,57.697 161.111 C 57.818 160.977,58.725 159.979,59.712 158.894 C 61.889 156.500,64.463 153.646,72.278 144.961 C 75.567 141.307,79.172 137.320,80.290 136.102 C 82.062 134.169,89.992 125.399,94.997 119.837 C 95.921 118.809,97.586 116.965,98.696 115.739 C 99.807 114.513,103.283 110.670,106.422 107.198 C 109.561 103.726,112.540 100.437,113.042 99.889 C 113.543 99.340,114.801 97.945,115.836 96.788 C 117.495 94.936,118.991 93.285,120.044 92.145 C 120.227 91.947,121.224 90.843,122.259 89.691 C 123.295 88.539,124.194 87.547,124.259 87.486 C 124.323 87.425,125.213 86.429,126.238 85.271 C 127.262 84.114,128.206 83.094,128.336 83.004 C 129.135 82.453,129.125 82.142,129.117 108.361 " stroke="none" fill="#2c54dc" fill-rule="evenodd"></path><path id="path3" d="M320.179 96.031 C 320.105 96.224,320.046 107.063,320.048 120.118 L 320.051 143.854 326.004 149.889 C 329.277 153.209,332.067 155.925,332.202 155.925 C 332.380 155.925,332.447 149.323,332.447 131.816 L 332.447 107.708 329.828 105.072 C 328.388 103.622,326.594 101.895,325.841 101.232 C 325.089 100.570,324.474 99.924,324.474 99.797 C 324.474 99.547,320.704 95.681,320.460 95.681 C 320.379 95.681,320.253 95.839,320.179 96.031 " stroke="none" fill="#15a3ec" fill-rule="evenodd"></path><path id="path4" d="M238.151 31.603 C 238.364 31.659,238.713 31.659,238.926 31.603 C 239.139 31.548,238.965 31.502,238.538 31.502 C 238.112 31.502,237.937 31.548,238.151 31.603 M244.795 31.603 C 245.008 31.659,245.357 31.659,245.570 31.603 C 245.783 31.548,245.609 31.502,245.183 31.502 C 244.756 31.502,244.582 31.548,244.795 31.603 M266.777 41.417 C 267.869 42.514,268.811 43.411,268.872 43.411 C 268.933 43.411,268.090 42.514,266.999 41.417 C 265.908 40.321,264.965 39.424,264.904 39.424 C 264.843 39.424,265.686 40.321,266.777 41.417 M219.158 43.854 C 219.634 44.341,220.073 44.740,220.134 44.740 C 220.195 44.740,219.856 44.341,219.380 43.854 C 218.904 43.367,218.465 42.968,218.404 42.968 C 218.343 42.968,218.683 43.367,219.158 43.854 M222.370 47.024 C 222.370 47.062,222.694 47.386,223.090 47.744 L 223.810 48.394 223.159 47.674 C 222.553 47.003,222.370 46.853,222.370 47.024 M224.363 49.017 C 224.363 49.055,224.687 49.379,225.083 49.737 L 225.803 50.388 225.152 49.668 C 224.546 48.997,224.363 48.846,224.363 49.017 M225.914 50.568 C 225.914 50.606,226.238 50.930,226.633 51.287 L 227.353 51.938 226.703 51.218 C 226.096 50.547,225.914 50.397,225.914 50.568 M277.363 51.827 C 277.701 52.254,287.517 62.184,299.177 73.895 C 320.114 94.924,324.474 99.392,324.474 99.813 C 324.474 99.931,325.089 100.570,325.841 101.232 C 326.594 101.895,328.388 103.622,329.828 105.072 L 332.447 107.708 332.447 131.816 C 332.447 149.431,332.381 155.925,332.200 155.925 C 332.064 155.925,329.796 153.750,327.161 151.093 C 322.454 146.345,289.766 113.928,287.597 111.857 C 286.988 111.275,284.435 108.718,281.924 106.175 C 277.297 101.488,275.748 99.985,275.748 100.185 C 275.748 100.246,277.417 101.981,279.457 104.041 C 281.498 106.101,284.305 108.992,285.695 110.464 C 287.085 111.937,288.477 113.275,288.787 113.437 C 289.381 113.747,314.507 138.834,325.445 150.037 C 328.963 153.641,331.966 156.589,332.117 156.589 C 332.465 156.589,336.120 159.572,336.279 159.986 C 337.109 162.150,345.335 166.506,351.274 167.926 C 354.209 168.628,391.619 168.157,392.604 167.406 C 392.833 167.231,327.540 101.661,327.138 101.661 C 326.896 101.661,325.830 100.585,324.602 99.102 C 323.379 97.625,276.401 50.612,277.363 51.827 M228.350 53.004 C 228.350 53.042,228.674 53.366,229.070 53.724 L 229.790 54.374 229.139 53.654 C 228.533 52.984,228.350 52.833,228.350 53.004 M229.900 54.554 C 229.900 54.592,230.224 54.916,230.620 55.274 L 231.340 55.925 230.689 55.205 C 230.083 54.534,229.900 54.383,229.900 54.554 M232.447 57.143 C 233.047 57.752,233.588 58.250,233.649 58.250 C 233.710 58.250,233.269 57.752,232.669 57.143 C 232.069 56.534,231.528 56.035,231.467 56.035 C 231.406 56.035,231.847 56.534,232.447 57.143 M233.887 58.541 C 233.887 58.579,234.211 58.903,234.607 59.261 L 235.327 59.911 234.676 59.192 C 234.070 58.521,233.887 58.370,233.887 58.541 M128.120 83.146 C 127.721 83.437,127.733 83.450,128.299 83.342 L 128.904 83.226 128.904 108.595 L 128.904 133.964 128.300 134.701 C 127.804 135.307,125.165 138.279,123.810 139.759 C 122.156 141.564,121.423 142.375,119.703 144.297 C 118.613 145.515,117.621 146.619,117.498 146.751 C 117.376 146.883,116.429 147.925,115.393 149.066 C 114.358 150.208,112.913 151.796,112.182 152.596 C 111.451 153.395,110.006 154.987,108.970 156.134 C 107.935 157.280,106.938 158.381,106.755 158.579 C 106.573 158.777,106.024 159.385,105.537 159.929 C 105.050 160.474,103.789 161.863,102.735 163.018 C 100.268 165.719,99.896 166.131,99.215 166.909 C 98.415 167.823,94.237 172.456,93.141 173.643 C 92.214 174.648,88.830 178.381,85.731 181.816 C 84.808 182.839,83.950 183.786,83.824 183.920 C 83.699 184.054,82.705 185.161,81.615 186.379 C 80.526 187.597,79.184 189.080,78.632 189.676 C 78.081 190.271,77.527 190.869,77.401 191.004 C 77.276 191.140,76.282 192.248,75.192 193.466 C 74.103 194.684,72.761 196.168,72.209 196.763 C 71.658 197.358,71.107 197.956,70.984 198.092 C 70.861 198.228,68.967 200.329,66.776 202.762 C 58.702 211.724,55.912 213.933,49.987 216.055 C 49.401 216.265,48.959 216.475,49.006 216.521 C 49.144 216.660,51.380 215.809,53.156 214.940 C 57.492 212.820,60.277 210.362,67.445 202.326 C 68.532 201.107,69.524 200.002,69.650 199.870 C 69.775 199.737,70.725 198.693,71.761 197.550 C 72.796 196.406,74.241 194.816,74.972 194.017 C 75.703 193.218,77.057 191.720,77.981 190.689 C 78.906 189.659,83.092 185.034,87.284 180.413 C 91.476 175.792,95.444 171.406,96.102 170.668 C 97.825 168.734,100.609 165.646,100.997 165.239 C 101.179 165.047,102.720 163.346,104.421 161.459 C 106.121 159.573,107.616 157.918,107.743 157.782 C 108.131 157.367,115.295 149.458,120.158 144.075 C 122.689 141.274,125.618 138.047,126.666 136.904 C 127.714 135.762,128.692 134.616,128.840 134.357 C 129.047 133.996,129.111 127.967,129.117 108.361 C 129.126 81.215,129.172 82.377,128.120 83.146 M126.004 85.548 C 125.105 86.553,124.318 87.425,124.256 87.486 C 124.193 87.547,123.295 88.539,122.259 89.691 C 121.224 90.843,120.227 91.947,120.044 92.145 C 118.991 93.285,117.495 94.936,115.836 96.788 C 114.801 97.945,113.543 99.340,113.042 99.889 C 112.540 100.437,109.561 103.726,106.422 107.198 C 103.283 110.670,99.807 114.513,98.696 115.739 C 97.586 116.965,95.921 118.809,94.997 119.837 C 90.396 124.950,82.092 134.138,80.295 136.102 C 79.181 137.320,77.328 139.363,76.177 140.642 C 75.027 141.921,72.759 144.437,71.139 146.232 C 69.519 148.028,68.323 149.438,68.482 149.365 C 68.641 149.293,69.269 148.666,69.878 147.972 C 71.183 146.486,74.385 142.918,74.862 142.421 C 75.044 142.230,76.390 140.730,77.852 139.088 C 79.313 137.446,80.617 136.002,80.749 135.880 C 80.881 135.759,81.970 134.563,83.169 133.223 C 84.368 131.883,85.855 130.233,86.473 129.557 C 87.091 128.881,88.394 127.439,89.369 126.353 C 90.343 125.266,91.788 123.675,92.580 122.818 C 93.372 121.960,94.668 120.523,95.460 119.625 C 96.251 118.727,97.004 117.881,97.133 117.745 C 97.261 117.609,98.447 116.301,99.769 114.839 C 101.091 113.378,102.537 111.783,102.982 111.296 C 103.428 110.808,104.826 109.264,106.090 107.863 C 109.711 103.848,111.932 101.391,112.292 101.003 C 112.475 100.806,113.472 99.703,114.507 98.552 C 115.543 97.401,116.489 96.351,116.611 96.217 C 116.733 96.084,117.680 95.037,118.715 93.890 C 119.751 92.744,121.149 91.208,121.823 90.477 C 122.497 89.745,123.842 88.250,124.813 87.154 C 125.784 86.058,126.680 85.061,126.805 84.939 C 127.262 84.492,127.862 83.721,127.751 83.721 C 127.689 83.721,126.902 84.543,126.004 85.548 M267.553 92.202 C 267.735 92.360,268.022 92.635,268.189 92.812 C 268.449 93.088,268.458 93.066,268.250 92.662 C 268.117 92.402,267.831 92.128,267.614 92.052 C 267.271 91.932,267.263 91.952,267.553 92.202 M263.453 92.824 C 263.354 92.994,263.349 93.066,263.442 92.982 C 263.535 92.898,263.834 93.088,264.105 93.404 C 264.467 93.825,264.599 93.884,264.599 93.624 C 264.599 93.429,264.523 93.289,264.431 93.312 C 264.338 93.336,264.120 93.166,263.948 92.934 C 263.691 92.590,263.601 92.570,263.453 92.824 M325.381 94.819 C 325.674 95.076,325.880 95.400,325.840 95.539 C 325.799 95.678,325.840 95.718,325.930 95.628 C 326.020 95.537,326.253 95.583,326.447 95.729 C 326.641 95.875,326.456 95.625,326.036 95.173 C 325.616 94.722,325.178 94.352,325.061 94.352 C 324.945 94.352,325.089 94.562,325.381 94.819 M274.333 98.843 C 274.409 99.060,274.683 99.346,274.943 99.480 C 275.347 99.687,275.369 99.678,275.093 99.418 C 274.916 99.251,274.642 98.965,274.484 98.782 C 274.233 98.493,274.214 98.500,274.333 98.843 M275.435 104.508 C 275.371 104.612,275.589 104.936,275.920 105.228 L 276.523 105.759 276.022 105.188 C 275.747 104.875,275.589 104.551,275.672 104.469 C 275.754 104.386,275.761 104.319,275.687 104.319 C 275.613 104.319,275.500 104.404,275.435 104.508 M277.519 106.861 C 277.519 107.165,278.837 108.060,278.969 107.847 C 279.070 107.683,279.047 107.629,278.912 107.712 C 278.674 107.860,277.882 107.131,278.073 106.940 C 278.134 106.879,278.034 106.829,277.852 106.829 C 277.669 106.829,277.519 106.844,277.519 106.861 M288.946 118.019 C 288.881 118.123,289.100 118.447,289.431 118.739 L 290.033 119.269 289.533 118.699 C 289.258 118.385,289.100 118.061,289.182 117.979 C 289.264 117.897,289.271 117.829,289.197 117.829 C 289.123 117.829,289.010 117.915,288.946 118.019 M65.852 152.107 C 64.656 153.418,62.879 155.381,61.905 156.470 C 60.930 157.558,59.983 158.611,59.801 158.810 C 58.557 160.162,57.236 161.619,55.690 163.345 C 53.263 166.056,44.906 175.278,44.753 175.415 C 44.685 175.476,43.832 176.423,42.858 177.519 C 41.884 178.616,41.034 179.563,40.968 179.623 C 40.903 179.684,39.962 180.731,38.876 181.949 C 37.791 183.167,36.041 185.111,34.988 186.268 C 33.279 188.146,27.763 194.247,25.374 196.902 C 23.745 198.713,20.931 201.827,17.624 205.480 C 15.833 207.459,14.499 209.019,14.659 208.948 C 14.819 208.876,16.026 207.606,17.342 206.125 C 18.657 204.645,20.152 202.970,20.664 202.405 C 21.176 201.840,21.847 201.092,22.156 200.744 C 22.669 200.166,24.365 198.293,29.329 192.822 C 30.313 191.737,31.218 190.738,31.340 190.602 C 32.312 189.516,37.312 183.983,37.652 183.617 C 37.835 183.421,39.181 181.923,40.642 180.288 C 42.104 178.653,43.450 177.156,43.632 176.962 C 43.815 176.768,44.812 175.671,45.847 174.524 C 46.883 173.376,48.328 171.784,49.059 170.985 C 49.790 170.186,51.185 168.642,52.159 167.555 C 53.134 166.468,54.081 165.423,54.264 165.232 C 54.446 165.042,55.790 163.543,57.250 161.901 C 58.710 160.258,60.013 158.815,60.147 158.693 C 60.281 158.571,61.371 157.375,62.569 156.035 C 65.699 152.536,66.644 151.491,67.526 150.554 C 67.955 150.097,68.244 149.723,68.167 149.723 C 68.090 149.723,67.049 150.796,65.852 152.107 M46.615 167.453 C 46.405 167.794,46.693 168.013,46.978 167.729 C 47.137 167.570,47.140 167.446,46.989 167.353 C 46.865 167.276,46.697 167.321,46.615 167.453 M386.656 171.810 C 387.051 171.859,387.699 171.859,388.095 171.810 C 388.491 171.761,388.167 171.721,387.375 171.721 C 386.584 171.721,386.260 171.761,386.656 171.810 M11.140 212.657 C 9.459 214.502,7.946 216.221,7.778 216.477 C 7.389 217.069,7.894 216.542,10.410 213.731 C 11.445 212.574,12.347 211.578,12.415 211.517 C 12.889 211.087,14.428 209.302,14.324 209.302 C 14.253 209.302,12.820 210.812,11.140 212.657 M47.132 216.944 C 46.682 217.109,45.287 217.407,44.032 217.607 C 41.046 218.080,40.942 218.106,41.891 218.136 C 42.335 218.150,43.667 217.962,44.851 217.719 C 47.102 217.255,49.156 216.629,48.394 216.637 C 48.151 216.640,47.583 216.778,47.132 216.944 M7.050 217.320 C 6.880 218.177,6.757 218.164,15.245 218.136 C 19.468 218.122,22.774 218.075,22.591 218.033 C 22.409 217.990,18.925 217.927,14.849 217.892 L 7.440 217.829 7.304 217.276 L 7.169 216.722 7.050 217.320 M27.505 218.327 C 29.902 218.363,33.889 218.363,36.364 218.328 C 38.839 218.292,36.877 218.263,32.004 218.263 C 27.132 218.263,25.107 218.292,27.505 218.327 " stroke="none" fill="#1c83e4" fill-rule="evenodd"></path></g></svg>