<svg id="svg" version="1.1" xmlns="http://www.w3.org/2000/svg" xmlns:xlink="http://www.w3.org/1999/xlink" width="400" height="401.1834319526627" viewBox="0, 0, 400,401.1834319526627"><g id="svgg"><path id="path0" d="M130.800 3.157 C 130.800 5.595,130.663 6.367,130.200 6.545 C 129.709 6.733,129.600 7.723,129.600 11.987 C 129.600 16.354,129.503 17.200,129.000 17.200 C 128.500 17.200,128.400 17.995,128.400 21.957 C 128.400 25.817,128.287 26.758,127.800 26.945 C 127.311 27.132,127.200 28.096,127.200 32.145 C 127.200 36.193,127.089 37.157,126.600 37.345 C 126.109 37.533,126.000 38.523,126.000 42.787 C 126.000 47.154,125.903 48.000,125.400 48.000 C 124.898 48.000,124.800 48.840,124.800 53.157 C 124.800 57.372,124.690 58.356,124.200 58.545 C 123.709 58.733,123.600 59.723,123.600 63.987 C 123.600 68.354,123.503 69.200,123.000 69.200 C 122.501 69.200,122.400 69.981,122.400 73.829 C 122.400 77.410,122.264 78.593,121.800 79.057 C 121.337 79.520,121.197 80.722,121.187 84.329 C 121.178 87.801,121.024 89.199,120.587 89.776 C 120.149 90.356,120.000 91.737,120.000 95.234 C 120.000 99.025,119.886 99.958,119.400 100.145 C 118.911 100.332,118.800 101.295,118.800 105.338 C 118.800 109.263,118.674 110.406,118.200 110.800 C 117.728 111.192,117.600 112.317,117.600 116.078 C 117.600 119.782,117.466 120.991,117.003 121.454 C 116.536 121.921,116.411 123.109,116.430 126.886 C 116.447 130.421,116.315 131.805,115.938 132.039 C 115.585 132.257,115.374 133.721,115.272 136.679 C 115.189 139.055,114.959 141.171,114.761 141.380 C 114.562 141.589,114.400 144.064,114.400 146.880 C 114.400 151.164,114.302 152.000,113.800 152.000 C 113.297 152.000,113.200 152.846,113.200 157.213 C 113.200 161.477,113.091 162.467,112.600 162.655 C 112.110 162.844,112.000 163.828,112.000 168.043 C 112.000 172.360,111.902 173.200,111.400 173.200 C 110.896 173.200,110.800 174.067,110.800 178.600 C 110.800 183.133,110.704 184.000,110.200 184.000 C 109.701 184.000,109.600 184.779,109.600 188.613 C 109.600 192.344,109.485 193.269,109.000 193.455 C 108.510 193.644,108.400 194.628,108.400 198.843 C 108.400 203.160,108.302 204.000,107.800 204.000 C 107.296 204.000,107.200 204.867,107.200 209.400 C 107.200 213.933,107.104 214.800,106.600 214.800 C 106.097 214.800,106.000 215.644,106.000 220.000 C 106.000 224.356,105.903 225.200,105.400 225.200 C 104.896 225.200,104.800 226.067,104.800 230.600 C 104.800 235.133,104.704 236.000,104.200 236.000 C 103.700 236.000,103.600 236.800,103.600 240.800 C 103.600 244.800,103.500 245.600,103.000 245.600 C 102.498 245.600,102.400 246.440,102.400 250.757 C 102.400 254.972,102.290 255.956,101.800 256.145 C 101.309 256.333,101.200 257.323,101.200 261.587 C 101.200 265.954,101.103 266.800,100.600 266.800 C 100.097 266.800,100.000 267.644,100.000 272.000 L 100.000 277.200 50.000 277.200 L 0.000 277.200 0.000 302.000 L 0.000 326.800 200.000 326.800 L 400.000 326.800 400.000 302.000 L 400.000 277.200 350.600 277.200 L 301.200 277.200 301.200 274.587 C 301.200 272.634,301.049 271.917,300.600 271.745 C 300.113 271.558,300.000 270.617,300.000 266.757 C 300.000 262.795,299.900 262.000,299.400 262.000 C 298.896 262.000,298.800 261.133,298.800 256.600 C 298.800 252.067,298.704 251.200,298.200 251.200 C 297.697 251.200,297.600 250.356,297.600 246.000 C 297.600 241.644,297.503 240.800,297.000 240.800 C 296.496 240.800,296.400 239.933,296.400 235.400 C 296.400 230.867,296.304 230.000,295.800 230.000 C 295.298 230.000,295.200 229.160,295.200 224.843 C 295.200 220.628,295.090 219.644,294.600 219.455 C 294.115 219.269,294.000 218.344,294.000 214.613 C 294.000 210.779,293.899 210.000,293.400 210.000 C 292.896 210.000,292.800 209.133,292.800 204.600 C 292.800 200.067,292.704 199.200,292.200 199.200 C 291.697 199.200,291.600 198.356,291.600 194.000 C 291.600 189.644,291.503 188.800,291.000 188.800 C 290.496 188.800,290.400 187.933,290.400 183.400 C 290.400 178.867,290.304 178.000,289.800 178.000 C 289.298 178.000,289.200 177.160,289.200 172.843 C 289.200 168.628,289.090 167.644,288.600 167.455 C 288.115 167.269,288.000 166.344,288.000 162.613 C 288.000 158.779,287.899 158.000,287.400 158.000 C 286.896 158.000,286.800 157.133,286.800 152.600 C 286.800 148.067,286.704 147.200,286.200 147.200 C 285.698 147.200,285.600 146.364,285.600 142.080 C 285.600 139.264,285.439 136.789,285.242 136.580 C 285.045 136.371,284.809 133.961,284.717 131.225 C 284.605 127.867,284.396 126.199,284.075 126.092 C 283.747 125.982,283.600 124.575,283.600 121.527 C 283.600 118.529,283.415 116.718,283.021 115.860 C 282.648 115.047,282.399 112.908,282.321 109.833 C 282.236 106.464,282.053 105.017,281.700 104.899 C 281.339 104.779,281.200 103.462,281.200 100.154 C 281.200 96.453,281.085 95.531,280.600 95.345 C 280.109 95.156,280.000 94.171,280.000 89.945 C 280.000 85.718,279.891 84.733,279.400 84.545 C 278.911 84.357,278.800 83.393,278.800 79.345 C 278.800 75.296,278.689 74.332,278.200 74.145 C 277.709 73.956,277.600 72.971,277.600 68.745 C 277.600 64.518,277.491 63.533,277.000 63.345 C 276.511 63.157,276.400 62.193,276.400 58.145 C 276.400 54.096,276.289 53.132,275.800 52.945 C 275.313 52.758,275.200 51.817,275.200 47.957 C 275.200 43.995,275.100 43.200,274.600 43.200 C 274.097 43.200,274.000 42.354,274.000 37.987 C 274.000 33.723,273.891 32.733,273.400 32.545 C 272.910 32.356,272.800 31.372,272.800 27.157 C 272.800 22.840,272.702 22.000,272.200 22.000 C 271.697 22.000,271.600 21.154,271.600 16.787 C 271.600 12.523,271.491 11.533,271.000 11.345 C 270.512 11.157,270.400 10.204,270.400 6.246 C 270.400 -0.766,273.982 0.000,241.195 0.000 L 213.600 0.000 213.600 1.400 C 213.600 2.378,213.781 2.800,214.200 2.800 C 214.703 2.800,214.800 3.646,214.800 8.013 C 214.800 12.277,214.909 13.267,215.400 13.455 C 215.890 13.644,216.000 14.628,216.000 18.843 C 216.000 23.160,216.098 24.000,216.600 24.000 C 217.100 24.000,217.200 24.800,217.200 28.800 C 217.200 32.800,217.300 33.600,217.800 33.600 C 218.304 33.600,218.400 34.467,218.400 39.000 C 218.400 43.533,218.496 44.400,219.000 44.400 C 219.503 44.400,219.600 45.244,219.600 49.600 C 219.600 53.956,219.697 54.800,220.200 54.800 C 220.704 54.800,220.800 55.667,220.800 60.200 C 220.800 64.733,220.896 65.600,221.400 65.600 C 221.903 65.600,222.000 66.444,222.000 70.800 C 222.000 75.156,222.097 76.000,222.600 76.000 C 223.100 76.000,223.200 76.800,223.200 80.800 C 223.200 84.800,223.300 85.600,223.800 85.600 C 224.304 85.600,224.400 86.467,224.400 91.000 C 224.400 95.533,224.496 96.400,225.000 96.400 C 225.503 96.400,225.600 97.244,225.600 101.600 C 225.600 105.956,225.697 106.800,226.200 106.800 C 226.704 106.800,226.800 107.667,226.800 112.200 C 226.800 116.733,226.896 117.600,227.400 117.600 C 227.903 117.600,228.000 118.444,228.000 122.800 C 228.000 125.660,228.158 128.000,228.352 128.000 C 228.546 128.000,228.835 130.115,228.996 132.700 C 229.157 135.285,229.457 137.506,229.664 137.636 C 229.871 137.766,230.035 140.052,230.030 142.717 C 230.022 146.466,230.153 147.696,230.610 148.153 C 231.065 148.608,231.200 149.849,231.200 153.584 C 231.200 157.518,231.312 158.468,231.800 158.655 C 232.288 158.843,232.400 159.802,232.400 163.814 C 232.400 167.662,232.532 168.874,233.000 169.343 C 233.463 169.806,233.600 170.982,233.600 174.495 C 233.600 177.878,233.751 179.246,234.187 179.824 C 234.621 180.397,234.778 181.778,234.787 185.100 C 234.798 188.828,234.903 189.600,235.400 189.600 C 235.903 189.600,236.000 190.446,236.000 194.813 C 236.000 199.077,236.109 200.067,236.600 200.255 C 237.090 200.443,237.200 201.423,237.200 205.600 C 237.200 209.777,237.310 210.757,237.800 210.945 C 238.289 211.132,238.400 212.102,238.400 216.200 C 238.400 220.298,238.511 221.268,239.000 221.455 C 239.488 221.643,239.600 222.600,239.600 226.594 C 239.600 230.469,239.726 231.607,240.200 232.000 C 240.669 232.389,240.800 233.492,240.800 237.049 C 240.800 240.828,240.902 241.600,241.400 241.600 C 241.904 241.600,242.000 242.467,242.000 247.000 C 242.000 251.533,242.096 252.400,242.600 252.400 C 243.103 252.400,243.200 253.246,243.200 257.613 C 243.200 261.877,243.309 262.867,243.800 263.055 C 244.290 263.244,244.400 264.228,244.400 268.443 C 244.400 272.760,244.498 273.600,245.000 273.600 C 245.444 273.600,245.600 274.067,245.600 275.400 L 245.600 277.200 200.600 277.200 L 155.600 277.200 155.600 272.400 C 155.600 268.400,155.700 267.600,156.200 267.600 C 156.699 267.600,156.800 266.821,156.800 262.987 C 156.800 259.256,156.915 258.331,157.400 258.145 C 157.890 257.956,158.000 256.972,158.000 252.757 C 158.000 248.440,158.098 247.600,158.600 247.600 C 159.103 247.600,159.200 246.754,159.200 242.387 C 159.200 238.123,159.309 237.133,159.800 236.945 C 160.290 236.756,160.400 235.772,160.400 231.557 C 160.400 227.240,160.498 226.400,161.000 226.400 C 161.504 226.400,161.600 225.533,161.600 221.000 C 161.600 216.467,161.696 215.600,162.200 215.600 C 162.702 215.600,162.800 214.760,162.800 210.443 C 162.800 206.228,162.910 205.244,163.400 205.055 C 163.883 204.870,164.000 203.963,164.000 200.384 C 164.000 196.970,164.139 195.804,164.600 195.343 C 165.068 194.874,165.200 193.662,165.200 189.814 C 165.200 185.802,165.312 184.843,165.800 184.655 C 166.289 184.468,166.400 183.504,166.400 179.455 C 166.400 175.407,166.511 174.443,167.000 174.255 C 167.489 174.068,167.600 173.096,167.600 168.984 C 167.600 165.067,167.732 163.811,168.192 163.351 C 168.649 162.894,168.781 161.697,168.769 158.117 C 168.758 154.714,168.894 153.389,169.277 153.153 C 169.645 152.926,169.840 151.463,169.934 148.215 C 170.008 145.677,170.208 143.600,170.378 143.600 C 170.548 143.600,170.816 141.215,170.972 138.300 C 171.129 135.385,171.425 132.940,171.629 132.867 C 171.833 132.793,172.000 130.408,172.000 127.567 C 172.000 123.241,172.098 122.400,172.600 122.400 C 173.104 122.400,173.200 121.533,173.200 117.000 C 173.200 112.467,173.296 111.600,173.800 111.600 C 174.303 111.600,174.400 110.756,174.400 106.400 C 174.400 102.044,174.497 101.200,175.000 101.200 C 175.504 101.200,175.600 100.333,175.600 95.800 C 175.600 91.267,175.696 90.400,176.200 90.400 C 176.700 90.400,176.800 89.600,176.800 85.600 C 176.800 81.600,176.900 80.800,177.400 80.800 C 177.902 80.800,178.000 79.960,178.000 75.643 C 178.000 71.428,178.110 70.444,178.600 70.255 C 179.091 70.067,179.200 69.077,179.200 64.813 C 179.200 60.446,179.297 59.600,179.800 59.600 C 180.302 59.600,180.400 58.760,180.400 54.443 C 180.400 50.228,180.510 49.244,181.000 49.055 C 181.491 48.867,181.600 47.877,181.600 43.613 C 181.600 39.246,181.697 38.400,182.200 38.400 C 182.700 38.400,182.800 37.605,182.800 33.643 C 182.800 29.783,182.913 28.842,183.400 28.655 C 183.889 28.468,184.000 27.504,184.000 23.455 C 184.000 19.407,184.111 18.443,184.600 18.255 C 185.091 18.067,185.200 17.077,185.200 12.813 C 185.200 8.446,185.297 7.600,185.800 7.600 C 186.291 7.600,186.400 6.911,186.400 3.800 L 186.400 0.000 158.600 0.000 L 130.800 0.000 130.800 3.157 M183.451 6.827 C 183.304 9.262,183.011 12.007,182.801 12.927 C 182.447 14.483,182.091 17.661,181.204 27.200 C 181.010 29.290,180.669 32.080,180.446 33.400 C 180.224 34.720,179.944 37.330,179.824 39.200 C 179.704 41.070,179.425 43.229,179.203 43.997 C 178.981 44.766,178.797 46.566,178.793 47.997 C 178.789 49.429,178.519 51.860,178.193 53.400 C 177.867 54.940,177.594 57.370,177.586 58.800 C 177.578 60.230,177.315 62.570,177.000 64.000 C 176.685 65.430,176.415 67.770,176.400 69.200 C 176.385 70.630,176.115 72.970,175.800 74.400 C 175.485 75.830,175.222 78.109,175.214 79.465 C 175.206 80.820,174.930 83.340,174.600 85.065 C 174.270 86.789,174.000 89.190,174.000 90.400 C 174.000 91.610,173.730 94.011,173.400 95.735 C 173.070 97.460,172.800 99.800,172.800 100.935 C 172.800 102.071,172.530 104.411,172.200 106.135 C 171.870 107.860,171.600 110.290,171.600 111.535 C 171.600 112.781,171.333 115.060,171.007 116.600 C 170.681 118.140,170.411 120.480,170.407 121.800 C 170.403 123.120,170.133 125.460,169.807 127.000 C 169.481 128.540,169.211 130.971,169.207 132.403 C 169.203 133.834,169.016 135.634,168.791 136.403 C 168.566 137.171,168.285 139.510,168.167 141.600 C 168.049 143.690,167.765 146.210,167.536 147.200 C 167.307 148.190,166.975 150.800,166.799 153.000 C 166.341 158.716,165.635 165.013,165.140 167.800 C 164.905 169.120,164.633 171.730,164.536 173.600 C 164.438 175.470,164.181 177.720,163.963 178.600 C 163.746 179.480,163.400 182.180,163.195 184.600 C 162.652 190.985,162.024 196.646,161.547 199.457 C 161.318 200.809,160.975 203.689,160.785 205.857 C 160.129 213.337,159.551 218.606,159.167 220.600 C 158.955 221.700,158.609 224.490,158.397 226.800 C 157.679 234.648,156.862 241.975,156.672 242.288 C 156.567 242.460,156.352 244.580,156.194 247.000 C 156.037 249.420,155.821 251.545,155.716 251.723 C 155.611 251.900,155.269 254.510,154.956 257.523 C 154.644 260.535,154.100 265.430,153.747 268.400 C 153.394 271.370,153.022 275.015,152.920 276.500 L 152.734 279.200 199.867 279.194 C 248.309 279.188,248.208 279.191,247.814 277.562 C 247.686 277.033,247.408 274.710,247.197 272.400 C 246.986 270.090,246.533 265.770,246.191 262.800 C 245.849 259.830,245.310 255.060,244.993 252.200 C 244.201 245.049,243.304 237.185,242.574 231.000 C 242.237 228.140,241.797 224.000,241.596 221.800 C 241.395 219.600,241.050 216.720,240.829 215.400 C 240.400 212.834,239.767 207.063,239.212 200.657 C 239.024 198.489,238.682 195.609,238.453 194.257 C 237.987 191.510,237.368 185.966,236.804 179.483 C 236.597 177.108,236.243 174.498,236.016 173.683 C 235.790 172.867,235.593 171.030,235.578 169.600 C 235.564 168.170,235.382 166.100,235.174 165.000 C 234.965 163.900,234.620 160.959,234.407 158.465 C 234.193 155.971,233.835 153.271,233.611 152.465 C 233.388 151.659,233.200 149.830,233.195 148.400 C 233.190 146.970,232.919 144.540,232.593 143.000 C 232.267 141.460,231.989 139.120,231.976 137.800 C 231.963 136.480,231.782 134.500,231.574 133.400 C 231.365 132.300,231.020 129.359,230.807 126.865 C 230.593 124.371,230.235 121.671,230.011 120.865 C 229.788 120.059,229.603 118.291,229.602 116.935 C 229.601 115.580,229.330 113.060,229.000 111.335 C 228.670 109.611,228.394 107.120,228.386 105.800 C 228.378 104.480,228.115 102.230,227.800 100.800 C 227.485 99.370,227.219 97.030,227.207 95.600 C 227.196 94.170,226.919 91.740,226.593 90.200 C 226.267 88.660,226.000 86.381,226.000 85.135 C 226.000 83.890,225.730 81.460,225.400 79.735 C 225.070 78.011,224.796 75.520,224.791 74.200 C 224.785 72.880,224.599 71.080,224.377 70.200 C 224.155 69.320,223.814 66.710,223.619 64.400 C 223.242 59.926,222.637 54.586,221.925 49.449 C 221.685 47.715,221.350 44.745,221.182 42.849 C 220.709 37.524,220.001 31.249,219.573 28.600 C 219.360 27.280,219.008 24.310,218.790 22.000 C 218.572 19.690,218.123 15.460,217.791 12.600 C 217.460 9.740,217.076 6.274,216.939 4.897 L 216.690 2.394 242.045 2.497 L 267.400 2.600 267.686 4.800 C 268.334 9.780,270.157 25.840,270.773 32.000 C 271.005 34.310,271.371 37.280,271.589 38.600 C 271.968 40.908,272.499 45.767,273.205 53.400 C 273.388 55.380,273.721 58.170,273.945 59.600 C 274.403 62.520,275.122 68.868,275.582 74.049 C 275.750 75.945,276.087 78.915,276.331 80.649 C 277.022 85.570,277.623 90.999,278.011 95.832 C 278.207 98.269,278.555 100.756,278.784 101.358 C 279.013 101.960,279.211 103.655,279.224 105.126 C 279.237 106.597,279.418 108.700,279.626 109.800 C 279.835 110.900,280.179 113.870,280.393 116.400 C 280.606 118.930,280.953 121.810,281.163 122.800 C 281.374 123.790,281.646 126.220,281.767 128.200 C 281.888 130.180,282.170 132.429,282.394 133.197 C 282.617 133.966,282.800 135.705,282.800 137.062 C 282.800 138.419,283.070 140.940,283.400 142.665 C 283.730 144.389,284.000 146.729,284.000 147.865 C 284.000 149.000,284.270 151.340,284.600 153.065 C 284.930 154.789,285.203 157.280,285.207 158.600 C 285.211 159.920,285.481 162.260,285.807 163.800 C 286.133 165.340,286.400 167.619,286.400 168.865 C 286.400 170.110,286.670 172.540,287.000 174.265 C 287.330 175.989,287.600 178.312,287.600 179.427 C 287.600 180.541,287.794 182.502,288.031 183.783 C 288.268 185.065,288.615 187.843,288.802 189.957 C 289.211 194.578,289.831 199.925,290.616 205.600 C 290.936 207.910,291.261 210.790,291.339 212.000 C 291.548 215.241,292.367 222.647,292.821 225.400 C 293.039 226.720,293.391 229.600,293.604 231.800 C 293.816 234.000,294.255 238.140,294.580 241.000 C 294.904 243.860,295.446 248.720,295.784 251.800 C 296.122 254.880,296.490 257.850,296.603 258.400 C 296.715 258.950,296.988 261.290,297.210 263.600 C 298.497 276.984,298.698 278.490,299.241 278.834 C 299.557 279.034,321.125 279.190,348.886 279.194 C 397.003 279.200,397.980 279.215,398.386 279.974 C 398.657 280.480,398.800 288.341,398.800 302.727 L 398.800 324.707 397.900 324.948 C 396.719 325.264,3.457 325.274,2.633 324.957 C 1.861 324.661,1.651 281.400,2.414 279.974 C 2.820 279.215,3.797 279.200,52.206 279.200 L 101.585 279.200 101.772 278.300 C 101.874 277.805,102.050 276.410,102.163 275.200 C 102.276 273.990,102.647 270.570,102.989 267.600 C 103.330 264.630,103.784 260.400,103.996 258.200 C 104.209 256.000,104.562 253.120,104.781 251.800 C 105.216 249.173,105.818 243.725,106.395 237.200 C 106.599 234.890,106.947 232.010,107.167 230.800 C 107.388 229.590,107.668 227.070,107.789 225.200 C 107.910 223.330,108.182 221.080,108.395 220.200 C 108.607 219.320,108.785 217.725,108.790 216.654 C 108.796 215.584,109.061 212.884,109.381 210.654 C 110.135 205.390,110.809 199.549,111.211 194.800 C 111.387 192.710,111.727 190.030,111.966 188.845 C 112.205 187.660,112.400 185.770,112.400 184.645 C 112.400 183.520,112.670 181.189,113.000 179.465 C 113.330 177.740,113.600 175.400,113.601 174.265 C 113.601 173.129,113.871 170.670,114.200 168.800 C 114.529 166.930,114.799 164.409,114.799 163.197 C 114.800 161.986,114.983 160.366,115.206 159.597 C 115.430 158.829,115.716 156.580,115.842 154.600 C 115.968 152.620,116.325 149.585,116.636 147.856 C 116.946 146.127,117.200 143.605,117.200 142.253 C 117.200 140.901,117.384 139.166,117.609 138.397 C 117.834 137.629,118.121 135.290,118.246 133.200 C 118.370 131.110,118.726 128.103,119.036 126.517 C 119.346 124.931,119.600 122.591,119.600 121.317 C 119.600 120.042,119.867 117.740,120.193 116.200 C 120.519 114.660,120.789 112.229,120.793 110.797 C 120.797 109.366,120.983 107.566,121.206 106.797 C 121.430 106.029,121.712 103.780,121.833 101.800 C 121.954 99.820,122.228 97.390,122.441 96.400 C 122.655 95.410,122.994 92.710,123.196 90.400 C 123.879 82.571,124.446 77.407,124.844 75.400 C 125.062 74.300,125.406 71.510,125.608 69.200 C 126.177 62.705,126.782 57.235,127.223 54.600 C 127.444 53.280,127.803 50.310,128.020 48.000 C 128.238 45.690,128.671 41.550,128.983 38.800 C 129.295 36.050,129.845 31.190,130.204 28.000 C 130.564 24.810,131.098 20.130,131.391 17.600 C 131.684 15.070,132.133 10.840,132.388 8.200 C 132.644 5.560,132.925 3.175,133.014 2.900 C 133.140 2.507,138.582 2.400,158.448 2.400 L 183.720 2.400 183.451 6.827 M0.667 351.867 C 0.520 352.013,0.400 363.083,0.400 376.467 L 0.400 400.800 200.200 400.800 L 400.000 400.800 400.000 376.200 L 400.000 351.600 200.467 351.600 C 90.723 351.600,0.813 351.720,0.667 351.867 M398.703 376.500 L 398.600 399.400 200.600 399.400 L 2.600 399.400 2.497 376.500 L 2.393 353.600 200.600 353.600 L 398.807 353.600 398.703 376.500 " stroke="none" fill="#7a7c80" fill-rule="evenodd"></path><path id="path1" d="M133.014 2.900 C 132.925 3.175,132.644 5.560,132.388 8.200 C 132.133 10.840,131.684 15.070,131.391 17.600 C 131.098 20.130,130.564 24.810,130.204 28.000 C 129.845 31.190,129.295 36.050,128.983 38.800 C 128.671 41.550,128.238 45.690,128.020 48.000 C 127.803 50.310,127.444 53.280,127.223 54.600 C 126.782 57.235,126.177 62.705,125.608 69.200 C 125.406 71.510,125.062 74.300,124.844 75.400 C 124.446 77.407,123.879 82.571,123.196 90.400 C 122.994 92.710,122.655 95.410,122.441 96.400 C 122.228 97.390,121.954 99.820,121.833 101.800 C 121.712 103.780,121.430 106.029,121.206 106.797 C 120.983 107.566,120.797 109.366,120.793 110.797 C 120.789 112.229,120.519 114.660,120.193 116.200 C 119.867 117.740,119.600 120.042,119.600 121.317 C 119.600 122.591,119.346 124.931,119.036 126.517 C 118.726 128.103,118.370 131.110,118.246 133.200 C 118.121 135.290,117.834 137.629,117.609 138.397 C 117.384 139.166,117.200 140.901,117.200 142.253 C 117.200 143.605,116.946 146.127,116.636 147.856 C 116.325 149.585,115.968 152.620,115.842 154.600 C 115.716 156.580,115.430 158.829,115.206 159.597 C 114.983 160.366,114.800 161.986,114.799 163.197 C 114.799 164.409,114.529 166.930,114.200 168.800 C 113.871 170.670,113.601 173.129,113.601 174.265 C 113.600 175.400,113.330 177.740,113.000 179.465 C 112.670 181.189,112.400 183.520,112.400 184.645 C 112.400 185.770,112.205 187.660,111.966 188.845 C 111.727 190.030,111.387 192.710,111.211 194.800 C 110.809 199.549,110.135 205.390,109.381 210.654 C 109.061 212.884,108.796 215.584,108.790 216.654 C 108.785 217.725,108.607 219.320,108.395 220.200 C 108.182 221.080,107.910 223.330,107.789 225.200 C 107.668 227.070,107.388 229.590,107.167 230.800 C 106.947 232.010,106.599 234.890,106.395 237.200 C 105.818 243.725,105.216 249.173,104.781 251.800 C 104.562 253.120,104.209 256.000,103.996 258.200 C 103.784 260.400,103.330 264.630,102.989 267.600 C 102.647 270.570,102.276 273.990,102.163 275.200 C 102.050 276.410,101.874 277.805,101.772 278.300 L 101.585 279.200 52.206 279.200 C 3.797 279.200,2.820 279.215,2.414 279.974 C 1.651 281.400,1.861 324.661,2.633 324.957 C 3.457 325.274,396.719 325.264,397.900 324.948 L 398.800 324.707 398.800 302.727 C 398.800 288.341,398.657 280.480,398.386 279.974 C 397.980 279.215,397.003 279.200,348.886 279.194 C 321.125 279.190,299.557 279.034,299.241 278.834 C 298.698 278.490,298.497 276.984,297.210 263.600 C 296.988 261.290,296.715 258.950,296.603 258.400 C 296.490 257.850,296.122 254.880,295.784 251.800 C 295.446 248.720,294.904 243.860,294.580 241.000 C 294.255 238.140,293.816 234.000,293.604 231.800 C 293.391 229.600,293.039 226.720,292.821 225.400 C 292.367 222.647,291.548 215.241,291.339 212.000 C 291.261 210.790,290.936 207.910,290.616 205.600 C 289.831 199.925,289.211 194.578,288.802 189.957 C 288.615 187.843,288.268 185.065,288.031 183.783 C 287.794 182.502,287.600 180.541,287.600 179.427 C 287.600 178.312,287.330 175.989,287.000 174.265 C 286.670 172.540,286.400 170.110,286.400 168.865 C 286.400 167.619,286.133 165.340,285.807 163.800 C 285.481 162.260,285.211 159.920,285.207 158.600 C 285.203 157.280,284.930 154.789,284.600 153.065 C 284.270 151.340,284.000 149.000,284.000 147.865 C 284.000 146.729,283.730 144.389,283.400 142.665 C 283.070 140.940,282.800 138.419,282.800 137.062 C 282.800 135.705,282.617 133.966,282.394 133.197 C 282.170 132.429,281.888 130.180,281.767 128.200 C 281.646 126.220,281.374 123.790,281.163 122.800 C 280.953 121.810,280.606 118.930,280.393 116.400 C 280.179 113.870,279.835 110.900,279.626 109.800 C 279.418 108.700,279.237 106.597,279.224 105.126 C 279.211 103.655,279.013 101.960,278.784 101.358 C 278.555 100.756,278.207 98.269,278.011 95.832 C 277.623 90.999,277.022 85.570,276.331 80.649 C 276.087 78.915,275.750 75.945,275.582 74.049 C 275.122 68.868,274.403 62.520,273.945 59.600 C 273.721 58.170,273.388 55.380,273.205 53.400 C 272.499 45.767,271.968 40.908,271.589 38.600 C 271.371 37.280,271.005 34.310,270.773 32.000 C 270.157 25.840,268.334 9.780,267.686 4.800 L 267.400 2.600 242.045 2.497 L 216.690 2.394 216.939 4.897 C 217.076 6.274,217.460 9.740,217.791 12.600 C 218.123 15.460,218.572 19.690,218.790 22.000 C 219.008 24.310,219.360 27.280,219.573 28.600 C 220.001 31.249,220.709 37.524,221.182 42.849 C 221.350 44.745,221.685 47.715,221.925 49.449 C 222.637 54.586,223.242 59.926,223.619 64.400 C 223.814 66.710,224.155 69.320,224.377 70.200 C 224.599 71.080,224.785 72.880,224.791 74.200 C 224.796 75.520,225.070 78.011,225.400 79.735 C 225.730 81.460,226.000 83.890,226.000 85.135 C 226.000 86.381,226.267 88.660,226.593 90.200 C 226.919 91.740,227.196 94.170,227.207 95.600 C 227.219 97.030,227.485 99.370,227.800 100.800 C 228.115 102.230,228.378 104.480,228.386 105.800 C 228.394 107.120,228.670 109.611,229.000 111.335 C 229.330 113.060,229.601 115.580,229.602 116.935 C 229.603 118.291,229.788 120.059,230.011 120.865 C 230.235 121.671,230.593 124.371,230.807 126.865 C 231.020 129.359,231.365 132.300,231.574 133.400 C 231.782 134.500,231.963 136.480,231.976 137.800 C 231.989 139.120,232.267 141.460,232.593 143.000 C 232.919 144.540,233.190 146.970,233.195 148.400 C 233.200 149.830,233.388 151.659,233.611 152.465 C 233.835 153.271,234.193 155.971,234.407 158.465 C 234.620 160.959,234.965 163.900,235.174 165.000 C 235.382 166.100,235.564 168.170,235.578 169.600 C 235.593 171.030,235.790 172.867,236.016 173.683 C 236.243 174.498,236.597 177.108,236.804 179.483 C 237.368 185.966,237.987 191.510,238.453 194.257 C 238.682 195.609,239.024 198.489,239.212 200.657 C 239.767 207.063,240.400 212.834,240.829 215.400 C 241.050 216.720,241.395 219.600,241.596 221.800 C 241.797 224.000,242.237 228.140,242.574 231.000 C 243.304 237.185,244.201 245.049,244.993 252.200 C 245.310 255.060,245.849 259.830,246.191 262.800 C 246.533 265.770,246.986 270.090,247.197 272.400 C 247.408 274.710,247.686 277.033,247.814 277.562 C 248.208 279.191,248.309 279.188,199.867 279.194 L 152.734 279.200 152.920 276.500 C 153.022 275.015,153.394 271.370,153.747 268.400 C 154.100 265.430,154.644 260.535,154.956 257.523 C 155.269 254.510,155.611 251.900,155.716 251.723 C 155.821 251.545,156.037 249.420,156.194 247.000 C 156.352 244.580,156.567 242.460,156.672 242.288 C 156.862 241.975,157.679 234.648,158.397 226.800 C 158.609 224.490,158.955 221.700,159.167 220.600 C 159.551 218.606,160.129 213.337,160.785 205.857 C 160.975 203.689,161.318 200.809,161.547 199.457 C 162.024 196.646,162.652 190.985,163.195 184.600 C 163.400 182.180,163.746 179.480,163.963 178.600 C 164.181 177.720,164.438 175.470,164.536 173.600 C 164.633 171.730,164.905 169.120,165.140 167.800 C 165.635 165.013,166.341 158.716,166.799 153.000 C 166.975 150.800,167.307 148.190,167.536 147.200 C 167.765 146.210,168.049 143.690,168.167 141.600 C 168.285 139.510,168.566 137.171,168.791 136.403 C 169.016 135.634,169.203 133.834,169.207 132.403 C 169.211 130.971,169.481 128.540,169.807 127.000 C 170.133 125.460,170.403 123.120,170.407 121.800 C 170.411 120.480,170.681 118.140,171.007 116.600 C 171.333 115.060,171.600 112.781,171.600 111.535 C 171.600 110.290,171.870 107.860,172.200 106.135 C 172.530 104.411,172.800 102.071,172.800 100.935 C 172.800 99.800,173.070 97.460,173.400 95.735 C 173.730 94.011,174.000 91.610,174.000 90.400 C 174.000 89.190,174.270 86.789,174.600 85.065 C 174.930 83.340,175.206 80.820,175.214 79.465 C 175.222 78.109,175.485 75.830,175.800 74.400 C 176.115 72.970,176.385 70.630,176.400 69.200 C 176.415 67.770,176.685 65.430,177.000 64.000 C 177.315 62.570,177.578 60.230,177.586 58.800 C 177.594 57.370,177.867 54.940,178.193 53.400 C 178.519 51.860,178.789 49.429,178.793 47.997 C 178.797 46.566,178.981 44.766,179.203 43.997 C 179.425 43.229,179.704 41.070,179.824 39.200 C 179.944 37.330,180.224 34.720,180.446 33.400 C 180.669 32.080,181.010 29.290,181.204 27.200 C 182.091 17.661,182.447 14.483,182.801 12.927 C 183.011 12.007,183.304 9.262,183.451 6.827 L 183.720 2.400 158.448 2.400 C 138.582 2.400,133.140 2.507,133.014 2.900 M2.497 376.500 L 2.600 399.400 200.600 399.400 L 398.600 399.400 398.703 376.500 L 398.807 353.600 200.600 353.600 L 2.393 353.600 2.497 376.500 " stroke="none" fill="#3c64ac" fill-rule="evenodd"></path></g></svg>