<svg id="svg" version="1.1" xmlns="http://www.w3.org/2000/svg" xmlns:xlink="http://www.w3.org/1999/xlink" width="400" height="398.2378854625551" viewBox="0, 0, 400,398.2378854625551"><g id="svgg"><path id="path0" d="M257.629 38.121 C 257.478 38.273,258.947 38.966,260.895 39.661 C 281.505 47.020,296.975 63.095,304.391 84.861 C 310.796 103.656,307.197 127.018,295.185 144.622 C 286.173 157.828,270.281 169.112,256.175 172.320 C 254.532 172.694,252.775 173.159,252.272 173.353 C 251.769 173.546,251.031 173.705,250.634 173.705 C 250.236 173.705,248.586 174.263,246.967 174.946 C 244.171 176.124,243.720 176.192,237.950 176.304 C 232.162 176.416,228.782 176.763,223.904 177.747 C 198.577 182.855,176.421 202.793,165.750 230.080 C 163.684 235.362,163.672 235.400,162.003 241.490 C 157.526 257.829,157.526 278.027,162.003 294.366 C 162.342 295.602,162.765 297.151,162.945 297.809 C 163.419 299.549,164.346 302.278,165.313 304.781 C 165.779 305.986,166.366 307.510,166.617 308.167 C 170.852 319.246,181.571 333.995,191.196 341.989 C 194.032 344.344,201.655 349.801,202.109 349.801 C 202.221 349.801,203.362 350.393,204.643 351.117 C 218.024 358.679,235.788 361.454,250.869 358.339 C 254.189 357.653,255.793 357.794,258.447 359.002 C 260.074 359.742,261.689 359.761,315.021 359.663 L 369.920 359.562 369.920 198.805 L 369.920 38.048 313.912 37.947 C 283.108 37.891,257.781 37.970,257.629 38.121 " stroke="none" fill="#fb4c44" fill-rule="evenodd"></path><path id="path1" d="M11.554 199.203 L 11.554 380.876 197.809 380.876 L 384.064 380.876 384.064 199.203 L 384.064 17.530 197.809 17.530 L 11.554 17.530 11.554 199.203 M372.510 198.805 L 372.510 362.151 197.809 362.151 L 23.108 362.151 23.108 198.805 L 23.108 35.458 197.809 35.458 L 372.510 35.458 372.510 198.805 M226.981 38.445 C 223.478 39.079,223.407 39.219,226.173 40.044 C 236.445 43.109,249.198 52.581,256.375 62.476 C 260.744 68.501,265.444 77.817,266.964 83.466 C 267.932 87.063,268.189 88.093,268.752 90.637 C 271.873 104.744,270.537 120.360,265.020 134.263 C 258.632 150.362,244.900 165.025,231.076 170.509 C 226.598 172.285,227.894 172.898,236.142 172.905 C 264.248 172.929,290.292 155.299,300.287 129.482 C 302.401 124.021,303.065 121.529,304.364 114.177 C 304.874 111.291,304.914 99.557,304.423 96.932 C 304.227 95.880,303.845 93.765,303.575 92.231 C 303.136 89.740,300.958 82.363,300.045 80.279 C 287.362 51.300,255.801 33.229,226.981 38.445 M194.223 175.758 C 187.633 176.587,180.012 178.065,175.896 179.313 C 141.503 189.740,117.080 214.632,108.789 247.709 C 98.230 289.832,123.463 335.627,166.534 352.509 C 175.355 355.967,183.973 358.064,193.875 359.162 C 202.446 360.112,214.741 359.871,214.741 358.753 C 214.741 358.481,213.800 357.955,212.649 357.582 C 186.272 349.048,163.414 319.439,157.586 286.255 C 155.713 275.592,155.782 258.959,157.741 249.004 C 157.935 248.018,158.280 246.225,158.509 245.020 C 159.866 237.855,164.453 225.272,167.984 219.025 C 168.720 217.722,169.323 216.576,169.323 216.477 C 169.323 215.851,175.958 206.298,178.691 202.988 C 183.916 196.661,191.124 190.126,197.146 186.255 C 201.505 183.454,208.515 179.681,209.362 179.681 C 209.477 179.681,210.330 179.333,211.259 178.907 C 212.188 178.481,213.901 177.830,215.065 177.459 C 216.230 177.088,217.033 176.634,216.849 176.451 C 215.803 175.405,200.707 174.942,194.223 175.758 " stroke="none" fill="#fbfbfb" fill-rule="evenodd"></path><path id="path2" d="M8.367 199.203 L 8.367 383.665 197.809 383.665 L 387.251 383.665 387.251 199.203 L 387.251 14.741 197.809 14.741 L 8.367 14.741 8.367 199.203 M384.064 199.203 L 384.064 380.876 197.809 380.876 L 11.554 380.876 11.554 199.203 L 11.554 17.530 197.809 17.530 L 384.064 17.530 384.064 199.203 M23.108 198.805 L 23.108 362.151 197.809 362.151 L 372.510 362.151 372.510 198.805 L 372.510 35.458 197.809 35.458 L 23.108 35.458 23.108 198.805 M244.346 38.267 C 270.294 42.055,289.733 56.716,300.045 80.279 C 300.958 82.363,303.136 89.740,303.575 92.231 C 303.845 93.765,304.227 95.880,304.423 96.932 C 304.914 99.557,304.874 111.291,304.364 114.177 C 303.065 121.529,302.401 124.021,300.287 129.482 C 290.292 155.299,264.248 172.929,236.142 172.905 C 227.894 172.898,226.598 172.285,231.076 170.509 C 244.900 165.025,258.632 150.362,265.020 134.263 C 270.537 120.360,271.873 104.744,268.752 90.637 C 268.189 88.093,267.932 87.063,266.964 83.466 C 266.000 79.882,262.922 73.077,259.718 67.448 C 253.050 55.728,238.268 43.653,226.173 40.044 C 224.901 39.665,223.954 39.259,224.070 39.144 C 225.135 38.079,238.959 37.481,244.346 38.267 M369.920 198.805 L 369.920 359.562 315.021 359.663 C 261.689 359.761,260.074 359.742,258.447 359.002 C 255.793 357.794,254.189 357.653,250.869 358.339 C 239.668 360.653,227.704 359.875,216.135 356.082 C 212.687 354.951,207.339 352.640,204.643 351.117 C 203.362 350.393,202.221 349.801,202.109 349.801 C 201.655 349.801,194.032 344.344,191.196 341.989 C 181.571 333.995,170.852 319.246,166.617 308.167 C 166.366 307.510,165.779 305.986,165.313 304.781 C 164.346 302.278,163.419 299.549,162.945 297.809 C 162.765 297.151,162.342 295.602,162.003 294.366 C 157.526 278.027,157.526 257.829,162.003 241.490 C 163.672 235.400,163.684 235.362,165.750 230.080 C 171.264 215.979,179.872 203.659,190.637 194.460 C 204.727 182.420,219.747 176.656,237.950 176.304 C 243.720 176.192,244.171 176.124,246.967 174.946 C 248.586 174.263,250.236 173.705,250.634 173.705 C 251.031 173.705,251.769 173.546,252.272 173.353 C 252.775 173.159,254.532 172.694,256.175 172.320 C 270.281 169.112,286.173 157.828,295.185 144.622 C 307.197 127.018,310.796 103.656,304.391 84.861 C 296.975 63.095,281.505 47.020,260.895 39.661 C 258.947 38.966,257.478 38.273,257.629 38.121 C 257.781 37.970,283.108 37.891,313.912 37.947 L 369.920 38.048 369.920 198.805 M213.736 175.716 C 217.353 176.239,217.654 176.634,215.065 177.459 C 213.901 177.830,212.188 178.481,211.259 178.907 C 210.330 179.333,209.477 179.681,209.362 179.681 C 208.515 179.681,201.505 183.454,197.146 186.255 C 191.124 190.126,183.916 196.661,178.691 202.988 C 175.958 206.298,169.323 215.851,169.323 216.477 C 169.323 216.576,168.720 217.722,167.984 219.025 C 164.453 225.272,159.866 237.855,158.509 245.020 C 158.280 246.225,157.935 248.018,157.741 249.004 C 148.868 294.096,174.777 345.329,212.649 357.582 C 217.070 359.012,214.237 359.753,204.321 359.758 C 194.208 359.764,183.406 358.063,173.307 354.875 C 133.382 342.273,106.556 307.051,106.632 267.331 C 106.652 256.898,107.935 249.077,111.176 239.641 C 115.926 225.812,122.700 215.081,133.440 204.375 C 145.738 192.117,158.488 184.590,175.896 179.313 C 180.012 178.065,187.633 176.587,194.223 175.758 C 198.155 175.263,210.420 175.237,213.736 175.716 " stroke="none" fill="#7f868d" fill-rule="evenodd"></path></g></svg>