<svg id="svg" version="1.1" xmlns="http://www.w3.org/2000/svg" xmlns:xlink="http://www.w3.org/1999/xlink" width="400" height="342.5837320574163" viewBox="0, 0, 400,342.5837320574163"><g id="svgg"><path id="path0" d="M272.751 17.051 C 274.871 17.111,278.342 17.111,280.463 17.051 C 282.584 16.991,280.848 16.942,276.607 16.942 C 272.365 16.942,270.630 16.991,272.751 17.051 M344.816 18.640 C 344.816 18.923,344.970 19.249,345.159 19.366 C 345.635 19.660,345.588 21.370,345.090 21.868 C 344.797 22.161,344.791 22.279,345.067 22.279 C 345.636 22.279,345.941 21.018,345.692 19.691 C 345.469 18.502,344.816 17.719,344.816 18.640 M344.359 76.321 C 344.233 76.447,344.144 76.948,344.160 77.435 C 344.189 78.304,344.195 78.302,344.491 77.309 C 344.803 76.266,344.757 75.923,344.359 76.321 M64.541 99.743 C 64.541 100.780,64.606 101.204,64.684 100.686 C 64.763 100.167,64.763 99.319,64.684 98.800 C 64.606 98.282,64.541 98.706,64.541 99.743 M22.279 139.390 C 21.620 139.479,20.933 139.695,20.754 139.870 C 20.575 140.045,19.776 140.189,18.979 140.189 C 18.148 140.189,17.310 140.408,17.016 140.703 C 16.733 140.985,16.105 141.217,15.620 141.217 C 15.065 141.217,14.739 141.407,14.739 141.731 C 14.739 142.051,14.415 142.245,13.882 142.245 C 13.349 142.245,13.025 142.439,13.025 142.759 C 13.025 143.102,12.682 143.273,11.997 143.273 C 11.431 143.273,10.968 143.411,10.968 143.579 C 10.968 143.747,10.583 143.981,10.111 144.100 C 9.640 144.218,9.254 144.466,9.254 144.651 C 9.254 144.836,9.023 144.987,8.740 144.987 C 8.458 144.987,8.226 145.219,8.226 145.501 C 8.226 145.784,7.995 146.015,7.712 146.015 C 7.429 146.015,7.198 146.247,7.198 146.530 C 7.198 146.812,6.967 147.044,6.684 147.044 C 6.401 147.044,6.170 147.275,6.170 147.558 C 6.170 147.841,6.004 148.072,5.802 148.072 C 5.328 148.072,4.456 148.944,4.456 149.419 C 4.456 149.621,4.225 149.786,3.942 149.786 C 3.659 149.786,3.428 150.001,3.428 150.263 C 3.428 150.526,3.196 150.829,2.913 150.938 C 2.631 151.047,2.399 151.526,2.399 152.003 C 2.399 152.546,2.207 152.871,1.885 152.871 C 1.588 152.871,1.371 153.181,1.371 153.604 C 1.371 154.007,1.101 154.535,0.771 154.776 C 0.224 155.176,0.162 156.247,0.065 167.076 L -0.041 178.939 0.862 180.729 C 2.463 183.906,2.773 184.404,3.146 184.404 C 3.402 184.404,3.404 184.535,3.152 184.837 C 2.642 185.452,7.935 191.359,9.406 191.818 C 9.794 191.939,10.189 192.136,10.283 192.256 C 10.752 192.855,12.414 193.659,13.184 193.659 C 13.662 193.659,14.053 193.810,14.053 193.995 C 14.053 194.180,14.467 194.435,14.973 194.562 C 15.479 194.689,16.288 195.000,16.772 195.252 C 17.256 195.505,18.453 195.712,19.431 195.713 C 20.410 195.715,21.306 195.870,21.422 196.058 C 21.545 196.257,23.419 196.401,25.878 196.401 C 28.338 196.401,30.211 196.257,30.334 196.058 C 30.451 195.870,31.501 195.715,32.668 195.713 C 33.880 195.712,35.211 195.492,35.772 195.199 C 36.312 194.918,37.092 194.687,37.506 194.687 C 37.920 194.687,38.557 194.461,38.923 194.184 C 39.289 193.907,39.861 193.676,40.193 193.670 C 40.526 193.664,41.065 193.514,41.393 193.338 C 41.720 193.161,42.721 192.671,43.616 192.249 C 44.512 191.826,45.244 191.354,45.244 191.199 C 45.244 191.044,45.558 190.917,45.940 190.917 C 46.323 190.917,46.726 190.686,46.834 190.403 C 46.943 190.120,47.273 189.889,47.568 189.889 C 47.862 189.889,48.386 189.633,48.731 189.321 C 49.332 188.777,49.357 188.849,49.357 191.102 C 49.357 194.346,50.275 195.373,53.172 195.373 C 54.256 195.373,55.239 195.219,55.356 195.030 C 55.478 194.831,57.352 194.687,59.811 194.687 C 62.271 194.687,64.145 194.831,64.267 195.030 C 64.534 195.462,68.016 195.481,68.814 195.055 C 69.141 194.880,69.681 194.653,70.014 194.550 C 70.772 194.315,71.294 192.980,71.294 191.278 C 71.294 189.420,69.653 188.175,67.204 188.175 C 65.383 188.175,64.935 187.672,65.981 186.804 C 66.264 186.569,66.495 186.096,66.495 185.752 C 66.495 185.408,66.881 184.401,67.352 183.515 C 67.823 182.628,68.209 181.547,68.209 181.113 C 68.209 180.063,68.869 179.969,77.020 179.863 C 83.594 179.777,83.603 179.778,83.796 180.548 C 83.902 180.973,84.140 181.320,84.325 181.320 C 84.510 181.320,84.662 181.766,84.662 182.311 C 84.662 182.876,84.883 183.388,85.176 183.500 C 85.498 183.624,85.690 184.148,85.690 184.908 C 85.690 185.755,85.844 186.118,86.204 186.118 C 86.487 186.118,86.718 186.350,86.718 186.632 C 86.718 186.975,86.375 187.147,85.690 187.147 C 85.004 187.147,84.662 187.318,84.662 187.661 C 84.662 188.055,84.224 188.175,82.776 188.175 L 80.891 188.175 80.891 190.550 C 80.891 191.972,81.063 193.112,81.320 193.392 C 81.555 193.649,81.919 194.161,82.127 194.530 C 82.558 195.292,89.803 195.775,89.803 195.042 C 89.803 194.566,102.363 194.555,102.656 195.030 C 102.784 195.237,105.167 195.373,108.655 195.373 C 112.143 195.373,114.525 195.237,114.653 195.030 C 114.781 194.822,117.278 194.687,120.994 194.687 C 124.710 194.687,127.207 194.822,127.335 195.030 C 127.601 195.461,134.449 195.487,134.893 195.059 C 135.072 194.886,135.604 194.694,136.075 194.631 C 136.785 194.536,136.968 194.280,137.137 193.145 C 137.250 192.391,137.391 191.620,137.450 191.431 C 137.839 190.204,136.302 187.986,135.684 188.882 C 135.424 189.260,135.390 189.214,135.537 188.682 C 135.719 188.025,135.601 187.997,133.160 188.120 C 130.974 188.230,130.591 188.168,130.591 187.698 C 130.591 187.304,130.273 187.147,129.477 187.147 L 128.363 187.147 128.463 180.328 L 128.562 173.508 132.327 173.532 C 134.783 173.548,136.233 173.416,136.495 173.153 C 136.717 172.932,137.542 172.751,138.330 172.751 C 139.185 172.751,139.934 172.543,140.189 172.237 C 140.423 171.954,141.064 171.722,141.612 171.722 C 142.182 171.722,142.694 171.502,142.807 171.208 C 142.915 170.925,143.283 170.694,143.623 170.694 C 144.290 170.694,149.786 165.517,149.786 164.890 C 149.786 164.681,150.171 163.900,150.643 163.153 C 151.114 162.407,151.500 161.438,151.500 161.001 C 151.500 160.563,151.665 160.040,151.867 159.838 C 152.550 159.155,152.697 153.109,152.061 151.835 C 151.752 151.216,151.500 150.209,151.500 149.598 C 151.500 148.878,151.299 148.411,150.928 148.269 C 149.717 147.804,151.098 147.509,153.813 147.653 C 155.931 147.764,156.641 147.922,156.641 148.280 C 156.641 148.542,156.795 148.757,156.984 148.757 C 157.208 148.757,157.326 155.099,157.326 167.095 C 157.326 177.605,157.196 185.433,157.021 185.433 C 156.853 185.433,156.618 185.818,156.500 186.290 C 156.307 187.060,156.113 187.147,154.578 187.147 C 153.289 187.147,152.871 187.272,152.871 187.661 C 152.871 188.042,152.471 188.175,151.328 188.175 L 149.786 188.175 149.786 189.868 C 149.786 190.800,149.632 191.657,149.443 191.774 C 148.487 192.365,149.096 193.984,150.536 194.679 C 152.125 195.447,160.152 195.728,160.583 195.030 C 160.862 194.578,181.401 194.563,181.852 195.014 C 182.326 195.488,192.951 195.533,193.420 195.063 C 193.627 194.856,194.124 194.687,194.524 194.687 C 195.345 194.687,196.858 191.794,197.286 189.406 C 197.418 188.670,197.734 187.667,197.990 187.178 C 198.245 186.690,198.454 186.018,198.455 185.685 C 198.457 185.353,198.605 184.813,198.785 184.485 C 199.219 183.698,200.171 180.185,200.171 179.372 C 200.171 177.316,193.777 175.250,193.082 177.082 C 192.949 177.433,192.639 177.924,192.393 178.174 C 192.147 178.423,191.945 178.847,191.945 179.116 C 191.945 179.385,191.714 179.606,191.431 179.606 C 191.148 179.606,190.917 179.901,190.917 180.263 C 190.917 180.624,190.300 181.581,189.546 182.390 C 188.772 183.220,188.175 184.202,188.175 184.646 C 188.175 185.292,187.990 185.433,187.147 185.433 C 186.581 185.433,186.118 185.587,186.118 185.775 C 186.118 185.992,183.633 186.118,179.349 186.119 L 172.579 186.119 172.677 178.406 L 172.776 170.694 177.048 170.694 C 180.616 170.694,181.320 170.779,181.320 171.208 C 181.320 171.491,181.534 171.722,181.795 171.722 C 182.142 171.722,182.307 172.366,182.405 174.105 C 182.593 177.423,183.355 178.235,186.285 178.235 C 189.911 178.235,189.889 178.312,189.889 166.004 C 189.889 156.674,189.934 155.868,190.422 156.565 C 190.716 156.984,191.180 157.326,191.455 157.326 C 191.730 157.326,192.261 157.518,192.635 157.752 C 193.177 158.090,193.455 158.090,193.997 157.752 C 194.372 157.518,194.976 157.326,195.340 157.326 C 196.644 157.326,197.556 155.154,197.260 152.756 C 196.986 150.538,196.952 150.162,196.574 145.090 C 196.347 142.029,196.306 141.911,195.194 141.063 L 194.047 140.189 171.917 140.189 L 149.786 140.189 149.775 142.159 C 149.768 143.346,149.564 144.395,149.261 144.796 C 148.984 145.162,148.757 145.303,148.757 145.111 C 148.757 144.419,145.809 142.589,145.382 143.015 C 145.084 143.314,144.987 143.268,144.987 142.828 C 144.987 142.409,144.698 142.245,143.959 142.245 C 143.273 142.245,142.931 142.074,142.931 141.731 C 142.931 141.337,142.497 141.217,141.082 141.217 C 139.750 141.217,139.178 141.072,139.035 140.699 C 138.861 140.246,136.745 140.193,121.946 140.271 L 105.056 140.360 104.955 142.634 C 104.880 144.330,104.989 145.043,105.384 145.438 C 105.675 145.728,105.913 146.068,105.913 146.193 C 105.913 146.824,107.586 147.708,108.802 147.718 C 111.463 147.740,112.392 148.342,112.639 150.204 C 112.759 151.114,112.992 151.940,113.156 152.042 C 113.549 152.285,113.543 177.111,113.149 177.354 C 112.982 177.457,112.733 179.703,112.597 182.344 L 112.348 187.147 110.662 187.147 C 109.479 187.147,108.917 187.300,108.779 187.661 C 108.507 188.367,105.570 188.388,105.570 187.683 C 105.570 187.403,105.167 187.146,104.630 187.084 C 104.004 187.011,103.653 186.746,103.579 186.290 C 103.445 185.473,102.787 184.065,101.455 181.748 C 101.265 181.418,101.014 180.917,100.898 180.634 C 100.782 180.351,100.243 179.182,99.700 178.036 C 99.158 176.890,98.715 175.772,98.715 175.551 C 98.715 175.331,98.560 175.150,98.372 175.150 C 98.183 175.150,98.029 174.852,98.029 174.489 C 98.029 174.125,97.798 173.597,97.515 173.314 C 97.232 173.031,97.001 172.422,97.001 171.960 C 97.001 171.499,96.769 170.929,96.487 170.694 C 96.204 170.459,95.972 170.093,95.971 169.881 C 95.971 169.668,95.508 168.569,94.944 167.438 C 94.380 166.307,93.918 165.211,93.917 165.004 C 93.916 164.516,92.285 161.431,91.657 160.727 C 91.391 160.429,91.174 159.922,91.174 159.599 C 91.174 159.277,90.865 158.408,90.488 157.669 C 90.111 156.930,89.803 156.109,89.803 155.844 C 89.803 155.579,89.494 154.970,89.117 154.491 C 88.740 154.012,88.432 153.371,88.432 153.067 C 88.432 152.763,87.969 151.648,87.404 150.588 C 86.838 149.528,86.375 148.374,86.375 148.024 C 86.375 147.673,86.233 147.386,86.060 147.386 C 85.886 147.386,85.637 146.898,85.506 146.302 C 85.375 145.705,84.921 144.565,84.497 143.767 C 84.072 142.969,83.627 141.953,83.508 141.510 C 82.930 139.371,76.831 138.074,76.122 139.939 C 75.941 140.417,75.628 140.909,75.428 141.032 C 75.228 141.156,75.064 141.711,75.064 142.265 C 75.064 142.933,74.891 143.273,74.550 143.273 C 74.230 143.273,74.036 143.597,74.036 144.130 C 74.036 144.602,73.882 144.987,73.693 144.987 C 73.505 144.987,73.350 145.431,73.350 145.973 C 73.350 146.516,73.119 147.152,72.836 147.386 C 72.554 147.621,72.322 148.185,72.322 148.639 C 72.322 149.093,72.091 149.553,71.808 149.662 C 71.515 149.774,71.294 150.285,71.294 150.851 C 71.294 151.504,71.118 151.842,70.780 151.842 C 70.437 151.842,70.266 152.185,70.266 152.871 C 70.266 153.436,70.141 153.899,69.989 153.899 C 69.602 153.899,68.552 156.371,68.552 157.281 C 68.552 157.695,68.320 158.122,68.038 158.231 C 67.745 158.343,67.524 158.854,67.524 159.420 C 67.524 160.073,67.348 160.411,67.009 160.411 C 66.671 160.411,66.495 160.750,66.495 161.403 C 66.495 161.968,66.274 162.479,65.981 162.592 C 65.698 162.700,65.467 163.102,65.467 163.485 C 65.467 163.868,65.313 164.182,65.124 164.182 C 64.936 164.182,64.781 164.461,64.781 164.802 C 64.781 165.143,64.555 165.721,64.278 166.087 C 64.001 166.453,63.770 167.254,63.764 167.866 C 63.757 168.623,63.588 168.980,63.239 168.980 C 62.896 168.980,62.725 169.323,62.725 170.009 C 62.725 170.694,62.554 171.037,62.211 171.037 C 61.897 171.037,61.697 171.356,61.697 171.857 C 61.697 172.308,61.465 172.766,61.183 172.875 C 60.900 172.983,60.668 173.462,60.668 173.940 C 60.668 174.417,60.514 174.807,60.326 174.807 C 60.137 174.807,59.983 175.174,59.983 175.622 C 59.983 176.070,59.751 176.629,59.469 176.864 C 59.186 177.098,58.955 177.564,58.955 177.897 C 58.955 178.231,58.723 178.593,58.440 178.702 C 58.122 178.824,57.926 179.345,57.926 180.073 C 57.926 180.800,57.731 181.321,57.412 181.444 C 57.129 181.552,56.898 182.031,56.898 182.509 C 56.898 182.986,56.705 183.377,56.470 183.379 C 56.027 183.382,55.184 184.886,55.184 185.672 C 55.184 185.918,54.953 186.118,54.670 186.118 C 54.387 186.118,54.156 186.350,54.156 186.632 C 54.156 186.975,53.813 187.147,53.128 187.147 C 52.442 187.147,52.099 187.318,52.099 187.661 C 52.099 188.011,51.749 188.175,51.003 188.175 C 50.149 188.175,49.997 188.083,50.317 187.763 C 50.815 187.266,50.864 185.214,50.386 184.919 C 50.197 184.802,50.043 184.434,50.043 184.101 C 50.043 183.191,48.562 181.945,47.783 182.199 C 47.293 182.359,47.247 182.328,47.602 182.076 C 48.472 181.455,47.681 181.074,45.854 181.234 C 44.859 181.322,43.873 181.608,43.664 181.870 C 43.455 182.133,42.953 182.348,42.550 182.348 C 42.127 182.348,41.817 182.565,41.817 182.862 C 41.817 183.205,41.474 183.376,40.788 183.376 C 40.103 183.376,39.760 183.548,39.760 183.890 C 39.760 184.262,39.379 184.404,38.389 184.404 C 37.399 184.404,37.018 184.547,37.018 184.919 C 37.018 185.355,36.142 185.433,31.191 185.433 C 26.240 185.433,25.364 185.355,25.364 184.919 C 25.364 184.580,25.025 184.404,24.373 184.404 C 23.807 184.404,23.296 184.183,23.184 183.890 C 23.075 183.608,22.690 183.376,22.327 183.376 C 21.964 183.376,21.578 183.145,21.470 182.862 C 21.361 182.579,21.074 182.348,20.831 182.348 C 20.589 182.348,20.202 181.924,19.973 181.405 C 19.743 180.887,19.088 179.952,18.518 179.328 C 17.947 178.703,17.481 178.046,17.481 177.866 C 17.481 177.687,17.349 177.272,17.188 176.945 C 15.527 173.562,15.596 174.017,15.596 166.368 C 15.596 160.990,15.708 158.962,16.024 158.646 C 16.260 158.410,16.452 158.007,16.452 157.750 C 16.452 156.932,18.056 153.752,18.811 153.075 C 19.210 152.715,19.538 152.253,19.540 152.046 C 19.541 151.840,20.384 151.131,21.411 150.471 C 22.439 149.811,23.286 149.156,23.294 149.015 C 23.301 148.873,23.809 148.752,24.422 148.745 C 25.034 148.739,25.921 148.513,26.392 148.243 C 27.609 147.548,32.773 147.548,33.468 148.243 C 33.751 148.526,34.434 148.757,34.986 148.757 C 35.538 148.757,35.990 148.884,35.990 149.040 C 35.990 149.357,38.765 150.814,39.369 150.814 C 39.584 150.814,39.760 151.029,39.760 151.292 C 39.760 151.554,39.991 151.858,40.274 151.966 C 40.597 152.090,40.788 152.614,40.788 153.374 C 40.788 154.040,40.925 154.584,41.092 154.584 C 41.258 154.584,41.501 155.433,41.630 156.470 C 41.760 157.506,42.029 158.355,42.229 158.355 C 42.450 158.355,42.518 158.808,42.404 159.512 C 42.244 160.497,42.340 160.726,43.045 161.047 C 43.500 161.255,43.873 161.582,43.873 161.775 C 43.873 161.985,45.001 162.125,46.690 162.125 C 51.096 162.125,51.027 162.281,50.829 152.780 C 50.624 142.989,50.325 142.245,46.593 142.245 C 45.623 142.245,45.244 142.101,45.244 141.731 C 45.244 141.336,44.806 141.217,43.359 141.217 C 41.912 141.217,41.474 141.097,41.474 140.703 C 41.474 140.309,41.039 140.189,39.617 140.189 C 38.486 140.189,37.707 140.029,37.625 139.780 C 37.485 139.362,24.868 139.041,22.279 139.390 M316.967 139.390 C 316.260 139.475,315.681 139.689,315.681 139.866 C 315.681 140.044,314.987 140.189,314.139 140.189 C 312.996 140.189,312.596 140.322,312.596 140.703 C 312.596 141.045,312.254 141.217,311.568 141.217 C 310.883 141.217,310.540 141.388,310.540 141.731 C 310.540 142.091,310.177 142.245,309.329 142.245 C 308.570 142.245,308.046 142.437,307.922 142.759 C 307.813 143.042,307.510 143.273,307.247 143.273 C 306.984 143.273,306.769 143.428,306.769 143.616 C 306.769 143.805,306.472 143.959,306.108 143.959 C 305.387 143.959,302.999 146.030,302.999 146.656 C 302.999 146.869,302.768 147.044,302.485 147.044 C 302.202 147.044,301.971 147.275,301.971 147.558 C 301.971 147.841,301.805 148.072,301.602 148.072 C 300.976 148.072,299.359 149.907,299.109 150.901 C 298.979 151.419,298.722 151.842,298.537 151.842 C 298.352 151.842,298.201 152.156,298.201 152.539 C 298.201 152.922,297.969 153.324,297.686 153.432 C 297.393 153.545,297.172 154.056,297.172 154.621 C 297.172 155.274,296.997 155.613,296.658 155.613 C 296.334 155.613,296.144 155.939,296.144 156.494 C 296.144 156.979,295.913 157.607,295.630 157.890 C 295.300 158.219,295.116 159.065,295.116 160.244 C 295.116 161.256,294.961 162.180,294.773 162.296 C 294.568 162.423,294.430 164.693,294.430 167.952 C 294.430 171.211,294.568 173.481,294.773 173.608 C 294.961 173.724,295.116 174.586,295.116 175.524 C 295.116 176.722,295.268 177.287,295.630 177.425 C 295.948 177.548,296.144 178.069,296.144 178.796 C 296.144 179.523,296.340 180.045,296.658 180.167 C 296.951 180.280,297.172 180.791,297.172 181.356 C 297.172 182.009,297.348 182.348,297.686 182.348 C 298.006 182.348,298.201 182.672,298.201 183.205 C 298.201 183.676,298.373 184.062,298.583 184.062 C 298.796 184.062,298.887 184.363,298.788 184.741 C 298.667 185.205,299.006 185.842,299.862 186.756 C 300.551 187.491,301.353 188.413,301.645 188.805 C 302.308 189.693,305.231 191.945,305.721 191.945 C 305.920 191.945,306.085 192.061,306.086 192.202 C 306.089 192.584,308.101 193.659,308.812 193.659 C 309.151 193.659,309.620 193.890,309.854 194.173 C 310.089 194.456,310.553 194.687,310.885 194.687 C 311.218 194.687,311.932 194.918,312.472 195.199 C 313.012 195.481,314.177 195.712,315.061 195.713 C 315.946 195.715,316.762 195.867,316.877 196.051 C 317.007 196.263,317.328 196.235,317.745 195.974 C 318.262 195.651,318.498 195.653,318.826 195.981 C 319.347 196.502,326.847 196.571,327.164 196.058 C 327.280 195.870,328.099 195.715,328.983 195.713 C 329.868 195.712,331.033 195.481,331.573 195.199 C 332.113 194.918,332.893 194.687,333.307 194.687 C 333.721 194.687,334.359 194.461,334.725 194.184 C 335.090 193.907,335.580 193.676,335.813 193.670 C 336.318 193.657,339.796 191.575,339.960 191.187 C 340.023 191.039,340.259 190.917,340.484 190.917 C 340.975 190.917,344.816 187.230,344.816 186.758 C 344.816 186.577,345.223 186.051,345.721 185.589 C 346.219 185.128,346.824 184.370,347.065 183.905 C 347.306 183.440,347.730 182.630,348.006 182.104 C 349.927 178.452,350.643 176.698,350.643 175.647 C 350.643 174.983,350.891 174.061,351.194 173.598 C 351.653 172.899,351.746 171.654,351.746 166.266 C 351.746 160.987,351.643 159.570,351.194 158.670 C 350.891 158.062,350.643 157.136,350.643 156.613 C 350.643 156.090,350.411 155.430,350.129 155.148 C 349.846 154.865,349.614 154.256,349.614 153.794 C 349.614 153.332,349.383 152.763,349.100 152.528 C 348.817 152.293,348.586 151.902,348.586 151.658 C 348.586 151.414,348.470 151.163,348.329 151.100 C 348.188 151.037,347.622 150.323,347.072 149.513 C 345.615 147.368,342.301 144.588,341.510 144.845 C 341.028 145.002,340.989 144.970,341.346 144.715 C 341.998 144.250,341.539 143.641,340.702 143.860 C 340.319 143.960,340.017 143.870,340.017 143.656 C 340.017 143.446,339.632 143.273,339.160 143.273 C 338.627 143.273,338.303 143.079,338.303 142.759 C 338.303 142.416,337.961 142.245,337.275 142.245 C 336.590 142.245,336.247 142.074,336.247 141.731 C 336.247 141.409,335.922 141.217,335.379 141.217 C 334.902 141.217,334.423 140.985,334.314 140.703 C 334.181 140.356,333.637 140.189,332.640 140.189 C 331.794 140.189,331.104 140.012,331.025 139.777 C 330.885 139.357,319.783 139.052,316.967 139.390 M198.686 140.417 C 198.560 140.543,198.458 143.079,198.458 146.052 C 198.458 149.287,198.320 151.544,198.115 151.671 C 197.445 152.085,197.699 157.846,198.427 158.745 C 199.252 159.763,203.183 159.866,204.253 158.898 C 205.026 158.198,206.469 154.734,206.978 152.356 C 207.470 150.059,207.919 149.786,211.205 149.786 C 213.687 149.786,214.249 149.685,214.540 149.186 C 214.780 148.773,214.892 154.412,214.900 167.276 C 214.911 188.303,215.061 187.147,212.335 187.147 C 211.501 187.147,211.140 187.302,211.140 187.661 C 211.140 188.054,210.706 188.175,209.291 188.175 C 207.204 188.175,207.027 188.374,207.027 190.722 C 207.027 194.420,208.380 195.373,213.634 195.373 C 215.459 195.373,217.021 195.220,217.138 195.030 C 217.263 194.828,219.306 194.687,222.108 194.687 C 224.910 194.687,226.953 194.828,227.078 195.030 C 227.201 195.230,229.117 195.373,231.663 195.373 L 236.037 195.373 237.343 194.210 C 239.892 191.943,237.948 187.715,234.534 188.100 C 233.331 188.235,232.918 188.149,232.672 187.710 C 232.473 187.355,231.887 187.137,231.088 187.119 C 230.391 187.105,230.013 187.015,230.249 186.920 C 230.584 186.784,230.677 182.730,230.677 168.266 L 230.677 149.786 234.079 149.786 C 237.032 149.786,237.503 149.706,237.639 149.186 C 237.725 148.856,237.813 149.087,237.835 149.700 C 237.862 150.444,238.046 150.814,238.389 150.814 C 238.777 150.814,238.903 151.231,238.903 152.508 C 238.903 153.439,239.057 154.297,239.246 154.413 C 239.434 154.530,239.589 154.946,239.589 155.338 C 239.589 159.136,244.745 161.185,247.319 158.409 C 248.194 157.466,248.536 154.436,247.849 153.710 C 247.680 153.531,247.432 152.112,247.300 150.557 L 247.058 147.729 248.225 147.729 C 248.867 147.729,249.570 147.908,249.788 148.126 C 250.089 148.427,250.313 148.416,250.714 148.084 C 251.189 147.690,251.243 149.579,251.243 166.806 C 251.243 188.362,251.396 187.147,248.668 187.147 C 247.834 187.147,247.472 187.302,247.472 187.661 C 247.472 188.055,247.034 188.175,245.587 188.175 L 243.702 188.175 243.702 190.864 C 243.702 193.682,244.182 194.687,245.528 194.687 C 245.843 194.687,246.101 194.841,246.101 195.030 C 246.101 195.237,247.523 195.373,249.680 195.373 C 251.696 195.373,253.351 195.223,253.470 195.030 C 253.598 194.824,255.924 194.687,259.297 194.687 C 262.671 194.687,264.997 194.824,265.124 195.030 C 265.493 195.627,272.049 195.455,273.013 194.823 C 273.892 194.248,274.545 192.503,274.548 190.724 C 274.551 189.204,272.824 187.965,270.912 188.117 C 269.872 188.199,269.448 188.087,269.295 187.688 C 269.153 187.318,268.648 187.147,267.706 187.147 L 266.324 187.147 266.324 179.819 C 266.324 173.724,266.410 172.420,266.838 172.065 C 267.259 171.716,267.352 171.739,267.352 172.195 C 267.352 172.500,267.584 172.751,267.866 172.751 C 268.188 172.751,268.380 173.076,268.380 173.618 C 268.380 174.096,268.612 174.575,268.895 174.683 C 269.177 174.792,269.409 175.231,269.409 175.659 C 269.409 176.087,269.640 176.629,269.923 176.864 C 270.206 177.098,270.437 177.580,270.437 177.934 C 270.437 178.288,270.668 178.578,270.951 178.578 C 271.271 178.578,271.465 178.901,271.465 179.434 C 271.465 179.906,271.620 180.291,271.808 180.291 C 271.997 180.291,272.151 180.738,272.151 181.283 C 272.151 181.848,272.372 182.359,272.665 182.472 C 272.948 182.580,273.179 182.987,273.179 183.376 C 273.179 183.765,273.410 184.172,273.693 184.281 C 273.976 184.389,274.207 184.847,274.207 185.298 C 274.207 185.799,274.408 186.118,274.722 186.118 C 275.071 186.118,275.239 186.475,275.247 187.232 C 275.253 187.845,275.484 188.646,275.761 189.012 C 276.037 189.377,276.264 189.956,276.264 190.297 C 276.264 190.638,276.418 190.917,276.607 190.917 C 276.795 190.917,276.949 191.230,276.949 191.613 C 276.949 192.934,277.905 194.687,278.626 194.687 C 279.001 194.687,279.404 194.841,279.520 195.030 C 279.637 195.219,280.639 195.373,281.748 195.373 C 282.857 195.373,283.859 195.219,283.976 195.030 C 284.101 194.828,286.144 194.687,288.946 194.687 C 291.748 194.687,293.791 194.828,293.916 195.030 C 294.033 195.219,295.266 195.373,296.658 195.373 C 298.050 195.373,299.284 195.219,299.400 195.030 C 299.517 194.841,299.906 194.687,300.265 194.687 C 301.859 194.687,302.185 190.946,300.741 189.229 C 299.955 188.296,299.645 188.175,298.035 188.175 C 296.735 188.175,296.161 188.028,296.020 187.661 C 295.890 187.321,295.353 187.147,294.441 187.147 C 293.681 187.147,293.059 186.995,293.059 186.810 C 293.059 186.625,292.662 186.374,292.177 186.253 C 291.594 186.106,291.410 185.916,291.635 185.692 C 292.002 185.325,290.171 182.005,289.602 182.005 C 289.430 182.005,289.289 181.777,289.289 181.499 C 289.289 181.056,286.840 177.069,285.872 175.936 C 285.678 175.708,285.518 175.279,285.518 174.982 C 285.518 174.686,285.287 174.354,285.004 174.246 C 284.722 174.137,284.490 173.833,284.490 173.571 C 284.490 173.308,284.346 173.093,284.170 173.093 C 283.995 173.093,283.753 172.746,283.633 172.322 C 283.513 171.898,283.155 171.028,282.839 170.388 C 282.371 169.445,282.349 169.195,282.724 169.063 C 283.402 168.825,285.518 166.906,285.518 166.529 C 285.518 166.351,285.881 165.866,286.323 165.451 C 287.400 164.441,289.286 160.987,289.300 160.001 C 289.306 159.567,289.537 158.912,289.814 158.546 C 290.534 157.594,290.525 151.756,289.803 151.157 C 289.520 150.922,289.289 150.226,289.289 149.609 C 289.289 148.929,289.087 148.411,288.775 148.291 C 288.492 148.182,288.260 147.797,288.260 147.434 C 288.260 146.343,284.953 143.273,283.777 143.273 C 283.116 143.273,282.776 143.099,282.776 142.759 C 282.776 142.416,282.434 142.245,281.748 142.245 C 281.063 142.245,280.720 142.074,280.720 141.731 C 280.720 141.370,280.355 141.217,279.496 141.217 C 278.822 141.217,278.040 140.985,277.757 140.703 C 277.216 140.162,199.223 139.880,198.686 140.417 M349.927 140.931 C 348.384 143.814,350.603 147.729,353.781 147.729 C 355.000 147.729,355.661 147.898,355.941 148.281 C 356.311 148.788,356.393 148.786,356.921 148.257 C 357.462 147.717,357.498 148.885,357.498 166.823 C 357.498 188.360,357.652 187.147,354.923 187.147 C 354.089 187.147,353.728 187.302,353.728 187.661 C 353.728 188.055,353.291 188.175,351.858 188.175 C 349.710 188.175,349.295 188.960,349.769 192.125 C 350.206 195.035,350.862 195.373,356.080 195.373 C 358.853 195.373,360.583 195.241,360.583 195.030 C 360.583 194.809,364.175 194.687,370.674 194.687 C 377.032 194.687,380.843 194.814,380.977 195.030 C 381.285 195.529,393.288 195.481,394.263 194.977 C 394.685 194.759,395.251 194.479,395.521 194.354 C 395.791 194.229,396.121 193.906,396.255 193.636 C 397.403 191.307,398.629 187.582,398.629 186.422 C 398.629 186.066,398.783 185.775,398.972 185.775 C 399.160 185.775,399.314 185.399,399.314 184.939 C 399.314 184.479,399.469 184.007,399.657 183.890 C 401.206 182.933,399.561 175.323,397.963 176.058 C 397.670 176.194,396.620 176.367,395.630 176.444 C 394.378 176.542,393.830 176.731,393.830 177.067 C 393.830 177.332,393.599 177.549,393.316 177.549 C 393.033 177.549,392.802 177.839,392.802 178.193 C 392.802 178.547,392.571 179.028,392.288 179.263 C 392.005 179.498,391.774 179.902,391.774 180.162 C 391.774 180.422,391.620 180.634,391.431 180.634 C 391.243 180.634,391.088 180.849,391.088 181.112 C 391.088 181.374,390.857 181.678,390.574 181.786 C 390.291 181.895,390.060 182.297,390.060 182.680 C 390.060 183.070,389.834 183.376,389.546 183.376 C 389.263 183.376,389.032 183.608,389.032 183.890 C 389.032 184.173,388.800 184.404,388.518 184.404 C 388.235 184.404,388.003 184.636,388.003 184.919 C 388.003 185.201,387.704 185.433,387.338 185.433 C 386.972 185.433,386.578 185.587,386.461 185.775 C 386.331 185.986,383.578 186.118,379.346 186.118 C 373.976 186.118,372.534 186.027,372.853 185.707 C 373.158 185.402,373.265 182.092,373.266 172.939 C 373.266 166.143,373.368 157.921,373.491 154.668 L 373.716 148.754 374.742 148.242 C 375.318 147.955,376.693 147.729,377.868 147.729 C 379.278 147.729,380.246 147.539,380.815 147.149 C 382.749 145.826,382.850 142.498,381.000 141.086 L 379.823 140.189 365.073 140.189 L 350.324 140.189 349.927 140.931 M326.650 148.243 C 326.884 148.526,327.347 148.757,327.678 148.757 C 328.009 148.757,328.471 148.989,328.706 149.272 C 328.941 149.554,329.332 149.786,329.576 149.786 C 330.288 149.786,332.476 152.109,332.476 152.865 C 332.476 153.251,332.703 153.556,332.991 153.556 C 333.370 153.556,333.505 153.953,333.505 155.074 C 333.505 155.966,333.717 156.804,334.019 157.106 C 334.400 157.487,334.533 158.420,334.533 160.705 C 334.533 162.990,334.666 163.923,335.047 164.304 C 335.428 164.684,335.561 165.616,335.561 167.886 C 335.561 170.194,335.434 171.058,335.047 171.380 C 334.657 171.704,334.533 172.583,334.533 175.031 C 334.533 177.582,334.425 178.298,334.019 178.454 C 333.732 178.564,333.505 179.073,333.505 179.606 C 333.505 180.138,333.277 180.648,332.991 180.758 C 332.708 180.867,332.476 181.179,332.476 181.452 C 332.476 182.033,331.396 184.180,331.020 184.347 C 330.878 184.410,330.763 184.680,330.763 184.947 C 330.763 185.214,330.531 185.433,330.249 185.433 C 329.966 185.433,329.734 185.587,329.734 185.775 C 329.734 185.964,329.445 186.118,329.091 186.118 C 328.737 186.118,328.255 186.350,328.021 186.632 C 327.786 186.915,327.227 187.147,326.779 187.147 C 326.283 187.147,325.964 187.348,325.964 187.661 C 325.964 188.077,325.416 188.175,323.093 188.175 C 320.958 188.175,320.111 188.043,319.794 187.661 C 319.560 187.378,318.847 187.147,318.210 187.147 C 317.508 187.147,317.052 186.977,317.052 186.715 C 317.052 186.477,316.744 186.091,316.367 185.855 C 315.990 185.620,315.681 185.141,315.681 184.791 C 315.681 184.441,315.373 183.762,314.996 183.283 C 314.619 182.803,314.310 182.262,314.310 182.079 C 314.310 181.896,314.079 181.554,313.796 181.320 C 313.513 181.085,313.282 180.545,313.282 180.120 C 313.282 179.695,313.072 179.172,312.814 178.959 C 312.557 178.746,312.254 177.609,312.141 176.432 C 312.028 175.256,311.780 173.213,311.591 171.894 C 311.172 168.963,311.169 164.659,311.585 162.125 C 311.755 161.088,312.000 159.394,312.130 158.360 C 312.260 157.326,312.572 156.273,312.824 156.022 C 313.076 155.770,313.282 155.183,313.282 154.717 C 313.282 153.769,313.391 153.610,315.990 150.776 C 317.009 149.666,318.108 148.757,318.434 148.757 C 318.759 148.757,319.217 148.526,319.452 148.243 C 319.775 147.854,320.649 147.729,323.051 147.729 C 325.452 147.729,326.326 147.854,326.650 148.243 M133.823 150.138 C 134.006 150.321,134.434 150.471,134.773 150.471 C 135.112 150.471,135.390 150.707,135.390 150.996 C 135.390 151.285,135.621 151.610,135.904 151.718 C 136.317 151.877,136.418 152.643,136.418 155.613 C 136.418 158.583,136.317 159.348,135.904 159.507 C 135.621 159.615,135.390 160.002,135.390 160.365 C 135.390 161.138,133.724 163.153,133.086 163.153 C 132.845 163.153,132.648 163.385,132.648 163.668 C 132.648 164.070,132.181 164.182,130.506 164.182 L 128.363 164.182 128.462 156.765 L 128.561 149.347 131.025 149.576 C 132.381 149.702,133.640 149.955,133.823 150.138 M187.404 149.659 C 187.930 149.800,188.175 150.125,188.175 150.683 C 188.175 151.132,188.329 151.500,188.518 151.500 C 188.706 151.500,188.860 151.866,188.860 152.315 C 188.860 152.763,189.092 153.321,189.374 153.556 C 190.666 154.628,189.563 156.289,188.248 155.254 C 187.168 154.404,183.809 154.294,183.500 155.099 C 183.392 155.381,183.088 155.613,182.825 155.613 C 182.496 155.613,182.348 156.042,182.348 156.994 C 182.348 157.907,182.173 158.443,181.834 158.574 C 181.499 158.702,181.320 159.235,181.320 160.105 C 181.320 161.300,181.230 161.440,180.463 161.440 C 179.991 161.440,179.606 161.594,179.606 161.782 C 179.606 161.989,178.206 162.125,176.093 162.126 L 172.579 162.126 172.680 155.784 L 172.780 149.443 179.706 149.448 C 183.516 149.450,186.979 149.545,187.404 149.659 M271.828 150.218 C 272.392 150.567,272.573 150.551,272.842 150.129 C 273.094 149.731,273.170 149.831,273.174 150.568 C 273.177 151.095,273.409 151.609,273.693 151.718 C 274.106 151.877,274.207 152.643,274.207 155.613 C 274.207 158.583,274.106 159.348,273.693 159.507 C 273.410 159.615,273.179 160.095,273.179 160.572 C 273.179 161.115,272.987 161.440,272.665 161.440 C 272.382 161.440,272.151 161.583,272.151 161.759 C 272.151 161.935,271.804 162.187,271.380 162.320 C 270.955 162.452,270.531 162.670,270.437 162.805 C 270.343 162.939,269.379 163.151,268.295 163.276 L 266.324 163.502 266.324 156.423 L 266.324 149.345 268.733 149.568 C 270.058 149.692,271.451 149.984,271.828 150.218 M77.121 163.997 C 77.121 164.487,77.352 164.977,77.635 165.086 C 77.918 165.195,78.149 165.652,78.149 166.104 C 78.149 166.555,78.303 166.924,78.492 166.924 C 78.680 166.924,78.835 167.375,78.835 167.928 C 78.835 168.480,79.066 169.163,79.349 169.445 C 80.655 170.752,80.067 171.037,76.069 171.037 L 72.276 171.037 73.005 170.012 C 73.407 169.448,73.823 168.448,73.930 167.789 C 74.036 167.131,74.335 166.416,74.594 166.202 C 74.853 165.987,75.069 165.560,75.075 165.254 C 75.081 164.947,75.313 164.396,75.589 164.030 C 75.866 163.665,76.093 163.075,76.093 162.721 C 76.093 162.148,76.150 162.133,76.607 162.590 C 76.889 162.873,77.121 163.506,77.121 163.997 M57.250 207.858 C 56.741 209.198,56.842 209.409,57.453 208.282 C 57.743 207.747,57.895 207.224,57.791 207.120 C 57.688 207.016,57.444 207.349,57.250 207.858 M51.151 292.716 C 51.151 293.376,51.221 293.646,51.307 293.316 C 51.394 292.986,51.394 292.446,51.307 292.117 C 51.221 291.787,51.151 292.057,51.151 292.716 " stroke="none" fill="#040404" fill-rule="evenodd"></path><path id="path1" d="M70.689 16.553 C 70.170 17.126,70.178 17.150,70.799 16.917 C 71.407 16.689,71.421 16.722,70.957 17.291 C 70.593 17.738,70.432 18.898,70.389 21.383 C 70.356 23.290,70.161 25.284,69.955 25.815 C 69.460 27.090,69.482 27.421,70.064 27.421 C 70.340 27.421,70.498 27.678,70.433 28.021 C 70.370 28.350,70.291 29.083,70.258 29.649 C 70.199 30.650,70.191 30.655,69.954 29.820 C 69.719 28.993,69.702 29.003,69.474 30.120 C 69.136 31.772,69.182 33.173,69.581 33.420 C 69.807 33.559,69.793 33.878,69.540 34.351 C 69.311 34.779,69.239 35.776,69.361 36.818 C 69.498 37.978,69.412 38.865,69.108 39.452 C 68.782 40.080,68.642 41.987,68.625 46.046 C 68.605 50.820,68.511 51.847,68.049 52.309 C 67.488 52.870,67.453 54.923,67.990 55.792 C 68.133 56.023,68.110 56.213,67.939 56.213 C 67.769 56.213,67.629 56.824,67.629 57.571 C 67.629 58.318,67.734 58.865,67.862 58.786 C 67.990 58.707,68.095 58.860,68.095 59.126 C 68.095 59.392,67.966 59.531,67.809 59.433 C 67.652 59.336,67.524 59.574,67.524 59.963 C 67.524 60.351,67.716 60.671,67.952 60.674 C 68.244 60.677,68.262 60.759,68.008 60.931 C 67.803 61.069,67.629 61.645,67.622 62.211 C 67.590 64.626,67.335 66.762,67.096 66.614 C 66.954 66.527,66.838 66.704,66.838 67.009 C 66.838 67.346,66.996 67.467,67.240 67.316 C 67.461 67.179,67.384 67.435,67.069 67.886 C 66.427 68.802,66.305 70.451,66.855 70.790 C 67.064 70.920,67.091 71.178,66.919 71.410 C 66.573 71.877,66.578 72.338,66.935 72.898 C 67.076 73.121,67.063 73.383,66.905 73.480 C 66.747 73.578,66.581 75.434,66.536 77.606 C 66.486 80.011,66.277 81.926,66.000 82.508 C 65.676 83.188,65.559 84.981,65.592 88.750 C 65.623 92.322,65.511 94.166,65.246 94.431 C 65.024 94.653,64.854 95.892,64.854 97.281 C 64.854 99.035,64.966 99.671,65.246 99.504 C 65.538 99.329,65.538 99.395,65.244 99.763 C 65.028 100.035,64.875 101.067,64.904 102.057 C 64.934 103.046,64.830 103.856,64.673 103.856 C 64.516 103.856,64.426 104.589,64.473 105.484 C 64.520 106.380,64.377 107.449,64.156 107.861 C 63.643 108.814,63.643 109.574,64.154 109.890 C 64.422 110.056,64.484 109.953,64.341 109.579 C 64.223 109.271,64.241 108.948,64.383 108.861 C 64.524 108.774,64.662 109.008,64.690 109.382 C 64.719 109.756,64.519 110.148,64.247 110.252 C 63.668 110.475,63.575 111.740,64.138 111.740 C 64.389 111.740,64.359 111.942,64.052 112.319 C 63.784 112.650,63.756 112.795,63.987 112.657 C 64.209 112.523,64.488 112.571,64.607 112.762 C 64.725 112.954,64.606 113.111,64.342 113.111 C 63.954 113.111,63.850 114.141,63.795 118.496 C 63.743 122.670,63.615 124.006,63.227 124.435 C 62.612 125.114,62.576 125.791,63.153 125.798 C 63.439 125.801,63.410 125.914,63.068 126.135 C 62.628 126.419,62.641 126.468,63.153 126.473 C 63.887 126.479,63.947 127.111,63.239 127.382 C 62.956 127.491,62.725 127.727,62.725 127.906 C 62.725 128.086,62.903 128.122,63.121 127.988 C 63.394 127.819,63.420 127.892,63.206 128.225 C 62.481 129.351,62.794 132.008,63.701 132.422 C 64.359 132.721,64.588 132.713,64.697 132.387 C 64.775 132.153,65.220 131.962,65.687 131.962 C 66.166 131.962,66.443 132.112,66.324 132.305 C 66.183 132.533,109.400 132.648,195.716 132.648 C 282.031 132.648,325.248 132.533,325.107 132.305 C 324.821 131.842,325.390 131.868,325.861 132.339 C 326.299 132.777,327.784 132.411,327.491 131.938 C 327.383 131.763,327.519 131.620,327.792 131.620 C 328.066 131.620,328.379 131.388,328.487 131.105 C 328.596 130.823,328.904 130.591,329.173 130.591 C 329.441 130.591,329.750 130.360,329.858 130.077 C 329.967 129.794,330.292 129.563,330.581 129.563 C 330.869 129.563,331.105 129.409,331.105 129.220 C 331.105 129.032,331.414 128.877,331.791 128.877 C 332.168 128.877,332.476 128.651,332.476 128.374 C 332.476 128.084,332.679 127.949,332.956 128.055 C 333.220 128.156,333.552 128.050,333.694 127.820 C 333.860 127.552,333.811 127.489,333.558 127.645 C 333.340 127.780,333.162 127.708,333.162 127.487 C 333.162 127.252,333.449 127.159,333.847 127.263 C 334.225 127.362,334.533 127.341,334.534 127.217 C 334.535 126.870,336.379 125.716,336.722 125.847 C 336.889 125.912,337.157 125.607,337.319 125.171 C 337.480 124.735,337.771 124.476,337.966 124.596 C 338.161 124.717,338.278 124.611,338.226 124.361 C 338.172 124.102,338.378 123.948,338.706 124.002 C 339.022 124.054,339.393 123.915,339.530 123.692 C 339.698 123.421,339.632 123.379,339.332 123.565 C 339.035 123.748,338.966 123.708,339.128 123.446 C 339.262 123.229,339.744 123.051,340.198 123.051 C 340.791 123.051,340.968 122.906,340.827 122.536 C 340.682 122.159,340.871 122.022,341.538 122.022 C 342.084 122.022,342.411 121.852,342.356 121.594 C 342.307 121.358,342.545 120.747,342.886 120.237 C 343.317 119.590,343.444 118.966,343.302 118.180 C 343.123 117.189,343.141 117.152,343.450 117.871 C 343.643 118.322,343.722 119.247,343.627 119.928 L 343.453 121.165 343.825 119.966 C 344.037 119.283,344.106 117.880,343.984 116.710 C 343.867 115.578,343.778 114.422,343.786 114.139 C 343.794 113.856,343.891 111.644,344.001 109.222 C 344.121 106.611,344.070 104.687,343.877 104.494 C 343.681 104.298,343.664 103.458,343.834 102.384 C 343.990 101.403,344.068 96.358,344.008 91.174 C 343.949 85.990,343.991 80.413,344.101 78.782 C 344.211 77.150,344.186 75.887,344.045 75.974 C 343.714 76.179,343.710 74.626,344.040 73.807 C 344.239 73.312,344.335 73.433,344.496 74.379 C 344.609 75.039,344.716 73.768,344.734 71.556 C 344.752 69.344,344.625 67.446,344.452 67.339 C 344.280 67.233,344.228 67.423,344.338 67.763 C 344.505 68.279,344.477 68.296,344.169 67.866 C 343.897 67.486,343.924 67.259,344.274 66.997 C 344.826 66.582,344.946 62.448,344.424 61.813 C 344.220 61.565,344.219 61.340,344.420 61.215 C 344.615 61.095,344.750 53.721,344.761 42.590 C 344.771 32.456,344.882 23.046,345.009 21.680 C 345.159 20.063,345.116 19.195,344.888 19.195 C 344.695 19.195,344.618 18.886,344.716 18.510 C 344.894 17.831,344.701 17.825,321.634 17.759 C 308.840 17.723,295.210 17.618,291.345 17.525 C 273.364 17.094,268.724 17.100,268.713 17.554 C 268.707 17.813,268.557 17.744,268.349 17.388 C 268.019 16.822,267.007 16.784,253.021 16.819 C 238.016 16.855,235.663 16.952,236.013 17.519 C 236.364 18.086,225.213 17.893,224.642 17.322 C 223.952 16.632,194.121 16.704,194.259 17.395 C 194.306 17.631,194.190 17.823,194.002 17.823 C 193.813 17.823,193.659 17.616,193.659 17.363 C 193.659 16.981,186.025 16.909,148.243 16.935 C 114.388 16.959,102.828 16.867,102.828 16.575 C 102.828 15.662,86.993 15.286,86.101 16.178 C 85.875 16.404,85.690 16.443,85.689 16.264 C 85.689 15.583,71.316 15.860,70.689 16.553 M106.855 16.365 C 108.599 16.427,111.452 16.427,113.196 16.365 C 114.940 16.303,113.513 16.252,110.026 16.252 C 106.538 16.252,105.111 16.303,106.855 16.365 M245.783 17.745 C 242.121 17.796,239.005 17.720,238.859 17.574 C 238.713 17.428,241.709 17.386,245.518 17.480 L 252.442 17.651 245.783 17.745 M265.467 17.593 C 266.787 17.651,264.509 17.716,260.406 17.737 C 256.303 17.757,253.011 17.670,253.089 17.542 C 253.223 17.324,260.040 17.353,265.467 17.593 M147.561 18.570 C 147.904 18.912,117.791 19.224,94.174 19.121 C 77.170 19.047,71.638 18.924,71.638 18.620 C 71.637 18.196,147.138 18.146,147.561 18.570 M343.647 19.678 C 343.757 20.427,343.471 21.251,343.102 21.251 C 342.736 21.251,342.344 19.589,342.609 19.161 C 342.921 18.655,343.542 18.964,343.647 19.678 M343.338 26.650 C 343.252 26.979,343.181 26.710,343.181 26.050 C 343.181 25.390,343.252 25.120,343.338 25.450 C 343.424 25.780,343.424 26.320,343.338 26.650 M343.469 35.135 C 343.559 43.612,343.548 43.873,343.102 43.873 C 342.722 43.873,342.619 31.230,342.981 29.038 C 343.333 26.910,343.389 27.607,343.469 35.135 M71.637 40.171 C 71.637 42.256,71.521 43.210,71.297 42.985 C 70.917 42.605,70.555 38.243,70.841 37.497 C 71.321 36.245,71.637 37.306,71.637 40.171 M70.780 48.673 C 71.040 49.491,70.636 54.803,70.260 55.503 C 70.089 55.823,70.005 55.644,70.018 54.989 C 70.030 54.437,69.926 52.790,69.788 51.330 C 69.650 49.871,69.633 48.521,69.750 48.331 C 70.091 47.780,70.544 47.930,70.780 48.673 M69.483 62.296 C 69.404 62.815,69.340 62.391,69.340 61.354 C 69.340 60.317,69.404 59.893,69.483 60.411 C 69.561 60.930,69.561 61.778,69.483 62.296 M344.473 60.326 C 344.473 60.703,344.319 61.011,344.130 61.011 C 343.942 61.011,343.787 60.703,343.787 60.326 C 343.787 59.949,343.942 59.640,344.130 59.640 C 344.319 59.640,344.473 59.949,344.473 60.326 M342.618 76.816 C 342.856 91.646,342.743 94.723,341.992 93.971 C 341.728 93.708,341.633 89.490,341.676 79.959 C 341.730 67.890,341.941 61.450,342.272 61.781 C 342.331 61.840,342.487 68.606,342.618 76.816 M68.705 83.909 C 68.454 86.399,68.424 86.469,68.183 85.164 C 67.960 83.961,67.971 80.725,68.203 79.177 C 68.470 77.391,68.928 81.703,68.705 83.909 M67.866 93.553 C 67.866 96.518,67.476 97.802,67.053 96.226 C 66.773 95.181,66.783 91.000,67.067 90.717 C 67.685 90.099,67.866 90.742,67.866 93.553 M66.769 104.312 C 66.833 105.506,66.733 106.255,66.512 106.255 C 66.314 106.255,66.138 105.985,66.120 105.656 C 66.102 105.326,66.043 104.393,65.989 103.584 C 65.923 102.605,66.020 102.155,66.279 102.240 C 66.492 102.310,66.713 103.242,66.769 104.312 M341.511 120.044 C 341.001 120.869,340.425 120.247,340.727 119.197 C 340.902 118.585,341.065 117.621,341.088 117.055 C 341.114 116.439,341.241 116.780,341.403 117.901 C 341.553 118.934,341.601 119.898,341.511 120.044 M65.805 124.507 C 65.801 126.238,65.698 126.836,65.467 126.478 C 65.094 125.901,65.027 123.962,65.340 122.793 C 65.691 121.484,65.810 121.923,65.805 124.507 M66.088 130.084 C 65.780 130.393,65.061 129.600,65.299 129.215 C 65.496 128.896,65.644 128.936,65.889 129.373 C 66.068 129.694,66.158 130.014,66.088 130.084 M57.926 207.204 C 57.926 207.597,57.734 208.125,57.498 208.379 C 57.155 208.749,57.155 208.793,57.498 208.599 C 58.143 208.235,58.013 208.769,57.326 209.302 C 56.759 209.743,56.764 209.799,57.412 210.329 C 58.047 210.848,58.050 210.872,57.449 210.664 C 56.874 210.464,56.855 210.505,57.278 211.026 C 57.540 211.350,57.595 211.519,57.400 211.402 C 57.162 211.260,57.031 212.787,57.004 216.009 C 56.974 219.513,56.844 220.901,56.525 221.098 C 56.201 221.299,56.072 222.898,56.028 227.242 C 55.989 231.121,55.836 233.247,55.577 233.506 C 54.953 234.130,55.122 234.580,55.784 234.061 C 56.338 233.626,56.345 233.640,55.870 234.243 C 55.463 234.759,55.339 236.191,55.278 241.098 C 55.226 245.327,55.062 247.564,54.764 248.128 C 54.416 248.787,54.414 248.985,54.756 249.099 C 55.360 249.302,55.290 250.214,54.670 250.214 C 53.953 250.214,54.024 251.158,54.756 251.349 C 55.327 251.498,55.327 251.508,54.756 251.546 C 54.101 251.589,53.953 252.105,54.499 252.442 C 54.687 252.559,54.841 252.808,54.841 252.997 C 54.841 253.185,54.701 253.253,54.530 253.147 C 54.349 253.035,54.200 255.001,54.175 257.826 C 54.140 261.801,54.030 262.810,53.575 263.313 C 53.268 263.652,53.128 264.039,53.263 264.174 C 53.397 264.309,53.668 264.192,53.864 263.915 C 54.154 263.505,54.182 263.529,54.017 264.038 C 53.905 264.384,53.813 264.740,53.813 264.830 C 53.813 264.920,53.620 264.877,53.385 264.736 C 53.045 264.532,53.043 264.586,53.377 264.998 C 53.707 265.406,53.708 265.607,53.379 265.935 C 53.051 266.263,53.071 266.422,53.473 266.676 C 53.876 266.930,53.885 267.000,53.514 267.004 C 53.148 267.008,53.133 267.117,53.445 267.493 C 53.666 267.759,53.714 268.059,53.551 268.159 C 53.389 268.259,53.216 269.852,53.167 271.698 C 53.115 273.625,52.905 275.268,52.674 275.554 C 52.360 275.943,52.365 275.996,52.699 275.795 C 52.972 275.632,53.128 275.740,53.128 276.093 C 53.128 276.398,52.978 276.555,52.795 276.442 C 52.161 276.050,51.902 279.711,52.487 280.803 C 52.751 281.298,52.748 281.423,52.476 281.255 C 52.248 281.114,52.099 281.307,52.099 281.748 C 52.099 282.210,52.244 282.385,52.495 282.229 C 52.767 282.062,52.796 282.136,52.587 282.466 C 52.421 282.731,52.268 284.027,52.248 285.347 C 52.229 286.667,52.093 288.113,51.948 288.560 C 51.765 289.124,51.800 289.302,52.064 289.139 C 52.387 288.939,52.399 289.842,52.084 290.660 C 52.048 290.754,52.040 290.958,52.067 291.114 C 52.094 291.269,51.958 291.299,51.765 291.179 C 51.550 291.047,51.414 291.436,51.414 292.182 C 51.414 292.927,51.581 293.404,51.842 293.407 C 52.149 293.411,52.134 293.499,51.792 293.715 C 51.521 293.887,51.408 294.264,51.531 294.585 C 51.659 294.917,51.609 295.065,51.410 294.942 C 51.221 294.825,51.071 295.115,51.071 295.599 C 51.071 296.281,51.199 296.417,51.671 296.240 C 52.174 296.052,52.202 296.100,51.845 296.540 C 51.611 296.828,51.534 297.190,51.674 297.344 C 51.814 297.499,51.739 297.516,51.507 297.383 C 51.182 297.196,51.112 298.040,51.198 301.082 C 51.281 303.989,51.199 305.065,50.885 305.185 C 50.583 305.301,50.458 306.426,50.453 309.058 C 50.437 317.958,50.410 318.411,49.913 318.221 C 49.531 318.074,49.456 318.612,49.522 321.059 C 49.609 324.338,50.186 326.489,50.743 325.610 C 50.918 325.333,51.063 325.274,51.066 325.478 C 51.069 325.683,51.296 325.850,51.570 325.850 C 51.845 325.850,51.995 325.729,51.903 325.581 C 51.673 325.209,52.844 324.653,53.470 324.837 C 53.927 324.971,53.927 324.948,53.470 324.624 C 53.001 324.292,53.221 324.096,53.924 324.218 C 54.080 324.245,54.109 324.108,53.988 323.914 C 53.868 323.719,54.049 323.474,54.391 323.369 C 56.122 322.837,57.848 321.703,57.663 321.220 C 57.542 320.907,57.611 320.799,57.840 320.941 C 58.046 321.068,58.447 320.939,58.731 320.654 C 59.016 320.370,59.414 320.137,59.616 320.137 C 59.818 320.137,59.983 320.000,59.983 319.832 C 59.983 319.663,60.375 319.428,60.854 319.307 C 61.333 319.187,61.649 318.967,61.557 318.817 C 61.465 318.668,61.691 318.287,62.061 317.970 C 62.830 317.312,63.217 317.218,62.874 317.773 C 62.746 317.981,63.045 317.887,63.540 317.563 C 64.034 317.239,64.439 316.765,64.439 316.509 C 64.439 316.238,64.652 316.127,64.953 316.243 C 65.259 316.360,65.467 316.246,65.467 315.960 C 65.467 315.696,65.968 315.331,66.581 315.149 C 67.206 314.963,67.654 314.619,67.601 314.367 C 67.549 314.119,67.647 314.003,67.819 314.110 C 67.991 314.216,68.314 314.082,68.538 313.813 C 68.762 313.543,69.174 313.411,69.454 313.518 C 69.779 313.643,70.031 313.458,70.148 313.007 C 70.272 312.536,70.513 312.370,70.873 312.508 C 71.272 312.661,71.356 312.566,71.193 312.142 C 71.024 311.701,71.168 311.568,71.819 311.568 C 72.284 311.568,72.665 311.405,72.665 311.205 C 72.665 311.005,72.511 310.937,72.322 311.054 C 72.134 311.170,71.979 311.102,71.979 310.903 C 71.979 310.703,72.259 310.540,72.600 310.540 C 72.942 310.540,73.542 310.241,73.935 309.875 C 74.327 309.509,74.719 309.281,74.805 309.367 C 75.307 309.869,77.806 307.821,77.806 306.908 C 77.806 306.581,77.910 306.416,78.036 306.542 C 78.162 306.668,78.547 306.515,78.892 306.203 C 79.268 305.863,79.520 305.794,79.520 306.031 C 79.520 306.249,79.829 306.117,80.207 305.739 C 80.585 305.361,81.511 304.785,82.264 304.459 C 83.017 304.133,83.633 303.739,83.633 303.584 C 83.633 303.428,83.455 303.412,83.238 303.546 C 82.992 303.698,82.935 303.640,83.086 303.395 C 83.221 303.177,83.532 302.999,83.779 302.999 C 84.025 302.999,84.612 302.696,85.084 302.325 C 85.555 301.954,86.063 301.761,86.213 301.896 C 86.363 302.032,86.381 301.961,86.254 301.738 C 86.119 301.503,86.311 301.243,86.713 301.116 C 87.093 300.995,87.404 300.771,87.404 300.617 C 87.404 300.331,88.719 299.804,89.229 299.886 C 89.384 299.911,89.424 299.791,89.318 299.619 C 89.212 299.447,89.384 299.096,89.701 298.839 C 90.191 298.442,90.234 298.444,89.987 298.853 C 89.784 299.190,89.823 299.257,90.116 299.076 C 90.347 298.933,90.458 298.616,90.364 298.371 C 90.259 298.097,90.415 297.961,90.769 298.019 C 91.461 298.131,92.269 297.557,92.009 297.137 C 91.907 296.972,92.043 296.922,92.312 297.024 C 92.580 297.127,92.891 296.971,93.004 296.678 C 93.117 296.384,93.445 296.144,93.734 296.144 C 94.023 296.144,94.259 295.903,94.259 295.608 C 94.259 295.263,94.506 295.111,94.954 295.180 C 95.416 295.251,95.791 295.001,96.075 294.430 C 96.377 293.825,96.833 293.541,97.628 293.464 C 98.247 293.405,98.839 293.135,98.942 292.865 C 99.046 292.595,99.341 292.374,99.597 292.374 C 99.854 292.374,99.988 292.175,99.895 291.933 C 99.796 291.674,100.003 291.472,100.397 291.442 C 101.271 291.376,102.828 290.350,102.828 289.840 C 102.828 289.162,103.984 288.427,104.884 288.532 C 105.506 288.605,105.611 288.545,105.267 288.313 C 104.895 288.061,104.964 287.938,105.594 287.739 C 106.035 287.599,106.606 287.274,106.864 287.016 C 107.122 286.758,107.553 286.547,107.822 286.547 C 108.092 286.547,108.312 286.320,108.312 286.043 C 108.312 285.737,108.513 285.617,108.826 285.737 C 109.109 285.846,109.344 285.802,109.348 285.641 C 109.352 285.479,109.674 284.961,110.063 284.490 C 110.452 284.019,110.671 283.826,110.549 284.062 C 110.115 284.902,110.938 284.472,111.677 283.473 C 112.144 282.842,112.623 282.531,112.941 282.653 C 113.223 282.761,113.453 282.704,113.453 282.525 C 113.453 282.347,114.068 281.906,114.820 281.546 C 115.572 281.186,116.189 280.698,116.191 280.463 C 116.194 280.227,116.499 280.034,116.870 280.034 C 117.329 280.034,117.482 279.870,117.348 279.520 C 117.221 279.189,117.355 279.006,117.724 279.006 C 118.040 279.006,118.803 278.620,119.421 278.149 C 120.039 277.678,120.732 277.292,120.961 277.292 C 121.191 277.292,121.267 277.113,121.129 276.891 C 120.963 276.622,121.068 276.562,121.452 276.709 C 121.824 276.852,122.022 276.753,122.022 276.425 C 122.022 276.148,122.254 275.921,122.536 275.921 C 122.819 275.921,123.051 275.690,123.051 275.407 C 123.051 275.124,123.166 274.911,123.308 274.933 C 124.313 275.092,124.820 274.847,124.612 274.304 C 124.487 273.979,124.494 273.823,124.627 273.955 C 124.759 274.088,125.049 273.948,125.271 273.645 C 125.493 273.342,126.075 273.093,126.563 273.093 C 127.222 273.093,127.400 272.957,127.250 272.566 C 127.111 272.204,127.182 272.122,127.476 272.303 C 127.740 272.466,128.100 272.289,128.414 271.839 C 128.695 271.439,129.051 271.189,129.205 271.284 C 129.359 271.380,129.556 271.185,129.643 270.853 C 129.730 270.520,130.115 270.224,130.499 270.195 C 130.883 270.167,131.846 269.525,132.640 268.770 C 133.467 267.983,134.290 267.478,134.569 267.585 C 134.906 267.714,134.990 267.603,134.843 267.219 C 134.726 266.915,134.763 266.654,134.925 266.638 C 136.397 266.495,136.790 266.327,137.532 265.527 C 137.999 265.023,138.583 264.610,138.828 264.610 C 139.074 264.610,139.163 264.498,139.026 264.362 C 138.889 264.225,139.247 263.955,139.821 263.762 C 140.394 263.569,140.876 263.256,140.891 263.068 C 140.927 262.631,142.235 261.896,143.004 261.880 C 143.327 261.874,143.759 261.555,143.964 261.173 C 144.169 260.789,144.508 260.584,144.720 260.715 C 144.970 260.870,145.027 260.754,144.885 260.382 C 144.742 260.009,144.841 259.811,145.169 259.811 C 145.446 259.811,145.673 259.580,145.673 259.297 C 145.673 258.955,146.015 258.783,146.701 258.783 C 147.377 258.783,147.729 258.611,147.729 258.280 C 147.729 257.973,147.930 257.854,148.243 257.974 C 148.569 258.099,148.757 257.969,148.757 257.620 C 148.757 257.261,149.056 257.069,149.614 257.069 C 150.393 257.069,150.648 256.736,150.498 255.913 C 150.468 255.749,150.681 255.705,150.971 255.817 C 151.299 255.943,151.500 255.829,151.500 255.516 C 151.500 255.056,151.921 254.857,152.636 254.980 C 153.151 255.068,154.469 253.811,154.323 253.371 C 154.243 253.131,154.308 252.964,154.467 253.000 C 154.947 253.108,155.963 252.560,155.792 252.284 C 155.705 252.143,156.037 252.104,156.531 252.199 C 157.176 252.322,157.356 252.253,157.172 251.955 C 157.009 251.692,157.180 251.470,157.635 251.351 C 158.031 251.247,158.355 250.949,158.355 250.688 C 158.355 250.428,158.509 250.195,158.698 250.171 C 158.886 250.148,159.200 250.109,159.396 250.086 C 159.591 250.062,159.897 249.811,160.076 249.529 C 160.255 249.246,160.403 249.160,160.406 249.337 C 160.409 249.515,160.608 249.390,160.849 249.061 C 161.090 248.732,161.515 248.429,161.794 248.388 C 162.527 248.280,163.872 247.277,163.621 247.026 C 163.504 246.908,163.813 246.628,164.309 246.402 C 164.804 246.176,165.210 245.862,165.210 245.703 C 165.210 245.545,165.539 245.416,165.942 245.416 C 166.344 245.416,167.017 245.045,167.436 244.593 C 167.855 244.141,168.477 243.717,168.818 243.651 C 169.506 243.517,169.950 242.674,169.331 242.674 C 169.116 242.674,169.035 242.828,169.152 243.016 C 169.268 243.205,169.187 243.359,168.972 243.359 C 168.757 243.359,168.646 243.166,168.727 242.931 C 168.807 242.695,169.278 242.518,169.773 242.538 C 170.268 242.558,170.585 242.432,170.478 242.258 C 170.297 241.966,171.415 241.486,171.927 241.636 C 172.050 241.672,172.414 241.302,172.734 240.814 C 173.054 240.326,173.427 240.036,173.561 240.171 C 173.696 240.305,173.897 240.067,174.009 239.640 C 174.125 239.195,174.400 238.936,174.652 239.034 C 174.895 239.127,175.178 238.981,175.282 238.710 C 175.386 238.439,175.669 238.220,175.910 238.223 C 176.218 238.227,176.195 238.328,175.835 238.560 C 175.445 238.813,175.432 238.894,175.782 238.898 C 176.035 238.901,176.320 238.605,176.415 238.241 C 176.518 237.848,176.783 237.654,177.069 237.764 C 177.358 237.875,177.549 237.729,177.549 237.397 C 177.549 237.094,177.704 236.847,177.892 236.847 C 178.081 236.847,178.235 236.615,178.235 236.332 C 178.235 235.990,178.578 235.818,179.263 235.818 C 179.939 235.818,180.291 235.646,180.291 235.315 C 180.291 235.018,180.493 234.889,180.784 235.001 C 181.056 235.105,181.546 234.877,181.874 234.493 C 182.202 234.110,182.595 233.874,182.748 233.969 C 182.901 234.063,182.924 233.875,182.800 233.552 C 182.662 233.193,182.710 233.048,182.924 233.180 C 183.116 233.299,183.783 233.021,184.404 232.562 C 185.026 232.103,185.650 231.799,185.791 231.886 C 186.054 232.049,186.613 231.050,186.515 230.591 C 186.485 230.450,186.577 230.352,186.718 230.375 C 187.567 230.509,188.188 230.290,187.967 229.933 C 187.801 229.664,187.906 229.604,188.290 229.751 C 188.659 229.893,188.860 229.796,188.860 229.477 C 188.860 229.174,189.064 229.063,189.388 229.187 C 189.679 229.299,189.892 229.255,189.862 229.091 C 189.720 228.315,189.933 227.878,190.371 228.046 C 190.636 228.148,191.123 227.932,191.454 227.567 C 191.785 227.201,192.131 226.978,192.223 227.070 C 192.315 227.163,192.779 226.819,193.254 226.307 C 193.729 225.794,194.284 225.358,194.488 225.336 C 195.956 225.182,195.918 225.202,195.373 224.850 C 194.957 224.581,195.006 224.517,195.630 224.513 C 196.084 224.509,196.401 224.296,196.401 223.993 C 196.401 223.710,196.594 223.461,196.829 223.439 C 197.065 223.418,197.489 223.379,197.772 223.354 C 198.055 223.328,198.288 223.049,198.291 222.732 C 198.293 222.415,198.433 222.030,198.603 221.875 C 198.778 221.714,198.805 221.777,198.664 222.022 C 198.511 222.287,198.621 222.451,198.951 222.451 C 199.245 222.451,199.486 222.169,199.486 221.824 C 199.486 221.394,199.728 221.205,200.257 221.224 C 200.681 221.239,200.993 221.068,200.950 220.844 C 200.904 220.607,201.155 220.491,201.549 220.567 C 201.972 220.648,202.228 220.511,202.228 220.203 C 202.228 219.931,202.485 219.709,202.799 219.709 C 203.113 219.709,203.269 219.607,203.145 219.483 C 202.784 219.122,203.601 218.360,204.131 218.563 C 204.396 218.665,205.088 218.272,205.674 217.686 C 206.259 217.102,206.888 216.624,207.073 216.624 C 207.258 216.624,207.300 216.446,207.165 216.228 C 207.015 215.986,207.071 215.925,207.309 216.073 C 207.800 216.376,209.085 215.709,209.078 215.155 C 209.075 214.888,208.942 214.923,208.709 215.253 C 208.386 215.710,208.361 215.710,208.486 215.253 C 208.563 214.970,208.799 214.739,209.011 214.739 C 209.223 214.739,209.635 214.430,209.926 214.053 L 210.456 213.368 210.256 214.053 C 210.069 214.692,210.089 214.698,210.546 214.144 C 210.815 213.817,211.137 213.650,211.259 213.773 C 211.382 213.896,211.482 213.771,211.482 213.495 C 211.482 213.219,212.177 212.708,213.025 212.358 C 213.873 212.008,214.567 211.591,214.567 211.431 C 214.567 211.271,214.799 211.140,215.081 211.140 C 215.364 211.140,215.596 210.979,215.596 210.783 C 215.596 210.586,215.914 210.085,216.302 209.669 C 216.961 208.963,216.994 208.958,216.788 209.597 C 216.593 210.201,216.652 210.186,217.280 209.475 C 217.702 208.996,218.208 208.749,218.519 208.868 C 219.126 209.101,219.810 207.688,219.491 206.858 C 219.266 206.273,218.680 206.155,218.680 206.696 C 218.680 206.938,218.474 206.940,218.028 206.702 C 217.138 206.225,61.048 206.211,60.326 206.687 C 58.849 207.661,62.561 207.706,138.557 207.624 C 194.430 207.564,216.314 207.646,216.417 207.915 C 216.763 208.816,214.057 209.807,213.304 209.054 C 213.114 208.864,182.773 208.773,136.587 208.825 L 60.185 208.912 59.975 209.769 C 59.781 210.556,59.745 210.523,59.519 209.361 C 59.384 208.665,59.373 207.701,59.494 207.219 C 59.691 206.436,59.619 206.350,58.820 206.417 C 58.167 206.471,57.926 206.683,57.926 207.204 M59.263 220.500 C 59.244 221.856,59.114 223.350,58.973 223.822 C 58.615 225.024,58.110 220.495,58.418 218.848 C 58.792 216.858,59.300 217.852,59.263 220.500 M191.602 225.536 C 191.602 225.724,191.371 225.878,191.088 225.878 C 190.805 225.878,190.574 225.724,190.574 225.536 C 190.574 225.347,190.805 225.193,191.088 225.193 C 191.371 225.193,191.602 225.347,191.602 225.536 M58.269 232.459 C 58.269 236.404,57.648 236.162,57.356 232.104 C 57.181 229.667,57.226 229.306,57.712 229.306 C 58.186 229.306,58.269 229.776,58.269 232.459 M175.150 236.789 C 175.150 237.236,174.742 237.533,174.411 237.328 C 174.057 237.109,174.362 236.504,174.827 236.504 C 175.005 236.504,175.150 236.632,175.150 236.789 M165.724 243.359 C 165.383 243.736,164.935 244.041,164.728 244.037 C 164.522 244.033,164.739 243.728,165.210 243.359 C 166.314 242.495,166.506 242.495,165.724 243.359 M162.503 245.860 C 162.064 246.300,161.617 245.960,161.943 245.433 C 162.069 245.229,162.329 245.159,162.521 245.277 C 162.756 245.422,162.750 245.614,162.503 245.860 M159.726 247.301 C 159.726 247.624,158.412 248.786,158.240 248.614 C 158.033 248.407,159.082 247.129,159.459 247.129 C 159.606 247.129,159.726 247.207,159.726 247.301 M153.027 252.637 C 152.919 252.813,152.608 252.956,152.336 252.956 C 151.729 252.956,151.701 253.363,152.271 253.936 C 152.614 254.282,152.580 254.323,152.099 254.140 C 151.350 253.854,151.338 253.361,152.060 252.563 C 152.611 251.954,153.412 252.015,153.027 252.637 M142.931 259.469 C 141.810 260.346,141.242 260.356,142.293 259.480 C 142.738 259.109,143.256 258.804,143.445 258.802 C 143.633 258.800,143.402 259.100,142.931 259.469 M56.320 263.959 C 56.190 265.644,55.997 266.540,55.829 266.240 C 55.457 265.574,55.366 261.545,55.699 260.494 L 55.967 259.651 56.250 260.418 C 56.406 260.839,56.437 262.433,56.320 263.959 M140.179 261.708 C 139.950 261.985,139.533 262.211,139.254 262.211 C 138.886 262.211,138.968 261.978,139.553 261.369 C 140.380 260.506,140.930 260.803,140.179 261.708 M130.371 268.547 C 130.515 268.924,130.341 269.038,129.703 268.985 C 128.914 268.920,128.891 268.875,129.438 268.476 C 130.177 267.935,130.135 267.932,130.371 268.547 M55.497 273.971 C 55.480 275.138,55.355 276.864,55.219 277.806 L 54.971 279.520 54.711 276.778 C 54.568 275.270,54.405 273.650,54.350 273.179 C 54.239 272.239,54.743 271.364,55.223 271.661 C 55.390 271.764,55.513 272.803,55.497 273.971 M114.110 279.720 C 113.718 280.113,113.305 280.343,113.193 280.231 C 113.081 280.119,113.286 279.802,113.650 279.527 C 114.635 278.782,114.926 278.904,114.110 279.720 M54.115 285.604 C 54.086 287.156,54.014 287.463,53.853 286.718 C 53.637 285.716,53.754 283.462,54.022 283.462 C 54.096 283.462,54.138 284.426,54.115 285.604 M105.570 285.861 C 104.905 286.291,104.542 286.291,104.542 285.861 C 104.542 285.673,104.889 285.521,105.313 285.524 C 105.936 285.528,105.986 285.593,105.570 285.861 M101.371 289.146 C 101.044 289.473,100.390 288.944,100.633 288.550 C 100.778 288.316,100.969 288.322,101.215 288.568 C 101.417 288.769,101.487 289.030,101.371 289.146 M53.470 304.884 C 53.470 306.087,53.337 307.154,53.174 307.255 C 52.802 307.485,52.388 304.124,52.661 303.089 C 53.030 301.688,53.470 302.666,53.470 304.884 M66.827 312.511 C 66.790 313.390,65.124 314.479,65.124 313.625 C 65.124 313.436,65.356 313.282,65.638 313.282 C 65.921 313.282,66.153 313.051,66.153 312.768 C 66.153 312.485,66.307 312.254,66.495 312.254 C 66.684 312.254,66.833 312.369,66.827 312.511 M52.583 317.737 C 52.357 320.924,52.260 321.440,51.943 321.123 C 51.700 320.880,51.473 314.672,51.679 313.884 C 52.209 311.860,52.816 314.449,52.583 317.737 M59.297 318.423 C 59.297 318.612,59.066 318.766,58.783 318.766 C 58.500 318.766,58.269 318.612,58.269 318.423 C 58.269 318.235,58.500 318.081,58.783 318.081 C 59.066 318.081,59.297 318.235,59.297 318.423 M53.463 322.148 C 53.443 322.719,52.178 323.969,51.967 323.627 C 51.512 322.891,52.107 321.574,52.812 321.759 C 53.174 321.853,53.467 322.029,53.463 322.148 " stroke="none" fill="#143484" fill-rule="evenodd"></path><path id="path2" d="M181.409 1.114 L 181.535 2.228 188.111 2.321 L 194.687 2.414 194.687 1.207 L 194.687 0.000 187.984 0.000 L 181.282 0.000 181.409 1.114 M76.709 16.022 C 78.273 16.086,80.741 16.085,82.193 16.021 C 83.645 15.957,82.365 15.905,79.349 15.906 C 76.332 15.906,75.144 15.959,76.709 16.022 M102.827 16.624 C 102.827 17.029,116.658 16.949,116.794 16.542 C 116.841 16.399,113.719 16.281,109.854 16.281 C 105.398 16.281,102.827 16.406,102.827 16.624 M166.307 17.050 C 167.947 17.113,170.723 17.113,172.476 17.051 C 174.230 16.988,172.888 16.937,169.494 16.937 C 166.101 16.936,164.667 16.987,166.307 17.050 M224.630 17.309 C 225.225 17.905,236.370 18.096,236.004 17.504 C 235.896 17.328,236.233 17.120,236.755 17.041 C 237.277 16.962,234.646 16.875,230.910 16.847 C 224.870 16.801,224.173 16.852,224.630 17.309 M238.859 17.574 C 239.005 17.720,242.121 17.796,245.783 17.745 L 252.442 17.651 245.518 17.480 C 241.709 17.386,238.713 17.428,238.859 17.574 M253.089 17.542 C 253.011 17.670,256.303 17.757,260.406 17.737 C 267.987 17.698,267.054 17.558,258.150 17.398 C 255.445 17.349,253.168 17.414,253.089 17.542 M283.902 17.350 C 284.018 17.466,287.022 17.535,290.576 17.504 C 294.522 17.469,297.418 17.591,298.013 17.817 C 298.872 18.144,298.936 18.126,298.552 17.663 C 298.186 17.222,296.964 17.138,290.903 17.138 C 286.936 17.138,283.786 17.233,283.902 17.350 M71.638 18.620 C 71.638 18.924,77.170 19.047,94.174 19.121 C 117.791 19.224,147.904 18.912,147.561 18.570 C 147.138 18.146,71.637 18.196,71.638 18.620 M342.609 19.161 C 342.344 19.589,342.736 21.251,343.102 21.251 C 343.471 21.251,343.757 20.427,343.647 19.678 C 343.542 18.964,342.921 18.655,342.609 19.161 M345.238 20.566 C 345.238 21.225,345.309 21.495,345.395 21.165 C 345.481 20.835,345.481 20.296,345.395 19.966 C 345.309 19.636,345.238 19.906,345.238 20.566 M343.181 26.050 C 343.181 26.710,343.252 26.979,343.338 26.650 C 343.424 26.320,343.424 25.780,343.338 25.450 C 343.252 25.120,343.181 25.390,343.181 26.050 M69.768 28.842 C 69.937 30.546,70.255 31.018,70.292 29.620 C 70.306 29.070,70.370 28.350,70.433 28.021 C 70.496 27.690,70.341 27.421,70.087 27.421 C 69.753 27.421,69.665 27.810,69.768 28.842 M342.981 29.038 C 342.619 31.230,342.722 43.873,343.102 43.873 C 343.548 43.873,343.559 43.612,343.469 35.135 C 343.389 27.607,343.333 26.910,342.981 29.038 M70.841 37.497 C 70.555 38.243,70.917 42.605,71.297 42.985 C 71.521 43.210,71.637 42.256,71.637 40.171 C 71.637 37.306,71.321 36.245,70.841 37.497 M69.750 48.331 C 69.633 48.521,69.650 49.871,69.788 51.330 C 69.926 52.790,70.030 54.437,70.018 54.989 C 69.976 57.047,70.527 54.969,70.761 52.186 C 71.051 48.735,70.589 46.974,69.750 48.331 M67.609 55.382 C 67.609 55.839,67.753 56.213,67.929 56.213 C 68.105 56.213,68.162 56.071,68.056 55.899 C 67.949 55.727,68.002 55.534,68.173 55.471 C 68.344 55.407,68.287 55.175,68.047 54.954 C 67.702 54.637,67.609 54.727,67.609 55.382 M69.340 61.354 C 69.340 62.391,69.404 62.815,69.483 62.296 C 69.561 61.778,69.561 60.930,69.483 60.411 C 69.404 59.893,69.340 60.317,69.340 61.354 M343.787 60.326 C 343.787 60.703,343.951 61.011,344.150 61.011 C 344.350 61.011,344.425 61.155,344.316 61.330 C 344.208 61.506,344.300 61.761,344.521 61.898 C 344.806 62.074,344.859 61.906,344.703 61.322 C 344.582 60.868,344.480 60.304,344.478 60.069 C 344.475 59.833,344.319 59.640,344.130 59.640 C 343.942 59.640,343.787 59.949,343.787 60.326 M341.951 63.999 C 341.550 68.353,341.585 93.564,341.992 93.971 C 342.266 94.245,342.435 93.993,342.613 93.046 C 342.839 91.843,342.513 62.022,342.272 61.781 C 342.213 61.722,342.068 62.720,341.951 63.999 M344.040 67.043 C 343.927 67.156,343.923 67.477,344.030 67.757 C 344.190 68.172,344.279 68.182,344.515 67.809 C 345.021 67.012,344.657 66.426,344.040 67.043 M344.034 73.807 C 343.688 74.689,343.727 76.015,344.107 76.249 C 344.624 76.569,344.757 76.012,344.511 74.550 C 344.337 73.514,344.220 73.333,344.034 73.807 M68.203 79.177 C 67.971 80.725,67.960 83.961,68.183 85.164 C 68.424 86.469,68.454 86.399,68.705 83.909 C 68.928 81.703,68.470 77.391,68.203 79.177 M343.894 82.776 C 343.896 83.907,343.960 84.329,344.036 83.713 C 344.112 83.097,344.111 82.171,344.032 81.656 C 343.954 81.141,343.892 81.645,343.894 82.776 M67.067 90.717 C 66.783 91.000,66.773 95.181,67.053 96.226 C 67.476 97.802,67.866 96.518,67.866 93.553 C 67.866 90.742,67.685 90.099,67.067 90.717 M343.894 92.374 C 343.896 93.505,343.960 93.926,344.036 93.310 C 344.112 92.694,344.111 91.769,344.032 91.254 C 343.954 90.738,343.892 91.243,343.894 92.374 M64.439 102.599 C 64.439 103.290,64.580 103.856,64.752 103.856 C 64.924 103.856,64.986 103.355,64.891 102.742 C 64.647 101.180,64.439 101.114,64.439 102.599 M343.726 102.853 C 343.653 103.622,343.714 104.325,343.862 104.416 C 344.009 104.507,344.130 103.879,344.130 103.019 C 344.130 101.079,343.904 100.986,343.726 102.853 M65.989 103.584 C 66.043 104.393,66.102 105.326,66.120 105.656 C 66.138 105.985,66.314 106.255,66.512 106.255 C 67.004 106.255,66.780 102.405,66.279 102.240 C 66.020 102.155,65.923 102.605,65.989 103.584 M64.348 108.860 C 64.235 108.972,64.236 109.306,64.349 109.601 C 64.485 109.956,64.419 110.054,64.154 109.890 C 63.934 109.754,63.753 109.819,63.753 110.034 C 63.753 110.758,64.610 110.149,64.649 109.397 C 64.691 108.597,64.662 108.546,64.348 108.860 M63.847 112.425 C 63.876 112.802,64.117 113.111,64.382 113.111 C 64.748 113.111,64.772 112.998,64.484 112.651 C 64.274 112.398,64.203 112.089,64.327 111.965 C 64.451 111.841,64.383 111.740,64.174 111.740 C 63.966 111.740,63.819 112.048,63.847 112.425 M343.691 113.347 C 343.594 113.854,343.644 114.587,343.801 114.975 C 344.015 115.504,344.092 115.273,344.109 114.053 C 344.133 112.241,343.959 111.947,343.691 113.347 M341.088 117.055 C 341.065 117.621,340.902 118.585,340.727 119.197 C 340.478 120.065,340.511 120.308,340.878 120.308 C 341.610 120.308,341.695 119.919,341.403 117.901 C 341.241 116.780,341.114 116.439,341.088 117.055 M343.267 118.261 C 343.437 119.176,343.332 119.676,342.834 120.318 C 342.472 120.784,342.246 121.366,342.331 121.612 C 342.536 122.202,343.419 121.074,343.434 120.203 C 343.440 119.862,343.587 119.670,343.761 119.778 C 343.942 119.890,343.926 119.421,343.725 118.684 C 343.262 116.989,342.981 116.729,343.267 118.261 M65.340 122.793 C 65.027 123.962,65.094 125.901,65.467 126.478 C 65.698 126.836,65.801 126.238,65.805 124.507 C 65.810 121.923,65.691 121.484,65.340 122.793 M339.175 123.370 C 338.941 123.748,339.481 124.158,339.798 123.841 C 340.124 123.515,340.063 123.051,339.695 123.051 C 339.517 123.051,339.283 123.194,339.175 123.370 M63.021 126.785 C 63.349 126.993,63.372 127.136,63.098 127.268 C 62.832 127.395,62.840 127.429,63.123 127.374 C 63.810 127.239,63.860 126.478,63.182 126.483 C 62.696 126.487,62.660 126.556,63.021 126.785 M65.299 129.215 C 65.150 129.456,65.236 129.763,65.499 129.925 C 66.123 130.311,66.285 130.082,65.889 129.373 C 65.644 128.936,65.496 128.896,65.299 129.215 M64.781 132.305 C 64.781 132.494,65.081 132.648,65.447 132.648 C 65.813 132.648,66.207 132.494,66.324 132.305 C 66.444 132.111,66.156 131.962,65.659 131.962 C 65.176 131.962,64.781 132.117,64.781 132.305 M59.494 207.218 C 59.373 207.701,59.384 208.665,59.519 209.361 C 59.745 210.523,59.781 210.556,59.975 209.769 L 60.185 208.912 136.587 208.825 C 182.773 208.773,213.114 208.864,213.304 209.054 C 214.057 209.807,216.763 208.816,216.417 207.915 C 216.314 207.646,194.430 207.564,138.557 207.624 C 62.587 207.706,58.845 207.661,60.326 206.689 C 60.772 206.396,60.766 206.351,60.277 206.346 C 59.957 206.343,59.620 206.719,59.494 207.218 M58.418 218.848 C 58.110 220.495,58.615 225.024,58.973 223.822 C 59.351 222.557,59.349 218.068,58.972 217.834 C 58.793 217.724,58.544 218.180,58.418 218.848 M190.574 225.536 C 190.574 225.724,190.805 225.878,191.088 225.878 C 191.371 225.878,191.602 225.724,191.602 225.536 C 191.602 225.347,191.371 225.193,191.088 225.193 C 190.805 225.193,190.574 225.347,190.574 225.536 M57.356 232.104 C 57.648 236.162,58.269 236.404,58.269 232.459 C 58.269 229.776,58.186 229.306,57.712 229.306 C 57.226 229.306,57.181 229.667,57.356 232.104 M178.235 236.361 C 178.235 236.966,178.973 236.861,179.185 236.225 C 179.259 236.001,179.076 235.818,178.777 235.818 C 178.479 235.818,178.235 236.063,178.235 236.361 M174.308 236.823 C 174.074 237.202,174.614 237.611,174.931 237.294 C 175.257 236.968,175.196 236.504,174.827 236.504 C 174.650 236.504,174.416 236.647,174.308 236.823 M174.122 239.407 C 174.122 239.712,174.323 239.833,174.634 239.713 C 174.916 239.605,175.061 239.379,174.956 239.210 C 174.657 238.726,174.122 238.852,174.122 239.407 M168.866 242.559 C 168.487 242.938,168.606 243.274,169.200 243.502 C 169.655 243.676,169.685 243.624,169.357 243.229 C 169.043 242.850,169.051 242.700,169.394 242.563 C 169.638 242.465,169.670 242.373,169.466 242.358 C 169.262 242.343,168.992 242.434,168.866 242.559 M165.210 243.359 C 164.739 243.728,164.522 244.033,164.728 244.037 C 164.935 244.041,165.383 243.736,165.724 243.359 C 166.506 242.495,166.314 242.495,165.210 243.359 M161.943 245.433 C 161.617 245.960,162.064 246.300,162.503 245.860 C 162.750 245.614,162.756 245.422,162.521 245.277 C 162.329 245.159,162.069 245.229,161.943 245.433 M158.630 247.786 C 158.321 248.147,158.146 248.520,158.240 248.614 C 158.412 248.786,159.726 247.624,159.726 247.301 C 159.726 246.918,159.159 247.169,158.630 247.786 M54.156 249.539 C 54.156 249.911,54.387 250.214,54.670 250.214 C 54.953 250.214,55.184 249.999,55.184 249.737 C 55.184 249.474,54.953 249.171,54.670 249.062 C 54.320 248.928,54.156 249.080,54.156 249.539 M152.060 252.563 C 151.338 253.361,151.350 253.854,152.099 254.140 C 152.580 254.323,152.614 254.282,152.271 253.936 C 151.701 253.363,151.729 252.956,152.336 252.956 C 152.938 252.956,153.340 252.390,152.922 252.131 C 152.756 252.028,152.367 252.223,152.060 252.563 M155.693 252.096 C 155.832 252.249,155.677 252.578,155.350 252.826 C 155.023 253.074,154.930 253.282,155.142 253.288 C 155.823 253.307,156.398 252.370,155.886 252.075 C 155.642 251.934,155.555 251.943,155.693 252.096 M142.293 259.480 C 141.242 260.356,141.810 260.346,142.931 259.469 C 143.402 259.100,143.633 258.800,143.445 258.802 C 143.256 258.804,142.738 259.109,142.293 259.480 M145.673 259.339 C 145.673 259.815,145.759 259.829,146.272 259.436 C 146.602 259.184,146.937 258.934,147.015 258.880 C 147.094 258.827,146.824 258.783,146.415 258.783 C 145.959 258.783,145.673 258.997,145.673 259.339 M55.699 260.494 C 55.366 261.545,55.457 265.574,55.829 266.240 C 56.211 266.922,56.611 261.393,56.250 260.418 L 55.967 259.651 55.699 260.494 M139.553 261.369 C 138.968 261.978,138.886 262.211,139.254 262.211 C 139.858 262.211,140.645 261.347,140.478 260.866 C 140.413 260.680,139.997 260.906,139.553 261.369 M53.642 264.023 C 53.286 264.454,53.065 266.158,53.410 265.813 C 53.517 265.706,53.637 265.430,53.676 265.200 C 53.715 264.970,53.855 264.512,53.988 264.182 C 54.267 263.489,54.133 263.428,53.642 264.023 M129.438 268.476 C 128.891 268.875,128.914 268.920,129.703 268.985 C 130.341 269.038,130.515 268.924,130.371 268.547 C 130.135 267.932,130.177 267.935,129.438 268.476 M54.584 271.898 C 54.400 272.131,54.294 272.708,54.350 273.179 C 54.405 273.650,54.568 275.270,54.711 276.778 L 54.971 279.520 55.219 277.806 C 55.807 273.742,55.486 270.754,54.584 271.898 M52.428 276.110 C 52.064 276.549,52.086 276.740,52.557 277.211 C 52.920 277.574,53.128 277.630,53.128 277.366 C 53.128 277.137,52.973 276.949,52.785 276.949 C 52.596 276.949,52.442 276.786,52.442 276.586 C 52.442 276.387,52.596 276.319,52.785 276.435 C 52.973 276.552,53.128 276.407,53.128 276.113 C 53.128 275.441,52.983 275.441,52.428 276.110 M52.290 278.290 C 52.016 278.732,52.453 279.726,52.821 279.498 C 52.990 279.394,53.128 279.154,53.128 278.966 C 53.128 278.777,52.947 278.734,52.727 278.871 C 52.457 279.037,52.397 278.932,52.545 278.548 C 52.778 277.940,52.611 277.770,52.290 278.290 M113.650 279.527 C 113.286 279.802,113.081 280.119,113.193 280.231 C 113.305 280.343,113.718 280.113,114.110 279.720 C 114.926 278.904,114.635 278.782,113.650 279.527 M117.224 279.329 C 117.224 279.903,117.832 280.045,118.034 279.518 C 118.153 279.207,118.033 279.006,117.727 279.006 C 117.450 279.006,117.224 279.151,117.224 279.329 M53.760 284.576 C 53.689 285.189,53.731 286.153,53.853 286.718 C 54.014 287.463,54.086 287.156,54.115 285.604 C 54.159 283.305,53.969 282.757,53.760 284.576 M104.542 285.861 C 104.542 286.291,104.905 286.291,105.570 285.861 C 105.986 285.593,105.936 285.528,105.313 285.524 C 104.889 285.521,104.542 285.673,104.542 285.861 M100.633 288.550 C 100.514 288.742,100.584 289.002,100.788 289.128 C 101.315 289.454,101.655 289.008,101.215 288.568 C 100.969 288.322,100.778 288.316,100.633 288.550 M51.547 290.008 C 51.574 290.529,51.721 291.082,51.876 291.236 C 52.030 291.390,52.125 291.362,52.087 291.174 C 52.049 290.985,52.048 290.754,52.084 290.660 C 52.409 289.819,52.350 289.060,51.960 289.060 C 51.674 289.060,51.518 289.420,51.547 290.008 M51.186 293.939 C 51.073 294.235,51.164 294.659,51.389 294.882 C 51.704 295.195,51.742 295.143,51.556 294.653 C 51.406 294.259,51.495 293.903,51.792 293.715 C 52.150 293.489,52.160 293.411,51.832 293.407 C 51.590 293.404,51.300 293.644,51.186 293.939 M51.224 296.517 C 51.097 296.722,51.164 297.031,51.372 297.205 C 51.581 297.379,51.676 297.418,51.585 297.292 C 51.494 297.167,51.592 296.857,51.802 296.604 C 52.062 296.290,52.068 296.144,51.819 296.144 C 51.618 296.144,51.351 296.312,51.224 296.517 M89.091 299.486 L 88.260 300.428 89.143 299.654 C 89.628 299.228,90.154 298.997,90.312 299.140 C 90.469 299.283,90.487 299.207,90.352 298.972 C 90.027 298.408,90.050 298.398,89.091 299.486 M52.661 303.089 C 52.388 304.124,52.802 307.485,53.174 307.255 C 53.565 307.013,53.558 302.751,53.167 302.509 C 53.000 302.406,52.772 302.667,52.661 303.089 M78.835 306.255 C 78.478 306.684,78.526 306.769,79.125 306.769 C 79.621 306.769,79.781 306.611,79.644 306.255 C 79.536 305.973,79.405 305.741,79.354 305.741 C 79.303 305.741,79.069 305.973,78.835 306.255 M71.979 310.903 C 71.979 311.102,72.121 311.179,72.293 311.072 C 72.465 310.966,72.685 311.072,72.780 311.309 C 72.885 311.569,72.964 311.502,72.981 311.140 C 72.996 310.810,72.776 310.540,72.494 310.540 C 72.211 310.540,71.979 310.703,71.979 310.903 M66.153 312.768 C 66.153 313.051,65.921 313.282,65.638 313.282 C 65.356 313.282,65.124 313.436,65.124 313.625 C 65.124 314.174,65.866 314.020,66.361 313.368 C 66.910 312.644,66.957 312.254,66.495 312.254 C 66.307 312.254,66.153 312.485,66.153 312.768 M51.679 313.884 C 51.473 314.672,51.700 320.880,51.943 321.123 C 52.577 321.757,52.961 314.682,52.338 313.831 C 51.875 313.197,51.858 313.198,51.679 313.884 M49.587 317.538 C 49.484 317.805,49.622 318.109,49.893 318.213 C 50.218 318.338,50.386 318.173,50.386 317.727 C 50.386 316.947,49.861 316.823,49.587 317.538 M61.914 318.083 C 61.288 318.714,61.294 318.723,62.164 318.490 C 62.654 318.359,63.069 318.102,63.087 317.918 C 63.143 317.336,62.576 317.416,61.914 318.083 M58.269 318.423 C 58.269 318.612,58.500 318.766,58.783 318.766 C 59.066 318.766,59.297 318.612,59.297 318.423 C 59.297 318.235,59.066 318.081,58.783 318.081 C 58.500 318.081,58.269 318.235,58.269 318.423 M51.945 322.420 C 51.621 323.710,52.102 324.125,52.826 323.183 C 53.623 322.146,53.622 321.970,52.812 321.759 C 52.328 321.632,52.099 321.807,51.945 322.420 M53.491 324.057 C 52.710 324.888,52.710 324.891,53.445 324.699 C 53.851 324.593,54.102 324.425,54.003 324.326 C 53.905 324.227,54.091 323.943,54.418 323.695 C 54.745 323.447,54.847 323.239,54.644 323.233 C 54.441 323.227,53.922 323.598,53.491 324.057 M49.357 324.507 C 49.357 324.671,49.581 325.104,49.854 325.470 C 50.334 326.112,50.345 326.108,50.156 325.359 C 49.961 324.585,49.357 323.942,49.357 324.507 M181.631 340.446 C 181.614 340.493,181.528 341.033,181.441 341.645 L 181.282 342.759 187.984 342.759 L 194.687 342.759 194.687 341.560 L 194.687 340.360 188.175 340.360 C 184.593 340.360,181.648 340.398,181.631 340.446 " stroke="none" fill="#14348c" fill-rule="evenodd"></path></g></svg>