<svg id="svg" version="1.1" xmlns="http://www.w3.org/2000/svg" xmlns:xlink="http://www.w3.org/1999/xlink" width="400" height="447.05882352941177" viewBox="0, 0, 400,447.05882352941177"><g id="svgg"><path id="path0" d="M382.582 62.000 C 382.582 70.470,382.635 73.935,382.699 69.700 C 382.764 65.465,382.764 58.535,382.699 54.300 C 382.635 50.065,382.582 53.530,382.582 62.000 M0.400 134.976 C 0.400 163.463,0.537 178.438,0.800 178.600 C 1.020 178.736,1.200 178.651,1.200 178.411 C 1.200 178.171,1.515 177.859,1.900 177.718 C 2.285 177.576,5.057 175.782,8.060 173.730 C 11.062 171.679,13.618 170.000,13.739 170.000 C 13.860 170.000,14.444 169.550,15.038 169.000 C 15.631 168.450,16.286 168.000,16.492 168.000 C 16.698 168.000,19.357 166.290,22.400 164.200 C 25.443 162.110,28.083 160.397,28.267 160.393 C 28.450 160.389,29.024 159.939,29.542 159.393 C 30.060 158.847,30.660 158.400,30.875 158.400 C 31.091 158.400,33.757 156.690,36.800 154.600 C 39.843 152.510,42.502 150.800,42.708 150.800 C 42.914 150.800,43.569 150.350,44.162 149.800 C 44.756 149.250,45.337 148.800,45.454 148.800 C 45.571 148.800,48.157 147.090,51.200 145.000 C 54.243 142.910,56.902 141.200,57.108 141.200 C 57.314 141.200,57.969 140.750,58.562 140.200 C 59.156 139.650,59.737 139.200,59.854 139.200 C 59.971 139.200,62.557 137.490,65.600 135.400 C 68.643 133.310,71.259 131.600,71.413 131.600 C 71.567 131.600,72.527 130.996,73.546 130.257 C 77.192 127.616,85.139 122.400,85.517 122.400 C 85.729 122.400,86.129 122.126,86.407 121.791 C 86.687 121.454,87.230 121.283,87.623 121.407 C 88.013 121.531,88.430 121.475,88.549 121.283 C 88.668 121.091,88.548 120.932,88.282 120.930 C 88.017 120.927,87.395 120.795,86.900 120.636 C 86.312 120.447,86.000 120.509,86.000 120.817 C 86.000 121.077,85.685 120.928,85.300 120.487 C 84.685 119.783,79.098 117.741,78.300 117.929 C 78.135 117.968,78.000 117.842,78.000 117.649 C 78.000 117.455,77.325 117.115,76.500 116.891 C 73.311 116.028,64.180 113.102,63.800 112.821 C 63.580 112.659,61.240 111.859,58.600 111.043 C 55.960 110.228,52.540 109.104,51.000 108.546 C 49.460 107.989,45.431 106.659,42.047 105.593 C 38.664 104.526,35.064 103.301,34.047 102.871 C 33.031 102.441,29.320 101.225,25.800 100.168 C 22.280 99.112,19.310 98.122,19.200 97.968 C 19.090 97.815,15.940 96.751,12.200 95.603 C 8.460 94.455,5.220 93.381,5.000 93.215 C 4.658 92.957,0.901 91.600,0.529 91.600 C 0.458 91.600,0.400 111.119,0.400 134.976 M307.722 122.257 C 307.460 122.364,307.359 122.755,307.497 123.126 C 307.717 123.714,307.663 123.730,307.075 123.251 C 306.572 122.842,306.400 122.827,306.400 123.194 C 306.400 123.464,306.148 123.589,305.839 123.470 C 305.531 123.352,305.166 123.367,305.029 123.505 C 304.892 123.642,304.435 123.807,304.014 123.871 C 303.593 123.935,301.482 124.563,299.324 125.265 C 297.166 125.968,295.075 126.601,294.679 126.672 C 294.282 126.743,293.472 127.050,292.879 127.355 C 292.285 127.659,289.010 128.765,285.600 129.812 C 282.190 130.860,278.950 131.956,278.400 132.250 C 277.850 132.543,274.340 133.712,270.600 134.848 C 266.860 135.983,263.690 137.083,263.555 137.291 C 263.421 137.498,263.241 137.612,263.155 137.544 C 263.070 137.476,261.920 137.796,260.600 138.255 C 259.280 138.714,256.490 139.593,254.400 140.207 C 252.310 140.822,249.306 141.838,247.725 142.466 C 246.144 143.093,242.636 144.250,239.931 145.036 C 237.225 145.822,234.289 146.790,233.406 147.186 C 232.523 147.582,229.010 148.757,225.600 149.796 C 222.190 150.835,219.310 151.807,219.200 151.956 C 219.090 152.106,216.660 152.926,213.800 153.779 C 207.794 155.571,201.270 157.921,200.400 158.606 C 200.070 158.866,164.610 170.792,121.600 185.108 C 78.590 199.425,42.680 211.444,41.800 211.818 L 40.200 212.498 41.171 213.149 C 41.704 213.507,44.854 214.744,48.171 215.897 C 51.487 217.051,54.650 218.244,55.200 218.549 C 55.750 218.853,57.640 219.586,59.400 220.176 C 63.792 221.649,67.943 223.163,69.508 223.861 C 70.227 224.182,73.082 225.240,75.853 226.211 C 78.623 227.182,81.095 228.143,81.345 228.347 C 81.595 228.550,82.430 228.900,83.200 229.123 C 85.763 229.866,92.973 232.471,95.000 233.387 C 96.100 233.883,97.450 234.420,98.000 234.580 C 99.507 235.017,106.433 237.561,107.800 238.180 C 108.460 238.479,111.700 239.663,115.000 240.812 C 118.300 241.960,121.200 243.059,121.444 243.252 C 121.688 243.446,122.678 243.855,123.644 244.162 C 127.207 245.293,133.812 247.696,134.200 248.001 C 134.607 248.322,143.044 251.340,145.600 252.078 C 146.370 252.301,147.205 252.650,147.455 252.853 C 147.705 253.057,150.177 254.018,152.947 254.989 C 155.718 255.960,158.573 257.018,159.292 257.339 C 160.949 258.078,165.188 259.632,169.733 261.165 C 171.676 261.820,173.476 262.517,173.733 262.714 C 173.990 262.911,176.990 264.033,180.400 265.208 C 183.810 266.383,186.960 267.559,187.400 267.823 C 187.840 268.086,190.720 269.160,193.800 270.210 C 196.880 271.259,199.490 272.234,199.600 272.375 C 199.710 272.516,200.430 272.831,201.200 273.074 C 204.301 274.053,212.674 277.112,213.412 277.536 C 214.209 277.994,217.182 279.064,223.882 281.304 C 225.907 281.981,227.480 282.670,227.378 282.836 C 227.062 283.347,234.162 281.289,236.600 280.163 C 237.260 279.859,240.736 278.710,244.325 277.611 C 247.914 276.513,251.424 275.352,252.125 275.031 C 252.826 274.710,256.460 273.506,260.200 272.354 C 263.940 271.202,267.090 270.150,267.200 270.015 C 267.361 269.818,277.306 266.626,280.600 265.714 C 281.040 265.592,281.490 265.363,281.600 265.205 C 281.710 265.047,284.950 263.969,288.800 262.809 C 292.650 261.649,295.890 260.569,296.000 260.409 C 296.110 260.249,299.350 259.169,303.200 258.009 C 307.050 256.849,310.290 255.771,310.400 255.614 C 310.510 255.457,314.020 254.286,318.200 253.012 C 322.380 251.739,325.890 250.578,326.000 250.433 C 326.110 250.287,328.810 249.378,332.000 248.411 C 335.190 247.445,338.520 246.336,339.400 245.947 C 340.706 245.369,350.694 242.139,353.800 241.289 C 354.240 241.169,354.690 240.945,354.800 240.792 C 354.910 240.638,356.530 240.055,358.400 239.496 C 364.709 237.608,370.199 235.827,370.400 235.602 C 370.510 235.479,371.680 235.055,373.000 234.661 C 377.956 233.179,383.040 231.513,384.200 230.989 C 384.860 230.692,388.460 229.503,392.200 228.347 C 395.940 227.192,399.226 226.023,399.502 225.749 C 399.899 225.357,399.983 218.178,399.902 191.580 L 399.800 157.907 396.600 156.815 C 394.840 156.215,392.590 155.354,391.600 154.902 C 390.610 154.450,387.456 153.275,384.592 152.292 C 381.728 151.308,378.518 150.109,377.460 149.627 C 376.402 149.145,373.075 147.927,370.068 146.919 C 367.061 145.912,364.402 144.934,364.161 144.746 C 363.920 144.557,361.476 143.616,358.731 142.654 C 355.986 141.691,353.124 140.626,352.370 140.286 C 351.617 139.945,349.380 139.100,347.400 138.408 C 339.866 135.772,338.978 135.441,338.200 134.981 C 337.760 134.721,334.610 133.555,331.200 132.391 C 327.790 131.227,324.640 130.052,324.200 129.780 C 323.760 129.508,320.912 128.449,317.870 127.428 C 314.829 126.406,312.039 125.401,311.670 125.195 C 311.302 124.989,310.312 124.549,309.470 124.218 C 308.218 123.725,307.987 123.470,308.197 122.808 C 308.338 122.364,308.397 122.014,308.327 122.032 C 308.257 122.049,307.985 122.151,307.722 122.257 " stroke="none" fill="#2ca3d3" fill-rule="evenodd"></path><path id="path1" d="M39.175 0.142 C 39.079 0.229,37.470 0.401,35.600 0.525 C 33.730 0.648,30.670 1.136,28.800 1.609 C 26.930 2.083,24.950 2.568,24.400 2.688 C 23.850 2.809,23.220 3.038,23.000 3.199 C 22.780 3.359,22.098 3.610,21.484 3.757 C 20.788 3.923,20.474 4.196,20.649 4.480 C 20.836 4.781,20.705 4.849,20.266 4.681 C 19.900 4.540,19.598 4.554,19.595 4.713 C 19.593 4.871,18.873 5.344,17.995 5.764 C 17.118 6.185,16.400 6.680,16.400 6.864 C 16.400 7.049,16.130 7.200,15.800 7.200 C 15.470 7.200,15.200 7.380,15.200 7.600 C 15.200 7.820,14.913 8.000,14.563 8.000 C 13.902 8.000,8.800 13.025,8.800 13.677 C 8.800 13.880,8.619 13.935,8.397 13.798 C 8.176 13.661,7.875 13.876,7.730 14.275 C 7.379 15.237,5.134 18.564,4.721 18.734 C 4.542 18.808,4.497 19.033,4.621 19.234 C 4.745 19.435,4.646 19.600,4.400 19.600 C 4.154 19.600,4.044 19.748,4.156 19.928 C 4.267 20.109,3.989 20.864,3.538 21.606 C 2.622 23.112,1.387 26.737,1.035 28.948 C 0.909 29.744,0.652 31.076,0.465 31.908 C -1.207 39.349,1.774 60.800,4.480 60.800 C 4.682 60.800,4.743 60.969,4.615 61.175 C 4.488 61.382,4.612 61.697,4.892 61.875 C 5.440 62.226,6.117 63.212,6.898 64.800 C 7.168 65.350,8.109 66.520,8.989 67.400 C 9.870 68.280,10.548 69.132,10.497 69.292 C 10.447 69.453,10.899 69.891,11.503 70.264 C 12.106 70.638,12.780 71.137,13.000 71.372 C 13.220 71.607,14.300 72.421,15.400 73.179 C 16.500 73.938,17.490 74.666,17.600 74.797 C 17.811 75.048,24.185 77.600,24.602 77.600 C 24.735 77.600,25.667 77.975,26.673 78.433 C 27.679 78.892,28.875 79.169,29.330 79.050 C 29.786 78.931,30.350 78.992,30.583 79.186 C 31.692 80.106,46.664 80.521,47.746 79.661 C 47.996 79.463,48.605 79.367,49.100 79.448 C 49.595 79.529,50.000 79.422,50.000 79.210 C 50.000 78.998,50.252 78.922,50.560 79.040 C 50.867 79.158,51.233 79.070,51.372 78.845 C 51.512 78.619,51.874 78.530,52.177 78.646 C 52.480 78.763,53.282 78.571,53.960 78.221 C 54.637 77.870,55.291 77.606,55.413 77.633 C 56.581 77.895,58.000 76.599,57.807 75.448 C 57.692 74.762,57.420 73.030,57.201 71.600 C 56.983 70.170,56.737 68.640,56.654 68.200 C 56.571 67.760,56.358 66.500,56.181 65.400 C 56.004 64.300,55.824 63.265,55.780 63.100 C 55.736 62.935,55.678 62.241,55.650 61.557 C 55.609 60.542,55.472 60.366,54.900 60.596 C 54.515 60.751,53.930 60.936,53.600 61.008 C 53.270 61.080,52.910 61.174,52.800 61.217 C 52.690 61.260,52.465 61.273,52.300 61.247 C 52.135 61.221,52.000 61.350,52.000 61.533 C 52.000 61.717,51.775 61.882,51.500 61.901 C 51.225 61.920,50.550 62.055,50.000 62.200 C 49.450 62.345,48.730 62.474,48.400 62.487 C 48.070 62.499,47.577 62.685,47.305 62.899 C 47.033 63.114,46.358 63.176,45.805 63.037 C 45.252 62.898,44.800 62.948,44.800 63.148 C 44.800 63.690,36.598 63.217,35.631 62.619 C 35.177 62.338,33.733 61.959,32.900 61.901 C 32.625 61.882,32.400 61.717,32.400 61.533 C 32.400 61.350,32.062 61.200,31.649 61.200 C 31.236 61.200,30.674 60.930,30.400 60.600 C 30.126 60.270,29.669 60.000,29.384 60.000 C 29.098 60.000,28.271 59.370,27.544 58.600 C 26.818 57.830,25.994 57.200,25.712 57.200 C 25.430 57.200,25.200 57.012,25.200 56.783 C 25.200 56.554,24.828 55.969,24.373 55.483 C 23.227 54.259,21.835 51.380,21.240 49.005 C 20.966 47.908,20.529 46.876,20.270 46.711 C 19.910 46.482,19.911 46.411,20.272 46.406 C 20.607 46.402,20.643 46.049,20.398 45.193 C 19.916 43.514,19.936 43.748,19.988 40.400 C 20.031 37.601,20.266 33.925,20.422 33.600 C 20.475 33.490,20.549 33.130,20.585 32.800 C 20.660 32.132,21.613 29.888,22.930 27.277 C 24.538 24.092,24.842 23.600,25.204 23.600 C 25.402 23.600,25.999 23.195,26.530 22.700 C 28.113 21.226,29.474 20.209,30.051 20.068 C 30.349 19.995,30.684 19.815,30.796 19.668 C 32.356 17.618,41.642 16.358,47.504 17.401 C 50.745 17.978,54.400 19.161,54.400 19.633 C 54.400 20.166,55.464 19.626,55.485 19.083 C 55.506 18.503,56.655 11.416,57.427 7.107 C 58.171 2.948,57.649 2.311,52.738 1.384 C 52.222 1.286,51.411 1.129,50.936 1.033 C 48.323 0.509,39.508 -0.160,39.175 0.142 M79.400 1.316 C 77.860 1.775,76.510 2.251,76.400 2.375 C 76.290 2.499,76.020 2.607,75.800 2.615 C 74.872 2.651,71.756 3.814,71.240 4.317 C 70.933 4.617,70.348 4.775,69.940 4.669 C 69.533 4.562,69.200 4.630,69.200 4.819 C 69.200 5.009,68.568 5.282,67.796 5.427 C 67.023 5.572,66.291 5.853,66.168 6.052 C 66.045 6.251,65.777 6.309,65.572 6.183 C 65.344 6.042,65.200 19.769,65.200 41.776 L 65.200 77.600 74.100 77.600 L 83.000 77.600 83.053 60.100 C 83.111 41.037,83.119 40.800,83.642 40.800 C 83.839 40.800,84.000 40.446,84.000 40.014 C 84.000 38.883,86.221 36.516,87.827 35.936 C 88.582 35.663,89.200 35.320,89.200 35.175 C 89.200 35.030,89.677 35.002,90.259 35.113 C 90.842 35.225,91.219 35.155,91.098 34.958 C 90.976 34.761,91.309 34.600,91.838 34.600 C 92.367 34.600,92.800 34.743,92.800 34.918 C 92.800 35.092,93.025 35.203,93.300 35.163 C 94.102 35.048,97.199 36.479,96.965 36.856 C 96.848 37.045,97.038 37.200,97.386 37.200 C 97.869 37.200,98.926 38.865,98.844 39.494 C 98.837 39.546,99.087 40.314,99.400 41.200 C 100.091 43.160,100.000 40.234,100.000 60.400 L 100.000 77.600 108.900 77.600 L 117.800 77.599 117.800 58.700 C 117.800 46.562,117.657 39.695,117.400 39.506 C 117.154 39.326,117.198 39.210,117.514 39.206 C 117.875 39.202,117.920 38.991,117.666 38.500 C 117.467 38.115,117.355 37.485,117.417 37.100 C 117.479 36.715,117.390 36.400,117.220 36.400 C 117.050 36.400,116.810 35.545,116.685 34.500 C 116.561 33.455,116.177 32.060,115.832 31.400 C 115.487 30.740,115.204 29.885,115.202 29.500 C 115.201 29.115,115.009 28.800,114.776 28.800 C 114.543 28.800,114.464 28.620,114.600 28.400 C 114.736 28.180,114.657 28.000,114.424 28.000 C 114.191 28.000,114.000 27.722,114.000 27.382 C 114.000 27.042,113.550 26.314,113.000 25.764 C 112.450 25.214,112.000 24.632,112.000 24.471 C 112.000 24.067,110.480 22.800,109.995 22.800 C 109.778 22.800,109.600 22.647,109.600 22.461 C 109.600 22.004,107.133 20.952,104.200 20.158 C 97.743 18.409,88.679 20.729,84.518 25.195 L 82.836 27.000 82.818 13.700 C 82.808 6.385,82.665 0.418,82.500 0.441 C 82.335 0.464,80.940 0.857,79.400 1.316 M150.000 19.188 C 150.000 19.353,149.055 19.592,147.900 19.718 C 144.364 20.106,138.708 22.174,137.915 23.370 C 137.758 23.606,137.443 23.823,137.215 23.850 C 136.987 23.878,136.590 23.922,136.333 23.950 C 136.077 23.978,135.988 24.121,136.136 24.269 C 136.283 24.417,135.718 25.002,134.878 25.569 C 131.592 27.788,127.740 33.598,126.957 37.516 C 126.816 38.222,126.562 38.800,126.393 38.800 C 124.879 38.800,124.587 54.884,126.033 58.686 C 126.224 59.189,126.274 59.600,126.144 59.600 C 126.014 59.600,126.170 60.005,126.489 60.500 C 126.809 60.995,127.401 62.300,127.805 63.400 C 129.112 66.964,136.400 76.484,136.400 74.628 C 136.400 74.426,136.805 74.623,137.300 75.066 C 138.313 75.971,141.328 77.423,143.056 77.836 C 143.685 77.987,144.409 78.275,144.665 78.475 C 145.227 78.916,146.996 79.317,148.500 79.346 C 149.105 79.357,149.600 79.488,149.600 79.636 C 149.600 79.784,150.185 79.902,150.900 79.896 C 151.615 79.891,153.550 79.983,155.200 80.099 C 156.850 80.216,159.640 80.153,161.400 79.959 C 163.160 79.765,165.185 79.610,165.900 79.616 C 166.615 79.621,167.200 79.464,167.200 79.268 C 167.200 79.071,167.650 78.959,168.200 79.020 C 168.750 79.080,169.200 78.935,169.200 78.698 C 169.200 78.461,169.310 78.376,169.444 78.510 C 169.639 78.705,174.294 77.177,177.630 75.824 C 178.240 75.576,177.518 68.657,176.814 68.000 C 176.696 67.890,176.571 67.350,176.536 66.800 C 176.478 65.886,176.196 64.495,175.970 64.000 C 175.816 63.664,175.695 63.034,175.646 62.321 C 175.597 61.599,173.315 62.056,172.755 62.900 C 172.621 63.102,172.396 63.253,172.255 63.234 C 171.376 63.117,170.708 63.241,170.945 63.478 C 171.674 64.207,163.665 65.612,158.700 65.626 C 150.708 65.649,144.834 62.115,143.851 56.691 L 143.653 55.600 161.778 55.600 C 180.272 55.600,181.018 55.543,180.767 54.142 C 180.733 53.954,180.750 53.710,180.805 53.600 C 181.096 53.018,181.043 45.600,180.748 45.600 C 180.557 45.600,180.400 45.409,180.400 45.176 C 180.400 44.943,180.625 44.888,180.900 45.053 C 181.291 45.288,181.289 45.217,180.893 44.727 C 180.614 44.383,180.499 43.806,180.638 43.446 C 180.776 43.085,180.709 42.567,180.488 42.295 C 180.267 42.023,179.990 41.080,179.871 40.200 C 179.518 37.569,179.188 36.289,178.410 34.531 C 178.004 33.612,177.776 32.757,177.903 32.631 C 178.030 32.504,177.923 32.400,177.667 32.400 C 177.410 32.400,177.245 32.248,177.300 32.063 C 177.415 31.674,174.224 27.237,172.419 25.275 C 171.749 24.547,171.200 24.092,171.200 24.264 C 171.200 24.437,170.920 24.178,170.577 23.689 C 170.235 23.200,169.719 22.800,169.431 22.800 C 169.143 22.800,168.479 22.477,167.954 22.082 C 167.429 21.688,165.920 21.037,164.600 20.637 C 163.280 20.237,161.940 19.705,161.623 19.455 C 161.161 19.091,161.113 19.120,161.382 19.600 C 161.645 20.070,161.608 20.099,161.210 19.731 C 160.931 19.473,160.454 19.358,160.151 19.474 C 159.848 19.590,159.600 19.523,159.600 19.324 C 159.600 19.125,157.440 18.945,154.800 18.925 C 152.160 18.904,150.000 19.022,150.000 19.188 M306.650 19.282 C 306.747 19.438,306.180 19.484,305.389 19.383 C 304.599 19.282,304.050 19.357,304.169 19.549 C 304.288 19.742,303.624 20.038,302.693 20.206 C 300.386 20.623,300.397 20.620,298.693 21.334 C 297.864 21.681,297.054 21.993,296.893 22.027 C 296.453 22.119,294.464 23.579,293.268 24.687 C 292.688 25.225,291.760 25.934,291.206 26.261 C 290.274 26.813,288.221 29.464,286.800 31.950 C 286.470 32.527,286.070 33.097,285.912 33.216 C 285.144 33.792,283.238 40.511,283.214 42.724 C 283.206 43.452,283.050 43.955,282.867 43.841 C 282.684 43.728,282.537 44.573,282.540 45.718 C 282.544 46.863,282.404 48.228,282.230 48.750 C 282.040 49.323,282.064 49.608,282.290 49.468 C 282.497 49.340,282.667 49.497,282.667 49.818 C 282.667 50.138,282.481 50.400,282.253 50.400 C 281.983 50.400,281.992 50.552,282.277 50.837 C 282.524 51.084,282.623 51.951,282.505 52.833 C 282.370 53.842,282.491 54.633,282.848 55.073 C 283.219 55.531,283.236 55.655,282.900 55.453 C 282.309 55.098,282.267 55.354,282.760 56.305 C 282.958 56.687,283.619 58.845,284.229 61.100 C 284.838 63.355,285.486 65.200,285.669 65.200 C 285.851 65.200,286.006 65.515,286.013 65.900 C 286.026 66.627,287.188 68.440,287.216 67.776 C 287.224 67.569,287.486 67.985,287.796 68.700 C 288.107 69.415,288.550 70.000,288.781 70.000 C 289.011 70.000,289.200 70.230,289.200 70.511 C 289.200 71.037,289.863 71.703,291.589 72.909 C 292.133 73.289,292.405 73.600,292.194 73.600 C 291.983 73.600,292.742 74.227,293.881 74.994 C 296.080 76.475,300.132 78.400,301.050 78.400 C 301.352 78.400,301.600 78.610,301.600 78.867 C 301.600 79.123,301.714 79.220,301.853 79.081 C 301.992 78.942,302.463 79.020,302.901 79.254 C 303.536 79.594,303.631 79.571,303.371 79.140 C 303.105 78.698,303.169 78.700,303.723 79.149 C 304.095 79.451,304.400 79.564,304.400 79.400 C 304.400 79.236,304.625 79.274,304.900 79.484 C 305.753 80.135,312.460 80.380,316.000 79.890 C 320.584 79.254,321.422 79.056,323.153 78.204 C 324.169 77.703,325.703 77.047,326.563 76.746 C 327.422 76.446,328.656 75.705,329.305 75.100 C 329.954 74.495,330.656 74.000,330.866 74.000 C 331.076 74.000,331.136 73.820,331.000 73.600 C 330.864 73.380,330.957 73.200,331.207 73.200 C 331.679 73.200,334.000 71.050,334.000 70.613 C 334.000 70.476,334.436 69.928,334.969 69.395 C 335.502 68.862,336.054 68.060,336.196 67.613 C 336.338 67.166,336.622 66.800,336.827 66.800 C 337.032 66.800,337.200 66.440,337.200 66.000 C 337.200 65.560,337.362 65.200,337.561 65.200 C 337.759 65.200,338.110 64.660,338.340 64.000 C 338.570 63.340,338.656 62.800,338.530 62.800 C 338.405 62.800,338.522 62.534,338.792 62.210 C 340.404 60.267,341.207 46.346,339.992 41.400 C 339.722 40.300,339.458 39.130,339.406 38.800 C 339.232 37.700,338.781 36.589,336.685 32.100 C 336.454 31.605,336.115 31.200,335.932 31.200 C 335.750 31.200,335.600 31.012,335.600 30.783 C 335.600 30.366,335.216 29.821,333.900 28.371 C 333.515 27.947,333.307 27.600,333.438 27.600 C 333.569 27.600,332.901 26.953,331.954 26.161 C 331.006 25.370,330.044 24.474,329.816 24.171 C 329.181 23.328,323.763 20.822,321.452 20.302 C 320.324 20.048,319.310 19.724,319.200 19.581 C 318.829 19.099,306.354 18.801,306.650 19.282 M378.800 19.648 C 378.800 19.785,377.889 20.018,376.775 20.166 C 374.719 20.438,370.793 22.076,369.527 23.189 C 369.145 23.525,368.108 24.430,367.222 25.200 C 366.337 25.970,365.609 26.825,365.606 27.100 C 365.603 27.375,365.319 27.600,364.976 27.600 C 364.633 27.600,364.456 27.768,364.583 27.972 C 364.709 28.177,364.630 28.458,364.407 28.596 C 364.145 28.757,363.998 27.801,363.995 25.924 C 363.985 20.761,364.794 21.200,355.294 21.200 L 347.082 21.200 347.358 25.100 C 347.509 27.245,347.623 39.935,347.610 53.300 L 347.588 77.600 356.394 77.600 L 365.200 77.600 365.200 60.777 C 365.200 44.599,365.457 40.400,366.447 40.400 C 366.641 40.400,366.755 40.255,366.700 40.078 C 366.486 39.387,368.672 36.785,370.000 36.151 C 370.770 35.783,371.722 35.323,372.116 35.128 C 372.510 34.933,373.005 34.880,373.216 35.010 C 373.427 35.140,373.600 35.095,373.600 34.909 C 373.600 34.723,373.947 34.571,374.371 34.571 C 374.794 34.571,375.042 34.732,374.921 34.929 C 374.799 35.125,375.051 35.174,375.479 35.038 C 376.511 34.711,378.289 35.634,379.974 37.373 C 382.524 40.004,382.728 41.786,382.659 60.900 L 382.600 77.600 391.300 77.600 L 400.000 77.600 400.000 57.983 C 400.000 36.783,399.882 35.292,397.749 29.625 C 396.054 25.121,390.850 20.842,386.209 20.135 C 385.324 20.001,384.263 19.717,383.852 19.505 C 383.286 19.214,383.179 19.243,383.414 19.622 C 383.625 19.964,383.561 20.023,383.212 19.807 C 382.601 19.430,378.800 19.293,378.800 19.648 M271.864 20.602 C 270.579 20.878,269.011 21.485,268.380 21.952 C 267.749 22.418,267.066 22.800,266.863 22.800 C 266.288 22.800,262.146 28.564,261.837 29.795 C 261.287 31.988,260.907 29.630,260.829 23.529 L 260.800 21.259 252.396 21.216 L 243.992 21.173 244.226 23.887 C 244.625 28.522,244.694 32.705,244.748 55.500 L 244.800 77.600 253.597 77.600 L 262.394 77.600 262.364 62.805 C 262.334 47.750,262.450 46.339,263.907 44.100 C 264.229 43.605,264.347 43.200,264.170 43.200 C 263.992 43.200,264.196 42.936,264.624 42.613 C 265.051 42.290,265.272 42.020,265.116 42.013 C 264.445 41.983,268.034 38.908,269.800 38.000 C 271.556 37.097,272.163 37.010,276.466 37.048 L 281.200 37.091 281.200 28.969 C 281.200 23.396,281.059 20.760,280.751 20.570 C 279.942 20.069,274.250 20.090,271.864 20.602 M181.600 21.640 C 181.600 22.022,183.105 26.944,183.912 29.200 C 184.030 29.530,184.090 30.025,184.046 30.300 C 184.001 30.575,184.172 30.800,184.425 30.800 C 184.678 30.800,184.787 31.057,184.667 31.371 C 184.546 31.685,184.707 32.157,185.024 32.420 C 185.341 32.683,185.600 33.150,185.600 33.459 C 185.600 33.768,185.973 35.050,186.429 36.310 C 186.885 37.569,187.352 39.140,187.467 39.800 C 187.582 40.460,188.019 41.755,188.438 42.678 C 188.857 43.601,189.200 44.726,189.200 45.178 C 189.200 45.630,189.399 46.000,189.643 46.000 C 189.886 46.000,189.990 46.249,189.873 46.554 C 189.756 46.859,189.889 47.444,190.169 47.854 C 190.448 48.264,191.190 50.310,191.818 52.400 C 192.445 54.490,193.453 57.415,194.057 58.900 C 194.661 60.385,195.053 61.600,194.928 61.600 C 194.804 61.600,194.881 61.825,195.099 62.100 C 195.317 62.375,196.064 64.616,196.760 67.080 C 197.455 69.544,198.321 72.244,198.683 73.080 C 199.045 73.916,199.389 74.862,199.447 75.183 C 199.506 75.503,199.774 76.178,200.044 76.683 L 200.535 77.600 211.268 77.600 C 220.279 77.600,222.000 77.509,222.000 77.031 C 222.000 76.718,222.525 74.918,223.167 73.031 C 223.809 71.144,224.266 69.600,224.184 69.600 C 224.101 69.600,224.476 68.719,225.017 67.642 C 225.557 66.565,226.000 65.482,226.000 65.235 C 226.000 64.988,226.550 63.172,227.222 61.199 C 227.894 59.225,228.507 57.294,228.584 56.906 C 228.979 54.925,229.324 54.000,229.667 54.000 C 229.876 54.000,229.952 53.847,229.837 53.659 C 229.721 53.472,229.980 52.624,230.413 51.775 C 230.846 50.926,231.200 49.952,231.200 49.611 C 231.200 48.948,233.802 41.265,234.142 40.925 C 234.253 40.813,234.248 40.469,234.130 40.161 C 234.011 39.852,234.144 39.600,234.424 39.600 C 234.704 39.600,234.815 39.482,234.670 39.337 C 234.525 39.192,234.562 38.877,234.751 38.637 C 235.054 38.253,235.994 35.715,236.247 34.600 C 236.297 34.380,236.635 33.300,236.997 32.200 C 237.360 31.100,237.803 29.660,237.982 29.000 C 238.161 28.340,238.863 26.315,239.543 24.500 L 240.780 21.200 230.831 21.200 L 220.882 21.200 220.413 23.894 C 220.155 25.375,219.798 26.680,219.619 26.794 C 219.440 26.907,219.187 27.776,219.055 28.725 C 218.924 29.673,218.713 30.618,218.586 30.823 C 218.367 31.177,218.222 31.727,217.763 33.946 C 217.316 36.106,214.833 45.486,214.430 46.534 C 214.190 47.157,214.109 47.852,214.248 48.078 C 214.388 48.304,214.291 48.620,214.032 48.780 C 213.773 48.941,213.525 49.713,213.480 50.498 C 213.436 51.282,213.265 51.840,213.100 51.738 C 212.935 51.636,212.786 51.878,212.769 52.276 C 212.753 52.674,212.672 53.270,212.590 53.600 C 212.508 53.930,212.313 54.920,212.155 55.800 C 211.998 56.680,211.655 57.914,211.393 58.542 L 210.917 59.684 210.605 58.342 C 210.433 57.604,210.317 56.865,210.346 56.700 C 210.376 56.535,210.226 56.400,210.013 56.400 C 209.799 56.400,209.729 56.130,209.855 55.800 C 209.982 55.470,209.886 55.200,209.643 55.200 C 209.399 55.200,209.200 54.918,209.200 54.572 C 209.200 54.227,208.480 51.045,207.600 47.502 C 206.720 43.958,206.000 40.731,206.000 40.330 C 206.000 39.928,205.850 39.600,205.667 39.600 C 205.483 39.600,205.333 38.954,205.333 38.165 C 205.333 37.375,205.134 36.607,204.891 36.456 C 204.648 36.306,204.363 35.737,204.259 35.191 C 204.154 34.646,203.858 33.300,203.601 32.200 C 203.344 31.100,203.062 29.840,202.974 29.400 C 202.886 28.960,202.439 26.947,201.980 24.926 L 201.146 21.252 191.373 21.214 C 184.210 21.186,181.600 21.300,181.600 21.640 M157.747 32.823 C 160.785 34.451,162.471 36.933,163.018 40.583 L 163.291 42.400 153.445 42.400 C 142.346 42.400,143.064 42.662,144.399 39.094 C 145.694 35.634,148.183 32.908,150.610 32.293 C 152.713 31.760,156.254 32.023,157.747 32.823 M314.639 33.389 C 316.643 33.984,320.429 37.552,320.649 39.053 C 320.698 39.388,320.869 39.963,321.030 40.331 C 321.440 41.273,321.657 42.070,321.763 43.020 C 321.813 43.471,322.000 44.076,322.178 44.364 C 322.614 45.070,322.565 54.704,322.121 55.315 C 321.928 55.582,321.717 56.310,321.652 56.933 C 321.587 57.556,321.171 58.681,320.728 59.433 C 320.284 60.185,320.074 60.805,320.260 60.812 C 320.447 60.819,320.285 61.008,319.900 61.232 C 319.515 61.456,319.200 61.882,319.200 62.177 C 319.200 62.473,318.919 62.822,318.575 62.954 C 318.231 63.086,318.036 63.334,318.141 63.505 C 319.162 65.157,310.632 66.654,307.772 65.325 C 306.107 64.552,303.126 61.644,303.454 61.113 C 303.562 60.938,303.370 60.687,303.028 60.555 C 302.685 60.424,302.517 60.135,302.654 59.913 C 302.790 59.692,302.733 59.396,302.525 59.255 C 300.816 58.100,300.258 45.454,301.746 41.600 C 302.128 40.610,302.488 39.567,302.546 39.283 C 302.604 38.998,302.954 38.413,303.322 37.983 C 303.691 37.552,303.876 37.200,303.735 37.200 C 303.593 37.200,303.910 36.820,304.439 36.356 C 304.967 35.893,305.357 35.358,305.304 35.168 C 304.871 33.613,311.280 32.392,314.639 33.389 M370.633 101.500 C 370.468 101.665,370.213 101.806,370.067 101.814 C 369.920 101.822,369.373 102.065,368.852 102.354 C 368.195 102.718,367.993 102.734,368.196 102.407 C 368.387 102.097,368.094 102.131,367.344 102.506 C 366.715 102.820,365.030 103.460,363.600 103.928 C 362.170 104.396,359.650 105.249,358.000 105.825 C 356.350 106.400,354.685 106.894,354.300 106.921 C 353.915 106.949,353.600 107.132,353.600 107.329 C 353.600 107.525,353.360 107.593,353.067 107.481 C 352.773 107.368,352.533 107.521,352.533 107.821 C 352.533 108.120,352.697 108.264,352.897 108.140 C 353.261 107.915,359.028 109.833,359.822 110.444 C 360.201 110.735,361.853 111.333,369.800 114.052 C 371.120 114.503,372.380 115.014,372.600 115.188 C 372.975 115.483,374.295 115.961,382.778 118.872 C 384.636 119.510,386.346 120.182,386.578 120.365 C 386.810 120.547,389.735 121.659,393.077 122.834 C 397.457 124.375,399.265 125.199,399.550 125.786 C 399.980 126.670,400.184 114.927,399.766 113.370 C 399.601 112.754,398.800 112.302,396.672 111.623 C 395.092 111.119,393.606 110.551,393.369 110.362 C 393.133 110.172,390.793 109.282,388.169 108.384 C 385.546 107.485,382.680 106.425,381.800 106.028 C 380.200 105.307,374.198 103.098,372.500 102.607 C 372.005 102.463,371.600 102.088,371.600 101.773 C 371.600 101.154,371.116 101.017,370.633 101.500 M160.200 146.612 C 159.540 147.153,158.859 147.597,158.686 147.598 C 158.513 147.599,155.273 149.731,151.486 152.336 C 147.699 154.941,144.160 157.307,143.621 157.592 C 143.083 157.878,140.105 159.860,137.005 161.997 C 133.904 164.133,130.555 166.335,129.562 166.889 C 128.570 167.443,124.849 169.899,121.293 172.348 C 117.738 174.797,114.726 176.800,114.601 176.800 C 114.475 176.800,111.235 178.960,107.400 181.600 C 103.565 184.240,100.317 186.400,100.181 186.400 C 100.045 186.400,96.844 188.528,93.067 191.129 C 89.290 193.730,85.859 195.984,85.443 196.139 C 85.026 196.293,84.758 196.492,84.848 196.581 C 84.937 196.670,86.538 196.230,88.405 195.603 C 90.272 194.976,97.200 192.721,103.800 190.591 C 110.400 188.461,116.880 186.307,118.200 185.803 C 119.520 185.299,123.210 184.068,126.400 183.066 C 133.621 180.797,143.578 177.521,147.800 176.023 C 149.560 175.398,157.709 172.682,165.909 169.986 C 174.109 167.291,180.737 165.003,180.637 164.904 C 180.537 164.804,179.429 165.106,178.175 165.575 C 176.921 166.044,175.827 166.360,175.744 166.278 C 175.542 166.075,183.825 160.400,184.323 160.400 C 184.538 160.400,184.807 160.158,184.920 159.863 C 185.034 159.568,185.728 159.034,186.463 158.677 C 187.198 158.319,188.586 157.499,189.547 156.853 L 191.294 155.679 189.368 154.827 C 188.308 154.358,186.172 153.593,184.621 153.125 C 183.069 152.658,181.683 152.097,181.540 151.880 C 181.398 151.662,181.013 151.586,180.686 151.712 C 180.359 151.837,179.756 151.715,179.346 151.440 C 178.936 151.164,177.520 150.621,176.200 150.232 C 172.517 149.147,167.423 147.425,167.200 147.189 C 167.090 147.073,166.497 146.992,165.882 147.008 C 165.267 147.024,164.571 146.806,164.336 146.523 C 164.101 146.240,163.762 146.100,163.582 146.211 C 163.402 146.322,163.142 146.230,163.004 146.007 C 162.587 145.331,161.468 145.573,160.200 146.612 M191.600 156.097 C 191.600 156.311,191.870 156.382,192.200 156.255 C 192.530 156.129,192.800 156.163,192.800 156.333 C 192.800 156.502,193.244 156.640,193.787 156.640 C 194.690 156.640,194.827 156.267,193.967 156.150 C 193.765 156.123,193.555 156.055,193.500 155.999 C 193.192 155.688,191.600 155.771,191.600 156.097 " stroke="none" fill="#0454a4" fill-rule="evenodd"></path><path id="path2" d="M330.000 115.251 C 329.230 115.455,328.420 115.666,328.200 115.722 C 327.980 115.777,327.605 115.945,327.366 116.094 C 327.128 116.243,326.326 116.472,325.584 116.603 C 324.843 116.733,323.688 117.096,323.018 117.409 C 321.585 118.079,309.621 122.062,308.917 122.104 C 307.301 122.201,307.985 123.804,309.906 124.423 C 310.728 124.688,311.580 125.044,311.800 125.215 C 312.020 125.386,314.720 126.372,317.800 127.406 C 320.880 128.439,323.760 129.508,324.200 129.780 C 324.640 130.052,327.790 131.227,331.200 132.391 C 334.610 133.555,337.760 134.721,338.200 134.981 C 338.978 135.441,339.866 135.772,347.400 138.408 C 349.380 139.100,351.617 139.945,352.370 140.286 C 353.124 140.626,355.986 141.691,358.731 142.654 C 361.476 143.616,363.920 144.557,364.161 144.746 C 364.402 144.934,367.061 145.912,370.068 146.919 C 373.075 147.927,376.402 149.145,377.460 149.627 C 378.518 150.109,381.728 151.308,384.592 152.292 C 387.456 153.275,390.610 154.450,391.600 154.902 C 392.590 155.354,394.840 156.215,396.600 156.816 L 399.800 157.908 399.909 149.865 C 400.026 141.181,399.984 140.801,398.913 140.798 C 398.521 140.796,397.660 140.510,397.000 140.161 C 395.879 139.568,391.110 137.807,387.359 136.601 C 386.457 136.311,384.927 135.716,383.959 135.279 C 382.229 134.498,375.487 132.055,372.044 130.962 C 371.078 130.655,370.088 130.247,369.844 130.056 C 369.600 129.864,366.970 128.855,364.000 127.813 C 361.030 126.771,358.060 125.671,357.400 125.367 C 356.740 125.064,353.643 123.918,350.517 122.822 C 347.392 121.725,344.512 120.638,344.117 120.405 C 343.298 119.921,334.944 116.924,332.728 116.319 C 331.725 116.045,331.325 115.740,331.471 115.359 C 331.589 115.051,331.621 114.818,331.543 114.841 C 331.464 114.863,330.770 115.048,330.000 115.251 M88.250 121.280 C 88.404 121.530,88.195 121.589,87.707 121.434 C 87.222 121.280,86.716 121.419,86.407 121.791 C 86.129 122.126,85.729 122.400,85.517 122.400 C 85.139 122.400,77.192 127.616,73.546 130.257 C 72.527 130.996,71.567 131.600,71.413 131.600 C 71.259 131.600,68.643 133.310,65.600 135.400 C 62.557 137.490,59.971 139.200,59.854 139.200 C 59.737 139.200,59.156 139.650,58.562 140.200 C 57.969 140.750,57.314 141.200,57.108 141.200 C 56.902 141.200,54.243 142.910,51.200 145.000 C 48.157 147.090,45.571 148.800,45.454 148.800 C 45.337 148.800,44.756 149.250,44.162 149.800 C 43.569 150.350,42.914 150.800,42.708 150.800 C 42.502 150.800,39.843 152.510,36.800 154.600 C 33.757 156.690,31.091 158.400,30.875 158.400 C 30.660 158.400,30.060 158.847,29.542 159.393 C 29.024 159.939,28.450 160.389,28.267 160.393 C 28.083 160.397,25.443 162.110,22.400 164.200 C 19.357 166.290,16.698 168.000,16.492 168.000 C 16.286 168.000,15.631 168.450,15.038 169.000 C 14.444 169.550,13.860 170.000,13.739 170.000 C 13.618 170.000,11.026 171.710,7.980 173.800 C 4.933 175.890,2.245 177.600,2.007 177.600 C 1.770 177.600,1.472 177.869,1.346 178.198 C 1.219 178.526,0.955 178.696,0.758 178.574 C 0.549 178.445,0.429 187.042,0.470 199.276 C 0.508 210.784,0.618 219.390,0.713 218.400 C 0.827 217.209,0.976 216.842,1.154 217.315 C 1.383 217.930,2.167 217.519,6.690 214.415 C 9.588 212.427,12.065 210.800,12.193 210.800 C 12.322 210.800,15.527 208.669,19.314 206.063 C 23.101 203.458,26.404 201.253,26.654 201.163 C 26.904 201.074,30.234 198.878,34.054 196.284 C 43.685 189.745,55.984 181.600,56.226 181.600 C 56.337 181.600,59.565 179.440,63.400 176.800 C 67.235 174.160,70.483 172.000,70.619 172.000 C 70.755 172.000,73.993 169.840,77.816 167.200 C 81.639 164.560,84.879 162.400,85.016 162.400 C 85.153 162.400,88.393 160.240,92.216 157.600 C 96.039 154.960,99.276 152.800,99.410 152.800 C 99.543 152.800,102.762 150.661,106.563 148.048 C 110.364 145.434,113.907 143.065,114.437 142.783 C 114.967 142.501,117.952 140.517,121.072 138.374 C 124.192 136.231,126.849 134.548,126.977 134.634 C 127.105 134.720,126.982 134.554,126.705 134.264 C 126.427 133.974,125.120 133.392,123.800 132.970 C 122.480 132.549,121.310 132.085,121.200 131.940 C 121.090 131.795,120.010 131.402,118.800 131.066 C 114.567 129.889,106.998 127.428,106.800 127.163 C 106.593 126.886,92.585 122.383,91.700 122.309 C 91.425 122.286,91.200 122.087,91.200 121.867 C 91.200 121.647,91.082 121.585,90.937 121.730 C 90.792 121.875,90.477 121.841,90.237 121.654 C 89.542 121.115,87.964 120.818,88.250 121.280 M64.675 203.673 C 63.396 204.119,62.420 204.553,62.506 204.639 C 62.687 204.821,67.600 203.205,67.600 202.963 C 67.600 202.702,67.144 202.813,64.675 203.673 M49.075 208.873 C 47.796 209.319,46.820 209.753,46.906 209.839 C 47.087 210.021,52.000 208.405,52.000 208.163 C 52.000 207.902,51.544 208.013,49.075 208.873 M35.101 213.724 C 29.033 215.841,26.441 217.200,28.474 217.200 C 28.734 217.200,29.689 217.559,30.594 217.997 C 32.196 218.773,39.614 221.513,43.156 222.638 C 44.122 222.945,45.112 223.354,45.356 223.548 C 45.600 223.741,48.050 224.670,50.800 225.612 C 53.550 226.553,56.520 227.638,57.400 228.023 C 59.153 228.789,62.972 230.199,67.551 231.773 C 69.174 232.331,70.704 232.943,70.951 233.134 C 71.198 233.324,74.190 234.431,77.600 235.592 C 81.010 236.754,83.980 237.835,84.200 237.995 C 84.587 238.276,86.182 238.873,93.800 241.589 C 95.780 242.295,98.120 243.193,99.000 243.583 C 99.880 243.974,102.850 245.064,105.600 246.007 C 108.350 246.949,110.790 247.866,111.022 248.044 C 111.407 248.340,114.770 249.561,121.000 251.667 C 122.320 252.113,123.580 252.621,123.800 252.795 C 124.020 252.970,126.900 254.053,130.200 255.203 C 133.500 256.353,136.920 257.617,137.800 258.014 C 138.680 258.410,141.830 259.583,144.800 260.621 C 147.770 261.658,150.400 262.664,150.644 262.856 C 150.888 263.047,151.878 263.458,152.844 263.769 C 157.359 265.221,162.967 267.239,163.362 267.555 C 163.603 267.748,165.150 268.363,166.800 268.923 C 173.748 271.280,175.854 272.046,176.800 272.560 C 177.350 272.858,179.240 273.594,181.000 274.195 C 184.805 275.493,189.086 277.065,190.200 277.572 C 191.206 278.029,195.788 279.690,199.200 280.834 C 200.630 281.313,202.250 281.947,202.800 282.244 C 203.993 282.887,213.764 286.400,214.360 286.400 C 214.588 286.400,214.675 286.660,214.553 286.978 C 214.324 287.575,219.744 286.143,222.000 285.010 C 223.509 284.253,227.346 283.020,227.800 283.146 C 228.067 283.220,228.067 283.128,227.800 282.870 C 227.580 282.657,225.780 281.939,223.800 281.275 C 216.925 278.968,214.196 277.986,213.412 277.536 C 212.674 277.112,204.301 274.053,201.200 273.074 C 200.430 272.831,199.710 272.516,199.600 272.375 C 199.490 272.234,196.880 271.259,193.800 270.210 C 190.720 269.160,187.840 268.086,187.400 267.823 C 186.960 267.559,183.810 266.383,180.400 265.208 C 176.990 264.033,173.990 262.911,173.733 262.714 C 173.476 262.517,171.676 261.820,169.733 261.165 C 165.188 259.632,160.949 258.078,159.292 257.339 C 158.573 257.018,155.718 255.960,152.947 254.989 C 150.177 254.018,147.705 253.057,147.455 252.853 C 147.205 252.650,146.370 252.301,145.600 252.078 C 143.044 251.340,134.607 248.322,134.200 248.001 C 133.812 247.696,127.207 245.293,123.644 244.162 C 122.678 243.855,121.688 243.446,121.444 243.252 C 121.200 243.059,118.300 241.960,115.000 240.812 C 111.700 239.663,108.460 238.479,107.800 238.180 C 106.433 237.561,99.507 235.017,98.000 234.580 C 97.450 234.420,96.100 233.883,95.000 233.387 C 92.973 232.471,85.763 229.866,83.200 229.123 C 82.430 228.900,81.595 228.550,81.345 228.347 C 81.095 228.143,78.623 227.182,75.853 226.211 C 73.082 225.240,70.227 224.182,69.508 223.861 C 67.943 223.163,63.792 221.649,59.400 220.176 C 57.640 219.586,55.750 218.853,55.200 218.549 C 54.650 218.244,51.487 217.051,48.171 215.897 C 44.854 214.744,41.704 213.506,41.171 213.146 L 40.200 212.492 41.600 211.879 C 44.486 210.614,41.975 211.327,35.101 213.724 " stroke="none" fill="#157fbb" fill-rule="evenodd"></path><path id="path3" d="M383.000 252.014 C 382.310 252.322,382.349 252.357,383.285 252.268 C 383.882 252.210,384.497 252.037,384.652 251.882 C 385.040 251.493,383.974 251.579,383.000 252.014 M377.827 253.559 C 377.332 253.753,377.214 253.961,377.499 254.138 C 377.744 254.289,378.060 254.227,378.200 254.000 C 378.340 253.773,378.651 253.708,378.889 253.855 C 379.149 254.015,379.209 253.937,379.038 253.662 C 378.881 253.408,378.718 253.213,378.676 253.228 C 378.634 253.244,378.252 253.393,377.827 253.559 M375.500 254.276 C 375.115 254.376,374.800 254.625,374.800 254.829 C 374.800 255.336,375.492 255.298,375.817 254.773 C 375.962 254.538,376.342 254.446,376.661 254.568 C 376.985 254.693,377.134 254.616,376.997 254.395 C 376.742 253.983,376.649 253.976,375.500 254.276 M371.800 255.881 C 371.360 255.985,369.470 256.568,367.600 257.177 C 365.730 257.787,363.075 258.615,361.700 259.018 C 360.325 259.422,359.200 259.877,359.200 260.031 C 359.200 260.185,358.609 260.422,357.887 260.557 C 356.344 260.847,354.689 262.400,355.924 262.400 C 356.318 262.400,356.820 262.580,357.039 262.799 C 357.259 263.019,359.683 263.985,362.426 264.947 C 365.170 265.909,368.221 267.060,369.207 267.505 C 371.147 268.380,376.979 270.484,380.200 271.469 C 381.300 271.806,382.402 272.246,382.649 272.447 C 382.896 272.648,384.426 273.269,386.049 273.827 C 390.864 275.482,394.493 276.830,396.256 277.620 C 397.167 278.029,398.382 278.481,398.956 278.625 L 400.000 278.887 400.000 272.492 L 400.000 266.097 398.900 265.679 C 398.295 265.448,396.720 264.873,395.400 264.400 C 394.080 263.927,392.460 263.287,391.800 262.977 C 391.140 262.668,388.027 261.513,384.882 260.409 C 379.598 258.556,377.260 257.623,374.239 256.162 C 373.600 255.853,372.970 255.621,372.839 255.646 C 372.707 255.672,372.240 255.778,371.800 255.881 M103.600 281.224 C 103.600 281.457,103.445 281.551,103.255 281.434 C 102.959 281.251,100.400 283.679,100.400 284.142 C 100.400 284.232,99.725 285.035,98.900 285.927 C 98.075 286.819,96.465 288.595,95.323 289.874 C 94.181 291.153,87.887 298.140,81.337 305.400 C 58.085 331.174,52.795 337.071,48.506 342.000 C 43.320 347.960,23.207 370.112,21.543 371.697 C 20.447 372.740,19.787 373.514,20.076 373.417 C 20.364 373.320,22.188 372.766,24.130 372.187 L 27.659 371.133 33.130 373.005 C 36.138 374.034,39.500 375.281,40.600 375.776 C 41.700 376.272,44.850 377.446,47.600 378.385 C 50.350 379.324,52.800 380.253,53.044 380.449 C 53.288 380.644,54.278 381.055,55.244 381.360 C 58.932 382.528,66.618 385.318,67.021 385.635 C 67.416 385.946,73.685 388.191,77.519 389.394 C 78.464 389.690,79.454 390.106,79.719 390.318 C 79.983 390.529,81.550 391.168,83.200 391.736 C 89.297 393.837,92.621 395.056,93.400 395.475 C 93.840 395.711,96.450 396.671,99.200 397.608 C 101.950 398.544,104.650 399.557,105.200 399.858 C 105.750 400.159,109.071 401.402,112.580 402.620 C 116.089 403.838,119.149 404.981,119.380 405.160 C 119.611 405.339,122.320 406.344,125.400 407.394 C 128.480 408.443,131.807 409.663,132.793 410.103 C 133.779 410.544,136.754 411.665,139.405 412.594 C 142.056 413.523,144.579 414.487,145.012 414.736 C 145.773 415.173,147.766 415.889,155.400 418.468 C 157.380 419.137,159.190 419.838,159.422 420.026 C 159.811 420.342,164.748 422.147,168.653 423.402 C 169.562 423.694,171.272 424.372,172.453 424.908 C 173.634 425.444,176.940 426.672,179.800 427.637 C 182.660 428.602,185.090 429.509,185.200 429.653 C 185.310 429.797,187.744 430.721,190.608 431.705 C 193.472 432.690,196.678 433.889,197.731 434.369 C 198.784 434.848,202.266 436.127,205.469 437.210 C 208.673 438.293,211.497 439.341,211.747 439.538 C 211.996 439.735,212.887 440.117,213.727 440.388 C 214.840 440.747,215.191 441.047,215.018 441.497 C 214.822 442.008,214.886 442.027,215.391 441.608 C 215.726 441.330,216.000 441.236,216.000 441.400 C 216.000 441.564,216.270 441.474,216.600 441.200 C 216.930 440.926,217.200 440.810,217.200 440.941 C 217.200 441.073,217.695 440.989,218.300 440.755 C 218.905 440.520,219.688 440.270,220.041 440.199 C 221.774 439.847,226.234 438.315,228.291 437.365 L 230.600 436.299 229.200 435.805 C 228.430 435.533,226.990 434.943,226.000 434.493 C 225.010 434.043,221.680 432.825,218.600 431.787 C 215.520 430.749,212.802 429.743,212.561 429.552 C 212.088 429.176,202.386 425.648,200.900 425.311 C 200.405 425.199,200.000 424.969,200.000 424.800 C 200.000 424.631,199.595 424.400,199.100 424.287 C 197.576 423.937,187.426 420.318,186.978 419.965 C 186.588 419.657,184.004 418.719,176.400 416.127 C 174.750 415.565,173.201 414.946,172.958 414.751 C 172.714 414.557,169.834 413.478,166.558 412.353 C 163.281 411.228,160.420 410.173,160.200 410.009 C 159.980 409.844,157.100 408.760,153.800 407.600 C 150.500 406.440,147.600 405.335,147.356 405.143 C 147.112 404.952,146.122 404.544,145.156 404.236 C 141.128 402.953,133.771 400.301,133.400 399.999 C 133.180 399.819,131.920 399.303,130.600 398.852 C 122.622 396.122,121.001 395.534,120.622 395.234 C 120.390 395.051,117.950 394.130,115.200 393.188 C 112.450 392.247,109.480 391.162,108.600 390.777 C 106.847 390.011,103.028 388.601,98.449 387.027 C 96.826 386.469,95.296 385.853,95.049 385.657 C 94.802 385.461,91.540 384.264,87.800 382.996 C 84.060 381.729,80.798 380.533,80.551 380.340 C 80.304 380.146,78.774 379.531,77.151 378.973 C 72.565 377.397,68.731 375.981,67.230 375.309 C 66.476 374.972,63.614 373.909,60.869 372.946 C 58.124 371.984,55.680 371.036,55.439 370.839 C 55.198 370.643,54.100 370.205,53.000 369.867 C 45.700 367.625,42.451 366.228,43.633 365.840 C 46.476 364.907,49.192 363.859,49.075 363.742 C 48.996 363.663,47.057 364.248,44.766 365.043 C 36.240 368.002,33.531 368.768,34.086 368.064 C 35.168 366.690,50.473 349.722,52.002 348.200 C 52.886 347.320,53.607 346.422,53.605 346.204 C 53.602 345.986,54.400 344.996,55.378 344.004 C 57.768 341.580,95.279 300.036,97.820 297.000 C 98.924 295.680,100.361 294.046,101.014 293.368 C 103.470 290.817,110.089 283.156,109.947 283.028 C 109.135 282.290,103.600 280.717,103.600 281.224 " stroke="none" fill="#ae1434" fill-rule="evenodd"></path><path id="path4" d="M82.979 13.800 C 82.979 21.060,83.033 24.086,83.099 20.525 C 83.165 16.964,83.166 11.024,83.099 7.325 C 83.033 3.626,82.979 6.540,82.979 13.800 M70.000 4.400 C 69.467 4.745,69.467 4.788,70.000 4.788 C 70.330 4.788,70.870 4.613,71.200 4.400 C 71.733 4.055,71.733 4.012,71.200 4.012 C 70.870 4.012,70.330 4.187,70.000 4.400 M148.600 19.200 L 147.400 19.505 148.700 19.553 C 149.415 19.579,150.000 19.420,150.000 19.200 C 150.000 18.980,149.955 18.821,149.900 18.847 C 149.845 18.873,149.260 19.032,148.600 19.200 M97.018 19.629 C 97.184 19.898,99.200 19.637,99.200 19.347 C 99.200 19.259,98.672 19.227,98.028 19.277 C 97.383 19.326,96.929 19.484,97.018 19.629 M126.526 37.500 C 126.389 37.885,126.204 38.335,126.115 38.500 C 126.026 38.665,126.122 38.800,126.330 38.800 C 126.537 38.800,126.793 38.350,126.898 37.800 C 127.118 36.649,126.893 36.468,126.526 37.500 M82.983 60.400 C 82.983 69.750,83.036 73.575,83.100 68.900 C 83.164 64.225,83.164 56.575,83.100 51.900 C 83.036 47.225,82.983 51.050,82.983 60.400 M117.783 60.400 C 117.783 69.530,117.835 73.265,117.900 68.700 C 117.964 64.135,117.964 56.665,117.900 52.100 C 117.835 47.535,117.783 51.270,117.783 60.400 M194.215 60.199 C 194.473 61.438,194.695 61.855,194.943 61.567 C 195.022 61.475,194.834 60.860,194.526 60.200 L 193.966 59.000 194.215 60.199 M398.652 92.282 C 398.497 92.437,397.907 92.626,397.341 92.701 C 396.775 92.777,395.882 93.121,395.356 93.466 C 394.830 93.810,394.400 93.959,394.400 93.797 C 394.400 93.635,394.175 93.682,393.900 93.902 C 393.625 94.122,392.095 94.634,390.500 95.040 C 388.905 95.445,387.600 95.928,387.600 96.112 C 387.600 96.296,387.420 96.336,387.200 96.200 C 386.980 96.064,386.800 96.138,386.800 96.364 C 386.800 96.590,386.530 96.671,386.200 96.545 C 385.870 96.418,385.600 96.508,385.600 96.745 C 385.600 96.981,385.330 97.071,385.000 96.945 C 384.670 96.818,384.400 96.926,384.400 97.184 C 384.400 97.472,384.090 97.556,383.600 97.400 C 383.110 97.244,382.800 97.328,382.800 97.616 C 382.800 97.874,382.542 97.986,382.226 97.865 C 381.910 97.744,381.595 97.788,381.526 97.962 C 381.399 98.283,374.946 100.400,374.096 100.400 C 372.161 100.400,370.900 102.143,372.500 102.607 C 374.198 103.098,380.200 105.307,381.800 106.028 C 382.680 106.425,385.546 107.485,388.169 108.384 C 390.793 109.282,393.133 110.172,393.369 110.362 C 393.606 110.551,395.098 111.121,396.685 111.627 C 398.388 112.170,399.639 112.804,399.738 113.174 C 399.831 113.518,399.928 108.895,399.954 102.900 C 400.000 91.992,399.884 91.049,398.652 92.282 M190.936 155.469 C 191.227 155.760,188.623 157.627,186.463 158.677 C 185.728 159.034,185.034 159.568,184.920 159.863 C 184.807 160.158,184.538 160.400,184.323 160.400 C 183.838 160.400,175.539 166.072,175.736 166.269 C 175.814 166.347,176.941 166.044,178.239 165.595 C 179.538 165.146,182.850 164.077,185.600 163.219 C 199.310 158.939,200.856 158.272,198.200 157.774 C 197.430 157.629,196.800 157.329,196.800 157.107 C 196.800 156.875,196.543 156.916,196.200 157.200 C 195.706 157.610,195.600 157.576,195.600 157.006 C 195.600 156.562,195.390 156.395,195.013 156.540 C 194.690 156.664,194.314 156.584,194.177 156.363 C 194.012 156.096,193.768 156.095,193.448 156.360 C 193.110 156.640,192.822 156.527,192.480 155.980 C 192.212 155.551,191.695 155.200,191.330 155.200 C 190.965 155.200,190.788 155.321,190.936 155.469 " stroke="none" fill="#04549c" fill-rule="evenodd"></path><path id="path5" d="M0.416 311.128 C 0.429 365.226,0.518 375.604,0.962 374.600 C 1.254 373.940,8.832 365.300,17.801 355.400 C 26.770 345.500,35.535 335.780,37.278 333.800 C 40.342 330.321,41.800 328.677,45.975 324.000 C 52.863 316.282,83.540 282.280,84.950 280.800 C 85.893 279.810,87.069 278.413,87.563 277.695 C 88.057 276.978,88.651 276.508,88.882 276.651 C 89.121 276.799,89.225 276.675,89.122 276.366 C 89.022 276.066,88.345 275.699,87.618 275.550 C 86.891 275.402,86.179 275.090,86.036 274.858 C 85.892 274.625,84.790 274.163,83.587 273.831 C 78.903 272.537,71.790 270.260,71.600 269.994 C 71.490 269.840,68.250 268.755,64.400 267.582 C 60.550 266.409,57.310 265.329,57.200 265.181 C 57.090 265.034,53.940 263.983,50.200 262.847 C 46.460 261.710,42.590 260.429,41.600 260.000 C 40.610 259.572,37.010 258.375,33.600 257.341 C 30.190 256.308,27.310 255.357,27.200 255.229 C 26.943 254.930,25.470 254.438,18.600 252.362 C 15.520 251.432,12.868 250.474,12.706 250.235 C 12.544 249.996,12.409 249.957,12.406 250.149 C 12.403 250.341,12.175 250.319,11.900 250.101 C 11.481 249.768,8.765 248.900,1.500 246.777 L 0.400 246.456 0.416 311.128 M319.298 273.066 C 319.021 273.177,318.869 273.388,318.959 273.534 C 319.050 273.680,318.691 273.842,318.162 273.893 C 315.959 274.106,315.670 274.189,315.892 274.549 C 316.025 274.764,315.754 274.829,315.262 274.700 C 314.787 274.576,314.486 274.616,314.593 274.789 C 314.700 274.961,314.205 275.240,313.494 275.407 C 312.782 275.575,312.110 275.744,312.000 275.784 C 311.890 275.823,310.990 276.086,310.000 276.367 C 309.010 276.649,306.850 277.325,305.200 277.870 C 303.550 278.416,301.754 278.949,301.209 279.055 C 300.663 279.162,300.103 279.433,299.964 279.659 C 299.825 279.884,299.551 280.076,299.355 280.085 C 299.160 280.094,298.820 280.166,298.600 280.245 C 297.041 280.803,288.679 283.329,287.300 283.659 C 286.365 283.882,285.600 284.260,285.600 284.499 C 285.600 284.738,285.482 284.815,285.337 284.670 C 285.192 284.525,284.877 284.564,284.637 284.757 C 284.197 285.109,276.482 287.593,272.400 288.696 C 271.190 289.023,270.110 289.422,270.000 289.582 C 269.890 289.742,266.650 290.830,262.800 292.000 C 258.950 293.170,255.710 294.248,255.600 294.395 C 255.490 294.542,252.610 295.508,249.200 296.541 C 245.790 297.575,242.190 298.772,241.200 299.200 C 240.210 299.629,236.340 300.910,232.600 302.047 C 228.860 303.183,225.710 304.230,225.600 304.372 C 225.402 304.629,221.382 305.933,214.800 307.874 C 212.930 308.426,211.310 309.021,211.200 309.197 C 211.090 309.373,210.280 309.713,209.400 309.952 C 205.522 311.007,200.238 312.815,200.025 313.159 C 199.898 313.366,175.225 321.734,145.197 331.754 C 115.168 341.775,87.180 351.162,83.000 352.614 C 78.820 354.067,74.275 355.611,72.900 356.046 C 69.602 357.091,69.659 357.176,74.900 358.977 C 77.375 359.827,79.760 360.744,80.200 361.014 C 80.640 361.283,83.520 362.366,86.600 363.420 C 89.680 364.474,92.290 365.448,92.400 365.584 C 92.510 365.721,93.230 366.031,94.000 366.274 C 97.473 367.370,105.734 370.413,106.145 370.747 C 106.395 370.950,107.230 371.300,108.000 371.523 C 110.160 372.150,118.451 375.142,119.839 375.796 C 121.057 376.370,126.504 378.328,129.956 379.433 C 130.922 379.743,131.912 380.146,132.156 380.330 C 132.592 380.658,136.251 382.023,142.600 384.225 C 144.360 384.836,145.980 385.467,146.200 385.628 C 146.420 385.788,148.951 386.727,151.825 387.714 C 154.698 388.700,158.040 389.961,159.251 390.515 C 160.462 391.069,162.071 391.705,162.826 391.930 C 165.527 392.732,171.364 394.838,171.778 395.159 C 172.010 395.339,174.450 396.258,177.200 397.202 C 179.950 398.146,182.920 399.235,183.800 399.623 C 184.680 400.010,187.020 400.905,189.000 401.611 C 196.551 404.303,198.212 404.923,198.600 405.195 C 198.820 405.349,201.790 406.428,205.200 407.592 C 208.610 408.756,211.598 409.863,211.839 410.053 C 212.241 410.368,221.538 413.779,223.400 414.294 C 223.840 414.416,224.380 414.643,224.600 414.800 C 224.820 414.956,225.540 415.274,226.200 415.506 C 234.781 418.528,237.764 419.637,238.145 419.947 C 238.395 420.150,239.230 420.500,240.000 420.723 C 242.462 421.437,250.540 424.385,252.329 425.223 C 253.281 425.668,254.586 426.137,255.229 426.266 C 255.873 426.395,256.400 426.658,256.400 426.850 C 256.400 427.043,256.771 427.200,257.224 427.200 C 257.772 427.200,257.949 427.367,257.755 427.700 C 257.594 427.975,257.884 427.840,258.400 427.400 C 258.966 426.917,259.204 426.838,259.000 427.200 C 258.732 427.676,258.822 427.664,259.431 427.145 C 259.854 426.784,260.830 426.357,261.600 426.196 C 262.370 426.034,264.170 425.531,265.600 425.076 C 267.030 424.622,268.290 424.233,268.400 424.210 C 269.310 424.027,273.443 422.599,273.600 422.414 C 273.710 422.284,276.680 421.302,280.200 420.231 C 283.720 419.160,287.095 418.036,287.700 417.732 C 288.305 417.428,288.800 417.296,288.800 417.439 C 288.800 417.581,289.025 417.518,289.300 417.297 C 289.575 417.077,292.590 416.046,296.000 415.008 C 299.410 413.969,302.425 412.936,302.700 412.711 C 302.975 412.486,303.200 412.436,303.200 412.600 C 303.200 412.764,303.425 412.715,303.700 412.491 C 303.975 412.268,306.090 411.513,308.400 410.814 C 313.920 409.142,317.259 408.038,318.006 407.636 C 318.339 407.457,321.399 406.456,324.806 405.412 C 328.213 404.368,331.450 403.285,332.000 403.005 C 332.550 402.725,336.328 401.471,340.395 400.218 C 344.461 398.966,347.971 397.799,348.195 397.626 C 348.418 397.452,350.760 396.647,353.400 395.838 C 356.040 395.028,359.910 393.748,362.000 392.993 C 366.207 391.474,376.242 388.340,376.650 388.419 C 376.793 388.446,377.021 388.294,377.155 388.081 C 377.290 387.868,380.460 386.763,384.200 385.625 C 387.940 384.488,391.450 383.317,392.000 383.025 C 392.550 382.732,394.575 382.016,396.500 381.434 L 400.000 380.374 400.000 341.662 L 400.000 302.950 397.900 302.032 C 395.861 301.140,390.818 299.311,387.244 298.167 C 386.278 297.857,385.288 297.450,385.044 297.262 C 384.800 297.074,383.160 296.421,381.400 295.811 C 375.112 293.632,371.394 292.260,371.000 291.972 C 370.780 291.812,368.256 290.875,365.392 289.892 C 362.528 288.908,359.318 287.709,358.260 287.227 C 357.202 286.745,353.875 285.527,350.868 284.519 C 347.861 283.512,345.195 282.528,344.945 282.332 C 344.559 282.031,336.904 279.214,333.000 277.936 C 332.340 277.721,331.350 277.311,330.800 277.026 C 330.250 276.741,327.775 275.822,325.300 274.984 C 322.825 274.146,320.800 273.312,320.800 273.130 C 320.800 272.772,320.100 272.742,319.298 273.066 " stroke="none" fill="#e1142c" fill-rule="evenodd"></path><path id="path6" d="M355.095 261.504 C 354.707 261.590,354.483 261.810,354.596 261.993 C 354.709 262.176,354.441 262.231,354.001 262.116 C 353.522 261.991,353.200 262.104,353.200 262.396 C 353.200 262.665,352.932 262.783,352.604 262.657 C 352.061 262.449,348.561 263.469,342.800 265.514 C 341.590 265.944,338.440 266.962,335.800 267.778 C 333.160 268.593,330.237 269.607,329.304 270.030 C 328.372 270.454,327.447 270.800,327.250 270.800 C 326.429 270.800,322.559 272.210,322.068 272.689 C 321.775 272.974,321.370 273.105,321.168 272.980 C 320.965 272.855,320.800 272.912,320.800 273.107 C 320.800 273.301,322.825 274.146,325.300 274.984 C 327.775 275.822,330.250 276.741,330.800 277.026 C 331.350 277.311,332.340 277.721,333.000 277.936 C 336.904 279.214,344.559 282.031,344.945 282.332 C 345.195 282.528,347.861 283.512,350.868 284.519 C 353.875 285.527,357.202 286.745,358.260 287.227 C 359.318 287.709,362.528 288.908,365.392 289.892 C 368.256 290.875,370.780 291.812,371.000 291.972 C 371.394 292.260,375.112 293.632,381.400 295.811 C 383.160 296.421,384.800 297.074,385.044 297.262 C 385.288 297.450,386.278 297.857,387.244 298.167 C 390.949 299.353,396.063 301.209,397.773 301.988 C 398.754 302.434,399.656 302.800,399.778 302.800 C 399.900 302.800,400.000 297.420,400.000 290.843 L 400.000 278.887 398.956 278.625 C 398.382 278.481,397.167 278.029,396.256 277.620 C 394.493 276.830,390.864 275.482,386.049 273.827 C 384.426 273.269,382.896 272.648,382.649 272.447 C 382.402 272.246,381.300 271.806,380.200 271.469 C 376.979 270.484,371.147 268.380,369.207 267.505 C 368.221 267.060,365.170 265.909,362.426 264.947 C 359.683 263.985,357.259 263.019,357.039 262.799 C 356.820 262.580,356.271 262.397,355.820 262.394 C 355.159 262.389,355.114 262.316,355.588 262.016 C 356.308 261.560,356.050 261.292,355.095 261.504 M89.200 276.477 C 89.200 276.681,89.034 276.744,88.831 276.619 C 88.627 276.493,88.057 276.978,87.563 277.695 C 87.069 278.413,85.893 279.810,84.950 280.800 C 83.540 282.280,52.863 316.282,45.975 324.000 C 41.800 328.677,40.342 330.321,37.278 333.800 C 35.535 335.780,26.770 345.500,17.800 355.400 C 8.831 365.300,1.247 373.979,0.946 374.687 C 0.389 376.000,0.172 380.954,0.706 380.167 C 0.868 379.928,3.430 378.901,6.400 377.884 C 12.351 375.847,19.012 373.479,20.099 373.014 C 20.690 372.761,42.229 349.254,48.150 342.400 C 49.195 341.190,50.934 339.210,52.013 338.000 C 53.093 336.790,54.861 334.810,55.941 333.600 C 58.709 330.499,67.476 320.764,81.337 305.400 C 87.887 298.140,94.181 291.153,95.323 289.874 C 96.465 288.595,98.075 286.819,98.900 285.927 C 99.725 285.035,100.400 284.232,100.400 284.142 C 100.400 283.679,102.959 281.251,103.255 281.434 C 103.445 281.551,103.600 281.469,103.600 281.251 C 103.600 281.032,103.195 280.732,102.700 280.582 C 102.205 280.433,101.260 280.075,100.600 279.787 C 96.805 278.128,89.200 275.920,89.200 276.477 M75.000 354.898 C 73.680 355.358,72.792 355.797,73.027 355.876 C 73.262 355.954,74.612 355.573,76.027 355.029 C 79.144 353.830,78.358 353.730,75.000 354.898 M58.000 360.843 C 51.070 363.267,44.950 365.386,44.400 365.554 C 42.362 366.173,43.227 366.630,51.800 369.462 C 53.560 370.043,55.198 370.671,55.439 370.858 C 55.680 371.044,58.124 371.984,60.869 372.946 C 63.614 373.909,66.476 374.972,67.230 375.309 C 68.731 375.981,72.565 377.397,77.151 378.973 C 78.774 379.531,80.304 380.146,80.551 380.340 C 80.798 380.533,84.060 381.729,87.800 382.996 C 91.540 384.264,94.802 385.461,95.049 385.657 C 95.296 385.853,96.826 386.469,98.449 387.027 C 103.028 388.601,106.847 390.011,108.600 390.777 C 109.480 391.162,112.450 392.247,115.200 393.188 C 117.950 394.130,120.390 395.051,120.622 395.234 C 121.001 395.534,122.622 396.122,130.600 398.852 C 131.920 399.303,133.180 399.819,133.400 399.999 C 133.771 400.301,141.128 402.953,145.156 404.236 C 146.122 404.544,147.112 404.952,147.356 405.143 C 147.600 405.335,150.500 406.440,153.800 407.600 C 157.100 408.760,159.980 409.844,160.200 410.009 C 160.420 410.173,163.281 411.228,166.558 412.353 C 169.834 413.478,172.714 414.557,172.958 414.751 C 173.201 414.946,174.750 415.565,176.400 416.127 C 184.004 418.719,186.588 419.657,186.978 419.965 C 187.426 420.318,197.576 423.937,199.100 424.287 C 199.595 424.400,200.000 424.631,200.000 424.800 C 200.000 424.969,200.405 425.199,200.900 425.311 C 202.386 425.648,212.088 429.176,212.561 429.552 C 212.802 429.743,215.520 430.749,218.600 431.787 C 221.680 432.824,225.140 434.102,226.289 434.626 C 227.438 435.151,228.832 435.693,229.387 435.832 C 229.941 435.972,230.295 436.246,230.174 436.443 C 229.887 436.906,230.107 436.893,231.474 436.366 C 232.093 436.127,234.864 435.247,237.632 434.411 C 240.400 433.575,243.010 432.697,243.432 432.459 C 244.156 432.051,255.565 428.363,256.752 428.153 C 257.803 427.967,258.228 427.200,257.280 427.200 C 256.796 427.200,256.400 427.043,256.400 426.850 C 256.400 426.658,255.873 426.395,255.229 426.266 C 254.586 426.137,253.281 425.668,252.329 425.223 C 250.540 424.385,242.462 421.437,240.000 420.723 C 239.230 420.500,238.395 420.150,238.145 419.947 C 237.764 419.637,234.781 418.528,226.200 415.506 C 225.540 415.274,224.820 414.956,224.600 414.800 C 224.380 414.643,223.840 414.416,223.400 414.294 C 221.538 413.779,212.241 410.368,211.839 410.053 C 211.598 409.863,208.610 408.756,205.200 407.592 C 201.790 406.428,198.820 405.349,198.600 405.195 C 198.212 404.923,196.551 404.303,189.000 401.611 C 187.020 400.905,184.680 400.010,183.800 399.623 C 182.920 399.235,179.950 398.146,177.200 397.202 C 174.450 396.258,172.010 395.339,171.778 395.159 C 171.364 394.838,165.527 392.732,162.826 391.930 C 162.071 391.705,160.462 391.069,159.251 390.515 C 158.040 389.961,154.698 388.700,151.825 387.714 C 148.951 386.727,146.420 385.788,146.200 385.628 C 145.980 385.467,144.360 384.836,142.600 384.225 C 136.251 382.023,132.592 380.658,132.156 380.330 C 131.912 380.146,130.922 379.743,129.956 379.433 C 126.504 378.328,121.057 376.370,119.839 375.796 C 118.451 375.142,110.160 372.150,108.000 371.523 C 107.230 371.300,106.395 370.950,106.145 370.747 C 105.734 370.413,97.473 367.370,94.000 366.274 C 93.230 366.031,92.510 365.721,92.400 365.584 C 92.290 365.448,89.680 364.474,86.600 363.420 C 83.520 362.366,80.640 361.285,80.200 361.017 C 79.760 360.750,77.420 359.848,75.000 359.013 C 70.016 357.294,70.011 357.291,70.812 356.784 C 72.079 355.983,70.150 356.594,58.000 360.843 " stroke="none" fill="#bc142c" fill-rule="evenodd"></path><path id="path7" d="M397.994 247.366 C 397.755 247.605,397.598 247.611,397.594 247.380 C 397.591 247.171,397.453 247.211,397.289 247.470 C 397.124 247.728,396.452 247.998,395.795 248.070 C 395.138 248.141,394.489 248.352,394.354 248.537 C 394.218 248.722,393.408 248.965,392.554 249.077 C 391.699 249.188,390.654 249.577,390.231 249.940 C 389.808 250.303,389.594 250.375,389.755 250.100 C 389.939 249.786,389.807 249.600,389.400 249.600 C 389.008 249.600,388.867 249.784,389.042 250.068 C 389.238 250.385,389.111 250.452,388.650 250.275 C 388.227 250.112,387.883 250.240,387.739 250.614 C 387.613 250.944,387.304 251.182,387.054 251.143 C 386.805 251.104,386.060 251.309,385.400 251.598 C 384.740 251.888,383.753 252.199,383.207 252.289 C 382.662 252.379,382.079 252.665,381.914 252.926 C 381.689 253.280,381.611 253.269,381.606 252.886 C 381.601 252.472,381.425 252.469,380.700 252.870 C 380.205 253.144,379.599 253.328,379.353 253.279 C 379.108 253.230,378.690 253.451,378.424 253.771 C 378.159 254.091,377.655 254.243,377.305 254.108 C 376.849 253.933,376.761 254.014,376.996 254.394 C 377.218 254.753,377.169 254.828,376.844 254.627 C 376.581 254.464,376.089 254.560,375.752 254.840 C 375.252 255.255,375.064 255.243,374.735 254.774 C 374.424 254.333,374.376 254.407,374.526 255.093 C 374.702 255.898,374.637 255.941,373.861 255.528 C 373.084 255.114,373.054 255.134,373.549 255.735 C 373.851 256.101,374.251 256.400,374.437 256.400 C 374.624 256.400,375.756 256.848,376.954 257.396 C 378.152 257.944,381.712 259.297,384.866 260.404 C 388.020 261.510,391.176 262.686,391.879 263.017 C 392.962 263.526,399.598 265.992,399.900 265.998 C 399.955 265.999,400.000 261.691,400.000 256.425 C 400.000 246.307,399.828 245.532,397.994 247.366 M106.200 287.536 C 104.000 290.072,101.666 292.699,101.014 293.373 C 100.361 294.048,98.924 295.680,97.820 297.000 C 95.279 300.036,57.768 341.580,55.378 344.004 C 54.400 344.996,53.602 345.986,53.605 346.204 C 53.607 346.422,52.886 347.320,52.002 348.200 C 50.474 349.721,35.168 366.691,34.087 368.063 C 33.448 368.873,34.314 368.606,55.600 361.427 C 64.290 358.496,100.241 346.491,135.490 334.749 C 170.740 323.007,199.585 313.213,199.590 312.984 C 199.596 312.755,197.305 311.866,194.500 311.008 C 191.695 310.150,188.958 309.167,188.418 308.824 C 187.877 308.481,187.337 308.222,187.218 308.249 C 187.098 308.276,186.820 308.238,186.600 308.164 C 186.380 308.090,183.680 307.273,180.600 306.347 C 177.520 305.421,174.875 304.475,174.722 304.243 C 174.569 304.012,174.318 303.948,174.166 304.101 C 174.013 304.254,173.418 304.117,172.844 303.796 C 172.270 303.476,169.128 302.409,165.863 301.425 C 162.597 300.441,159.717 299.469,159.463 299.264 C 159.208 299.060,155.850 297.944,152.000 296.785 C 148.150 295.625,144.604 294.420,144.121 294.106 C 143.638 293.792,143.145 293.545,143.025 293.557 C 142.906 293.569,142.582 293.509,142.304 293.425 C 142.027 293.341,139.730 292.642,137.200 291.872 C 134.670 291.102,132.150 290.342,131.600 290.182 C 131.050 290.023,130.494 289.727,130.364 289.526 C 130.234 289.324,129.694 289.102,129.164 289.032 C 128.634 288.963,127.930 288.795,127.600 288.660 C 126.687 288.286,118.350 285.680,117.100 285.379 C 116.495 285.233,116.000 284.923,116.000 284.690 C 116.000 284.457,115.895 284.371,115.767 284.499 C 115.639 284.627,114.919 284.475,114.167 284.161 C 113.415 283.846,112.800 283.704,112.800 283.844 C 112.800 283.984,112.526 283.870,112.190 283.592 C 111.855 283.314,111.467 283.200,111.327 283.340 C 111.188 283.479,110.877 283.443,110.637 283.259 C 110.357 283.045,108.759 284.586,106.200 287.536 M25.600 371.707 C 22.589 372.623,3.322 379.129,2.021 379.669 L 0.642 380.242 4.021 381.338 C 5.879 381.941,7.670 382.546,8.000 382.682 C 8.330 382.819,8.735 382.969,8.900 383.015 C 9.065 383.062,9.290 383.145,9.400 383.200 C 9.510 383.255,9.735 383.338,9.900 383.385 C 10.065 383.431,10.470 383.584,10.800 383.724 C 11.587 384.058,18.200 386.118,18.200 386.029 C 18.200 385.991,19.460 386.444,21.000 387.036 C 22.540 387.627,24.070 388.151,24.400 388.199 C 24.730 388.247,25.510 388.494,26.133 388.746 C 26.757 388.999,28.197 389.490,29.333 389.839 C 30.470 390.187,31.760 390.606,32.200 390.770 C 35.001 391.816,38.303 392.876,38.900 392.920 C 39.285 392.948,39.600 393.113,39.600 393.286 C 39.600 393.459,39.858 393.600,40.174 393.600 C 40.490 393.600,41.165 393.758,41.674 393.952 C 42.183 394.146,42.734 394.328,42.898 394.357 C 43.062 394.386,44.160 394.770,45.338 395.211 C 46.516 395.652,48.531 396.286,49.817 396.621 C 51.102 396.956,52.382 397.419,52.660 397.649 C 52.938 397.880,53.337 397.962,53.548 397.832 C 53.759 397.702,53.992 397.771,54.066 397.986 C 54.140 398.201,54.560 398.442,55.000 398.522 C 55.440 398.602,56.250 398.854,56.800 399.082 C 57.350 399.310,58.790 399.784,60.000 400.136 C 65.922 401.857,68.221 402.617,68.445 402.928 C 68.579 403.115,68.812 403.234,68.962 403.193 C 69.112 403.151,69.722 403.302,70.317 403.529 C 70.913 403.755,73.830 404.692,76.800 405.611 C 79.770 406.530,82.650 407.473,83.200 407.707 C 83.750 407.941,84.380 408.187,84.600 408.254 C 84.820 408.321,86.491 408.905,88.312 409.552 C 90.134 410.199,91.754 410.745,91.912 410.765 C 92.606 410.854,96.237 412.135,96.600 412.419 C 96.820 412.591,97.138 412.734,97.307 412.736 C 98.042 412.745,100.235 413.319,100.600 413.598 C 100.820 413.767,102.890 414.477,105.200 415.176 C 107.510 415.875,110.279 416.797,111.353 417.224 C 112.428 417.651,113.538 418.000,113.821 418.000 C 114.104 418.000,114.845 418.259,115.468 418.575 C 116.540 419.120,118.579 419.775,124.300 421.411 C 125.675 421.805,126.800 422.286,126.800 422.481 C 126.800 422.676,127.025 422.798,127.300 422.753 C 127.575 422.708,128.340 422.898,129.000 423.176 C 129.660 423.453,130.380 423.723,130.600 423.777 C 130.820 423.831,131.540 424.007,132.200 424.169 C 132.860 424.330,133.760 424.618,134.200 424.808 C 134.640 424.998,136.395 425.559,138.100 426.053 C 139.805 426.548,141.200 427.099,141.200 427.277 C 141.200 427.454,141.569 427.600,142.020 427.600 C 142.471 427.600,143.326 427.848,143.920 428.152 C 144.514 428.455,145.630 428.826,146.400 428.975 C 147.170 429.124,148.160 429.403,148.600 429.595 C 149.040 429.787,150.750 430.340,152.400 430.824 C 154.050 431.308,155.597 431.860,155.837 432.049 C 156.077 432.238,156.377 432.290,156.503 432.164 C 156.628 432.038,157.152 432.168,157.666 432.453 C 158.180 432.738,158.690 432.994,158.800 433.020 C 158.910 433.047,159.360 433.205,159.800 433.372 C 161.209 433.905,162.530 434.325,165.600 435.214 C 167.250 435.692,169.140 436.287,169.800 436.537 C 170.460 436.786,171.135 436.947,171.300 436.895 C 171.465 436.843,171.600 436.973,171.600 437.185 C 171.600 437.499,173.403 438.182,175.400 438.623 C 175.620 438.672,176.880 439.074,178.200 439.516 C 179.520 439.959,181.770 440.641,183.200 441.032 C 184.630 441.422,185.908 441.902,186.040 442.098 C 186.172 442.293,186.532 442.504,186.840 442.566 C 187.148 442.628,187.670 442.788,188.000 442.921 C 188.330 443.054,189.680 443.460,191.000 443.822 C 192.320 444.185,194.709 444.913,196.308 445.441 C 200.067 446.680,200.564 446.655,205.800 444.964 C 208.220 444.182,210.646 443.454,211.191 443.347 C 211.737 443.239,212.319 442.937,212.485 442.676 C 212.652 442.414,212.791 442.357,212.794 442.549 C 212.797 442.741,213.062 442.680,213.382 442.415 C 213.703 442.149,214.134 442.036,214.341 442.163 C 214.644 442.351,215.200 441.597,215.200 440.998 C 215.200 440.923,214.525 440.645,213.700 440.379 C 212.875 440.113,211.996 439.735,211.747 439.538 C 211.497 439.341,208.673 438.293,205.469 437.210 C 202.266 436.127,198.784 434.848,197.731 434.369 C 196.678 433.889,193.472 432.690,190.608 431.705 C 187.744 430.721,185.310 429.797,185.200 429.653 C 185.090 429.509,182.660 428.602,179.800 427.637 C 176.940 426.672,173.634 425.444,172.453 424.908 C 171.272 424.372,169.562 423.694,168.653 423.402 C 164.748 422.147,159.811 420.342,159.422 420.026 C 159.190 419.838,157.380 419.137,155.400 418.468 C 147.766 415.889,145.773 415.173,145.012 414.736 C 144.579 414.487,142.056 413.523,139.405 412.594 C 136.754 411.665,133.779 410.544,132.793 410.103 C 131.807 409.663,128.480 408.443,125.400 407.394 C 122.320 406.344,119.611 405.339,119.380 405.160 C 119.149 404.981,116.089 403.838,112.580 402.620 C 109.071 401.402,105.750 400.159,105.200 399.858 C 104.650 399.557,101.950 398.544,99.200 397.608 C 96.450 396.671,93.840 395.711,93.400 395.475 C 92.621 395.056,89.297 393.837,83.200 391.736 C 81.550 391.168,80.011 390.552,79.779 390.368 C 79.385 390.055,73.143 387.818,69.281 386.606 C 68.336 386.310,67.346 385.895,67.081 385.686 C 66.632 385.329,59.189 382.610,55.244 381.360 C 54.278 381.055,53.288 380.644,53.044 380.449 C 52.800 380.253,50.350 379.324,47.600 378.385 C 44.850 377.446,41.700 376.272,40.600 375.778 C 38.107 374.657,28.039 371.186,27.441 371.241 C 27.199 371.263,26.370 371.473,25.600 371.707 " stroke="none" fill="#a51332" fill-rule="evenodd"></path><path id="path8" d="M351.745 108.015 C 351.517 108.243,350.840 108.518,350.239 108.627 C 349.639 108.736,347.849 109.249,346.262 109.767 C 344.674 110.285,342.256 111.023,340.888 111.407 C 339.520 111.791,338.400 112.270,338.400 112.470 C 338.400 112.671,338.175 112.798,337.900 112.753 C 337.625 112.708,336.893 112.881,336.274 113.136 C 335.655 113.391,334.930 113.600,334.663 113.600 C 334.396 113.600,333.802 113.864,333.342 114.186 C 332.881 114.508,332.406 114.673,332.285 114.552 C 332.164 114.431,331.875 114.686,331.643 115.120 C 331.270 115.817,331.392 115.955,332.711 116.314 C 334.937 116.922,343.294 119.918,344.117 120.405 C 344.512 120.638,347.392 121.725,350.517 122.822 C 353.643 123.918,356.740 125.064,357.400 125.367 C 358.060 125.671,361.030 126.771,364.000 127.813 C 366.970 128.855,369.600 129.864,369.844 130.056 C 370.088 130.247,371.078 130.655,372.044 130.962 C 375.487 132.055,382.229 134.498,383.959 135.279 C 384.927 135.716,386.457 136.311,387.359 136.601 C 391.265 137.857,396.190 139.659,396.578 139.974 C 396.810 140.163,397.675 140.501,398.500 140.726 L 400.000 141.136 400.000 133.987 C 400.000 124.677,400.470 125.434,393.074 122.833 C 389.733 121.658,386.810 120.547,386.578 120.365 C 386.346 120.182,384.636 119.510,382.778 118.872 C 374.295 115.961,372.975 115.483,372.600 115.188 C 372.380 115.014,371.120 114.503,369.800 114.052 C 361.853 111.333,360.201 110.735,359.822 110.444 C 358.879 109.719,353.227 107.936,352.769 108.219 C 352.453 108.415,352.379 108.358,352.562 108.062 C 352.917 107.488,352.308 107.452,351.745 108.015 M126.077 134.363 C 126.145 134.638,123.410 136.738,120.000 139.032 C 116.590 141.325,110.680 145.316,106.866 147.901 C 103.052 150.485,99.722 152.673,99.466 152.763 C 99.210 152.852,95.910 155.057,92.133 157.663 C 88.356 160.268,85.153 162.400,85.016 162.400 C 84.879 162.400,81.639 164.560,77.816 167.200 C 73.993 169.840,70.755 172.000,70.619 172.000 C 70.483 172.000,67.235 174.160,63.400 176.800 C 59.565 179.440,56.337 181.600,56.226 181.600 C 55.984 181.600,43.685 189.745,34.054 196.284 C 30.234 198.878,26.904 201.074,26.654 201.163 C 26.404 201.253,23.101 203.458,19.314 206.063 C 15.527 208.669,12.322 210.800,12.193 210.800 C 12.065 210.800,9.588 212.427,6.690 214.415 C 2.260 217.456,1.382 217.920,1.176 217.332 C 0.905 216.560,0.397 220.657,0.405 223.559 C 0.410 225.823,0.689 225.980,9.400 228.605 C 12.700 229.599,15.971 230.682,16.668 231.010 C 17.366 231.339,20.606 232.417,23.868 233.407 C 27.131 234.397,29.980 235.272,30.200 235.352 C 30.420 235.432,30.760 235.506,30.955 235.515 C 31.151 235.524,31.421 235.698,31.555 235.902 C 31.690 236.106,34.950 237.230,38.800 238.400 C 42.650 239.570,45.910 240.694,46.045 240.898 C 46.179 241.102,46.449 241.276,46.645 241.285 C 46.840 241.294,47.180 241.360,47.400 241.432 C 47.620 241.503,50.500 242.379,53.800 243.378 C 57.100 244.377,60.148 245.398,60.573 245.646 C 60.999 245.895,62.439 246.420,63.773 246.813 C 70.446 248.779,75.318 250.400,75.830 250.825 C 76.144 251.085,76.400 251.184,76.400 251.044 C 76.400 250.904,77.019 251.048,77.776 251.364 C 78.533 251.681,81.638 252.694,84.676 253.616 C 87.714 254.537,90.380 255.432,90.600 255.604 C 90.820 255.776,93.970 256.834,97.600 257.956 C 101.230 259.077,104.531 260.187,104.935 260.423 C 105.340 260.658,108.580 261.737,112.135 262.820 C 115.691 263.902,118.870 264.943,119.200 265.132 C 119.530 265.320,122.500 266.320,125.800 267.352 C 129.100 268.384,132.751 269.602,133.914 270.059 C 135.077 270.515,139.037 271.842,142.714 273.007 C 146.391 274.172,150.316 275.477,151.436 275.905 C 152.556 276.334,155.706 277.361,158.436 278.187 C 161.166 279.014,163.580 279.834,163.800 280.008 C 164.020 280.183,167.170 281.243,170.800 282.363 C 174.430 283.483,177.673 284.555,178.007 284.745 C 178.518 285.036,181.612 286.041,192.000 289.290 C 192.770 289.531,193.470 289.684,193.555 289.630 C 193.641 289.576,193.821 289.700,193.955 289.906 C 195.201 291.809,200.846 292.257,204.871 290.772 C 206.702 290.097,209.578 289.100,211.263 288.558 C 213.853 287.724,215.753 286.400,214.360 286.400 C 213.764 286.400,203.993 282.887,202.800 282.244 C 202.250 281.947,200.630 281.313,199.200 280.834 C 195.788 279.690,191.206 278.029,190.200 277.572 C 189.086 277.065,184.805 275.493,181.000 274.195 C 179.240 273.594,177.350 272.858,176.800 272.560 C 175.854 272.046,173.748 271.280,166.800 268.923 C 165.150 268.363,163.603 267.748,163.362 267.555 C 162.967 267.239,157.359 265.221,152.844 263.769 C 151.878 263.458,150.888 263.047,150.644 262.856 C 150.400 262.664,147.770 261.658,144.800 260.621 C 141.830 259.583,138.680 258.410,137.800 258.014 C 136.920 257.617,133.500 256.353,130.200 255.203 C 126.900 254.053,124.020 252.970,123.800 252.795 C 123.580 252.621,122.320 252.113,121.000 251.667 C 114.770 249.561,111.407 248.340,111.022 248.044 C 110.790 247.866,108.350 246.949,105.600 246.007 C 102.850 245.064,99.880 243.974,99.000 243.583 C 98.120 243.193,95.780 242.295,93.800 241.589 C 86.182 238.873,84.587 238.276,84.200 237.995 C 83.980 237.835,81.010 236.754,77.600 235.592 C 74.190 234.431,71.198 233.324,70.951 233.134 C 70.704 232.943,69.174 232.331,67.551 231.773 C 62.972 230.199,59.153 228.789,57.400 228.023 C 56.520 227.638,53.550 226.553,50.800 225.612 C 48.050 224.670,45.600 223.741,45.356 223.548 C 45.112 223.354,44.122 222.945,43.156 222.638 C 39.614 221.513,32.196 218.773,30.594 217.997 C 29.689 217.559,28.734 217.200,28.474 217.200 C 25.080 217.200,34.302 213.821,69.000 202.351 C 77.140 199.660,83.857 197.320,83.926 197.152 C 83.995 196.983,84.340 196.955,84.691 197.090 C 85.118 197.254,85.234 197.179,85.040 196.865 C 84.869 196.589,85.048 196.284,85.475 196.126 C 85.874 195.979,89.290 193.730,93.067 191.129 C 96.844 188.528,100.045 186.400,100.181 186.400 C 100.317 186.400,103.565 184.240,107.400 181.600 C 111.235 178.960,114.475 176.800,114.601 176.800 C 114.726 176.800,117.738 174.797,121.293 172.348 C 124.849 169.899,128.570 167.443,129.562 166.889 C 130.555 166.335,133.904 164.133,137.005 161.997 C 140.105 159.860,143.083 157.878,143.621 157.592 C 144.160 157.307,147.699 154.941,151.486 152.336 C 155.273 149.731,158.513 147.595,158.686 147.589 C 158.859 147.583,159.720 147.021,160.600 146.339 C 162.069 145.203,162.110 145.122,161.100 145.358 C 160.495 145.500,160.000 145.460,160.000 145.271 C 160.000 144.957,157.565 144.040,155.926 143.737 C 155.555 143.669,154.230 143.161,152.981 142.608 C 151.732 142.056,147.732 140.687,144.094 139.567 C 140.455 138.447,137.190 137.372,136.839 137.179 C 135.377 136.375,129.528 134.725,128.807 134.914 C 128.365 135.030,128.065 134.929,128.114 134.683 C 128.161 134.443,127.864 134.175,127.453 134.085 C 126.912 133.968,126.795 134.072,127.029 134.462 C 127.280 134.878,127.195 134.871,126.654 134.432 C 126.153 134.026,125.990 134.006,126.077 134.363 M136.200 179.814 C 135.200 180.296,135.166 180.351,136.000 180.148 C 137.133 179.871,138.407 179.221,137.800 179.230 C 137.580 179.233,136.860 179.496,136.200 179.814 M120.075 185.073 C 119.126 185.409,118.421 185.754,118.507 185.841 C 118.690 186.023,122.400 184.805,122.400 184.562 C 122.400 184.312,121.945 184.412,120.075 185.073 M88.475 195.473 C 86.866 196.029,85.620 196.553,85.704 196.638 C 85.789 196.723,87.376 196.268,89.229 195.626 C 91.083 194.985,92.330 194.461,92.000 194.462 C 91.670 194.462,90.084 194.918,88.475 195.473 " stroke="none" fill="#1079b7" fill-rule="evenodd"></path></g></svg>