<svg id="svg" version="1.1" xmlns="http://www.w3.org/2000/svg" xmlns:xlink="http://www.w3.org/1999/xlink" width="400" height="397.39413680781763" viewBox="0, 0, 400,397.39413680781763"><g id="svgg"><path id="path0" d="M77.932 36.613 C 53.862 38.908,44.385 55.577,44.381 95.626 C 44.376 139.233,55.766 156.033,85.201 155.838 C 109.284 155.678,121.389 143.923,122.334 119.776 L 122.572 113.707 109.696 113.812 L 96.819 113.917 96.590 119.682 C 96.124 131.363,93.295 135.695,85.760 136.265 C 74.055 137.151,70.378 127.530,70.378 96.024 C 70.378 64.959,73.671 55.843,84.883 55.877 C 93.191 55.902,96.130 60.352,96.210 73.029 C 96.232 76.622,95.173 76.342,108.758 76.342 L 120.812 76.342 121.081 75.114 C 121.447 73.450,120.972 67.505,120.068 62.425 C 117.771 49.514,112.580 42.807,101.590 38.547 C 96.855 36.711,86.115 35.833,77.932 36.613 M191.252 36.623 C 187.370 36.962,183.262 37.845,181.053 38.814 C 180.364 39.116,179.631 39.364,179.423 39.364 C 179.216 39.364,177.846 40.001,176.378 40.780 C 162.021 48.399,156.661 65.728,157.631 101.392 C 158.572 136.010,166.306 151.965,183.729 155.226 C 195.736 157.474,205.889 153.403,211.332 144.160 C 212.475 142.219,213.121 143.859,213.121 148.702 C 213.121 154.805,212.056 154.309,224.900 154.182 L 235.586 154.076 235.586 123.260 L 235.586 92.445 216.944 92.342 C 203.510 92.267,198.150 92.364,197.759 92.689 C 197.083 93.250,196.966 108.531,197.628 109.768 C 198.009 110.478,198.518 110.537,204.339 110.537 C 212.259 110.537,211.678 109.910,211.432 118.189 C 211.019 132.061,204.519 138.802,194.399 135.852 C 185.916 133.379,183.897 126.104,183.897 98.012 C 183.897 64.406,186.925 55.824,198.763 55.888 C 207.040 55.932,210.000 59.651,210.613 70.775 C 210.955 76.965,209.548 76.371,223.576 76.248 L 235.586 76.143 235.555 70.577 C 235.407 44.871,221.224 34.001,191.252 36.623 M308.549 38.165 C 292.522 40.559,281.675 51.553,278.924 68.191 C 278.779 69.066,278.506 70.318,278.317 70.974 C 275.893 79.393,275.935 112.450,278.385 123.459 C 280.802 134.319,282.726 139.094,286.879 144.533 C 293.471 153.166,302.860 157.058,317.097 157.058 C 341.471 157.058,352.746 146.461,354.690 121.725 C 355.094 116.588,355.084 115.561,354.623 115.270 C 353.441 114.521,329.688 114.837,329.293 115.606 C 329.096 115.989,328.831 118.807,328.704 121.869 C 328.248 132.887,325.585 136.873,318.036 137.837 C 306.802 139.271,302.602 128.272,302.602 97.416 C 302.602 66.604,305.983 57.256,317.125 57.256 C 325.305 57.256,328.429 61.810,328.429 73.730 C 328.429 75.726,328.613 77.162,328.907 77.455 C 329.848 78.397,352.562 78.108,353.076 77.148 C 353.578 76.209,352.995 66.102,352.261 63.022 C 348.672 47.965,343.213 42.207,329.225 38.728 C 326.277 37.995,312.245 37.613,308.549 38.165 " stroke="none" fill="#ffffff" fill-rule="evenodd"></path><path id="path1" d="M0.000 99.006 L 0.000 198.012 200.000 198.012 L 400.000 198.012 400.000 99.006 L 400.000 0.000 200.000 0.000 L 0.000 0.000 0.000 99.006 M94.235 36.161 C 99.182 36.969,101.823 37.575,102.896 38.148 C 103.271 38.348,104.473 38.916,105.567 39.409 C 111.666 42.163,116.838 48.232,119.248 55.467 C 121.146 61.163,122.599 73.698,121.651 76.193 L 121.292 77.137 108.767 77.137 L 96.241 77.137 95.675 76.243 C 95.274 75.609,95.061 73.643,94.947 69.517 C 94.857 66.291,94.598 63.448,94.366 63.155 C 94.135 62.863,93.838 62.169,93.706 61.612 C 92.381 56.043,82.036 54.551,77.486 59.273 C 72.258 64.698,69.868 83.246,71.321 107.118 C 72.677 129.393,75.555 135.374,84.910 135.357 C 92.827 135.342,95.206 131.555,96.133 117.495 L 96.421 113.121 109.495 113.016 C 124.958 112.892,123.856 112.556,123.511 117.287 C 123.059 123.482,122.565 127.814,122.115 129.523 C 121.870 130.452,121.475 131.973,121.236 132.903 C 119.015 141.550,113.625 148.526,106.281 152.258 C 102.318 154.272,99.361 155.130,92.445 156.273 C 89.836 156.705,79.817 156.706,77.535 156.275 C 76.551 156.089,74.583 155.731,73.161 155.480 C 71.740 155.229,70.407 154.855,70.199 154.649 C 69.991 154.443,69.521 154.274,69.155 154.274 C 66.745 154.274,59.568 149.807,56.208 146.214 C 47.470 136.873,44.340 125.611,43.504 100.497 C 42.347 65.727,50.456 43.548,66.078 38.754 C 66.584 38.598,67.177 38.330,67.396 38.158 C 67.614 37.986,68.509 37.716,69.384 37.558 C 70.258 37.401,71.154 37.131,71.374 36.959 C 71.593 36.786,73.293 36.437,75.150 36.183 C 77.008 35.928,78.602 35.645,78.694 35.554 C 79.182 35.066,90.155 35.494,94.235 36.161 M208.068 36.015 C 210.722 36.360,213.168 36.784,213.504 36.957 C 213.840 37.130,214.808 37.396,215.655 37.549 C 216.502 37.703,217.486 37.982,217.842 38.170 C 218.198 38.358,219.384 38.917,220.477 39.411 C 224.124 41.062,226.997 43.341,229.440 46.521 C 232.289 50.228,233.087 52.016,235.385 59.841 C 236.551 63.813,237.133 76.139,236.183 76.745 C 235.145 77.407,211.301 77.248,210.628 76.575 C 210.236 76.183,209.984 74.500,209.799 71.034 C 209.226 60.318,206.228 56.454,198.494 56.465 C 192.005 56.475,188.291 60.599,186.323 69.980 C 183.339 84.200,184.104 121.430,187.514 127.966 C 187.818 128.549,188.068 129.217,188.069 129.451 C 188.073 130.188,190.902 133.220,192.603 134.310 C 194.826 135.736,200.844 135.846,203.380 134.508 C 208.539 131.785,210.717 126.539,210.729 116.799 L 210.736 111.332 204.203 111.332 C 198.795 111.332,197.564 111.224,197.046 110.707 C 195.977 109.638,196.128 92.938,197.217 91.849 C 198.265 90.801,234.594 90.585,236.008 91.618 C 236.991 92.337,237.432 151.985,236.468 153.877 L 235.961 154.871 224.689 154.976 C 211.321 155.102,212.326 155.483,212.326 150.282 C 212.326 145.037,212.145 144.672,210.597 146.806 C 208.997 149.011,207.268 150.706,205.112 152.184 C 201.968 154.340,199.851 155.198,195.030 156.271 C 192.977 156.728,186.347 156.728,184.294 156.271 C 181.287 155.602,179.296 155.059,178.615 154.723 C 178.239 154.538,176.889 153.869,175.615 153.237 C 168.572 149.744,162.094 140.028,159.869 129.622 C 159.659 128.638,159.316 127.028,159.108 126.044 C 155.333 108.188,156.187 69.825,160.590 59.443 C 160.776 59.006,161.337 57.575,161.837 56.262 C 166.075 45.152,175.940 37.730,188.574 36.146 C 190.365 35.922,191.909 35.659,192.005 35.563 C 192.437 35.131,203.711 35.448,208.068 36.015 M322.266 37.009 C 337.422 38.671,344.875 42.890,349.625 52.495 C 352.498 58.304,354.686 69.574,354.217 76.143 L 354.076 78.131 341.306 78.236 C 331.384 78.318,328.450 78.229,328.151 77.838 C 327.940 77.562,327.545 74.512,327.275 71.060 C 326.459 60.653,324.110 57.644,316.809 57.658 C 311.028 57.669,304.973 64.864,304.970 71.725 C 304.970 72.187,304.674 73.907,304.312 75.547 C 303.335 79.984,303.335 114.847,304.312 119.284 C 304.674 120.924,304.970 122.640,304.970 123.097 C 304.971 126.493,308.249 133.060,311.091 135.360 C 313.903 137.636,321.781 137.066,324.453 134.394 C 326.676 132.171,328.030 126.855,328.038 120.314 C 328.041 117.670,328.213 115.239,328.421 114.911 C 328.897 114.156,353.708 113.784,355.066 114.511 C 356.082 115.055,356.179 119.957,355.268 124.717 C 354.940 126.431,354.672 128.354,354.672 128.991 C 354.672 137.905,345.738 150.762,336.978 154.456 C 327.663 158.383,309.849 159.113,301.705 155.900 C 297.467 154.228,296.091 153.559,293.837 152.072 C 288.830 148.770,285.035 144.299,282.208 138.370 C 279.646 132.998,278.621 129.602,277.525 122.863 C 277.294 121.441,276.918 119.294,276.689 118.091 C 275.560 112.160,275.560 81.884,276.689 75.944 C 276.918 74.742,277.278 72.684,277.489 71.372 C 280.166 54.741,287.620 44.059,299.602 39.679 C 304.132 38.024,304.978 37.818,309.145 37.354 C 311.332 37.111,313.195 36.838,313.287 36.746 C 313.598 36.435,318.283 36.572,322.266 37.009 " stroke="none" fill="#221f1f" fill-rule="evenodd"></path><path id="path2" d="M78.694 35.554 C 78.602 35.645,77.008 35.928,75.150 36.183 C 73.293 36.437,71.593 36.786,71.374 36.959 C 71.154 37.131,70.258 37.401,69.384 37.558 C 68.509 37.716,67.614 37.986,67.396 38.158 C 67.177 38.330,66.584 38.598,66.078 38.754 C 50.456 43.548,42.347 65.727,43.504 100.497 C 44.340 125.611,47.470 136.873,56.208 146.214 C 59.568 149.807,66.745 154.274,69.155 154.274 C 69.521 154.274,69.991 154.443,70.199 154.649 C 70.407 154.855,71.740 155.229,73.161 155.480 C 74.583 155.731,76.551 156.089,77.535 156.275 C 79.817 156.706,89.836 156.705,92.445 156.273 C 99.361 155.130,102.318 154.272,106.281 152.258 C 113.625 148.526,119.015 141.550,121.236 132.903 C 121.475 131.973,121.870 130.452,122.115 129.523 C 122.565 127.814,123.059 123.482,123.511 117.287 C 123.856 112.556,124.958 112.892,109.495 113.016 L 96.421 113.121 96.133 117.495 C 95.206 131.555,92.827 135.342,84.910 135.357 C 75.555 135.374,72.677 129.393,71.321 107.118 C 69.868 83.246,72.258 64.698,77.486 59.273 C 82.036 54.551,92.381 56.043,93.706 61.612 C 93.838 62.169,94.135 62.863,94.366 63.155 C 94.598 63.448,94.857 66.291,94.947 69.517 C 95.061 73.643,95.274 75.609,95.675 76.243 L 96.241 77.137 108.767 77.137 L 121.292 77.137 121.651 76.193 C 122.599 73.698,121.146 61.163,119.248 55.467 C 116.838 48.232,111.666 42.163,105.567 39.409 C 104.473 38.916,103.271 38.348,102.896 38.148 C 99.752 36.470,79.905 34.343,78.694 35.554 M192.005 35.563 C 191.909 35.659,190.365 35.922,188.574 36.146 C 175.940 37.730,166.075 45.152,161.837 56.262 C 161.337 57.575,160.776 59.006,160.590 59.443 C 156.187 69.825,155.333 108.188,159.108 126.044 C 159.316 127.028,159.659 128.638,159.869 129.622 C 162.094 140.028,168.572 149.744,175.615 153.237 C 176.889 153.869,178.239 154.538,178.615 154.723 C 179.296 155.059,181.287 155.602,184.294 156.271 C 190.738 157.706,199.593 155.967,205.112 152.184 C 207.268 150.706,208.997 149.011,210.597 146.806 C 212.145 144.672,212.326 145.037,212.326 150.282 C 212.326 155.483,211.321 155.102,224.689 154.976 L 235.961 154.871 236.468 153.877 C 237.432 151.985,236.991 92.337,236.008 91.618 C 234.594 90.585,198.265 90.801,197.217 91.849 C 196.128 92.938,195.977 109.638,197.046 110.707 C 197.564 111.224,198.795 111.332,204.203 111.332 L 210.736 111.332 210.729 116.799 C 210.717 126.539,208.539 131.785,203.380 134.508 C 200.844 135.846,194.826 135.736,192.603 134.310 C 190.902 133.220,188.073 130.188,188.069 129.451 C 188.068 129.217,187.818 128.549,187.514 127.966 C 184.104 121.430,183.339 84.200,186.323 69.980 C 188.291 60.599,192.005 56.475,198.494 56.465 C 206.228 56.454,209.226 60.318,209.799 71.034 C 209.984 74.500,210.236 76.183,210.628 76.575 C 211.301 77.248,235.145 77.407,236.183 76.745 C 237.133 76.139,236.551 63.813,235.385 59.841 C 233.087 52.016,232.289 50.228,229.440 46.521 C 226.997 43.341,224.124 41.062,220.477 39.411 C 219.384 38.917,218.198 38.358,217.842 38.170 C 217.486 37.982,216.502 37.703,215.655 37.549 C 214.808 37.396,213.840 37.130,213.504 36.957 C 211.611 35.984,192.803 34.765,192.005 35.563 M90.526 36.577 C 97.667 37.133,100.210 37.789,105.765 40.511 C 112.028 43.579,116.218 48.690,118.679 56.262 C 120.180 60.880,121.659 72.485,121.081 75.114 L 120.812 76.342 108.758 76.342 C 95.173 76.342,96.232 76.622,96.210 73.029 C 96.130 60.352,93.191 55.902,84.883 55.877 C 73.671 55.843,70.378 64.959,70.378 96.024 C 70.378 127.530,74.055 137.151,85.760 136.265 C 93.295 135.695,96.124 131.363,96.590 119.682 L 96.819 113.917 109.696 113.812 L 122.572 113.707 122.334 119.776 C 121.819 132.945,117.790 142.843,110.633 148.526 C 98.391 158.246,72.261 158.302,60.024 148.634 C 48.633 139.633,44.378 125.216,44.381 95.626 C 44.386 49.882,56.831 33.957,90.526 36.577 M204.783 36.578 C 225.731 38.089,235.430 48.804,235.555 70.577 L 235.586 76.143 223.576 76.248 C 209.548 76.371,210.955 76.965,210.613 70.775 C 210.000 59.651,207.040 55.932,198.763 55.888 C 186.925 55.824,183.897 64.406,183.897 98.012 C 183.897 126.104,185.916 133.379,194.399 135.852 C 204.519 138.802,211.019 132.061,211.432 118.189 C 211.678 109.910,212.259 110.537,204.339 110.537 C 198.518 110.537,198.009 110.478,197.628 109.768 C 196.966 108.531,197.083 93.250,197.759 92.689 C 198.150 92.364,203.510 92.267,216.944 92.342 L 235.586 92.445 235.586 123.260 L 235.586 154.076 224.900 154.182 C 212.056 154.309,213.121 154.805,213.121 148.702 C 213.121 143.859,212.475 142.219,211.332 144.160 C 205.889 153.403,195.736 157.474,183.729 155.226 C 166.306 151.965,158.572 136.010,157.631 101.392 C 156.743 68.738,161.137 51.829,172.839 42.863 C 173.958 42.006,178.929 39.364,179.423 39.364 C 179.631 39.364,180.364 39.116,181.053 38.814 C 185.912 36.682,194.719 35.852,204.783 36.578 M313.287 36.746 C 313.195 36.838,311.332 37.111,309.145 37.354 C 304.978 37.818,304.132 38.024,299.602 39.679 C 287.620 44.059,280.166 54.741,277.489 71.372 C 277.278 72.684,276.918 74.742,276.689 75.944 C 275.560 81.884,275.560 112.160,276.689 118.091 C 276.918 119.294,277.294 121.441,277.525 122.863 C 278.621 129.602,279.646 132.998,282.208 138.370 C 285.035 144.299,288.830 148.770,293.837 152.072 C 296.091 153.559,297.467 154.228,301.705 155.900 C 309.849 159.113,327.663 158.383,336.978 154.456 C 345.738 150.762,354.672 137.905,354.672 128.991 C 354.672 128.354,354.940 126.431,355.268 124.717 C 356.179 119.957,356.082 115.055,355.066 114.511 C 353.708 113.784,328.897 114.156,328.421 114.911 C 328.213 115.239,328.041 117.670,328.038 120.314 C 328.030 126.855,326.676 132.171,324.453 134.394 C 321.781 137.066,313.903 137.636,311.091 135.360 C 308.249 133.060,304.971 126.493,304.970 123.097 C 304.970 122.640,304.674 120.924,304.312 119.284 C 303.335 114.847,303.335 79.984,304.312 75.547 C 304.674 73.907,304.970 72.187,304.970 71.725 C 304.973 64.864,311.028 57.669,316.809 57.658 C 324.110 57.644,326.459 60.653,327.275 71.060 C 327.545 74.512,327.940 77.562,328.151 77.838 C 328.450 78.229,331.384 78.318,341.306 78.236 L 354.076 78.131 354.217 76.143 C 355.522 57.864,346.139 41.853,332.207 38.586 C 326.328 37.207,314.022 36.011,313.287 36.746 M329.225 38.728 C 343.213 42.207,348.672 47.965,352.261 63.022 C 352.995 66.102,353.578 76.209,353.076 77.148 C 352.562 78.108,329.848 78.397,328.907 77.455 C 328.613 77.162,328.429 75.726,328.429 73.730 C 328.429 61.810,325.305 57.256,317.125 57.256 C 305.983 57.256,302.602 66.604,302.602 97.416 C 302.602 128.272,306.802 139.271,318.036 137.837 C 325.585 136.873,328.248 132.887,328.704 121.869 C 328.831 118.807,329.096 115.989,329.293 115.606 C 329.688 114.837,353.441 114.521,354.623 115.270 C 355.084 115.561,355.094 116.588,354.690 121.725 C 352.746 146.461,341.471 157.058,317.097 157.058 C 302.860 157.058,293.471 153.166,286.879 144.533 C 282.726 139.094,280.802 134.319,278.385 123.459 C 275.935 112.450,275.893 79.393,278.317 70.974 C 278.506 70.318,278.779 69.066,278.924 68.191 C 281.380 53.341,290.763 42.444,303.976 39.096 C 309.717 37.642,324.019 37.433,329.225 38.728 M0.000 297.813 L 0.000 397.614 200.000 397.614 L 400.000 397.614 400.000 297.813 L 400.000 198.012 200.000 198.012 L 0.000 198.012 0.000 297.813 " stroke="none" fill="#00827b" fill-rule="evenodd"></path></g></svg>