<svg id="svg" version="1.1" xmlns="http://www.w3.org/2000/svg" xmlns:xlink="http://www.w3.org/1999/xlink" width="400" height="420.9230769230769" viewBox="0, 0, 400,420.9230769230769"><g id="svgg"><path id="path0" d="M307.867 32.267 C 307.394 32.739,307.551 136.322,308.025 136.615 C 308.258 136.760,308.621 137.265,308.831 137.739 C 309.040 138.212,309.567 139.140,310.000 139.800 C 310.433 140.460,310.973 141.360,311.200 141.800 C 311.427 142.240,311.955 143.140,312.375 143.800 C 313.191 145.084,318.519 155.673,319.519 158.000 C 319.851 158.770,320.364 159.878,320.661 160.462 C 320.957 161.046,321.206 161.856,321.213 162.262 C 321.220 162.668,321.490 163.349,321.813 163.776 C 322.136 164.204,322.400 164.928,322.400 165.387 C 322.400 165.846,322.645 166.577,322.945 167.011 C 323.245 167.445,323.584 168.340,323.699 169.000 C 323.814 169.660,324.094 170.740,324.320 171.400 C 324.546 172.060,324.997 173.590,325.323 174.800 C 325.648 176.010,326.188 177.990,326.524 179.200 C 327.436 182.495,328.534 189.247,329.580 198.000 C 330.073 202.127,330.085 217.126,329.599 221.000 C 329.406 222.540,329.051 225.599,328.811 227.797 C 328.570 229.996,328.109 232.683,327.787 233.770 C 327.464 234.856,327.200 236.273,327.200 236.919 C 327.200 237.564,326.939 238.927,326.621 239.946 C 326.302 240.966,325.747 242.880,325.386 244.200 C 325.026 245.520,324.551 247.140,324.330 247.800 C 324.110 248.460,323.781 249.540,323.600 250.200 C 323.077 252.104,322.357 254.106,321.756 255.332 C 321.450 255.955,321.200 256.737,321.200 257.071 C 321.200 257.404,320.957 258.154,320.661 258.738 C 320.364 259.322,319.829 260.478,319.472 261.306 C 319.114 262.134,318.559 263.394,318.238 264.106 C 317.917 264.818,317.540 265.805,317.401 266.300 C 317.261 266.795,316.993 267.200,316.805 267.200 C 316.617 267.200,316.345 267.740,316.200 268.400 C 316.055 269.060,315.785 269.600,315.600 269.600 C 315.415 269.600,315.145 270.138,315.001 270.795 C 314.857 271.453,314.583 272.087,314.393 272.204 C 314.203 272.322,313.632 273.269,313.124 274.309 C 312.616 275.349,312.106 276.290,311.991 276.400 C 311.494 276.874,309.394 280.249,308.842 281.461 C 308.626 281.935,308.258 282.440,308.025 282.585 C 307.396 282.973,307.430 388.647,308.058 389.036 C 308.499 389.308,312.064 387.703,312.329 387.114 C 312.400 386.956,313.300 386.416,314.329 385.914 C 315.358 385.411,316.380 384.862,316.600 384.693 C 318.049 383.582,322.449 380.419,323.697 379.592 C 324.521 379.046,325.196 378.465,325.197 378.300 C 325.199 378.135,325.406 378.000,325.659 378.000 C 326.076 378.000,329.236 375.625,330.200 374.587 C 330.420 374.350,331.590 373.405,332.800 372.486 C 334.010 371.567,335.810 370.083,336.800 369.187 C 337.790 368.291,339.770 366.541,341.200 365.296 C 344.197 362.688,354.309 352.496,355.200 351.185 C 355.530 350.699,356.025 350.067,356.300 349.780 C 356.698 349.364,356.800 320.959,356.800 210.493 L 356.800 71.728 353.300 67.987 C 346.721 60.954,336.789 51.500,333.985 49.600 C 333.498 49.270,332.357 48.327,331.450 47.505 C 330.542 46.683,329.080 45.513,328.200 44.905 C 327.320 44.297,326.397 43.620,326.149 43.400 C 325.901 43.180,325.296 42.730,324.804 42.400 C 324.313 42.070,322.446 40.708,320.655 39.374 C 318.865 38.040,317.130 36.818,316.800 36.659 C 316.103 36.322,315.250 35.803,312.908 34.292 C 311.977 33.691,311.054 33.200,310.857 33.200 C 310.659 33.200,310.274 32.930,310.000 32.600 C 309.485 31.979,308.334 31.800,307.867 32.267 M380.243 106.633 C 379.819 107.738,379.975 314.143,380.401 314.800 C 380.811 315.435,382.753 313.585,382.786 312.529 C 382.794 312.269,383.025 311.819,383.300 311.529 C 383.928 310.865,385.600 307.468,385.600 306.856 C 385.600 306.605,385.766 306.400,385.968 306.400 C 386.171 306.400,386.455 305.860,386.600 305.200 C 386.745 304.540,387.015 304.000,387.200 304.000 C 387.385 304.000,387.655 303.460,387.800 302.800 C 387.945 302.140,388.229 301.600,388.432 301.600 C 388.634 301.600,388.800 301.406,388.800 301.169 C 388.800 300.932,389.404 299.447,390.143 297.869 C 390.882 296.291,391.795 294.280,392.173 293.400 C 393.184 291.042,394.052 289.137,394.661 287.938 C 394.957 287.354,395.200 286.534,395.200 286.115 C 395.200 285.696,395.464 285.004,395.787 284.576 C 396.110 284.149,396.386 283.350,396.400 282.800 C 396.414 282.250,396.690 281.451,397.013 281.024 C 397.336 280.596,397.600 279.866,397.600 279.400 C 397.600 278.934,397.864 278.204,398.187 277.776 C 399.076 276.602,399.076 144.598,398.187 143.424 C 397.864 142.996,397.600 142.266,397.600 141.800 C 397.600 141.334,397.336 140.604,397.013 140.176 C 396.690 139.749,396.414 138.950,396.400 138.400 C 396.386 137.850,396.110 137.051,395.787 136.624 C 395.464 136.196,395.200 135.504,395.200 135.085 C 395.200 134.666,394.957 133.846,394.661 133.262 C 394.364 132.678,393.806 131.480,393.421 130.600 C 393.036 129.720,392.479 128.460,392.184 127.800 C 391.890 127.140,391.262 125.700,390.789 124.600 C 389.954 122.659,387.503 117.615,386.803 116.400 C 386.613 116.070,386.356 115.530,386.231 115.200 C 386.107 114.870,385.796 114.240,385.539 113.800 C 384.602 112.189,384.390 111.788,384.169 111.200 C 384.044 110.870,383.774 110.330,383.569 110.000 C 383.363 109.670,383.071 109.130,382.920 108.800 C 382.769 108.470,382.410 107.962,382.122 107.671 C 381.835 107.381,381.600 106.886,381.600 106.571 C 381.600 105.797,380.545 105.844,380.243 106.633 " stroke="none" fill="#ebc305" fill-rule="evenodd"></path><path id="path1" d="M183.000 2.207 C 178.820 2.483,174.590 2.904,173.600 3.144 C 172.610 3.384,170.926 3.585,169.857 3.590 C 168.789 3.596,166.719 3.862,165.257 4.183 C 162.675 4.749,160.810 5.117,155.000 6.207 C 151.608 6.843,149.313 7.386,146.400 8.241 C 145.190 8.595,143.300 9.125,142.200 9.418 C 137.471 10.676,135.334 11.337,134.338 11.852 C 133.754 12.153,132.944 12.406,132.538 12.413 C 132.132 12.420,131.451 12.690,131.024 13.013 C 130.596 13.336,129.876 13.606,129.424 13.613 C 128.971 13.620,128.251 13.890,127.824 14.213 C 127.396 14.536,126.663 14.800,126.193 14.800 C 125.724 14.800,124.947 15.217,124.468 15.728 L 123.596 16.655 123.698 59.222 C 123.811 106.320,123.613 103.228,126.354 100.800 C 127.099 100.140,127.853 99.600,128.029 99.600 C 128.205 99.600,129.486 98.825,130.875 97.877 C 132.264 96.929,133.670 96.025,134.000 95.868 C 134.330 95.712,135.680 94.977,137.000 94.235 C 140.071 92.510,144.444 90.311,147.000 89.207 C 148.100 88.731,149.567 88.085,150.260 87.771 C 150.954 87.457,151.798 87.200,152.137 87.200 C 152.476 87.200,152.855 87.034,152.981 86.831 C 153.106 86.628,153.759 86.341,154.432 86.193 C 155.104 86.045,156.137 85.673,156.727 85.365 C 157.317 85.057,158.160 84.798,158.600 84.790 C 159.040 84.781,159.749 84.510,160.176 84.187 C 160.604 83.864,161.504 83.594,162.176 83.586 C 162.849 83.578,163.850 83.314,164.400 83.000 C 164.950 82.686,165.873 82.422,166.451 82.414 C 167.029 82.406,168.149 82.130,168.938 81.800 C 169.728 81.470,170.987 81.200,171.737 81.200 C 172.486 81.200,173.865 80.930,174.800 80.600 C 175.735 80.270,177.176 80.000,178.001 80.000 C 178.827 80.000,180.739 79.736,182.251 79.413 C 188.884 77.997,209.294 77.995,216.343 79.410 C 217.961 79.734,219.902 80.000,220.656 80.000 C 221.409 80.000,222.672 80.270,223.462 80.600 C 224.251 80.930,225.551 81.199,226.349 81.198 C 227.147 81.197,228.610 81.447,229.600 81.755 C 230.590 82.062,232.324 82.603,233.454 82.957 C 234.583 83.311,235.944 83.600,236.477 83.600 C 237.011 83.600,237.796 83.864,238.224 84.187 C 238.651 84.510,239.360 84.781,239.800 84.790 C 240.240 84.798,241.116 85.074,241.746 85.402 C 242.376 85.731,243.196 86.000,243.569 86.000 C 243.942 86.000,244.596 86.264,245.024 86.587 C 245.451 86.910,246.035 87.180,246.322 87.187 C 246.609 87.194,247.689 87.573,248.722 88.029 C 249.755 88.485,251.230 89.133,252.000 89.470 C 256.522 91.446,262.786 94.850,268.429 98.400 C 270.003 99.390,271.655 100.409,272.099 100.664 C 272.544 100.919,273.044 101.347,273.209 101.615 C 274.325 103.421,274.400 100.745,274.400 58.853 C 274.400 13.140,274.490 15.117,272.400 14.687 C 271.063 14.412,268.858 13.638,267.468 12.956 C 266.845 12.650,266.063 12.400,265.729 12.400 C 265.396 12.400,264.646 12.153,264.062 11.852 C 263.478 11.550,261.920 10.999,260.600 10.627 C 259.280 10.254,257.300 9.697,256.200 9.388 C 255.100 9.078,253.576 8.707,252.813 8.562 C 252.050 8.417,251.150 8.148,250.813 7.965 C 249.920 7.480,245.739 6.584,237.200 5.049 C 235.330 4.712,233.171 4.249,232.403 4.019 C 231.634 3.788,230.147 3.600,229.098 3.600 C 228.050 3.600,225.528 3.342,223.496 3.026 C 214.551 1.637,197.018 1.282,183.000 2.207 M87.963 33.489 C 86.727 34.393,85.615 35.093,84.600 35.607 C 82.287 36.778,68.180 46.950,66.357 48.761 C 65.291 49.821,63.486 51.337,61.918 52.489 C 59.177 54.505,45.022 68.445,42.727 71.390 L 41.800 72.580 41.800 210.631 L 41.800 348.682 43.358 350.441 C 48.300 356.022,60.140 367.484,63.974 370.400 C 65.735 371.739,67.381 373.106,68.791 374.400 C 69.150 374.730,70.335 375.617,71.422 376.371 C 72.510 377.125,73.670 377.982,74.000 378.276 C 74.330 378.569,75.680 379.572,77.000 380.505 C 82.807 384.608,84.425 385.692,85.800 386.400 C 86.240 386.627,87.140 387.156,87.800 387.577 C 88.460 387.997,89.225 388.355,89.500 388.371 C 89.898 388.394,90.000 377.421,90.000 334.759 L 90.000 281.118 86.866 275.859 C 85.142 272.967,83.419 269.880,83.036 269.000 C 81.813 266.186,81.092 264.616,80.739 264.000 C 80.550 263.670,80.292 263.130,80.166 262.800 C 80.040 262.470,79.681 261.722,79.369 261.138 C 79.056 260.554,78.800 259.811,78.800 259.487 C 78.800 259.163,78.530 258.674,78.200 258.400 C 77.870 258.126,77.600 257.508,77.600 257.027 C 77.600 256.546,77.336 255.804,77.013 255.376 C 76.690 254.949,76.420 254.145,76.413 253.589 C 76.406 253.033,76.156 252.223,75.857 251.789 C 75.558 251.355,75.186 250.303,75.029 249.451 C 74.873 248.599,74.590 247.609,74.400 247.251 C 73.901 246.311,72.528 240.781,71.606 236.000 C 71.372 234.790,70.988 232.990,70.751 232.000 C 70.514 231.010,70.169 228.580,69.984 226.600 C 69.799 224.620,69.463 221.740,69.237 220.200 C 68.706 216.580,68.706 202.620,69.237 199.000 C 69.463 197.460,69.794 194.567,69.972 192.572 C 70.150 190.577,70.487 188.327,70.720 187.572 C 70.954 186.817,71.322 185.120,71.539 183.800 C 72.166 179.988,73.816 173.165,74.396 171.987 C 74.562 171.650,74.823 170.750,74.975 169.987 C 75.127 169.224,75.488 168.060,75.776 167.400 C 76.582 165.560,77.271 163.515,77.489 162.313 C 77.598 161.715,77.937 161.018,78.244 160.764 C 78.550 160.510,78.800 160.057,78.800 159.757 C 78.800 159.457,79.312 158.174,79.937 156.906 C 82.143 152.434,83.540 149.390,83.796 148.500 C 83.938 148.005,84.222 147.600,84.427 147.600 C 84.632 147.600,84.800 147.401,84.800 147.158 C 84.800 146.914,85.971 144.772,87.401 142.398 L 90.003 138.080 89.901 85.573 C 89.830 48.389,89.674 33.025,89.368 32.923 C 89.130 32.843,88.498 33.098,87.963 33.489 M18.044 105.729 C 17.580 106.480,17.200 107.227,17.200 107.390 C 17.200 107.552,16.660 108.367,16.000 109.200 C 15.340 110.033,14.800 110.982,14.800 111.309 C 14.800 111.635,14.530 112.126,14.200 112.400 C 13.870 112.674,13.600 113.214,13.600 113.600 C 13.600 113.986,13.330 114.526,13.000 114.800 C 12.670 115.074,12.400 115.614,12.400 116.000 C 12.400 116.386,12.130 116.926,11.800 117.200 C 11.470 117.474,11.200 118.014,11.200 118.400 C 11.200 118.786,10.942 119.317,10.626 119.579 C 10.310 119.841,9.936 120.583,9.794 121.228 C 9.652 121.872,9.371 122.400,9.168 122.400 C 8.966 122.400,8.800 122.695,8.800 123.056 C 8.800 123.417,8.414 124.542,7.943 125.556 C 7.047 127.484,6.270 129.243,5.271 131.600 C 4.945 132.370,4.436 133.478,4.139 134.062 C 3.843 134.646,3.594 135.456,3.587 135.862 C 3.580 136.268,3.310 136.949,2.987 137.376 C 2.664 137.804,2.400 138.534,2.400 139.000 C 2.400 139.466,2.136 140.196,1.813 140.624 C 0.924 141.798,0.924 279.402,1.813 280.576 C 2.136 281.004,2.400 281.734,2.400 282.200 C 2.400 282.666,2.664 283.396,2.987 283.824 C 3.310 284.251,3.580 284.932,3.587 285.338 C 3.594 285.744,3.843 286.554,4.139 287.138 C 4.436 287.722,4.971 288.878,5.328 289.706 C 5.686 290.534,6.242 291.794,6.565 292.506 C 6.887 293.218,7.533 294.700,8.000 295.800 C 8.467 296.900,9.378 298.838,10.024 300.106 C 10.671 301.374,11.200 302.679,11.200 303.006 C 11.200 303.333,11.377 303.600,11.592 303.600 C 11.808 303.600,12.109 304.093,12.260 304.696 C 12.411 305.299,12.775 306.032,13.067 306.325 C 13.360 306.618,13.600 307.182,13.600 307.580 C 13.600 307.977,13.870 308.526,14.200 308.800 C 14.530 309.074,14.800 309.535,14.800 309.824 C 14.800 310.113,15.575 311.486,16.523 312.875 C 17.471 314.264,18.371 315.730,18.523 316.133 C 19.775 319.446,19.800 317.351,19.800 210.600 C 19.800 99.210,19.860 102.791,18.044 105.729 M272.382 318.111 C 271.622 318.583,270.856 319.200,270.680 319.484 C 270.504 319.768,270.170 320.000,269.938 320.000 C 269.706 320.000,268.716 320.540,267.738 321.200 C 266.760 321.860,265.887 322.400,265.798 322.400 C 265.709 322.400,264.953 322.865,264.118 323.433 C 263.283 324.001,261.700 324.909,260.600 325.450 C 259.500 325.991,258.330 326.593,258.000 326.788 C 257.670 326.983,257.130 327.244,256.800 327.369 C 256.470 327.493,255.930 327.763,255.600 327.969 C 255.270 328.174,254.730 328.444,254.400 328.569 C 254.070 328.693,253.530 328.950,253.200 329.139 C 252.870 329.328,251.970 329.768,251.200 330.117 C 247.351 331.861,245.992 332.400,245.446 332.400 C 245.116 332.400,244.745 332.566,244.619 332.769 C 244.494 332.972,243.841 333.259,243.168 333.407 C 242.496 333.555,241.463 333.927,240.873 334.235 C 240.283 334.543,239.506 334.796,239.146 334.798 C 238.786 334.799,237.976 335.069,237.346 335.398 C 236.716 335.726,235.660 336.003,235.000 336.012 C 234.340 336.021,233.350 336.286,232.800 336.600 C 232.250 336.914,231.161 337.178,230.380 337.186 C 229.599 337.194,228.780 337.380,228.559 337.601 C 228.338 337.822,226.875 338.163,225.307 338.360 C 223.739 338.557,222.249 338.846,221.996 339.002 C 221.743 339.159,219.976 339.439,218.068 339.625 C 216.161 339.812,213.790 340.145,212.800 340.365 C 209.843 341.023,187.860 340.898,185.000 340.208 C 183.680 339.889,181.559 339.622,180.287 339.614 C 179.015 339.606,177.328 339.330,176.538 339.000 C 175.749 338.670,174.399 338.400,173.538 338.400 C 172.678 338.400,171.328 338.130,170.538 337.800 C 169.749 337.470,168.539 337.194,167.851 337.186 C 167.163 337.178,166.150 336.914,165.600 336.600 C 165.050 336.286,164.060 336.016,163.400 336.000 C 162.740 335.984,161.750 335.714,161.200 335.400 C 160.650 335.086,159.840 334.821,159.400 334.812 C 158.960 334.803,158.117 334.543,157.527 334.235 C 156.937 333.927,155.904 333.555,155.232 333.407 C 154.559 333.259,153.906 332.972,153.781 332.769 C 153.655 332.566,153.284 332.400,152.954 332.400 C 152.329 332.400,149.361 331.185,147.538 330.184 C 146.954 329.863,146.189 329.600,145.838 329.600 C 145.487 329.600,145.200 329.420,145.200 329.200 C 145.200 328.980,145.009 328.800,144.775 328.800 C 144.383 328.800,140.995 327.237,139.600 326.412 C 139.270 326.217,138.730 325.953,138.400 325.824 C 138.070 325.696,137.260 325.236,136.600 324.802 C 135.940 324.367,134.951 323.817,134.402 323.578 C 133.853 323.340,132.863 322.741,132.202 322.247 C 131.541 321.752,129.830 320.649,128.400 319.795 C 126.970 318.941,125.740 318.098,125.667 317.921 C 125.593 317.744,125.098 317.600,124.567 317.600 L 123.600 317.600 123.600 361.026 C 123.600 405.435,123.619 406.000,125.138 406.000 C 125.528 406.000,126.196 406.264,126.624 406.587 C 127.051 406.910,127.733 407.180,128.140 407.187 C 128.546 407.194,129.536 407.485,130.340 407.833 C 131.143 408.182,132.391 408.722,133.114 409.033 C 133.836 409.345,134.589 409.600,134.788 409.600 C 134.986 409.600,135.655 409.812,136.274 410.070 C 136.893 410.329,138.300 410.761,139.400 411.030 C 141.322 411.501,143.685 412.133,148.400 413.440 C 150.970 414.152,155.127 415.032,158.800 415.642 C 160.230 415.880,162.276 416.328,163.346 416.637 C 164.416 416.947,165.853 417.200,166.540 417.200 C 167.226 417.200,169.770 417.462,172.194 417.782 C 181.159 418.967,184.832 419.239,194.800 419.457 C 200.855 419.589,207.438 419.497,211.000 419.230 C 223.056 418.326,225.835 418.061,227.600 417.644 C 228.590 417.411,230.234 417.215,231.254 417.210 C 232.274 417.204,233.984 416.947,235.054 416.637 C 236.124 416.328,238.260 415.867,239.800 415.613 C 243.662 414.978,247.357 414.189,250.200 413.392 C 251.520 413.022,253.500 412.512,254.600 412.258 C 255.700 412.005,256.781 411.679,257.003 411.535 C 257.225 411.391,258.125 411.153,259.003 411.008 C 259.881 410.862,260.960 410.580,261.400 410.382 C 262.676 409.807,265.711 408.755,266.800 408.509 C 267.350 408.385,268.155 408.040,268.589 407.742 C 269.023 407.444,269.683 407.200,270.057 407.200 C 270.430 407.200,271.245 406.939,271.868 406.620 C 272.490 406.302,273.315 405.947,273.700 405.833 C 274.453 405.609,274.832 317.914,274.082 317.451 C 273.908 317.343,273.143 317.640,272.382 318.111 " stroke="none" fill="#0070c0" fill-rule="evenodd"></path><path id="path2" d="M179.200 0.400 C 179.200 0.645,177.267 0.800,174.200 0.800 C 170.022 0.800,169.200 0.899,169.200 1.400 C 169.200 1.895,168.467 2.000,165.000 2.000 C 161.533 2.000,160.800 2.105,160.800 2.600 C 160.800 3.083,160.178 3.200,157.600 3.200 C 155.022 3.200,154.400 3.317,154.400 3.800 C 154.400 4.276,153.821 4.400,151.587 4.400 C 149.456 4.400,148.719 4.545,148.545 5.000 C 148.388 5.407,147.750 5.600,146.557 5.600 C 145.262 5.600,144.800 5.758,144.800 6.200 C 144.800 6.667,144.265 6.800,142.387 6.800 C 140.612 6.800,139.914 6.958,139.745 7.400 C 139.588 7.807,138.950 8.000,137.757 8.000 C 136.462 8.000,136.000 8.158,136.000 8.600 C 136.000 9.044,135.533 9.200,134.200 9.200 C 132.867 9.200,132.400 9.356,132.400 9.800 C 132.400 10.244,131.933 10.400,130.600 10.400 C 129.267 10.400,128.800 10.556,128.800 11.000 C 128.800 11.442,128.338 11.600,127.043 11.600 C 125.850 11.600,125.212 11.793,125.055 12.200 C 124.921 12.551,124.321 12.800,123.613 12.800 C 122.801 12.800,122.400 12.999,122.400 13.400 C 122.400 13.730,122.130 14.000,121.800 14.000 C 121.270 14.000,121.200 19.333,121.200 59.600 L 121.200 105.200 123.000 105.200 C 124.333 105.200,124.800 105.044,124.800 104.600 C 124.800 104.200,125.200 104.000,126.000 104.000 C 126.800 104.000,127.200 103.800,127.200 103.400 C 127.200 103.070,127.451 102.800,127.757 102.800 C 128.064 102.800,128.418 102.530,128.545 102.200 C 128.671 101.870,129.236 101.600,129.800 101.600 C 130.364 101.600,130.929 101.330,131.055 101.000 C 131.182 100.670,131.536 100.400,131.843 100.400 C 132.149 100.400,132.400 100.130,132.400 99.800 C 132.400 99.425,132.779 99.200,133.413 99.200 C 133.969 99.200,134.524 98.941,134.646 98.624 C 134.767 98.308,135.392 97.934,136.033 97.793 C 136.675 97.652,137.200 97.281,137.200 96.968 C 137.200 96.604,137.630 96.400,138.400 96.400 C 139.200 96.400,139.600 96.200,139.600 95.800 C 139.600 95.400,140.000 95.200,140.800 95.200 C 141.600 95.200,142.000 95.000,142.000 94.600 C 142.000 94.270,142.270 94.000,142.600 94.000 C 142.930 94.000,143.200 93.730,143.200 93.400 C 143.200 92.956,143.667 92.800,145.000 92.800 C 146.333 92.800,146.800 92.644,146.800 92.200 C 146.800 91.781,147.222 91.600,148.200 91.600 C 149.178 91.600,149.600 91.419,149.600 91.000 C 149.600 90.600,150.000 90.400,150.800 90.400 C 151.600 90.400,152.000 90.200,152.000 89.800 C 152.000 89.356,152.467 89.200,153.800 89.200 C 155.133 89.200,155.600 89.044,155.600 88.600 C 155.600 88.156,156.067 88.000,157.400 88.000 C 158.733 88.000,159.200 87.844,159.200 87.400 C 159.200 86.958,159.662 86.800,160.957 86.800 C 162.150 86.800,162.788 86.607,162.945 86.200 C 163.102 85.789,163.745 85.600,164.987 85.600 C 166.332 85.600,166.800 85.445,166.800 85.000 C 166.800 84.533,167.333 84.400,169.200 84.400 C 171.067 84.400,171.600 84.267,171.600 83.800 C 171.600 83.318,172.214 83.200,174.724 83.200 C 176.851 83.200,178.095 83.013,178.624 82.613 C 179.164 82.204,180.454 82.022,182.867 82.013 C 186.681 81.999,187.600 81.794,187.600 80.957 C 187.600 79.916,211.043 80.156,211.316 81.200 C 211.507 81.933,211.862 82.000,215.520 82.000 C 218.702 82.000,219.561 82.122,219.745 82.600 C 219.921 83.059,220.674 83.200,222.945 83.200 C 225.215 83.200,225.969 83.341,226.145 83.800 C 226.310 84.231,226.985 84.400,228.545 84.400 C 230.104 84.400,230.779 84.569,230.945 85.000 C 231.110 85.431,231.785 85.600,233.345 85.600 C 234.904 85.600,235.579 85.769,235.745 86.200 C 235.902 86.611,236.545 86.800,237.787 86.800 C 239.132 86.800,239.600 86.955,239.600 87.400 C 239.600 87.844,240.067 88.000,241.400 88.000 C 242.733 88.000,243.200 88.156,243.200 88.600 C 243.200 88.995,243.595 89.200,244.357 89.200 C 245.017 89.200,245.613 89.458,245.745 89.800 C 245.897 90.196,246.523 90.400,247.587 90.400 C 248.754 90.400,249.200 90.566,249.200 91.000 C 249.200 91.400,249.600 91.600,250.400 91.600 C 251.200 91.600,251.600 91.800,251.600 92.200 C 251.600 92.601,252.001 92.800,252.813 92.800 C 253.521 92.800,254.121 93.049,254.255 93.400 C 254.387 93.742,254.983 94.000,255.643 94.000 C 256.405 94.000,256.800 94.205,256.800 94.600 C 256.800 95.000,257.200 95.200,258.000 95.200 C 258.800 95.200,259.200 95.400,259.200 95.800 C 259.200 96.200,259.600 96.400,260.400 96.400 C 261.209 96.400,261.600 96.599,261.600 97.010 C 261.600 97.368,262.096 97.719,262.800 97.860 C 263.460 97.992,264.000 98.347,264.000 98.650 C 264.000 98.953,264.193 99.200,264.429 99.200 C 264.664 99.200,265.127 99.470,265.457 99.800 C 265.787 100.130,266.404 100.400,266.829 100.400 C 267.253 100.400,267.600 100.670,267.600 101.000 C 267.600 101.330,267.941 101.600,268.357 101.600 C 268.774 101.600,269.218 101.870,269.345 102.200 C 269.471 102.530,269.946 102.800,270.400 102.800 C 270.854 102.800,271.329 103.070,271.455 103.400 C 271.582 103.730,271.936 104.000,272.243 104.000 C 272.549 104.000,272.800 104.270,272.800 104.600 C 272.800 105.045,273.267 105.200,274.602 105.200 L 276.403 105.200 276.302 59.100 L 276.200 13.000 274.478 12.876 C 273.441 12.801,272.669 12.523,272.535 12.176 C 272.414 11.858,271.795 11.600,271.157 11.600 C 270.395 11.600,270.000 11.395,270.000 11.000 C 270.000 10.556,269.533 10.400,268.200 10.400 C 266.867 10.400,266.400 10.244,266.400 9.800 C 266.400 9.356,265.933 9.200,264.600 9.200 C 263.267 9.200,262.800 9.044,262.800 8.600 C 262.800 8.147,262.311 8.000,260.800 8.000 C 259.289 8.000,258.800 7.853,258.800 7.400 C 258.800 6.933,258.267 6.800,256.400 6.800 C 254.533 6.800,254.000 6.667,254.000 6.200 C 254.000 5.733,253.467 5.600,251.600 5.600 C 249.733 5.600,249.200 5.467,249.200 5.000 C 249.200 4.533,248.665 4.400,246.787 4.400 C 245.012 4.400,244.314 4.242,244.145 3.800 C 243.964 3.329,243.150 3.200,240.357 3.200 C 237.462 3.200,236.800 3.088,236.800 2.600 C 236.800 2.111,236.133 2.000,233.200 2.000 C 230.267 2.000,229.600 1.889,229.600 1.400 C 229.600 0.899,228.778 0.800,224.600 0.800 C 221.533 0.800,219.600 0.645,219.600 0.400 C 219.600 0.139,212.600 0.000,199.400 0.000 C 186.200 0.000,179.200 0.139,179.200 0.400 M212.400 2.025 C 216.470 2.260,221.463 2.710,223.496 3.026 C 225.528 3.342,228.050 3.600,229.098 3.600 C 230.147 3.600,231.634 3.788,232.403 4.019 C 233.171 4.249,235.330 4.712,237.200 5.049 C 245.739 6.584,249.920 7.480,250.813 7.965 C 251.150 8.148,252.050 8.417,252.813 8.562 C 253.576 8.707,255.100 9.078,256.200 9.388 C 257.300 9.697,259.280 10.254,260.600 10.627 C 261.920 10.999,263.478 11.550,264.062 11.852 C 264.646 12.153,265.396 12.400,265.729 12.400 C 266.063 12.400,266.845 12.650,267.468 12.956 C 268.858 13.638,271.063 14.412,272.400 14.687 C 274.490 15.117,274.400 13.140,274.400 58.853 C 274.400 100.745,274.325 103.421,273.209 101.615 C 273.044 101.347,272.544 100.919,272.099 100.664 C 271.655 100.409,270.003 99.390,268.429 98.400 C 262.786 94.850,256.522 91.446,252.000 89.470 C 251.230 89.133,249.755 88.485,248.722 88.029 C 247.689 87.573,246.609 87.194,246.322 87.187 C 246.035 87.180,245.451 86.910,245.024 86.587 C 244.596 86.264,243.942 86.000,243.569 86.000 C 243.196 86.000,242.376 85.731,241.746 85.402 C 241.116 85.074,240.240 84.798,239.800 84.790 C 239.360 84.781,238.651 84.510,238.224 84.187 C 237.796 83.864,237.011 83.600,236.477 83.600 C 235.944 83.600,234.583 83.311,233.454 82.957 C 232.324 82.603,230.590 82.062,229.600 81.755 C 228.610 81.447,227.147 81.197,226.349 81.198 C 225.551 81.199,224.251 80.930,223.462 80.600 C 222.672 80.270,221.409 80.000,220.656 80.000 C 219.902 80.000,217.961 79.734,216.343 79.410 C 209.294 77.995,188.884 77.997,182.251 79.413 C 180.739 79.736,178.827 80.000,178.001 80.000 C 177.176 80.000,175.735 80.270,174.800 80.600 C 173.865 80.930,172.486 81.200,171.737 81.200 C 170.987 81.200,169.728 81.470,168.938 81.800 C 168.149 82.130,167.029 82.406,166.451 82.414 C 165.873 82.422,164.950 82.686,164.400 83.000 C 163.850 83.314,162.849 83.578,162.176 83.586 C 161.504 83.594,160.604 83.864,160.176 84.187 C 159.749 84.510,159.040 84.781,158.600 84.790 C 158.160 84.798,157.317 85.057,156.727 85.365 C 156.137 85.673,155.104 86.045,154.432 86.193 C 153.759 86.341,153.106 86.628,152.981 86.831 C 152.855 87.034,152.476 87.200,152.137 87.200 C 151.798 87.200,150.954 87.457,150.260 87.771 C 149.567 88.085,148.100 88.731,147.000 89.207 C 144.444 90.311,140.071 92.510,137.000 94.235 C 135.680 94.977,134.330 95.712,134.000 95.868 C 133.670 96.025,132.264 96.929,130.875 97.877 C 129.486 98.825,128.205 99.600,128.029 99.600 C 127.853 99.600,127.099 100.140,126.354 100.800 C 123.613 103.228,123.811 106.320,123.698 59.222 L 123.596 16.655 124.468 15.728 C 124.947 15.217,125.724 14.800,126.193 14.800 C 126.663 14.800,127.396 14.536,127.824 14.213 C 128.251 13.890,128.971 13.620,129.424 13.613 C 129.876 13.606,130.596 13.336,131.024 13.013 C 131.451 12.690,132.132 12.420,132.538 12.413 C 132.944 12.406,133.754 12.153,134.338 11.852 C 135.334 11.337,137.471 10.676,142.200 9.418 C 143.300 9.125,145.190 8.595,146.400 8.241 C 149.313 7.386,151.608 6.843,155.000 6.207 C 160.810 5.117,162.675 4.749,165.257 4.183 C 166.719 3.862,168.789 3.596,169.857 3.590 C 170.926 3.585,172.610 3.384,173.600 3.144 C 178.667 1.917,199.905 1.304,212.400 2.025 M89.345 29.400 C 89.218 29.730,88.864 30.000,88.557 30.000 C 88.251 30.000,88.000 30.270,88.000 30.600 C 88.000 30.979,87.618 31.200,86.963 31.200 C 86.262 31.200,85.857 31.459,85.716 32.000 C 85.568 32.567,85.170 32.800,84.353 32.800 C 83.595 32.800,83.200 33.005,83.200 33.400 C 83.200 33.730,82.930 34.000,82.600 34.000 C 82.270 34.000,82.000 34.270,82.000 34.600 C 82.000 35.000,81.600 35.200,80.800 35.200 C 80.000 35.200,79.600 35.400,79.600 35.800 C 79.600 36.133,79.244 36.400,78.800 36.400 C 78.356 36.400,78.000 36.667,78.000 37.000 C 78.000 37.375,77.621 37.600,76.987 37.600 C 76.431 37.600,75.871 37.870,75.745 38.200 C 75.618 38.530,75.264 38.800,74.957 38.800 C 74.651 38.800,74.400 39.070,74.400 39.400 C 74.400 39.730,74.130 40.000,73.800 40.000 C 73.470 40.000,73.200 40.270,73.200 40.600 C 73.200 41.000,72.800 41.200,72.000 41.200 C 71.200 41.200,70.800 41.400,70.800 41.800 C 70.800 42.130,70.530 42.400,70.200 42.400 C 69.870 42.400,69.600 42.670,69.600 43.000 C 69.600 43.330,69.330 43.600,69.000 43.600 C 68.670 43.600,68.400 43.870,68.400 44.200 C 68.400 44.537,68.043 44.800,67.584 44.800 C 67.135 44.800,65.885 45.697,64.800 46.800 C 63.717 47.900,62.644 48.800,62.416 48.800 C 62.187 48.800,62.000 49.070,62.000 49.400 C 62.000 49.730,61.730 50.000,61.400 50.000 C 61.070 50.000,60.800 50.270,60.800 50.600 C 60.800 50.959,60.431 51.200,59.881 51.200 C 59.351 51.200,58.547 51.700,57.981 52.383 C 57.442 53.034,56.775 53.574,56.500 53.583 C 56.225 53.592,56.000 53.870,56.000 54.200 C 56.000 54.530,55.730 54.800,55.400 54.800 C 55.070 54.800,54.800 55.070,54.800 55.400 C 54.800 55.730,54.530 56.000,54.200 56.000 C 53.870 56.000,53.600 56.270,53.600 56.600 C 53.600 56.930,53.330 57.200,53.000 57.200 C 52.670 57.200,52.400 57.470,52.400 57.800 C 52.400 58.130,52.130 58.400,51.800 58.400 C 51.470 58.400,51.200 58.670,51.200 59.000 C 51.200 59.330,50.930 59.600,50.600 59.600 C 50.270 59.600,50.000 59.870,50.000 60.200 C 50.000 60.530,49.730 60.800,49.400 60.800 C 49.070 60.800,48.800 61.070,48.800 61.400 C 48.800 61.730,48.530 62.000,48.200 62.000 C 47.870 62.000,47.600 62.258,47.600 62.573 C 47.600 62.888,47.240 63.260,46.800 63.400 C 46.360 63.540,46.000 63.912,46.000 64.227 C 46.000 64.542,45.730 64.800,45.400 64.800 C 45.070 64.800,44.800 65.070,44.800 65.400 C 44.800 65.730,44.530 66.000,44.200 66.000 C 43.870 66.000,43.600 66.270,43.600 66.600 C 43.600 66.930,43.330 67.200,43.000 67.200 C 42.670 67.200,42.400 67.470,42.400 67.800 C 42.400 68.130,42.130 68.400,41.800 68.400 C 41.470 68.400,41.200 68.651,41.200 68.957 C 41.200 69.264,40.930 69.618,40.600 69.745 C 40.270 69.871,40.000 70.431,40.000 70.987 C 40.000 71.621,39.775 72.000,39.400 72.000 C 38.868 72.000,38.800 87.690,38.800 210.813 C 38.800 333.832,38.868 349.651,39.400 349.855 C 39.730 349.982,40.000 350.336,40.000 350.643 C 40.000 350.949,40.270 351.200,40.600 351.200 C 40.930 351.200,41.200 351.470,41.200 351.800 C 41.200 352.130,41.470 352.400,41.800 352.400 C 42.130 352.400,42.400 352.670,42.400 353.000 C 42.400 353.330,42.670 353.600,43.000 353.600 C 43.330 353.600,43.600 353.870,43.600 354.200 C 43.600 354.530,43.870 354.800,44.200 354.800 C 44.530 354.800,44.800 355.070,44.800 355.400 C 44.800 355.730,45.070 356.000,45.400 356.000 C 45.730 356.000,46.003 356.225,46.007 356.500 C 46.015 357.110,47.742 358.800,48.356 358.800 C 48.600 358.800,48.800 359.070,48.800 359.400 C 48.800 359.730,49.070 360.000,49.400 360.000 C 49.730 360.000,50.000 360.270,50.000 360.600 C 50.000 360.930,50.270 361.200,50.600 361.200 C 50.930 361.200,51.200 361.470,51.200 361.800 C 51.200 362.130,51.470 362.400,51.800 362.400 C 52.130 362.400,52.400 362.670,52.400 363.000 C 52.400 363.330,52.670 363.600,53.000 363.600 C 53.330 363.600,53.600 363.870,53.600 364.200 C 53.600 364.530,53.870 364.800,54.200 364.800 C 54.530 364.800,54.800 365.070,54.800 365.400 C 54.800 365.730,55.070 366.000,55.400 366.000 C 55.730 366.000,56.000 366.270,56.000 366.600 C 56.000 366.930,56.270 367.200,56.600 367.200 C 56.930 367.200,57.200 367.470,57.200 367.800 C 57.200 368.130,57.470 368.400,57.800 368.400 C 58.130 368.400,58.400 368.670,58.400 369.000 C 58.400 369.330,58.670 369.600,59.000 369.600 C 59.330 369.600,59.600 369.870,59.600 370.200 C 59.600 370.533,59.956 370.800,60.400 370.800 C 60.844 370.800,61.200 371.067,61.200 371.400 C 61.200 371.773,61.578 372.000,62.200 372.000 C 62.848 372.000,63.200 372.224,63.200 372.637 C 63.200 372.988,63.560 373.369,64.000 373.484 C 64.440 373.599,64.800 373.942,64.800 374.247 C 64.800 374.551,65.070 374.800,65.400 374.800 C 65.730 374.800,66.000 375.070,66.000 375.400 C 66.000 375.730,66.251 376.000,66.557 376.000 C 66.864 376.000,67.218 376.270,67.345 376.600 C 67.471 376.930,68.031 377.200,68.587 377.200 C 69.221 377.200,69.600 377.425,69.600 377.800 C 69.600 378.130,69.870 378.400,70.200 378.400 C 70.530 378.400,70.800 378.670,70.800 379.000 C 70.800 379.330,71.070 379.600,71.400 379.600 C 71.730 379.600,72.000 379.870,72.000 380.200 C 72.000 380.600,72.400 380.800,73.200 380.800 C 74.000 380.800,74.400 381.000,74.400 381.400 C 74.400 381.730,74.670 382.000,75.000 382.000 C 75.330 382.000,75.600 382.270,75.600 382.600 C 75.600 382.930,75.851 383.200,76.157 383.200 C 76.464 383.200,76.818 383.470,76.945 383.800 C 77.071 384.130,77.611 384.400,78.145 384.400 C 78.678 384.400,79.218 384.670,79.345 385.000 C 79.471 385.330,79.851 385.600,80.187 385.600 C 80.524 385.600,80.800 385.870,80.800 386.200 C 80.800 386.600,81.200 386.800,82.000 386.800 C 82.800 386.800,83.200 387.000,83.200 387.400 C 83.200 387.730,83.470 388.000,83.800 388.000 C 84.130 388.000,84.400 388.256,84.400 388.568 C 84.400 388.881,84.925 389.252,85.567 389.393 C 86.208 389.534,86.833 389.908,86.954 390.224 C 87.076 390.541,87.631 390.800,88.187 390.800 C 88.837 390.800,89.200 391.023,89.200 391.423 C 89.200 391.909,89.575 392.019,90.900 391.923 L 92.600 391.800 92.701 335.900 C 92.791 286.375,92.734 280.000,92.201 280.000 C 91.800 280.000,91.600 279.601,91.600 278.800 C 91.600 278.000,91.400 277.600,91.000 277.600 C 90.670 277.600,90.400 277.330,90.400 277.000 C 90.400 276.670,90.130 276.400,89.800 276.400 C 89.399 276.400,89.200 275.999,89.200 275.187 C 89.200 274.479,88.951 273.879,88.600 273.745 C 88.270 273.618,88.000 273.103,88.000 272.600 C 88.000 272.097,87.730 271.582,87.400 271.455 C 87.070 271.329,86.800 270.881,86.800 270.462 C 86.800 270.042,86.530 269.474,86.200 269.200 C 85.870 268.926,85.600 268.268,85.600 267.738 C 85.600 267.209,85.330 266.671,85.000 266.545 C 84.670 266.418,84.400 265.878,84.400 265.345 C 84.400 264.811,84.130 264.271,83.800 264.145 C 83.458 264.013,83.200 263.417,83.200 262.757 C 83.200 261.995,82.995 261.600,82.600 261.600 C 82.200 261.600,82.000 261.200,82.000 260.400 C 82.000 259.644,81.795 259.200,81.445 259.200 C 81.096 259.200,80.793 258.546,80.626 257.435 C 80.480 256.463,80.101 255.571,79.781 255.448 C 79.450 255.321,79.200 254.704,79.200 254.013 C 79.200 253.201,79.001 252.800,78.600 252.800 C 78.156 252.800,78.000 252.333,78.000 251.000 C 78.000 249.667,77.844 249.200,77.400 249.200 C 76.933 249.200,76.800 248.667,76.800 246.800 C 76.800 244.933,76.667 244.400,76.200 244.400 C 75.733 244.400,75.600 243.867,75.600 242.000 C 75.600 240.133,75.467 239.600,75.000 239.600 C 74.528 239.600,74.400 239.044,74.400 237.000 C 74.400 234.956,74.272 234.400,73.800 234.400 C 73.311 234.400,73.200 233.733,73.200 230.800 C 73.200 227.867,73.089 227.200,72.600 227.200 C 72.087 227.200,72.000 226.065,72.000 219.387 C 72.000 212.812,71.905 211.538,71.400 211.345 C 70.546 211.017,70.546 207.200,71.400 207.200 C 71.912 207.200,72.000 206.116,72.000 199.843 C 72.000 193.672,72.097 192.448,72.600 192.255 C 73.068 192.076,73.200 191.282,73.200 188.655 C 73.200 186.029,73.332 185.235,73.800 185.055 C 74.255 184.881,74.400 184.142,74.400 182.000 C 74.400 179.858,74.545 179.119,75.000 178.945 C 75.407 178.788,75.600 178.150,75.600 176.957 C 75.600 175.662,75.758 175.200,76.200 175.200 C 76.667 175.200,76.800 174.667,76.800 172.800 C 76.800 170.933,76.933 170.400,77.400 170.400 C 77.844 170.400,78.000 169.933,78.000 168.600 C 78.000 167.267,78.156 166.800,78.600 166.800 C 79.033 166.800,79.200 166.356,79.200 165.200 C 79.200 164.133,79.467 163.333,80.000 162.800 C 80.440 162.360,80.800 161.659,80.800 161.243 C 80.800 160.826,81.070 160.382,81.400 160.255 C 81.730 160.129,82.000 159.589,82.000 159.055 C 82.000 158.522,82.270 157.982,82.600 157.855 C 82.930 157.729,83.200 157.169,83.200 156.613 C 83.200 156.056,83.377 155.600,83.592 155.600 C 83.808 155.600,84.109 155.107,84.260 154.504 C 84.411 153.901,84.775 153.168,85.067 152.875 C 85.360 152.582,85.600 151.726,85.600 150.971 C 85.600 150.019,85.783 149.600,86.200 149.600 C 86.595 149.600,86.800 149.205,86.800 148.443 C 86.800 147.783,87.058 147.187,87.400 147.055 C 87.730 146.929,88.000 146.549,88.000 146.213 C 88.000 145.876,88.270 145.600,88.600 145.600 C 89.000 145.600,89.200 145.200,89.200 144.400 C 89.200 143.600,89.400 143.200,89.800 143.200 C 90.200 143.200,90.400 142.800,90.400 142.000 C 90.400 141.200,90.600 140.800,91.000 140.800 C 91.330 140.800,91.600 140.530,91.600 140.200 C 91.600 139.870,91.870 139.600,92.200 139.600 C 92.730 139.600,92.800 133.244,92.800 84.800 C 92.800 38.226,92.716 30.000,92.243 30.000 C 91.936 30.000,91.582 29.730,91.455 29.400 C 91.329 29.070,90.854 28.800,90.400 28.800 C 89.946 28.800,89.471 29.070,89.345 29.400 M306.000 83.600 C 306.000 132.044,306.070 138.400,306.600 138.400 C 307.000 138.400,307.200 138.800,307.200 139.600 C 307.200 140.400,307.400 140.800,307.800 140.800 C 308.200 140.800,308.400 141.200,308.400 142.000 C 308.400 142.800,308.600 143.200,309.000 143.200 C 309.330 143.200,309.600 143.470,309.600 143.800 C 309.600 144.130,309.870 144.400,310.200 144.400 C 310.601 144.400,310.800 144.801,310.800 145.613 C 310.800 146.321,311.049 146.921,311.400 147.055 C 311.730 147.182,312.000 147.722,312.000 148.255 C 312.000 148.789,312.270 149.329,312.600 149.455 C 312.930 149.582,313.200 150.122,313.200 150.655 C 313.200 151.189,313.470 151.729,313.800 151.855 C 314.130 151.982,314.400 152.522,314.400 153.055 C 314.400 153.589,314.670 154.129,315.000 154.255 C 315.342 154.387,315.600 154.983,315.600 155.643 C 315.600 156.405,315.805 156.800,316.200 156.800 C 316.600 156.800,316.800 157.200,316.800 158.000 C 316.800 158.800,317.000 159.200,317.400 159.200 C 317.817 159.200,318.000 159.619,318.000 160.571 C 318.000 161.326,318.248 162.191,318.552 162.495 C 318.855 162.798,319.233 163.814,319.392 164.751 C 319.550 165.689,319.932 166.552,320.240 166.671 C 320.588 166.804,320.800 167.479,320.800 168.455 C 320.800 169.482,321.008 170.105,321.400 170.255 C 321.807 170.412,322.000 171.050,322.000 172.243 C 322.000 173.538,322.158 174.000,322.600 174.000 C 323.044 174.000,323.200 174.467,323.200 175.800 C 323.200 177.133,323.356 177.600,323.800 177.600 C 324.280 177.600,324.400 178.201,324.400 180.613 C 324.400 182.921,324.540 183.679,325.000 183.855 C 325.458 184.031,325.600 184.783,325.600 187.043 C 325.600 189.405,325.721 190.000,326.200 190.000 C 326.704 190.000,326.800 190.868,326.800 195.413 C 326.800 199.855,326.908 200.866,327.400 201.055 C 327.907 201.250,328.000 202.601,328.000 209.800 C 328.000 216.999,327.907 218.350,327.400 218.545 C 326.908 218.734,326.800 219.745,326.800 224.187 C 326.800 228.732,326.704 229.600,326.200 229.600 C 325.720 229.600,325.600 230.200,325.600 232.600 C 325.600 235.000,325.480 235.600,325.000 235.600 C 324.528 235.600,324.400 236.156,324.400 238.200 C 324.400 240.244,324.272 240.800,323.800 240.800 C 323.333 240.800,323.200 241.333,323.200 243.200 C 323.200 245.067,323.067 245.600,322.600 245.600 C 322.156 245.600,322.000 246.067,322.000 247.400 C 322.000 248.733,321.844 249.200,321.400 249.200 C 320.956 249.200,320.800 249.667,320.800 251.000 C 320.800 252.284,320.638 252.800,320.235 252.800 C 319.884 252.800,319.563 253.433,319.387 254.477 C 319.231 255.399,318.855 256.402,318.552 256.705 C 318.248 257.009,318.000 257.679,318.000 258.195 C 318.000 258.711,317.808 259.197,317.574 259.275 C 317.340 259.353,317.046 260.178,316.922 261.109 C 316.780 262.163,316.488 262.800,316.147 262.800 C 315.806 262.800,315.600 263.251,315.600 264.000 C 315.600 264.800,315.400 265.200,315.000 265.200 C 314.600 265.200,314.400 265.600,314.400 266.400 C 314.400 267.200,314.200 267.600,313.800 267.600 C 313.400 267.600,313.200 268.000,313.200 268.800 C 313.200 269.600,313.000 270.000,312.600 270.000 C 312.200 270.000,312.000 270.400,312.000 271.200 C 312.000 272.000,311.800 272.400,311.400 272.400 C 310.981 272.400,310.800 272.822,310.800 273.800 C 310.800 274.778,310.619 275.200,310.200 275.200 C 309.870 275.200,309.600 275.470,309.600 275.800 C 309.600 276.130,309.330 276.400,309.000 276.400 C 308.600 276.400,308.400 276.800,308.400 277.600 C 308.400 278.400,308.200 278.800,307.800 278.800 C 307.470 278.800,307.200 279.070,307.200 279.400 C 307.200 279.730,306.930 280.000,306.600 280.000 C 306.070 280.000,306.000 286.489,306.000 336.000 L 306.000 392.000 308.213 392.000 C 309.810 392.000,310.489 391.833,310.655 391.400 C 310.782 391.070,311.136 390.800,311.443 390.800 C 311.749 390.800,312.000 390.553,312.000 390.250 C 312.000 389.947,312.540 389.592,313.200 389.460 C 313.904 389.319,314.400 388.968,314.400 388.610 C 314.400 388.199,314.791 388.000,315.600 388.000 C 316.400 388.000,316.800 387.800,316.800 387.400 C 316.800 387.070,317.070 386.800,317.400 386.800 C 317.730 386.800,318.000 386.530,318.000 386.200 C 318.000 385.800,318.400 385.600,319.200 385.600 C 320.000 385.600,320.400 385.400,320.400 385.000 C 320.400 384.667,320.756 384.400,321.200 384.400 C 321.644 384.400,322.000 384.133,322.000 383.800 C 322.000 383.470,322.270 383.200,322.600 383.200 C 322.930 383.200,323.200 382.930,323.200 382.600 C 323.200 382.200,323.600 382.000,324.400 382.000 C 325.200 382.000,325.600 381.800,325.600 381.400 C 325.600 381.070,325.870 380.800,326.200 380.800 C 326.530 380.800,326.800 380.530,326.800 380.200 C 326.800 379.825,327.179 379.600,327.813 379.600 C 328.369 379.600,328.929 379.330,329.055 379.000 C 329.182 378.670,329.536 378.400,329.843 378.400 C 330.149 378.400,330.400 378.130,330.400 377.800 C 330.400 377.470,330.670 377.200,331.000 377.200 C 331.330 377.200,331.600 376.930,331.600 376.600 C 331.600 376.270,331.870 376.000,332.200 376.000 C 332.530 376.000,332.800 375.730,332.800 375.400 C 332.800 375.070,333.070 374.800,333.400 374.800 C 333.730 374.800,334.000 374.544,334.000 374.232 C 334.000 373.919,334.540 373.545,335.200 373.400 C 335.860 373.255,336.400 372.881,336.400 372.568 C 336.400 372.256,336.760 372.000,337.200 372.000 C 337.644 372.000,338.000 371.733,338.000 371.400 C 338.000 371.070,338.270 370.800,338.600 370.800 C 338.930 370.800,339.200 370.530,339.200 370.200 C 339.200 369.870,339.470 369.600,339.800 369.600 C 340.130 369.600,340.400 369.330,340.400 369.000 C 340.400 368.670,340.670 368.400,341.000 368.400 C 341.330 368.400,341.600 368.130,341.600 367.800 C 341.600 367.470,341.870 367.200,342.200 367.200 C 342.530 367.200,342.800 366.930,342.800 366.600 C 342.800 366.270,343.070 366.000,343.400 366.000 C 343.730 366.000,344.000 365.730,344.000 365.400 C 344.000 365.070,344.270 364.800,344.600 364.800 C 344.930 364.800,345.200 364.530,345.200 364.200 C 345.200 363.855,345.561 363.600,346.052 363.600 C 346.879 363.600,351.200 359.541,351.200 358.764 C 351.200 358.564,351.456 358.400,351.768 358.400 C 352.081 358.400,352.455 357.860,352.600 357.200 C 352.745 356.540,353.119 356.000,353.432 356.000 C 353.744 356.000,354.000 355.730,354.000 355.400 C 354.000 355.070,354.270 354.800,354.600 354.800 C 354.930 354.800,355.200 354.530,355.200 354.200 C 355.200 353.870,355.470 353.600,355.800 353.600 C 356.130 353.600,356.400 353.330,356.400 353.000 C 356.400 352.670,356.670 352.400,357.000 352.400 C 357.330 352.400,357.600 352.130,357.600 351.800 C 357.600 351.470,357.870 351.200,358.200 351.200 C 358.732 351.200,358.800 335.289,358.800 210.400 C 358.800 85.511,358.732 69.600,358.200 69.600 C 357.870 69.600,357.600 69.330,357.600 69.000 C 357.600 68.670,357.330 68.400,357.000 68.400 C 356.670 68.400,356.400 68.130,356.400 67.800 C 356.400 67.470,356.130 67.200,355.800 67.200 C 355.470 67.200,355.200 66.930,355.200 66.600 C 355.200 66.270,354.930 66.000,354.600 66.000 C 354.270 66.000,354.000 65.730,354.000 65.400 C 354.000 65.070,353.828 64.800,353.618 64.800 C 353.122 64.800,351.200 62.878,351.200 62.382 C 351.200 62.172,350.930 62.000,350.600 62.000 C 350.270 62.000,350.000 61.730,350.000 61.400 C 350.000 61.070,349.730 60.800,349.400 60.800 C 349.070 60.800,348.800 60.530,348.800 60.200 C 348.800 59.870,348.530 59.600,348.200 59.600 C 347.870 59.600,347.600 59.330,347.600 59.000 C 347.600 58.670,347.330 58.400,347.000 58.400 C 346.670 58.400,346.400 58.130,346.400 57.800 C 346.400 57.470,346.130 57.200,345.800 57.200 C 345.470 57.200,345.200 56.930,345.200 56.600 C 345.200 56.270,344.930 56.000,344.600 56.000 C 344.270 56.000,344.000 55.730,344.000 55.400 C 344.000 55.070,343.730 54.800,343.400 54.800 C 343.070 54.800,342.800 54.530,342.800 54.200 C 342.800 53.870,342.530 53.600,342.200 53.600 C 341.870 53.600,341.600 53.330,341.600 53.000 C 341.600 52.670,341.330 52.400,341.000 52.400 C 340.670 52.400,340.400 52.130,340.400 51.800 C 340.400 51.470,340.149 51.200,339.843 51.200 C 339.536 51.200,339.182 50.930,339.055 50.600 C 338.929 50.270,338.549 50.000,338.213 50.000 C 337.876 50.000,337.600 49.730,337.600 49.400 C 337.600 49.000,337.200 48.800,336.400 48.800 C 335.467 48.800,335.200 48.622,335.200 48.000 C 335.200 47.556,334.933 47.200,334.600 47.200 C 334.270 47.200,334.000 46.930,334.000 46.600 C 334.000 46.270,333.730 46.000,333.400 46.000 C 333.070 46.000,332.800 45.730,332.800 45.400 C 332.800 45.070,332.549 44.800,332.243 44.800 C 331.936 44.800,331.582 44.530,331.455 44.200 C 331.329 43.870,330.769 43.600,330.213 43.600 C 329.579 43.600,329.200 43.375,329.200 43.000 C 329.200 42.670,328.930 42.400,328.600 42.400 C 328.270 42.400,328.000 42.130,328.000 41.800 C 328.000 41.470,327.730 41.200,327.400 41.200 C 327.070 41.200,326.800 40.930,326.800 40.600 C 326.800 40.200,326.400 40.000,325.600 40.000 C 324.800 40.000,324.400 39.800,324.400 39.400 C 324.400 39.070,324.130 38.800,323.800 38.800 C 323.470 38.800,323.200 38.530,323.200 38.200 C 323.200 37.870,322.924 37.600,322.587 37.600 C 322.251 37.600,321.871 37.330,321.745 37.000 C 321.613 36.658,321.017 36.400,320.357 36.400 C 319.595 36.400,319.200 36.195,319.200 35.800 C 319.200 35.470,318.930 35.200,318.600 35.200 C 318.270 35.200,318.000 34.930,318.000 34.600 C 318.000 34.200,317.600 34.000,316.800 34.000 C 316.000 34.000,315.600 33.800,315.600 33.400 C 315.600 33.070,315.330 32.800,315.000 32.800 C 314.670 32.800,314.400 32.544,314.400 32.232 C 314.400 31.919,313.875 31.548,313.233 31.407 C 312.592 31.266,311.967 30.892,311.846 30.576 C 311.724 30.259,311.169 30.000,310.613 30.000 C 309.979 30.000,309.600 29.775,309.600 29.400 C 309.600 28.956,309.133 28.800,307.800 28.800 L 306.000 28.800 306.000 83.600 M310.000 32.600 C 310.274 32.930,310.659 33.200,310.857 33.200 C 311.054 33.200,311.977 33.691,312.908 34.292 C 315.250 35.803,316.103 36.322,316.800 36.659 C 317.130 36.818,318.865 38.040,320.655 39.374 C 322.446 40.708,324.313 42.070,324.804 42.400 C 325.296 42.730,325.901 43.180,326.149 43.400 C 326.397 43.620,327.320 44.297,328.200 44.905 C 329.080 45.513,330.542 46.683,331.450 47.505 C 332.357 48.327,333.498 49.270,333.985 49.600 C 336.789 51.500,346.721 60.954,353.300 67.987 L 356.800 71.728 356.800 210.493 C 356.800 320.959,356.698 349.364,356.300 349.780 C 356.025 350.067,355.530 350.699,355.200 351.185 C 354.309 352.496,344.197 362.688,341.200 365.296 C 339.770 366.541,337.790 368.291,336.800 369.187 C 335.810 370.083,334.010 371.567,332.800 372.486 C 331.590 373.405,330.420 374.350,330.200 374.587 C 329.236 375.625,326.076 378.000,325.659 378.000 C 325.406 378.000,325.199 378.135,325.197 378.300 C 325.196 378.465,324.521 379.046,323.697 379.592 C 322.449 380.419,318.049 383.582,316.600 384.693 C 316.380 384.862,315.358 385.411,314.329 385.914 C 313.300 386.416,312.400 386.956,312.329 387.114 C 312.064 387.703,308.499 389.308,308.058 389.036 C 307.430 388.647,307.396 282.973,308.025 282.585 C 308.258 282.440,308.626 281.935,308.842 281.461 C 309.394 280.249,311.494 276.874,311.991 276.400 C 312.106 276.290,312.616 275.349,313.124 274.309 C 313.632 273.269,314.203 272.322,314.393 272.204 C 314.583 272.087,314.857 271.453,315.001 270.795 C 315.145 270.138,315.415 269.600,315.600 269.600 C 315.785 269.600,316.055 269.060,316.200 268.400 C 316.345 267.740,316.617 267.200,316.805 267.200 C 316.993 267.200,317.261 266.795,317.401 266.300 C 317.540 265.805,317.917 264.818,318.238 264.106 C 318.559 263.394,319.114 262.134,319.472 261.306 C 319.829 260.478,320.364 259.322,320.661 258.738 C 320.957 258.154,321.200 257.404,321.200 257.071 C 321.200 256.737,321.450 255.955,321.756 255.332 C 322.357 254.106,323.077 252.104,323.600 250.200 C 323.781 249.540,324.110 248.460,324.330 247.800 C 324.551 247.140,325.026 245.520,325.386 244.200 C 325.747 242.880,326.302 240.966,326.621 239.946 C 326.939 238.927,327.200 237.564,327.200 236.919 C 327.200 236.273,327.464 234.856,327.787 233.770 C 328.109 232.683,328.570 229.996,328.811 227.797 C 329.051 225.599,329.406 222.540,329.599 221.000 C 330.085 217.126,330.073 202.127,329.580 198.000 C 328.534 189.247,327.436 182.495,326.524 179.200 C 326.188 177.990,325.648 176.010,325.323 174.800 C 324.997 173.590,324.546 172.060,324.320 171.400 C 324.094 170.740,323.814 169.660,323.699 169.000 C 323.584 168.340,323.245 167.445,322.945 167.011 C 322.645 166.577,322.400 165.846,322.400 165.387 C 322.400 164.928,322.136 164.204,321.813 163.776 C 321.490 163.349,321.220 162.668,321.213 162.262 C 321.206 161.856,320.957 161.046,320.661 160.462 C 320.364 159.878,319.851 158.770,319.519 158.000 C 318.519 155.673,313.191 145.084,312.375 143.800 C 311.955 143.140,311.427 142.240,311.200 141.800 C 310.973 141.360,310.433 140.460,310.000 139.800 C 309.567 139.140,309.040 138.212,308.831 137.739 C 308.621 137.265,308.258 136.760,308.025 136.615 C 307.551 136.322,307.394 32.739,307.867 32.267 C 308.334 31.800,309.485 31.979,310.000 32.600 M89.901 85.573 L 90.003 138.080 87.401 142.398 C 85.971 144.772,84.800 146.914,84.800 147.158 C 84.800 147.401,84.632 147.600,84.427 147.600 C 84.222 147.600,83.938 148.005,83.796 148.500 C 83.540 149.390,82.143 152.434,79.937 156.906 C 79.312 158.174,78.800 159.457,78.800 159.757 C 78.800 160.057,78.550 160.510,78.244 160.764 C 77.937 161.018,77.598 161.715,77.489 162.313 C 77.271 163.515,76.582 165.560,75.776 167.400 C 75.488 168.060,75.127 169.224,74.975 169.987 C 74.823 170.750,74.562 171.650,74.396 171.987 C 73.816 173.165,72.166 179.988,71.539 183.800 C 71.322 185.120,70.954 186.817,70.720 187.572 C 70.487 188.327,70.150 190.577,69.972 192.572 C 69.794 194.567,69.463 197.460,69.237 199.000 C 68.706 202.620,68.706 216.580,69.237 220.200 C 69.463 221.740,69.799 224.620,69.984 226.600 C 70.169 228.580,70.514 231.010,70.751 232.000 C 70.988 232.990,71.372 234.790,71.606 236.000 C 72.528 240.781,73.901 246.311,74.400 247.251 C 74.590 247.609,74.873 248.599,75.029 249.451 C 75.186 250.303,75.558 251.355,75.857 251.789 C 76.156 252.223,76.406 253.033,76.413 253.589 C 76.420 254.145,76.690 254.949,77.013 255.376 C 77.336 255.804,77.600 256.546,77.600 257.027 C 77.600 257.508,77.870 258.126,78.200 258.400 C 78.530 258.674,78.800 259.163,78.800 259.487 C 78.800 259.811,79.056 260.554,79.369 261.138 C 79.681 261.722,80.040 262.470,80.166 262.800 C 80.292 263.130,80.550 263.670,80.739 264.000 C 81.092 264.616,81.813 266.186,83.036 269.000 C 83.419 269.880,85.142 272.967,86.866 275.859 L 90.000 281.118 90.000 334.759 C 90.000 377.421,89.898 388.394,89.500 388.371 C 89.225 388.355,88.460 387.997,87.800 387.577 C 87.140 387.156,86.240 386.627,85.800 386.400 C 84.425 385.692,82.807 384.608,77.000 380.505 C 75.680 379.572,74.330 378.569,74.000 378.276 C 73.670 377.982,72.510 377.125,71.422 376.371 C 70.335 375.617,69.150 374.730,68.791 374.400 C 67.381 373.106,65.735 371.739,63.974 370.400 C 60.140 367.484,48.300 356.022,43.358 350.441 L 41.800 348.682 41.800 210.631 L 41.800 72.580 42.727 71.390 C 45.022 68.445,59.177 54.505,61.918 52.489 C 63.486 51.337,65.291 49.821,66.357 48.761 C 68.180 46.950,82.287 36.778,84.600 35.607 C 85.615 35.093,86.727 34.393,87.963 33.489 C 88.498 33.098,89.130 32.843,89.368 32.923 C 89.674 33.025,89.830 48.389,89.901 85.573 M19.200 99.800 C 19.200 100.130,18.930 100.400,18.600 100.400 C 18.200 100.400,18.000 100.800,18.000 101.600 C 18.000 102.400,17.800 102.800,17.400 102.800 C 17.070 102.800,16.800 103.070,16.800 103.400 C 16.800 103.730,16.550 104.000,16.243 104.000 C 15.937 104.000,15.576 104.442,15.440 104.983 C 15.304 105.524,14.740 106.455,14.187 107.052 C 13.634 107.649,13.079 108.544,12.954 109.040 C 12.830 109.536,12.474 110.039,12.164 110.159 C 11.850 110.279,11.600 110.913,11.600 111.587 C 11.600 112.399,11.401 112.800,11.000 112.800 C 10.600 112.800,10.400 113.200,10.400 114.000 C 10.400 114.800,10.200 115.200,9.800 115.200 C 9.400 115.200,9.200 115.600,9.200 116.400 C 9.200 117.200,9.000 117.600,8.600 117.600 C 8.200 117.600,8.000 118.000,8.000 118.800 C 8.000 119.600,7.800 120.000,7.400 120.000 C 7.005 120.000,6.800 120.395,6.800 121.157 C 6.800 121.817,6.542 122.413,6.200 122.545 C 5.804 122.697,5.600 123.323,5.600 124.387 C 5.600 125.554,5.434 126.000,5.000 126.000 C 4.599 126.000,4.400 126.401,4.400 127.213 C 4.400 127.921,4.151 128.521,3.800 128.655 C 3.458 128.787,3.200 129.383,3.200 130.043 C 3.200 130.805,2.995 131.200,2.600 131.200 C 2.156 131.200,2.000 131.667,2.000 133.000 C 2.000 134.333,1.844 134.800,1.400 134.800 C 0.956 134.800,0.800 135.267,0.800 136.600 C 0.800 137.590,0.620 138.400,0.400 138.400 C 0.135 138.400,0.000 162.867,0.000 211.000 C 0.000 259.133,0.135 283.600,0.400 283.600 C 0.620 283.600,0.800 284.410,0.800 285.400 C 0.800 286.733,0.956 287.200,1.400 287.200 C 1.800 287.200,2.000 287.600,2.000 288.400 C 2.000 289.200,2.200 289.600,2.600 289.600 C 3.001 289.600,3.200 290.001,3.200 290.813 C 3.200 291.521,3.449 292.121,3.800 292.255 C 4.187 292.404,4.400 293.023,4.400 294.000 C 4.400 294.977,4.613 295.596,5.000 295.745 C 5.351 295.879,5.600 296.479,5.600 297.187 C 5.600 297.999,5.799 298.400,6.200 298.400 C 6.600 298.400,6.800 298.800,6.800 299.600 C 6.800 300.400,7.000 300.800,7.400 300.800 C 7.800 300.800,8.000 301.200,8.000 302.000 C 8.000 302.800,8.200 303.200,8.600 303.200 C 9.000 303.200,9.200 303.600,9.200 304.400 C 9.200 305.200,9.400 305.600,9.800 305.600 C 10.195 305.600,10.400 305.995,10.400 306.757 C 10.400 307.417,10.658 308.013,11.000 308.145 C 11.330 308.271,11.600 308.836,11.600 309.400 C 11.600 309.964,11.870 310.529,12.200 310.655 C 12.530 310.782,12.800 311.322,12.800 311.855 C 12.800 312.389,13.070 312.929,13.400 313.055 C 13.730 313.182,14.000 313.480,14.000 313.718 C 14.000 314.434,15.763 316.794,16.300 316.797 C 16.588 316.799,16.800 317.308,16.800 318.000 C 16.800 318.800,17.000 319.200,17.400 319.200 C 17.730 319.200,18.000 319.470,18.000 319.800 C 18.000 320.130,18.270 320.400,18.600 320.400 C 19.000 320.400,19.200 320.800,19.200 321.600 C 19.200 322.667,19.333 322.800,20.400 322.800 C 21.200 322.800,21.600 322.600,21.600 322.200 C 21.600 321.870,21.870 321.600,22.200 321.600 C 22.732 321.600,22.800 308.978,22.800 210.400 L 22.800 99.200 21.000 99.200 C 19.667 99.200,19.200 99.356,19.200 99.800 M378.545 101.000 C 378.418 101.330,378.064 101.600,377.757 101.600 C 377.282 101.600,377.200 117.757,377.200 211.000 L 377.200 320.400 379.000 320.400 C 380.333 320.400,380.800 320.244,380.800 319.800 C 380.800 319.470,381.070 319.200,381.400 319.200 C 381.800 319.200,382.000 318.800,382.000 318.000 C 382.000 317.200,382.200 316.800,382.600 316.800 C 382.930 316.800,383.200 316.530,383.200 316.200 C 383.200 315.870,383.470 315.600,383.800 315.600 C 384.319 315.600,384.597 314.880,384.451 313.912 C 384.427 313.754,384.766 313.432,385.204 313.198 C 385.653 312.957,386.000 312.361,386.000 311.829 C 386.000 311.310,386.270 310.782,386.600 310.655 C 386.930 310.529,387.200 309.989,387.200 309.455 C 387.200 308.922,387.470 308.382,387.800 308.255 C 388.151 308.121,388.400 307.521,388.400 306.813 C 388.400 306.001,388.599 305.600,389.000 305.600 C 389.400 305.600,389.600 305.200,389.600 304.400 C 389.600 303.600,389.800 303.200,390.200 303.200 C 390.600 303.200,390.800 302.800,390.800 302.000 C 390.800 301.200,391.000 300.800,391.400 300.800 C 391.800 300.800,392.000 300.400,392.000 299.600 C 392.000 298.800,392.200 298.400,392.600 298.400 C 393.000 298.400,393.200 298.000,393.200 297.200 C 393.200 296.400,393.400 296.000,393.800 296.000 C 394.219 296.000,394.400 295.578,394.400 294.600 C 394.400 293.622,394.581 293.200,395.000 293.200 C 395.444 293.200,395.600 292.733,395.600 291.400 C 395.600 290.067,395.756 289.600,396.200 289.600 C 396.600 289.600,396.800 289.200,396.800 288.400 C 396.800 287.600,397.000 287.200,397.400 287.200 C 397.844 287.200,398.000 286.733,398.000 285.400 C 398.000 284.067,398.156 283.600,398.600 283.600 C 399.044 283.600,399.200 283.133,399.200 281.800 C 399.200 280.810,399.380 280.000,399.600 280.000 C 399.865 280.000,400.000 256.533,400.000 210.400 C 400.000 164.267,399.865 140.800,399.600 140.800 C 399.380 140.800,399.200 140.074,399.200 139.187 C 399.200 138.123,398.996 137.497,398.600 137.345 C 398.193 137.188,398.000 136.550,398.000 135.357 C 398.000 134.062,397.842 133.600,397.400 133.600 C 397.000 133.600,396.800 133.200,396.800 132.400 C 396.800 131.600,396.600 131.200,396.200 131.200 C 395.799 131.200,395.600 130.799,395.600 129.987 C 395.600 129.279,395.351 128.679,395.000 128.545 C 394.613 128.396,394.400 127.777,394.400 126.800 C 394.400 125.823,394.187 125.204,393.800 125.055 C 393.449 124.921,393.200 124.321,393.200 123.613 C 393.200 122.801,393.001 122.400,392.600 122.400 C 392.200 122.400,392.000 122.000,392.000 121.200 C 392.000 120.400,391.800 120.000,391.400 120.000 C 391.000 120.000,390.800 119.600,390.800 118.800 C 390.800 118.000,390.600 117.600,390.200 117.600 C 389.800 117.600,389.600 117.200,389.600 116.400 C 389.600 115.600,389.400 115.200,389.000 115.200 C 388.605 115.200,388.400 114.805,388.400 114.043 C 388.400 113.383,388.142 112.787,387.800 112.655 C 387.470 112.529,387.200 111.964,387.200 111.400 C 387.200 110.836,386.950 110.279,386.645 110.162 C 386.340 110.045,385.984 109.420,385.855 108.774 C 385.714 108.068,385.367 107.600,384.986 107.600 C 384.638 107.600,384.472 107.408,384.617 107.173 C 384.762 106.938,384.503 106.647,384.040 106.526 C 383.432 106.367,383.200 105.989,383.200 105.153 C 383.200 104.395,382.995 104.000,382.600 104.000 C 382.200 104.000,382.000 103.600,382.000 102.800 C 382.000 102.000,381.800 101.600,381.400 101.600 C 381.070 101.600,380.800 101.330,380.800 101.000 C 380.800 100.625,380.421 100.400,379.787 100.400 C 379.231 100.400,378.671 100.670,378.545 101.000 M19.800 210.600 C 19.800 317.351,19.775 319.446,18.523 316.133 C 18.371 315.730,17.471 314.264,16.523 312.875 C 15.575 311.486,14.800 310.113,14.800 309.824 C 14.800 309.535,14.530 309.074,14.200 308.800 C 13.870 308.526,13.600 307.977,13.600 307.580 C 13.600 307.182,13.360 306.618,13.067 306.325 C 12.775 306.032,12.411 305.299,12.260 304.696 C 12.109 304.093,11.808 303.600,11.592 303.600 C 11.377 303.600,11.200 303.333,11.200 303.006 C 11.200 302.679,10.671 301.374,10.024 300.106 C 9.378 298.838,8.467 296.900,8.000 295.800 C 7.533 294.700,6.887 293.218,6.565 292.506 C 6.242 291.794,5.686 290.534,5.328 289.706 C 4.971 288.878,4.436 287.722,4.139 287.138 C 3.843 286.554,3.594 285.744,3.587 285.338 C 3.580 284.932,3.310 284.251,2.987 283.824 C 2.664 283.396,2.400 282.666,2.400 282.200 C 2.400 281.734,2.136 281.004,1.813 280.576 C 0.924 279.402,0.924 141.798,1.813 140.624 C 2.136 140.196,2.400 139.466,2.400 139.000 C 2.400 138.534,2.664 137.804,2.987 137.376 C 3.310 136.949,3.580 136.268,3.587 135.862 C 3.594 135.456,3.843 134.646,4.139 134.062 C 4.436 133.478,4.945 132.370,5.271 131.600 C 6.270 129.243,7.047 127.484,7.943 125.556 C 8.414 124.542,8.800 123.417,8.800 123.056 C 8.800 122.695,8.966 122.400,9.168 122.400 C 9.371 122.400,9.652 121.872,9.794 121.228 C 9.936 120.583,10.310 119.841,10.626 119.579 C 10.942 119.317,11.200 118.786,11.200 118.400 C 11.200 118.014,11.470 117.474,11.800 117.200 C 12.130 116.926,12.400 116.386,12.400 116.000 C 12.400 115.614,12.670 115.074,13.000 114.800 C 13.330 114.526,13.600 113.986,13.600 113.600 C 13.600 113.214,13.870 112.674,14.200 112.400 C 14.530 112.126,14.800 111.635,14.800 111.309 C 14.800 110.982,15.340 110.033,16.000 109.200 C 16.660 108.367,17.200 107.552,17.200 107.390 C 17.200 106.694,18.928 104.376,19.344 104.515 C 19.684 104.628,19.800 131.679,19.800 210.600 M381.600 106.571 C 381.600 106.886,381.835 107.381,382.122 107.671 C 382.410 107.962,382.769 108.470,382.920 108.800 C 383.071 109.130,383.363 109.670,383.569 110.000 C 383.774 110.330,384.044 110.870,384.169 111.200 C 384.390 111.788,384.602 112.189,385.539 113.800 C 385.796 114.240,386.107 114.870,386.231 115.200 C 386.356 115.530,386.613 116.070,386.803 116.400 C 387.503 117.615,389.954 122.659,390.789 124.600 C 391.262 125.700,391.890 127.140,392.184 127.800 C 392.479 128.460,393.036 129.720,393.421 130.600 C 393.806 131.480,394.364 132.678,394.661 133.262 C 394.957 133.846,395.200 134.666,395.200 135.085 C 395.200 135.504,395.464 136.196,395.787 136.624 C 396.110 137.051,396.386 137.850,396.400 138.400 C 396.414 138.950,396.690 139.749,397.013 140.176 C 397.336 140.604,397.600 141.334,397.600 141.800 C 397.600 142.266,397.864 142.996,398.187 143.424 C 399.076 144.598,399.076 276.602,398.187 277.776 C 397.864 278.204,397.600 278.934,397.600 279.400 C 397.600 279.866,397.336 280.596,397.013 281.024 C 396.690 281.451,396.414 282.250,396.400 282.800 C 396.386 283.350,396.110 284.149,395.787 284.576 C 395.464 285.004,395.200 285.696,395.200 286.115 C 395.200 286.534,394.957 287.354,394.661 287.938 C 394.052 289.137,393.184 291.042,392.173 293.400 C 391.795 294.280,390.882 296.291,390.143 297.869 C 389.404 299.447,388.800 300.932,388.800 301.169 C 388.800 301.406,388.634 301.600,388.432 301.600 C 388.229 301.600,387.945 302.140,387.800 302.800 C 387.655 303.460,387.385 304.000,387.200 304.000 C 387.015 304.000,386.745 304.540,386.600 305.200 C 386.455 305.860,386.171 306.400,385.968 306.400 C 385.766 306.400,385.600 306.605,385.600 306.856 C 385.600 307.468,383.928 310.865,383.300 311.529 C 383.025 311.819,382.794 312.269,382.786 312.529 C 382.753 313.585,380.811 315.435,380.401 314.800 C 379.975 314.143,379.819 107.738,380.243 106.633 C 380.545 105.844,381.600 105.797,381.600 106.571 M121.384 313.700 C 121.280 313.975,121.240 335.260,121.297 361.000 L 121.400 407.800 122.471 407.924 C 123.060 407.992,123.757 408.307,124.020 408.624 C 124.286 408.944,125.187 409.200,126.049 409.200 C 127.161 409.200,127.600 409.370,127.600 409.800 C 127.600 410.244,128.067 410.400,129.400 410.400 C 130.733 410.400,131.200 410.556,131.200 411.000 C 131.200 411.444,131.667 411.600,133.000 411.600 C 134.333 411.600,134.800 411.756,134.800 412.200 C 134.800 412.644,135.267 412.800,136.600 412.800 C 137.933 412.800,138.400 412.956,138.400 413.400 C 138.400 413.867,138.935 414.000,140.813 414.000 C 142.588 414.000,143.286 414.158,143.455 414.600 C 143.612 415.007,144.250 415.200,145.443 415.200 C 146.738 415.200,147.200 415.358,147.200 415.800 C 147.200 416.280,147.800 416.400,150.200 416.400 C 152.600 416.400,153.200 416.520,153.200 417.000 C 153.200 417.480,153.801 417.600,156.213 417.600 C 158.521 417.600,159.279 417.740,159.455 418.200 C 159.631 418.658,160.383 418.800,162.643 418.800 C 165.005 418.800,165.600 418.921,165.600 419.400 C 165.600 419.905,166.489 420.000,171.200 420.000 C 174.667 420.000,176.800 420.152,176.800 420.400 C 176.800 420.662,184.600 420.800,199.400 420.800 C 214.200 420.800,222.000 420.662,222.000 420.400 C 222.000 420.152,224.133 420.000,227.600 420.000 C 232.311 420.000,233.200 419.905,233.200 419.400 C 233.200 418.920,233.800 418.800,236.200 418.800 C 238.600 418.800,239.200 418.680,239.200 418.200 C 239.200 417.717,239.822 417.600,242.400 417.600 C 244.978 417.600,245.600 417.483,245.600 417.000 C 245.600 416.533,246.133 416.400,248.000 416.400 C 249.867 416.400,250.400 416.267,250.400 415.800 C 250.400 415.333,250.933 415.200,252.800 415.200 C 254.667 415.200,255.200 415.067,255.200 414.600 C 255.200 414.133,255.735 414.000,257.613 414.000 C 259.388 414.000,260.086 413.842,260.255 413.400 C 260.412 412.993,261.050 412.800,262.243 412.800 C 263.538 412.800,264.000 412.642,264.000 412.200 C 264.000 411.756,264.467 411.600,265.800 411.600 C 267.133 411.600,267.600 411.444,267.600 411.000 C 267.600 410.566,268.046 410.400,269.213 410.400 C 270.277 410.400,270.903 410.196,271.055 409.800 C 271.187 409.456,271.785 409.200,272.455 409.200 C 273.126 409.200,273.723 408.944,273.855 408.600 C 273.987 408.258,274.583 408.000,275.243 408.000 L 276.400 408.000 276.400 361.200 L 276.400 314.400 274.600 314.400 C 273.267 314.400,272.800 314.556,272.800 315.000 C 272.800 315.375,272.421 315.600,271.787 315.600 C 271.231 315.600,270.671 315.870,270.545 316.200 C 270.418 316.530,270.058 316.800,269.745 316.800 C 269.431 316.800,269.071 317.070,268.945 317.400 C 268.818 317.730,268.278 318.000,267.745 318.000 C 267.211 318.000,266.671 318.270,266.545 318.600 C 266.418 318.930,266.064 319.200,265.757 319.200 C 265.451 319.200,265.200 319.470,265.200 319.800 C 265.200 320.175,264.821 320.400,264.187 320.400 C 263.631 320.400,263.071 320.670,262.945 321.000 C 262.818 321.330,262.387 321.600,261.986 321.600 C 261.585 321.600,260.996 321.861,260.677 322.180 C 260.358 322.499,259.625 322.879,259.048 323.024 C 258.472 323.168,258.000 323.537,258.000 323.843 C 258.000 324.150,257.730 324.400,257.400 324.400 C 257.070 324.400,256.800 324.670,256.800 325.000 C 256.800 325.419,256.378 325.600,255.400 325.600 C 254.422 325.600,254.000 325.781,254.000 326.200 C 254.000 326.634,253.554 326.800,252.387 326.800 C 251.323 326.800,250.697 327.004,250.545 327.400 C 250.413 327.742,249.817 328.000,249.157 328.000 C 248.395 328.000,248.000 328.205,248.000 328.600 C 248.000 329.000,247.600 329.200,246.800 329.200 C 246.000 329.200,245.600 329.400,245.600 329.800 C 245.600 330.244,245.133 330.400,243.800 330.400 C 242.467 330.400,242.000 330.556,242.000 331.000 C 242.000 331.442,241.538 331.600,240.243 331.600 C 239.050 331.600,238.412 331.793,238.255 332.200 C 238.098 332.611,237.455 332.800,236.213 332.800 C 234.868 332.800,234.400 332.955,234.400 333.400 C 234.400 333.861,233.887 334.000,232.187 334.000 C 230.590 334.000,229.911 334.167,229.745 334.600 C 229.576 335.039,228.884 335.200,227.157 335.200 C 225.329 335.200,224.800 335.335,224.800 335.800 C 224.800 336.280,224.199 336.400,221.787 336.400 C 219.479 336.400,218.721 336.540,218.545 337.000 C 218.358 337.487,217.417 337.600,213.557 337.600 C 209.595 337.600,208.800 337.700,208.800 338.200 C 208.800 338.716,207.489 338.800,199.400 338.800 C 191.311 338.800,190.000 338.716,190.000 338.200 C 190.000 337.700,189.205 337.600,185.243 337.600 C 181.383 337.600,180.442 337.487,180.255 337.000 C 180.079 336.540,179.321 336.400,177.013 336.400 C 174.601 336.400,174.000 336.280,174.000 335.800 C 174.000 335.320,173.400 335.200,171.000 335.200 C 168.600 335.200,168.000 335.080,168.000 334.600 C 168.000 334.158,167.539 334.000,166.249 334.000 C 165.180 334.000,164.304 333.766,164.000 333.400 C 163.670 333.003,162.775 332.800,161.351 332.800 C 159.706 332.800,159.200 332.659,159.200 332.200 C 159.200 331.805,158.805 331.600,158.043 331.600 C 157.383 331.600,156.787 331.342,156.655 331.000 C 156.503 330.604,155.877 330.400,154.813 330.400 C 153.646 330.400,153.200 330.234,153.200 329.800 C 153.200 329.405,152.805 329.200,152.043 329.200 C 151.383 329.200,150.787 328.942,150.655 328.600 C 150.503 328.204,149.877 328.000,148.813 328.000 C 147.646 328.000,147.200 327.834,147.200 327.400 C 147.200 326.999,146.799 326.800,145.987 326.800 C 145.279 326.800,144.679 326.551,144.545 326.200 C 144.413 325.858,143.817 325.600,143.157 325.600 C 142.395 325.600,142.000 325.395,142.000 325.000 C 142.000 324.605,141.605 324.400,140.847 324.400 C 140.030 324.400,139.632 324.167,139.484 323.600 C 139.343 323.059,138.938 322.800,138.237 322.800 C 137.582 322.800,137.200 322.579,137.200 322.200 C 137.200 321.870,136.930 321.600,136.600 321.600 C 136.270 321.600,136.000 321.434,136.000 321.232 C 136.000 321.029,135.475 320.748,134.833 320.607 C 134.192 320.466,133.567 320.092,133.446 319.776 C 133.324 319.459,132.769 319.200,132.213 319.200 C 131.579 319.200,131.200 318.975,131.200 318.600 C 131.200 318.270,130.924 318.000,130.587 318.000 C 130.251 318.000,129.871 317.730,129.745 317.400 C 129.613 317.058,129.017 316.800,128.357 316.800 C 127.595 316.800,127.200 316.595,127.200 316.200 C 127.200 315.870,126.930 315.600,126.600 315.600 C 126.270 315.600,126.000 315.330,126.000 315.000 C 126.000 314.600,125.600 314.400,124.800 314.400 C 124.000 314.400,123.600 314.200,123.600 313.800 C 123.600 313.062,121.661 312.974,121.384 313.700 M274.400 361.636 C 274.400 403.185,274.361 405.637,273.700 405.833 C 273.315 405.947,272.490 406.302,271.868 406.620 C 271.245 406.939,270.430 407.200,270.057 407.200 C 269.683 407.200,269.023 407.444,268.589 407.742 C 268.155 408.040,267.350 408.385,266.800 408.509 C 265.711 408.755,262.676 409.807,261.400 410.382 C 260.960 410.580,259.881 410.862,259.003 411.008 C 258.125 411.153,257.225 411.391,257.003 411.535 C 256.781 411.679,255.700 412.005,254.600 412.258 C 253.500 412.512,251.520 413.022,250.200 413.392 C 247.357 414.189,243.662 414.978,239.800 415.613 C 238.260 415.867,236.124 416.328,235.054 416.637 C 233.984 416.947,232.274 417.204,231.254 417.210 C 230.234 417.215,228.590 417.411,227.600 417.644 C 225.835 418.061,223.056 418.326,211.000 419.230 C 207.438 419.497,200.855 419.589,194.800 419.457 C 184.832 419.239,181.159 418.967,172.194 417.782 C 169.770 417.462,167.226 417.200,166.540 417.200 C 165.853 417.200,164.416 416.947,163.346 416.637 C 162.276 416.328,160.230 415.880,158.800 415.642 C 155.127 415.032,150.970 414.152,148.400 413.440 C 143.685 412.133,141.322 411.501,139.400 411.030 C 138.300 410.761,136.893 410.329,136.274 410.070 C 135.655 409.812,134.986 409.600,134.788 409.600 C 134.589 409.600,133.836 409.345,133.114 409.033 C 132.391 408.722,131.143 408.182,130.340 407.833 C 129.536 407.485,128.546 407.194,128.140 407.187 C 127.733 407.180,127.051 406.910,126.624 406.587 C 126.196 406.264,125.528 406.000,125.138 406.000 C 123.619 406.000,123.600 405.435,123.600 361.026 L 123.600 317.600 124.567 317.600 C 125.098 317.600,125.593 317.744,125.667 317.921 C 125.740 318.098,126.970 318.941,128.400 319.795 C 129.830 320.649,131.541 321.752,132.202 322.247 C 132.863 322.741,133.853 323.340,134.402 323.578 C 134.951 323.817,135.940 324.367,136.600 324.802 C 137.260 325.236,138.070 325.696,138.400 325.824 C 138.730 325.953,139.270 326.217,139.600 326.412 C 140.995 327.237,144.383 328.800,144.775 328.800 C 145.009 328.800,145.200 328.980,145.200 329.200 C 145.200 329.420,145.487 329.600,145.838 329.600 C 146.189 329.600,146.954 329.863,147.538 330.184 C 149.361 331.185,152.329 332.400,152.954 332.400 C 153.284 332.400,153.655 332.566,153.781 332.769 C 153.906 332.972,154.559 333.259,155.232 333.407 C 155.904 333.555,156.937 333.927,157.527 334.235 C 158.117 334.543,158.960 334.803,159.400 334.812 C 159.840 334.821,160.650 335.086,161.200 335.400 C 161.750 335.714,162.740 335.984,163.400 336.000 C 164.060 336.016,165.050 336.286,165.600 336.600 C 166.150 336.914,167.163 337.178,167.851 337.186 C 168.539 337.194,169.749 337.470,170.538 337.800 C 171.328 338.130,172.678 338.400,173.538 338.400 C 174.399 338.400,175.749 338.670,176.538 339.000 C 177.328 339.330,179.015 339.606,180.287 339.614 C 181.559 339.622,183.680 339.889,185.000 340.208 C 187.860 340.898,209.843 341.023,212.800 340.365 C 213.790 340.145,216.161 339.812,218.068 339.625 C 219.976 339.439,221.743 339.159,221.996 339.002 C 222.249 338.846,223.739 338.557,225.307 338.360 C 226.875 338.163,228.338 337.822,228.559 337.601 C 228.780 337.380,229.599 337.194,230.380 337.186 C 231.161 337.178,232.250 336.914,232.800 336.600 C 233.350 336.286,234.340 336.021,235.000 336.012 C 235.660 336.003,236.716 335.726,237.346 335.398 C 237.976 335.069,238.786 334.799,239.146 334.798 C 239.506 334.796,240.283 334.543,240.873 334.235 C 241.463 333.927,242.496 333.555,243.168 333.407 C 243.841 333.259,244.494 332.972,244.619 332.769 C 244.745 332.566,245.116 332.400,245.446 332.400 C 245.992 332.400,247.351 331.861,251.200 330.117 C 251.970 329.768,252.870 329.328,253.200 329.139 C 253.530 328.950,254.070 328.693,254.400 328.569 C 254.730 328.444,255.270 328.174,255.600 327.969 C 255.930 327.763,256.470 327.493,256.800 327.369 C 257.130 327.244,257.670 326.983,258.000 326.788 C 258.330 326.593,259.500 325.991,260.600 325.450 C 261.700 324.909,263.283 324.001,264.118 323.433 C 264.953 322.865,265.709 322.400,265.798 322.400 C 265.887 322.400,266.760 321.860,267.738 321.200 C 268.716 320.540,269.706 320.000,269.938 320.000 C 270.170 320.000,270.504 319.768,270.680 319.484 C 271.135 318.751,273.703 317.216,274.082 317.451 C 274.257 317.559,274.400 337.442,274.400 361.636 " stroke="none" fill="#747c84" fill-rule="evenodd"></path></g></svg>