<svg id="svg" version="1.1" xmlns="http://www.w3.org/2000/svg" xmlns:xlink="http://www.w3.org/1999/xlink" width="400" height="441.0557184750733" viewBox="0, 0, 400,441.0557184750733"><g id="svgg"><path id="path0" d="M330.176 48.400 C 330.176 54.670,330.232 57.235,330.299 54.100 C 330.367 50.965,330.367 45.835,330.299 42.700 C 330.232 39.565,330.176 42.130,330.176 48.400 M330.189 102.000 C 330.189 116.410,330.239 122.305,330.300 115.100 C 330.361 107.895,330.361 96.105,330.300 88.900 C 330.239 81.695,330.189 87.590,330.189 102.000 M176.545 115.000 C 176.418 115.330,175.884 115.600,175.357 115.600 C 174.773 115.600,174.400 115.834,174.400 116.200 C 174.400 116.600,174.000 116.800,173.200 116.800 C 172.400 116.800,172.000 117.000,172.000 117.400 C 172.000 117.800,171.600 118.000,170.800 118.000 C 170.140 118.000,169.600 118.177,169.600 118.392 C 169.600 118.608,169.105 118.906,168.500 119.054 C 167.895 119.202,167.310 119.432,167.200 119.564 C 167.090 119.697,165.699 120.434,164.108 121.203 C 162.518 121.971,161.213 122.825,161.208 123.100 C 161.204 123.375,160.744 123.600,160.187 123.600 C 159.631 123.600,159.071 123.870,158.945 124.200 C 158.818 124.530,158.284 124.800,157.757 124.800 C 157.173 124.800,156.800 125.034,156.800 125.400 C 156.800 125.800,156.400 126.000,155.600 126.000 C 154.800 126.000,154.400 126.200,154.400 126.600 C 154.400 127.000,154.000 127.200,153.200 127.200 C 152.400 127.200,152.000 127.400,152.000 127.800 C 152.000 128.200,151.600 128.400,150.800 128.400 C 150.000 128.400,149.600 128.600,149.600 129.000 C 149.600 129.400,149.200 129.600,148.400 129.600 C 147.600 129.600,147.200 129.800,147.200 130.200 C 147.200 130.600,146.800 130.800,146.000 130.800 C 145.200 130.800,144.800 131.000,144.800 131.400 C 144.800 131.800,144.400 132.000,143.600 132.000 C 142.800 132.000,142.400 132.200,142.400 132.600 C 142.400 132.966,142.027 133.200,141.443 133.200 C 140.916 133.200,140.382 133.470,140.255 133.800 C 140.129 134.130,139.569 134.400,139.013 134.400 C 138.379 134.400,138.000 134.625,138.000 135.000 C 138.000 135.400,137.600 135.600,136.800 135.600 C 136.140 135.600,135.600 135.766,135.600 135.968 C 135.600 136.171,135.060 136.455,134.400 136.600 C 133.740 136.745,133.200 137.029,133.200 137.232 C 133.200 137.434,132.853 137.600,132.429 137.600 C 132.004 137.600,131.417 137.825,131.122 138.100 C 130.828 138.375,129.871 138.935,128.994 139.344 C 128.117 139.753,127.130 140.253,126.800 140.456 C 126.470 140.658,125.885 140.929,125.500 141.058 C 125.115 141.188,124.800 141.542,124.800 141.847 C 124.800 142.172,124.383 142.400,123.787 142.400 C 123.231 142.400,122.671 142.670,122.545 143.000 C 122.418 143.330,121.884 143.600,121.357 143.600 C 120.773 143.600,120.400 143.834,120.400 144.200 C 120.400 144.600,120.000 144.800,119.200 144.800 C 118.400 144.800,118.000 145.000,118.000 145.400 C 118.000 145.800,117.600 146.000,116.800 146.000 C 116.000 146.000,115.600 146.200,115.600 146.600 C 115.600 147.000,115.200 147.200,114.400 147.200 C 113.600 147.200,113.200 147.400,113.200 147.800 C 113.200 148.200,112.800 148.400,112.000 148.400 C 111.200 148.400,110.800 148.600,110.800 149.000 C 110.800 149.400,110.400 149.600,109.600 149.600 C 108.800 149.600,108.400 149.800,108.400 150.200 C 108.400 150.600,108.000 150.800,107.200 150.800 C 106.400 150.800,106.000 151.000,106.000 151.400 C 106.000 151.773,105.622 152.000,105.000 152.000 C 104.450 152.000,104.000 152.166,104.000 152.368 C 104.000 152.571,103.460 152.855,102.800 153.000 C 102.140 153.145,101.600 153.429,101.600 153.632 C 101.600 153.834,101.253 154.000,100.829 154.000 C 100.404 154.000,99.787 154.270,99.457 154.600 C 99.127 154.930,98.479 155.200,98.016 155.200 C 97.553 155.200,97.071 155.470,96.945 155.800 C 96.818 156.130,96.278 156.400,95.745 156.400 C 95.211 156.400,94.671 156.670,94.545 157.000 C 94.418 157.330,93.878 157.600,93.345 157.600 C 92.811 157.600,92.271 157.870,92.145 158.200 C 92.018 158.530,91.568 158.800,91.145 158.800 C 90.721 158.800,90.271 159.070,90.145 159.400 C 90.018 159.730,89.478 160.000,88.945 160.000 C 88.411 160.000,87.871 160.270,87.745 160.600 C 87.618 160.930,87.264 161.200,86.957 161.200 C 86.651 161.200,86.400 161.470,86.400 161.800 C 86.400 162.200,86.000 162.400,85.200 162.400 C 84.400 162.400,84.000 162.600,84.000 163.000 C 84.000 163.400,83.600 163.600,82.800 163.600 C 82.000 163.600,81.600 163.800,81.600 164.200 C 81.600 164.600,81.200 164.800,80.400 164.800 C 79.600 164.800,79.200 165.000,79.200 165.400 C 79.200 165.800,78.800 166.000,78.000 166.000 C 77.200 166.000,76.800 166.200,76.800 166.600 C 76.800 167.000,76.400 167.200,75.600 167.200 C 74.800 167.200,74.400 167.400,74.400 167.800 C 74.400 168.200,74.000 168.400,73.200 168.400 C 72.400 168.400,72.000 168.600,72.000 169.000 C 72.000 169.373,71.622 169.600,71.000 169.600 C 70.450 169.600,70.000 169.780,70.000 170.000 C 70.000 170.220,69.653 170.400,69.229 170.400 C 68.804 170.400,68.187 170.670,67.857 171.000 C 67.527 171.330,66.879 171.600,66.416 171.600 C 65.953 171.600,65.471 171.870,65.345 172.200 C 65.218 172.530,64.678 172.800,64.145 172.800 C 63.611 172.800,63.071 173.070,62.945 173.400 C 62.818 173.730,62.278 174.000,61.745 174.000 C 61.211 174.000,60.671 174.270,60.545 174.600 C 60.418 174.930,59.878 175.200,59.345 175.200 C 58.811 175.200,58.271 175.470,58.145 175.800 C 58.018 176.130,57.478 176.400,56.945 176.400 C 56.411 176.400,55.871 176.670,55.745 177.000 C 55.618 177.330,55.168 177.600,54.745 177.600 C 54.321 177.600,53.871 177.870,53.745 178.200 C 53.618 178.530,53.078 178.800,52.545 178.800 C 52.011 178.800,51.471 179.070,51.345 179.400 C 51.218 179.730,50.864 180.000,50.557 180.000 C 50.251 180.000,50.000 180.270,50.000 180.600 C 50.000 181.000,49.600 181.200,48.800 181.200 C 48.000 181.200,47.600 181.400,47.600 181.800 C 47.600 182.200,47.200 182.400,46.400 182.400 C 45.600 182.400,45.200 182.600,45.200 183.000 C 45.200 183.400,44.800 183.600,44.000 183.600 C 43.200 183.600,42.800 183.800,42.800 184.200 C 42.800 184.600,42.400 184.800,41.600 184.800 C 40.800 184.800,40.400 185.000,40.400 185.400 C 40.400 185.796,40.004 186.000,39.233 186.000 C 38.592 186.000,38.007 186.135,37.933 186.300 C 37.712 186.797,35.190 188.000,34.368 188.000 C 33.945 188.000,33.600 188.270,33.600 188.600 C 33.600 189.000,33.200 189.200,32.400 189.200 C 31.600 189.200,31.200 189.400,31.200 189.800 C 31.200 190.200,30.800 190.400,30.000 190.400 C 29.200 190.400,28.800 190.600,28.800 191.000 C 28.800 191.375,28.421 191.600,27.787 191.600 C 27.231 191.600,26.671 191.870,26.545 192.200 C 26.418 192.530,25.878 192.800,25.345 192.800 C 24.811 192.800,24.271 193.070,24.145 193.400 C 24.018 193.730,23.478 194.000,22.945 194.000 C 22.411 194.000,21.871 194.270,21.745 194.600 C 21.618 194.930,21.103 195.200,20.600 195.200 C 20.097 195.200,19.582 195.470,19.455 195.800 C 19.329 196.130,18.769 196.400,18.213 196.400 C 17.579 196.400,17.200 196.625,17.200 197.000 C 17.200 197.400,16.800 197.600,16.000 197.600 C 15.200 197.600,14.800 197.800,14.800 198.200 C 14.800 198.530,14.530 198.800,14.200 198.800 C 13.870 198.800,13.600 199.070,13.600 199.400 C 13.600 199.800,13.200 200.000,12.400 200.000 C 11.600 200.000,11.200 200.200,11.200 200.600 C 11.200 201.000,10.800 201.200,10.000 201.200 C 9.200 201.200,8.800 201.400,8.800 201.800 C 8.800 202.200,8.400 202.400,7.600 202.400 C 6.800 202.400,6.400 202.600,6.400 203.000 C 6.400 203.400,6.000 203.600,5.200 203.600 C 4.540 203.600,4.000 203.780,4.000 204.000 C 4.000 204.220,3.544 204.400,2.987 204.400 C 2.431 204.400,1.871 204.670,1.745 205.000 C 1.618 205.330,1.174 205.600,0.757 205.600 C 0.183 205.600,0.000 205.889,0.000 206.800 C 0.000 207.905,0.111 208.000,1.400 208.000 C 2.378 208.000,2.800 208.181,2.800 208.600 C 2.800 209.122,4.644 209.200,17.000 209.200 C 29.356 209.200,31.200 209.278,31.200 209.800 C 31.200 210.322,33.022 210.400,45.200 210.400 C 57.378 210.400,59.200 210.478,59.200 211.000 C 59.200 211.522,61.044 211.600,73.400 211.600 C 85.756 211.600,87.600 211.678,87.600 212.200 C 87.600 212.722,89.489 212.800,102.200 212.800 C 114.911 212.800,116.800 212.878,116.800 213.400 C 116.800 213.922,118.622 214.000,130.800 214.000 C 142.978 214.000,144.800 214.078,144.800 214.600 C 144.800 215.122,146.644 215.200,159.000 215.200 C 171.356 215.200,173.200 215.278,173.200 215.800 C 173.200 216.322,175.017 216.400,187.157 216.400 C 199.195 216.400,201.146 216.483,201.345 217.000 C 201.543 217.517,203.475 217.602,215.287 217.613 C 226.711 217.623,229.130 217.723,229.776 218.213 C 230.336 218.636,231.645 218.800,234.472 218.800 C 239.120 218.800,240.000 219.260,240.000 221.689 C 240.000 222.765,240.173 223.200,240.600 223.200 C 241.044 223.200,241.200 223.667,241.200 225.000 C 241.200 226.333,241.356 226.800,241.800 226.800 C 242.234 226.800,242.400 227.246,242.400 228.413 C 242.400 229.477,242.604 230.103,243.000 230.255 C 243.342 230.387,243.600 230.983,243.600 231.643 C 243.600 232.279,243.780 232.800,244.000 232.800 C 244.220 232.800,244.400 233.408,244.400 234.151 C 244.400 234.894,244.648 235.707,244.950 235.959 C 245.253 236.210,245.615 237.132,245.755 238.008 C 245.895 238.883,246.187 239.600,246.405 239.600 C 246.622 239.600,246.800 240.140,246.800 240.800 C 246.800 241.600,247.000 242.000,247.400 242.000 C 247.844 242.000,248.000 242.467,248.000 243.800 C 248.000 245.133,248.156 245.600,248.600 245.600 C 249.034 245.600,249.200 246.046,249.200 247.213 C 249.200 248.277,249.404 248.903,249.800 249.055 C 250.172 249.198,250.400 249.807,250.400 250.655 C 250.400 251.504,250.628 252.113,251.000 252.255 C 251.342 252.387,251.600 252.983,251.600 253.643 C 251.600 254.405,251.805 254.800,252.200 254.800 C 252.644 254.800,252.800 255.267,252.800 256.600 C 252.800 257.933,252.956 258.400,253.400 258.400 C 253.844 258.400,254.000 258.867,254.000 260.200 C 254.000 261.533,254.156 262.000,254.600 262.000 C 255.034 262.000,255.200 262.446,255.200 263.613 C 255.200 264.677,255.404 265.303,255.800 265.455 C 256.142 265.587,256.400 266.183,256.400 266.843 C 256.400 267.605,256.605 268.000,257.000 268.000 C 257.433 268.000,257.600 268.444,257.600 269.600 C 257.600 270.756,257.767 271.200,258.200 271.200 C 258.644 271.200,258.800 271.667,258.800 273.000 C 258.800 274.333,258.956 274.800,259.400 274.800 C 259.830 274.800,260.000 275.239,260.000 276.351 C 260.000 277.242,260.255 278.114,260.600 278.400 C 260.930 278.674,261.200 279.326,261.200 279.849 C 261.200 280.372,261.356 280.800,261.547 280.800 C 261.738 280.800,261.997 281.561,262.122 282.491 C 262.246 283.422,262.540 284.247,262.774 284.325 C 263.008 284.403,263.200 284.979,263.200 285.605 C 263.200 286.231,263.470 287.013,263.800 287.343 C 264.130 287.673,264.400 288.406,264.400 288.971 C 264.400 289.619,264.622 290.000,265.000 290.000 C 265.444 290.000,265.600 290.467,265.600 291.800 C 265.600 293.133,265.756 293.600,266.200 293.600 C 266.634 293.600,266.800 294.046,266.800 295.213 C 266.800 296.277,267.004 296.903,267.400 297.055 C 267.764 297.195,268.000 297.800,268.000 298.594 C 268.000 299.313,268.270 300.126,268.600 300.400 C 268.930 300.674,269.200 301.332,269.200 301.862 C 269.200 302.391,269.470 302.929,269.800 303.055 C 270.191 303.205,270.400 303.828,270.400 304.843 C 270.400 305.960,270.569 306.400,271.000 306.400 C 271.444 306.400,271.600 306.867,271.600 308.200 C 271.600 309.533,271.756 310.000,272.200 310.000 C 272.634 310.000,272.800 310.446,272.800 311.613 C 272.800 312.677,273.004 313.303,273.400 313.455 C 273.742 313.587,274.000 314.183,274.000 314.843 C 274.000 315.605,274.205 316.000,274.600 316.000 C 275.034 316.000,275.200 316.446,275.200 317.613 C 275.200 318.677,275.404 319.303,275.800 319.455 C 276.191 319.605,276.400 320.228,276.400 321.243 C 276.400 322.360,276.569 322.800,277.000 322.800 C 277.400 322.800,277.600 323.200,277.600 324.000 C 277.600 324.660,277.756 325.200,277.947 325.200 C 278.138 325.200,278.397 325.961,278.522 326.891 C 278.646 327.822,278.940 328.647,279.174 328.725 C 279.408 328.803,279.600 329.469,279.600 330.205 C 279.600 330.941,279.870 331.813,280.200 332.143 C 280.530 332.473,280.800 333.193,280.800 333.743 C 280.800 334.293,281.070 335.013,281.400 335.343 C 281.730 335.673,282.000 336.386,282.000 336.929 C 282.000 337.471,282.270 338.018,282.600 338.145 C 282.996 338.297,283.200 338.923,283.200 339.987 C 283.200 341.154,283.366 341.600,283.800 341.600 C 284.244 341.600,284.400 342.067,284.400 343.400 C 284.400 344.733,284.556 345.200,285.000 345.200 C 285.434 345.200,285.600 345.646,285.600 346.813 C 285.600 347.877,285.804 348.503,286.200 348.655 C 286.542 348.787,286.800 349.383,286.800 350.043 C 286.800 350.805,287.005 351.200,287.400 351.200 C 287.831 351.200,288.000 351.640,288.000 352.757 C 288.000 353.772,288.209 354.395,288.600 354.545 C 288.996 354.697,289.200 355.323,289.200 356.387 C 289.200 357.554,289.366 358.000,289.800 358.000 C 290.234 358.000,290.400 358.446,290.400 359.613 C 290.400 360.677,290.604 361.303,291.000 361.455 C 291.342 361.587,291.600 362.183,291.600 362.843 C 291.600 363.605,291.805 364.000,292.200 364.000 C 292.644 364.000,292.800 364.467,292.800 365.800 C 292.800 367.133,292.956 367.600,293.400 367.600 C 293.833 367.600,294.000 368.044,294.000 369.200 C 294.000 370.356,294.167 370.800,294.600 370.800 C 295.000 370.800,295.200 371.200,295.200 372.000 C 295.200 372.660,295.380 373.200,295.600 373.200 C 295.820 373.200,296.000 373.817,296.000 374.571 C 296.000 375.326,296.270 376.213,296.600 376.543 C 296.930 376.873,297.200 377.683,297.200 378.343 C 297.200 379.003,297.470 379.813,297.800 380.143 C 298.130 380.473,298.400 381.171,298.400 381.695 C 298.400 382.219,298.664 382.996,298.987 383.424 C 299.310 383.851,299.580 384.611,299.587 385.113 C 299.594 385.614,299.870 386.129,300.200 386.255 C 300.591 386.405,300.800 387.028,300.800 388.043 C 300.800 389.160,300.969 389.600,301.400 389.600 C 301.844 389.600,302.000 390.067,302.000 391.400 C 302.000 392.733,302.156 393.200,302.600 393.200 C 303.034 393.200,303.200 393.646,303.200 394.813 C 303.200 395.877,303.404 396.503,303.800 396.655 C 304.142 396.787,304.400 397.383,304.400 398.043 C 304.400 398.805,304.605 399.200,305.000 399.200 C 305.444 399.200,305.600 399.667,305.600 401.000 C 305.600 402.333,305.756 402.800,306.200 402.800 C 306.633 402.800,306.800 403.244,306.800 404.400 C 306.800 405.556,306.967 406.000,307.400 406.000 C 307.844 406.000,308.000 406.467,308.000 407.800 C 308.000 409.133,308.156 409.600,308.600 409.600 C 309.000 409.600,309.200 410.000,309.200 410.800 C 309.200 411.600,309.400 412.000,309.800 412.000 C 310.244 412.000,310.400 412.467,310.400 413.800 C 310.400 415.133,310.556 415.600,311.000 415.600 C 311.431 415.600,311.600 416.040,311.600 417.157 C 311.600 418.172,311.809 418.795,312.200 418.945 C 312.551 419.079,312.800 419.679,312.800 420.387 C 312.800 421.054,312.980 421.600,313.200 421.600 C 313.420 421.600,313.600 422.127,313.600 422.771 C 313.600 423.416,313.870 424.213,314.200 424.543 C 314.530 424.873,314.800 425.777,314.800 426.552 C 314.800 427.326,315.043 428.104,315.339 428.280 C 315.636 428.456,315.992 429.319,316.130 430.197 C 316.268 431.075,316.565 431.855,316.791 431.930 C 317.016 432.005,317.200 432.592,317.200 433.233 C 317.200 434.004,317.404 434.400,317.800 434.400 C 318.234 434.400,318.400 434.846,318.400 436.013 C 318.400 437.077,318.604 437.703,319.000 437.855 C 319.370 437.997,319.600 438.605,319.600 439.443 C 319.600 440.785,319.620 440.800,321.400 440.800 L 323.200 440.800 323.200 438.849 C 323.200 437.603,323.417 436.718,323.800 436.400 C 324.239 436.036,324.400 435.069,324.400 432.794 C 324.400 430.400,324.538 429.633,325.000 429.455 C 325.465 429.277,325.600 428.498,325.600 426.000 C 325.600 423.502,325.735 422.723,326.200 422.545 C 326.648 422.373,326.803 421.642,326.813 419.657 C 326.821 417.958,327.037 416.720,327.413 416.224 C 327.803 415.707,328.000 414.479,328.000 412.557 C 328.000 410.619,328.163 409.612,328.494 409.502 C 328.815 409.395,329.040 408.193,329.136 406.069 C 329.218 404.271,329.420 402.800,329.584 402.800 C 329.749 402.800,329.993 401.497,330.127 399.905 C 330.260 398.313,330.556 396.948,330.785 396.872 C 331.030 396.790,331.200 395.277,331.200 393.167 C 331.200 390.263,331.312 389.600,331.800 389.600 C 332.286 389.600,332.400 388.956,332.400 386.200 C 332.400 383.444,332.514 382.800,333.000 382.800 C 333.480 382.800,333.600 382.200,333.600 379.800 C 333.600 377.400,333.720 376.800,334.200 376.800 C 334.686 376.800,334.800 376.160,334.800 373.443 C 334.800 370.828,334.933 370.035,335.400 369.855 C 335.868 369.676,336.000 368.877,336.000 366.213 C 336.000 363.446,336.114 362.800,336.600 362.800 C 337.079 362.800,337.200 362.205,337.200 359.843 C 337.200 357.583,337.342 356.831,337.800 356.655 C 338.263 356.477,338.400 355.704,338.400 353.255 C 338.400 350.807,338.537 350.033,339.000 349.855 C 339.468 349.676,339.600 348.877,339.600 346.213 C 339.600 343.446,339.714 342.800,340.200 342.800 C 340.679 342.800,340.800 342.205,340.800 339.843 C 340.800 337.583,340.942 336.831,341.400 336.655 C 341.863 336.477,342.000 335.704,342.000 333.255 C 342.000 330.807,342.137 330.033,342.600 329.855 C 343.068 329.676,343.200 328.877,343.200 326.213 C 343.200 323.446,343.314 322.800,343.800 322.800 C 344.273 322.800,344.403 322.228,344.413 320.100 C 344.421 318.363,344.635 317.123,345.013 316.624 C 345.403 316.107,345.600 314.879,345.600 312.957 C 345.600 311.036,345.764 310.012,346.089 309.904 C 346.401 309.800,346.632 308.595,346.728 306.570 C 346.811 304.827,347.041 303.229,347.239 303.020 C 347.438 302.811,347.600 301.435,347.600 299.963 C 347.600 297.952,347.749 297.228,348.200 297.055 C 348.668 296.876,348.800 296.077,348.800 293.413 C 348.800 290.646,348.914 290.000,349.400 290.000 C 349.886 290.000,350.000 289.356,350.000 286.600 C 350.000 283.844,350.114 283.200,350.600 283.200 C 351.079 283.200,351.200 282.605,351.200 280.243 C 351.200 277.983,351.342 277.231,351.800 277.055 C 352.268 276.876,352.400 276.077,352.400 273.413 C 352.400 270.646,352.514 270.000,353.000 270.000 C 353.486 270.000,353.600 269.356,353.600 266.600 C 353.600 263.844,353.714 263.200,354.200 263.200 C 354.679 263.200,354.800 262.605,354.800 260.243 C 354.800 257.983,354.942 257.231,355.400 257.055 C 355.863 256.877,356.000 256.104,356.000 253.655 C 356.000 251.207,356.137 250.433,356.600 250.255 C 357.068 250.076,357.200 249.277,357.200 246.613 C 357.200 243.846,357.314 243.200,357.800 243.200 C 358.279 243.200,358.400 242.605,358.400 240.243 C 358.400 237.983,358.542 237.231,359.000 237.055 C 359.483 236.870,359.600 235.966,359.600 232.413 L 359.600 228.000 357.800 228.000 C 356.467 228.000,356.000 228.156,356.000 228.600 C 356.000 229.093,355.289 229.200,352.000 229.200 C 348.711 229.200,348.000 229.307,348.000 229.800 C 348.000 230.323,346.022 230.400,332.600 230.400 C 319.178 230.400,317.200 230.323,317.200 229.800 C 317.200 229.302,316.427 229.200,312.643 229.200 C 308.961 229.200,308.041 229.085,307.855 228.600 C 307.681 228.145,306.944 228.000,304.813 228.000 C 302.579 228.000,302.000 227.876,302.000 227.400 C 302.000 226.920,301.400 226.800,299.000 226.800 C 296.600 226.800,296.000 226.680,296.000 226.200 C 296.000 225.741,295.494 225.600,293.843 225.600 C 292.294 225.600,291.621 225.431,291.455 225.000 C 291.305 224.608,290.682 224.400,289.655 224.400 C 288.629 224.400,288.006 224.192,287.855 223.800 C 287.704 223.407,287.081 223.200,286.046 223.200 C 285.177 223.200,284.405 223.016,284.330 222.791 C 284.255 222.565,283.475 222.268,282.597 222.129 C 281.719 221.990,280.891 221.710,280.758 221.508 C 280.624 221.305,279.769 221.039,278.858 220.917 C 277.946 220.795,277.200 220.538,277.200 220.347 C 277.200 220.156,276.480 220.000,275.600 220.000 C 274.444 220.000,274.000 219.833,274.000 219.400 C 274.000 219.000,273.600 218.800,272.800 218.800 C 272.000 218.800,271.600 218.600,271.600 218.200 C 271.600 217.800,271.200 217.600,270.400 217.600 C 269.600 217.600,269.200 217.400,269.200 217.000 C 269.200 216.605,268.805 216.400,268.043 216.400 C 267.383 216.400,266.787 216.142,266.655 215.800 C 266.503 215.404,265.877 215.200,264.813 215.200 C 263.646 215.200,263.200 215.034,263.200 214.600 C 263.200 214.200,262.800 214.000,262.000 214.000 C 261.200 214.000,260.800 213.800,260.800 213.400 C 260.800 213.027,260.422 212.800,259.800 212.800 C 259.178 212.800,258.800 212.573,258.800 212.200 C 258.800 211.870,258.549 211.600,258.243 211.600 C 257.936 211.600,257.582 211.330,257.455 211.000 C 257.329 210.670,256.789 210.400,256.255 210.400 C 255.722 210.400,255.182 210.130,255.055 209.800 C 254.929 209.470,254.369 209.200,253.813 209.200 C 253.179 209.200,252.800 208.975,252.800 208.600 C 252.800 208.200,252.400 208.000,251.600 208.000 C 250.800 208.000,250.400 207.800,250.400 207.400 C 250.400 207.070,250.207 206.800,249.971 206.800 C 249.736 206.800,249.273 206.530,248.943 206.200 C 248.613 205.870,247.996 205.600,247.571 205.600 C 247.147 205.600,246.800 205.330,246.800 205.000 C 246.800 204.670,246.530 204.400,246.200 204.400 C 245.870 204.400,245.600 204.220,245.600 204.000 C 245.600 203.780,245.060 203.600,244.400 203.600 C 243.740 203.600,243.200 203.422,243.200 203.205 C 243.200 202.423,241.804 201.200,240.911 201.200 C 240.368 201.200,240.000 200.958,240.000 200.600 C 240.000 200.270,239.730 200.000,239.400 200.000 C 239.070 200.000,238.800 199.730,238.800 199.400 C 238.800 199.070,238.549 198.800,238.243 198.800 C 237.936 198.800,237.582 198.530,237.455 198.200 C 237.329 197.870,236.769 197.600,236.213 197.600 C 235.579 197.600,235.200 197.375,235.200 197.000 C 235.200 196.670,234.930 196.400,234.600 196.400 C 234.270 196.400,234.000 196.130,234.000 195.800 C 234.000 195.470,233.730 195.200,233.400 195.200 C 233.070 195.200,232.800 194.930,232.800 194.600 C 232.800 194.270,232.530 194.000,232.200 194.000 C 231.870 194.000,231.600 193.730,231.600 193.400 C 231.600 193.070,231.349 192.800,231.043 192.800 C 230.736 192.800,230.382 192.530,230.255 192.200 C 230.129 191.870,229.569 191.600,229.013 191.600 C 228.379 191.600,228.000 191.375,228.000 191.000 C 228.000 190.670,227.730 190.400,227.400 190.400 C 227.070 190.400,226.800 190.130,226.800 189.800 C 226.800 189.470,226.530 189.200,226.200 189.200 C 225.870 189.200,225.600 189.014,225.600 188.787 C 225.600 188.269,223.309 186.000,222.786 186.000 C 222.574 186.000,222.400 185.730,222.400 185.400 C 222.400 185.070,222.130 184.800,221.800 184.800 C 221.470 184.800,221.200 184.530,221.200 184.200 C 221.200 183.870,220.930 183.600,220.600 183.600 C 220.270 183.600,220.000 183.330,220.000 183.000 C 220.000 182.670,219.730 182.400,219.400 182.400 C 219.070 182.400,218.800 182.130,218.800 181.800 C 218.800 181.470,218.530 181.200,218.200 181.200 C 217.870 181.200,217.600 180.930,217.600 180.600 C 217.600 180.270,217.330 180.000,217.000 180.000 C 216.670 180.000,216.400 179.730,216.400 179.400 C 216.400 179.070,216.130 178.800,215.800 178.800 C 215.470 178.800,215.200 178.530,215.200 178.200 C 215.200 177.870,214.930 177.600,214.600 177.600 C 214.237 177.600,214.000 177.229,214.000 176.660 C 214.000 176.086,213.532 175.361,212.800 174.800 C 212.140 174.294,211.600 173.637,211.600 173.340 C 211.600 173.043,211.330 172.800,211.000 172.800 C 210.670 172.800,210.400 172.530,210.400 172.200 C 210.400 171.870,210.130 171.600,209.800 171.600 C 209.470 171.600,209.200 171.330,209.200 171.000 C 209.200 170.670,209.023 170.400,208.808 170.400 C 208.592 170.400,208.302 169.950,208.164 169.400 C 208.026 168.850,207.753 168.400,207.557 168.400 C 207.360 168.400,207.200 168.130,207.200 167.800 C 207.200 167.470,206.930 167.200,206.600 167.200 C 206.270 167.200,206.000 166.930,206.000 166.600 C 206.000 166.270,205.730 166.000,205.400 166.000 C 205.070 166.000,204.800 165.653,204.800 165.229 C 204.800 164.804,204.530 164.187,204.200 163.857 C 203.870 163.527,203.600 163.064,203.600 162.829 C 203.600 162.593,203.330 162.400,203.000 162.400 C 202.670 162.400,202.400 162.053,202.400 161.629 C 202.400 161.204,202.130 160.587,201.800 160.257 C 201.470 159.927,201.200 159.464,201.200 159.229 C 201.200 158.993,200.930 158.800,200.600 158.800 C 200.225 158.800,200.000 158.421,200.000 157.787 C 200.000 157.231,199.730 156.671,199.400 156.545 C 199.070 156.418,198.800 156.064,198.800 155.757 C 198.800 155.451,198.530 155.200,198.200 155.200 C 197.827 155.200,197.600 154.822,197.600 154.200 C 197.600 153.578,197.373 153.200,197.000 153.200 C 196.600 153.200,196.400 152.800,196.400 152.000 C 196.400 151.200,196.200 150.800,195.800 150.800 C 195.400 150.800,195.200 150.400,195.200 149.600 C 195.200 148.800,195.000 148.400,194.600 148.400 C 194.270 148.400,194.000 148.130,194.000 147.800 C 194.000 147.470,193.730 147.200,193.400 147.200 C 193.000 147.200,192.800 146.800,192.800 146.000 C 192.800 145.200,192.600 144.800,192.200 144.800 C 191.800 144.800,191.600 144.400,191.600 143.600 C 191.600 142.940,191.420 142.400,191.200 142.400 C 190.980 142.400,190.800 142.053,190.800 141.629 C 190.800 141.204,190.558 140.615,190.261 140.319 C 189.965 140.022,189.597 139.109,189.443 138.290 C 189.290 137.470,189.006 136.800,188.814 136.800 C 188.621 136.800,188.345 136.260,188.200 135.600 C 188.055 134.940,187.771 134.400,187.568 134.400 C 187.366 134.400,187.200 133.860,187.200 133.200 C 187.200 132.400,187.000 132.000,186.600 132.000 C 186.183 132.000,186.000 131.581,186.000 130.629 C 186.000 129.874,185.730 128.987,185.400 128.657 C 185.070 128.327,184.800 127.594,184.800 127.029 C 184.800 126.381,184.578 126.000,184.200 126.000 C 183.756 126.000,183.600 125.533,183.600 124.200 C 183.600 122.867,183.444 122.400,183.000 122.400 C 182.567 122.400,182.400 121.956,182.400 120.800 C 182.400 119.644,182.233 119.200,181.800 119.200 C 181.333 119.200,181.200 118.667,181.200 116.800 L 181.200 114.400 178.987 114.400 C 177.390 114.400,176.711 114.567,176.545 115.000 M330.192 180.000 C 330.192 199.690,330.240 207.745,330.300 197.900 C 330.359 188.055,330.359 171.945,330.300 162.100 C 330.240 152.255,330.192 160.310,330.192 180.000 " stroke="none" fill="#242c74" fill-rule="evenodd"></path><path id="path1" d="M396.200 0.537 C 395.540 0.786,394.908 1.113,394.796 1.263 C 394.684 1.414,394.099 1.660,393.496 1.812 C 392.893 1.963,392.400 2.247,392.400 2.443 C 392.400 2.640,392.053 2.800,391.629 2.800 C 391.204 2.800,390.611 3.046,390.310 3.347 C 390.009 3.648,389.366 4.020,388.881 4.174 C 388.397 4.328,388.000 4.622,388.000 4.827 C 388.000 5.032,387.653 5.200,387.229 5.200 C 386.804 5.200,386.219 5.435,385.929 5.722 C 385.638 6.010,385.085 6.364,384.700 6.510 C 384.315 6.656,384.000 6.961,384.000 7.187 C 384.000 7.414,383.550 7.600,383.000 7.600 C 382.378 7.600,382.000 7.827,382.000 8.200 C 382.000 8.600,381.600 8.800,380.800 8.800 C 380.000 8.800,379.600 9.000,379.600 9.400 C 379.600 9.800,379.200 10.000,378.400 10.000 C 377.600 10.000,377.200 10.200,377.200 10.600 C 377.200 11.000,376.800 11.200,376.000 11.200 C 375.200 11.200,374.800 11.400,374.800 11.800 C 374.800 12.200,374.400 12.400,373.600 12.400 C 372.800 12.400,372.400 12.600,372.400 13.000 C 372.400 13.400,372.000 13.600,371.200 13.600 C 370.400 13.600,370.000 13.800,370.000 14.200 C 370.000 14.575,369.621 14.800,368.987 14.800 C 368.431 14.800,367.871 15.070,367.745 15.400 C 367.618 15.730,367.084 16.000,366.557 16.000 C 365.973 16.000,365.600 16.234,365.600 16.600 C 365.600 17.000,365.200 17.200,364.400 17.200 C 363.740 17.200,363.200 17.366,363.200 17.568 C 363.200 17.771,362.660 18.055,362.000 18.200 C 361.340 18.345,360.800 18.629,360.800 18.832 C 360.800 19.034,360.453 19.200,360.029 19.200 C 359.604 19.200,359.018 19.440,358.725 19.733 C 358.432 20.025,357.699 20.389,357.096 20.540 C 356.493 20.691,356.000 20.992,356.000 21.208 C 356.000 21.423,355.653 21.600,355.229 21.600 C 354.804 21.600,354.211 21.846,353.910 22.147 C 353.609 22.448,352.966 22.820,352.481 22.974 C 351.997 23.128,351.600 23.422,351.600 23.627 C 351.600 23.832,351.253 24.000,350.829 24.000 C 350.404 24.000,349.787 24.270,349.457 24.600 C 349.127 24.930,348.664 25.200,348.429 25.200 C 348.193 25.200,348.000 25.470,348.000 25.800 C 348.000 26.200,347.600 26.400,346.800 26.400 C 346.000 26.400,345.600 26.600,345.600 27.000 C 345.600 27.400,345.200 27.600,344.400 27.600 L 343.200 27.600 343.200 44.000 L 343.200 60.400 367.200 60.400 L 391.200 60.400 391.200 57.400 C 391.200 55.000,391.320 54.400,391.800 54.400 C 392.277 54.400,392.400 53.819,392.400 51.571 C 392.400 49.590,392.580 48.563,393.000 48.143 C 393.424 47.719,393.600 46.684,393.600 44.614 C 393.600 42.380,393.742 41.631,394.200 41.455 C 394.668 41.276,394.800 40.482,394.800 37.855 C 394.800 35.229,394.932 34.435,395.400 34.255 C 395.863 34.077,396.000 33.304,396.000 30.855 C 396.000 28.407,396.137 27.633,396.600 27.455 C 397.047 27.284,397.200 26.571,397.200 24.658 C 397.200 23.159,397.449 21.615,397.798 20.946 C 398.152 20.266,398.396 18.716,398.398 17.133 C 398.399 15.667,398.580 14.407,398.801 14.333 C 399.272 14.176,399.975 7.536,399.990 3.100 L 400.000 0.000 398.700 0.043 C 397.985 0.066,396.860 0.289,396.200 0.537 M326.945 36.200 C 326.818 36.530,326.278 36.800,325.745 36.800 C 325.211 36.800,324.671 37.070,324.545 37.400 C 324.418 37.730,323.878 38.000,323.345 38.000 C 322.811 38.000,322.271 38.270,322.145 38.600 C 322.018 38.930,321.478 39.200,320.945 39.200 C 320.411 39.200,319.871 39.470,319.745 39.800 C 319.618 40.130,319.078 40.400,318.545 40.400 C 318.011 40.400,317.471 40.670,317.345 41.000 C 317.218 41.330,316.703 41.600,316.200 41.600 C 315.697 41.600,315.182 41.870,315.055 42.200 C 314.929 42.530,314.369 42.800,313.813 42.800 C 313.179 42.800,312.800 43.025,312.800 43.400 C 312.800 43.800,312.400 44.000,311.600 44.000 C 310.800 44.000,310.400 44.200,310.400 44.600 C 310.400 44.975,310.021 45.200,309.387 45.200 C 308.831 45.200,308.271 45.470,308.145 45.800 C 308.018 46.130,307.478 46.400,306.945 46.400 C 306.411 46.400,305.871 46.670,305.745 47.000 C 305.618 47.330,305.264 47.600,304.957 47.600 C 304.651 47.600,304.400 47.870,304.400 48.200 C 304.400 48.600,304.000 48.800,303.200 48.800 C 302.400 48.800,302.000 49.000,302.000 49.400 C 302.000 49.800,301.600 50.000,300.800 50.000 C 300.000 50.000,299.600 50.200,299.600 50.600 C 299.600 51.000,299.200 51.200,298.400 51.200 C 297.740 51.200,297.200 51.380,297.200 51.600 C 297.200 51.820,296.834 52.000,296.387 52.000 C 295.941 52.000,295.471 52.270,295.345 52.600 C 295.213 52.942,294.617 53.200,293.957 53.200 C 293.195 53.200,292.800 53.405,292.800 53.800 C 292.800 54.200,292.400 54.400,291.600 54.400 C 290.800 54.400,290.400 54.600,290.400 55.000 C 290.400 55.400,290.000 55.600,289.200 55.600 C 288.400 55.600,288.000 55.800,288.000 56.200 C 288.000 56.600,287.600 56.800,286.800 56.800 C 286.025 56.800,285.600 57.003,285.600 57.373 C 285.600 57.702,285.130 58.001,284.500 58.073 C 283.627 58.174,283.400 58.406,283.400 59.200 L 283.400 60.200 306.700 60.303 L 330.000 60.406 330.000 48.003 L 330.000 35.600 328.587 35.600 C 327.701 35.600,327.089 35.823,326.945 36.200 M263.467 74.667 C 262.884 75.250,263.176 83.919,263.800 84.543 C 264.293 85.035,264.400 86.547,264.400 92.984 C 264.400 99.585,264.495 100.862,265.000 101.055 C 265.478 101.239,265.600 102.096,265.600 105.255 C 265.600 108.415,265.722 109.272,266.200 109.455 C 266.667 109.635,266.800 110.428,266.800 113.043 C 266.800 115.760,266.914 116.400,267.400 116.400 C 267.876 116.400,268.000 116.979,268.000 119.213 C 268.000 121.344,268.145 122.081,268.600 122.255 C 269.039 122.424,269.200 123.116,269.200 124.843 C 269.200 126.671,269.335 127.200,269.800 127.200 C 270.261 127.200,270.400 127.713,270.400 129.413 C 270.400 131.010,270.567 131.689,271.000 131.855 C 271.431 132.021,271.600 132.694,271.600 134.243 C 271.600 135.894,271.741 136.400,272.200 136.400 C 272.644 136.400,272.800 136.867,272.800 138.200 C 272.800 139.533,272.956 140.000,273.400 140.000 C 273.800 140.000,274.000 140.400,274.000 141.200 C 274.000 142.532,275.792 143.008,276.255 141.800 C 276.405 141.409,277.028 141.200,278.043 141.200 C 279.160 141.200,279.600 141.031,279.600 140.600 C 279.600 140.200,280.000 140.000,280.800 140.000 C 281.600 140.000,282.000 139.800,282.000 139.400 C 282.000 139.000,282.400 138.800,283.200 138.800 C 284.000 138.800,284.400 138.600,284.400 138.200 C 284.400 137.756,284.867 137.600,286.200 137.600 C 287.533 137.600,288.000 137.444,288.000 137.000 C 288.000 136.541,288.506 136.400,290.157 136.400 C 291.706 136.400,292.379 136.231,292.545 135.800 C 292.697 135.404,293.323 135.200,294.387 135.200 C 295.274 135.200,296.000 135.042,296.000 134.850 C 296.000 134.657,297.026 134.414,298.280 134.310 C 299.534 134.206,300.629 133.914,300.713 133.660 C 300.804 133.388,301.758 133.200,303.046 133.200 C 304.614 133.200,305.290 133.032,305.455 132.600 C 305.635 132.133,306.428 132.000,309.043 132.000 C 311.760 132.000,312.400 131.886,312.400 131.400 C 312.400 130.896,313.263 130.800,317.771 130.800 C 322.013 130.800,323.269 130.674,323.743 130.200 C 324.163 129.780,325.190 129.600,327.171 129.600 L 330.000 129.600 330.000 102.000 L 330.000 74.400 296.867 74.400 C 278.643 74.400,263.613 74.520,263.467 74.667 M343.200 102.600 L 343.200 130.800 347.751 130.800 C 351.308 130.800,352.411 130.931,352.800 131.400 C 353.146 131.817,354.065 132.000,355.806 132.000 C 357.667 132.000,358.374 132.155,358.545 132.600 C 358.696 132.993,359.319 133.200,360.354 133.200 C 361.223 133.200,361.997 133.392,362.075 133.626 C 362.153 133.860,362.978 134.154,363.909 134.278 C 364.839 134.403,365.600 134.662,365.600 134.853 C 365.600 135.044,366.320 135.200,367.200 135.200 C 368.356 135.200,368.800 135.367,368.800 135.800 C 368.800 136.200,369.200 136.400,370.000 136.400 C 370.800 136.400,371.200 136.600,371.200 137.000 C 371.200 137.400,371.600 137.600,372.400 137.600 C 373.200 137.600,373.600 137.800,373.600 138.200 C 373.600 138.644,374.067 138.800,375.400 138.800 L 377.200 138.800 377.200 136.587 C 377.200 134.990,377.367 134.311,377.800 134.145 C 378.248 133.973,378.403 133.242,378.413 131.257 C 378.421 129.558,378.637 128.320,379.013 127.824 C 379.397 127.316,379.600 126.096,379.600 124.295 C 379.600 122.382,379.783 121.360,380.200 120.943 C 380.624 120.518,380.800 119.483,380.800 117.405 C 380.800 115.594,380.972 114.409,381.247 114.318 C 381.495 114.235,381.787 112.875,381.902 111.274 C 382.016 109.682,382.264 108.284,382.454 108.166 C 382.645 108.049,382.800 106.433,382.800 104.576 C 382.800 101.842,382.914 101.200,383.400 101.200 C 383.886 101.200,384.000 100.556,384.000 97.800 C 384.000 95.044,384.114 94.400,384.600 94.400 C 385.080 94.400,385.200 93.800,385.200 91.400 C 385.200 89.000,385.320 88.400,385.800 88.400 C 386.286 88.400,386.400 87.760,386.400 85.043 C 386.400 82.428,386.533 81.635,387.000 81.455 C 387.468 81.276,387.600 80.477,387.600 77.813 L 387.600 74.400 365.400 74.400 L 343.200 74.400 343.200 102.600 M244.655 78.600 C 244.529 78.930,243.969 79.200,243.413 79.200 C 242.779 79.200,242.400 79.425,242.400 79.800 C 242.400 80.200,242.000 80.400,241.200 80.400 C 240.400 80.400,240.000 80.600,240.000 81.000 C 240.000 81.400,239.600 81.600,238.800 81.600 C 238.000 81.600,237.600 81.800,237.600 82.200 C 237.600 82.600,237.200 82.800,236.400 82.800 C 235.600 82.800,235.200 83.000,235.200 83.400 C 235.200 83.800,234.800 84.000,234.000 84.000 C 233.200 84.000,232.800 84.200,232.800 84.600 C 232.800 84.930,232.455 85.200,232.032 85.200 C 231.210 85.200,228.688 86.403,228.467 86.900 C 228.393 87.065,228.001 87.200,227.595 87.200 C 227.189 87.200,226.596 87.461,226.277 87.780 C 225.958 88.099,225.225 88.479,224.648 88.624 C 224.072 88.768,223.600 89.033,223.600 89.212 C 223.600 89.390,223.060 89.655,222.400 89.800 C 221.740 89.945,221.200 90.229,221.200 90.432 C 221.200 90.634,220.930 90.800,220.600 90.800 C 220.270 90.800,220.000 91.070,220.000 91.400 C 220.000 91.800,219.600 92.000,218.800 92.000 C 218.000 92.000,217.600 92.200,217.600 92.600 C 217.600 93.000,217.200 93.200,216.400 93.200 C 215.600 93.200,215.200 93.400,215.200 93.800 C 215.200 94.200,214.800 94.400,214.000 94.400 C 213.200 94.400,212.800 94.600,212.800 95.000 C 212.800 95.375,212.421 95.600,211.787 95.600 C 211.231 95.600,210.671 95.870,210.545 96.200 C 210.418 96.530,209.884 96.800,209.357 96.800 C 208.773 96.800,208.400 97.034,208.400 97.400 C 208.400 97.800,208.000 98.000,207.200 98.000 C 206.400 98.000,206.000 98.200,206.000 98.600 C 206.000 99.000,205.600 99.200,204.800 99.200 C 204.000 99.200,203.600 99.400,203.600 99.800 C 203.600 100.200,203.200 100.400,202.400 100.400 C 201.600 100.400,201.200 100.600,201.200 101.000 C 201.200 101.400,200.800 101.600,200.000 101.600 C 199.340 101.600,198.800 101.777,198.800 101.992 C 198.800 102.208,198.321 102.505,197.735 102.652 C 195.348 103.251,193.802 108.689,195.800 109.455 C 196.207 109.612,196.400 110.250,196.400 111.443 C 196.400 112.738,196.558 113.200,197.000 113.200 C 197.431 113.200,197.600 113.640,197.600 114.757 C 197.600 115.772,197.809 116.395,198.200 116.545 C 198.596 116.697,198.800 117.323,198.800 118.387 C 198.800 119.554,198.966 120.000,199.400 120.000 C 199.817 120.000,200.000 120.419,200.000 121.371 C 200.000 122.126,200.270 123.013,200.600 123.343 C 200.930 123.673,201.200 124.406,201.200 124.971 C 201.200 125.619,201.422 126.000,201.800 126.000 C 202.200 126.000,202.400 126.400,202.400 127.200 C 202.400 128.000,202.600 128.400,203.000 128.400 C 203.400 128.400,203.600 128.800,203.600 129.600 C 203.600 130.400,203.800 130.800,204.200 130.800 C 204.600 130.800,204.800 131.200,204.800 132.000 C 204.800 132.800,205.000 133.200,205.400 133.200 C 205.773 133.200,206.000 133.578,206.000 134.200 C 206.000 134.822,206.227 135.200,206.600 135.200 C 207.000 135.200,207.200 135.600,207.200 136.400 C 207.200 137.200,207.400 137.600,207.800 137.600 C 208.200 137.600,208.400 138.000,208.400 138.800 C 208.400 139.460,208.566 140.000,208.768 140.000 C 208.971 140.000,209.255 140.540,209.400 141.200 C 209.545 141.860,209.810 142.400,209.988 142.400 C 210.167 142.400,210.418 142.819,210.547 143.331 C 210.676 143.843,211.235 144.753,211.790 145.352 C 212.346 145.951,212.800 146.662,212.800 146.931 C 212.800 147.201,213.340 148.013,214.000 148.736 C 214.660 149.458,215.200 150.398,215.200 150.825 C 215.200 151.251,215.470 151.600,215.800 151.600 C 216.130 151.600,216.400 151.870,216.400 152.200 C 216.400 152.530,216.670 152.800,217.000 152.800 C 217.400 152.800,217.600 153.200,217.600 154.000 C 217.600 154.800,217.800 155.200,218.200 155.200 C 218.530 155.200,218.800 155.470,218.800 155.800 C 218.800 156.130,219.070 156.400,219.400 156.400 C 219.730 156.400,220.000 156.670,220.000 157.000 C 220.000 157.330,220.270 157.600,220.600 157.600 C 221.000 157.600,221.200 158.000,221.200 158.800 C 221.200 159.600,221.400 160.000,221.800 160.000 C 222.130 160.000,222.400 160.270,222.400 160.600 C 222.400 160.930,222.670 161.200,223.000 161.200 C 223.330 161.200,223.600 161.470,223.600 161.800 C 223.600 162.130,223.870 162.400,224.200 162.400 C 224.530 162.400,224.800 162.670,224.800 163.000 C 224.800 163.330,225.070 163.600,225.400 163.600 C 225.733 163.600,226.000 163.956,226.000 164.400 C 226.000 164.840,226.315 165.533,226.700 165.940 C 227.085 166.347,227.713 167.067,228.096 167.540 C 228.912 168.548,231.600 168.781,231.600 167.843 C 231.600 167.537,232.086 167.165,232.680 167.016 C 233.274 166.867,234.165 166.307,234.661 165.772 C 235.156 165.238,235.750 164.800,235.981 164.800 C 236.211 164.800,236.400 164.530,236.400 164.200 C 236.400 163.870,236.670 163.600,237.000 163.600 C 237.330 163.600,237.600 163.330,237.600 163.000 C 237.600 162.625,237.979 162.400,238.613 162.400 C 239.169 162.400,239.729 162.130,239.855 161.800 C 239.982 161.470,240.516 161.200,241.043 161.200 C 241.627 161.200,242.000 160.966,242.000 160.600 C 242.000 160.270,242.270 160.000,242.600 160.000 C 242.930 160.000,243.200 159.730,243.200 159.400 C 243.200 159.000,243.600 158.800,244.400 158.800 C 245.200 158.800,245.600 158.600,245.600 158.200 C 245.600 157.825,245.979 157.600,246.613 157.600 C 247.169 157.600,247.729 157.330,247.855 157.000 C 247.982 156.670,248.336 156.400,248.643 156.400 C 248.949 156.400,249.200 156.130,249.200 155.800 C 249.200 155.400,249.600 155.200,250.400 155.200 C 251.200 155.200,251.600 155.000,251.600 154.600 C 251.600 154.270,251.870 154.000,252.200 154.000 C 252.530 154.000,252.800 153.730,252.800 153.400 C 252.800 153.000,253.200 152.800,254.000 152.800 C 254.660 152.800,255.200 152.638,255.200 152.439 C 255.200 152.241,255.695 151.905,256.300 151.693 C 259.492 150.576,261.408 145.865,259.462 143.919 C 259.167 143.624,258.824 142.492,258.702 141.404 C 258.579 140.316,258.281 139.360,258.039 139.280 C 257.798 139.199,257.600 138.423,257.600 137.554 C 257.600 136.519,257.393 135.896,257.000 135.745 C 256.593 135.588,256.400 134.950,256.400 133.757 C 256.400 132.462,256.242 132.000,255.800 132.000 C 255.359 132.000,255.200 131.542,255.200 130.276 C 255.200 129.329,254.936 128.204,254.613 127.776 C 254.290 127.349,254.020 126.319,254.013 125.487 C 254.005 124.521,253.783 123.892,253.400 123.745 C 252.947 123.571,252.800 122.839,252.800 120.757 C 252.800 118.573,252.675 118.000,252.200 118.000 C 251.729 118.000,251.600 117.448,251.600 115.429 C 251.600 113.676,251.409 112.666,251.000 112.257 C 250.565 111.823,250.400 110.764,250.400 108.416 C 250.400 105.904,250.265 105.123,249.800 104.945 C 249.315 104.759,249.200 103.839,249.200 100.157 C 249.200 96.373,249.098 95.600,248.600 95.600 C 248.085 95.600,248.000 94.356,248.000 86.800 L 248.000 78.000 246.443 78.000 C 245.428 78.000,244.805 78.209,244.655 78.600 M322.000 143.000 C 322.000 143.493,321.289 143.600,318.000 143.600 C 314.711 143.600,314.000 143.707,314.000 144.200 C 314.000 144.680,313.400 144.800,311.000 144.800 C 308.600 144.800,308.000 144.920,308.000 145.400 C 308.000 145.871,307.450 146.000,305.449 146.000 C 303.669 146.000,302.747 146.181,302.400 146.600 C 302.096 146.966,301.220 147.200,300.151 147.200 C 298.861 147.200,298.400 147.358,298.400 147.800 C 298.400 148.233,297.956 148.400,296.800 148.400 C 295.644 148.400,295.200 148.567,295.200 149.000 C 295.200 149.444,294.733 149.600,293.400 149.600 C 292.067 149.600,291.600 149.756,291.600 150.200 C 291.600 150.644,291.133 150.800,289.800 150.800 C 288.467 150.800,288.000 150.956,288.000 151.400 C 288.000 151.833,287.556 152.000,286.400 152.000 C 285.520 152.000,284.800 152.172,284.800 152.382 C 284.800 152.592,284.170 152.882,283.400 153.026 C 282.630 153.171,282.000 153.426,282.000 153.593 C 282.000 153.761,281.280 154.013,280.400 154.154 C 278.817 154.407,278.147 155.549,279.200 156.200 C 279.420 156.336,279.600 156.937,279.600 157.535 C 279.600 158.133,279.843 158.977,280.140 159.411 C 280.437 159.845,280.801 160.695,280.948 161.300 C 281.095 161.905,281.392 162.400,281.608 162.400 C 281.823 162.400,282.000 162.856,282.000 163.413 C 282.000 163.969,282.270 164.529,282.600 164.655 C 282.937 164.785,283.200 165.380,283.200 166.014 C 283.200 166.635,283.440 167.382,283.733 167.675 C 284.025 167.968,284.389 168.701,284.540 169.304 C 284.691 169.907,284.992 170.400,285.208 170.400 C 285.423 170.400,285.600 170.747,285.600 171.171 C 285.600 171.596,285.840 172.182,286.133 172.475 C 286.425 172.768,286.789 173.501,286.940 174.104 C 287.091 174.707,287.392 175.200,287.608 175.200 C 287.823 175.200,288.000 175.538,288.000 175.951 C 288.000 176.364,288.270 176.926,288.600 177.200 C 288.930 177.474,289.200 178.107,289.200 178.606 C 289.200 179.106,289.470 179.618,289.800 179.745 C 290.130 179.871,290.400 180.251,290.400 180.587 C 290.400 180.924,290.670 181.200,291.000 181.200 C 291.375 181.200,291.600 181.579,291.600 182.213 C 291.600 182.769,291.870 183.329,292.200 183.455 C 292.530 183.582,292.800 184.116,292.800 184.643 C 292.800 185.227,293.034 185.600,293.400 185.600 C 293.730 185.600,294.000 185.870,294.000 186.200 C 294.000 186.530,294.270 186.800,294.600 186.800 C 295.000 186.800,295.200 187.200,295.200 188.000 C 295.200 188.660,295.377 189.200,295.592 189.200 C 295.808 189.200,296.106 189.695,296.255 190.300 C 296.403 190.905,296.918 191.770,297.399 192.223 C 297.881 192.675,298.396 193.530,298.545 194.123 C 298.694 194.715,298.992 195.200,299.208 195.200 C 299.423 195.200,299.600 195.470,299.600 195.800 C 299.600 196.130,299.870 196.400,300.200 196.400 C 300.575 196.400,300.800 196.779,300.800 197.413 C 300.800 197.969,301.070 198.529,301.400 198.655 C 301.730 198.782,302.000 199.136,302.000 199.443 C 302.000 199.749,302.270 200.000,302.600 200.000 C 302.973 200.000,303.200 200.378,303.200 201.000 C 303.200 201.622,303.427 202.000,303.800 202.000 C 304.130 202.000,304.400 202.270,304.400 202.600 C 304.400 202.930,304.670 203.200,305.000 203.200 C 305.330 203.200,305.600 203.470,305.600 203.800 C 305.600 204.130,305.870 204.400,306.200 204.400 C 306.600 204.400,306.800 204.800,306.800 205.600 C 306.800 206.400,307.000 206.800,307.400 206.800 C 307.730 206.800,308.000 207.070,308.000 207.400 C 308.000 207.730,308.270 208.000,308.600 208.000 C 308.930 208.000,309.200 208.270,309.200 208.600 C 309.200 208.930,309.470 209.200,309.800 209.200 C 310.175 209.200,310.400 209.579,310.400 210.213 C 310.400 210.769,310.670 211.329,311.000 211.455 C 311.330 211.582,311.600 211.936,311.600 212.243 C 311.600 212.549,311.870 212.800,312.200 212.800 C 312.530 212.800,312.800 212.967,312.800 213.172 C 312.800 213.376,313.406 214.186,314.147 214.972 L 315.494 216.400 319.776 216.400 C 323.048 216.400,324.199 216.541,324.657 217.000 C 325.056 217.398,326.054 217.600,327.629 217.600 L 330.000 217.600 330.000 180.000 L 330.000 142.400 326.000 142.400 C 322.711 142.400,322.000 142.507,322.000 143.000 M343.200 180.000 L 343.200 217.600 352.413 217.600 C 360.232 217.600,361.660 217.509,361.855 217.000 C 361.982 216.670,362.291 216.399,362.543 216.397 C 363.374 216.391,364.085 214.244,364.295 211.100 C 364.409 209.395,364.660 208.000,364.851 208.000 C 365.043 208.000,365.200 206.650,365.200 205.000 C 365.200 202.600,365.320 202.000,365.800 202.000 C 366.286 202.000,366.400 201.356,366.400 198.600 C 366.400 195.844,366.514 195.200,367.000 195.200 C 367.489 195.200,367.600 194.533,367.600 191.600 C 367.600 188.667,367.711 188.000,368.200 188.000 C 368.686 188.000,368.800 187.356,368.800 184.600 C 368.800 181.844,368.914 181.200,369.400 181.200 C 369.879 181.200,370.000 180.605,370.000 178.243 C 370.000 175.983,370.142 175.231,370.600 175.055 C 371.068 174.876,371.200 174.077,371.200 171.413 C 371.200 168.646,371.314 168.000,371.800 168.000 C 372.286 168.000,372.400 167.356,372.400 164.600 C 372.400 161.844,372.514 161.200,373.000 161.200 C 373.477 161.200,373.600 160.619,373.600 158.371 C 373.600 156.390,373.780 155.363,374.200 154.943 C 375.415 153.727,374.991 150.800,373.600 150.800 C 372.800 150.800,372.400 150.600,372.400 150.200 C 372.400 149.800,372.000 149.600,371.200 149.600 C 370.400 149.600,370.000 149.400,370.000 149.000 C 370.000 148.600,369.600 148.400,368.800 148.400 C 368.000 148.400,367.600 148.200,367.600 147.800 C 367.600 147.358,367.138 147.200,365.843 147.200 C 364.650 147.200,364.012 147.007,363.855 146.600 C 363.693 146.177,363.032 146.000,361.613 146.000 C 360.090 146.000,359.600 145.854,359.600 145.400 C 359.600 144.935,359.071 144.800,357.243 144.800 C 355.516 144.800,354.824 144.639,354.655 144.200 C 354.473 143.725,353.631 143.600,350.600 143.600 C 347.569 143.600,346.727 143.475,346.545 143.000 C 346.395 142.609,345.772 142.400,344.757 142.400 L 343.200 142.400 343.200 180.000 M262.400 163.000 C 262.400 163.400,262.000 163.600,261.200 163.600 C 260.400 163.600,260.000 163.800,260.000 164.200 C 260.000 164.600,259.600 164.800,258.800 164.800 C 258.000 164.800,257.600 165.000,257.600 165.400 C 257.600 165.775,257.221 166.000,256.587 166.000 C 256.031 166.000,255.471 166.270,255.345 166.600 C 255.218 166.930,254.864 167.200,254.557 167.200 C 254.251 167.200,254.000 167.470,254.000 167.800 C 254.000 168.200,253.600 168.400,252.800 168.400 C 252.000 168.400,251.600 168.600,251.600 169.000 C 251.600 169.330,251.330 169.600,251.000 169.600 C 250.670 169.600,250.400 169.768,250.400 169.973 C 250.400 170.178,250.009 170.470,249.531 170.622 C 248.597 170.918,248.209 171.197,246.364 172.900 C 245.709 173.505,244.903 174.000,244.574 174.000 C 244.244 174.000,243.871 174.270,243.745 174.600 C 243.618 174.930,243.264 175.200,242.957 175.200 C 242.651 175.200,242.400 175.470,242.400 175.800 C 242.400 176.130,242.130 176.400,241.800 176.400 C 241.470 176.400,241.200 176.670,241.200 177.000 C 241.200 177.330,240.930 177.600,240.600 177.600 C 240.200 177.600,240.000 178.000,240.000 178.800 C 240.000 179.600,240.200 180.000,240.600 180.000 C 240.930 180.000,241.200 180.270,241.200 180.600 C 241.200 180.930,241.451 181.200,241.757 181.200 C 242.064 181.200,242.418 181.470,242.545 181.800 C 242.671 182.130,243.043 182.400,243.370 182.400 C 243.697 182.400,244.931 183.359,246.112 184.530 C 247.293 185.702,248.561 186.776,248.930 186.918 C 249.298 187.059,249.600 187.361,249.600 187.587 C 249.600 187.814,250.050 188.000,250.600 188.000 C 251.222 188.000,251.600 188.227,251.600 188.600 C 251.600 188.930,251.870 189.200,252.200 189.200 C 252.530 189.200,252.800 189.470,252.800 189.800 C 252.800 190.200,253.200 190.400,254.000 190.400 C 254.800 190.400,255.200 190.600,255.200 191.000 C 255.200 191.330,255.470 191.600,255.800 191.600 C 256.130 191.600,256.400 191.870,256.400 192.200 C 256.400 192.600,256.800 192.800,257.600 192.800 C 258.400 192.800,258.800 193.000,258.800 193.400 C 258.800 193.730,259.070 194.000,259.400 194.000 C 259.730 194.000,260.000 194.270,260.000 194.600 C 260.000 194.966,260.373 195.200,260.957 195.200 C 261.484 195.200,262.018 195.470,262.145 195.800 C 262.271 196.130,262.651 196.400,262.987 196.400 C 263.324 196.400,263.600 196.577,263.600 196.792 C 263.600 197.008,264.037 197.294,264.571 197.428 C 265.105 197.563,265.639 197.926,265.759 198.236 C 265.878 198.546,266.411 198.800,266.945 198.800 C 267.478 198.800,268.018 199.070,268.145 199.400 C 268.271 199.730,268.831 200.000,269.387 200.000 C 270.021 200.000,270.400 200.225,270.400 200.600 C 270.400 200.995,270.795 201.200,271.557 201.200 C 272.217 201.200,272.813 201.458,272.945 201.800 C 273.071 202.130,273.631 202.400,274.187 202.400 C 274.744 202.400,275.200 202.580,275.200 202.800 C 275.200 203.020,275.740 203.200,276.400 203.200 C 277.200 203.200,277.600 203.400,277.600 203.800 C 277.600 204.166,277.973 204.400,278.557 204.400 C 279.084 204.400,279.618 204.670,279.745 205.000 C 279.871 205.330,280.411 205.600,280.945 205.600 C 281.478 205.600,282.018 205.870,282.145 206.200 C 282.297 206.596,282.923 206.800,283.987 206.800 C 285.154 206.800,285.600 206.966,285.600 207.400 C 285.600 207.795,285.995 208.000,286.757 208.000 C 287.417 208.000,288.013 208.258,288.145 208.600 C 288.297 208.996,288.923 209.200,289.987 209.200 C 291.154 209.200,291.600 209.366,291.600 209.800 C 291.600 210.170,291.976 210.400,292.582 210.400 C 294.291 210.400,294.462 207.859,292.851 206.388 C 292.163 205.759,291.600 204.959,291.600 204.610 C 291.600 204.261,291.330 203.871,291.000 203.745 C 290.670 203.618,290.400 203.264,290.400 202.957 C 290.400 202.651,290.130 202.400,289.800 202.400 C 289.470 202.400,289.200 202.130,289.200 201.800 C 289.200 201.470,288.930 201.200,288.600 201.200 C 288.225 201.200,288.000 200.821,288.000 200.187 C 288.000 199.631,287.730 199.071,287.400 198.945 C 287.070 198.818,286.800 198.464,286.800 198.157 C 286.800 197.851,286.530 197.600,286.200 197.600 C 285.870 197.600,285.600 197.330,285.600 197.000 C 285.600 196.670,285.330 196.400,285.000 196.400 C 284.600 196.400,284.400 196.000,284.400 195.200 C 284.400 194.400,284.200 194.000,283.800 194.000 C 283.427 194.000,283.200 193.622,283.200 193.000 C 283.200 192.378,282.973 192.000,282.600 192.000 C 282.267 192.000,282.000 191.644,282.000 191.200 C 282.000 190.756,281.733 190.400,281.400 190.400 C 281.027 190.400,280.800 190.022,280.800 189.400 C 280.800 188.778,280.573 188.400,280.200 188.400 C 279.870 188.400,279.600 188.149,279.600 187.843 C 279.600 187.536,279.330 187.182,279.000 187.055 C 278.670 186.929,278.400 186.369,278.400 185.813 C 278.400 185.256,278.247 184.800,278.060 184.800 C 277.873 184.800,277.387 183.990,276.978 183.000 C 276.570 182.010,276.003 181.200,275.718 181.200 C 275.409 181.200,275.200 180.716,275.200 180.000 C 275.200 179.200,275.000 178.800,274.600 178.800 C 274.225 178.800,274.000 178.421,274.000 177.787 C 274.000 177.231,273.730 176.671,273.400 176.545 C 273.070 176.418,272.800 175.878,272.800 175.345 C 272.800 174.811,272.530 174.271,272.200 174.145 C 271.870 174.018,271.600 173.478,271.600 172.945 C 271.600 172.411,271.330 171.871,271.000 171.745 C 270.670 171.618,270.400 171.084,270.400 170.557 C 270.400 169.973,270.166 169.600,269.800 169.600 C 269.366 169.600,269.200 169.154,269.200 167.987 C 269.200 166.923,268.996 166.297,268.600 166.145 C 268.258 166.013,268.000 165.417,268.000 164.757 C 268.000 163.995,267.795 163.600,267.400 163.600 C 267.070 163.600,266.800 163.330,266.800 163.000 C 266.800 162.539,266.289 162.400,264.600 162.400 C 262.911 162.400,262.400 162.539,262.400 163.000 " stroke="none" fill="#54ac34" fill-rule="evenodd"></path></g></svg>