<svg id="svg" version="1.1" xmlns="http://www.w3.org/2000/svg" xmlns:xlink="http://www.w3.org/1999/xlink" width="400" height="442.6829268292683" viewBox="0, 0, 400,442.6829268292683"><g id="svgg"><path id="path0" d="M237.455 18.200 C 237.294 18.622,236.636 18.800,235.241 18.800 C 234.051 18.800,233.028 19.030,232.683 19.374 C 232.359 19.698,231.127 20.002,229.855 20.072 C 228.378 20.153,227.600 20.369,227.600 20.698 C 227.600 21.018,227.015 21.200,225.987 21.200 C 224.923 21.200,224.297 21.404,224.145 21.800 C 223.991 22.201,223.360 22.400,222.246 22.400 C 221.329 22.400,220.209 22.658,219.758 22.974 C 219.308 23.290,218.240 23.605,217.386 23.674 C 216.532 23.743,215.499 24.127,215.089 24.527 C 214.656 24.951,213.898 25.208,213.272 25.142 C 212.682 25.080,211.975 25.168,211.700 25.338 C 211.425 25.508,211.022 25.537,210.805 25.403 C 210.578 25.263,210.511 25.423,210.647 25.779 C 210.841 26.284,210.548 26.400,209.086 26.400 C 207.855 26.400,207.213 26.590,207.055 27.000 C 206.898 27.411,206.255 27.600,205.013 27.600 C 203.668 27.600,203.200 27.755,203.200 28.200 C 203.200 28.644,202.733 28.800,201.400 28.800 C 200.067 28.800,199.600 28.956,199.600 29.400 C 199.600 29.845,199.132 30.000,197.787 30.000 C 196.545 30.000,195.902 30.189,195.745 30.600 C 195.594 30.992,194.971 31.200,193.945 31.200 C 192.918 31.200,192.295 31.408,192.145 31.800 C 191.994 32.192,191.371 32.400,190.345 32.400 C 189.318 32.400,188.695 32.608,188.545 33.000 C 188.394 33.392,187.771 33.600,186.745 33.600 C 185.718 33.600,185.095 33.808,184.945 34.200 C 184.794 34.592,184.171 34.800,183.145 34.800 C 182.118 34.800,181.495 35.008,181.345 35.400 C 181.213 35.742,180.617 36.000,179.957 36.000 C 179.195 36.000,178.800 36.205,178.800 36.600 C 178.800 37.044,178.333 37.200,177.000 37.200 C 175.667 37.200,175.200 37.356,175.200 37.800 C 175.200 38.341,174.171 38.578,172.116 38.510 C 171.849 38.501,171.669 38.695,171.716 38.942 C 171.762 39.188,171.119 39.481,170.287 39.595 C 169.454 39.708,168.785 39.980,168.799 40.200 C 168.813 40.420,168.359 40.658,167.789 40.729 C 167.219 40.800,166.654 41.115,166.534 41.429 C 166.406 41.763,165.771 42.000,165.006 42.000 C 164.287 42.000,163.474 42.270,163.200 42.600 C 162.926 42.930,162.268 43.200,161.738 43.200 C 161.209 43.200,160.671 43.470,160.545 43.800 C 160.418 44.130,159.878 44.400,159.345 44.400 C 158.811 44.400,158.271 44.670,158.145 45.000 C 158.018 45.330,157.478 45.600,156.945 45.600 C 156.411 45.600,155.871 45.870,155.745 46.200 C 155.618 46.530,155.078 46.800,154.545 46.800 C 154.011 46.800,153.471 47.070,153.345 47.400 C 153.218 47.730,152.909 48.000,152.657 48.000 C 152.316 48.000,152.226 64.252,152.302 112.200 L 152.405 176.400 158.722 176.400 C 166.631 176.400,167.018 176.771,165.400 182.800 C 165.075 184.010,164.805 185.720,164.800 186.600 C 164.795 187.480,164.525 189.190,164.200 190.400 C 163.875 191.610,163.607 193.316,163.605 194.191 C 163.602 195.066,163.339 197.136,163.021 198.791 C 162.314 202.463,161.639 206.857,161.205 210.625 C 161.026 212.178,160.682 214.158,160.442 215.025 C 160.201 215.891,160.003 217.294,160.002 218.143 C 160.001 218.991,159.742 220.881,159.428 222.343 C 158.826 225.137,158.171 229.429,157.601 234.329 C 157.413 235.939,157.072 238.099,156.844 239.129 C 156.424 241.016,155.850 244.879,155.168 250.400 C 154.733 253.921,154.173 255.479,153.145 256.029 C 152.422 256.416,152.400 258.962,152.400 343.014 L 152.400 429.600 155.351 429.600 C 157.486 429.600,158.440 429.434,158.800 429.000 C 159.130 428.602,160.026 428.400,161.462 428.400 C 163.016 428.400,163.690 428.231,163.855 427.800 C 164.021 427.369,164.696 427.200,166.255 427.200 C 167.815 427.200,168.490 427.031,168.655 426.600 C 168.812 426.193,169.450 426.000,170.643 426.000 C 171.938 426.000,172.400 425.842,172.400 425.400 C 172.400 424.953,172.883 424.797,174.300 424.787 C 175.345 424.780,176.549 424.510,176.976 424.187 C 177.404 423.864,178.224 423.600,178.800 423.600 C 179.376 423.600,180.196 423.336,180.624 423.013 C 181.051 422.690,182.125 422.420,183.011 422.413 C 183.897 422.406,184.977 422.157,185.411 421.860 C 185.845 421.563,186.905 421.209,187.768 421.074 C 188.630 420.939,189.440 420.660,189.568 420.455 C 189.695 420.250,190.340 420.026,191.000 419.957 C 191.660 419.888,192.470 419.623,192.800 419.369 C 193.130 419.115,193.940 418.779,194.600 418.623 C 195.260 418.466,196.109 418.059,196.487 417.719 C 196.884 417.361,197.535 417.194,198.031 417.324 C 198.655 417.487,198.944 417.338,199.091 416.774 C 199.256 416.143,199.651 416.000,201.234 416.000 C 202.795 416.000,203.130 415.883,202.945 415.400 C 202.762 414.925,203.067 414.800,204.413 414.800 C 205.461 414.800,206.282 414.570,206.556 414.199 C 206.810 413.855,207.710 413.571,208.663 413.535 C 209.871 413.489,210.270 413.325,210.120 412.936 C 209.975 412.558,210.285 412.400,211.170 412.400 C 211.917 412.400,212.518 412.157,212.655 411.800 C 212.787 411.458,213.383 411.200,214.043 411.200 C 214.805 411.200,215.200 410.995,215.200 410.600 C 215.200 410.166,215.646 410.000,216.813 410.000 C 217.877 410.000,218.503 409.796,218.655 409.400 C 218.787 409.058,219.383 408.800,220.043 408.800 C 220.805 408.800,221.200 408.595,221.200 408.200 C 221.200 407.800,221.600 407.600,222.400 407.600 C 223.200 407.600,223.600 407.400,223.600 407.000 C 223.600 406.570,224.039 406.400,225.151 406.400 C 226.042 406.400,226.914 406.145,227.200 405.800 C 227.474 405.470,228.216 405.200,228.849 405.200 C 229.556 405.200,229.961 405.007,229.900 404.700 C 229.843 404.417,230.287 404.144,230.924 404.071 C 231.542 404.000,232.146 403.685,232.266 403.371 C 232.387 403.057,232.922 402.800,233.455 402.800 C 233.989 402.800,234.529 402.530,234.655 402.200 C 234.782 401.870,235.322 401.600,235.855 401.600 C 236.389 401.600,236.929 401.330,237.055 401.000 C 237.182 400.670,237.707 400.400,238.223 400.400 C 238.738 400.400,239.304 400.147,239.480 399.838 C 239.656 399.530,240.209 399.215,240.709 399.138 L 241.619 399.000 241.606 327.700 L 241.594 256.400 246.181 256.400 C 252.061 256.400,252.766 255.760,252.800 250.400 C 252.805 249.630,253.077 248.116,253.404 247.036 C 253.732 245.956,254.000 244.190,254.000 243.110 C 254.000 242.031,254.199 240.776,254.441 240.323 C 254.684 239.869,254.980 238.073,255.100 236.331 C 255.278 233.725,255.464 233.060,256.147 232.582 C 257.877 231.370,262.000 232.235,262.000 233.809 C 262.000 234.377,262.803 236.439,263.839 238.532 C 264.148 239.155,264.400 239.976,264.400 240.356 C 264.400 240.736,264.664 241.396,264.987 241.824 C 265.310 242.251,265.586 242.960,265.600 243.400 C 265.614 243.840,265.890 244.549,266.213 244.976 C 266.536 245.404,266.800 246.064,266.800 246.444 C 266.800 246.824,267.070 247.690,267.400 248.368 C 267.730 249.045,268.270 250.155,268.600 250.832 C 268.930 251.510,269.200 252.313,269.200 252.616 C 269.200 253.706,270.617 256.012,271.418 256.227 C 272.660 256.559,295.890 256.245,296.243 255.891 C 296.549 255.584,295.529 252.322,294.527 250.400 C 294.240 249.850,294.004 249.190,294.002 248.932 C 294.001 248.675,293.741 247.955,293.424 247.332 C 292.501 245.516,291.600 243.313,291.600 242.872 C 291.600 242.648,291.344 241.955,291.032 241.332 C 290.719 240.710,290.165 239.390,289.800 238.400 C 289.435 237.410,288.881 236.090,288.568 235.468 C 288.256 234.845,288.000 234.077,288.000 233.762 C 288.000 233.447,287.821 232.877,287.603 232.495 C 285.902 229.519,285.950 227.515,287.736 226.965 C 290.003 226.267,298.000 218.632,298.000 217.166 C 298.000 216.971,298.527 215.954,299.171 214.906 C 302.331 209.760,304.207 196.845,302.100 194.740 C 301.825 194.465,301.600 193.750,301.600 193.152 C 301.600 190.257,295.038 181.200,292.940 181.200 C 292.643 181.200,292.400 181.032,292.400 180.827 C 292.400 180.622,292.003 180.328,291.519 180.174 C 291.034 180.020,290.391 179.648,290.090 179.347 C 289.789 179.046,289.142 178.800,288.651 178.800 C 288.161 178.800,287.553 178.593,287.300 178.340 C 287.046 178.086,286.065 177.740,285.120 177.570 C 284.174 177.400,282.680 177.071,281.800 176.840 C 280.790 176.574,273.085 176.416,260.900 176.410 L 241.600 176.400 241.600 98.250 C 241.600 55.267,241.488 19.538,241.350 18.850 C 241.065 17.425,237.952 16.905,237.455 18.200 M343.000 174.659 C 341.240 174.978,339.260 175.428,338.600 175.659 C 337.940 175.890,336.770 176.210,336.000 176.370 C 335.230 176.530,334.240 176.851,333.800 177.083 C 333.360 177.315,332.100 177.919,331.000 178.424 C 325.061 181.155,313.200 190.498,313.200 192.445 C 313.200 192.581,312.663 193.301,312.006 194.046 C 311.350 194.791,310.810 195.554,310.806 195.742 C 310.803 195.931,310.303 196.741,309.695 197.542 C 308.665 198.900,306.867 202.328,305.468 205.600 C 305.139 206.370,304.486 208.350,304.018 210.000 C 303.549 211.650,302.949 213.720,302.683 214.600 C 302.047 216.707,302.041 228.965,302.675 230.600 C 302.931 231.260,303.542 233.149,304.033 234.797 C 304.525 236.445,305.438 238.625,306.063 239.641 C 306.688 240.657,307.200 241.656,307.200 241.861 C 307.200 242.066,308.273 243.396,309.584 244.817 C 310.895 246.237,311.975 247.528,311.984 247.684 C 312.050 248.840,321.442 254.372,324.400 254.997 C 325.170 255.159,326.052 255.497,326.361 255.746 C 328.504 257.481,351.002 256.168,354.674 254.094 C 355.154 253.822,355.732 253.600,355.958 253.600 C 356.484 253.600,361.824 250.996,363.400 249.971 C 364.060 249.542,364.915 249.082,365.300 248.949 C 365.685 248.816,366.000 248.560,366.000 248.380 C 366.000 248.201,366.372 247.936,366.827 247.791 C 369.169 247.048,378.762 236.274,381.244 231.600 C 381.770 230.610,382.405 229.667,382.655 229.505 C 382.906 229.343,383.224 228.758,383.363 228.205 C 383.502 227.652,383.882 227.200,384.208 227.200 C 384.599 227.200,384.800 226.793,384.800 226.000 C 384.800 225.200,385.000 224.800,385.400 224.800 C 385.730 224.800,386.000 224.530,386.000 224.200 C 386.000 223.867,385.644 223.600,385.200 223.600 C 384.611 223.600,384.400 223.867,384.400 224.613 C 384.400 225.169,384.141 225.724,383.824 225.846 C 383.508 225.967,383.134 226.590,382.994 227.229 C 382.853 227.868,382.561 228.500,382.345 228.634 C 382.128 228.768,381.774 229.265,381.558 229.739 C 380.040 233.070,375.068 239.737,371.952 242.621 C 367.830 246.435,359.709 252.000,358.265 252.000 C 357.983 252.000,357.404 252.264,356.976 252.587 C 356.549 252.910,355.987 253.180,355.726 253.187 C 355.465 253.194,354.745 253.412,354.126 253.670 C 345.194 257.399,328.906 256.822,320.003 252.460 C 315.743 250.373,309.688 245.016,308.033 241.870 C 307.550 240.951,306.730 239.435,306.211 238.500 C 305.346 236.942,304.299 233.894,303.224 229.800 C 301.590 223.575,303.425 211.320,307.155 203.541 C 308.060 201.654,308.800 199.982,308.800 199.825 C 308.800 199.668,309.610 198.487,310.600 197.200 C 311.590 195.913,312.400 194.757,312.400 194.630 C 312.400 194.504,312.715 194.065,313.100 193.656 C 313.485 193.246,314.693 191.851,315.784 190.556 C 318.525 187.300,327.207 180.404,328.569 180.401 C 328.771 180.400,329.221 180.164,329.569 179.875 C 329.916 179.586,331.010 179.028,332.000 178.634 C 332.990 178.240,334.160 177.725,334.600 177.490 C 335.040 177.254,336.030 176.930,336.800 176.770 C 337.570 176.610,338.740 176.293,339.400 176.066 C 344.503 174.310,359.798 174.513,365.200 176.407 C 377.835 180.839,386.231 191.323,386.514 203.026 L 386.600 206.600 375.700 206.706 C 366.949 206.792,364.800 206.710,364.800 206.291 C 364.800 203.871,360.803 199.318,357.013 197.420 L 354.018 195.919 348.232 195.938 C 343.807 195.951,342.163 196.102,341.243 196.578 C 340.581 196.920,339.833 197.200,339.580 197.200 C 335.510 197.200,327.325 206.593,325.049 213.875 C 319.472 231.716,342.535 242.811,357.142 229.314 C 360.220 226.469,360.070 226.414,349.300 226.406 L 340.400 226.400 340.400 225.050 C 340.400 224.308,340.670 222.935,341.000 222.000 C 341.330 221.065,341.600 219.686,341.600 218.937 C 341.600 218.187,341.870 216.928,342.200 216.138 C 342.530 215.349,342.800 214.214,342.800 213.617 L 342.800 212.531 364.445 212.269 C 387.819 211.987,386.800 211.928,386.800 213.574 C 386.800 217.354,388.203 218.288,388.352 214.608 C 388.424 212.812,388.306 212.378,387.646 212.025 C 386.733 211.536,343.667 211.422,342.989 211.906 C 342.424 212.310,341.200 216.400,341.200 217.885 C 341.200 218.553,340.949 219.811,340.642 220.682 C 340.335 221.552,340.020 223.239,339.942 224.432 L 339.800 226.600 348.600 226.702 C 359.254 226.826,359.127 226.793,356.800 228.832 C 354.280 231.041,354.239 231.070,353.269 231.378 C 352.791 231.530,352.400 231.822,352.400 232.027 C 352.400 232.232,352.202 232.400,351.960 232.400 C 351.719 232.400,350.954 232.661,350.260 232.979 C 348.911 233.600,345.687 234.340,342.863 234.678 C 337.446 235.327,327.200 230.549,327.200 227.374 C 327.200 227.203,326.965 226.779,326.677 226.431 C 322.925 221.903,325.410 210.186,331.533 203.539 C 333.779 201.101,339.146 197.615,340.699 197.587 C 341.084 197.580,341.749 197.310,342.176 196.987 C 344.122 195.516,355.494 196.534,357.302 198.342 C 357.554 198.594,357.993 198.800,358.278 198.800 C 359.242 198.800,362.302 202.251,363.449 204.632 C 364.960 207.770,364.050 207.546,375.427 207.587 C 388.322 207.633,388.388 207.608,387.558 203.000 C 386.583 197.585,386.295 196.519,384.963 193.400 C 384.682 192.740,384.351 191.930,384.228 191.600 C 382.308 186.431,370.855 176.400,366.874 176.400 C 366.481 176.400,365.974 176.214,365.746 175.986 C 365.361 175.601,364.025 175.289,359.000 174.409 C 355.907 173.867,346.558 174.013,343.000 174.659 M231.520 176.880 C 232.147 177.507,232.126 178.700,231.429 181.943 C 230.786 184.939,230.117 188.871,229.550 192.983 C 229.339 194.514,229.069 195.864,228.950 195.983 C 228.832 196.103,222.315 196.290,214.469 196.400 L 200.203 196.600 199.733 198.034 C 199.191 199.691,198.515 205.068,198.720 206.100 C 198.848 206.749,199.765 206.800,211.180 206.800 C 224.917 206.800,224.854 206.788,224.047 209.285 C 223.813 210.008,223.451 211.860,223.244 213.400 C 222.257 220.721,221.373 225.110,220.730 225.884 C 220.398 226.285,217.542 226.400,207.941 226.400 L 195.580 226.400 195.180 227.453 C 194.533 229.155,194.064 231.644,193.946 234.000 L 193.836 236.200 207.818 236.400 L 221.800 236.600 221.924 238.544 C 221.992 239.614,221.842 241.054,221.592 241.744 C 221.341 242.435,220.990 244.350,220.813 246.000 C 220.535 248.578,220.201 250.663,219.356 255.100 L 219.185 256.000 193.216 256.000 C 175.236 256.000,167.166 255.869,166.983 255.573 C 166.838 255.338,166.998 253.853,167.339 252.273 C 168.006 249.182,168.659 245.354,169.229 241.200 C 169.425 239.770,169.762 237.790,169.979 236.800 C 170.195 235.810,170.574 233.740,170.820 232.200 C 171.067 230.660,171.507 227.960,171.798 226.200 C 172.090 224.440,172.526 221.650,172.767 220.000 C 173.009 218.350,173.395 216.370,173.625 215.600 C 173.855 214.830,174.211 212.940,174.415 211.400 C 174.759 208.806,175.238 205.713,176.395 198.600 C 176.646 197.060,177.047 194.902,177.287 193.804 C 177.527 192.706,177.859 190.726,178.026 189.404 C 178.793 183.305,179.915 177.637,180.501 176.900 C 181.067 176.188,230.808 176.168,231.520 176.880 M282.400 177.565 C 287.516 178.983,288.815 179.471,291.253 180.891 C 296.241 183.795,300.095 188.799,301.197 193.800 C 301.390 194.680,301.758 196.210,302.013 197.200 C 303.401 202.578,301.164 210.937,296.255 218.712 C 294.956 220.770,290.189 224.937,287.707 226.184 C 285.350 227.368,284.985 228.024,285.803 229.605 C 286.131 230.241,286.400 231.025,286.400 231.348 C 286.400 231.671,286.656 232.445,286.968 233.068 C 287.281 233.690,287.803 234.920,288.129 235.800 C 288.829 237.688,290.302 241.465,290.780 242.600 C 290.966 243.040,291.506 244.390,291.980 245.600 C 292.455 246.810,292.995 248.160,293.180 248.600 C 294.213 251.050,295.129 253.533,295.356 254.500 L 295.615 255.600 283.308 255.599 L 271.000 255.597 270.267 253.699 C 269.863 252.654,269.264 251.080,268.935 250.200 C 268.606 249.320,268.081 248.090,267.768 247.468 C 267.456 246.845,267.200 246.024,267.200 245.644 C 267.200 245.264,266.936 244.604,266.613 244.176 C 266.290 243.749,266.020 243.100,266.013 242.732 C 266.006 242.365,265.744 241.555,265.432 240.932 C 265.119 240.310,264.597 239.080,264.271 238.200 C 263.946 237.320,263.238 235.520,262.699 234.200 L 261.718 231.800 258.822 231.682 C 255.438 231.544,254.798 231.905,254.805 233.949 C 254.808 234.747,254.549 236.660,254.230 238.200 C 253.457 241.936,252.798 245.984,252.404 249.420 C 252.226 250.971,251.859 252.977,251.590 253.877 L 251.099 255.514 241.850 255.792 C 236.762 255.945,231.610 256.009,230.400 255.935 L 228.200 255.800 228.249 254.000 C 228.302 252.049,228.912 247.900,229.824 243.289 C 230.141 241.687,230.400 239.674,230.400 238.815 C 230.400 237.955,230.597 236.745,230.839 236.126 C 231.080 235.507,231.423 233.650,231.601 232.000 C 231.932 228.920,232.499 225.224,233.288 221.000 C 233.535 219.680,233.860 217.520,234.010 216.200 C 234.332 213.375,235.064 208.694,235.667 205.600 C 235.903 204.390,236.235 202.019,236.406 200.330 C 236.576 198.642,236.837 197.064,236.986 196.823 C 237.134 196.583,237.409 194.994,237.597 193.293 C 237.785 191.592,238.124 189.210,238.350 188.000 C 238.577 186.790,238.965 184.540,239.214 183.000 C 240.000 178.126,240.056 177.811,240.225 177.280 C 240.457 176.552,279.703 176.817,282.400 177.565 M260.922 196.388 C 260.343 196.632,259.981 197.207,259.859 198.079 C 259.757 198.806,259.455 200.750,259.189 202.400 C 257.507 212.823,257.280 212.499,266.134 212.327 C 273.069 212.191,272.746 212.281,275.276 209.800 C 279.496 205.663,277.868 197.200,272.853 197.200 C 272.412 197.200,271.635 197.043,271.126 196.851 C 269.718 196.322,261.919 195.967,260.922 196.388 M270.232 197.523 C 278.366 198.221,279.929 205.557,273.110 211.039 C 272.228 211.749,267.768 212.078,263.122 211.777 L 258.800 211.497 258.814 209.849 C 258.822 208.942,259.089 207.120,259.408 205.800 C 259.727 204.480,259.990 202.389,259.994 201.154 C 260.004 197.555,260.978 196.623,264.368 196.973 C 265.816 197.123,268.454 197.370,270.232 197.523 M386.233 221.057 C 386.095 221.419,386.075 221.809,386.191 221.924 C 386.306 222.039,386.400 221.913,386.400 221.643 C 386.400 221.373,386.550 221.245,386.733 221.359 C 386.917 221.472,387.067 221.303,387.067 220.982 C 387.067 220.197,386.546 220.243,386.233 221.057 " stroke="none" fill="#6cac64" fill-rule="evenodd"></path><path id="path1" d="M72.753 109.500 C 72.727 109.665,72.727 109.935,72.753 110.100 C 72.779 110.265,72.429 110.400,71.976 110.400 C 71.523 110.400,71.258 110.571,71.388 110.780 C 71.517 110.989,71.252 111.358,70.800 111.600 C 70.348 111.842,70.083 112.211,70.212 112.420 C 70.342 112.629,70.167 112.800,69.824 112.800 C 69.481 112.800,69.219 112.935,69.243 113.100 C 69.352 113.853,68.652 115.200,68.153 115.200 C 67.849 115.200,67.600 115.378,67.600 115.595 C 67.600 116.204,66.285 117.600,65.711 117.600 C 65.430 117.600,65.200 117.940,65.200 118.355 C 65.200 118.770,64.662 119.535,64.004 120.055 C 63.346 120.575,62.806 121.225,62.804 121.500 C 62.799 122.098,61.366 123.600,60.800 123.600 C 60.580 123.600,60.400 123.960,60.400 124.400 C 60.400 124.840,60.183 125.155,59.918 125.100 C 59.653 125.045,59.425 125.180,59.412 125.400 C 59.368 126.118,58.753 126.818,58.372 126.583 C 58.168 126.456,58.000 126.804,58.000 127.357 C 58.000 127.909,57.761 128.504,57.470 128.680 C 57.178 128.856,56.820 129.326,56.673 129.725 C 56.526 130.124,56.224 130.339,56.003 130.202 C 55.766 130.055,55.600 130.457,55.600 131.176 C 55.600 131.997,55.403 132.400,55.000 132.400 C 54.670 132.400,54.400 132.670,54.400 133.000 C 54.400 133.330,54.130 133.600,53.800 133.600 C 53.400 133.600,53.200 134.000,53.200 134.800 C 53.200 135.600,53.000 136.000,52.600 136.000 C 52.270 136.000,52.000 136.251,52.000 136.557 C 52.000 136.864,51.730 137.218,51.400 137.345 C 51.070 137.471,50.800 138.031,50.800 138.587 C 50.800 139.221,50.575 139.600,50.200 139.600 C 49.870 139.600,49.600 139.870,49.600 140.200 C 49.600 140.530,49.416 140.800,49.191 140.800 C 48.967 140.800,48.563 141.295,48.295 141.900 C 48.026 142.505,47.391 143.450,46.883 144.000 C 46.375 144.550,45.857 145.488,45.733 146.084 C 45.608 146.681,45.302 147.131,45.053 147.084 C 44.804 147.038,44.544 147.482,44.476 148.071 C 44.408 148.660,44.093 149.357,43.776 149.620 C 43.459 149.883,43.200 150.442,43.200 150.862 C 43.200 151.281,42.930 151.729,42.600 151.855 C 42.254 151.988,42.000 152.586,42.000 153.266 C 42.000 153.957,41.833 154.344,41.597 154.198 C 41.376 154.061,41.074 154.276,40.927 154.675 C 40.780 155.074,40.422 155.544,40.130 155.720 C 39.839 155.896,39.600 156.481,39.600 157.020 C 39.600 157.637,39.371 158.000,38.982 158.000 C 38.643 158.000,38.394 158.225,38.430 158.500 C 38.587 159.706,38.357 160.400,37.800 160.400 C 37.470 160.400,37.221 160.535,37.247 160.700 C 37.422 161.803,37.114 162.800,36.600 162.800 C 36.200 162.800,36.000 163.200,36.000 164.000 C 36.000 164.800,35.800 165.200,35.400 165.200 C 35.000 165.200,34.800 165.600,34.800 166.400 C 34.800 167.200,34.600 167.600,34.200 167.600 C 33.805 167.600,33.600 167.995,33.600 168.757 C 33.600 169.394,33.360 170.007,33.066 170.119 C 32.765 170.235,32.507 170.995,32.475 171.861 C 32.443 172.717,32.147 173.596,31.808 173.843 C 31.474 174.088,31.200 174.673,31.200 175.144 C 31.200 175.638,30.946 176.000,30.600 176.000 C 30.202 176.000,30.000 176.398,30.000 177.180 C 30.000 177.843,29.721 178.516,29.364 178.716 C 29.014 178.912,28.744 179.191,28.764 179.336 C 28.921 180.494,28.708 181.200,28.200 181.200 C 27.870 181.200,27.621 181.335,27.647 181.500 C 27.880 182.974,27.522 184.800,27.000 184.800 C 26.600 184.800,26.400 185.200,26.400 186.000 C 26.400 186.800,26.200 187.200,25.800 187.200 C 25.470 187.200,25.221 187.335,25.247 187.500 C 25.491 189.042,25.123 190.800,24.557 190.800 C 24.156 190.800,23.999 191.021,24.140 191.387 C 24.264 191.710,24.188 192.084,23.972 192.217 C 23.756 192.351,23.605 192.672,23.637 192.930 C 23.775 194.047,23.570 194.829,23.200 194.600 C 22.980 194.464,22.793 194.408,22.785 194.476 C 22.508 196.745,22.222 197.856,21.858 198.084 C 21.608 198.240,21.369 198.828,21.326 199.389 C 21.282 199.951,20.967 200.691,20.624 201.034 C 20.281 201.377,20.000 202.255,20.000 202.986 C 20.000 203.798,19.767 204.404,19.400 204.545 C 18.975 204.708,18.800 205.371,18.800 206.816 C 18.800 208.097,18.577 209.081,18.200 209.457 C 17.870 209.787,17.600 210.674,17.600 211.429 C 17.600 212.259,17.403 212.800,17.100 212.800 C 16.795 212.800,16.562 213.454,16.503 214.475 C 16.450 215.396,16.196 216.279,15.939 216.438 C 15.464 216.731,15.293 217.569,15.233 219.900 C 15.211 220.774,15.003 221.200,14.600 221.200 C 14.157 221.200,14.000 221.663,14.000 222.971 C 14.000 224.013,13.753 224.990,13.400 225.343 C 13.024 225.718,12.800 226.702,12.800 227.971 C 12.800 229.392,12.641 230.000,12.268 230.000 C 11.899 230.000,11.709 230.700,11.644 232.298 C 11.592 233.586,11.339 234.714,11.068 234.866 C 10.785 235.024,10.534 236.268,10.462 237.868 C 10.380 239.714,10.155 240.704,9.770 240.920 C 9.357 241.152,9.200 242.055,9.200 244.207 C 9.200 246.681,9.100 247.137,8.600 246.945 C 8.099 246.753,8.000 247.213,8.000 249.724 C 8.000 251.478,7.824 252.792,7.578 252.874 C 7.015 253.062,6.867 254.013,6.831 257.687 C 6.805 260.260,6.700 260.736,6.200 260.545 C 5.692 260.350,5.600 260.906,5.600 264.157 C 5.600 266.941,5.467 267.972,5.119 267.900 C 4.554 267.783,4.540 267.882,4.461 272.687 C 4.410 275.785,4.304 276.338,3.800 276.145 C 3.286 275.948,3.200 276.634,3.200 280.914 C 3.200 285.004,3.090 285.957,2.596 286.146 C 2.264 286.273,2.016 286.518,2.044 286.689 C 2.362 288.630,1.916 297.183,1.500 297.100 C 1.116 297.023,0.975 298.839,0.892 304.900 C 0.825 309.712,0.630 312.800,0.392 312.800 C 0.140 312.800,0.000 322.386,0.000 339.600 C 0.000 357.200,0.137 366.400,0.400 366.400 C 0.653 366.400,0.800 369.193,0.800 373.980 C 0.800 380.243,0.902 381.618,1.390 381.890 C 1.865 382.156,2.001 383.502,2.090 388.810 C 2.174 393.822,2.320 395.376,2.700 395.300 C 3.080 395.224,3.200 396.496,3.200 400.613 C 3.200 405.055,3.308 406.066,3.800 406.255 C 4.287 406.442,4.400 407.383,4.400 411.243 C 4.400 415.205,4.500 416.000,5.000 416.000 C 5.497 416.000,5.600 416.752,5.600 420.367 C 5.600 424.979,5.847 426.483,6.450 425.534 C 6.647 425.223,6.811 426.963,6.844 429.700 C 6.912 435.392,6.916 435.425,7.518 435.300 C 7.866 435.228,8.000 436.204,8.000 438.800 L 8.000 442.400 37.800 442.400 C 57.400 442.400,67.600 442.263,67.600 442.000 C 67.600 441.765,69.000 441.600,71.000 441.600 L 74.400 441.600 74.353 341.500 C 74.327 286.445,74.177 240.860,74.019 240.200 L 73.733 239.000 73.492 240.400 C 73.078 242.797,72.357 247.255,71.809 250.800 C 71.520 252.670,71.155 254.515,70.999 254.900 C 70.689 255.664,18.400 256.025,18.400 255.264 C 18.400 255.079,18.668 254.044,18.996 252.964 C 19.323 251.884,19.593 250.279,19.596 249.397 C 19.598 248.516,19.793 247.166,20.030 246.397 C 20.266 245.629,20.613 243.830,20.801 242.400 C 21.127 239.913,21.463 237.973,22.445 232.900 C 22.690 231.635,23.023 229.518,23.184 228.196 C 23.345 226.874,23.675 224.894,23.918 223.796 C 24.592 220.745,25.247 216.898,25.619 213.800 C 25.805 212.260,26.132 210.370,26.348 209.600 C 26.563 208.830,26.946 206.850,27.199 205.200 C 27.452 203.550,27.898 200.760,28.191 199.000 C 28.484 197.240,28.997 194.141,29.330 192.113 C 29.664 190.085,30.026 188.282,30.134 188.107 C 30.242 187.932,30.457 186.531,30.611 184.994 C 30.765 183.457,31.003 182.020,31.141 181.800 C 31.279 181.580,31.483 180.410,31.596 179.200 L 31.800 177.000 53.000 176.800 L 74.200 176.600 74.316 144.600 C 74.436 111.668,74.370 109.200,73.375 109.200 C 73.059 109.200,72.779 109.335,72.753 109.500 M51.435 196.494 C 50.876 198.445,50.262 202.588,50.234 204.600 L 50.200 207.000 62.200 207.000 L 74.200 207.000 74.200 201.600 L 74.200 196.200 62.890 196.094 C 54.038 196.011,51.548 196.098,51.435 196.494 M73.477 222.400 C 73.338 222.950,73.174 223.850,73.112 224.400 L 73.000 225.400 60.200 225.600 C 46.237 225.818,46.536 225.769,46.195 227.914 C 46.065 228.731,45.791 230.120,45.585 231.000 C 44.842 234.185,44.757 235.867,45.318 236.332 C 46.173 237.042,73.926 237.172,74.196 236.467 C 74.500 235.673,74.350 223.987,74.018 222.600 C 73.730 221.401,73.730 221.401,73.477 222.400 " stroke="none" fill="#259cb4" fill-rule="evenodd"></path><path id="path2" d="M343.800 175.297 C 332.285 176.844,321.011 183.589,313.538 193.400 C 312.030 195.380,310.607 197.229,310.375 197.508 C 309.440 198.635,305.298 207.503,305.031 208.949 C 304.874 209.801,304.593 210.791,304.406 211.149 C 302.080 215.608,302.312 227.516,304.879 235.400 C 307.618 243.813,316.372 252.063,325.314 254.658 C 330.075 256.039,345.501 256.381,348.664 255.174 C 349.289 254.936,350.520 254.588,351.400 254.401 C 363.412 251.849,376.891 240.226,382.777 227.344 C 383.193 226.433,383.729 225.568,383.967 225.420 C 384.205 225.273,384.400 224.787,384.400 224.339 C 384.400 223.862,384.731 223.439,385.200 223.316 C 385.847 223.147,386.000 222.770,386.000 221.353 C 386.000 220.061,386.158 219.600,386.600 219.600 C 386.973 219.600,387.200 219.222,387.200 218.600 C 387.200 218.050,387.425 217.597,387.700 217.594 C 388.054 217.590,388.035 217.483,387.636 217.231 C 387.306 217.022,386.996 215.956,386.888 214.661 C 386.650 211.786,388.714 212.002,364.216 212.283 L 342.800 212.529 342.800 213.614 C 342.800 214.211,342.530 215.465,342.200 216.400 C 341.870 217.335,341.600 218.685,341.600 219.400 C 341.600 220.115,341.330 221.465,341.000 222.400 C 340.670 223.335,340.400 224.618,340.400 225.250 L 340.400 226.400 349.324 226.400 C 360.389 226.400,360.825 226.558,357.414 229.337 C 350.162 235.244,337.276 237.347,332.769 233.359 C 332.421 233.051,331.946 232.800,331.712 232.800 C 330.011 232.800,326.463 228.152,324.993 224.000 C 322.342 216.507,327.987 203.255,335.525 199.276 C 341.786 195.972,342.001 195.915,348.300 195.872 L 353.868 195.834 356.893 197.309 C 360.329 198.985,362.672 201.333,364.264 204.699 L 365.264 206.813 375.932 206.706 L 386.600 206.600 386.479 203.024 C 385.839 184.152,367.339 172.133,343.800 175.297 M31.811 177.300 C 31.721 177.575,31.556 178.610,31.444 179.600 C 30.923 184.207,30.380 187.602,30.007 188.581 C 29.783 189.170,29.600 190.200,29.600 190.869 C 29.600 191.538,29.338 193.281,29.018 194.743 C 28.698 196.204,28.227 198.750,27.973 200.400 C 27.719 202.050,27.249 204.930,26.929 206.800 C 26.610 208.670,26.104 211.640,25.805 213.400 C 25.507 215.160,24.975 218.220,24.623 220.200 C 24.271 222.180,23.736 225.330,23.433 227.200 C 23.130 229.070,22.686 231.680,22.446 233.000 C 22.206 234.320,21.726 237.110,21.380 239.200 C 21.033 241.290,20.557 243.884,20.321 244.964 C 20.086 246.044,19.723 248.204,19.515 249.764 C 19.307 251.324,19.042 253.275,18.926 254.100 L 18.716 255.600 44.742 255.600 L 70.768 255.600 71.155 254.100 C 71.539 252.614,72.131 249.022,72.818 244.000 C 73.013 242.570,73.382 240.636,73.638 239.703 C 74.461 236.696,74.978 236.800,59.159 236.800 L 45.215 236.800 44.986 235.887 C 44.860 235.385,45.021 233.630,45.345 231.987 C 45.668 230.344,46.041 228.347,46.175 227.548 C 46.501 225.602,46.519 225.600,60.842 225.600 L 72.785 225.600 73.016 224.500 C 73.144 223.895,73.343 223.040,73.460 222.600 C 73.576 222.160,73.908 220.360,74.197 218.600 C 74.487 216.840,75.003 213.697,75.345 211.616 C 75.686 209.535,75.869 207.735,75.750 207.616 C 75.632 207.497,69.834 207.310,62.867 207.200 L 50.200 207.000 50.239 204.600 C 50.279 202.177,51.024 197.008,51.429 196.354 C 51.549 196.159,58.072 195.997,65.924 195.994 C 82.316 195.987,81.192 196.262,81.612 192.148 C 81.789 190.417,82.129 188.493,82.367 187.874 C 82.605 187.255,82.800 185.978,82.800 185.038 C 82.800 184.097,83.068 182.444,83.396 181.364 C 84.170 178.812,84.160 177.347,83.367 177.043 C 82.013 176.523,31.984 176.773,31.811 177.300 M95.418 177.300 C 95.332 177.575,94.967 179.510,94.607 181.600 C 94.248 183.690,93.760 186.480,93.524 187.800 C 93.288 189.120,92.964 191.370,92.803 192.800 C 92.476 195.702,91.789 200.173,91.112 203.800 C 90.865 205.120,90.540 207.280,90.390 208.600 C 90.084 211.283,89.373 215.873,88.749 219.200 C 88.522 220.410,88.193 222.660,88.018 224.200 C 87.843 225.740,87.506 228.080,87.270 229.400 C 86.501 233.695,85.930 237.348,85.614 240.000 C 85.444 241.430,85.110 243.680,84.873 245.000 C 84.635 246.320,84.229 248.750,83.970 250.400 C 83.711 252.050,83.412 253.895,83.305 254.500 L 83.109 255.600 93.891 255.600 L 104.673 255.600 105.155 253.992 C 105.420 253.108,105.796 250.993,105.990 249.292 C 106.184 247.591,106.536 245.693,106.771 245.074 C 107.007 244.455,107.200 243.178,107.200 242.238 C 107.200 241.297,107.468 239.644,107.796 238.564 C 108.123 237.484,108.393 235.864,108.396 234.964 C 108.398 234.064,108.668 232.444,108.996 231.364 C 109.323 230.284,109.593 228.664,109.596 227.764 C 109.598 226.864,109.868 225.244,110.196 224.164 C 110.523 223.084,110.793 221.447,110.796 220.526 C 110.809 215.404,112.977 216.493,116.122 223.200 C 116.277 223.530,116.944 224.700,117.605 225.800 C 118.266 226.900,119.081 228.340,119.416 229.000 C 119.751 229.660,120.374 230.740,120.800 231.400 C 121.226 232.060,121.842 233.140,122.169 233.800 C 122.496 234.460,123.306 235.900,123.970 237.000 C 124.634 238.100,125.407 239.464,125.688 240.031 C 125.970 240.598,128.073 244.333,130.361 248.331 L 134.522 255.600 144.009 255.600 L 153.496 255.600 153.964 253.900 C 154.221 252.965,154.596 250.850,154.797 249.200 C 155.219 245.743,155.858 241.562,156.449 238.400 C 156.676 237.190,157.023 234.760,157.222 233.000 C 157.420 231.240,157.767 229.171,157.991 228.403 C 158.216 227.634,158.402 226.284,158.405 225.403 C 158.407 224.521,158.675 222.810,159.000 221.600 C 159.325 220.390,159.595 218.590,159.600 217.600 C 159.605 216.610,159.875 214.810,160.200 213.600 C 160.525 212.390,160.792 210.770,160.793 210.000 C 160.795 209.230,161.059 207.160,161.379 205.400 C 162.363 199.998,162.860 196.738,163.211 193.396 C 163.395 191.635,163.738 189.688,163.973 189.070 C 164.208 188.453,164.400 187.097,164.400 186.058 C 164.400 185.019,164.670 183.131,165.000 181.865 C 166.383 176.554,166.878 176.800,154.796 176.800 C 144.234 176.800,144.000 176.855,144.000 179.331 C 144.000 180.032,143.812 181.234,143.582 182.003 C 143.351 182.771,143.011 184.570,142.826 186.000 C 142.640 187.430,142.288 189.635,142.044 190.900 C 141.800 192.165,141.400 194.235,141.156 195.500 C 140.912 196.765,140.560 198.970,140.374 200.400 C 140.189 201.830,139.849 203.629,139.618 204.397 C 139.388 205.166,139.200 206.414,139.200 207.171 C 139.200 207.928,138.940 209.549,138.622 210.774 C 138.304 211.998,137.930 213.538,137.790 214.196 L 137.536 215.392 136.379 213.996 C 135.742 213.228,135.217 212.470,135.211 212.312 C 135.201 212.053,132.182 206.698,131.201 205.200 C 130.985 204.870,130.079 203.340,129.187 201.800 C 128.295 200.260,127.405 198.730,127.209 198.400 C 127.013 198.070,125.659 195.730,124.200 193.200 C 122.741 190.670,121.389 188.330,121.195 188.000 C 121.000 187.670,120.453 186.680,119.978 185.800 C 119.503 184.920,118.594 183.426,117.957 182.480 C 117.321 181.534,116.800 180.534,116.800 180.258 C 116.800 179.982,116.191 179.091,115.446 178.278 L 114.092 176.800 104.833 176.800 C 97.777 176.800,95.538 176.919,95.418 177.300 M180.866 177.500 C 180.283 178.628,179.299 183.720,178.375 190.400 C 178.177 191.830,177.838 193.810,177.621 194.800 C 177.405 195.790,177.026 197.860,176.780 199.400 C 175.971 204.450,174.538 213.063,173.452 219.400 C 173.150 221.160,172.694 223.950,172.438 225.600 C 172.182 227.250,171.771 229.498,171.525 230.596 C 171.278 231.694,170.941 233.674,170.774 234.996 C 170.375 238.166,169.653 242.525,169.121 244.964 C 168.886 246.044,168.523 248.204,168.315 249.764 C 168.107 251.324,167.842 253.275,167.726 254.100 L 167.516 255.600 193.150 255.600 L 218.785 255.600 218.951 254.700 C 219.500 251.738,220.115 247.833,220.416 245.400 C 220.607 243.860,220.966 241.865,221.214 240.968 C 221.463 240.070,221.606 238.810,221.533 238.168 L 221.400 237.000 207.615 236.895 C 200.033 236.837,193.694 236.654,193.529 236.489 C 193.036 235.996,193.955 228.754,194.705 227.221 L 195.400 225.800 207.958 225.600 L 220.517 225.400 221.002 223.600 C 221.268 222.610,221.687 220.450,221.932 218.800 C 222.823 212.793,223.589 208.341,223.788 208.020 C 224.202 207.349,221.920 207.211,210.324 207.205 C 202.705 207.202,198.357 207.054,198.196 206.793 C 197.839 206.215,198.795 198.858,199.430 197.300 L 199.959 196.000 213.931 196.000 C 229.448 196.000,228.603 196.158,229.005 193.180 C 229.385 190.370,230.405 184.489,231.109 181.051 C 231.728 178.025,231.724 177.880,231.000 177.351 C 229.704 176.403,181.359 176.547,180.866 177.500 M241.139 177.058 C 240.699 177.181,240.417 177.808,240.300 178.922 C 240.097 180.837,239.356 185.560,238.751 188.800 C 238.524 190.010,238.178 192.460,237.981 194.244 C 237.784 196.028,237.438 197.975,237.211 198.570 C 236.985 199.165,236.800 200.512,236.800 201.562 C 236.800 202.613,236.532 204.356,236.204 205.436 C 235.877 206.516,235.602 208.120,235.595 209.000 C 235.587 209.880,235.394 211.320,235.165 212.200 C 234.937 213.080,234.597 215.150,234.409 216.800 C 234.222 218.450,233.882 220.790,233.654 222.000 C 232.969 225.626,232.347 229.629,232.003 232.625 C 231.825 234.178,231.482 236.158,231.242 237.025 C 231.001 237.891,230.803 239.204,230.802 239.943 C 230.801 240.681,230.542 242.481,230.228 243.943 C 229.913 245.404,229.449 248.040,229.198 249.800 C 228.946 251.560,228.644 253.585,228.527 254.300 L 228.312 255.600 239.704 255.600 L 251.096 255.600 251.550 253.900 C 251.800 252.965,252.169 250.940,252.371 249.400 C 253.013 244.496,253.631 240.677,254.224 237.943 C 254.541 236.481,254.803 234.681,254.806 233.943 C 254.816 231.736,255.127 231.551,258.593 231.682 C 261.963 231.809,261.842 231.728,262.918 234.600 C 263.248 235.480,264.095 237.640,264.800 239.400 C 265.505 241.160,266.314 243.230,266.596 244.000 C 268.033 247.917,269.457 251.547,270.481 253.900 L 271.220 255.600 283.453 255.600 C 294.479 255.600,295.661 255.537,295.441 254.963 C 295.307 254.612,295.080 253.859,294.937 253.290 C 294.793 252.720,294.435 251.791,294.141 251.227 C 293.846 250.662,293.604 249.990,293.602 249.732 C 293.601 249.475,293.344 248.755,293.032 248.132 C 292.719 247.510,292.157 246.190,291.781 245.200 C 291.406 244.210,290.869 242.860,290.586 242.200 C 290.304 241.540,289.806 240.280,289.478 239.400 C 289.151 238.520,288.351 236.450,287.700 234.800 C 284.820 227.493,284.822 227.750,287.642 226.218 C 298.107 220.531,304.335 206.381,301.410 194.939 C 299.505 187.489,294.073 181.033,288.352 179.418 C 287.829 179.271,287.040 178.985,286.600 178.783 C 283.302 177.271,280.085 177.044,260.800 176.957 C 250.350 176.910,241.502 176.955,241.139 177.058 M271.600 196.891 C 279.229 198.476,280.219 206.315,273.446 211.514 C 272.063 212.576,259.309 212.905,258.491 211.900 C 258.091 211.409,258.440 205.365,258.963 203.715 C 259.094 203.303,259.369 201.631,259.574 199.997 C 260.074 196.013,260.302 195.864,265.400 196.183 C 267.600 196.321,270.390 196.640,271.600 196.891 " stroke="none" fill="#f7f7f7" fill-rule="evenodd"></path><path id="path3" d="M149.931 48.526 C 149.619 48.839,148.929 49.232,148.400 49.400 C 147.871 49.568,147.191 49.952,146.890 50.253 C 146.589 50.554,146.015 50.800,145.614 50.800 C 145.213 50.800,144.782 51.070,144.655 51.400 C 144.529 51.730,144.149 52.000,143.813 52.000 C 143.476 52.000,143.200 52.270,143.200 52.600 C 143.200 53.000,142.800 53.200,142.000 53.200 C 141.200 53.200,140.800 53.400,140.800 53.800 C 140.800 54.175,140.421 54.400,139.787 54.400 C 139.231 54.400,138.671 54.670,138.545 55.000 C 138.418 55.330,137.903 55.600,137.400 55.600 C 136.897 55.600,136.382 55.870,136.255 56.200 C 136.129 56.530,135.749 56.800,135.413 56.800 C 135.076 56.800,134.800 57.070,134.800 57.400 C 134.800 57.800,134.400 58.000,133.600 58.000 C 132.800 58.000,132.400 58.200,132.400 58.600 C 132.400 58.943,132.040 59.200,131.557 59.200 C 131.006 59.200,130.788 59.391,130.926 59.750 C 131.042 60.053,130.926 60.295,130.668 60.287 C 129.345 60.250,128.800 60.457,128.800 61.000 C 128.800 61.343,128.440 61.600,127.957 61.600 C 127.406 61.600,127.188 61.791,127.326 62.150 C 127.442 62.453,127.326 62.695,127.068 62.687 C 125.745 62.650,125.200 62.857,125.200 63.400 C 125.200 63.775,124.821 64.000,124.187 64.000 C 123.631 64.000,123.071 64.270,122.945 64.600 C 122.818 64.930,122.548 65.200,122.344 65.200 C 122.140 65.200,121.445 65.740,120.800 66.400 C 120.155 67.060,119.425 67.600,119.178 67.600 C 118.777 67.600,117.936 68.270,115.587 70.461 C 115.198 70.824,114.520 71.235,114.081 71.374 C 113.086 71.690,110.400 74.188,110.400 74.797 C 110.400 75.045,110.229 75.142,110.020 75.012 C 109.811 74.883,109.445 75.143,109.206 75.589 C 108.967 76.035,108.502 76.400,108.172 76.400 C 107.843 76.400,107.045 76.940,106.400 77.600 C 105.755 78.260,105.041 78.800,104.813 78.800 C 104.586 78.800,104.400 79.070,104.400 79.400 C 104.400 79.730,104.130 80.000,103.800 80.000 C 103.470 80.000,103.200 80.270,103.200 80.600 C 103.200 80.930,102.930 81.200,102.600 81.200 C 102.270 81.200,102.000 81.470,102.000 81.800 C 102.000 82.175,101.621 82.400,100.987 82.400 C 100.431 82.400,99.871 82.670,99.745 83.000 C 99.618 83.330,99.264 83.600,98.957 83.600 C 98.651 83.600,98.400 83.870,98.400 84.200 C 98.400 84.530,98.130 84.800,97.800 84.800 C 97.470 84.800,97.200 85.070,97.200 85.400 C 97.200 85.730,96.975 86.008,96.700 86.017 C 96.425 86.026,95.758 86.566,95.219 87.217 C 94.679 87.868,94.004 88.400,93.719 88.400 C 93.433 88.400,93.200 88.670,93.200 89.000 C 93.200 89.330,92.930 89.600,92.600 89.600 C 92.270 89.600,92.000 89.780,92.000 90.000 C 92.000 90.519,90.519 92.000,90.000 92.000 C 89.780 92.000,89.600 92.258,89.600 92.573 C 89.600 92.888,89.206 93.271,88.723 93.424 C 88.241 93.577,87.296 94.219,86.623 94.849 C 85.951 95.480,85.265 95.997,85.100 95.998 C 84.935 95.999,84.800 96.227,84.800 96.504 C 84.800 96.782,84.260 97.455,83.600 98.000 C 82.940 98.545,82.400 99.229,82.400 99.519 C 82.400 99.810,82.233 99.944,82.029 99.818 C 81.825 99.692,81.542 99.954,81.400 100.400 C 81.258 100.846,80.988 101.116,80.800 101.000 C 80.612 100.884,80.344 101.147,80.204 101.586 C 80.065 102.025,79.737 102.342,79.476 102.292 C 79.214 102.241,78.943 102.695,78.873 103.300 C 78.801 103.930,78.502 104.400,78.173 104.400 C 77.858 104.400,77.600 104.670,77.600 105.000 C 77.600 105.330,77.330 105.600,77.000 105.600 C 76.670 105.600,76.400 105.870,76.400 106.200 C 76.400 106.530,76.130 106.800,75.800 106.800 C 75.470 106.800,75.200 107.070,75.200 107.400 C 75.200 107.730,74.945 108.000,74.633 108.000 C 73.855 108.000,73.663 108.766,74.068 110.249 C 74.256 110.936,74.362 126.191,74.305 144.149 L 74.200 176.800 78.467 176.800 C 84.512 176.800,84.721 176.994,83.396 181.364 C 83.068 182.444,82.800 184.097,82.800 185.038 C 82.800 185.978,82.605 187.255,82.367 187.874 C 82.129 188.493,81.789 190.417,81.612 192.148 C 81.230 195.897,81.128 195.986,77.200 195.994 L 74.200 196.000 74.200 201.600 C 74.200 205.063,74.353 207.202,74.600 207.206 C 76.083 207.229,76.069 207.994,74.433 217.000 C 74.233 218.100,74.171 222.614,74.296 227.030 C 74.529 235.317,74.354 237.460,73.488 236.940 C 73.220 236.778,73.270 236.979,73.600 237.385 C 74.129 238.036,74.213 250.129,74.307 339.861 L 74.414 441.600 82.250 441.600 C 88.736 441.600,90.049 441.505,89.874 441.050 C 89.758 440.747,89.874 440.505,90.132 440.513 C 95.981 440.679,101.600 440.330,101.600 439.800 C 101.600 439.309,102.289 439.200,105.400 439.200 C 108.511 439.200,109.200 439.091,109.200 438.600 C 109.200 438.109,109.886 438.000,112.971 438.000 C 115.790 438.000,116.894 437.848,117.343 437.400 C 117.763 436.980,118.790 436.800,120.771 436.800 C 123.019 436.800,123.600 436.677,123.600 436.200 C 123.600 435.720,124.201 435.600,126.613 435.600 C 128.921 435.600,129.679 435.460,129.855 435.000 C 130.031 434.542,130.783 434.400,133.043 434.400 C 135.405 434.400,136.000 434.279,136.000 433.800 C 136.000 433.320,136.600 433.200,139.000 433.200 C 141.400 433.200,142.000 433.080,142.000 432.600 C 142.000 432.079,145.486 431.657,147.311 431.956 C 147.482 431.984,147.727 431.736,147.854 431.404 C 148.024 430.962,148.705 430.800,150.400 430.800 C 152.088 430.800,152.777 430.638,152.945 430.200 C 153.071 429.870,153.001 429.600,152.787 429.600 C 151.938 429.600,152.295 256.485,153.145 256.029 C 154.173 255.479,154.733 253.921,155.168 250.400 C 155.850 244.879,156.424 241.016,156.844 239.129 C 157.072 238.099,157.413 235.939,157.601 234.329 C 158.171 229.429,158.826 225.137,159.428 222.343 C 159.742 220.881,160.001 218.991,160.002 218.143 C 160.003 217.294,160.201 215.891,160.442 215.025 C 160.682 214.158,161.026 212.178,161.205 210.625 C 161.639 206.857,162.314 202.463,163.021 198.791 C 163.339 197.136,163.602 195.066,163.605 194.191 C 163.607 193.316,163.875 191.610,164.200 190.400 C 164.525 189.190,164.795 187.480,164.800 186.600 C 164.805 185.720,165.075 184.010,165.400 182.800 C 167.018 176.771,166.631 176.400,158.721 176.400 L 152.402 176.400 152.301 112.300 L 152.200 48.200 151.350 48.079 C 150.882 48.012,150.244 48.213,149.931 48.526 M180.501 176.900 C 179.915 177.637,178.793 183.305,178.026 189.404 C 177.859 190.726,177.527 192.706,177.287 193.804 C 177.047 194.902,176.646 197.060,176.395 198.600 C 175.238 205.713,174.759 208.806,174.415 211.400 C 174.211 212.940,173.855 214.830,173.625 215.600 C 173.395 216.370,173.009 218.350,172.767 220.000 C 172.526 221.650,172.090 224.440,171.798 226.200 C 171.507 227.960,171.067 230.660,170.820 232.200 C 170.574 233.740,170.195 235.810,169.979 236.800 C 169.762 237.790,169.425 239.770,169.229 241.200 C 168.659 245.354,168.006 249.182,167.339 252.273 C 166.998 253.853,166.838 255.338,166.983 255.573 C 167.166 255.869,175.236 256.000,193.216 256.000 L 219.185 256.000 219.356 255.100 C 220.201 250.663,220.535 248.578,220.813 246.000 C 220.990 244.350,221.341 242.435,221.592 241.744 C 221.842 241.054,221.992 239.614,221.924 238.544 L 221.800 236.600 207.818 236.400 L 193.836 236.200 193.946 234.000 C 194.064 231.644,194.533 229.155,195.180 227.453 L 195.580 226.400 207.941 226.400 C 217.542 226.400,220.398 226.285,220.730 225.884 C 221.373 225.110,222.257 220.721,223.244 213.400 C 223.451 211.860,223.813 210.008,224.047 209.285 C 224.854 206.788,224.917 206.800,211.180 206.800 C 199.765 206.800,198.848 206.749,198.720 206.100 C 198.515 205.068,199.191 199.691,199.733 198.034 L 200.203 196.600 214.469 196.400 C 222.315 196.290,228.832 196.103,228.950 195.983 C 229.069 195.864,229.339 194.514,229.550 192.983 C 230.117 188.871,230.786 184.939,231.429 181.943 C 232.126 178.700,232.147 177.507,231.520 176.880 C 230.808 176.168,181.067 176.188,180.501 176.900 M115.446 178.278 C 116.191 179.091,116.800 179.982,116.800 180.258 C 116.800 180.534,117.321 181.534,117.957 182.480 C 118.594 183.426,119.503 184.920,119.978 185.800 C 120.453 186.680,121.000 187.670,121.195 188.000 C 121.389 188.330,122.741 190.670,124.200 193.200 C 125.659 195.730,127.013 198.070,127.209 198.400 C 127.405 198.730,128.295 200.260,129.187 201.800 C 130.079 203.340,130.985 204.870,131.201 205.200 C 132.182 206.698,135.201 212.053,135.211 212.312 C 135.217 212.470,135.742 213.228,136.379 213.996 L 137.536 215.392 137.790 214.196 C 137.930 213.538,138.304 211.998,138.622 210.774 C 138.940 209.549,139.200 207.928,139.200 207.171 C 139.200 206.414,139.388 205.166,139.618 204.397 C 139.849 203.629,140.189 201.830,140.374 200.400 C 140.560 198.970,140.912 196.765,141.156 195.500 C 141.400 194.235,141.800 192.165,142.044 190.900 C 142.288 189.635,142.640 187.430,142.826 186.000 C 143.011 184.570,143.351 182.771,143.582 182.003 C 143.812 181.234,144.000 180.032,144.000 179.331 C 144.000 176.855,144.234 176.800,154.796 176.800 C 166.878 176.800,166.383 176.554,165.000 181.865 C 164.670 183.131,164.400 185.019,164.400 186.058 C 164.400 187.097,164.208 188.453,163.973 189.070 C 163.738 189.688,163.395 191.635,163.211 193.396 C 162.860 196.738,162.363 199.998,161.379 205.400 C 161.059 207.160,160.795 209.230,160.793 210.000 C 160.792 210.770,160.525 212.390,160.200 213.600 C 159.875 214.810,159.605 216.610,159.600 217.600 C 159.595 218.590,159.325 220.390,159.000 221.600 C 158.675 222.810,158.407 224.521,158.405 225.403 C 158.402 226.284,158.216 227.634,157.991 228.403 C 157.767 229.171,157.420 231.240,157.222 233.000 C 157.023 234.760,156.676 237.190,156.449 238.400 C 155.858 241.562,155.219 245.743,154.797 249.200 C 154.596 250.850,154.221 252.965,153.964 253.900 L 153.496 255.600 144.009 255.600 L 134.522 255.600 130.361 248.331 C 128.073 244.333,125.970 240.598,125.688 240.031 C 125.407 239.464,124.634 238.100,123.970 237.000 C 123.306 235.900,122.496 234.460,122.169 233.800 C 121.842 233.140,121.226 232.060,120.800 231.400 C 120.374 230.740,119.751 229.660,119.416 229.000 C 119.081 228.340,118.266 226.900,117.605 225.800 C 116.944 224.700,116.277 223.530,116.122 223.200 C 112.977 216.493,110.809 215.404,110.796 220.526 C 110.793 221.447,110.523 223.084,110.196 224.164 C 109.868 225.244,109.598 226.864,109.596 227.764 C 109.593 228.664,109.323 230.284,108.996 231.364 C 108.668 232.444,108.398 234.064,108.396 234.964 C 108.393 235.864,108.123 237.484,107.796 238.564 C 107.468 239.644,107.200 241.297,107.200 242.238 C 107.200 243.178,107.007 244.455,106.771 245.074 C 106.536 245.693,106.184 247.591,105.990 249.292 C 105.796 250.993,105.420 253.108,105.155 253.992 L 104.673 255.600 93.891 255.600 L 83.109 255.600 83.305 254.500 C 83.412 253.895,83.711 252.050,83.970 250.400 C 84.229 248.750,84.635 246.320,84.873 245.000 C 85.110 243.680,85.444 241.430,85.614 240.000 C 85.930 237.348,86.501 233.695,87.270 229.400 C 87.506 228.080,87.843 225.740,88.018 224.200 C 88.193 222.660,88.522 220.410,88.749 219.200 C 89.373 215.873,90.084 211.283,90.390 208.600 C 90.540 207.280,90.865 205.120,91.112 203.800 C 91.789 200.173,92.476 195.702,92.803 192.800 C 92.964 191.370,93.288 189.120,93.524 187.800 C 93.760 186.480,94.248 183.690,94.607 181.600 C 94.967 179.510,95.332 177.575,95.418 177.300 C 95.538 176.919,97.777 176.800,104.833 176.800 L 114.092 176.800 115.446 178.278 M231.000 177.351 C 231.724 177.880,231.728 178.025,231.109 181.051 C 230.405 184.489,229.385 190.370,229.005 193.180 C 228.603 196.158,229.448 196.000,213.931 196.000 L 199.959 196.000 199.430 197.300 C 198.795 198.858,197.839 206.215,198.196 206.793 C 198.357 207.054,202.705 207.202,210.324 207.205 C 221.920 207.211,224.202 207.349,223.788 208.020 C 223.589 208.341,222.823 212.793,221.932 218.800 C 221.687 220.450,221.268 222.610,221.002 223.600 L 220.517 225.400 207.958 225.600 L 195.400 225.800 194.705 227.221 C 193.955 228.754,193.036 235.996,193.529 236.489 C 193.694 236.654,200.033 236.837,207.615 236.895 L 221.400 237.000 221.533 238.168 C 221.606 238.810,221.463 240.070,221.214 240.968 C 220.966 241.865,220.607 243.860,220.416 245.400 C 220.115 247.833,219.500 251.738,218.951 254.700 L 218.785 255.600 193.150 255.600 L 167.516 255.600 167.726 254.100 C 167.842 253.275,168.107 251.324,168.315 249.764 C 168.523 248.204,168.886 246.044,169.121 244.964 C 169.653 242.525,170.375 238.166,170.774 234.996 C 170.941 233.674,171.278 231.694,171.525 230.596 C 171.771 229.498,172.182 227.250,172.438 225.600 C 172.694 223.950,173.150 221.160,173.452 219.400 C 174.538 213.063,175.971 204.450,176.780 199.400 C 177.026 197.860,177.405 195.790,177.621 194.800 C 177.838 193.810,178.177 191.830,178.375 190.400 C 179.299 183.720,180.283 178.628,180.866 177.500 C 181.359 176.547,229.704 176.403,231.000 177.351 M240.217 177.300 C 240.056 177.811,239.998 178.143,239.214 183.000 C 238.965 184.540,238.577 186.790,238.350 188.000 C 238.124 189.210,237.785 191.592,237.597 193.293 C 237.409 194.994,237.134 196.583,236.986 196.823 C 236.837 197.064,236.576 198.642,236.406 200.330 C 236.235 202.019,235.903 204.390,235.667 205.600 C 235.064 208.694,234.332 213.375,234.010 216.200 C 233.860 217.520,233.535 219.680,233.288 221.000 C 232.499 225.224,231.932 228.920,231.601 232.000 C 231.423 233.650,231.080 235.507,230.839 236.126 C 230.597 236.745,230.400 237.955,230.400 238.815 C 230.400 239.674,230.141 241.687,229.824 243.289 C 228.912 247.900,228.302 252.049,228.249 254.000 L 228.200 255.800 235.100 255.815 L 242.001 255.829 235.158 255.705 L 228.315 255.581 228.528 254.290 C 228.645 253.581,228.946 251.560,229.198 249.800 C 229.449 248.040,229.913 245.404,230.228 243.943 C 230.542 242.481,230.801 240.681,230.802 239.943 C 230.803 239.204,231.001 237.891,231.242 237.025 C 231.482 236.158,231.825 234.178,232.003 232.625 C 232.347 229.629,232.969 225.626,233.654 222.000 C 233.882 220.790,234.222 218.450,234.409 216.800 C 234.597 215.150,234.937 213.080,235.165 212.200 C 235.394 211.320,235.587 209.880,235.595 209.000 C 235.602 208.120,235.877 206.516,236.204 205.436 C 236.532 204.356,236.800 202.613,236.800 201.562 C 236.800 200.512,236.985 199.165,237.211 198.570 C 237.438 197.975,237.784 196.028,237.981 194.244 C 238.178 192.460,238.524 190.010,238.751 188.800 C 239.356 185.560,240.097 180.837,240.300 178.922 C 240.418 177.801,240.697 177.186,241.139 177.068 C 241.711 176.916,241.704 176.887,241.087 176.846 C 240.696 176.821,240.304 177.025,240.217 177.300 M377.600 184.200 C 378.795 185.410,379.863 186.400,379.973 186.400 C 380.083 186.400,379.195 185.410,378.000 184.200 C 376.805 182.990,375.737 182.000,375.627 182.000 C 375.517 182.000,376.405 182.990,377.600 184.200 M302.093 199.200 C 302.093 199.970,302.175 200.285,302.276 199.900 C 302.376 199.515,302.376 198.885,302.276 198.500 C 302.175 198.115,302.093 198.430,302.093 199.200 M386.000 220.376 C 386.000 221.319,386.635 221.791,387.034 221.145 C 387.215 220.852,387.150 220.784,386.862 220.962 C 386.608 221.119,386.400 221.057,386.400 220.824 C 386.400 220.591,386.591 220.400,386.824 220.400 C 387.057 220.400,387.136 220.220,387.000 220.000 C 386.587 219.331,386.000 219.552,386.000 220.376 " stroke="none" fill="#4ca48c" fill-rule="evenodd"></path><path id="path4" d="M344.800 0.400 C 344.800 0.656,341.067 0.800,334.400 0.800 C 325.422 0.800,324.000 0.882,324.000 1.400 C 324.000 1.905,323.111 2.000,318.400 2.000 C 313.689 2.000,312.800 2.095,312.800 2.600 C 312.800 3.099,312.021 3.200,308.187 3.200 C 304.456 3.200,303.531 3.315,303.345 3.800 C 303.163 4.274,302.328 4.400,299.357 4.400 C 296.284 4.400,295.600 4.509,295.600 5.000 C 295.600 5.489,294.933 5.600,292.000 5.600 C 289.067 5.600,288.400 5.711,288.400 6.200 C 288.400 6.680,287.800 6.800,285.400 6.800 C 283.000 6.800,282.400 6.920,282.400 7.400 C 282.400 7.880,281.800 8.000,279.400 8.000 C 277.000 8.000,276.400 8.120,276.400 8.600 C 276.400 9.083,275.778 9.200,273.200 9.200 C 270.622 9.200,270.000 9.317,270.000 9.800 C 270.000 10.318,266.208 10.749,264.300 10.447 C 264.135 10.421,264.000 10.670,264.000 11.000 C 264.000 11.467,263.467 11.600,261.600 11.600 C 259.733 11.600,259.200 11.733,259.200 12.200 C 259.200 12.667,258.667 12.800,256.800 12.800 C 254.933 12.800,254.400 12.933,254.400 13.400 C 254.400 13.867,253.867 14.000,252.000 14.000 C 250.133 14.000,249.600 14.133,249.600 14.600 C 249.600 15.060,249.092 15.200,247.429 15.200 C 246.032 15.200,245.043 15.414,244.657 15.800 C 244.315 16.142,243.338 16.400,242.382 16.400 C 240.810 16.400,240.728 16.456,241.047 17.300 C 241.234 17.795,241.437 53.795,241.498 97.300 L 241.608 176.400 260.904 176.410 C 273.086 176.416,280.790 176.574,281.800 176.840 C 282.680 177.071,284.174 177.400,285.120 177.570 C 286.065 177.740,287.046 178.086,287.300 178.340 C 287.553 178.593,288.161 178.800,288.651 178.800 C 289.142 178.800,289.789 179.046,290.090 179.347 C 290.391 179.648,291.034 180.020,291.519 180.174 C 292.003 180.328,292.400 180.622,292.400 180.827 C 292.400 181.032,292.643 181.200,292.940 181.200 C 295.038 181.200,301.600 190.257,301.600 193.152 C 301.600 193.750,301.825 194.465,302.100 194.740 C 304.207 196.845,302.331 209.760,299.171 214.906 C 298.527 215.954,298.000 216.971,298.000 217.166 C 298.000 218.632,290.003 226.267,287.736 226.965 C 285.950 227.515,285.902 229.519,287.603 232.495 C 287.821 232.877,288.000 233.447,288.000 233.762 C 288.000 234.077,288.256 234.845,288.568 235.468 C 288.881 236.090,289.435 237.410,289.800 238.400 C 290.165 239.390,290.719 240.710,291.032 241.332 C 291.344 241.955,291.600 242.648,291.600 242.872 C 291.600 243.313,292.501 245.516,293.424 247.332 C 293.741 247.955,294.001 248.675,294.002 248.932 C 294.004 249.190,294.240 249.850,294.527 250.400 C 295.529 252.322,296.549 255.584,296.243 255.891 C 295.890 256.245,272.660 256.559,271.418 256.227 C 270.617 256.012,269.200 253.706,269.200 252.616 C 269.200 252.313,268.930 251.510,268.600 250.832 C 268.270 250.155,267.730 249.045,267.400 248.368 C 267.070 247.690,266.800 246.824,266.800 246.444 C 266.800 246.064,266.536 245.404,266.213 244.976 C 265.890 244.549,265.614 243.840,265.600 243.400 C 265.586 242.960,265.310 242.251,264.987 241.824 C 264.664 241.396,264.400 240.736,264.400 240.356 C 264.400 239.976,264.148 239.155,263.839 238.532 C 262.803 236.439,262.000 234.377,262.000 233.809 C 262.000 232.235,257.877 231.370,256.147 232.582 C 255.464 233.060,255.278 233.725,255.100 236.331 C 254.980 238.073,254.684 239.869,254.441 240.323 C 254.199 240.776,254.000 242.031,254.000 243.110 C 254.000 244.190,253.732 245.956,253.404 247.036 C 253.077 248.116,252.805 249.630,252.800 250.400 C 252.766 255.759,252.060 256.400,246.184 256.400 L 241.600 256.400 241.600 327.200 L 241.600 398.000 243.200 398.000 C 244.080 398.000,244.800 397.809,244.800 397.576 C 244.800 397.343,244.980 397.264,245.200 397.400 C 245.420 397.536,245.600 397.457,245.600 397.224 C 245.600 396.991,246.056 396.800,246.613 396.800 C 247.169 396.800,247.729 396.530,247.855 396.200 C 247.982 395.870,248.522 395.600,249.055 395.600 C 249.589 395.600,250.129 395.330,250.255 395.000 C 250.382 394.670,250.907 394.400,251.423 394.400 C 251.938 394.400,252.518 394.119,252.710 393.775 C 252.902 393.431,253.316 393.106,253.630 393.053 C 253.943 393.000,254.830 392.614,255.600 392.196 C 256.370 391.778,257.148 391.477,257.330 391.528 C 257.511 391.578,257.549 391.441,257.413 391.222 C 257.278 391.003,257.625 390.709,258.184 390.568 C 258.743 390.428,259.200 390.063,259.200 389.757 C 259.200 389.405,259.642 389.200,260.400 389.200 C 261.200 389.200,261.600 389.000,261.600 388.600 C 261.600 388.230,261.976 388.000,262.580 388.000 C 263.119 388.000,263.711 387.731,263.895 387.403 C 264.078 387.074,264.704 386.766,265.286 386.718 C 265.867 386.670,266.247 386.476,266.131 386.288 C 266.015 386.100,266.298 385.847,266.760 385.726 C 267.222 385.606,267.600 385.258,267.600 384.953 C 267.600 384.605,268.045 384.400,268.800 384.400 C 269.600 384.400,270.000 384.200,270.000 383.800 C 270.000 383.430,270.376 383.200,270.980 383.200 C 271.519 383.200,272.104 382.947,272.280 382.638 C 272.456 382.330,273.050 382.010,273.600 381.929 C 274.150 381.848,274.555 381.560,274.500 381.291 C 274.445 381.021,274.695 380.800,275.056 380.800 C 275.417 380.800,275.915 380.522,276.164 380.182 C 276.412 379.842,277.017 379.534,277.508 379.497 C 277.998 379.460,278.400 379.198,278.400 378.915 C 278.400 378.632,278.760 378.400,279.200 378.400 C 279.640 378.400,279.955 378.175,279.900 377.900 C 279.843 377.617,280.287 377.344,280.924 377.271 C 281.542 377.200,282.146 376.885,282.266 376.571 C 282.387 376.257,282.736 376.000,283.043 376.000 C 283.349 376.000,283.600 375.730,283.600 375.400 C 283.600 374.875,284.339 374.597,285.311 374.756 C 285.482 374.784,285.727 374.536,285.854 374.204 C 285.981 373.872,286.336 373.600,286.643 373.600 C 286.949 373.600,287.200 373.342,287.200 373.027 C 287.200 372.698,287.670 372.399,288.300 372.327 C 288.919 372.255,289.356 371.981,289.300 371.700 C 289.210 371.248,289.697 371.026,290.500 371.153 C 290.665 371.179,290.800 370.930,290.800 370.600 C 290.800 370.270,291.070 370.000,291.400 370.000 C 291.730 370.000,292.000 369.730,292.000 369.400 C 292.000 369.070,292.332 368.800,292.738 368.800 C 293.599 368.800,295.600 367.192,295.600 366.500 C 295.600 366.239,295.870 366.129,296.200 366.255 C 296.582 366.402,296.800 366.249,296.800 365.833 C 296.800 365.427,297.255 365.089,298.000 364.940 C 298.660 364.808,299.200 364.452,299.200 364.150 C 299.200 363.848,299.470 363.600,299.800 363.600 C 300.130 363.600,300.400 363.330,300.400 363.000 C 300.400 362.670,300.676 362.400,301.013 362.400 C 301.349 362.400,301.729 362.130,301.855 361.800 C 301.982 361.470,302.336 361.200,302.643 361.200 C 302.949 361.200,303.155 361.065,303.100 360.900 C 302.919 360.358,304.783 358.800,305.613 358.800 C 306.059 358.800,306.529 358.530,306.655 358.200 C 306.782 357.870,307.136 357.600,307.443 357.600 C 307.749 357.600,308.000 357.330,308.000 357.000 C 308.000 356.670,308.270 356.400,308.600 356.400 C 308.930 356.400,309.200 356.130,309.200 355.800 C 309.200 355.470,309.470 355.200,309.800 355.200 C 310.130 355.200,310.400 355.026,310.400 354.813 C 310.400 354.310,313.110 351.600,313.613 351.600 C 313.826 351.600,314.000 351.330,314.000 351.000 C 314.000 350.670,314.270 350.400,314.600 350.400 C 314.930 350.400,315.200 350.130,315.200 349.800 C 315.200 349.470,315.470 349.200,315.800 349.200 C 316.130 349.200,316.400 348.930,316.400 348.600 C 316.400 348.270,316.670 348.000,317.000 348.000 C 317.330 348.000,317.600 347.826,317.600 347.613 C 317.600 347.110,320.310 344.400,320.813 344.400 C 321.026 344.400,321.200 344.130,321.200 343.800 C 321.200 343.470,321.470 343.200,321.800 343.200 C 322.130 343.200,322.400 342.846,322.400 342.413 C 322.400 341.877,322.592 341.699,323.000 341.855 C 323.369 341.997,323.600 341.855,323.600 341.486 C 323.600 341.156,323.870 340.782,324.200 340.655 C 324.530 340.529,324.800 340.149,324.800 339.813 C 324.800 339.476,325.070 339.200,325.400 339.200 C 325.730 339.200,326.000 338.930,326.000 338.600 C 326.000 338.270,326.256 338.000,326.568 338.000 C 326.881 338.000,327.255 337.460,327.400 336.800 C 327.545 336.140,327.919 335.600,328.232 335.600 C 328.544 335.600,328.800 335.330,328.800 335.000 C 328.800 334.670,329.070 334.400,329.400 334.400 C 329.730 334.400,330.000 334.130,330.000 333.800 C 330.000 333.470,330.270 333.200,330.600 333.200 C 330.930 333.200,331.200 332.930,331.200 332.600 C 331.200 332.270,331.470 332.000,331.800 332.000 C 332.130 332.000,332.400 331.826,332.400 331.614 C 332.400 331.401,332.940 330.675,333.600 330.000 C 334.260 329.325,334.800 328.509,334.800 328.186 C 334.800 327.522,336.193 326.000,336.800 326.000 C 337.020 326.000,337.179 325.865,337.153 325.700 C 336.978 324.597,337.286 323.600,337.800 323.600 C 338.130 323.600,338.400 323.330,338.400 323.000 C 338.400 322.670,338.670 322.400,339.000 322.400 C 339.330 322.400,339.600 322.149,339.600 321.843 C 339.600 321.536,339.872 321.181,340.204 321.054 C 340.536 320.927,340.784 320.682,340.756 320.511 C 340.597 319.539,340.875 318.800,341.400 318.800 C 341.739 318.800,342.000 318.442,342.000 317.976 C 342.000 317.495,342.177 317.262,342.427 317.417 C 342.662 317.562,342.953 317.303,343.074 316.840 C 343.194 316.378,343.542 316.000,343.847 316.000 C 344.164 316.000,344.400 315.591,344.400 315.043 C 344.400 314.516,344.670 313.982,345.000 313.855 C 345.330 313.729,345.600 313.369,345.600 313.055 C 345.600 312.742,345.870 312.382,346.200 312.255 C 346.530 312.129,346.800 311.569,346.800 311.013 C 346.800 310.379,347.025 310.000,347.400 310.000 C 347.730 310.000,348.000 309.646,348.000 309.213 C 348.000 308.677,348.192 308.499,348.600 308.655 C 349.054 308.830,349.200 308.583,349.200 307.643 C 349.200 306.805,349.395 306.400,349.800 306.400 C 350.134 306.400,350.400 306.044,350.400 305.596 C 350.400 305.154,350.760 304.484,351.200 304.107 C 351.640 303.730,352.000 303.182,352.000 302.887 C 352.000 302.593,352.161 302.452,352.357 302.574 C 352.554 302.695,352.838 302.303,352.989 301.701 C 353.140 301.100,353.474 300.478,353.732 300.319 C 354.186 300.038,354.244 299.877,354.350 298.600 C 354.378 298.270,354.670 298.000,355.000 298.000 C 355.333 298.000,355.600 297.644,355.600 297.200 C 355.600 296.760,355.825 296.445,356.100 296.500 C 356.381 296.556,356.655 296.119,356.727 295.500 C 356.796 294.895,357.100 294.400,357.401 294.400 C 357.727 294.400,358.000 293.873,358.075 293.100 C 358.150 292.322,358.401 291.840,358.700 291.900 C 359.024 291.965,359.200 291.507,359.200 290.600 C 359.200 289.693,359.376 289.235,359.700 289.300 C 359.999 289.360,360.250 288.878,360.325 288.100 C 360.403 287.295,360.669 286.800,361.025 286.800 C 361.397 286.800,361.600 286.376,361.600 285.600 C 361.600 284.800,361.800 284.400,362.200 284.400 C 362.530 284.400,362.800 284.149,362.800 283.843 C 362.800 283.536,363.070 283.182,363.400 283.055 C 363.730 282.929,364.000 282.389,364.000 281.855 C 364.000 281.322,364.270 280.782,364.600 280.655 C 364.930 280.529,365.200 279.989,365.200 279.455 C 365.200 278.922,365.470 278.382,365.800 278.255 C 366.130 278.129,366.400 277.589,366.400 277.055 C 366.400 276.522,366.670 275.982,367.000 275.855 C 367.396 275.703,367.600 275.077,367.600 274.013 C 367.600 272.846,367.766 272.400,368.200 272.400 C 368.600 272.400,368.800 272.000,368.800 271.200 C 368.800 270.400,369.000 270.000,369.400 270.000 C 369.819 270.000,370.000 269.578,370.000 268.600 C 370.000 267.693,370.176 267.235,370.500 267.300 C 370.819 267.364,371.072 266.748,371.200 265.600 C 371.328 264.452,371.581 263.836,371.900 263.900 C 372.212 263.962,372.400 263.544,372.400 262.787 C 372.400 262.079,372.649 261.479,373.000 261.345 C 373.335 261.216,373.600 260.622,373.600 260.000 C 373.600 259.378,373.865 258.784,374.200 258.655 C 374.592 258.505,374.800 257.882,374.800 256.859 C 374.800 255.609,374.968 255.249,375.632 255.076 C 376.250 254.914,376.431 254.598,376.332 253.847 C 376.260 253.292,376.373 252.842,376.584 252.848 C 377.058 252.862,377.534 251.715,377.572 250.471 C 377.587 249.961,377.870 249.273,378.200 248.943 C 378.530 248.613,378.800 247.745,378.800 247.014 C 378.800 246.202,379.033 245.596,379.400 245.455 C 379.797 245.303,380.000 244.676,380.000 243.600 C 380.000 242.524,380.203 241.897,380.600 241.745 C 381.009 241.588,381.200 240.948,381.200 239.734 C 381.200 238.754,381.361 238.052,381.558 238.174 C 381.996 238.445,382.400 237.476,382.400 236.155 C 382.400 235.616,382.670 235.071,383.000 234.945 C 383.420 234.783,383.600 234.128,383.600 232.757 C 383.600 231.284,383.748 230.800,384.200 230.800 C 384.644 230.800,384.800 230.333,384.800 229.000 C 384.800 228.000,384.988 227.200,385.224 227.200 C 385.457 227.200,385.536 227.020,385.400 226.800 C 385.264 226.580,385.343 226.400,385.576 226.400 C 385.809 226.400,386.000 226.040,386.000 225.600 C 386.000 225.156,385.733 224.800,385.400 224.800 C 385.000 224.800,384.800 225.200,384.800 226.000 C 384.800 226.793,384.599 227.200,384.208 227.200 C 383.882 227.200,383.502 227.652,383.363 228.205 C 383.224 228.758,382.906 229.343,382.655 229.505 C 382.405 229.667,381.770 230.610,381.244 231.600 C 378.762 236.274,369.169 247.048,366.827 247.791 C 366.372 247.936,366.000 248.201,366.000 248.380 C 366.000 248.560,365.685 248.816,365.300 248.949 C 364.915 249.082,364.060 249.542,363.400 249.971 C 361.824 250.996,356.484 253.600,355.958 253.600 C 355.732 253.600,355.154 253.822,354.674 254.094 C 353.533 254.738,350.451 255.547,347.200 256.056 C 343.728 256.599,327.109 256.352,326.361 255.746 C 326.052 255.497,325.170 255.159,324.400 254.997 C 321.442 254.372,312.050 248.840,311.984 247.684 C 311.975 247.528,310.895 246.237,309.584 244.817 C 308.273 243.396,307.200 242.066,307.200 241.861 C 307.200 241.656,306.688 240.657,306.063 239.641 C 305.438 238.625,304.525 236.445,304.033 234.797 C 303.542 233.149,302.931 231.260,302.675 230.600 C 302.041 228.965,302.047 216.707,302.683 214.600 C 302.949 213.720,303.549 211.650,304.018 210.000 C 304.486 208.350,305.139 206.370,305.468 205.600 C 306.867 202.328,308.665 198.900,309.695 197.542 C 310.303 196.741,310.803 195.931,310.806 195.742 C 310.810 195.554,311.350 194.791,312.006 194.046 C 312.663 193.301,313.200 192.581,313.200 192.445 C 313.200 190.498,325.061 181.155,331.000 178.424 C 332.100 177.919,333.360 177.315,333.800 177.083 C 334.240 176.851,335.230 176.530,336.000 176.370 C 336.770 176.210,337.940 175.891,338.600 175.661 C 342.780 174.208,353.939 173.522,359.000 174.409 C 364.025 175.289,365.361 175.601,365.746 175.986 C 365.974 176.214,366.481 176.400,366.874 176.400 C 370.855 176.400,382.308 186.431,384.228 191.600 C 384.351 191.930,384.682 192.740,384.963 193.400 C 386.295 196.519,386.583 197.585,387.558 203.000 C 388.388 207.608,388.322 207.633,375.427 207.587 C 364.050 207.546,364.960 207.770,363.449 204.632 C 362.302 202.251,359.242 198.800,358.278 198.800 C 357.993 198.800,357.554 198.594,357.302 198.342 C 355.494 196.534,344.122 195.516,342.176 196.987 C 341.749 197.310,341.084 197.580,340.699 197.587 C 336.938 197.655,329.758 204.453,326.737 210.806 C 324.585 215.333,324.552 223.866,326.677 226.431 C 326.965 226.779,327.200 227.203,327.200 227.374 C 327.200 230.549,337.446 235.327,342.863 234.678 C 345.687 234.340,348.911 233.600,350.260 232.979 C 350.954 232.661,351.719 232.400,351.960 232.400 C 352.202 232.400,352.400 232.232,352.400 232.027 C 352.400 231.822,352.791 231.530,353.269 231.378 C 354.239 231.070,354.280 231.041,356.800 228.832 C 359.127 226.793,359.254 226.826,348.600 226.702 L 339.800 226.600 339.942 224.432 C 340.020 223.239,340.335 221.552,340.642 220.682 C 340.949 219.811,341.200 218.553,341.200 217.885 C 341.200 216.400,342.424 212.310,342.989 211.906 C 343.906 211.250,386.956 211.554,387.912 212.223 C 389.219 213.139,389.600 212.632,389.600 209.976 C 389.600 208.131,389.734 207.600,390.200 207.600 C 390.680 207.600,390.800 207.000,390.800 204.600 C 390.800 202.200,390.920 201.600,391.400 201.600 C 391.880 201.600,392.000 201.000,392.000 198.600 C 392.000 196.200,392.120 195.600,392.600 195.600 C 393.080 195.600,393.200 195.000,393.200 192.600 C 393.200 190.200,393.320 189.600,393.800 189.600 C 394.291 189.600,394.400 188.916,394.400 185.843 C 394.400 182.872,394.526 182.037,395.000 181.855 C 395.478 181.672,395.600 180.810,395.600 177.613 C 395.600 174.313,395.707 173.600,396.200 173.600 C 396.695 173.600,396.800 172.867,396.800 169.400 C 396.800 165.933,396.905 165.200,397.400 165.200 C 397.905 165.200,398.000 164.311,398.000 159.600 C 398.000 154.889,398.095 154.000,398.600 154.000 C 399.109 154.000,399.200 153.000,399.200 147.400 C 399.200 143.267,399.349 140.800,399.600 140.800 C 399.864 140.800,400.000 128.333,400.000 104.200 C 400.000 80.067,399.864 67.600,399.600 67.600 C 399.345 67.600,399.200 64.181,399.200 58.144 C 399.200 50.277,399.101 48.614,398.610 48.244 C 398.133 47.885,398.011 46.474,397.975 40.874 C 397.940 35.305,397.820 33.906,397.365 33.731 C 396.928 33.564,396.800 32.571,396.800 29.357 C 396.800 25.929,396.695 25.200,396.200 25.200 C 395.708 25.200,395.600 24.506,395.600 21.357 C 395.600 18.106,395.508 17.550,395.000 17.745 C 394.498 17.937,394.400 17.456,394.400 14.787 C 394.400 12.221,394.283 11.600,393.800 11.600 C 393.324 11.600,393.200 11.024,393.200 8.820 C 393.200 6.817,393.039 5.950,392.624 5.718 C 392.260 5.514,392.003 4.588,391.924 3.198 C 391.840 1.703,391.640 1.032,391.300 1.100 C 391.025 1.155,390.800 0.930,390.800 0.600 C 390.800 0.074,387.978 0.000,367.800 0.000 C 352.733 0.000,344.800 0.138,344.800 0.400 M260.868 197.805 C 260.214 198.636,259.998 199.462,259.994 201.154 C 259.990 202.389,259.727 204.480,259.408 205.800 C 259.089 207.120,258.822 208.942,258.814 209.849 L 258.800 211.497 263.122 211.777 C 267.768 212.078,272.228 211.749,273.110 211.039 C 279.929 205.557,278.366 198.221,270.232 197.523 C 268.454 197.370,265.816 197.123,264.368 196.973 C 261.827 196.711,261.706 196.739,260.868 197.805 " stroke="none" fill="#94bc3c" fill-rule="evenodd"></path></g></svg>