<svg id="svg" version="1.1" xmlns="http://www.w3.org/2000/svg" xmlns:xlink="http://www.w3.org/1999/xlink" width="400" height="290.989010989011" viewBox="0, 0, 400,290.989010989011"><g id="svgg"><path id="path0" d="M173.508 0.291 C 173.508 0.451,173.311 0.582,173.071 0.582 C 172.831 0.582,172.635 0.779,172.635 1.019 C 172.635 1.259,172.438 1.456,172.198 1.456 C 171.554 1.456,171.553 12.052,172.196 13.286 C 172.515 13.898,172.632 15.109,172.633 17.841 C 172.636 23.703,173.369 24.745,177.487 24.745 C 180.435 24.745,180.608 24.962,180.042 27.933 C 179.842 28.982,179.401 31.543,179.062 33.624 C 178.722 35.706,178.257 38.326,178.027 39.447 C 177.797 40.568,177.396 42.729,177.136 44.250 C 176.877 45.771,176.489 47.999,176.274 49.199 C 176.059 50.400,175.667 52.627,175.402 54.148 C 175.138 55.670,174.742 57.897,174.523 59.098 C 174.116 61.327,173.387 65.418,173.070 67.249 C 172.973 67.809,172.437 70.822,171.879 73.945 C 171.321 77.067,170.748 80.277,170.607 81.077 C 170.465 81.878,170.068 84.105,169.724 86.026 C 169.053 89.775,168.425 93.407,167.963 96.215 C 167.805 97.176,167.552 98.552,167.402 99.272 C 167.142 100.519,166.778 102.504,165.809 107.964 C 165.188 111.459,165.816 111.208,157.679 111.209 C 146.502 111.209,147.453 109.591,147.453 128.624 C 147.453 147.255,147.031 146.143,154.100 146.143 C 158.249 146.143,159.171 146.418,158.827 147.556 C 158.747 147.819,158.270 150.393,157.767 153.275 C 157.264 156.157,156.678 159.498,156.463 160.699 C 156.249 161.900,155.877 163.996,155.636 165.357 C 155.077 168.522,154.409 172.279,153.865 175.328 C 153.629 176.648,153.243 178.843,153.007 180.204 C 152.770 181.565,152.314 184.119,151.992 185.881 C 151.670 187.642,151.077 190.983,150.674 193.304 C 150.272 195.626,149.737 198.639,149.485 200.000 C 149.234 201.361,148.847 203.523,148.625 204.803 C 148.201 207.251,147.183 213.004,146.692 215.721 C 146.357 217.576,146.019 219.502,144.413 228.675 C 143.769 232.358,143.039 236.419,142.792 237.700 C 142.545 238.981,141.812 243.042,141.164 246.725 C 140.515 250.408,139.658 255.255,139.259 257.496 C 138.146 263.758,137.706 266.290,137.236 269.141 C 136.694 272.437,136.370 273.450,135.651 274.100 C 135.222 274.489,135.080 274.997,135.080 276.142 C 135.080 277.155,134.948 277.718,134.687 277.818 C 134.410 277.924,134.275 278.646,134.233 280.247 C 134.193 281.749,134.030 282.683,133.753 282.988 C 133.130 283.676,133.146 289.665,133.770 289.665 C 134.010 289.665,134.207 289.862,134.207 290.102 C 134.207 290.342,134.403 290.539,134.643 290.539 C 134.884 290.539,135.080 290.670,135.080 290.830 C 135.080 291.005,136.293 291.121,138.137 291.121 C 139.981 291.121,141.194 291.005,141.194 290.830 C 141.194 290.670,141.390 290.539,141.630 290.539 C 141.870 290.539,142.067 290.356,142.067 290.133 C 142.067 289.910,142.263 289.652,142.504 289.560 C 142.806 289.444,142.943 288.963,142.950 288.000 C 142.955 287.235,143.137 286.373,143.356 286.085 C 143.617 285.741,143.765 284.647,143.789 282.891 C 143.814 281.043,143.940 280.156,144.201 280.010 C 144.695 279.734,144.798 277.476,144.387 275.948 C 144.126 274.981,144.139 274.685,144.446 274.490 C 144.882 274.213,196.495 274.138,197.211 274.413 C 197.988 274.711,197.874 280.366,197.076 281.089 C 196.324 281.769,196.236 288.415,196.975 288.699 C 197.198 288.784,197.380 289.233,197.380 289.696 C 197.380 290.344,197.514 290.539,197.962 290.539 C 198.282 290.539,198.544 290.670,198.544 290.830 C 198.544 291.004,199.709 291.121,201.456 291.121 C 203.064 291.121,204.367 290.999,204.367 290.849 C 204.367 290.700,204.727 290.536,205.167 290.485 L 205.968 290.393 205.907 285.590 C 205.873 282.948,205.766 279.424,205.668 277.759 C 205.531 275.417,205.578 274.677,205.875 274.488 C 206.395 274.158,256.220 274.174,256.742 274.504 C 257.090 274.725,257.080 274.916,256.669 275.781 C 256.075 277.034,256.065 277.636,256.625 278.709 C 256.876 279.190,257.060 280.315,257.060 281.370 C 257.060 282.727,257.172 283.241,257.496 283.366 C 257.827 283.493,257.933 284.030,257.933 285.590 C 257.933 287.071,258.046 287.689,258.335 287.800 C 258.557 287.885,258.820 288.468,258.920 289.096 C 259.064 289.996,259.256 290.276,259.828 290.420 C 260.227 290.520,260.553 290.718,260.553 290.861 C 260.553 291.004,261.863 291.121,263.464 291.121 C 265.211 291.121,266.376 291.004,266.376 290.830 C 266.376 290.670,266.638 290.539,266.958 290.539 C 267.339 290.539,267.540 290.344,267.540 289.977 C 267.540 289.668,267.737 289.219,267.977 288.979 C 268.475 288.481,268.605 284.830,268.130 284.668 C 267.975 284.614,267.758 283.609,267.649 282.434 C 267.522 281.060,267.311 280.243,267.059 280.147 C 266.779 280.039,266.667 279.380,266.667 277.844 C 266.667 276.277,266.568 275.711,266.303 275.764 C 266.081 275.808,265.901 275.444,265.843 274.834 C 265.791 274.282,265.558 273.691,265.325 273.521 C 264.859 273.180,264.419 271.095,262.433 259.825 C 261.364 253.755,261.078 252.144,260.702 250.073 C 260.323 247.982,260.124 246.853,258.800 239.301 C 257.815 233.683,257.611 232.543,257.187 230.277 C 256.962 229.076,256.312 225.408,255.742 222.125 C 255.173 218.843,254.584 215.502,254.433 214.702 C 254.136 213.119,253.592 210.074,252.872 205.968 C 252.457 203.600,251.767 199.692,250.918 194.905 C 250.748 193.945,250.422 192.176,250.193 190.975 C 249.965 189.774,249.322 186.106,248.764 182.824 C 248.206 179.541,247.620 176.201,247.462 175.400 C 247.166 173.905,246.709 171.368,245.860 166.521 C 245.594 165.000,245.185 162.745,244.952 161.511 C 244.719 160.276,244.399 158.376,244.241 157.289 C 244.083 156.202,243.756 154.330,243.514 153.130 C 242.015 145.684,241.748 146.144,247.561 146.138 C 252.440 146.134,253.015 145.982,254.067 144.421 L 254.731 143.436 254.731 128.733 L 254.731 114.029 253.965 113.024 C 252.661 111.315,252.076 111.208,244.024 111.208 C 238.680 111.208,236.672 111.113,236.330 110.844 C 236.005 110.589,235.550 108.617,234.800 104.221 C 234.213 100.779,233.537 96.914,233.296 95.633 C 233.056 94.352,232.738 92.649,232.590 91.849 C 232.287 90.221,231.374 85.056,230.685 81.077 C 230.435 79.636,230.054 77.475,229.838 76.274 C 229.068 71.996,228.006 66.029,227.208 61.499 C 226.961 60.098,226.559 57.838,226.315 56.477 C 226.071 55.116,225.684 52.955,225.456 51.674 C 225.227 50.393,224.853 48.297,224.625 47.016 C 224.396 45.735,223.993 43.443,223.728 41.921 C 223.464 40.400,223.065 38.173,222.842 36.972 C 220.478 24.259,220.460 25.043,223.124 24.767 C 226.475 24.421,227.070 23.309,227.073 17.392 C 227.074 14.016,227.128 13.631,227.667 13.170 C 229.004 12.029,228.268 0.617,226.856 0.589 C 226.656 0.585,226.492 0.451,226.492 0.291 C 226.492 0.099,217.467 0.000,200.000 0.000 C 182.533 0.000,173.508 0.099,173.508 0.291 M182.478 9.366 C 182.347 10.701,181.659 10.801,181.659 9.486 C 181.659 8.734,181.786 8.443,182.115 8.443 C 182.451 8.443,182.546 8.684,182.478 9.366 M194.760 9.661 C 194.760 10.521,194.951 11.083,195.410 11.572 C 196.249 12.464,196.554 16.241,195.836 16.837 C 194.925 17.594,190.265 17.156,190.145 16.303 C 189.972 15.078,190.674 12.614,191.427 11.802 C 191.961 11.225,192.140 10.708,192.140 9.738 L 192.140 8.443 193.450 8.443 L 194.760 8.443 194.760 9.661 M208.734 9.616 C 208.734 10.391,208.882 10.847,209.170 10.957 C 209.410 11.049,209.607 11.266,209.607 11.439 C 209.607 11.612,209.858 12.023,210.165 12.354 C 210.891 13.136,211.485 16.230,211.018 16.793 C 210.764 17.100,209.921 17.175,207.453 17.112 L 204.221 17.031 204.138 14.684 C 204.064 12.630,204.128 12.270,204.647 11.800 C 205.088 11.401,205.240 10.902,205.240 9.853 L 205.240 8.443 206.987 8.443 L 208.734 8.443 208.734 9.616 M182.246 12.377 C 183.056 13.354,182.122 17.176,181.072 17.176 C 180.345 17.176,180.074 16.132,180.302 14.210 C 180.550 12.114,181.379 11.333,182.246 12.377 M195.882 25.131 C 196.330 25.671,196.372 39.843,195.927 40.289 C 195.578 40.637,186.343 40.575,185.969 40.221 C 185.779 40.041,186.253 36.904,187.340 31.150 C 187.597 29.789,187.911 27.967,188.039 27.101 C 188.184 26.113,188.469 25.382,188.805 25.136 C 189.550 24.591,195.430 24.587,195.882 25.131 M212.487 25.255 C 212.962 25.647,213.202 26.402,213.530 28.530 C 213.765 30.051,214.246 32.802,214.599 34.643 C 214.953 36.485,215.251 38.515,215.263 39.156 L 215.284 40.320 210.335 40.471 C 207.613 40.554,205.091 40.525,204.731 40.406 L 204.076 40.189 204.076 32.773 C 204.076 26.017,204.121 25.330,204.585 25.060 C 205.521 24.514,211.779 24.669,212.487 25.255 M196.205 48.889 C 196.602 49.631,196.611 60.163,196.215 60.408 C 195.722 60.712,182.768 60.614,182.457 60.303 C 182.195 60.040,182.524 57.576,183.398 53.275 C 183.544 52.555,183.745 51.344,183.843 50.586 C 184.137 48.329,184.145 48.326,190.404 48.326 C 195.544 48.326,195.924 48.363,196.205 48.889 M216.830 48.697 C 217.151 49.084,218.636 56.769,218.854 59.170 L 218.979 60.553 212.328 60.599 C 204.623 60.653,204.610 60.652,204.311 60.182 C 203.906 59.545,204.026 48.686,204.440 48.519 C 205.313 48.167,216.524 48.328,216.830 48.697 M196.187 68.816 C 196.416 69.092,196.496 70.717,196.441 73.983 L 196.361 78.748 187.838 78.825 C 177.959 78.915,178.791 79.260,179.476 75.356 C 179.738 73.859,180.082 71.853,180.240 70.898 C 180.399 69.943,180.667 68.993,180.838 68.787 C 181.308 68.221,195.716 68.248,196.187 68.816 M221.035 71.179 C 221.316 72.620,221.736 74.753,221.969 75.918 C 222.617 79.165,223.368 78.914,213.286 78.825 L 204.512 78.748 204.259 74.283 C 204.081 71.139,204.101 69.608,204.328 69.110 L 204.650 68.404 212.587 68.481 L 220.524 68.559 221.035 71.179 M196.071 86.864 C 196.695 87.321,197.158 95.826,196.589 96.395 C 196.299 96.685,176.189 96.810,175.902 96.523 C 175.629 96.250,177.212 87.638,177.627 87.138 C 177.866 86.850,179.955 86.744,186.568 86.681 C 191.314 86.636,195.270 86.569,195.359 86.531 C 195.449 86.494,195.769 86.643,196.071 86.864 M223.411 86.846 C 224.228 87.444,225.736 96.296,225.070 96.590 C 224.811 96.704,220.080 96.732,214.556 96.652 L 204.512 96.507 204.512 91.703 L 204.512 86.900 213.537 86.748 C 218.501 86.664,222.635 86.566,222.725 86.529 C 222.814 86.493,223.123 86.635,223.411 86.846 M196.337 104.689 C 197.097 104.981,197.006 110.494,196.235 110.907 C 195.273 111.422,173.956 111.311,173.522 110.789 C 173.151 110.341,173.908 105.635,174.473 104.876 C 174.758 104.493,195.366 104.316,196.337 104.689 M226.732 104.765 C 227.168 105.042,228.103 110.091,227.844 110.767 C 227.583 111.446,205.504 111.430,204.824 110.751 C 204.251 110.177,204.163 105.414,204.716 104.862 C 205.128 104.450,226.089 104.358,226.732 104.765 M163.308 119.055 C 163.762 119.343,163.630 120.668,162.592 126.201 C 162.352 127.482,161.964 129.643,161.730 131.004 C 160.700 136.995,160.457 138.072,160.080 138.311 C 159.583 138.626,156.025 138.647,155.539 138.338 C 155.037 138.019,154.980 119.791,155.479 119.190 C 155.878 118.709,162.578 118.594,163.308 119.055 M196.296 119.141 C 196.798 119.519,197.144 137.486,196.665 138.262 C 196.295 138.861,168.873 138.680,168.641 138.077 C 168.537 137.804,168.691 136.200,168.985 134.511 C 169.279 132.823,169.626 130.786,169.755 129.985 C 169.884 129.185,170.200 127.416,170.456 126.055 C 170.712 124.694,171.094 122.616,171.305 121.437 C 171.516 120.258,171.869 119.179,172.089 119.040 C 172.761 118.614,195.724 118.710,196.296 119.141 M229.563 119.786 C 229.795 120.341,230.106 121.619,230.254 122.625 C 230.402 123.631,231.016 127.140,231.618 130.422 C 232.220 133.705,232.722 136.849,232.732 137.409 L 232.751 138.428 219.102 138.504 C 209.266 138.558,205.341 138.487,205.055 138.250 C 204.511 137.798,204.466 119.668,205.007 119.127 C 205.268 118.866,208.388 118.777,217.249 118.777 L 229.142 118.777 229.563 119.786 M246.878 119.524 C 247.268 120.551,247.252 137.278,246.860 138.010 C 246.597 138.502,246.232 138.574,243.985 138.574 C 240.704 138.574,241.021 138.979,240.000 133.479 C 239.155 128.926,237.555 119.688,237.555 119.362 C 237.555 118.940,238.414 118.846,242.584 118.811 L 246.594 118.777 246.878 119.524 M196.631 146.600 C 197.203 147.171,197.289 151.648,196.739 152.198 C 196.135 152.802,166.347 152.691,166.114 152.084 C 165.800 151.265,166.557 147.317,167.184 146.507 C 167.657 145.896,196.017 145.986,196.631 146.600 M234.019 146.401 C 234.565 146.748,235.541 151.706,235.156 152.183 C 234.740 152.701,205.524 152.715,205.007 152.198 C 204.573 151.763,204.536 147.498,204.959 146.706 C 205.285 146.097,233.079 145.806,234.019 146.401 M196.804 160.699 C 197.226 161.367,197.168 171.565,196.739 171.994 C 196.187 172.547,163.223 172.493,162.764 171.939 C 162.405 171.507,162.491 170.505,163.204 166.812 C 163.436 165.611,163.762 163.908,163.929 163.028 C 164.376 160.674,164.462 160.458,165.006 160.311 C 166.493 159.908,196.536 160.275,196.804 160.699 M236.503 160.493 C 237.464 161.196,239.139 171.606,238.370 172.095 C 237.898 172.394,205.804 172.416,205.335 172.117 C 205.097 171.966,204.980 170.309,204.948 166.663 C 204.890 160.072,204.858 160.474,205.459 160.317 C 206.822 159.961,236.001 160.126,236.503 160.493 M196.912 180.373 C 197.198 181.119,197.114 188.887,196.818 189.070 C 196.368 189.349,159.739 189.259,159.459 188.979 C 159.309 188.828,159.318 188.249,159.482 187.592 C 159.637 186.971,159.995 185.153,160.278 183.552 C 160.560 181.951,160.917 180.477,161.072 180.277 C 161.547 179.660,196.675 179.755,196.912 180.373 M240.227 180.422 C 240.466 180.702,240.817 181.914,241.009 183.115 C 241.200 184.316,241.489 186.073,241.650 187.019 C 241.812 187.966,241.833 188.851,241.698 188.986 C 241.562 189.122,233.271 189.199,223.273 189.158 L 205.095 189.083 205.013 184.875 C 204.969 182.561,204.997 180.497,205.077 180.290 C 205.334 179.620,239.654 179.749,240.227 180.422 M196.927 197.354 C 197.289 197.939,197.418 207.900,197.070 208.320 C 196.277 209.276,155.287 208.844,155.879 207.886 C 155.960 207.756,156.218 206.485,156.454 205.062 C 157.436 199.127,157.776 197.567,158.136 197.338 C 158.662 197.004,196.721 197.020,196.927 197.354 M243.323 197.598 C 243.985 198.905,245.465 207.886,245.092 208.335 C 244.672 208.841,206.453 208.936,205.512 208.432 C 204.941 208.127,204.600 197.826,205.143 197.283 C 205.661 196.765,243.058 197.074,243.323 197.598 M197.079 216.866 C 197.613 217.865,197.472 227.559,196.919 227.771 C 195.854 228.180,152.826 227.964,152.667 227.549 C 152.583 227.330,152.724 225.987,152.979 224.565 C 153.235 223.143,153.627 220.890,153.851 219.558 C 154.074 218.225,154.412 216.948,154.602 216.719 C 155.226 215.967,196.674 216.110,197.079 216.866 M246.505 216.542 C 246.873 216.776,247.109 217.722,247.898 222.125 C 248.142 223.486,248.457 225.189,248.599 225.910 C 248.768 226.763,248.752 227.347,248.556 227.584 C 248.181 228.036,206.244 228.113,205.531 227.663 C 204.835 227.223,204.698 217.469,205.379 216.788 C 205.905 216.262,245.689 216.023,246.505 216.542 M197.488 236.463 C 197.979 238.295,197.682 245.971,197.108 246.278 C 196.040 246.850,149.656 246.680,149.435 246.104 C 149.335 245.842,149.408 244.696,149.599 243.556 C 150.430 238.581,150.549 237.934,150.824 236.900 L 151.114 235.808 174.213 235.808 L 197.312 235.808 197.488 236.463 M250.517 236.900 C 250.731 238.200,251.069 240.043,251.694 243.320 C 252.055 245.210,252.079 245.830,251.806 246.159 C 251.333 246.729,206.158 246.799,205.590 246.230 C 205.213 245.853,205.069 236.367,205.434 236.002 C 205.541 235.895,215.688 235.808,227.983 235.808 L 250.338 235.808 250.517 236.900 M197.214 254.606 C 198.060 255.452,197.880 266.252,197.016 266.483 C 195.885 266.786,146.735 266.692,146.162 266.386 C 145.604 266.087,145.630 265.784,146.709 259.898 C 146.878 258.977,147.145 257.471,147.303 256.550 C 147.470 255.580,147.799 254.723,148.087 254.512 C 148.922 253.899,196.598 253.990,197.214 254.606 M253.312 254.629 C 253.532 254.893,253.855 255.908,254.029 256.885 C 254.204 257.862,254.650 260.333,255.020 262.377 C 255.390 264.420,255.597 266.189,255.479 266.307 C 255.196 266.589,206.358 266.727,205.925 266.447 C 205.378 266.092,205.206 255.097,205.740 254.564 C 206.420 253.884,252.745 253.947,253.312 254.629 " stroke="none" fill="#e9e35b" fill-rule="evenodd"></path><path id="path1" d="M187.357 31.150 C 187.291 31.390,187.019 32.831,186.753 34.352 C 186.486 35.873,186.145 37.763,185.994 38.551 C 185.719 39.988,186.059 41.052,186.548 40.281 C 186.681 40.072,188.410 39.917,191.412 39.847 C 196.921 39.718,196.405 40.293,196.272 34.429 L 196.183 30.509 191.831 30.611 C 188.270 30.695,187.457 30.793,187.357 31.150 M204.076 35.200 L 204.076 39.884 208.588 39.884 C 211.573 39.884,213.100 39.988,213.100 40.192 C 213.100 40.371,213.560 40.463,214.192 40.411 C 215.542 40.299,215.576 39.789,214.592 34.507 C 213.818 30.351,214.742 30.970,208.952 30.723 L 204.076 30.516 204.076 35.200 M178.748 31.350 C 178.508 31.391,176.674 31.561,174.672 31.728 C 162.219 32.762,151.560 34.485,136.827 37.844 C 134.776 38.311,129.630 39.669,127.220 40.379 C 125.859 40.780,124.352 41.207,123.872 41.329 C 121.219 42.003,108.112 46.546,104.949 47.887 C 104.469 48.091,102.927 48.737,101.523 49.323 C 78.620 58.877,60.226 71.265,44.810 87.516 C 35.786 97.028,27.549 110.808,23.770 122.709 C 21.118 131.061,20.233 136.999,20.233 146.434 C 20.233 194.611,64.461 236.244,134.804 254.280 L 139.623 255.516 140.296 251.703 C 140.667 249.605,141.036 247.529,141.118 247.089 C 141.235 246.459,141.156 246.288,140.746 246.288 C 140.460 246.288,139.559 246.097,138.745 245.863 C 137.930 245.630,135.429 244.967,133.188 244.391 C 130.946 243.814,128.719 243.220,128.239 243.071 C 119.267 240.278,117.970 239.844,112.664 237.858 C 44.691 212.425,13.443 161.488,37.022 114.556 C 45.946 96.795,63.925 79.229,85.126 67.557 C 86.071 67.036,87.578 66.208,88.473 65.717 C 91.759 63.914,97.398 61.156,102.911 58.655 C 103.392 58.437,105.488 57.585,107.569 56.762 C 109.651 55.939,111.616 55.159,111.936 55.028 C 114.722 53.894,124.109 50.761,127.656 49.781 C 128.937 49.427,130.313 49.025,130.713 48.887 C 131.782 48.519,137.695 47.042,141.048 46.306 C 142.649 45.954,144.418 45.551,144.978 45.409 C 147.392 44.799,154.119 43.578,159.971 42.687 C 162.581 42.290,165.289 41.941,172.780 41.037 C 174.061 40.883,175.669 40.756,176.354 40.757 C 177.876 40.757,177.857 40.797,178.731 35.588 C 179.422 31.466,179.423 31.233,178.748 31.350 M221.960 32.193 C 222.066 32.617,222.219 33.375,222.299 33.877 C 222.454 34.839,223.247 39.273,223.468 40.405 C 223.539 40.772,223.727 40.992,223.885 40.895 C 224.654 40.419,244.417 43.206,252.111 44.875 C 253.632 45.205,255.400 45.576,256.041 45.699 C 257.986 46.074,265.931 48.008,267.887 48.584 C 268.897 48.881,270.771 49.417,272.052 49.774 C 307.422 59.645,339.917 80.415,356.009 103.438 C 359.882 108.978,364.460 117.359,365.662 121.106 C 365.790 121.507,366.170 122.555,366.505 123.435 C 367.519 126.097,368.874 131.239,369.536 134.934 C 377.123 177.305,340.297 220.851,280.495 240.221 C 277.570 241.169,272.727 242.692,271.033 243.197 C 267.781 244.167,260.416 245.947,260.201 245.814 C 259.956 245.663,259.996 245.998,260.718 250.218 C 261.559 255.133,261.630 255.338,262.381 255.014 C 262.737 254.860,264.862 254.262,267.103 253.685 C 272.470 252.303,272.507 252.293,275.546 251.400 C 297.102 245.070,318.158 235.014,334.061 223.454 C 338.970 219.887,340.683 218.510,346.577 213.398 C 369.992 193.092,382.470 163.780,379.111 136.972 C 378.734 133.958,378.614 133.311,377.572 128.675 C 370.748 98.297,342.431 68.813,303.639 51.696 C 302.598 51.237,300.475 50.301,298.920 49.617 C 293.746 47.340,280.004 42.421,275.546 41.249 C 275.226 41.165,273.981 40.812,272.780 40.464 C 270.214 39.722,264.341 38.173,262.882 37.853 C 262.322 37.730,261.274 37.485,260.553 37.309 C 257.848 36.645,252.174 35.452,249.927 35.075 C 239.855 33.382,235.718 32.768,232.314 32.462 C 231.274 32.368,229.571 32.173,228.530 32.029 C 227.489 31.885,225.541 31.689,224.202 31.594 L 221.766 31.422 221.960 32.193 M148.071 254.523 C 147.790 254.728,147.489 255.423,147.403 256.067 L 147.246 257.237 149.678 257.580 C 151.016 257.768,153.290 258.120,154.731 258.362 C 167.412 260.489,177.743 261.489,191.922 261.962 L 197.672 262.154 197.671 258.609 C 197.671 255.774,197.579 254.972,197.214 254.606 C 196.589 253.981,148.922 253.900,148.071 254.523 M205.723 254.580 C 205.382 254.922,205.315 255.637,205.403 258.001 C 205.464 259.645,205.518 261.238,205.523 261.542 C 205.538 262.535,224.175 261.389,236.536 259.635 C 245.032 258.430,252.028 257.285,253.348 256.884 C 254.031 256.677,254.016 255.256,253.325 254.630 C 252.555 253.933,206.419 253.885,205.723 254.580 " stroke="none" fill="#7bc3f0" fill-rule="evenodd"></path><path id="path2" d="M191.353 11.839 C 190.656 12.645,189.981 15.139,190.145 16.303 C 190.265 17.156,194.925 17.594,195.836 16.837 C 196.493 16.292,196.254 12.492,195.511 11.671 C 194.667 10.738,192.221 10.837,191.353 11.839 M204.696 11.750 C 204.123 12.360,204.059 12.696,204.136 14.734 L 204.221 17.031 207.453 17.112 C 209.921 17.175,210.764 17.100,211.018 16.793 C 211.485 16.230,210.891 13.136,210.165 12.354 C 209.858 12.023,209.607 11.598,209.607 11.408 C 209.607 10.681,205.427 10.972,204.696 11.750 M180.812 12.342 C 180.383 12.859,180.070 15.439,180.317 16.424 C 180.543 17.325,181.496 17.443,181.934 16.624 C 183.147 14.359,182.185 10.687,180.812 12.342 M164.601 13.145 C 164.464 13.368,164.522 13.402,164.774 13.246 C 165.011 13.100,165.085 13.125,164.969 13.313 C 164.860 13.488,163.407 13.633,161.503 13.658 C 159.001 13.692,158.148 13.803,157.901 14.129 C 157.666 14.439,156.966 14.556,155.345 14.556 C 153.628 14.556,153.073 14.657,152.944 14.993 C 152.814 15.330,152.252 15.429,150.478 15.429 C 148.630 15.429,148.180 15.515,148.180 15.866 C 148.180 16.223,147.681 16.303,145.436 16.303 C 143.384 16.303,142.581 16.413,142.254 16.739 C 141.970 17.023,141.249 17.176,140.195 17.176 C 138.948 17.176,138.574 17.277,138.574 17.613 C 138.574 17.952,138.185 18.049,136.827 18.049 C 135.468 18.049,135.080 18.147,135.080 18.486 C 135.080 18.826,134.692 18.923,133.333 18.923 C 131.975 18.923,131.587 19.020,131.587 19.360 C 131.587 19.709,131.150 19.796,129.403 19.796 C 127.656 19.796,127.220 19.884,127.220 20.233 C 127.220 20.557,126.879 20.670,125.901 20.670 C 124.997 20.670,124.529 20.807,124.414 21.106 C 124.293 21.420,123.802 21.543,122.667 21.543 C 121.532 21.543,121.041 21.666,120.920 21.980 C 120.811 22.265,120.357 22.416,119.610 22.416 C 118.863 22.416,118.410 22.567,118.300 22.853 C 118.180 23.167,117.689 23.290,116.554 23.290 C 115.418 23.290,114.927 23.412,114.807 23.726 C 114.698 24.010,114.246 24.163,113.520 24.163 C 112.860 24.163,112.306 24.332,112.169 24.574 C 112.041 24.801,111.543 25.030,111.063 25.084 C 110.557 25.141,110.220 25.335,110.262 25.546 C 110.302 25.746,110.237 25.894,110.116 25.875 C 109.044 25.706,107.715 25.967,107.715 26.346 C 107.715 26.682,107.342 26.783,106.104 26.783 C 104.942 26.783,104.448 26.904,104.327 27.220 C 104.231 27.469,103.797 27.656,103.317 27.656 C 102.762 27.656,102.475 27.806,102.475 28.093 C 102.475 28.400,102.165 28.530,101.438 28.530 C 100.830 28.530,100.476 28.649,100.580 28.818 C 100.682 28.983,100.565 29.031,100.306 28.932 C 100.058 28.837,99.854 28.904,99.854 29.081 C 99.854 29.258,99.461 29.403,98.981 29.403 C 98.399 29.403,98.108 29.549,98.108 29.840 C 98.108 30.163,97.768 30.277,96.798 30.277 C 95.827 30.277,95.488 30.390,95.488 30.713 C 95.488 31.004,95.197 31.150,94.614 31.150 C 94.032 31.150,93.741 31.295,93.741 31.587 C 93.741 31.878,93.450 32.023,92.868 32.023 C 92.285 32.023,91.994 32.169,91.994 32.460 C 91.994 32.776,91.670 32.897,90.821 32.897 C 90.046 32.897,89.590 33.045,89.479 33.333 C 89.384 33.582,88.950 33.770,88.470 33.770 C 87.915 33.770,87.627 33.919,87.627 34.207 C 87.627 34.494,87.340 34.643,86.785 34.643 C 86.305 34.643,85.871 34.831,85.775 35.080 C 85.683 35.320,85.272 35.517,84.862 35.517 C 84.451 35.517,84.040 35.713,83.948 35.953 C 83.856 36.194,83.483 36.390,83.119 36.390 C 82.756 36.390,82.307 36.573,82.121 36.796 C 81.936 37.020,81.330 37.288,80.776 37.392 C 80.221 37.496,79.767 37.691,79.767 37.825 C 79.767 37.959,79.505 38.137,79.185 38.221 C 78.865 38.305,78.603 38.585,78.603 38.843 C 78.603 39.198,78.426 39.268,77.878 39.130 C 77.369 39.003,77.101 39.083,76.980 39.398 C 76.885 39.646,76.425 39.932,75.958 40.034 C 75.491 40.137,75.109 40.407,75.109 40.634 C 75.109 40.900,74.796 41.048,74.236 41.048 C 73.654 41.048,73.362 41.194,73.362 41.485 C 73.362 41.776,73.071 41.921,72.489 41.921 C 71.907 41.921,71.616 42.067,71.616 42.358 C 71.616 42.649,71.325 42.795,70.742 42.795 C 70.160 42.795,69.869 42.940,69.869 43.231 C 69.869 43.472,69.668 43.668,69.423 43.668 C 69.178 43.668,68.902 43.865,68.810 44.105 C 68.718 44.345,68.329 44.541,67.946 44.541 C 67.520 44.541,67.249 44.712,67.249 44.978 C 67.249 45.269,66.958 45.415,66.376 45.415 C 65.793 45.415,65.502 45.560,65.502 45.852 C 65.502 46.092,65.302 46.288,65.056 46.288 C 64.811 46.288,64.535 46.485,64.443 46.725 C 64.351 46.965,63.962 47.162,63.579 47.162 C 63.154 47.162,62.882 47.332,62.882 47.598 C 62.882 47.889,62.591 48.035,62.009 48.035 C 61.426 48.035,61.135 48.180,61.135 48.472 C 61.135 48.712,60.939 48.908,60.699 48.908 C 60.459 48.908,60.262 49.105,60.262 49.345 C 60.262 49.636,59.971 49.782,59.389 49.782 C 58.806 49.782,58.515 49.927,58.515 50.218 C 58.515 50.459,58.319 50.655,58.079 50.655 C 57.838 50.655,57.642 50.852,57.642 51.092 C 57.642 51.383,57.351 51.528,56.769 51.528 C 56.186 51.528,55.895 51.674,55.895 51.965 C 55.895 52.205,55.699 52.402,55.459 52.402 C 55.218 52.402,55.022 52.598,55.022 52.838 C 55.022 53.079,54.776 53.275,54.475 53.275 C 54.175 53.275,53.766 53.472,53.566 53.712 C 53.367 53.952,53.023 54.148,52.803 54.148 C 52.582 54.148,52.402 54.345,52.402 54.585 C 52.402 54.825,52.205 55.022,51.965 55.022 C 51.725 55.022,51.528 55.218,51.528 55.459 C 51.528 55.750,51.237 55.895,50.655 55.895 C 50.073 55.895,49.782 56.041,49.782 56.332 C 49.782 56.572,49.585 56.769,49.345 56.769 C 49.105 56.769,48.908 56.965,48.908 57.205 C 48.908 57.445,48.712 57.642,48.472 57.642 C 48.231 57.642,48.035 57.838,48.035 58.079 C 48.035 58.345,47.763 58.515,47.338 58.515 C 46.955 58.515,46.566 58.712,46.474 58.952 C 46.382 59.192,46.106 59.389,45.861 59.389 C 45.615 59.389,45.415 59.585,45.415 59.825 C 45.415 60.066,45.218 60.262,44.978 60.262 C 44.738 60.262,44.541 60.459,44.541 60.699 C 44.541 60.939,44.345 61.135,44.105 61.135 C 43.865 61.135,43.668 61.270,43.668 61.434 C 43.668 61.598,43.333 61.860,42.923 62.015 C 42.513 62.171,42.261 62.433,42.362 62.598 C 42.464 62.762,42.439 62.878,42.307 62.855 C 41.596 62.731,41.048 62.933,41.048 63.319 C 41.048 63.559,40.913 63.755,40.748 63.755 C 40.583 63.755,39.659 64.541,38.696 65.502 C 37.732 66.463,36.819 67.249,36.667 67.249 C 36.515 67.249,36.390 67.445,36.390 67.686 C 36.390 67.926,36.194 68.122,35.953 68.122 C 35.713 68.122,35.517 68.319,35.517 68.559 C 35.517 68.799,35.320 68.996,35.080 68.996 C 34.840 68.996,34.643 69.192,34.643 69.432 C 34.643 69.672,34.447 69.869,34.207 69.869 C 33.967 69.869,33.770 70.066,33.770 70.306 C 33.770 70.546,33.574 70.742,33.333 70.742 C 33.093 70.742,32.897 70.939,32.897 71.179 C 32.897 71.419,32.700 71.616,32.460 71.616 C 32.220 71.616,32.023 71.812,32.023 72.052 C 32.023 72.293,31.827 72.489,31.587 72.489 C 31.346 72.489,31.150 72.686,31.150 72.926 C 31.150 73.166,30.953 73.362,30.713 73.362 C 30.473 73.362,30.277 73.559,30.277 73.799 C 30.277 74.039,30.080 74.236,29.840 74.236 C 29.600 74.236,29.403 74.360,29.403 74.513 C 29.403 74.665,28.617 75.578,27.656 76.541 C 26.696 77.505,25.910 78.370,25.910 78.464 C 25.910 78.558,25.517 79.053,25.038 79.565 C 24.558 80.076,24.165 80.645,24.164 80.828 C 24.164 81.011,23.967 81.236,23.726 81.328 C 23.486 81.420,23.290 81.696,23.290 81.941 C 23.290 82.187,23.093 82.387,22.853 82.387 C 22.613 82.387,22.416 82.584,22.416 82.824 C 22.416 83.064,22.220 83.261,21.980 83.261 C 21.739 83.261,21.543 83.401,21.543 83.572 C 21.543 83.744,21.346 84.081,21.106 84.321 C 20.866 84.561,20.670 85.010,20.670 85.319 C 20.670 85.628,20.473 85.881,20.233 85.881 C 19.993 85.881,19.796 86.077,19.796 86.317 C 19.796 86.557,19.632 86.755,19.432 86.756 C 19.232 86.758,18.917 87.085,18.732 87.484 C 18.477 88.034,18.477 88.170,18.732 88.043 C 18.917 87.951,18.839 88.063,18.559 88.293 C 18.279 88.523,18.049 88.860,18.049 89.042 C 18.049 89.225,17.853 89.374,17.613 89.374 C 17.373 89.374,17.176 89.620,17.176 89.921 C 17.176 90.221,16.980 90.630,16.739 90.830 C 16.499 91.029,16.303 91.373,16.303 91.593 C 16.303 91.814,16.106 91.994,15.866 91.994 C 15.626 91.994,15.429 92.177,15.429 92.400 C 15.429 92.623,15.233 92.881,14.993 92.973 C 14.753 93.065,14.556 93.472,14.556 93.877 C 14.556 94.338,14.393 94.614,14.119 94.614 C 13.828 94.614,13.683 94.905,13.683 95.488 C 13.683 96.070,13.537 96.361,13.246 96.361 C 12.979 96.361,12.809 96.632,12.809 97.058 C 12.809 97.441,12.613 97.830,12.373 97.922 C 12.132 98.014,11.936 98.290,11.936 98.535 C 11.936 98.780,11.739 98.981,11.499 98.981 C 11.208 98.981,11.063 99.272,11.063 99.854 C 11.063 100.437,10.917 100.728,10.626 100.728 C 10.335 100.728,10.189 101.019,10.189 101.601 C 10.189 102.183,10.044 102.475,9.753 102.475 C 9.461 102.475,9.316 102.766,9.316 103.348 C 9.316 103.930,9.170 104.221,8.879 104.221 C 8.588 104.221,8.443 104.512,8.443 105.095 C 8.443 105.677,8.297 105.968,8.006 105.968 C 7.718 105.968,7.569 106.256,7.569 106.810 C 7.569 107.290,7.381 107.724,7.132 107.820 C 6.844 107.931,6.696 108.387,6.696 109.161 C 6.696 110.010,6.575 110.335,6.259 110.335 C 5.972 110.335,5.822 110.622,5.822 111.177 C 5.822 111.657,5.635 112.091,5.386 112.187 C 5.100 112.296,4.949 112.750,4.949 113.497 C 4.949 114.244,4.798 114.697,4.512 114.807 C 4.227 114.916,4.076 115.370,4.076 116.117 C 4.076 116.864,3.925 117.317,3.639 117.427 C 3.369 117.531,3.202 117.973,3.202 118.587 C 3.202 119.133,3.006 119.742,2.766 119.942 C 2.468 120.189,2.329 120.849,2.329 122.015 C 2.329 123.342,2.231 123.726,1.892 123.726 C 1.553 123.726,1.456 124.115,1.456 125.473 C 1.456 126.832,1.359 127.220,1.019 127.220 C 0.667 127.220,0.582 127.673,0.582 129.549 C 0.582 130.907,0.461 131.878,0.291 131.878 C 0.101 131.878,0.000 136.924,0.000 146.434 C 0.000 155.944,0.101 160.990,0.291 160.990 C 0.461 160.990,0.582 161.960,0.582 163.319 C 0.582 165.195,0.667 165.648,1.019 165.648 C 1.359 165.648,1.456 166.036,1.456 167.394 C 1.456 168.753,1.553 169.141,1.892 169.141 C 2.231 169.141,2.329 169.525,2.329 170.852 C 2.329 172.018,2.468 172.679,2.766 172.926 C 3.033 173.148,3.202 173.786,3.202 174.572 C 3.202 175.444,3.342 175.909,3.639 176.023 C 3.908 176.126,4.076 176.569,4.076 177.178 C 4.076 177.862,4.210 178.166,4.512 178.166 C 4.828 178.166,4.949 178.490,4.949 179.340 C 4.949 180.114,5.097 180.570,5.386 180.681 C 5.635 180.776,5.822 181.210,5.822 181.691 C 5.822 182.245,5.972 182.533,6.259 182.533 C 6.583 182.533,6.696 182.872,6.696 183.843 C 6.696 184.813,6.809 185.153,7.132 185.153 C 7.424 185.153,7.569 185.444,7.569 186.026 C 7.569 186.608,7.715 186.900,8.006 186.900 C 8.297 186.900,8.443 187.191,8.443 187.773 C 8.443 188.355,8.588 188.646,8.879 188.646 C 9.170 188.646,9.316 188.937,9.316 189.520 C 9.316 190.102,9.461 190.393,9.753 190.393 C 10.044 190.393,10.189 190.684,10.189 191.266 C 10.189 191.849,10.335 192.140,10.626 192.140 C 10.917 192.140,11.063 192.431,11.063 193.013 C 11.063 193.595,11.208 193.886,11.499 193.886 C 11.739 193.886,11.936 194.067,11.936 194.287 C 11.936 194.508,12.132 194.852,12.373 195.051 C 12.613 195.250,12.809 195.659,12.809 195.960 C 12.809 196.261,13.006 196.507,13.246 196.507 C 13.537 196.507,13.683 196.798,13.683 197.380 C 13.683 197.962,13.828 198.253,14.119 198.253 C 14.410 198.253,14.556 198.544,14.556 199.127 C 14.556 199.709,14.702 200.000,14.993 200.000 C 15.233 200.000,15.429 200.197,15.429 200.437 C 15.429 200.677,15.626 200.873,15.866 200.873 C 16.139 200.873,16.303 201.149,16.303 201.610 C 16.303 202.016,16.499 202.423,16.739 202.515 C 16.980 202.607,17.176 202.865,17.176 203.088 C 17.176 203.311,17.373 203.493,17.613 203.493 C 17.853 203.493,18.049 203.739,18.049 204.040 C 18.049 204.341,18.246 204.750,18.486 204.949 C 18.726 205.148,18.923 205.492,18.923 205.713 C 18.923 205.933,19.119 206.114,19.360 206.114 C 19.600 206.114,19.796 206.310,19.796 206.550 C 19.796 206.790,19.993 206.987,20.233 206.987 C 20.473 206.987,20.670 207.167,20.670 207.388 C 20.670 207.609,20.866 207.952,21.106 208.151 C 21.346 208.351,21.543 208.760,21.543 209.060 C 21.543 209.361,21.739 209.607,21.980 209.607 C 22.220 209.607,22.416 209.774,22.416 209.979 C 22.416 210.183,22.792 210.680,23.251 211.083 C 23.710 211.486,24.177 212.105,24.289 212.458 C 24.402 212.811,24.616 213.100,24.765 213.100 C 24.914 213.100,25.036 213.235,25.036 213.399 C 25.036 213.564,25.626 214.288,26.346 215.008 C 27.067 215.729,27.656 216.446,27.656 216.602 C 27.656 216.757,27.853 216.885,28.093 216.885 C 28.333 216.885,28.530 217.082,28.530 217.322 C 28.530 217.562,28.726 217.758,28.967 217.758 C 29.207 217.758,29.403 217.955,29.403 218.195 C 29.403 218.435,29.600 218.632,29.840 218.632 C 30.080 218.632,30.277 218.828,30.277 219.068 C 30.277 219.309,30.473 219.505,30.713 219.505 C 30.953 219.505,31.150 219.702,31.150 219.942 C 31.150 220.182,31.346 220.378,31.587 220.378 C 31.827 220.378,32.023 220.509,32.023 220.670 C 32.023 221.047,33.101 222.125,33.479 222.125 C 33.639 222.125,33.770 222.322,33.770 222.562 C 33.770 222.802,33.967 222.999,34.207 222.999 C 34.447 222.999,34.643 223.195,34.643 223.435 C 34.643 223.675,34.840 223.872,35.080 223.872 C 35.320 223.872,35.517 224.068,35.517 224.309 C 35.517 224.549,35.713 224.745,35.953 224.745 C 36.194 224.745,36.390 224.942,36.390 225.182 C 36.390 225.422,36.587 225.619,36.827 225.619 C 37.067 225.619,37.263 225.815,37.263 226.055 C 37.263 226.295,37.391 226.492,37.547 226.492 C 37.703 226.492,38.420 227.082,39.140 227.802 C 39.861 228.523,40.585 229.112,40.749 229.112 C 40.914 229.112,41.048 229.309,41.048 229.549 C 41.048 229.789,41.231 229.985,41.454 229.985 C 41.677 229.985,41.935 230.182,42.027 230.422 C 42.119 230.662,42.464 230.859,42.795 230.859 C 43.125 230.859,43.471 231.055,43.563 231.295 C 43.655 231.536,43.913 231.732,44.136 231.732 C 44.359 231.732,44.541 231.929,44.541 232.169 C 44.541 232.409,44.738 232.606,44.978 232.606 C 45.218 232.606,45.415 232.802,45.415 233.042 C 45.415 233.282,45.611 233.479,45.852 233.479 C 46.092 233.479,46.288 233.675,46.288 233.916 C 46.288 234.207,46.579 234.352,47.162 234.352 C 47.744 234.352,48.035 234.498,48.035 234.789 C 48.035 235.029,48.231 235.226,48.472 235.226 C 48.712 235.226,48.908 235.422,48.908 235.662 C 48.908 235.902,49.105 236.099,49.345 236.099 C 49.585 236.099,49.782 236.295,49.782 236.536 C 49.782 236.827,50.073 236.972,50.655 236.972 C 51.237 236.972,51.528 237.118,51.528 237.409 C 51.528 237.649,51.725 237.846,51.965 237.846 C 52.205 237.846,52.402 238.042,52.402 238.282 C 52.402 238.523,52.598 238.719,52.838 238.719 C 53.079 238.719,53.275 238.916,53.275 239.156 C 53.275 239.447,53.566 239.592,54.148 239.592 C 54.731 239.592,55.022 239.738,55.022 240.029 C 55.022 240.269,55.218 240.466,55.459 240.466 C 55.699 240.466,55.895 240.662,55.895 240.902 C 55.895 241.194,56.186 241.339,56.769 241.339 C 57.351 241.339,57.642 241.485,57.642 241.776 C 57.642 242.016,57.838 242.213,58.079 242.213 C 58.319 242.213,58.515 242.409,58.515 242.649 C 58.515 242.940,58.806 243.086,59.389 243.086 C 59.938 243.086,60.262 243.235,60.262 243.489 C 60.262 243.710,60.537 243.963,60.874 244.051 C 61.210 244.139,61.399 244.351,61.293 244.522 C 61.173 244.716,61.435 244.833,61.992 244.833 C 62.589 244.833,62.882 244.976,62.882 245.269 C 62.882 245.509,63.079 245.706,63.319 245.706 C 63.559 245.706,63.755 245.902,63.755 246.143 C 63.755 246.434,64.047 246.579,64.629 246.579 C 65.211 246.579,65.502 246.725,65.502 247.016 C 65.502 247.307,65.793 247.453,66.376 247.453 C 66.958 247.453,67.249 247.598,67.249 247.889 C 67.249 248.130,67.445 248.326,67.686 248.326 C 67.926 248.326,68.122 248.523,68.122 248.763 C 68.122 249.054,68.413 249.199,68.996 249.199 C 69.578 249.199,69.869 249.345,69.869 249.636 C 69.869 249.927,70.160 250.073,70.742 250.073 C 71.303 250.073,71.616 250.221,71.616 250.486 C 71.616 250.714,71.998 250.984,72.465 251.086 C 72.932 251.189,73.392 251.476,73.487 251.725 C 73.603 252.025,73.904 252.131,74.385 252.039 C 74.851 251.950,75.109 252.033,75.109 252.273 C 75.109 252.715,76.866 253.857,77.545 253.857 C 77.807 253.857,78.020 253.974,78.020 254.117 C 78.020 254.260,78.364 254.463,78.783 254.568 C 79.203 254.673,79.736 254.949,79.969 255.182 C 80.201 255.414,80.644 255.604,80.952 255.604 C 81.261 255.604,81.514 255.733,81.514 255.890 C 81.514 256.047,81.873 256.265,82.312 256.375 C 82.750 256.486,83.284 256.750,83.497 256.963 C 83.710 257.176,84.186 257.351,84.556 257.351 C 84.925 257.351,85.390 257.547,85.590 257.787 C 85.789 258.028,86.329 258.224,86.790 258.224 C 87.340 258.224,87.627 258.374,87.627 258.661 C 87.627 258.952,87.918 259.098,88.501 259.098 C 89.083 259.098,89.374 259.243,89.374 259.534 C 89.374 259.825,89.665 259.971,90.247 259.971 C 90.830 259.971,91.121 260.116,91.121 260.408 C 91.121 260.731,91.460 260.844,92.431 260.844 C 93.401 260.844,93.741 260.957,93.741 261.281 C 93.741 261.572,94.032 261.718,94.614 261.718 C 95.197 261.718,95.488 261.863,95.488 262.154 C 95.488 262.442,95.775 262.591,96.330 262.591 C 96.810 262.591,97.244 262.779,97.340 263.028 C 97.450 263.316,97.906 263.464,98.681 263.464 C 99.530 263.464,99.854 263.585,99.854 263.901 C 99.854 264.224,100.194 264.338,101.164 264.338 C 102.135 264.338,102.475 264.451,102.475 264.774 C 102.475 265.049,102.752 265.211,103.223 265.211 C 103.635 265.211,104.168 265.408,104.408 265.648 C 104.649 265.888,105.294 266.084,105.843 266.084 C 106.536 266.084,106.841 266.218,106.841 266.521 C 106.841 266.845,107.181 266.958,108.151 266.958 C 109.122 266.958,109.461 267.071,109.461 267.394 C 109.461 267.716,109.798 267.831,110.740 267.831 C 111.609 267.831,112.073 267.971,112.187 268.268 C 112.296 268.553,112.750 268.705,113.497 268.705 C 114.244 268.705,114.697 268.856,114.807 269.141 C 114.916 269.427,115.370 269.578,116.117 269.578 C 116.864 269.578,117.317 269.729,117.427 270.015 C 117.541 270.312,118.006 270.451,118.883 270.451 C 119.759 270.451,120.224 270.591,120.338 270.888 C 120.463 271.213,120.982 271.325,122.376 271.325 C 123.770 271.325,124.289 271.436,124.414 271.761 C 124.529 272.061,124.997 272.198,125.901 272.198 C 126.879 272.198,127.220 272.311,127.220 272.635 C 127.220 272.974,127.608 273.071,128.967 273.071 C 130.325 273.071,130.713 273.168,130.713 273.508 C 130.713 273.848,131.101 273.945,132.460 273.945 C 133.819 273.945,134.207 274.042,134.207 274.381 C 134.207 275.095,134.976 274.880,135.761 273.948 C 136.493 273.077,136.617 272.615,137.545 267.249 C 138.288 262.956,138.876 259.666,139.174 258.137 C 139.717 255.355,139.974 255.589,135.007 254.337 C 55.026 234.167,8.819 182.043,22.450 127.365 C 30.347 95.691,59.611 66.808,101.523 49.323 C 102.927 48.737,104.469 48.091,104.949 47.887 C 108.112 46.546,121.219 42.003,123.872 41.329 C 124.352 41.207,125.859 40.780,127.220 40.379 C 129.630 39.669,134.776 38.311,136.827 37.844 C 151.685 34.456,162.413 32.729,174.964 31.706 C 179.546 31.332,179.432 31.408,179.978 28.362 C 180.598 24.906,180.487 24.745,177.487 24.745 C 173.385 24.745,172.635 23.692,172.635 17.932 C 172.635 12.571,172.830 12.809,168.438 12.809 C 166.009 12.809,164.740 12.920,164.601 13.145 M227.532 13.267 C 227.164 13.634,227.074 14.450,227.073 17.415 C 227.070 23.307,226.472 24.421,223.124 24.767 C 220.689 25.019,220.777 24.848,221.334 28.280 C 221.910 31.831,221.411 31.388,225.207 31.721 C 233.684 32.465,237.370 32.965,249.927 35.075 C 252.174 35.452,257.848 36.645,260.553 37.309 C 261.274 37.485,262.322 37.730,262.882 37.853 C 264.341 38.173,270.214 39.722,272.780 40.464 C 273.981 40.812,275.226 41.165,275.546 41.249 C 280.004 42.421,293.746 47.340,298.920 49.617 C 300.475 50.301,302.598 51.237,303.639 51.696 C 342.431 68.813,370.748 98.297,377.572 128.675 C 378.614 133.311,378.734 133.958,379.111 136.972 C 382.470 163.780,369.992 193.092,346.577 213.398 C 342.600 216.847,341.118 218.095,339.301 219.524 C 325.906 230.059,310.921 238.412,292.575 245.570 C 286.882 247.791,276.952 251.097,272.052 252.403 C 271.572 252.531,269.345 253.108,267.103 253.685 C 260.891 255.285,261.456 254.499,262.476 260.116 C 262.708 261.397,263.109 263.624,263.367 265.066 C 264.507 271.446,264.923 273.227,265.348 273.537 C 265.593 273.717,265.793 274.039,265.793 274.253 C 265.793 274.557,265.871 274.566,266.143 274.294 C 266.335 274.102,267.121 273.945,267.889 273.945 C 268.937 273.945,269.287 273.836,269.287 273.508 C 269.287 273.111,270.978 272.863,272.416 273.050 C 272.616 273.076,272.780 272.895,272.780 272.647 C 272.780 272.308,273.104 272.198,274.099 272.198 C 275.003 272.198,275.471 272.061,275.586 271.761 C 275.712 271.432,276.242 271.325,277.729 271.325 C 279.217 271.325,279.746 271.217,279.872 270.888 C 279.983 270.599,280.440 270.451,281.223 270.451 C 282.005 270.451,282.462 270.304,282.573 270.015 C 282.683 269.729,283.136 269.578,283.883 269.578 C 284.630 269.578,285.084 269.427,285.193 269.141 C 285.303 268.856,285.756 268.705,286.503 268.705 C 287.250 268.705,287.704 268.553,287.813 268.268 C 287.927 267.971,288.391 267.831,289.260 267.831 C 290.202 267.831,290.539 267.716,290.539 267.394 C 290.539 267.071,290.878 266.958,291.849 266.958 C 292.819 266.958,293.159 266.845,293.159 266.521 C 293.159 266.205,293.483 266.084,294.332 266.084 C 295.107 266.084,295.563 265.936,295.673 265.648 C 295.769 265.399,296.203 265.211,296.683 265.211 C 297.238 265.211,297.525 265.062,297.525 264.774 C 297.525 264.451,297.865 264.338,298.836 264.338 C 299.806 264.338,300.146 264.224,300.146 263.901 C 300.146 263.585,300.470 263.464,301.319 263.464 C 302.094 263.464,302.550 263.316,302.660 263.028 C 302.756 262.779,303.190 262.591,303.670 262.591 C 304.225 262.591,304.512 262.442,304.512 262.154 C 304.512 261.863,304.803 261.718,305.386 261.718 C 305.968 261.718,306.259 261.572,306.259 261.281 C 306.259 260.957,306.599 260.844,307.569 260.844 C 308.540 260.844,308.879 260.731,308.879 260.408 C 308.879 260.116,309.170 259.971,309.753 259.971 C 310.335 259.971,310.626 259.825,310.626 259.534 C 310.626 259.247,310.914 259.098,311.468 259.098 C 311.948 259.098,312.382 258.910,312.478 258.661 C 312.570 258.421,312.961 258.224,313.347 258.224 C 313.732 258.224,314.211 258.028,314.410 257.787 C 314.610 257.547,315.154 257.351,315.620 257.351 C 316.104 257.351,316.538 257.164,316.634 256.914 C 316.726 256.674,317.108 256.477,317.481 256.477 C 317.855 256.477,318.231 256.363,318.317 256.224 C 318.403 256.085,319.230 255.594,320.154 255.132 C 321.078 254.671,321.878 254.196,321.931 254.076 C 321.984 253.956,322.232 253.857,322.481 253.857 C 322.730 253.857,323.538 253.489,324.276 253.038 C 325.015 252.587,325.848 252.133,326.128 252.028 C 326.408 251.923,326.638 251.713,326.638 251.561 C 326.638 251.408,327.031 251.197,327.511 251.092 C 327.991 250.986,328.384 250.714,328.384 250.486 C 328.384 250.221,328.697 250.073,329.258 250.073 C 329.840 250.073,330.131 249.927,330.131 249.636 C 330.131 249.345,330.422 249.199,331.004 249.199 C 331.587 249.199,331.878 249.054,331.878 248.763 C 331.878 248.523,332.074 248.326,332.314 248.326 C 332.555 248.326,332.751 248.130,332.751 247.889 C 332.751 247.598,333.042 247.453,333.624 247.453 C 334.207 247.453,334.498 247.307,334.498 247.016 C 334.498 246.725,334.789 246.579,335.371 246.579 C 335.953 246.579,336.245 246.434,336.245 246.143 C 336.245 245.902,336.441 245.706,336.681 245.706 C 336.921 245.706,337.118 245.509,337.118 245.269 C 337.118 244.978,337.409 244.833,337.991 244.833 C 338.574 244.833,338.865 244.687,338.865 244.396 C 338.865 244.156,339.045 243.959,339.266 243.959 C 339.486 243.959,339.830 243.763,340.029 243.523 C 340.228 243.282,340.637 243.086,340.938 243.086 C 341.239 243.086,341.485 242.889,341.485 242.649 C 341.485 242.409,341.667 242.213,341.890 242.213 C 342.113 242.213,342.371 242.016,342.463 241.776 C 342.556 241.536,342.963 241.339,343.368 241.339 C 343.829 241.339,344.105 241.176,344.105 240.902 C 344.105 240.662,344.301 240.466,344.541 240.466 C 344.782 240.466,344.978 240.269,344.978 240.029 C 344.978 239.738,345.269 239.592,345.852 239.592 C 346.434 239.592,346.725 239.447,346.725 239.156 C 346.725 238.916,346.921 238.719,347.162 238.719 C 347.402 238.719,347.598 238.523,347.598 238.282 C 347.598 238.009,347.874 237.846,348.335 237.846 C 348.741 237.846,349.148 237.649,349.240 237.409 C 349.332 237.169,349.590 236.972,349.813 236.972 C 350.036 236.972,350.218 236.776,350.218 236.536 C 350.218 236.295,350.415 236.099,350.655 236.099 C 350.895 236.099,351.092 235.902,351.092 235.662 C 351.092 235.422,351.288 235.226,351.528 235.226 C 351.769 235.226,351.965 235.029,351.965 234.789 C 351.965 234.498,352.256 234.352,352.838 234.352 C 353.421 234.352,353.712 234.207,353.712 233.916 C 353.712 233.675,353.908 233.479,354.148 233.479 C 354.389 233.479,354.585 233.282,354.585 233.042 C 354.585 232.802,354.782 232.606,355.022 232.606 C 355.262 232.606,355.459 232.409,355.459 232.169 C 355.459 231.929,355.641 231.732,355.864 231.732 C 356.087 231.732,356.345 231.536,356.437 231.295 C 356.529 231.055,356.875 230.859,357.205 230.859 C 357.536 230.859,357.881 230.662,357.973 230.422 C 358.065 230.182,358.323 229.985,358.546 229.985 C 358.769 229.985,358.952 229.789,358.952 229.549 C 358.952 229.309,359.122 229.112,359.330 229.112 C 359.537 229.112,360.028 228.725,360.421 228.251 C 360.814 227.777,361.299 227.384,361.499 227.378 C 361.699 227.371,361.863 227.169,361.863 226.929 C 361.863 226.689,362.060 226.492,362.300 226.492 C 362.540 226.492,362.737 226.295,362.737 226.055 C 362.737 225.815,362.933 225.619,363.173 225.619 C 363.413 225.619,363.610 225.422,363.610 225.182 C 363.610 224.942,363.806 224.745,364.047 224.745 C 364.287 224.745,364.483 224.549,364.483 224.309 C 364.483 224.068,364.680 223.872,364.920 223.872 C 365.160 223.872,365.357 223.675,365.357 223.435 C 365.357 223.195,365.553 222.999,365.793 222.999 C 366.033 222.999,366.230 222.865,366.230 222.701 C 366.230 222.538,366.561 222.253,366.965 222.069 C 367.369 221.885,367.776 221.429,367.870 221.056 C 367.963 220.684,368.222 220.378,368.445 220.378 C 368.668 220.378,368.850 220.182,368.850 219.942 C 368.850 219.702,369.047 219.505,369.287 219.505 C 369.527 219.505,369.723 219.309,369.723 219.068 C 369.723 218.828,369.920 218.632,370.160 218.632 C 370.400 218.632,370.597 218.435,370.597 218.195 C 370.597 217.955,370.793 217.758,371.033 217.758 C 371.274 217.758,371.470 217.562,371.470 217.322 C 371.470 217.082,371.667 216.885,371.907 216.885 C 372.147 216.885,372.344 216.752,372.344 216.589 C 372.344 216.426,372.933 215.728,373.654 215.038 C 374.374 214.347,374.964 213.629,374.964 213.441 C 374.964 213.254,375.160 213.100,375.400 213.100 C 375.655 213.100,375.842 212.828,375.849 212.445 C 375.856 212.085,376.249 211.469,376.723 211.076 C 377.196 210.683,377.584 210.192,377.584 209.985 C 377.584 209.777,377.780 209.607,378.020 209.607 C 378.261 209.607,378.457 209.424,378.457 209.201 C 378.457 208.978,378.654 208.721,378.894 208.628 C 379.134 208.536,379.330 208.129,379.330 207.724 C 379.330 207.263,379.494 206.987,379.767 206.987 C 380.007 206.987,380.204 206.790,380.204 206.550 C 380.204 206.310,380.400 206.114,380.640 206.114 C 380.881 206.114,381.077 205.973,381.077 205.802 C 381.077 205.630,381.274 205.293,381.514 205.053 C 381.754 204.813,381.951 204.364,381.951 204.055 C 381.951 203.746,382.147 203.493,382.387 203.493 C 382.627 203.493,382.824 203.311,382.824 203.088 C 382.824 202.865,383.020 202.607,383.261 202.515 C 383.501 202.423,383.697 202.016,383.697 201.610 C 383.697 201.149,383.861 200.873,384.134 200.873 C 384.374 200.873,384.571 200.677,384.571 200.437 C 384.571 200.197,384.767 200.000,385.007 200.000 C 385.298 200.000,385.444 199.709,385.444 199.127 C 385.444 198.544,385.590 198.253,385.881 198.253 C 386.172 198.253,386.317 197.962,386.317 197.380 C 386.317 196.798,386.463 196.507,386.754 196.507 C 386.994 196.507,387.191 196.324,387.191 196.101 C 387.191 195.878,387.387 195.620,387.627 195.528 C 387.868 195.436,388.064 195.029,388.064 194.623 C 388.064 194.162,388.228 193.886,388.501 193.886 C 388.792 193.886,388.937 193.595,388.937 193.013 C 388.937 192.431,389.083 192.140,389.374 192.140 C 389.665 192.140,389.811 191.849,389.811 191.266 C 389.811 190.684,389.956 190.393,390.247 190.393 C 390.539 190.393,390.684 190.102,390.684 189.520 C 390.684 188.937,390.830 188.646,391.121 188.646 C 391.412 188.646,391.557 188.355,391.557 187.773 C 391.557 187.191,391.703 186.900,391.994 186.900 C 392.285 186.900,392.431 186.608,392.431 186.026 C 392.431 185.444,392.576 185.153,392.868 185.153 C 393.191 185.153,393.304 184.813,393.304 183.843 C 393.304 182.872,393.417 182.533,393.741 182.533 C 394.032 182.533,394.178 182.242,394.178 181.659 C 394.178 181.077,394.323 180.786,394.614 180.786 C 394.938 180.786,395.051 180.446,395.051 179.476 C 395.051 178.530,395.167 178.166,395.470 178.166 C 395.744 178.166,395.920 177.788,395.980 177.074 C 396.036 176.392,396.206 176.010,396.434 176.055 C 396.681 176.105,396.798 175.717,396.798 174.849 C 396.798 173.981,396.938 173.516,397.234 173.403 C 397.565 173.276,397.671 172.739,397.671 171.188 C 397.671 169.563,397.761 169.141,398.108 169.141 C 398.447 169.141,398.544 168.753,398.544 167.394 C 398.544 166.036,398.641 165.648,398.981 165.648 C 399.330 165.648,399.418 165.211,399.418 163.464 C 399.418 162.203,399.541 161.281,399.709 161.281 C 399.899 161.281,400.000 156.138,400.000 146.434 C 400.000 136.730,399.899 131.587,399.709 131.587 C 399.541 131.587,399.418 130.665,399.418 129.403 C 399.418 127.656,399.330 127.220,398.981 127.220 C 398.641 127.220,398.544 126.832,398.544 125.473 C 398.544 124.115,398.447 123.726,398.108 123.726 C 397.765 123.726,397.671 123.326,397.671 121.870 C 397.671 120.575,397.539 119.903,397.234 119.651 C 396.994 119.451,396.798 118.860,396.798 118.336 C 396.798 117.758,396.626 117.318,396.361 117.216 C 396.073 117.106,395.924 116.650,395.924 115.875 C 395.924 115.026,395.804 114.702,395.488 114.702 C 395.172 114.702,395.051 114.377,395.051 113.528 C 395.051 112.753,394.903 112.297,394.614 112.187 C 394.374 112.095,394.178 111.702,394.178 111.313 C 394.178 110.925,393.981 110.532,393.741 110.440 C 393.455 110.331,393.304 109.877,393.304 109.130 C 393.304 108.383,393.153 107.930,392.868 107.820 C 392.619 107.724,392.431 107.290,392.431 106.810 C 392.431 106.256,392.282 105.968,391.994 105.968 C 391.703 105.968,391.557 105.677,391.557 105.095 C 391.557 104.512,391.412 104.221,391.121 104.221 C 390.830 104.221,390.684 103.930,390.684 103.348 C 390.684 102.766,390.539 102.475,390.247 102.475 C 389.956 102.475,389.811 102.183,389.811 101.601 C 389.811 101.019,389.665 100.728,389.374 100.728 C 389.083 100.728,388.937 100.437,388.937 99.854 C 388.937 99.272,388.792 98.981,388.501 98.981 C 388.261 98.981,388.064 98.735,388.064 98.434 C 388.064 98.134,387.868 97.725,387.627 97.525 C 387.387 97.326,387.191 96.983,387.191 96.762 C 387.191 96.541,386.994 96.361,386.754 96.361 C 386.463 96.361,386.317 96.070,386.317 95.488 C 386.317 94.905,386.172 94.614,385.881 94.614 C 385.607 94.614,385.444 94.338,385.444 93.877 C 385.444 93.472,385.247 93.065,385.007 92.973 C 384.767 92.881,384.571 92.623,384.571 92.400 C 384.571 92.177,384.374 91.994,384.134 91.994 C 383.894 91.994,383.697 91.748,383.697 91.448 C 383.697 91.147,383.501 90.738,383.261 90.539 C 383.020 90.339,382.824 89.996,382.824 89.775 C 382.824 89.555,382.627 89.374,382.387 89.374 C 382.114 89.374,381.951 89.098,381.951 88.637 C 381.951 88.232,381.754 87.825,381.514 87.733 C 381.274 87.640,381.077 87.383,381.077 87.160 C 381.077 86.936,380.881 86.754,380.640 86.754 C 380.400 86.754,380.204 86.557,380.204 86.317 C 380.204 86.077,380.007 85.881,379.767 85.881 C 379.494 85.881,379.330 85.605,379.330 85.144 C 379.330 84.738,379.134 84.331,378.894 84.239 C 378.654 84.147,378.457 83.889,378.457 83.666 C 378.457 83.443,378.261 83.261,378.020 83.261 C 377.780 83.261,377.584 83.064,377.584 82.824 C 377.584 82.584,377.387 82.387,377.147 82.387 C 376.907 82.387,376.710 82.187,376.710 81.941 C 376.710 81.696,376.514 81.420,376.274 81.328 C 376.033 81.236,375.837 80.982,375.837 80.765 C 375.837 80.547,375.444 79.967,374.964 79.476 C 374.483 78.985,374.090 78.518,374.090 78.439 C 374.090 78.361,373.501 77.707,372.780 76.986 C 372.060 76.266,371.470 75.549,371.470 75.393 C 371.470 75.237,371.274 75.109,371.033 75.109 C 370.793 75.109,370.597 74.913,370.597 74.672 C 370.597 74.432,370.400 74.236,370.160 74.236 C 369.920 74.236,369.723 74.039,369.723 73.799 C 369.723 73.559,369.527 73.362,369.287 73.362 C 369.047 73.362,368.850 73.166,368.850 72.926 C 368.850 72.686,368.654 72.489,368.413 72.489 C 368.173 72.489,367.977 72.293,367.977 72.052 C 367.977 71.812,367.780 71.616,367.540 71.616 C 367.300 71.616,367.103 71.419,367.103 71.179 C 367.103 70.939,366.907 70.742,366.667 70.742 C 366.426 70.742,366.230 70.546,366.230 70.306 C 366.230 70.066,366.033 69.869,365.793 69.869 C 365.553 69.869,365.357 69.672,365.357 69.432 C 365.357 69.192,365.160 68.996,364.920 68.996 C 364.680 68.996,364.483 68.799,364.483 68.559 C 364.483 68.319,364.287 68.122,364.047 68.122 C 363.806 68.122,363.610 67.926,363.610 67.686 C 363.610 67.445,363.485 67.249,363.333 67.249 C 363.181 67.249,362.268 66.463,361.304 65.502 C 360.341 64.541,359.417 63.755,359.252 63.755 C 359.087 63.755,358.952 63.559,358.952 63.319 C 358.952 63.079,358.755 62.882,358.515 62.882 C 358.275 62.882,358.079 62.764,358.079 62.619 C 358.079 62.475,357.686 62.220,357.205 62.052 C 356.725 61.885,356.332 61.610,356.332 61.442 C 356.332 61.273,356.135 61.135,355.895 61.135 C 355.655 61.135,355.459 60.939,355.459 60.699 C 355.459 60.459,355.262 60.262,355.022 60.262 C 354.782 60.262,354.585 60.066,354.585 59.825 C 354.585 59.585,354.389 59.389,354.148 59.389 C 353.908 59.389,353.712 59.192,353.712 58.952 C 353.712 58.661,353.421 58.515,352.838 58.515 C 352.256 58.515,351.965 58.370,351.965 58.079 C 351.965 57.838,351.769 57.642,351.528 57.642 C 351.288 57.642,351.092 57.445,351.092 57.205 C 351.092 56.965,350.895 56.769,350.655 56.769 C 350.415 56.769,350.218 56.572,350.218 56.332 C 350.218 56.092,350.038 55.895,349.817 55.895 C 349.597 55.895,349.253 55.699,349.054 55.459 C 348.855 55.218,348.445 55.022,348.145 55.022 C 347.844 55.022,347.598 54.825,347.598 54.585 C 347.598 54.345,347.402 54.148,347.162 54.148 C 346.921 54.148,346.725 53.952,346.725 53.712 C 346.725 53.421,346.434 53.275,345.852 53.275 C 345.269 53.275,344.978 53.130,344.978 52.838 C 344.978 52.598,344.782 52.402,344.541 52.402 C 344.301 52.402,344.105 52.205,344.105 51.965 C 344.105 51.674,343.814 51.528,343.231 51.528 C 342.649 51.528,342.358 51.383,342.358 51.092 C 342.358 50.852,342.162 50.655,341.921 50.655 C 341.681 50.655,341.485 50.459,341.485 50.218 C 341.485 49.927,341.194 49.782,340.611 49.782 C 340.029 49.782,339.738 49.636,339.738 49.345 C 339.738 49.105,339.541 48.908,339.301 48.908 C 339.061 48.908,338.865 48.712,338.865 48.472 C 338.865 48.180,338.574 48.035,337.991 48.035 C 337.409 48.035,337.118 47.889,337.118 47.598 C 337.118 47.358,336.937 47.162,336.717 47.162 C 336.496 47.162,336.153 46.965,335.953 46.725 C 335.754 46.485,335.345 46.288,335.044 46.288 C 334.744 46.288,334.498 46.092,334.498 45.852 C 334.498 45.560,334.207 45.415,333.624 45.415 C 333.042 45.415,332.751 45.269,332.751 44.978 C 332.751 44.738,332.503 44.541,332.200 44.541 C 331.897 44.541,331.573 44.345,331.481 44.105 C 331.389 43.865,331.048 43.668,330.722 43.668 C 330.391 43.668,330.131 43.476,330.131 43.231 C 330.131 42.940,329.840 42.795,329.258 42.795 C 328.675 42.795,328.384 42.649,328.384 42.358 C 328.384 42.067,328.093 41.921,327.511 41.921 C 326.929 41.921,326.638 41.776,326.638 41.485 C 326.638 41.194,326.346 41.048,325.764 41.048 C 325.176 41.048,324.891 40.903,324.891 40.604 C 324.891 40.346,324.533 40.089,324.036 39.989 C 323.566 39.895,323.112 39.636,323.026 39.414 C 322.941 39.192,322.674 39.010,322.434 39.010 C 322.193 39.010,321.436 38.617,320.751 38.137 C 320.066 37.656,319.154 37.235,318.726 37.201 C 318.297 37.168,318.001 37.050,318.069 36.941 C 318.218 36.700,317.473 36.390,316.747 36.390 C 316.457 36.390,316.144 36.194,316.052 35.953 C 315.960 35.713,315.549 35.517,315.138 35.517 C 314.728 35.517,314.317 35.320,314.225 35.080 C 314.129 34.831,313.695 34.643,313.215 34.643 C 312.660 34.643,312.373 34.494,312.373 34.207 C 312.373 33.919,312.085 33.770,311.530 33.770 C 311.050 33.770,310.616 33.582,310.521 33.333 C 310.415 33.058,309.969 32.897,309.316 32.897 C 308.662 32.897,308.217 32.735,308.111 32.460 C 308.016 32.211,307.581 32.023,307.101 32.023 C 306.547 32.023,306.259 31.874,306.259 31.587 C 306.259 31.295,305.968 31.150,305.386 31.150 C 304.803 31.150,304.512 31.004,304.512 30.713 C 304.512 30.390,304.173 30.277,303.202 30.277 C 302.232 30.277,301.892 30.163,301.892 29.840 C 301.892 29.552,301.605 29.403,301.050 29.403 C 300.570 29.403,300.136 29.215,300.040 28.967 C 299.930 28.678,299.474 28.530,298.699 28.530 C 297.850 28.530,297.525 28.409,297.525 28.093 C 297.525 27.806,297.238 27.656,296.683 27.656 C 296.203 27.656,295.769 27.469,295.673 27.220 C 295.556 26.912,295.076 26.783,294.056 26.783 C 293.090 26.783,292.526 26.642,292.369 26.360 C 292.238 26.128,291.633 25.904,291.024 25.863 C 290.414 25.822,289.839 25.664,289.745 25.513 C 289.646 25.352,289.734 25.336,289.956 25.473 C 290.208 25.629,290.267 25.595,290.130 25.372 C 290.015 25.188,289.485 25.036,288.951 25.036 C 288.357 25.036,287.916 24.867,287.813 24.600 C 287.704 24.314,287.250 24.163,286.503 24.163 C 285.756 24.163,285.303 24.012,285.193 23.726 C 285.073 23.412,284.582 23.290,283.446 23.290 C 282.311 23.290,281.820 23.167,281.700 22.853 C 281.593 22.575,281.145 22.416,280.463 22.416 C 279.868 22.416,279.251 22.228,279.071 21.991 C 278.875 21.733,278.156 21.542,277.237 21.503 C 276.350 21.466,275.749 21.311,275.781 21.128 C 275.814 20.946,275.195 20.778,274.309 20.727 C 273.209 20.664,272.780 20.521,272.780 20.218 C 272.780 19.887,272.308 19.796,270.597 19.796 C 268.850 19.796,268.413 19.709,268.413 19.360 C 268.413 19.020,268.025 18.923,266.667 18.923 C 265.308 18.923,264.920 18.826,264.920 18.486 C 264.920 18.147,264.532 18.049,263.173 18.049 C 261.815 18.049,261.426 17.952,261.426 17.613 C 261.426 17.274,261.042 17.176,259.711 17.176 C 258.455 17.176,257.950 17.059,257.828 16.739 C 257.694 16.391,257.067 16.303,254.740 16.303 C 252.338 16.303,251.820 16.225,251.820 15.866 C 251.820 15.517,251.387 15.429,249.672 15.429 C 248.118 15.429,247.424 15.309,247.162 14.993 C 246.898 14.675,246.201 14.556,244.611 14.556 C 243.028 14.556,242.333 14.438,242.099 14.129 C 241.852 13.803,240.999 13.692,238.497 13.658 C 236.593 13.633,235.140 13.488,235.031 13.313 C 234.915 13.125,234.989 13.100,235.226 13.246 C 235.478 13.402,235.536 13.368,235.399 13.145 C 235.053 12.585,228.106 12.692,227.532 13.267 M188.646 25.328 C 188.318 25.656,188.064 26.298,188.064 26.800 C 188.064 27.289,187.915 28.280,187.734 29.002 C 187.270 30.843,187.367 30.880,192.079 30.665 L 196.215 30.477 196.215 27.961 C 196.215 24.725,196.240 24.745,192.373 24.745 C 189.617 24.745,189.157 24.817,188.646 25.328 M204.585 25.060 C 204.161 25.307,204.076 25.786,204.076 27.918 L 204.076 30.479 207.351 30.667 C 213.339 31.012,213.683 30.981,213.683 30.082 C 213.683 28.150,213.028 25.601,212.423 25.177 C 211.692 24.665,205.423 24.572,204.585 25.060 M190.320 39.810 C 188.279 39.860,186.608 40.014,186.608 40.152 C 186.608 40.500,195.400 40.718,195.848 40.380 C 196.420 39.950,195.974 39.587,194.961 39.656 C 194.450 39.690,192.362 39.760,190.320 39.810 M204.262 40.186 C 204.635 40.559,205.063 40.586,209.534 40.519 C 211.682 40.487,213.100 40.350,213.100 40.175 C 213.100 39.993,211.383 39.884,208.530 39.884 C 205.366 39.884,204.052 39.977,204.262 40.186 M172.198 41.092 C 171.077 41.233,168.523 41.550,166.521 41.796 C 159.236 42.693,148.793 44.445,144.978 45.409 C 144.418 45.551,142.649 45.954,141.048 46.306 C 137.695 47.042,131.782 48.519,130.713 48.887 C 130.313 49.025,128.937 49.427,127.656 49.781 C 124.109 50.761,114.722 53.894,111.936 55.028 C 111.616 55.159,109.651 55.939,107.569 56.762 C 105.488 57.585,103.392 58.437,102.911 58.655 C 97.398 61.156,91.759 63.914,88.473 65.717 C 87.578 66.208,86.071 67.036,85.126 67.557 C 63.925 79.229,45.946 96.795,37.022 114.556 C 13.443 161.488,44.691 212.425,112.664 237.858 C 117.970 239.844,119.267 240.278,128.239 243.071 C 128.719 243.220,130.946 243.816,133.188 244.393 C 135.429 244.971,138.007 245.652,138.916 245.906 C 141.250 246.558,141.277 246.529,141.885 242.757 C 142.178 240.936,142.595 238.595,142.811 237.555 C 143.026 236.514,143.750 232.518,144.419 228.675 C 145.876 220.303,146.308 217.839,146.692 215.721 C 147.159 213.135,148.190 207.319,148.625 204.803 C 148.847 203.523,149.234 201.361,149.485 200.000 C 149.737 198.639,150.272 195.626,150.674 193.304 C 151.077 190.983,151.670 187.642,151.992 185.881 C 152.314 184.119,152.770 181.565,153.007 180.204 C 153.243 178.843,153.624 176.681,153.853 175.400 C 154.271 173.066,154.819 169.980,155.636 165.357 C 155.877 163.996,156.249 161.900,156.463 160.699 C 156.678 159.498,157.264 156.157,157.767 153.275 C 158.270 150.393,158.747 147.819,158.827 147.556 C 159.171 146.418,158.249 146.143,154.100 146.143 C 147.031 146.143,147.453 147.255,147.453 128.624 C 147.453 109.591,146.502 111.209,157.679 111.209 C 165.816 111.208,165.188 111.459,165.809 107.964 C 166.778 102.504,167.142 100.519,167.402 99.272 C 167.552 98.552,167.805 97.176,167.963 96.215 C 168.425 93.407,169.053 89.775,169.724 86.026 C 170.068 84.105,170.465 81.878,170.607 81.077 C 170.748 80.277,171.321 77.067,171.879 73.945 C 172.437 70.822,172.973 67.809,173.070 67.249 C 173.167 66.689,173.445 65.116,173.688 63.755 C 173.930 62.394,174.316 60.233,174.544 58.952 C 174.773 57.671,175.147 55.575,175.375 54.294 C 175.604 53.013,176.008 50.721,176.273 49.199 C 176.538 47.678,176.941 45.470,177.169 44.292 C 177.929 40.366,177.937 40.371,172.198 41.092 M223.763 40.989 C 223.660 41.155,223.699 41.924,223.849 42.698 C 223.999 43.472,224.336 45.349,224.600 46.870 C 224.863 48.392,225.258 50.619,225.477 51.820 C 225.946 54.389,226.582 57.950,227.208 61.499 C 227.455 62.900,227.855 65.160,228.097 66.520 C 228.340 67.881,228.742 70.141,228.991 71.542 C 229.241 72.944,229.622 75.073,229.838 76.274 C 230.054 77.475,230.435 79.636,230.685 81.077 C 231.374 85.056,232.287 90.221,232.590 91.849 C 232.738 92.649,233.056 94.352,233.296 95.633 C 233.537 96.914,234.213 100.779,234.800 104.221 C 235.550 108.617,236.005 110.589,236.330 110.844 C 236.672 111.113,238.680 111.208,244.024 111.208 C 252.076 111.208,252.661 111.315,253.965 113.024 L 254.731 114.029 254.731 128.733 L 254.731 143.436 254.067 144.421 C 253.015 145.982,252.440 146.134,247.561 146.138 C 241.748 146.144,242.015 145.684,243.514 153.130 C 243.756 154.330,244.083 156.202,244.241 157.289 C 244.399 158.376,244.719 160.276,244.952 161.511 C 245.185 162.745,245.594 165.000,245.860 166.521 C 246.709 171.368,247.166 173.905,247.462 175.400 C 247.620 176.201,248.206 179.541,248.764 182.824 C 249.322 186.106,249.965 189.774,250.193 190.975 C 250.422 192.176,250.748 193.945,250.918 194.905 C 251.767 199.692,252.457 203.600,252.872 205.968 C 253.592 210.074,254.136 213.119,254.433 214.702 C 254.584 215.502,255.173 218.843,255.742 222.125 C 256.312 225.408,256.962 229.076,257.187 230.277 C 257.411 231.477,257.734 233.246,257.904 234.207 C 258.074 235.167,258.470 237.394,258.784 239.156 C 259.098 240.917,259.442 242.974,259.548 243.728 C 259.889 246.138,259.809 246.121,264.920 244.822 C 270.322 243.449,272.703 242.745,280.495 240.221 C 328.009 224.831,362.599 193.171,369.286 158.952 C 371.493 147.661,370.396 133.650,366.505 123.435 C 366.170 122.555,365.790 121.507,365.662 121.106 C 364.973 118.958,361.612 112.234,359.477 108.734 C 347.700 89.422,326.948 72.421,300.291 60.247 C 291.752 56.347,280.036 52.002,272.052 49.774 C 270.771 49.417,268.897 48.881,267.887 48.584 C 265.946 48.013,258.014 46.080,256.041 45.698 C 255.400 45.574,253.894 45.253,252.693 44.986 C 247.086 43.738,236.024 42.008,229.403 41.344 C 227.882 41.191,226.033 40.981,225.293 40.877 C 224.475 40.762,223.876 40.806,223.763 40.989 M184.463 48.766 C 184.221 49.008,183.942 49.827,183.843 50.586 C 183.745 51.344,183.544 52.555,183.398 53.275 C 182.524 57.576,182.195 60.040,182.457 60.303 C 182.768 60.614,195.722 60.712,196.215 60.408 C 196.611 60.163,196.602 49.631,196.205 48.889 C 195.796 48.124,185.216 48.013,184.463 48.766 M204.440 48.519 C 204.026 48.686,203.906 59.545,204.311 60.182 C 204.610 60.652,204.623 60.653,212.328 60.599 L 218.979 60.553 218.854 59.170 C 218.636 56.769,217.151 49.084,216.830 48.697 C 216.524 48.328,205.313 48.167,204.440 48.519 M180.838 68.787 C 180.667 68.993,180.399 69.943,180.240 70.898 C 180.082 71.853,179.738 73.859,179.476 75.356 C 178.791 79.260,177.959 78.915,187.838 78.825 L 196.361 78.748 196.441 73.983 C 196.496 70.717,196.416 69.092,196.187 68.816 C 195.716 68.248,181.308 68.221,180.838 68.787 M204.328 69.110 C 204.101 69.608,204.081 71.139,204.259 74.283 L 204.512 78.748 213.286 78.825 C 223.368 78.914,222.617 79.165,221.969 75.918 C 221.736 74.753,221.316 72.620,221.035 71.179 L 220.524 68.559 212.587 68.481 L 204.650 68.404 204.328 69.110 M186.568 86.681 C 179.955 86.744,177.866 86.850,177.627 87.138 C 177.212 87.638,175.629 96.250,175.902 96.523 C 176.189 96.810,196.299 96.685,196.589 96.395 C 197.606 95.378,196.446 86.075,195.359 86.531 C 195.270 86.569,191.314 86.636,186.568 86.681 M213.537 86.748 L 204.512 86.900 204.512 91.703 L 204.512 96.507 214.556 96.652 C 220.080 96.732,224.811 96.704,225.070 96.590 C 226.152 96.112,223.814 86.084,222.725 86.529 C 222.635 86.566,218.501 86.664,213.537 86.748 M174.473 104.876 C 173.908 105.635,173.151 110.341,173.522 110.789 C 173.956 111.311,195.273 111.422,196.235 110.907 C 197.006 110.494,197.097 104.981,196.337 104.689 C 195.366 104.316,174.758 104.493,174.473 104.876 M204.716 104.862 C 204.163 105.414,204.251 110.177,204.824 110.751 C 205.504 111.430,227.583 111.446,227.844 110.767 C 228.103 110.091,227.168 105.042,226.732 104.765 C 226.089 104.358,205.128 104.450,204.716 104.862 M155.479 119.190 C 154.980 119.791,155.037 138.019,155.539 138.338 C 156.025 138.647,159.583 138.626,160.080 138.311 C 160.457 138.072,160.700 136.995,161.730 131.004 C 161.964 129.643,162.352 127.482,162.592 126.201 C 163.630 120.668,163.762 119.343,163.308 119.055 C 162.578 118.594,155.878 118.709,155.479 119.190 M172.089 119.040 C 171.869 119.179,171.516 120.258,171.305 121.437 C 171.094 122.616,170.712 124.694,170.456 126.055 C 170.200 127.416,169.884 129.185,169.755 129.985 C 169.626 130.786,169.279 132.823,168.985 134.511 C 168.691 136.200,168.537 137.804,168.641 138.077 C 168.873 138.680,196.295 138.861,196.665 138.262 C 197.144 137.486,196.798 119.519,196.296 119.141 C 195.724 118.710,172.761 118.614,172.089 119.040 M205.007 119.127 C 204.466 119.668,204.511 137.798,205.055 138.250 C 205.341 138.487,209.266 138.558,219.102 138.504 L 232.751 138.428 232.732 137.409 C 232.722 136.849,232.220 133.705,231.618 130.422 C 231.016 127.140,230.402 123.631,230.254 122.625 C 230.106 121.619,229.795 120.341,229.563 119.786 L 229.142 118.777 217.249 118.777 C 208.388 118.777,205.268 118.866,205.007 119.127 M238.064 118.978 C 237.437 119.142,237.432 118.907,238.152 123.052 C 239.462 130.591,240.126 134.277,240.635 136.827 C 240.963 138.469,241.163 138.574,243.985 138.574 C 246.232 138.574,246.597 138.502,246.860 138.010 C 247.252 137.278,247.268 120.551,246.878 119.524 L 246.594 118.777 242.584 118.811 C 240.378 118.830,238.344 118.905,238.064 118.978 M167.184 146.507 C 166.557 147.317,165.800 151.265,166.114 152.084 C 166.347 152.691,196.135 152.802,196.739 152.198 C 197.289 151.648,197.203 147.171,196.631 146.600 C 196.017 145.986,167.657 145.896,167.184 146.507 M204.959 146.706 C 204.536 147.498,204.573 151.763,205.007 152.198 C 205.524 152.715,234.740 152.701,235.156 152.183 C 235.541 151.706,234.565 146.748,234.019 146.401 C 233.079 145.806,205.285 146.097,204.959 146.706 M165.006 160.311 C 164.462 160.458,164.376 160.674,163.929 163.028 C 163.762 163.908,163.436 165.611,163.204 166.812 C 162.491 170.505,162.405 171.507,162.764 171.939 C 163.223 172.493,196.187 172.547,196.739 171.994 C 197.168 171.565,197.226 161.367,196.804 160.699 C 196.536 160.275,166.493 159.908,165.006 160.311 M205.459 160.317 C 204.858 160.474,204.890 160.072,204.948 166.663 C 204.980 170.309,205.097 171.966,205.335 172.117 C 205.804 172.416,237.898 172.394,238.370 172.095 C 238.968 171.715,238.989 171.916,237.431 163.186 C 237.160 161.667,236.841 160.740,236.503 160.493 C 236.001 160.126,206.822 159.961,205.459 160.317 M161.072 180.277 C 160.917 180.477,160.560 181.951,160.278 183.552 C 159.995 185.153,159.637 186.971,159.482 187.592 C 159.318 188.249,159.309 188.828,159.459 188.979 C 159.739 189.259,196.368 189.349,196.818 189.070 C 197.114 188.887,197.198 181.119,196.912 180.373 C 196.675 179.755,161.547 179.660,161.072 180.277 M205.077 180.290 C 204.997 180.497,204.969 182.561,205.013 184.875 L 205.095 189.083 223.273 189.158 C 233.271 189.199,241.562 189.122,241.698 188.986 C 241.833 188.851,241.812 187.966,241.650 187.019 C 241.489 186.073,241.200 184.316,241.009 183.115 C 240.444 179.575,242.398 179.913,222.508 179.913 C 208.620 179.913,205.193 179.987,205.077 180.290 M158.136 197.338 C 157.776 197.567,157.436 199.127,156.454 205.062 C 156.218 206.485,155.960 207.756,155.879 207.886 C 155.287 208.844,196.277 209.276,197.070 208.320 C 197.418 207.900,197.289 197.939,196.927 197.354 C 196.721 197.020,158.662 197.004,158.136 197.338 M205.143 197.283 C 204.600 197.826,204.941 208.127,205.512 208.432 C 206.453 208.936,244.672 208.841,245.092 208.335 C 245.465 207.886,243.985 198.905,243.323 197.598 C 243.058 197.074,205.661 196.765,205.143 197.283 M154.602 216.719 C 154.412 216.948,154.074 218.225,153.851 219.558 C 153.627 220.890,153.235 223.143,152.979 224.565 C 152.724 225.987,152.583 227.330,152.667 227.549 C 152.826 227.964,195.854 228.180,196.919 227.771 C 197.472 227.559,197.613 217.865,197.079 216.866 C 196.674 216.110,155.226 215.967,154.602 216.719 M205.379 216.788 C 204.698 217.469,204.835 227.223,205.531 227.663 C 206.244 228.113,248.181 228.036,248.556 227.584 C 248.752 227.347,248.768 226.763,248.599 225.910 C 248.457 225.189,248.142 223.486,247.898 222.125 C 247.109 217.722,246.873 216.776,246.505 216.542 C 245.689 216.023,205.905 216.262,205.379 216.788 M150.824 236.900 C 150.549 237.934,150.430 238.581,149.599 243.556 C 149.408 244.696,149.335 245.842,149.435 246.104 C 149.656 246.680,196.040 246.850,197.108 246.278 C 197.682 245.971,197.979 238.295,197.488 236.463 L 197.312 235.808 174.213 235.808 L 151.114 235.808 150.824 236.900 M205.434 236.002 C 205.069 236.367,205.213 245.853,205.590 246.230 C 206.158 246.799,251.333 246.729,251.806 246.159 C 252.079 245.830,252.055 245.210,251.694 243.320 C 251.069 240.043,250.731 238.200,250.517 236.900 L 250.338 235.808 227.983 235.808 C 215.688 235.808,205.541 235.895,205.434 236.002 M253.130 256.930 C 252.722 257.087,246.375 258.202,243.231 258.669 C 229.663 260.681,223.072 261.321,209.971 261.899 L 205.531 262.095 205.531 264.230 C 205.531 266.202,205.581 266.377,206.186 266.525 C 207.175 266.766,255.232 266.554,255.479 266.307 C 255.662 266.124,254.913 261.221,254.204 257.955 C 253.992 256.976,253.709 256.706,253.130 256.930 M147.193 257.590 C 147.052 257.819,146.898 258.639,146.020 263.839 C 145.664 265.948,145.674 266.125,146.162 266.386 C 146.738 266.694,195.889 266.785,197.028 266.480 C 197.655 266.312,197.690 266.177,197.610 264.228 L 197.525 262.154 191.849 261.964 C 179.762 261.560,167.243 260.456,159.243 259.090 C 158.362 258.939,156.725 258.682,155.604 258.519 C 154.483 258.355,152.518 258.030,151.237 257.796 C 148.563 257.308,147.404 257.249,147.193 257.590 M144.465 274.478 C 143.625 275.011,144.374 276.565,145.472 276.565 C 146.024 276.565,146.672 276.761,146.912 277.001 C 147.221 277.310,147.974 277.438,149.480 277.438 C 151.106 277.438,151.651 277.542,151.779 277.875 C 151.915 278.228,152.588 278.311,155.304 278.311 C 158.094 278.311,158.661 278.385,158.661 278.748 C 158.661 279.108,159.193 279.185,161.703 279.185 C 164.181 279.185,164.794 279.271,165.004 279.648 C 165.147 279.902,165.350 280.099,165.456 280.084 C 167.383 279.823,172.926 280.127,172.926 280.495 C 172.926 280.868,173.737 280.932,178.478 280.932 C 183.025 280.932,184.109 281.011,184.467 281.368 C 185.298 282.200,196.228 281.994,197.038 281.131 C 197.869 280.246,198.011 274.720,197.211 274.413 C 196.515 274.145,144.888 274.209,144.465 274.478 M205.895 274.429 C 205.413 274.623,205.402 279.514,205.881 280.838 L 206.231 281.805 210.664 281.805 C 214.171 281.805,215.186 281.716,215.524 281.378 C 215.867 281.035,217.044 280.945,221.512 280.919 C 226.114 280.892,227.074 280.815,227.074 280.473 C 227.074 280.109,233.768 279.802,234.518 280.131 C 234.610 280.171,234.813 279.975,234.969 279.694 C 235.213 279.260,235.702 279.185,238.297 279.185 C 240.807 279.185,241.339 279.108,241.339 278.748 C 241.339 278.385,241.906 278.311,244.696 278.311 C 247.412 278.311,248.085 278.228,248.221 277.875 C 248.351 277.534,248.929 277.438,250.841 277.438 C 252.752 277.438,253.330 277.342,253.461 277.001 C 253.577 276.700,254.047 276.565,254.982 276.565 C 256.485 276.565,257.712 275.119,256.734 274.500 C 256.318 274.236,206.544 274.167,205.895 274.429 " stroke="none" fill="#3b4c94" fill-rule="evenodd"></path></g></svg>