<svg id="svg" version="1.1" xmlns="http://www.w3.org/2000/svg" xmlns:xlink="http://www.w3.org/1999/xlink" width="400" height="356.2130177514793" viewBox="0, 0, 400,356.2130177514793"><g id="svgg"><path id="path0" d="M142.047 61.468 C 141.667 61.746,141.450 62.068,141.565 62.183 C 141.681 62.299,142.066 62.071,142.422 61.678 C 143.180 60.841,143.024 60.754,142.047 61.468 M218.301 78.253 C 218.301 78.547,218.379 78.709,218.476 78.613 C 218.572 78.516,218.893 78.637,219.188 78.880 C 219.656 79.266,219.670 79.220,219.297 78.520 C 218.808 77.602,218.301 77.466,218.301 78.253 M65.241 214.260 L 64.349 214.546 65.330 214.581 C 65.869 214.601,66.310 214.456,66.310 214.260 C 66.310 214.064,66.270 213.920,66.221 213.939 C 66.172 213.959,65.731 214.103,65.241 214.260 M40.998 225.134 C 40.998 225.603,38.483 225.668,20.499 225.668 L 0.000 225.668 0.000 228.520 C 0.000 230.184,0.149 231.373,0.357 231.373 C 0.590 231.373,0.713 238.146,0.713 250.980 C 0.713 263.815,0.590 270.588,0.357 270.588 C 0.147 270.588,0.000 271.844,0.000 273.644 L 0.000 276.700 7.636 276.585 C 11.836 276.522,15.400 276.342,15.558 276.184 C 16.307 275.433,16.153 270.907,15.371 270.702 C 14.956 270.594,14.617 270.283,14.617 270.012 C 14.617 269.741,14.376 269.519,14.082 269.519 C 13.626 269.519,13.547 268.548,13.547 262.923 L 13.547 256.328 21.925 256.328 C 28.821 256.328,30.303 256.415,30.303 256.821 C 30.303 257.766,33.941 258.123,35.079 257.290 C 35.869 256.712,36.090 244.625,35.336 243.216 C 34.888 242.378,31.373 241.992,31.373 242.781 C 31.373 244.363,30.291 244.563,21.747 244.563 L 13.547 244.563 13.547 240.998 L 13.547 237.433 27.250 237.433 L 40.953 237.433 41.065 238.592 C 41.238 240.390,44.924 240.509,46.021 238.751 C 46.956 237.252,46.929 225.541,45.989 224.947 C 45.058 224.360,40.998 224.511,40.998 225.134 M354.513 225.091 C 354.174 225.974,354.530 239.524,354.902 239.877 C 355.449 240.396,359.002 239.938,359.002 239.349 C 359.002 237.595,359.877 237.433,369.340 237.433 C 378.015 237.433,378.253 237.452,378.253 238.146 C 378.253 238.538,378.058 238.859,377.819 238.859 C 377.189 238.859,375.758 240.638,375.758 241.421 C 375.758 241.789,375.517 242.182,375.223 242.295 C 374.929 242.408,374.688 242.724,374.688 242.997 C 374.688 243.270,374.447 243.494,374.153 243.494 C 373.859 243.494,373.619 243.716,373.619 243.987 C 373.619 244.258,373.298 244.564,372.906 244.667 C 372.497 244.773,372.193 245.153,372.193 245.556 C 372.193 245.942,371.952 246.458,371.658 246.702 C 371.364 246.946,371.123 247.367,371.123 247.637 C 371.123 247.907,370.802 248.449,370.410 248.841 C 370.018 249.234,369.697 249.795,369.697 250.089 C 369.697 250.383,369.537 250.624,369.340 250.624 C 368.872 250.624,367.558 251.947,367.558 252.418 C 367.558 252.620,367.327 252.874,367.045 252.982 C 366.763 253.090,366.429 253.647,366.304 254.219 C 366.178 254.791,365.847 255.258,365.569 255.258 C 365.290 255.258,365.062 255.482,365.062 255.755 C 365.062 256.028,364.822 256.344,364.528 256.457 C 364.234 256.570,363.993 256.908,363.993 257.208 C 363.993 257.508,363.752 257.754,363.458 257.754 C 363.127 257.754,362.923 258.089,362.923 258.633 C 362.923 259.147,362.627 259.670,362.210 259.893 C 361.818 260.103,361.497 260.510,361.497 260.797 C 361.497 261.084,361.257 261.319,360.963 261.319 C 360.668 261.319,360.428 261.560,360.428 261.854 C 360.428 262.148,360.262 262.389,360.060 262.389 C 359.858 262.389,359.589 262.657,359.463 262.985 C 359.338 263.313,358.941 263.875,358.583 264.233 C 358.225 264.591,357.932 265.125,357.932 265.419 C 357.932 265.713,357.692 265.954,357.398 265.954 C 357.103 265.954,356.863 266.199,356.863 266.500 C 356.863 266.800,356.622 267.138,356.328 267.251 C 356.023 267.368,355.793 267.899,355.793 268.487 C 355.793 269.406,355.482 269.695,354.635 269.561 C 354.488 269.538,354.367 269.807,354.367 270.160 C 354.367 270.513,354.181 270.988,353.954 271.215 C 353.445 271.724,353.453 274.536,353.965 275.494 C 354.558 276.601,355.452 276.648,376.248 276.660 C 392.963 276.670,396.004 276.750,396.592 277.195 C 396.973 277.483,397.895 277.718,398.642 277.718 L 400.000 277.718 400.000 269.519 C 400.000 262.393,399.928 261.319,399.454 261.319 C 399.154 261.319,398.816 261.560,398.703 261.854 C 398.576 262.184,398.034 262.389,397.288 262.389 C 396.442 262.389,396.078 262.552,396.078 262.932 C 396.078 263.946,394.265 264.171,386.094 264.171 C 381.042 264.171,377.855 264.307,377.718 264.528 C 377.305 265.196,376.529 264.918,376.724 264.171 C 376.826 263.779,377.114 263.458,377.364 263.458 C 377.613 263.458,377.923 262.897,378.051 262.210 C 378.191 261.463,378.494 260.963,378.804 260.963 C 379.089 260.963,379.323 260.722,379.323 260.428 C 379.323 260.134,379.563 259.893,379.857 259.893 C 380.152 259.893,380.392 259.670,380.392 259.396 C 380.392 259.123,380.633 258.807,380.927 258.695 C 381.221 258.582,381.462 258.244,381.462 257.943 C 381.462 257.643,381.706 257.398,382.005 257.398 C 382.322 257.398,382.637 256.960,382.758 256.351 C 382.874 255.775,383.190 255.219,383.462 255.114 C 383.735 255.010,383.957 254.438,383.957 253.844 C 383.957 253.121,384.134 252.763,384.492 252.763 C 384.786 252.763,385.027 252.522,385.027 252.228 C 385.027 251.934,385.209 251.693,385.431 251.693 C 385.884 251.693,387.522 250.038,387.522 249.580 C 387.522 249.418,387.763 249.085,388.057 248.841 C 388.351 248.597,388.592 248.107,388.592 247.752 C 388.592 247.397,388.913 247.005,389.305 246.881 C 389.697 246.756,390.018 246.499,390.018 246.310 C 390.018 246.120,390.499 245.495,391.087 244.920 C 391.719 244.302,392.157 243.505,392.157 242.971 C 392.157 242.474,392.335 242.068,392.552 242.068 C 393.166 242.068,394.639 240.531,394.646 239.883 C 394.650 239.564,394.893 239.103,395.187 238.859 C 395.481 238.615,395.722 238.194,395.722 237.924 C 395.722 237.654,395.952 237.433,396.233 237.433 C 396.514 237.433,396.845 237.112,396.970 236.720 C 397.094 236.328,397.354 236.007,397.547 236.007 C 397.740 236.007,398.066 235.526,398.271 234.938 C 398.476 234.349,398.788 233.868,398.965 233.868 C 399.142 233.868,399.287 233.627,399.287 233.333 C 399.287 233.039,399.447 232.799,399.643 232.799 C 399.857 232.799,400.000 231.373,400.000 229.234 L 400.000 225.668 379.501 225.668 C 361.517 225.668,359.002 225.603,359.002 225.134 C 359.002 224.398,354.794 224.357,354.513 225.091 M66.467 226.192 C 66.087 226.480,65.099 226.720,64.273 226.727 C 63.142 226.735,62.676 226.915,62.389 227.451 C 62.179 227.843,61.711 228.164,61.350 228.164 C 60.989 228.164,60.494 228.405,60.250 228.699 C 60.005 228.993,59.580 229.234,59.303 229.234 C 59.027 229.234,58.709 229.474,58.596 229.768 C 58.483 230.062,57.992 230.303,57.504 230.303 C 56.918 230.303,56.555 230.544,56.431 231.016 C 56.329 231.408,56.040 231.729,55.790 231.729 C 55.540 231.729,55.242 231.970,55.130 232.264 C 55.017 232.558,54.679 232.799,54.378 232.799 C 54.078 232.799,53.832 233.039,53.832 233.333 C 53.832 233.627,53.592 233.868,53.298 233.868 C 53.001 233.868,52.763 234.185,52.763 234.581 C 52.763 234.973,52.595 235.294,52.389 235.294 C 51.755 235.294,50.291 237.211,50.279 238.057 C 50.272 238.527,50.046 238.859,49.733 238.859 C 49.406 238.859,49.198 239.192,49.198 239.712 C 49.198 240.182,48.971 240.652,48.694 240.759 C 48.368 240.884,48.099 241.805,47.931 243.368 C 47.789 244.696,47.442 246.014,47.160 246.296 C 46.517 246.939,46.627 255.483,47.283 255.896 C 47.505 256.036,47.803 257.164,47.945 258.404 C 48.107 259.807,48.392 260.730,48.701 260.848 C 48.974 260.953,49.198 261.387,49.198 261.813 C 49.198 262.238,49.687 263.122,50.284 263.776 C 50.882 264.430,51.464 265.428,51.577 265.994 C 51.690 266.560,52.003 267.023,52.273 267.023 C 52.542 267.023,52.763 267.264,52.763 267.558 C 52.763 267.852,53.004 268.093,53.298 268.093 C 53.592 268.093,53.832 268.275,53.832 268.497 C 53.832 268.973,55.499 270.588,55.990 270.588 C 56.176 270.588,56.328 270.829,56.328 271.123 C 56.328 271.475,56.680 271.658,57.356 271.658 C 58.084 271.658,58.438 271.866,58.570 272.371 C 58.706 272.890,59.057 273.084,59.860 273.084 C 60.602 273.084,60.963 273.258,60.963 273.619 C 60.963 273.916,61.279 274.153,61.676 274.153 C 62.072 274.153,62.389 274.391,62.389 274.688 C 62.389 275.092,62.824 275.223,64.171 275.223 C 65.493 275.223,65.954 275.357,65.954 275.741 C 65.954 276.945,83.418 277.045,84.293 275.847 C 84.578 275.457,85.220 275.223,86.003 275.223 C 86.692 275.223,87.456 274.982,87.701 274.688 C 87.945 274.394,88.365 274.153,88.635 274.153 C 88.906 274.153,89.127 273.913,89.127 273.619 C 89.127 273.245,89.503 273.084,90.374 273.084 C 91.384 273.084,91.622 272.948,91.622 272.371 C 91.622 271.815,91.860 271.658,92.703 271.658 C 93.335 271.658,93.869 271.436,93.989 271.123 C 94.102 270.829,94.417 270.588,94.691 270.588 C 94.964 270.588,95.187 270.365,95.187 270.092 C 95.187 269.818,95.428 269.503,95.722 269.390 C 96.016 269.277,96.257 268.939,96.257 268.639 C 96.257 268.330,96.567 268.093,96.970 268.093 C 97.366 268.093,97.683 267.855,97.683 267.558 C 97.683 267.264,97.923 267.023,98.217 267.023 C 98.512 267.023,98.752 266.777,98.752 266.477 C 98.752 266.177,98.993 265.839,99.287 265.726 C 99.585 265.612,99.822 265.082,99.822 264.531 C 99.822 263.841,100.038 263.485,100.535 263.355 C 100.927 263.252,101.253 262.873,101.259 262.511 C 101.265 262.150,101.506 261.542,101.794 261.162 C 102.082 260.781,102.317 260.036,102.317 259.507 C 102.317 258.977,102.558 258.451,102.852 258.338 C 103.301 258.166,103.387 257.053,103.387 251.374 C 103.387 245.841,103.290 244.517,102.852 244.079 C 102.558 243.785,102.317 243.286,102.317 242.970 C 102.317 242.019,100.746 238.874,100.267 238.866 C 100.010 238.862,99.822 238.402,99.822 237.778 C 99.822 237.147,99.600 236.613,99.287 236.493 C 98.993 236.380,98.752 236.064,98.752 235.791 C 98.752 235.518,98.512 235.294,98.217 235.294 C 97.923 235.294,97.683 234.998,97.683 234.636 C 97.683 234.275,97.362 233.688,96.970 233.333 C 96.578 232.978,96.257 232.472,96.257 232.209 C 96.257 231.918,95.852 231.729,95.229 231.729 C 94.501 231.729,94.146 231.521,94.014 231.016 C 93.912 230.624,93.589 230.303,93.298 230.303 C 93.006 230.303,92.676 230.062,92.563 229.768 C 92.450 229.474,92.027 229.234,91.622 229.234 C 91.218 229.234,90.794 228.993,90.682 228.699 C 90.569 228.405,90.238 228.164,89.947 228.164 C 89.656 228.164,89.009 227.843,88.511 227.451 C 87.919 226.985,87.065 226.738,86.048 226.738 C 84.903 226.738,84.492 226.597,84.492 226.203 C 84.492 225.413,67.511 225.403,66.467 226.192 M105.573 226.509 C 104.307 227.857,104.581 231.147,105.971 231.307 L 106.952 231.420 106.952 250.960 L 106.952 270.499 105.882 270.713 C 104.496 270.990,104.245 274.655,105.526 275.936 C 106.710 277.120,120.379 277.024,121.506 275.824 C 122.807 274.440,122.625 271.369,121.212 270.836 L 120.143 270.432 120.143 260.841 C 120.143 252.356,120.204 251.301,120.677 251.693 C 120.971 251.938,121.212 252.437,121.212 252.804 C 121.212 253.170,121.533 253.670,121.925 253.915 C 122.358 254.186,122.638 254.747,122.638 255.344 C 122.638 255.981,122.827 256.328,123.173 256.328 C 123.531 256.328,123.708 256.686,123.708 257.409 C 123.708 258.003,123.929 258.574,124.200 258.678 C 124.471 258.782,124.794 259.496,124.916 260.264 C 125.088 261.339,125.385 261.787,126.206 262.212 C 126.932 262.587,127.273 263.031,127.273 263.602 C 127.273 264.063,127.513 264.640,127.807 264.884 C 128.102 265.128,128.342 265.709,128.342 266.176 C 128.342 266.642,128.640 267.321,129.004 267.685 C 129.367 268.048,129.772 268.770,129.902 269.289 C 130.032 269.807,130.296 270.232,130.488 270.232 C 130.680 270.232,130.838 270.553,130.838 270.945 C 130.838 271.341,131.075 271.658,131.373 271.658 C 131.667 271.658,131.907 271.950,131.907 272.307 C 131.907 275.678,136.965 275.962,137.799 272.637 C 137.927 272.127,138.258 271.623,138.535 271.516 C 138.811 271.410,139.037 270.918,139.037 270.421 C 139.037 269.857,139.238 269.519,139.572 269.519 C 139.946 269.519,140.107 269.142,140.107 268.271 C 140.107 267.442,140.274 267.023,140.604 267.023 C 141.152 267.023,141.533 266.273,141.533 265.190 C 141.533 264.782,141.693 264.584,141.913 264.721 C 142.123 264.850,142.382 264.619,142.490 264.207 C 142.598 263.795,142.908 263.458,143.179 263.458 C 143.450 263.458,143.672 263.122,143.672 262.712 C 143.672 262.302,143.993 261.558,144.385 261.060 C 144.777 260.561,145.098 259.871,145.098 259.527 C 145.098 259.182,145.339 258.807,145.633 258.695 C 145.945 258.575,146.168 258.040,146.168 257.409 C 146.168 256.686,146.345 256.328,146.702 256.328 C 146.996 256.328,147.237 256.087,147.237 255.793 C 147.237 255.499,147.445 255.258,147.698 255.258 C 147.952 255.258,148.313 254.748,148.500 254.123 C 149.458 250.937,149.733 252.615,149.733 261.646 C 149.733 269.357,149.659 270.588,149.198 270.588 C 148.768 270.588,148.663 271.138,148.663 273.396 L 148.663 276.203 149.777 276.426 C 151.209 276.712,164.824 276.718,165.568 276.432 C 166.376 276.122,166.404 270.588,165.597 270.588 C 165.128 270.588,165.062 268.172,165.062 250.980 C 165.062 233.551,165.123 231.373,165.612 231.373 C 166.069 231.373,166.144 230.906,166.058 228.610 L 165.954 225.847 156.239 225.847 C 150.020 225.847,146.513 225.975,146.494 226.203 C 146.444 226.789,145.753 227.457,145.414 227.248 C 145.240 227.140,145.098 227.949,145.098 229.046 C 145.098 230.732,145.211 231.081,145.831 231.310 L 146.565 231.582 145.831 232.245 C 145.380 232.654,145.098 233.351,145.098 234.060 C 145.098 234.911,144.912 235.260,144.385 235.397 C 143.913 235.521,143.672 235.884,143.672 236.470 C 143.672 236.958,143.431 237.449,143.137 237.562 C 142.825 237.682,142.602 238.216,142.602 238.848 C 142.602 239.571,142.425 239.929,142.068 239.929 C 141.774 239.929,141.533 240.161,141.533 240.446 C 141.533 240.730,141.329 241.091,141.080 241.248 C 140.831 241.405,140.433 241.974,140.196 242.513 C 139.959 243.053,139.602 243.494,139.402 243.494 C 139.201 243.494,139.037 243.980,139.037 244.574 C 139.037 245.206,138.815 245.740,138.503 245.860 C 138.198 245.977,137.968 246.509,137.968 247.097 C 137.968 247.776,137.785 248.128,137.433 248.128 C 137.139 248.128,136.898 248.369,136.898 248.663 C 136.898 248.957,136.578 249.519,136.185 249.911 C 135.679 250.417,135.472 250.480,135.472 250.127 C 135.472 249.854,135.255 249.547,134.989 249.445 C 134.724 249.343,134.408 248.657,134.289 247.920 C 134.151 247.069,133.677 246.219,132.989 245.592 C 132.394 245.048,131.907 244.439,131.907 244.238 C 131.907 243.467,130.386 240.998,129.911 240.998 C 129.582 240.998,129.412 240.588,129.412 239.794 C 129.412 239.132,129.171 238.390,128.877 238.146 C 128.583 237.902,128.342 237.401,128.342 237.033 C 128.342 236.665,128.173 236.364,127.967 236.364 C 127.761 236.364,127.429 235.895,127.229 235.323 C 127.030 234.750,126.637 234.194,126.357 234.086 C 126.073 233.977,125.847 233.422,125.847 232.836 C 125.847 232.131,125.640 231.727,125.223 231.618 C 124.641 231.466,124.642 231.452,125.238 231.414 C 125.803 231.377,125.865 231.054,125.773 228.610 L 125.668 225.847 116.021 225.752 L 106.374 225.657 105.573 226.509 M168.997 226.358 C 168.391 227.489,168.520 231.373,169.162 231.373 C 169.631 231.373,169.697 233.789,169.697 250.980 C 169.697 268.172,169.631 270.588,169.162 270.588 C 168.224 270.588,168.408 275.793,169.364 276.305 C 170.435 276.878,185.192 276.627,185.793 276.026 C 186.506 275.312,186.400 271.694,185.651 271.145 C 185.307 270.893,185.027 270.425,185.027 270.103 C 185.027 269.782,184.786 269.519,184.492 269.519 C 184.024 269.519,183.957 267.245,183.957 251.197 C 183.957 235.240,184.026 232.848,184.492 232.670 C 184.786 232.557,185.027 232.277,185.027 232.047 C 185.027 231.817,185.298 231.431,185.630 231.188 C 186.643 230.448,186.463 227.199,185.363 226.354 C 184.007 225.311,169.554 225.315,168.997 226.358 M207.287 226.192 C 206.907 226.480,205.919 226.720,205.093 226.727 C 203.962 226.735,203.496 226.915,203.209 227.451 C 202.983 227.872,202.462 228.164,201.937 228.164 C 201.448 228.164,200.955 228.405,200.842 228.699 C 200.729 228.993,200.408 229.234,200.129 229.234 C 199.850 229.234,199.529 229.474,199.416 229.768 C 199.299 230.073,198.767 230.303,198.179 230.303 C 197.386 230.303,197.148 230.467,197.148 231.016 C 197.148 231.542,196.910 231.729,196.240 231.729 C 195.151 231.729,193.610 233.338,193.594 234.492 C 193.588 234.933,193.398 235.294,193.171 235.294 C 192.408 235.294,190.018 238.143,190.018 239.052 C 190.018 239.553,189.810 239.929,189.534 239.929 C 189.203 239.929,188.977 240.627,188.820 242.130 C 188.693 243.341,188.350 244.597,188.056 244.921 C 187.715 245.297,187.522 246.235,187.522 247.516 C 187.522 248.619,187.334 249.934,187.104 250.439 C 186.784 251.141,186.784 251.455,187.104 251.774 C 187.334 252.005,187.522 253.190,187.522 254.413 C 187.522 255.917,187.696 256.807,188.060 257.171 C 188.356 257.467,188.699 258.673,188.822 259.851 C 188.959 261.159,189.235 262.066,189.532 262.180 C 189.799 262.282,190.018 262.777,190.018 263.280 C 190.018 263.782,190.258 264.286,190.553 264.399 C 190.847 264.512,191.087 264.769,191.087 264.971 C 191.087 265.418,192.775 267.023,193.245 267.023 C 193.431 267.023,193.583 267.264,193.583 267.558 C 193.583 267.852,193.824 268.093,194.118 268.093 C 194.412 268.093,194.652 268.348,194.652 268.659 C 194.652 269.290,196.009 270.558,196.702 270.576 C 196.947 270.583,197.148 270.829,197.148 271.123 C 197.148 271.477,197.502 271.658,198.193 271.658 C 198.926 271.658,199.307 271.871,199.465 272.371 C 199.624 272.870,200.005 273.084,200.737 273.084 C 201.429 273.084,201.783 273.265,201.783 273.619 C 201.783 273.913,202.086 274.153,202.457 274.153 C 202.829 274.153,203.225 274.394,203.337 274.688 C 203.475 275.045,204.037 275.223,205.030 275.223 C 206.034 275.223,206.665 275.425,206.973 275.847 C 207.385 276.410,208.239 276.471,215.798 276.471 C 223.269 276.471,224.242 276.404,224.857 275.847 C 225.283 275.461,226.118 275.223,227.045 275.223 C 228.048 275.223,228.611 275.046,228.748 274.688 C 228.861 274.394,229.182 274.153,229.461 274.153 C 229.740 274.153,230.061 273.913,230.174 273.619 C 230.312 273.259,230.878 273.084,231.904 273.084 C 233.129 273.084,233.465 272.944,233.615 272.371 C 233.751 271.852,234.101 271.658,234.904 271.658 C 235.647 271.658,236.007 271.483,236.007 271.123 C 236.007 270.693,236.553 270.588,238.780 270.588 C 242.363 270.588,243.137 270.108,243.137 267.883 C 243.137 266.794,242.968 266.223,242.602 266.083 C 242.308 265.970,242.068 265.654,242.068 265.381 C 242.068 265.108,241.773 264.884,241.413 264.884 C 240.892 264.884,240.747 264.581,240.700 263.401 C 240.655 262.245,240.407 261.708,239.573 260.963 C 238.984 260.438,238.503 259.857,238.503 259.673 C 238.503 259.489,238.182 259.064,237.790 258.728 C 237.398 258.392,237.077 257.798,237.077 257.408 C 237.077 256.523,235.848 256.173,233.625 256.423 C 231.759 256.634,231.386 257.047,231.378 258.913 C 231.374 259.861,231.217 260.250,230.838 260.250 C 230.544 260.250,230.303 260.490,230.303 260.784 C 230.303 261.078,230.057 261.319,229.757 261.319 C 229.457 261.319,229.119 261.560,229.006 261.854 C 228.868 262.214,228.303 262.389,227.278 262.389 C 226.360 262.389,225.580 262.601,225.312 262.923 C 225.068 263.217,224.592 263.458,224.254 263.458 C 223.916 263.458,223.350 263.779,222.995 264.171 C 222.268 264.974,212.834 265.298,212.834 264.520 C 212.834 264.320,212.393 263.961,211.854 263.722 C 211.315 263.483,210.661 263.086,210.402 262.838 C 210.143 262.591,209.381 262.389,208.709 262.389 C 207.860 262.389,207.487 262.225,207.487 261.854 C 207.487 261.560,207.246 261.319,206.952 261.319 C 206.658 261.319,206.417 261.078,206.417 260.784 C 206.417 260.490,206.176 260.250,205.882 260.250 C 205.588 260.250,205.348 260.067,205.348 259.845 C 205.348 259.369,203.681 257.754,203.190 257.754 C 203.004 257.754,202.852 257.268,202.852 256.673 C 202.852 256.042,202.630 255.507,202.317 255.387 C 201.883 255.221,201.783 254.382,201.783 250.942 C 201.783 247.411,201.872 246.702,202.317 246.702 C 202.674 246.702,202.852 246.346,202.852 245.633 C 202.852 244.920,203.030 244.563,203.387 244.563 C 203.681 244.563,203.922 244.358,203.922 244.108 C 203.922 243.857,204.242 243.377,204.635 243.042 C 205.027 242.706,205.348 242.109,205.348 241.715 C 205.348 241.156,205.584 240.998,206.417 240.998 C 207.104 240.998,207.487 240.817,207.487 240.492 C 207.487 240.213,207.955 239.883,208.526 239.757 C 209.098 239.631,209.655 239.298,209.763 239.016 C 209.871 238.734,210.205 238.503,210.506 238.503 C 210.806 238.503,211.052 238.262,211.052 237.968 C 211.052 237.512,212.022 237.433,217.647 237.433 C 223.272 237.433,224.242 237.512,224.242 237.968 C 224.242 238.262,224.544 238.503,224.912 238.503 C 225.280 238.503,225.781 238.743,226.025 239.037 C 226.269 239.332,226.734 239.572,227.059 239.572 C 227.383 239.572,227.924 239.893,228.260 240.285 C 228.595 240.677,229.192 240.998,229.587 240.998 C 229.986 240.998,230.303 241.235,230.303 241.533 C 230.303 241.827,230.544 242.068,230.838 242.068 C 231.197 242.068,231.373 242.427,231.373 243.161 C 231.373 245.275,231.839 245.633,234.594 245.633 C 236.839 245.633,237.077 245.565,237.077 244.920 C 237.077 244.528,237.398 243.886,237.790 243.494 C 238.182 243.102,238.503 242.466,238.503 242.080 C 238.503 241.695,238.864 241.190,239.305 240.957 C 240.387 240.387,240.630 239.957,240.636 238.592 C 240.641 237.673,240.789 237.433,241.355 237.433 C 241.817 237.433,242.068 237.195,242.068 236.758 C 242.068 236.387,242.308 235.991,242.602 235.878 C 242.953 235.744,243.137 235.188,243.137 234.265 C 243.137 231.815,243.027 231.729,239.891 231.729 C 237.732 231.729,237.077 231.614,237.077 231.236 C 237.077 230.725,236.034 230.316,234.708 230.308 C 234.288 230.305,233.852 230.062,233.739 229.768 C 233.626 229.474,233.308 229.234,233.032 229.234 C 232.755 229.234,232.330 228.993,232.086 228.699 C 231.841 228.405,231.260 228.164,230.794 228.164 C 230.307 228.164,229.947 227.953,229.947 227.667 C 229.947 226.994,229.152 226.738,227.065 226.738 C 225.744 226.738,225.312 226.606,225.312 226.203 C 225.312 225.413,208.331 225.403,207.287 226.192 M244.991 226.096 C 244.742 226.345,244.563 227.538,244.563 228.948 L 244.563 231.373 245.688 231.373 C 246.759 231.373,246.784 231.404,246.217 232.031 C 245.676 232.629,245.623 234.410,245.639 251.529 C 245.655 268.101,245.591 270.405,245.110 270.674 C 244.053 271.266,244.354 275.874,245.478 276.301 C 246.462 276.675,259.901 276.780,261.230 276.424 C 262.248 276.151,262.503 270.588,261.497 270.588 C 261.041 270.588,260.963 269.618,260.963 263.993 L 260.963 257.398 264.973 257.402 C 269.932 257.408,270.588 257.562,270.588 258.714 C 270.588 259.548,273.302 263.458,273.881 263.458 C 274.031 263.458,274.153 263.864,274.153 264.361 C 274.153 264.857,274.394 265.355,274.688 265.468 C 274.982 265.581,275.223 265.977,275.223 266.348 C 275.223 266.719,275.463 267.023,275.758 267.023 C 276.066 267.023,276.292 267.345,276.292 267.783 C 276.292 268.201,276.829 269.049,277.484 269.667 C 278.469 270.596,278.593 270.869,278.197 271.239 C 277.366 272.015,277.587 274.975,278.543 275.874 C 279.550 276.819,295.858 277.101,297.098 276.195 C 298.254 275.349,297.787 270.799,296.529 270.654 C 295.522 270.538,293.011 268.392,292.594 267.291 C 292.464 266.947,292.192 266.667,291.990 266.667 C 291.788 266.667,291.622 266.266,291.622 265.775 C 291.622 265.221,291.420 264.884,291.087 264.884 C 290.793 264.884,290.553 264.638,290.553 264.338 C 290.553 264.038,290.323 263.704,290.043 263.597 C 289.762 263.489,289.370 262.933,289.170 262.360 C 288.970 261.787,288.638 261.319,288.432 261.319 C 288.226 261.319,288.057 261.086,288.057 260.802 C 288.057 260.518,287.853 260.157,287.604 260.000 C 287.355 259.843,286.956 259.314,286.718 258.824 C 286.480 258.333,286.023 257.571,285.702 257.130 C 285.149 256.371,285.156 256.328,285.836 256.328 C 286.231 256.328,286.647 256.087,286.760 255.793 C 286.873 255.499,287.293 255.258,287.693 255.258 C 288.093 255.258,288.695 254.938,289.031 254.545 C 289.367 254.153,289.847 253.832,290.097 253.832 C 290.348 253.832,290.553 253.592,290.553 253.298 C 290.553 253.004,290.793 252.763,291.087 252.763 C 291.381 252.763,291.622 252.522,291.622 252.228 C 291.622 251.934,291.852 251.693,292.133 251.693 C 292.414 251.693,292.745 251.373,292.870 250.980 C 292.994 250.588,293.308 250.267,293.566 250.267 C 294.355 250.267,295.187 248.595,295.199 246.982 C 295.205 246.142,295.445 245.143,295.733 244.763 C 296.035 244.363,296.257 243.298,296.257 242.246 C 296.257 241.194,296.035 240.129,295.733 239.729 C 295.406 239.296,295.206 238.199,295.199 236.798 C 295.190 235.144,295.047 234.505,294.652 234.354 C 294.358 234.241,294.118 233.960,294.118 233.731 C 294.118 233.501,293.797 233.039,293.405 232.703 C 293.012 232.367,292.692 231.783,292.692 231.404 C 292.692 230.930,292.360 230.643,291.622 230.481 C 291.034 230.352,290.553 230.018,290.553 229.740 C 290.553 229.461,290.249 229.234,289.878 229.234 C 289.507 229.234,289.111 228.993,288.998 228.699 C 288.885 228.405,288.467 228.164,288.068 228.164 C 287.670 228.164,287.023 227.843,286.631 227.451 C 286.056 226.876,285.443 226.738,283.461 226.738 C 281.605 226.738,280.953 226.607,280.798 226.203 C 280.524 225.489,245.702 225.385,244.991 226.096 M300.802 226.054 C 299.949 226.550,299.869 231.373,300.713 231.373 C 301.180 231.373,301.248 233.331,301.248 246.855 C 301.248 260.142,301.324 262.413,301.783 262.872 C 302.077 263.167,302.317 263.980,302.317 264.680 C 302.317 265.478,302.583 266.220,303.030 266.667 C 303.422 267.059,303.743 267.540,303.743 267.736 C 303.743 267.932,303.984 268.093,304.278 268.093 C 304.652 268.093,304.813 268.469,304.813 269.340 C 304.813 270.212,304.974 270.588,305.348 270.588 C 305.642 270.588,305.882 270.829,305.882 271.123 C 305.882 271.417,306.178 271.658,306.540 271.658 C 306.902 271.658,307.488 271.979,307.843 272.371 C 308.198 272.763,308.687 273.084,308.930 273.084 C 309.173 273.084,309.463 273.324,309.576 273.619 C 309.689 273.913,310.088 274.153,310.462 274.153 C 310.836 274.153,311.342 274.394,311.586 274.688 C 311.870 275.030,312.658 275.223,313.769 275.223 C 315.012 275.223,315.508 275.364,315.508 275.716 C 315.508 276.532,316.727 276.639,326.025 276.639 C 335.322 276.639,336.542 276.532,336.542 275.716 C 336.542 275.351,337.099 275.223,338.692 275.223 C 340.275 275.223,340.897 275.082,341.048 274.688 C 341.160 274.394,341.481 274.153,341.761 274.153 C 342.040 274.153,342.361 273.913,342.474 273.619 C 342.586 273.324,343.057 273.084,343.519 273.084 C 343.995 273.084,344.526 272.774,344.742 272.371 C 344.951 271.979,345.358 271.658,345.645 271.658 C 345.933 271.658,346.168 271.417,346.168 271.123 C 346.168 270.829,346.408 270.588,346.702 270.588 C 346.996 270.588,347.237 270.365,347.237 270.092 C 347.237 269.818,347.463 269.508,347.738 269.403 C 348.014 269.297,348.347 268.720,348.479 268.121 C 348.610 267.522,348.849 266.950,349.010 266.851 C 350.684 265.817,350.802 264.588,350.802 248.284 C 350.802 234.828,350.873 232.749,351.337 232.571 C 351.631 232.458,351.872 232.195,351.872 231.986 C 351.872 231.778,352.138 231.313,352.463 230.954 C 353.242 230.093,353.218 227.219,352.426 226.426 C 351.509 225.508,336.587 225.350,335.928 226.251 C 335.106 227.375,335.327 231.373,336.210 231.373 C 337.420 231.373,337.140 260.366,335.918 261.587 C 335.477 262.028,334.973 262.389,334.798 262.389 C 334.622 262.389,334.393 262.614,334.287 262.890 C 334.181 263.165,333.613 263.497,333.026 263.626 C 332.438 263.755,331.765 264.091,331.532 264.372 C 331.018 264.991,322.118 265.128,321.744 264.522 C 321.621 264.323,321.009 263.913,320.386 263.611 C 318.056 262.483,317.647 262.208,317.647 261.769 C 317.647 261.522,317.406 261.319,317.112 261.319 C 316.712 261.319,316.577 260.893,316.577 259.626 C 316.577 258.694,316.567 252.237,316.554 245.276 C 316.542 238.316,316.542 232.340,316.555 231.996 C 316.567 231.653,316.818 231.373,317.112 231.373 C 318.010 231.373,317.869 226.526,316.957 226.037 C 316.046 225.550,301.643 225.564,300.802 226.054 M80.085 237.968 C 80.198 238.262,80.688 238.503,81.174 238.503 C 81.735 238.503,82.460 238.957,83.162 239.750 C 83.825 240.499,84.597 240.998,85.092 240.998 C 85.589 240.998,85.918 241.212,85.918 241.533 C 85.918 241.827,86.159 242.068,86.453 242.068 C 86.807 242.068,86.988 242.422,86.988 243.120 C 86.988 243.698,87.204 244.300,87.469 244.456 C 87.734 244.613,88.051 245.615,88.173 246.683 C 88.309 247.864,88.610 248.744,88.940 248.929 C 89.676 249.341,89.721 253.119,88.990 253.119 C 88.465 253.119,88.077 254.150,88.051 255.615 C 88.042 256.105,87.799 256.818,87.511 257.198 C 87.223 257.579,86.988 258.098,86.988 258.353 C 86.988 258.984,85.864 260.250,85.304 260.250 C 85.053 260.250,84.848 260.490,84.848 260.784 C 84.848 261.078,84.603 261.319,84.303 261.319 C 84.002 261.319,83.664 261.560,83.551 261.854 C 83.439 262.148,82.957 262.389,82.482 262.389 C 82.006 262.389,81.525 262.629,81.412 262.923 C 81.299 263.217,81.009 263.458,80.766 263.458 C 80.523 263.458,80.034 263.779,79.679 264.171 C 79.100 264.811,78.581 264.884,74.633 264.884 C 70.469 264.884,70.232 264.846,70.232 264.171 C 70.232 263.779,70.008 263.458,69.735 263.458 C 69.462 263.458,69.146 263.217,69.033 262.923 C 68.913 262.611,68.379 262.389,67.747 262.389 C 67.024 262.389,66.667 262.212,66.667 261.854 C 66.667 261.560,66.426 261.319,66.132 261.319 C 65.838 261.319,65.597 261.162,65.597 260.969 C 65.597 260.777,65.036 260.041,64.349 259.334 C 63.497 258.456,63.102 257.717,63.102 256.999 C 63.102 256.395,62.875 255.862,62.567 255.744 C 62.130 255.576,62.032 254.704,62.032 250.986 C 62.032 247.374,62.143 246.341,62.567 245.989 C 62.861 245.745,63.102 245.165,63.102 244.701 C 63.102 244.236,63.422 243.656,63.815 243.411 C 64.207 243.166,64.528 242.844,64.528 242.695 C 64.528 242.299,65.894 240.998,66.310 240.998 C 66.506 240.998,66.673 240.798,66.682 240.553 C 66.699 240.035,68.971 238.503,69.722 238.503 C 70.002 238.503,70.232 238.262,70.232 237.968 C 70.232 237.519,71.005 237.433,75.056 237.433 C 79.015 237.433,79.917 237.529,80.085 237.968 M278.788 237.968 C 278.788 238.262,279.051 238.503,279.372 238.503 C 280.418 238.503,280.904 239.652,280.916 242.157 C 280.927 244.497,280.902 244.563,280.024 244.563 C 279.528 244.563,279.030 244.804,278.917 245.098 C 278.742 245.554,277.397 245.633,269.837 245.633 L 260.963 245.633 260.963 241.533 L 260.963 237.433 269.875 237.433 C 277.560 237.433,278.788 237.507,278.788 237.968 " stroke="none" fill="#a96618" fill-rule="evenodd"></path><path id="path1" d="M176.855 36.264 C 176.577 36.374,175.930 36.892,175.419 37.415 C 174.908 37.938,174.213 38.472,173.876 38.601 C 173.538 38.731,173.262 38.990,173.262 39.176 C 173.262 39.363,172.781 39.621,172.193 39.750 C 171.604 39.880,171.123 40.213,171.123 40.492 C 171.123 40.770,170.900 40.998,170.626 40.998 C 170.353 40.998,170.037 41.239,169.925 41.533 C 169.812 41.827,169.474 42.068,169.173 42.068 C 168.873 42.068,168.627 42.308,168.627 42.602 C 168.627 42.897,168.387 43.137,168.093 43.137 C 167.799 43.137,167.237 43.458,166.845 43.850 C 166.453 44.242,165.891 44.563,165.597 44.563 C 165.303 44.563,165.062 44.804,165.062 45.098 C 165.062 45.455,164.706 45.633,163.993 45.633 C 163.405 45.633,162.923 45.786,162.923 45.973 C 162.923 46.415,161.210 48.128,160.768 48.128 C 160.581 48.128,160.428 48.369,160.428 48.663 C 160.428 49.129,159.777 49.376,158.913 49.240 C 158.766 49.217,158.685 49.395,158.734 49.635 C 158.783 49.875,158.444 50.130,157.980 50.200 C 157.516 50.270,157.056 50.635,156.958 51.011 C 156.860 51.386,156.584 51.693,156.346 51.693 C 156.107 51.693,155.444 52.170,154.872 52.753 C 154.300 53.336,153.471 53.817,153.030 53.823 C 152.469 53.829,152.228 54.047,152.228 54.545 C 152.228 55.123,151.990 55.258,150.980 55.258 C 150.109 55.258,149.733 55.420,149.733 55.793 C 149.733 56.087,149.492 56.328,149.198 56.328 C 148.904 56.328,148.663 56.569,148.663 56.863 C 148.663 57.157,148.417 57.398,148.117 57.398 C 147.817 57.398,147.483 57.627,147.376 57.907 C 147.268 58.188,146.711 58.580,146.139 58.780 C 145.566 58.980,145.098 59.312,145.098 59.518 C 145.098 59.724,144.893 59.893,144.643 59.893 C 144.392 59.893,143.906 60.221,143.563 60.621 C 143.221 61.022,142.780 61.250,142.584 61.129 C 142.388 61.009,142.272 61.111,142.326 61.358 C 142.380 61.604,141.983 62.026,141.444 62.295 C 140.905 62.564,140.463 62.936,140.463 63.121 C 140.463 63.306,140.143 63.458,139.750 63.458 C 139.354 63.458,139.037 63.696,139.037 63.993 C 139.037 64.327,138.699 64.528,138.135 64.528 C 137.639 64.528,137.143 64.762,137.033 65.049 C 136.923 65.335,136.526 65.667,136.152 65.786 C 135.778 65.905,135.472 66.232,135.472 66.512 C 135.472 66.793,135.232 67.023,134.938 67.023 C 134.643 67.023,134.400 67.224,134.396 67.469 C 134.392 67.714,133.589 68.278,132.613 68.723 C 131.637 69.168,130.838 69.770,130.838 70.060 C 130.838 70.378,130.501 70.588,129.991 70.588 C 129.117 70.588,126.203 73.025,126.203 73.755 C 126.203 73.974,125.822 74.153,125.356 74.153 C 124.889 74.153,124.308 74.394,124.064 74.688 C 123.820 74.982,123.399 75.223,123.129 75.223 C 122.859 75.223,122.638 75.451,122.638 75.729 C 122.638 76.008,122.170 76.338,121.598 76.464 C 121.027 76.590,120.470 76.923,120.362 77.205 C 120.254 77.488,119.919 77.718,119.619 77.718 C 119.319 77.718,119.073 77.959,119.073 78.253 C 119.073 78.547,118.827 78.788,118.527 78.788 C 118.227 78.788,117.896 79.011,117.791 79.283 C 117.687 79.555,117.130 79.872,116.555 79.987 C 115.946 80.109,115.508 80.424,115.508 80.740 C 115.508 81.039,115.267 81.283,114.973 81.283 C 114.372 81.283,113.012 82.519,113.012 83.066 C 113.012 83.262,112.772 83.422,112.478 83.422 C 112.074 83.422,111.943 83.858,111.943 85.205 C 111.943 86.933,111.974 86.988,112.974 86.988 C 113.562 86.988,114.094 87.217,114.211 87.522 C 114.324 87.816,114.643 88.057,114.920 88.057 C 115.198 88.057,115.509 88.378,115.611 88.770 C 115.764 89.353,116.098 89.483,117.435 89.483 C 118.653 89.483,119.073 89.620,119.073 90.018 C 119.073 90.376,119.431 90.553,120.154 90.553 C 120.786 90.553,121.320 90.775,121.440 91.087 C 121.578 91.447,122.143 91.622,123.169 91.622 C 124.394 91.622,124.731 91.762,124.880 92.335 C 124.983 92.727,125.305 93.048,125.597 93.048 C 125.888 93.048,126.219 93.289,126.332 93.583 C 126.452 93.895,126.986 94.118,127.618 94.118 C 128.355 94.118,128.699 94.293,128.699 94.668 C 128.699 94.971,128.899 95.192,129.144 95.161 C 130.742 94.953,131.837 95.235,132.011 95.900 C 132.146 96.419,132.497 96.613,133.300 96.613 C 134.043 96.613,134.403 96.788,134.403 97.148 C 134.403 97.442,134.707 97.683,135.078 97.683 C 135.449 97.683,135.845 97.923,135.958 98.217 C 136.092 98.567,136.647 98.752,137.559 98.752 C 138.654 98.752,138.994 98.905,139.141 99.465 C 139.276 99.984,139.627 100.178,140.430 100.178 C 141.173 100.178,141.533 100.353,141.533 100.713 C 141.533 101.117,141.969 101.248,143.316 101.248 C 144.662 101.248,145.098 101.378,145.098 101.783 C 145.098 102.080,145.415 102.317,145.811 102.317 C 146.203 102.317,146.524 102.545,146.524 102.824 C 146.524 103.102,147.005 103.436,147.594 103.565 C 148.182 103.694,148.663 104.028,148.663 104.306 C 148.663 104.633,149.048 104.813,149.744 104.813 C 150.376 104.813,150.910 105.035,151.030 105.348 C 151.169 105.711,151.738 105.882,152.801 105.882 C 153.902 105.882,154.367 106.030,154.367 106.379 C 154.367 106.891,155.105 107.308,156.013 107.308 C 156.297 107.308,157.001 107.790,157.576 108.378 C 158.386 109.206,158.936 109.447,160.018 109.447 C 161.114 109.447,161.454 109.601,161.601 110.160 C 161.735 110.673,162.087 110.873,162.852 110.873 C 163.469 110.873,164.003 111.098,164.122 111.408 C 164.235 111.702,164.739 111.943,165.241 111.943 C 165.780 111.943,166.570 112.367,167.162 112.973 C 167.795 113.620,168.717 114.095,169.646 114.252 C 170.563 114.406,171.123 114.692,171.123 115.005 C 171.123 115.329,171.513 115.508,172.218 115.508 C 172.820 115.508,173.554 115.749,173.848 116.043 C 174.142 116.337,174.933 116.578,175.605 116.578 C 176.454 116.578,176.827 116.741,176.827 117.112 C 176.827 117.406,176.963 117.647,177.129 117.647 C 177.295 117.647,177.801 117.968,178.253 118.360 C 178.705 118.752,179.377 119.073,179.745 119.073 C 180.113 119.073,180.507 119.314,180.620 119.608 C 180.759 119.971,181.328 120.143,182.391 120.143 C 183.546 120.143,183.957 120.283,183.957 120.677 C 183.957 120.971,184.265 121.212,184.641 121.212 C 185.704 121.212,186.453 121.596,186.453 122.142 C 186.453 122.427,186.814 122.638,187.300 122.638 C 187.767 122.638,188.348 122.879,188.592 123.173 C 188.836 123.467,189.239 123.708,189.489 123.708 C 189.738 123.708,190.034 123.948,190.147 124.242 C 190.287 124.609,190.860 124.777,191.967 124.777 C 193.345 124.777,193.583 124.882,193.583 125.490 C 193.583 126.067,193.821 126.203,194.831 126.203 C 195.702 126.203,196.078 126.364,196.078 126.738 C 196.078 127.094,196.435 127.273,197.148 127.273 C 197.736 127.273,198.217 127.438,198.217 127.640 C 198.217 127.843,198.486 128.111,198.814 128.237 C 199.142 128.363,199.704 128.759,200.062 129.117 C 200.420 129.475,201.177 129.768,201.744 129.768 C 202.332 129.768,202.864 129.998,202.981 130.303 C 203.513 131.689,207.487 130.308,207.487 128.738 C 207.487 128.520,207.710 128.342,207.983 128.342 C 208.256 128.342,208.572 128.102,208.685 127.807 C 208.798 127.513,209.136 127.273,209.436 127.273 C 209.736 127.273,209.982 127.032,209.982 126.738 C 209.982 126.444,210.223 126.203,210.517 126.203 C 210.814 126.203,211.052 125.886,211.052 125.490 C 211.052 125.015,211.289 124.777,211.765 124.777 C 212.161 124.777,212.478 124.540,212.478 124.242 C 212.478 123.948,212.718 123.708,213.012 123.708 C 213.307 123.708,213.547 123.467,213.547 123.173 C 213.547 122.842,213.883 122.638,214.426 122.638 C 214.940 122.638,215.463 122.342,215.686 121.925 C 215.896 121.533,216.303 121.212,216.590 121.212 C 216.877 121.212,217.112 120.971,217.112 120.677 C 217.112 120.383,217.353 120.143,217.647 120.143 C 217.941 120.143,218.182 119.902,218.182 119.608 C 218.182 119.314,218.437 119.073,218.749 119.073 C 219.379 119.073,220.647 117.717,220.666 117.023 C 220.672 116.778,220.987 116.578,221.365 116.578 C 221.743 116.578,222.264 116.368,222.524 116.112 C 222.783 115.856,223.275 115.540,223.619 115.410 C 223.962 115.280,224.242 114.928,224.242 114.628 C 224.242 114.328,224.483 114.082,224.777 114.082 C 225.071 114.082,225.312 113.841,225.312 113.547 C 225.312 113.253,225.558 113.012,225.858 113.012 C 226.158 113.012,226.496 112.772,226.609 112.478 C 226.722 112.184,227.038 111.943,227.311 111.943 C 227.584 111.943,227.807 111.719,227.807 111.446 C 227.807 111.173,228.048 110.857,228.342 110.745 C 228.636 110.632,228.877 110.294,228.877 109.993 C 228.877 109.644,229.209 109.447,229.799 109.447 C 230.497 109.447,230.820 109.187,231.125 108.378 C 231.347 107.790,231.734 107.308,231.985 107.308 C 232.237 107.308,232.442 106.988,232.442 106.595 C 232.442 106.039,232.680 105.882,233.523 105.882 C 234.124 105.882,234.689 105.659,234.796 105.380 C 234.902 105.103,235.376 104.780,235.849 104.661 C 237.261 104.307,237.866 99.757,236.596 99.046 C 236.272 98.865,236.007 98.484,236.007 98.200 C 236.007 97.915,235.766 97.683,235.472 97.683 C 235.178 97.683,234.938 97.442,234.938 97.148 C 234.938 96.854,234.785 96.613,234.599 96.613 C 234.108 96.613,232.442 94.998,232.442 94.522 C 232.442 94.300,232.201 94.118,231.907 94.118 C 231.577 94.118,231.373 93.782,231.373 93.239 C 231.373 92.725,231.076 92.202,230.660 91.979 C 230.267 91.769,229.947 91.362,229.947 91.075 C 229.947 90.788,229.706 90.553,229.412 90.553 C 229.118 90.553,228.877 90.312,228.877 90.018 C 228.877 89.724,228.636 89.483,228.342 89.483 C 228.048 89.483,227.807 89.242,227.807 88.948 C 227.807 88.654,227.567 88.414,227.273 88.414 C 226.973 88.414,226.738 88.095,226.738 87.689 C 226.738 87.290,226.176 86.402,225.490 85.716 C 224.804 85.030,224.242 84.401,224.242 84.318 C 224.242 84.017,222.418 82.353,222.087 82.353 C 221.900 82.353,221.747 82.112,221.747 81.818 C 221.747 81.524,221.506 81.283,221.212 81.283 C 220.887 81.283,220.677 80.952,220.677 80.436 C 220.677 79.970,220.437 79.388,220.143 79.144 C 219.848 78.900,219.608 78.820,219.608 78.966 C 219.608 79.112,219.393 79.053,219.129 78.835 C 218.866 78.616,218.532 78.556,218.387 78.702 C 218.241 78.847,218.155 78.806,218.194 78.610 C 218.396 77.612,218.127 76.649,217.647 76.649 C 217.350 76.649,217.112 76.332,217.112 75.936 C 217.112 75.540,216.875 75.223,216.578 75.223 C 216.283 75.223,216.043 74.982,216.043 74.688 C 216.043 74.391,215.726 74.153,215.330 74.153 C 214.854 74.153,214.617 73.916,214.617 73.440 C 214.617 73.044,214.379 72.727,214.082 72.727 C 213.788 72.727,213.547 72.500,213.547 72.223 C 213.547 71.946,212.986 71.141,212.299 70.434 C 211.613 69.727,211.052 68.912,211.052 68.621 C 211.052 68.330,210.811 68.093,210.517 68.093 C 210.223 68.093,209.982 67.920,209.982 67.708 C 209.982 67.187,207.345 64.528,206.829 64.528 C 206.603 64.528,206.417 64.287,206.417 63.993 C 206.417 63.699,206.176 63.458,205.882 63.458 C 205.550 63.458,205.348 63.122,205.348 62.570 C 205.348 62.068,205.038 61.488,204.635 61.236 C 204.242 60.991,203.922 60.589,203.922 60.342 C 203.922 60.095,203.681 59.893,203.387 59.893 C 203.093 59.893,202.852 59.652,202.852 59.358 C 202.852 59.064,202.611 58.824,202.317 58.824 C 202.023 58.824,201.783 58.528,201.783 58.166 C 201.783 57.804,201.462 57.218,201.070 56.863 C 200.677 56.508,200.357 56.002,200.357 55.738 C 200.357 55.474,200.116 55.258,199.822 55.258 C 199.528 55.258,199.287 55.013,199.287 54.713 C 199.287 54.412,199.006 54.060,198.663 53.930 C 197.871 53.630,197.350 53.109,197.050 52.317 C 196.920 51.974,196.568 51.693,196.268 51.693 C 195.960 51.693,195.722 51.383,195.722 50.980 C 195.722 50.584,195.484 50.267,195.187 50.267 C 194.893 50.267,194.652 50.107,194.652 49.911 C 194.652 49.715,194.332 49.234,193.939 48.841 C 193.547 48.449,193.226 47.888,193.226 47.594 C 193.226 47.299,192.986 47.059,192.692 47.059 C 192.395 47.059,192.157 46.742,192.157 46.346 C 192.157 45.950,191.919 45.633,191.622 45.633 C 191.328 45.633,191.087 45.392,191.087 45.098 C 191.087 44.804,190.847 44.563,190.553 44.563 C 190.258 44.563,190.018 44.308,190.018 43.995 C 190.018 43.683,189.697 43.343,189.305 43.241 C 188.913 43.138,188.592 42.832,188.592 42.561 C 188.592 42.290,188.351 42.068,188.057 42.068 C 187.763 42.068,187.522 41.827,187.522 41.533 C 187.522 41.239,187.282 40.998,186.988 40.998 C 186.627 40.998,186.453 40.638,186.453 39.895 C 186.453 39.092,186.259 38.742,185.740 38.606 C 185.348 38.503,185.027 38.198,185.027 37.926 C 185.027 37.655,184.805 37.433,184.534 37.433 C 184.262 37.433,183.956 37.112,183.854 36.720 C 183.668 36.008,178.375 35.663,176.855 36.264 M104.813 91.266 C 104.813 91.820,104.575 91.979,103.743 91.979 C 103.030 91.979,102.674 92.157,102.674 92.513 C 102.674 92.810,102.357 93.048,101.961 93.048 C 101.565 93.048,101.248 93.286,101.248 93.583 C 101.248 93.930,100.900 94.118,100.257 94.118 C 99.708 94.118,98.995 94.435,98.657 94.831 C 98.321 95.223,97.724 95.544,97.330 95.544 C 96.930 95.544,96.613 95.780,96.613 96.078 C 96.613 96.436,96.255 96.613,95.532 96.613 C 94.901 96.613,94.367 96.835,94.247 97.148 C 94.134 97.442,93.818 97.683,93.545 97.683 C 93.272 97.683,93.048 97.905,93.048 98.178 C 93.048 98.461,92.515 98.773,91.800 98.907 C 91.053 99.047,90.553 99.349,90.553 99.660 C 90.553 99.994,90.186 100.178,89.521 100.178 C 88.933 100.178,88.402 100.408,88.285 100.713 C 88.172 101.007,87.668 101.248,87.166 101.248 C 86.640 101.248,86.155 101.501,86.023 101.844 C 85.666 102.776,84.684 103.618,83.652 103.877 C 83.134 104.007,82.709 104.271,82.709 104.463 C 82.709 104.655,82.384 104.813,81.985 104.813 C 81.587 104.813,81.176 105.035,81.072 105.306 C 80.968 105.577,80.245 105.900,79.465 106.025 C 78.686 106.150,77.956 106.489,77.845 106.780 C 77.733 107.071,77.419 107.308,77.145 107.308 C 76.872 107.308,76.649 107.549,76.649 107.843 C 76.649 108.140,76.332 108.378,75.936 108.378 C 75.540 108.378,75.223 108.616,75.223 108.913 C 75.223 109.273,74.863 109.447,74.120 109.447 C 73.317 109.447,72.966 109.641,72.831 110.160 C 72.698 110.665,72.344 110.873,71.616 110.873 C 70.940 110.873,70.588 111.057,70.588 111.408 C 70.588 111.766,70.230 111.943,69.508 111.943 C 68.876 111.943,68.342 112.165,68.222 112.478 C 68.109 112.772,67.793 113.012,67.520 113.012 C 67.247 113.012,67.023 113.333,67.023 113.725 C 67.023 114.303,66.786 114.439,65.775 114.439 C 64.904 114.439,64.528 114.600,64.528 114.973 C 64.528 115.344,64.156 115.508,63.318 115.508 C 62.572 115.508,62.030 115.713,61.903 116.043 C 61.790 116.337,61.357 116.578,60.940 116.578 C 60.483 116.578,60.109 116.860,59.996 117.291 C 59.893 117.685,59.510 118.004,59.138 118.004 C 58.769 118.004,58.467 118.244,58.467 118.538 C 58.467 118.895,58.111 119.073,57.398 119.073 C 56.725 119.073,56.328 119.256,56.328 119.566 C 56.328 119.838,56.007 120.143,55.615 120.246 C 55.223 120.348,54.902 120.671,54.902 120.962 C 54.902 121.253,54.496 121.593,54.000 121.718 C 53.364 121.877,53.035 122.257,52.886 123.004 C 52.769 123.587,52.466 124.064,52.212 124.064 C 51.958 124.064,51.644 124.545,51.515 125.134 C 51.386 125.722,51.052 126.203,50.774 126.203 C 50.495 126.203,50.267 126.427,50.267 126.700 C 50.267 126.973,50.027 127.289,49.733 127.402 C 49.439 127.515,49.198 127.853,49.198 128.153 C 49.198 128.453,48.957 128.699,48.663 128.699 C 48.365 128.699,48.128 129.016,48.128 129.415 C 48.128 129.809,47.807 130.406,47.415 130.742 C 47.023 131.078,46.702 131.538,46.702 131.765 C 46.702 131.991,46.462 132.376,46.168 132.620 C 45.873 132.864,45.633 133.365,45.633 133.733 C 45.633 134.102,45.392 134.403,45.098 134.403 C 44.804 134.403,44.563 134.659,44.563 134.971 C 44.563 135.283,44.242 135.623,43.850 135.726 C 43.458 135.828,43.137 136.114,43.137 136.362 C 43.137 136.609,42.897 137.011,42.602 137.255 C 42.308 137.499,42.068 137.983,42.068 138.330 C 42.068 138.677,41.827 139.053,41.533 139.166 C 41.239 139.279,40.998 139.617,40.998 139.918 C 40.998 140.218,40.798 140.470,40.553 140.479 C 40.035 140.496,38.503 142.768,38.503 143.518 C 38.503 143.799,38.262 144.029,37.968 144.029 C 37.674 144.029,37.433 144.189,37.433 144.385 C 37.433 144.581,37.112 145.062,36.720 145.455 C 36.328 145.847,36.007 146.488,36.007 146.881 C 36.007 147.277,35.769 147.594,35.472 147.594 C 35.178 147.594,34.938 147.751,34.938 147.944 C 34.938 148.136,34.376 148.872,33.690 149.578 C 33.004 150.285,32.442 151.153,32.442 151.508 C 32.442 151.862,32.201 152.244,31.907 152.357 C 31.595 152.477,31.373 153.011,31.373 153.643 C 31.373 154.366,31.196 154.724,30.838 154.724 C 30.544 154.724,30.303 154.964,30.303 155.258 C 30.303 155.553,30.102 155.796,29.857 155.799 C 29.090 155.810,27.807 157.455,27.807 158.428 C 27.807 159.017,27.611 159.358,27.273 159.358 C 26.979 159.358,26.738 159.599,26.738 159.893 C 26.738 160.187,26.508 160.428,26.227 160.428 C 25.946 160.428,25.619 160.734,25.501 161.108 C 25.382 161.482,25.050 161.878,24.764 161.988 C 24.477 162.098,24.242 162.519,24.242 162.923 C 24.242 163.328,24.002 163.751,23.708 163.864 C 23.414 163.977,23.173 164.373,23.173 164.744 C 23.173 165.115,22.972 165.420,22.727 165.421 C 22.167 165.424,20.677 167.576,20.677 168.382 C 20.677 168.713,20.437 168.984,20.143 168.984 C 19.848 168.984,19.608 169.141,19.608 169.334 C 19.608 169.526,19.046 170.262,18.360 170.969 C 17.674 171.676,17.112 172.561,17.112 172.936 C 17.112 173.311,16.872 173.619,16.578 173.619 C 16.221 173.619,16.043 173.975,16.043 174.688 C 16.043 175.401,15.865 175.758,15.508 175.758 C 15.211 175.758,14.973 176.074,14.973 176.471 C 14.973 176.946,14.736 177.184,14.260 177.184 C 13.868 177.184,13.547 177.407,13.547 177.680 C 13.547 177.953,13.307 178.269,13.012 178.382 C 12.700 178.502,12.478 179.036,12.478 179.668 C 12.478 180.391,12.301 180.749,11.943 180.749 C 11.649 180.749,11.408 180.971,11.408 181.242 C 11.408 181.513,11.087 181.819,10.695 181.921 C 10.303 182.024,9.982 182.346,9.982 182.638 C 9.982 182.929,9.742 183.260,9.447 183.373 C 9.153 183.486,8.913 183.824,8.913 184.124 C 8.913 184.425,8.763 184.670,8.580 184.670 C 8.397 184.670,8.134 185.031,7.994 185.472 C 7.855 185.914,7.443 186.484,7.079 186.740 C 6.715 186.997,6.417 187.598,6.417 188.077 C 6.417 188.614,6.212 188.948,5.882 188.948 C 5.588 188.948,5.348 189.172,5.348 189.445 C 5.348 189.718,5.107 190.034,4.813 190.147 C 4.519 190.260,4.278 190.598,4.278 190.898 C 4.278 191.198,4.055 191.444,3.781 191.444 C 3.036 191.444,2.852 192.267,2.852 195.598 C 2.852 197.813,2.709 198.768,2.317 199.160 C 1.629 199.848,1.612 202.364,2.293 202.746 C 2.574 202.903,2.888 203.733,2.992 204.591 C 3.234 206.605,3.221 206.595,5.937 206.595 C 7.769 206.595,8.322 206.466,8.599 205.971 C 8.857 205.510,9.402 205.348,10.687 205.348 C 11.758 205.348,12.632 205.142,12.962 204.813 C 13.256 204.519,13.680 204.278,13.904 204.278 C 14.128 204.278,14.552 204.037,14.846 203.743 C 15.192 203.397,16.075 203.209,17.349 203.209 C 19.018 203.209,19.346 203.100,19.505 202.496 C 19.668 201.871,19.991 201.783,22.101 201.783 C 23.809 201.783,24.641 201.627,24.955 201.248 C 25.265 200.875,26.087 200.713,27.673 200.713 C 29.456 200.713,29.947 200.598,29.947 200.178 C 29.947 199.834,30.295 199.642,30.927 199.640 C 32.866 199.632,34.581 199.194,34.581 198.706 C 34.581 198.385,35.010 198.217,35.829 198.217 C 36.700 198.217,37.077 198.056,37.077 197.683 C 37.077 197.258,37.592 197.148,39.572 197.148 C 41.553 197.148,42.068 197.038,42.068 196.613 C 42.068 196.185,42.606 196.078,44.775 196.078 C 47.182 196.078,47.503 195.999,47.669 195.365 C 47.832 194.740,48.155 194.652,50.283 194.652 C 51.967 194.652,52.876 194.488,53.247 194.118 C 53.541 193.824,54.034 193.583,54.342 193.583 C 54.650 193.583,54.902 193.342,54.902 193.048 C 54.902 192.629,55.393 192.513,57.181 192.513 C 58.816 192.513,59.515 192.371,59.654 192.009 C 59.778 191.686,60.684 191.416,62.187 191.255 C 63.822 191.080,64.528 190.855,64.528 190.511 C 64.528 190.135,65.164 190.018,67.213 190.018 C 69.270 190.018,69.946 189.893,70.103 189.483 C 70.216 189.189,70.537 188.948,70.816 188.948 C 71.095 188.948,71.416 188.708,71.529 188.414 C 71.672 188.042,72.252 187.879,73.434 187.879 C 75.835 187.879,77.362 187.515,77.362 186.943 C 77.362 186.568,78.033 186.453,80.225 186.453 C 82.441 186.453,83.135 186.332,83.294 185.918 C 83.444 185.526,84.062 185.383,85.611 185.383 C 87.094 185.383,87.780 185.234,87.915 184.884 C 88.020 184.609,88.665 184.279,89.348 184.151 C 90.031 184.023,90.679 183.686,90.788 183.403 C 90.929 183.034,91.583 182.888,93.086 182.888 C 94.716 182.888,95.187 182.768,95.187 182.353 C 95.187 181.932,95.682 181.818,97.504 181.818 C 99.228 181.818,99.822 181.693,99.822 181.330 C 99.822 180.975,100.563 180.795,102.542 180.668 C 104.566 180.538,105.347 180.343,105.590 179.908 C 105.824 179.490,106.415 179.323,107.657 179.323 C 108.728 179.323,109.602 179.117,109.931 178.788 C 110.225 178.494,110.787 178.253,111.179 178.253 C 111.571 178.253,112.133 178.012,112.427 177.718 C 112.790 177.356,113.688 177.184,115.219 177.184 C 117.089 177.184,117.552 177.062,117.921 176.471 C 118.312 175.843,118.752 175.758,121.572 175.758 C 124.183 175.758,124.777 175.659,124.777 175.223 C 124.777 174.795,125.311 174.688,127.440 174.688 C 130.270 174.688,132.977 173.712,132.977 172.691 C 132.977 172.303,133.648 172.193,136.007 172.193 C 138.463 172.193,139.037 172.091,139.037 171.658 C 139.037 171.220,139.649 171.123,142.407 171.123 C 144.915 171.123,145.848 170.996,146.061 170.626 C 146.261 170.276,147.280 170.091,149.490 170.002 C 152.029 169.900,152.702 169.755,152.984 169.251 C 153.176 168.908,153.731 168.627,154.218 168.627 C 154.704 168.627,155.195 168.387,155.308 168.093 C 155.466 167.680,156.156 167.558,158.338 167.558 C 160.520 167.558,161.210 167.436,161.368 167.023 C 161.524 166.618,162.189 166.487,164.120 166.484 C 167.143 166.478,168.271 166.226,168.271 165.556 C 168.271 165.170,169.013 165.062,171.669 165.062 C 174.361 165.062,175.110 164.951,175.272 164.528 C 175.385 164.234,175.911 163.993,176.441 163.993 C 176.970 163.993,177.715 163.757,178.096 163.469 C 178.476 163.182,179.457 162.941,180.274 162.935 C 182.094 162.921,182.888 162.641,182.888 162.013 C 182.888 161.697,183.459 161.500,184.581 161.428 C 186.141 161.328,186.284 161.240,186.389 160.318 C 186.453 159.767,186.733 159.228,187.013 159.121 C 187.293 159.013,187.522 158.760,187.522 158.557 C 187.522 158.355,187.760 158.011,188.050 157.793 C 188.339 157.576,188.616 156.855,188.664 156.192 C 188.714 155.497,189.019 154.820,189.384 154.591 C 189.733 154.374,190.018 154.011,190.018 153.785 C 190.018 153.559,190.258 153.282,190.553 153.169 C 190.865 153.049,191.087 152.515,191.087 151.883 C 191.087 151.160,191.264 150.802,191.622 150.802 C 191.959 150.802,192.157 150.463,192.157 149.887 C 192.157 149.303,192.608 148.546,193.405 147.795 C 194.091 147.148,194.652 146.296,194.652 145.902 C 194.652 145.508,194.893 144.986,195.187 144.742 C 195.494 144.487,195.722 143.709,195.722 142.915 C 195.722 141.912,195.871 141.533,196.268 141.533 C 196.568 141.533,196.917 141.252,197.043 140.909 C 197.169 140.566,197.485 140.157,197.745 140.000 C 198.005 139.843,198.217 139.322,198.217 138.841 C 198.217 138.303,198.422 137.968,198.752 137.968 C 199.122 137.968,199.287 137.596,199.287 136.762 C 199.287 135.846,199.463 135.510,200.016 135.365 C 200.680 135.191,200.736 134.940,200.640 132.560 L 200.535 129.947 198.841 129.838 C 197.652 129.762,197.148 129.576,197.148 129.214 C 197.148 128.931,196.929 128.699,196.661 128.699 C 196.394 128.699,195.767 128.378,195.268 127.986 C 194.770 127.594,194.106 127.273,193.794 127.273 C 193.482 127.273,193.226 127.032,193.226 126.738 C 193.226 126.342,192.810 126.203,191.622 126.203 C 190.434 126.203,190.018 126.065,190.018 125.668 C 190.018 125.266,189.587 125.134,188.277 125.134 C 186.836 125.134,186.504 125.011,186.349 124.421 C 186.214 123.901,185.863 123.708,185.060 123.708 C 184.317 123.708,183.957 123.533,183.957 123.173 C 183.957 122.879,183.654 122.638,183.282 122.638 C 182.911 122.638,182.515 122.398,182.402 122.103 C 182.268 121.754,181.713 121.569,180.801 121.569 C 179.706 121.569,179.366 121.415,179.219 120.856 C 179.067 120.273,178.733 120.143,177.395 120.143 C 176.177 120.143,175.758 120.006,175.758 119.608 C 175.758 119.234,175.381 119.073,174.510 119.073 C 173.638 119.073,173.262 118.912,173.262 118.538 C 173.262 118.244,173.029 118.004,172.745 118.004 C 172.461 118.004,172.087 117.751,171.914 117.443 C 171.742 117.135,170.932 116.793,170.114 116.683 C 169.191 116.559,168.627 116.299,168.627 115.996 C 168.627 115.648,168.115 115.508,166.845 115.508 C 165.498 115.508,165.062 115.377,165.062 114.973 C 165.062 114.600,164.686 114.439,163.815 114.439 C 162.943 114.439,162.567 114.277,162.567 113.904 C 162.567 113.610,162.348 113.369,162.080 113.369 C 161.812 113.369,161.186 113.048,160.687 112.656 C 160.188 112.264,159.365 111.943,158.856 111.943 C 158.273 111.943,157.932 111.746,157.932 111.408 C 157.932 111.006,157.501 110.873,156.191 110.873 C 154.750 110.873,154.418 110.751,154.264 110.160 C 154.112 109.578,153.778 109.447,152.440 109.447 C 151.222 109.447,150.802 109.310,150.802 108.913 C 150.802 108.619,150.501 108.378,150.133 108.378 C 149.765 108.378,149.264 108.137,149.020 107.843 C 148.776 107.549,148.275 107.308,147.906 107.308 C 147.538 107.308,147.237 107.086,147.237 106.815 C 147.237 106.275,146.179 105.895,144.652 105.887 C 144.021 105.884,143.672 105.692,143.672 105.348 C 143.672 104.944,143.236 104.813,141.889 104.813 C 140.543 104.813,140.107 104.682,140.107 104.278 C 140.107 103.926,139.755 103.743,139.076 103.743 C 138.488 103.743,137.956 103.513,137.839 103.209 C 137.726 102.914,137.388 102.674,137.088 102.674 C 136.788 102.674,136.542 102.450,136.542 102.177 C 136.542 101.555,135.766 101.248,134.195 101.248 C 133.350 101.248,132.977 101.084,132.977 100.713 C 132.977 100.311,132.546 100.178,131.236 100.178 C 129.795 100.178,129.463 100.055,129.308 99.465 C 129.185 98.993,128.822 98.752,128.236 98.752 C 127.748 98.752,127.257 98.512,127.144 98.217 C 127.031 97.923,126.710 97.683,126.431 97.683 C 126.151 97.683,125.831 97.442,125.718 97.148 C 125.577 96.781,125.004 96.613,123.897 96.613 C 122.758 96.613,122.282 96.468,122.282 96.119 C 122.282 95.805,121.687 95.535,120.657 95.381 C 119.763 95.247,118.944 94.908,118.836 94.627 C 118.726 94.342,118.169 94.118,117.571 94.118 C 116.921 94.118,115.973 93.699,115.152 93.048 C 114.409 92.460,113.394 91.979,112.896 91.979 C 112.304 91.979,111.913 91.732,111.765 91.266 C 111.559 90.619,111.225 90.553,108.176 90.553 C 105.051 90.553,104.813 90.603,104.813 91.266 M237.433 104.278 C 237.433 104.572,237.203 104.813,236.922 104.813 C 236.642 104.813,236.315 105.119,236.196 105.493 C 236.077 105.867,235.745 106.263,235.459 106.373 C 235.172 106.483,234.938 106.979,234.938 107.475 C 234.938 108.040,234.737 108.378,234.403 108.378 C 234.109 108.378,233.868 108.641,233.868 108.962 C 233.868 109.284,233.620 109.728,233.317 109.950 C 233.014 110.171,232.740 110.710,232.707 111.148 C 232.669 111.651,232.413 111.943,232.010 111.943 C 231.659 111.943,231.373 112.166,231.373 112.440 C 231.373 112.713,231.132 113.029,230.838 113.141 C 230.544 113.254,230.303 113.592,230.303 113.893 C 230.303 114.193,230.058 114.439,229.759 114.439 C 229.460 114.439,229.069 114.824,228.890 115.295 C 228.711 115.766,228.394 116.257,228.186 116.386 C 227.978 116.514,227.807 116.931,227.807 117.312 C 227.807 117.692,227.567 118.004,227.273 118.004 C 226.979 118.004,226.738 118.244,226.738 118.538 C 226.738 118.832,226.497 119.073,226.203 119.073 C 225.909 119.073,225.668 119.303,225.668 119.584 C 225.668 119.865,225.348 120.196,224.955 120.321 C 224.497 120.466,224.242 120.860,224.242 121.426 C 224.242 121.909,224.002 122.396,223.708 122.509 C 223.414 122.622,223.173 122.921,223.173 123.173 C 223.173 123.425,222.932 123.724,222.638 123.837 C 222.344 123.949,222.103 124.287,222.103 124.588 C 222.103 124.888,221.903 125.136,221.658 125.140 C 220.891 125.150,219.608 126.796,219.608 127.769 C 219.608 128.358,219.412 128.699,219.073 128.699 C 218.779 128.699,218.538 128.939,218.538 129.234 C 218.538 129.528,218.338 129.775,218.093 129.783 C 217.575 129.801,216.043 132.073,216.043 132.823 C 216.043 133.104,215.802 133.333,215.508 133.333 C 215.214 133.333,214.973 133.574,214.973 133.868 C 214.973 134.162,214.750 134.403,214.477 134.403 C 213.932 134.403,213.547 135.152,213.547 136.215 C 213.547 136.591,213.307 136.898,213.012 136.898 C 212.718 136.898,212.478 137.122,212.478 137.395 C 212.478 137.668,212.237 137.984,211.943 138.097 C 211.649 138.210,211.408 138.529,211.408 138.806 C 211.408 139.084,211.087 139.395,210.695 139.497 C 210.213 139.623,209.982 139.984,209.982 140.608 C 209.982 141.193,209.785 141.533,209.447 141.533 C 209.074 141.533,208.913 141.909,208.913 142.781 C 208.913 143.652,208.751 144.029,208.378 144.029 C 208.084 144.029,207.843 144.269,207.843 144.563 C 207.843 144.857,207.597 145.098,207.297 145.098 C 206.997 145.098,206.648 145.379,206.522 145.722 C 206.396 146.065,206.080 146.474,205.820 146.631 C 205.560 146.788,205.348 147.309,205.348 147.790 C 205.348 148.328,205.143 148.663,204.813 148.663 C 204.439 148.663,204.278 149.039,204.278 149.911 C 204.278 150.730,204.110 151.159,203.789 151.159 C 203.520 151.159,202.919 151.719,202.452 152.404 C 201.986 153.089,201.404 153.650,201.159 153.652 C 200.902 153.653,200.713 154.107,200.713 154.724 C 200.713 155.370,200.527 155.793,200.244 155.793 C 199.432 155.793,198.134 159.448,198.553 160.552 C 198.881 161.414,199.083 161.497,200.841 161.497 C 202.469 161.497,202.798 161.608,202.955 162.210 C 203.103 162.775,203.442 162.923,204.580 162.923 C 205.371 162.923,206.106 163.065,206.213 163.238 C 206.320 163.411,207.292 163.664,208.373 163.799 C 209.724 163.967,210.339 164.203,210.339 164.553 C 210.339 164.949,210.933 165.062,213.012 165.062 C 215.211 165.062,215.813 165.189,216.399 165.775 C 216.994 166.370,217.588 166.488,219.976 166.488 C 222.192 166.488,222.885 166.609,223.044 167.023 C 223.196 167.420,223.826 167.558,225.485 167.558 C 227.037 167.558,227.856 167.721,228.164 168.093 C 228.408 168.387,228.931 168.627,229.327 168.627 C 229.723 168.627,230.247 168.902,230.492 169.237 C 230.821 169.687,231.613 169.886,233.500 169.992 C 235.246 170.091,236.122 170.294,236.251 170.630 C 236.389 170.991,237.182 171.123,239.216 171.123 C 241.354 171.123,242.039 171.246,242.197 171.658 C 242.359 172.081,243.108 172.193,245.800 172.193 C 248.614 172.193,249.198 172.286,249.198 172.738 C 249.198 173.039,249.479 173.391,249.822 173.521 C 250.165 173.651,250.658 173.966,250.917 174.222 C 251.213 174.515,252.304 174.688,253.858 174.688 C 255.816 174.688,256.328 174.799,256.328 175.223 C 256.328 175.654,256.883 175.758,259.180 175.758 C 261.380 175.758,262.032 175.871,262.032 176.254 C 262.032 176.942,262.833 177.184,265.117 177.184 C 266.381 177.184,267.263 177.373,267.609 177.718 C 267.903 178.012,268.493 178.258,268.920 178.264 C 269.347 178.271,270.008 178.511,270.389 178.799 C 270.813 179.120,271.883 179.323,273.152 179.323 C 274.677 179.323,275.223 179.453,275.223 179.816 C 275.223 180.467,276.341 180.738,279.055 180.744 C 280.796 180.748,281.283 180.866,281.283 181.283 C 281.283 181.714,281.834 181.818,284.097 181.818 C 286.270 181.818,286.958 181.940,287.116 182.353 C 287.269 182.750,287.901 182.888,289.575 182.888 C 291.124 182.888,292.265 183.110,293.226 183.601 C 293.996 183.993,294.814 184.314,295.046 184.314 C 295.278 184.314,295.560 184.554,295.673 184.848 C 295.830 185.257,296.501 185.383,298.525 185.383 C 300.549 185.383,301.220 185.509,301.377 185.918 C 301.539 186.342,302.288 186.453,304.980 186.453 C 307.647 186.453,308.378 186.560,308.378 186.949 C 308.378 187.656,309.186 187.879,311.756 187.879 C 313.427 187.879,314.059 188.016,314.211 188.414 C 314.324 188.708,314.593 188.948,314.809 188.948 C 315.026 188.948,315.443 189.189,315.737 189.483 C 316.133 189.879,317.101 190.018,319.455 190.018 C 321.979 190.018,322.638 190.124,322.638 190.528 C 322.638 190.907,323.366 191.102,325.469 191.285 C 327.360 191.450,328.362 191.695,328.488 192.023 C 328.626 192.383,329.438 192.513,331.540 192.513 C 333.847 192.513,334.403 192.617,334.403 193.048 C 334.403 193.374,334.735 193.583,335.250 193.583 C 335.717 193.583,336.298 193.824,336.542 194.118 C 336.856 194.496,337.687 194.652,339.382 194.652 C 341.326 194.652,341.901 194.787,342.424 195.365 C 342.965 195.963,343.522 196.078,345.866 196.078 C 348.115 196.078,348.663 196.183,348.663 196.613 C 348.663 197.044,349.218 197.148,351.515 197.148 C 353.813 197.148,354.367 197.252,354.367 197.683 C 354.367 198.008,354.699 198.217,355.215 198.217 C 355.681 198.217,356.252 198.446,356.485 198.726 C 356.719 199.009,357.917 199.343,359.179 199.478 C 360.608 199.631,361.522 199.906,361.641 200.217 C 361.782 200.584,362.579 200.713,364.695 200.713 C 367.002 200.713,367.558 200.817,367.558 201.248 C 367.558 201.678,368.110 201.783,370.386 201.783 C 372.901 201.783,373.239 201.861,373.440 202.496 C 373.633 203.104,373.980 203.209,375.807 203.209 C 377.234 203.209,378.126 203.387,378.482 203.743 C 378.776 204.037,379.407 204.278,379.883 204.278 C 380.415 204.278,380.749 204.484,380.749 204.813 C 380.749 205.241,381.283 205.348,383.422 205.348 C 385.621 205.348,386.223 205.474,386.809 206.061 C 387.410 206.662,387.998 206.774,390.553 206.774 C 393.009 206.774,393.583 206.875,393.583 207.308 C 393.583 207.744,394.177 207.843,396.791 207.843 L 400.000 207.843 400.000 205.704 C 400.000 204.516,399.842 203.565,399.643 203.565 C 399.447 203.565,399.287 203.324,399.287 203.030 C 399.287 202.736,399.447 202.496,399.643 202.496 C 399.840 202.496,400.000 201.934,400.000 201.248 C 400.000 200.561,399.840 200.000,399.643 200.000 C 399.419 200.000,399.287 197.620,399.287 193.572 C 399.287 188.187,399.200 187.110,398.752 186.938 C 398.314 186.770,398.217 185.874,398.217 181.958 C 398.217 177.952,398.131 177.184,397.683 177.184 C 397.389 177.184,397.148 176.960,397.148 176.687 C 397.148 176.142,396.399 175.758,395.336 175.758 C 394.960 175.758,394.652 175.517,394.652 175.223 C 394.652 174.849,394.276 174.688,393.405 174.688 C 392.533 174.688,392.157 174.527,392.157 174.153 C 392.157 173.859,391.933 173.619,391.660 173.619 C 391.387 173.619,391.071 173.378,390.958 173.084 C 390.846 172.790,390.387 172.547,389.940 172.544 C 388.568 172.536,387.522 172.134,387.522 171.616 C 387.522 171.262,387.020 171.123,385.740 171.123 C 384.393 171.123,383.957 170.992,383.957 170.588 C 383.957 170.206,383.567 170.053,382.586 170.053 C 381.668 170.053,381.003 169.818,380.570 169.340 C 380.216 168.948,379.778 168.627,379.598 168.627 C 379.419 168.627,379.031 168.387,378.737 168.093 C 378.443 167.799,377.893 167.558,377.515 167.558 C 377.136 167.558,376.827 167.317,376.827 167.023 C 376.827 166.619,376.391 166.488,375.045 166.488 C 373.698 166.488,373.262 166.358,373.262 165.954 C 373.262 165.660,373.061 165.418,372.816 165.417 C 371.777 165.412,369.696 164.640,369.887 164.330 C 370.003 164.143,369.548 163.993,368.865 163.993 C 368.100 163.993,367.557 163.791,367.429 163.458 C 367.316 163.164,366.978 162.923,366.678 162.923 C 366.378 162.923,366.132 162.683,366.132 162.389 C 366.132 161.985,365.696 161.854,364.349 161.854 C 362.805 161.854,362.567 161.759,362.567 161.141 C 362.567 160.523,362.329 160.428,360.784 160.428 C 359.438 160.428,359.002 160.297,359.002 159.893 C 359.002 159.541,358.650 159.358,357.970 159.358 C 357.383 159.358,356.851 159.128,356.734 158.824 C 356.621 158.529,356.283 158.289,355.983 158.289 C 355.682 158.289,355.437 158.067,355.437 157.796 C 355.437 157.255,354.379 156.875,352.852 156.868 C 352.220 156.864,351.872 156.673,351.872 156.328 C 351.872 155.934,351.460 155.793,350.306 155.793 C 349.242 155.793,348.673 155.622,348.534 155.258 C 348.414 154.946,347.880 154.724,347.248 154.724 C 346.654 154.724,346.168 154.569,346.168 154.380 C 346.168 153.773,343.540 152.228,342.509 152.228 C 341.950 152.228,341.420 151.993,341.305 151.693 C 341.167 151.333,340.602 151.159,339.576 151.159 C 338.351 151.159,338.014 151.018,337.865 150.446 C 337.712 149.862,337.378 149.733,336.029 149.733 C 334.893 149.733,334.317 149.567,334.175 149.198 C 334.031 148.821,333.430 148.660,332.137 148.652 C 331.093 148.645,330.005 148.415,329.611 148.117 C 329.169 147.782,328.090 147.594,326.620 147.594 C 324.847 147.594,324.217 147.452,323.867 146.973 C 323.492 146.460,322.698 146.330,319.283 146.222 C 316.053 146.119,315.152 145.982,315.152 145.594 C 315.152 145.196,314.239 145.098,310.517 145.098 C 306.635 145.098,305.882 145.011,305.882 144.563 C 305.882 144.119,305.189 144.029,301.783 144.029 C 298.742 144.029,297.682 143.913,297.680 143.583 C 297.676 142.922,295.032 141.533,293.780 141.533 C 293.050 141.533,292.692 141.357,292.692 140.998 C 292.692 140.642,292.335 140.463,291.622 140.463 C 291.034 140.463,290.553 140.281,290.553 140.059 C 290.553 139.583,288.886 137.968,288.395 137.968 C 288.209 137.968,288.057 137.727,288.057 137.433 C 288.057 137.139,287.816 136.898,287.522 136.898 C 287.228 136.898,286.988 136.676,286.988 136.403 C 286.988 136.120,286.454 135.808,285.740 135.674 C 284.993 135.534,284.492 135.232,284.492 134.921 C 284.492 134.636,284.251 134.403,283.957 134.403 C 283.663 134.403,283.422 134.237,283.422 134.035 C 283.422 133.833,283.165 133.569,282.850 133.448 C 282.535 133.327,281.693 132.691,280.979 132.035 C 280.264 131.378,279.496 130.840,279.272 130.839 C 279.048 130.839,278.772 130.597,278.659 130.303 C 278.539 129.990,278.005 129.768,277.373 129.768 C 276.779 129.768,276.292 129.616,276.292 129.430 C 276.292 128.939,274.677 127.273,274.202 127.273 C 273.979 127.273,273.797 127.032,273.797 126.738 C 273.797 126.444,273.556 126.203,273.262 126.203 C 272.968 126.203,272.727 125.963,272.727 125.668 C 272.727 125.295,272.351 125.134,271.480 125.134 C 270.469 125.134,270.232 124.998,270.232 124.421 C 270.232 124.025,269.994 123.708,269.697 123.708 C 269.403 123.708,269.162 123.467,269.162 123.173 C 269.162 122.879,268.939 122.638,268.666 122.638 C 268.392 122.638,268.077 122.398,267.964 122.103 C 267.844 121.791,267.310 121.569,266.678 121.569 C 265.835 121.569,265.597 121.412,265.597 120.856 C 265.597 120.463,265.374 120.143,265.101 120.143 C 264.827 120.143,264.512 119.902,264.399 119.608 C 264.281 119.302,263.749 119.073,263.157 119.073 C 262.300 119.073,262.086 118.895,261.915 118.044 C 261.768 117.308,261.401 116.908,260.623 116.637 C 260.026 116.429,259.537 116.089,259.537 115.883 C 259.537 115.677,259.130 115.508,258.634 115.508 C 258.138 115.508,257.639 115.267,257.526 114.973 C 257.414 114.679,257.116 114.439,256.866 114.439 C 256.616 114.439,256.327 114.118,256.225 113.725 C 256.122 113.333,255.783 113.012,255.470 113.012 C 255.158 113.012,254.902 112.772,254.902 112.478 C 254.902 112.184,254.678 111.943,254.405 111.943 C 254.132 111.943,253.816 111.702,253.704 111.408 C 253.584 111.096,253.049 110.873,252.418 110.873 C 251.575 110.873,251.337 110.717,251.337 110.160 C 251.337 109.768,251.113 109.447,250.840 109.447 C 250.567 109.447,250.251 109.207,250.138 108.913 C 250.018 108.600,249.484 108.378,248.853 108.378 C 248.130 108.378,247.772 108.201,247.772 107.843 C 247.772 107.549,247.531 107.308,247.237 107.308 C 246.943 107.308,246.700 107.108,246.696 106.863 C 246.686 106.096,245.040 104.813,244.067 104.813 C 243.478 104.813,243.137 104.617,243.137 104.278 C 243.137 103.847,242.583 103.743,240.285 103.743 C 237.988 103.743,237.433 103.847,237.433 104.278 M186.680 173.084 C 186.560 173.396,186.026 173.619,185.394 173.619 C 184.671 173.619,184.314 173.796,184.314 174.153 C 184.314 174.578,183.799 174.688,181.818 174.688 C 179.936 174.688,179.323 174.809,179.323 175.179 C 179.323 175.549,178.521 175.709,176.076 175.826 C 173.510 175.948,172.760 176.107,172.494 176.582 C 172.229 177.055,171.635 177.184,169.705 177.184 C 168.000 177.184,167.089 177.347,166.718 177.718 C 166.423 178.012,165.931 178.253,165.623 178.253 C 165.314 178.253,165.062 178.494,165.062 178.788 C 165.062 179.216,164.524 179.323,162.355 179.323 C 159.948 179.323,159.627 179.402,159.462 180.036 C 159.294 180.677,158.975 180.749,156.286 180.749 C 153.867 180.749,153.298 180.851,153.298 181.283 C 153.298 181.714,152.743 181.818,150.446 181.818 C 148.250 181.818,147.594 181.932,147.594 182.313 C 147.594 182.597,147.060 182.908,146.346 183.042 C 145.599 183.183,145.098 183.485,145.098 183.795 C 145.098 184.203,144.525 184.314,142.413 184.314 C 140.355 184.314,139.680 184.439,139.523 184.848 C 139.365 185.261,138.678 185.383,136.521 185.383 C 134.515 185.383,133.645 185.523,133.440 185.877 C 133.252 186.203,132.265 186.419,130.532 186.514 C 128.586 186.621,127.793 186.816,127.462 187.269 C 127.154 187.690,126.513 187.879,125.387 187.879 C 124.415 187.879,123.543 188.094,123.224 188.414 C 122.930 188.708,122.116 188.948,121.416 188.948 C 120.522 188.948,120.143 189.108,120.143 189.483 C 120.143 189.911,119.609 190.018,117.481 190.018 C 115.185 190.018,114.768 190.116,114.439 190.731 C 114.106 191.352,113.692 191.444,111.217 191.444 C 108.931 191.444,108.378 191.548,108.378 191.979 C 108.378 192.402,107.866 192.513,105.908 192.513 C 104.188 192.513,103.275 192.676,102.903 193.048 C 102.609 193.342,102.116 193.583,101.808 193.583 C 101.500 193.583,100.927 193.904,100.535 194.296 C 99.948 194.883,99.346 195.009,97.137 195.009 C 95.079 195.009,94.404 195.134,94.247 195.544 C 94.088 195.957,93.400 196.078,91.227 196.078 C 88.964 196.078,88.414 196.183,88.414 196.613 C 88.414 197.038,87.899 197.148,85.918 197.148 C 83.898 197.148,83.287 197.284,82.709 197.861 C 82.317 198.253,81.590 198.574,81.094 198.574 C 80.598 198.574,80.099 198.815,79.986 199.109 C 79.829 199.518,79.158 199.643,77.134 199.643 C 75.110 199.643,74.439 199.769,74.282 200.178 C 74.124 200.591,73.437 200.713,71.281 200.713 C 69.059 200.713,68.417 200.833,68.157 201.298 C 67.913 201.734,67.132 201.928,65.109 202.058 C 63.130 202.185,62.389 202.366,62.389 202.721 C 62.389 202.989,62.079 203.209,61.701 203.209 C 61.323 203.209,60.773 203.449,60.479 203.743 C 60.114 204.108,59.213 204.278,57.639 204.278 C 55.920 204.278,55.283 204.414,55.130 204.813 C 54.980 205.202,54.363 205.349,52.863 205.352 C 50.310 205.358,49.198 205.640,49.198 206.280 C 49.198 206.659,48.539 206.774,46.364 206.774 C 44.346 206.774,43.447 206.914,43.244 207.260 C 43.084 207.534,42.109 207.826,41.013 207.928 C 39.943 208.028,39.007 208.290,38.934 208.511 C 38.860 208.732,38.425 208.913,37.967 208.913 C 36.765 208.913,36.007 209.272,36.007 209.842 C 36.007 210.225,35.355 210.339,33.155 210.339 C 30.858 210.339,30.303 210.443,30.303 210.873 C 30.303 211.304,29.747 211.408,27.440 211.408 C 25.326 211.408,24.527 211.538,24.387 211.903 C 24.261 212.230,23.290 212.483,21.522 212.649 C 19.733 212.816,18.784 213.066,18.655 213.402 C 18.549 213.678,18.176 213.904,17.825 213.904 C 17.475 213.904,17.096 214.144,16.983 214.439 C 16.826 214.848,16.151 214.973,14.093 214.973 C 12.029 214.973,11.408 215.089,11.408 215.473 C 11.408 215.855,10.649 216.001,8.171 216.096 C 5.595 216.196,4.840 216.349,4.477 216.845 C 4.136 217.311,3.514 217.469,2.011 217.469 L 0.000 217.469 0.000 219.786 L 0.000 222.103 4.912 222.103 C 8.476 222.103,10.017 221.970,10.527 221.618 C 10.978 221.306,12.736 221.067,15.428 220.951 C 18.622 220.814,19.781 220.631,20.269 220.189 C 20.772 219.734,21.681 219.607,24.449 219.606 C 26.873 219.604,28.304 219.438,28.996 219.076 C 29.552 218.786,30.787 218.522,31.741 218.488 C 32.771 218.451,33.446 218.268,33.404 218.037 C 33.357 217.777,35.110 217.577,38.681 217.435 C 44.741 217.194,44.207 217.277,44.207 216.578 C 44.207 216.123,45.133 216.043,50.402 216.043 C 55.474 216.043,56.678 215.946,57.041 215.508 C 57.391 215.087,58.402 214.973,61.808 214.971 C 64.947 214.969,66.412 214.823,67.153 214.436 C 67.715 214.143,68.717 213.904,69.381 213.904 C 70.113 213.904,70.869 213.623,71.301 213.191 C 71.960 212.532,72.490 212.478,78.253 212.478 C 83.561 212.478,84.492 212.398,84.492 211.943 C 84.492 211.485,85.539 211.408,91.775 211.408 C 97.490 211.408,99.164 211.302,99.550 210.916 C 99.925 210.541,101.751 210.391,107.276 210.282 C 113.903 210.152,114.553 210.082,115.011 209.456 C 115.399 208.926,115.606 208.868,115.937 209.199 C 116.455 209.717,117.878 209.761,118.182 209.269 C 118.303 209.073,118.794 208.913,119.272 208.913 C 119.808 208.913,120.143 208.707,120.143 208.378 C 120.143 207.914,121.669 207.843,131.740 207.843 C 141.720 207.843,143.367 207.769,143.543 207.308 C 143.724 206.838,148.228 206.774,181.105 206.774 C 213.982 206.774,218.487 206.838,218.667 207.308 C 218.843 207.766,220.292 207.843,228.688 207.843 C 237.174 207.843,238.503 207.916,238.503 208.378 C 238.503 208.759,238.891 208.913,239.857 208.913 C 240.602 208.913,241.365 209.061,241.551 209.242 C 242.202 209.877,247.523 210.339,254.177 210.339 C 259.812 210.339,260.919 210.424,261.091 210.873 C 261.267 211.331,262.732 211.408,271.252 211.408 C 279.772 211.408,281.237 211.485,281.412 211.943 C 281.588 212.400,282.991 212.478,291.021 212.478 C 299.971 212.478,300.455 212.512,301.070 213.191 C 301.521 213.690,302.168 213.904,303.223 213.904 C 304.053 213.904,305.191 214.143,305.752 214.436 C 306.542 214.848,308.161 214.969,312.885 214.971 C 317.851 214.973,319.033 215.069,319.192 215.482 C 319.351 215.897,320.655 215.998,326.239 216.027 C 332.286 216.058,333.143 216.134,333.540 216.676 C 333.930 217.211,334.846 217.306,340.637 217.414 C 345.931 217.512,347.325 217.640,347.478 218.038 C 347.615 218.396,348.325 218.538,349.974 218.538 C 351.548 218.538,352.449 218.708,352.814 219.073 C 353.228 219.487,354.282 219.608,357.473 219.608 C 360.829 219.608,361.674 219.713,362.011 220.174 C 362.357 220.647,363.619 220.774,369.658 220.942 C 375.250 221.097,376.933 221.252,377.076 221.623 C 377.221 222.003,378.700 222.103,384.135 222.103 C 389.918 222.103,391.044 222.188,391.216 222.638 C 391.364 223.023,391.967 223.173,393.372 223.173 C 394.445 223.173,395.422 223.333,395.544 223.529 C 395.852 224.029,398.342 223.975,398.859 223.458 C 399.492 222.825,399.411 219.989,398.752 219.737 C 398.458 219.624,398.217 219.320,398.217 219.060 C 398.217 217.865,397.146 217.469,393.914 217.469 C 391.206 217.469,390.624 217.362,390.018 216.756 C 389.438 216.176,388.829 216.043,386.759 216.043 C 384.944 216.043,384.101 215.893,383.818 215.521 C 383.531 215.143,382.561 214.983,380.273 214.937 C 377.989 214.892,377.072 214.742,376.937 214.389 C 376.835 214.122,376.522 213.904,376.243 213.904 C 375.964 213.904,375.650 213.681,375.545 213.409 C 375.419 213.081,374.441 212.828,372.643 212.660 C 371.111 212.516,369.713 212.188,369.432 211.907 C 369.079 211.554,368.001 211.408,365.750 211.408 C 363.158 211.408,362.567 211.309,362.567 210.873 C 362.567 210.443,362.012 210.339,359.715 210.339 C 357.457 210.339,356.863 210.231,356.863 209.820 C 356.863 209.496,356.360 209.221,355.526 209.088 C 354.791 208.970,353.899 208.715,353.545 208.521 C 353.192 208.328,351.868 208.073,350.604 207.955 C 349.014 207.806,348.307 207.591,348.307 207.257 C 348.307 206.891,347.620 206.774,345.472 206.774 C 343.232 206.774,342.570 206.653,342.315 206.197 C 342.068 205.755,341.229 205.577,338.732 205.435 C 336.311 205.297,335.472 205.124,335.472 204.763 C 335.472 204.403,334.853 204.275,333.066 204.267 C 331.517 204.259,330.413 204.069,329.968 203.732 C 329.587 203.444,328.913 203.209,328.470 203.209 C 328.027 203.209,327.536 202.989,327.380 202.721 C 327.192 202.401,326.130 202.174,324.285 202.059 C 322.179 201.927,321.393 201.737,321.148 201.298 C 320.889 200.836,320.254 200.713,318.139 200.713 C 316.230 200.713,315.303 200.559,314.922 200.178 C 314.532 199.788,313.578 199.643,311.383 199.643 C 308.949 199.643,308.378 199.542,308.378 199.109 C 308.378 198.815,308.137 198.574,307.843 198.574 C 307.549 198.574,306.988 198.253,306.595 197.861 C 305.994 197.260,305.407 197.148,302.852 197.148 C 300.396 197.148,299.822 197.047,299.822 196.613 C 299.822 196.183,299.271 196.078,297.008 196.078 C 294.835 196.078,294.147 195.957,293.989 195.544 C 293.829 195.128,293.126 195.009,290.828 195.009 C 288.258 195.009,287.814 194.916,287.427 194.296 C 287.182 193.904,286.731 193.583,286.424 193.583 C 286.118 193.583,285.626 193.342,285.332 193.048 C 284.961 192.677,284.052 192.513,282.366 192.513 C 280.533 192.513,279.883 192.382,279.728 191.979 C 279.566 191.556,278.821 191.444,276.167 191.444 C 273.110 191.444,272.794 191.380,272.624 190.731 C 272.458 190.096,272.133 190.017,269.641 190.006 C 267.749 189.999,266.621 189.826,266.153 189.472 C 265.772 189.184,265.131 188.943,264.727 188.937 C 264.323 188.931,263.681 188.690,263.301 188.402 C 262.877 188.081,261.807 187.879,260.538 187.879 C 259.005 187.879,258.467 187.750,258.467 187.382 C 258.467 186.670,257.662 186.454,254.962 186.441 C 253.439 186.434,252.336 186.242,251.893 185.907 C 251.421 185.550,250.313 185.383,248.417 185.383 C 246.180 185.383,245.633 185.278,245.633 184.848 C 245.633 184.422,245.104 184.314,243.014 184.314 C 240.848 184.314,240.284 184.190,239.750 183.601 C 239.396 183.209,238.666 182.888,238.129 182.888 C 237.590 182.888,237.061 182.648,236.948 182.353 C 236.791 181.944,236.120 181.818,234.096 181.818 C 232.072 181.818,231.401 181.692,231.244 181.283 C 231.081 180.860,230.337 180.749,227.682 180.749 C 224.625 180.749,224.309 180.685,224.139 180.036 C 223.972 179.397,223.653 179.323,221.067 179.323 C 218.740 179.323,218.182 179.219,218.182 178.788 C 218.182 178.494,217.930 178.253,217.622 178.253 C 217.313 178.253,216.821 178.012,216.527 177.718 C 216.136 177.328,215.183 177.184,212.987 177.184 C 210.666 177.184,209.982 177.071,209.982 176.690 C 209.982 176.041,208.866 175.768,206.188 175.762 C 204.573 175.759,203.944 175.617,203.793 175.223 C 203.631 174.803,202.905 174.688,200.406 174.688 C 197.907 174.688,197.180 174.573,197.019 174.153 C 196.906 173.859,196.505 173.619,196.128 173.619 C 195.750 173.619,195.349 173.378,195.236 173.084 C 195.071 172.652,194.250 172.549,190.958 172.549 C 187.667 172.549,186.846 172.652,186.680 173.084 M66.310 214.260 C 66.310 214.456,65.869 214.601,65.330 214.581 L 64.349 214.546 65.241 214.260 C 65.731 214.103,66.172 213.959,66.221 213.939 C 66.270 213.920,66.310 214.064,66.310 214.260 M145.506 226.699 C 145.212 226.885,145.161 227.091,145.376 227.224 C 145.571 227.345,145.929 227.204,146.171 226.912 C 146.652 226.333,146.275 226.212,145.506 226.699 M316.304 233.512 C 316.304 234.198,316.377 234.479,316.467 234.135 C 316.556 233.792,316.556 233.231,316.467 232.888 C 316.377 232.545,316.304 232.825,316.304 233.512 M127.354 235.717 C 127.432 235.950,127.686 236.204,127.919 236.282 C 128.180 236.369,128.259 236.206,128.126 235.859 C 127.877 235.211,127.141 235.076,127.354 235.717 M302.317 266.271 C 302.317 266.778,303.718 268.318,303.731 267.825 C 303.738 267.580,303.422 267.059,303.030 266.667 C 302.638 266.275,302.317 266.096,302.317 266.271 " stroke="none" fill="#454748" fill-rule="evenodd"></path></g></svg>