<svg id="svg" version="1.1" xmlns="http://www.w3.org/2000/svg" xmlns:xlink="http://www.w3.org/1999/xlink" width="400" height="370.26378896882494" viewBox="0, 0, 400,370.26378896882494"><g id="svgg"><path id="path0" d="M195.185 24.444 L 195.185 26.296 203.333 26.296 L 211.481 26.296 211.481 24.444 L 211.481 22.593 203.333 22.593 L 195.185 22.593 195.185 24.444 M195.185 355.556 L 195.185 357.407 203.333 357.407 L 211.481 357.407 211.481 355.556 L 211.481 353.704 203.333 353.704 L 195.185 353.704 195.185 355.556 " stroke="none" fill="#dcdcdc" fill-rule="evenodd"></path><path id="path1" d="M362.222 57.593 C 362.222 57.898,362.044 58.148,361.825 58.148 C 360.926 58.148,360.370 59.269,360.370 61.085 C 360.370 62.118,360.537 62.963,360.741 62.963 C 360.944 62.963,361.111 63.468,361.111 64.086 C 361.111 64.742,361.342 65.297,361.667 65.422 C 361.983 65.543,362.222 66.096,362.222 66.706 C 362.222 67.296,362.389 67.778,362.593 67.778 C 362.796 67.778,362.963 68.361,362.963 69.074 C 362.963 69.787,362.796 70.370,362.593 70.370 C 362.389 70.370,362.222 70.620,362.222 70.926 C 362.222 71.325,361.815 71.481,360.780 71.481 C 359.840 71.481,359.264 71.288,359.125 70.926 C 358.945 70.456,357.704 70.370,351.111 70.370 C 344.519 70.370,343.277 70.456,343.097 70.926 C 342.958 71.288,342.382 71.481,341.442 71.481 C 340.407 71.481,340.000 71.638,340.000 72.037 C 340.000 72.383,339.650 72.593,339.074 72.593 C 338.565 72.593,338.148 72.759,338.148 72.963 C 338.148 73.167,337.660 73.333,337.063 73.333 C 336.467 73.333,335.729 73.583,335.423 73.889 C 335.118 74.194,334.522 74.444,334.101 74.444 C 333.679 74.444,333.333 74.611,333.333 74.815 C 333.333 75.019,332.917 75.185,332.407 75.185 C 331.849 75.185,331.481 75.397,331.481 75.718 C 331.481 76.067,331.001 76.291,330.093 76.367 C 329.224 76.438,328.738 76.655,328.796 76.944 C 328.854 77.233,328.469 77.407,327.778 77.407 C 327.167 77.407,326.667 77.574,326.667 77.778 C 326.667 77.981,326.250 78.148,325.741 78.148 C 325.165 78.148,324.815 78.358,324.815 78.704 C 324.815 79.105,324.403 79.259,323.333 79.259 C 322.519 79.259,321.852 79.426,321.852 79.630 C 321.852 79.833,321.435 80.000,320.926 80.000 C 320.350 80.000,320.000 80.210,320.000 80.556 C 320.000 80.901,319.650 81.111,319.074 81.111 C 318.498 81.111,318.148 81.321,318.148 81.667 C 318.148 82.068,317.737 82.222,316.667 82.222 C 315.852 82.222,315.185 82.389,315.185 82.593 C 315.185 82.796,314.769 82.963,314.259 82.963 C 313.683 82.963,313.333 83.173,313.333 83.519 C 313.333 83.921,312.919 84.074,311.830 84.074 C 310.922 84.074,310.417 84.221,310.556 84.444 C 310.689 84.661,310.312 84.815,309.651 84.815 C 308.891 84.815,308.519 84.998,308.519 85.370 C 308.519 85.716,308.169 85.926,307.593 85.926 C 307.083 85.926,306.667 86.093,306.667 86.296 C 306.667 86.500,306.179 86.667,305.582 86.667 C 304.985 86.667,304.251 86.913,303.950 87.214 C 303.649 87.515,302.868 87.801,302.214 87.851 C 301.560 87.901,300.943 88.155,300.843 88.415 C 300.743 88.676,300.263 88.889,299.775 88.889 C 299.288 88.889,298.889 89.056,298.889 89.259 C 298.889 89.463,298.222 89.630,297.407 89.630 C 296.337 89.630,295.926 89.784,295.926 90.185 C 295.926 90.571,295.537 90.741,294.651 90.741 C 293.951 90.741,293.274 90.907,293.148 91.111 C 293.022 91.315,292.591 91.481,292.189 91.481 C 291.787 91.481,291.362 91.731,291.245 92.037 C 291.106 92.399,290.530 92.593,289.590 92.593 C 288.555 92.593,288.148 92.749,288.148 93.148 C 288.148 93.536,287.757 93.704,286.852 93.704 C 286.139 93.704,285.556 93.870,285.556 94.074 C 285.556 94.278,285.134 94.444,284.618 94.444 C 284.102 94.444,283.585 94.694,283.467 95.000 C 283.336 95.343,282.773 95.556,281.997 95.556 C 281.306 95.556,280.741 95.722,280.741 95.926 C 280.741 96.130,280.253 96.296,279.656 96.296 C 279.060 96.296,278.321 96.546,278.016 96.852 C 277.710 97.157,277.115 97.407,276.693 97.407 C 276.258 97.407,275.926 97.648,275.926 97.963 C 275.926 98.364,275.514 98.519,274.444 98.519 C 273.630 98.519,272.963 98.685,272.963 98.889 C 272.963 99.093,272.546 99.259,272.037 99.259 C 271.461 99.259,271.111 99.469,271.111 99.815 C 271.111 100.216,270.700 100.370,269.630 100.370 C 268.815 100.370,268.148 100.537,268.148 100.741 C 268.148 100.944,267.660 101.111,267.063 101.111 C 266.467 101.111,265.729 101.361,265.423 101.667 C 265.118 101.972,264.522 102.222,264.101 102.222 C 263.665 102.222,263.333 102.463,263.333 102.778 C 263.333 103.179,262.922 103.333,261.852 103.333 C 261.037 103.333,260.370 103.500,260.370 103.704 C 260.370 103.907,259.954 104.074,259.444 104.074 C 258.868 104.074,258.519 104.284,258.519 104.630 C 258.519 105.031,258.107 105.185,257.037 105.185 C 256.222 105.185,255.556 105.352,255.556 105.556 C 255.556 105.759,255.139 105.926,254.630 105.926 C 254.053 105.926,253.704 106.136,253.704 106.481 C 253.704 106.883,253.292 107.037,252.222 107.037 C 251.407 107.037,250.741 107.185,250.741 107.366 C 250.741 107.547,250.157 107.805,249.444 107.939 C 248.731 108.072,248.148 108.341,248.148 108.535 C 248.148 108.730,247.726 108.889,247.211 108.889 C 246.695 108.889,246.177 109.139,246.060 109.444 C 245.928 109.787,245.365 110.000,244.590 110.000 C 243.899 110.000,243.333 110.167,243.333 110.370 C 243.333 110.574,242.911 110.741,242.396 110.741 C 241.880 110.741,241.362 110.991,241.245 111.296 C 241.114 111.639,240.551 111.852,239.775 111.852 C 239.084 111.852,238.519 112.019,238.519 112.222 C 238.519 112.426,238.206 112.593,237.823 112.593 C 237.441 112.593,236.920 112.843,236.667 113.148 C 236.413 113.454,235.809 113.704,235.325 113.704 C 234.789 113.704,234.444 113.921,234.444 114.259 C 234.444 114.605,234.095 114.815,233.519 114.815 C 233.009 114.815,232.593 114.981,232.593 115.185 C 232.593 115.389,232.134 115.561,231.574 115.568 C 230.297 115.583,228.889 116.725,228.889 117.745 C 228.889 118.186,228.650 118.519,228.333 118.519 C 227.914 118.519,227.778 118.971,227.778 120.370 C 227.778 121.770,227.914 122.222,228.333 122.222 C 228.735 122.222,228.889 122.634,228.889 123.704 C 228.889 124.519,229.056 125.185,229.259 125.185 C 229.463 125.185,229.630 125.602,229.630 126.111 C 229.630 126.620,229.463 127.037,229.259 127.037 C 229.056 127.037,228.889 127.287,228.889 127.593 C 228.889 127.898,228.639 128.148,228.333 128.148 C 228.028 128.148,227.778 127.898,227.778 127.593 C 227.778 127.287,227.599 127.037,227.381 127.037 C 226.868 127.037,225.926 126.095,225.926 125.582 C 225.926 125.364,225.747 125.185,225.529 125.185 C 225.016 125.185,224.074 124.243,224.074 123.730 C 224.074 123.512,223.824 123.333,223.519 123.333 C 223.213 123.333,222.963 123.083,222.963 122.778 C 222.963 122.432,222.613 122.222,222.037 122.222 C 221.528 122.222,221.111 122.056,221.111 121.852 C 221.111 121.648,220.712 121.481,220.225 121.481 C 219.737 121.481,219.243 121.231,219.125 120.926 C 218.975 120.534,218.363 120.370,217.049 120.370 C 216.024 120.370,215.185 120.204,215.185 120.000 C 215.185 119.791,214.136 119.630,212.778 119.630 C 210.885 119.630,210.370 119.511,210.370 119.074 C 210.370 118.637,209.856 118.519,207.963 118.519 C 206.070 118.519,205.556 118.400,205.556 117.963 C 205.556 117.510,204.938 117.407,202.222 117.407 C 200.247 117.407,198.889 117.257,198.889 117.037 C 198.889 116.815,197.421 116.667,195.225 116.667 C 192.310 116.667,191.517 116.553,191.348 116.111 C 191.175 115.662,190.318 115.556,186.863 115.556 C 184.263 115.556,182.593 115.411,182.593 115.185 C 182.593 114.956,180.630 114.815,177.447 114.815 C 173.373 114.815,172.260 114.707,172.102 114.295 C 171.945 113.885,170.753 113.765,166.454 113.724 C 162.348 113.685,160.816 113.539,160.235 113.132 C 159.651 112.723,158.232 112.593,154.362 112.593 C 151.207 112.593,149.259 112.451,149.259 112.222 C 149.259 111.996,147.531 111.852,144.815 111.852 C 141.111 111.852,140.370 111.759,140.370 111.296 C 140.370 110.844,139.753 110.741,137.037 110.741 C 135.062 110.741,133.704 110.590,133.704 110.370 C 133.704 110.161,132.650 110.000,131.285 110.000 C 129.476 110.000,128.812 109.860,128.652 109.444 C 128.499 109.044,127.873 108.889,126.415 108.889 C 125.110 108.889,124.194 108.692,123.836 108.333 C 123.479 107.976,122.563 107.778,121.270 107.778 C 120.164 107.778,119.259 107.611,119.259 107.407 C 119.259 107.198,118.210 107.037,116.852 107.037 C 114.959 107.037,114.444 106.918,114.444 106.481 C 114.444 106.050,113.953 105.926,112.244 105.926 C 111.034 105.926,109.941 105.759,109.815 105.556 C 109.689 105.352,108.346 105.185,106.830 105.185 C 104.627 105.185,104.074 105.074,104.074 104.630 C 104.074 104.171,103.395 104.074,100.185 104.074 C 97.840 104.074,96.296 103.927,96.296 103.704 C 96.296 103.460,85.679 103.333,65.185 103.333 C 37.778 103.333,34.074 103.267,34.074 102.778 C 34.074 102.301,32.922 102.222,25.926 102.222 C 18.930 102.222,17.778 102.144,17.778 101.667 C 17.778 101.230,17.263 101.111,15.370 101.111 C 14.012 101.111,12.963 100.950,12.963 100.741 C 12.963 100.537,12.564 100.370,12.077 100.370 C 11.589 100.370,11.094 100.120,10.977 99.815 C 10.664 98.999,3.040 98.999,2.727 99.815 C 2.608 100.125,2.057 100.370,1.481 100.370 C 0.135 100.370,0.000 100.811,0.000 105.215 C 0.000 108.395,0.100 108.988,0.741 109.630 C 1.148 110.037,1.481 110.704,1.481 111.111 C 1.481 111.519,1.660 111.852,1.878 111.852 C 2.391 111.852,3.333 112.794,3.333 113.307 C 3.333 113.525,3.732 113.704,4.220 113.704 C 4.707 113.704,5.202 113.954,5.319 114.259 C 5.436 114.565,5.797 114.815,6.121 114.815 C 6.445 114.815,6.629 114.947,6.529 115.108 C 6.429 115.270,6.671 115.426,7.066 115.456 C 7.462 115.486,8.045 115.770,8.364 116.088 C 8.682 116.406,9.430 116.667,10.026 116.667 C 10.623 116.667,11.111 116.833,11.111 117.037 C 11.111 117.241,11.778 117.407,12.593 117.407 C 13.663 117.407,14.074 117.562,14.074 117.963 C 14.074 118.348,14.462 118.519,15.340 118.519 C 16.035 118.519,16.663 118.693,16.734 118.906 C 16.805 119.118,17.694 119.383,18.709 119.492 C 19.725 119.602,20.611 119.845,20.679 120.031 C 20.747 120.218,21.622 120.370,22.623 120.370 C 23.995 120.370,24.444 120.507,24.444 120.926 C 24.444 121.345,24.895 121.481,26.274 121.481 C 27.281 121.481,28.207 121.648,28.333 121.852 C 28.459 122.056,29.552 122.222,30.763 122.222 C 32.472 122.222,32.963 122.346,32.963 122.778 C 32.963 123.215,33.477 123.333,35.370 123.333 C 36.728 123.333,37.778 123.495,37.778 123.704 C 37.778 123.913,38.827 124.074,40.185 124.074 C 42.078 124.074,42.593 124.193,42.593 124.630 C 42.593 125.077,43.169 125.185,45.556 125.185 C 47.942 125.185,48.519 125.293,48.519 125.741 C 48.519 126.188,49.095 126.296,51.481 126.296 C 53.210 126.296,54.444 126.451,54.444 126.667 C 54.444 126.886,55.802 127.037,57.778 127.037 C 60.494 127.037,61.111 127.140,61.111 127.593 C 61.111 128.045,61.728 128.148,64.444 128.148 C 66.420 128.148,67.778 128.299,67.778 128.519 C 67.778 128.733,68.951 128.889,70.556 128.889 C 72.778 128.889,73.333 129.000,73.333 129.444 C 73.333 129.891,73.905 130.000,76.257 130.000 C 78.514 130.000,79.229 130.127,79.393 130.556 C 79.555 130.976,80.237 131.111,82.211 131.111 C 83.700 131.111,84.815 131.270,84.815 131.481 C 84.815 131.698,86.049 131.852,87.778 131.852 C 90.165 131.852,90.741 131.960,90.741 132.407 C 90.741 132.844,91.255 132.963,93.148 132.963 C 94.506 132.963,95.556 133.124,95.556 133.333 C 95.556 133.542,96.605 133.704,97.963 133.704 C 99.856 133.704,100.370 133.822,100.370 134.259 C 100.370 134.703,100.922 134.815,103.109 134.815 C 105.201 134.815,105.897 134.946,106.060 135.370 C 106.217 135.779,106.863 135.926,108.507 135.926 C 109.749 135.926,110.741 136.090,110.741 136.296 C 110.741 136.505,111.790 136.667,113.148 136.667 C 115.041 136.667,115.556 136.785,115.556 137.222 C 115.556 137.659,116.070 137.778,117.963 137.778 C 119.321 137.778,120.370 137.939,120.370 138.148 C 120.370 138.352,121.287 138.519,122.407 138.519 C 123.840 138.519,124.417 138.656,124.352 138.981 C 124.290 139.291,124.872 139.483,126.104 139.561 C 127.119 139.625,128.056 139.851,128.188 140.064 C 128.319 140.277,129.198 140.538,130.139 140.644 C 131.081 140.750,131.852 140.982,131.852 141.159 C 131.852 141.336,132.769 141.481,133.889 141.481 C 135.453 141.481,135.926 141.611,135.926 142.037 C 135.926 142.425,136.317 142.593,137.222 142.593 C 137.935 142.593,138.519 142.759,138.519 142.963 C 138.519 143.167,139.269 143.333,140.185 143.333 C 141.321 143.333,141.822 143.481,141.759 143.796 C 141.701 144.086,142.187 144.302,143.056 144.374 C 143.819 144.437,144.444 144.646,144.444 144.837 C 144.444 145.029,145.111 145.185,145.926 145.185 C 146.996 145.185,147.407 145.340,147.407 145.741 C 147.407 146.125,147.794 146.296,148.664 146.296 C 149.439 146.296,150.002 146.509,150.134 146.852 C 150.268 147.201,150.834 147.407,151.655 147.407 C 152.374 147.407,152.963 147.574,152.963 147.778 C 152.963 147.981,153.362 148.148,153.849 148.148 C 154.337 148.148,154.831 148.398,154.949 148.704 C 155.083 149.052,155.649 149.259,156.470 149.259 C 157.189 149.259,157.778 149.426,157.778 149.630 C 157.778 149.833,158.194 150.000,158.704 150.000 C 159.280 150.000,159.630 150.210,159.630 150.556 C 159.630 150.957,160.041 151.111,161.111 151.111 C 162.181 151.111,162.593 151.265,162.593 151.667 C 162.593 152.012,162.942 152.222,163.519 152.222 C 164.028 152.222,164.444 152.389,164.444 152.593 C 164.444 152.796,164.927 152.963,165.516 152.963 C 166.127 152.963,166.679 153.202,166.801 153.519 C 166.925 153.843,167.480 154.074,168.137 154.074 C 168.754 154.074,169.259 154.241,169.259 154.444 C 169.259 154.648,169.658 154.815,170.146 154.815 C 170.633 154.815,171.128 155.065,171.245 155.370 C 171.377 155.715,171.941 155.926,172.727 155.926 C 173.512 155.926,174.076 156.137,174.208 156.481 C 174.325 156.787,174.760 157.037,175.174 157.037 C 175.587 157.037,175.926 157.204,175.926 157.407 C 175.926 157.611,176.408 157.778,176.997 157.778 C 177.608 157.778,178.161 158.017,178.282 158.333 C 178.407 158.658,178.962 158.889,179.618 158.889 C 180.236 158.889,180.741 159.056,180.741 159.259 C 180.741 159.463,181.140 159.630,181.627 159.630 C 182.115 159.630,182.609 159.880,182.727 160.185 C 182.844 160.491,183.362 160.741,183.877 160.741 C 184.393 160.741,184.815 160.900,184.815 161.094 C 184.815 161.289,185.398 161.557,186.111 161.691 C 186.824 161.825,187.407 162.082,187.407 162.263 C 187.407 162.444,187.907 162.593,188.519 162.593 C 189.259 162.593,189.630 162.778,189.630 163.148 C 189.630 163.494,189.979 163.704,190.556 163.704 C 191.065 163.704,191.481 163.870,191.481 164.074 C 191.481 164.278,191.880 164.444,192.368 164.444 C 192.855 164.444,193.336 164.658,193.436 164.918 C 193.536 165.178,194.179 165.434,194.864 165.485 C 195.550 165.537,196.167 165.740,196.235 165.938 C 196.302 166.135,196.761 166.296,197.253 166.296 C 197.802 166.296,198.148 166.511,198.148 166.852 C 198.148 167.191,198.494 167.407,199.034 167.407 C 199.522 167.407,200.017 167.657,200.134 167.963 C 200.251 168.269,200.676 168.519,201.078 168.519 C 201.479 168.519,201.911 168.685,202.037 168.889 C 202.163 169.093,202.839 169.259,203.540 169.259 C 204.426 169.259,204.815 169.429,204.815 169.815 C 204.815 170.160,205.165 170.370,205.741 170.370 C 206.250 170.370,206.667 170.537,206.667 170.741 C 206.667 170.944,207.083 171.111,207.593 171.111 C 208.169 171.111,208.519 171.321,208.519 171.667 C 208.519 172.037,208.889 172.222,209.630 172.222 C 210.289 172.222,210.741 172.416,210.741 172.699 C 210.741 172.961,211.113 173.204,211.569 173.238 C 212.024 173.272,212.454 173.474,212.525 173.687 C 212.596 173.900,213.057 174.074,213.549 174.074 C 214.098 174.074,214.444 174.289,214.444 174.630 C 214.444 174.975,214.794 175.185,215.370 175.185 C 215.880 175.185,216.296 175.352,216.296 175.556 C 216.296 175.759,216.713 175.926,217.222 175.926 C 217.798 175.926,218.148 176.136,218.148 176.481 C 218.148 176.821,218.494 177.037,219.034 177.037 C 219.522 177.037,220.017 177.287,220.134 177.593 C 220.251 177.898,220.769 178.148,221.285 178.148 C 221.800 178.148,222.222 178.315,222.222 178.519 C 222.222 178.722,222.639 178.889,223.148 178.889 C 223.657 178.889,224.074 179.079,224.074 179.311 C 224.074 179.934,225.248 180.715,226.204 180.729 C 226.692 180.736,227.037 180.971,227.037 181.296 C 227.037 181.614,227.371 181.852,227.817 181.852 C 228.246 181.852,228.925 182.269,229.325 182.778 C 229.726 183.287,230.380 183.704,230.779 183.704 C 231.178 183.704,231.595 183.938,231.705 184.225 C 231.815 184.512,232.435 184.961,233.082 185.222 C 233.730 185.483,234.393 185.915,234.555 186.182 C 234.718 186.449,235.167 186.667,235.552 186.667 C 235.937 186.667,236.356 186.833,236.481 187.037 C 236.607 187.241,237.117 187.407,237.614 187.407 C 238.184 187.407,238.519 187.620,238.519 187.981 C 238.519 188.449,238.943 188.534,240.833 188.444 L 243.148 188.333 243.148 183.734 C 243.148 180.384,243.022 179.093,242.685 178.981 C 242.398 178.886,242.222 178.134,242.222 177.006 C 242.222 175.634,242.085 175.185,241.667 175.185 C 241.265 175.185,241.111 174.774,241.111 173.704 C 241.111 172.889,240.944 172.222,240.741 172.222 C 240.537 172.222,240.370 171.389,240.370 170.370 C 240.370 168.971,240.235 168.519,239.815 168.519 C 239.416 168.519,239.259 168.110,239.259 167.068 C 239.259 166.270,239.111 165.562,238.930 165.494 C 238.749 165.426,238.517 164.626,238.414 163.717 C 238.311 162.807,238.043 162.002,237.817 161.927 C 237.592 161.852,237.407 161.137,237.407 160.340 C 237.407 159.297,237.251 158.889,236.852 158.889 C 236.451 158.889,236.296 158.477,236.296 157.407 C 236.296 156.593,236.130 155.926,235.926 155.926 C 235.722 155.926,235.556 155.093,235.556 154.074 C 235.556 152.675,235.420 152.222,235.000 152.222 C 234.574 152.222,234.444 151.749,234.444 150.185 C 234.444 148.621,234.574 148.148,235.000 148.148 C 235.306 148.148,235.556 148.398,235.556 148.704 C 235.556 149.009,235.704 149.259,235.886 149.259 C 236.067 149.259,236.321 149.676,236.448 150.185 C 236.576 150.694,236.844 151.111,237.044 151.111 C 237.244 151.111,237.407 151.528,237.407 152.037 C 237.407 152.613,237.617 152.963,237.963 152.963 C 238.309 152.963,238.519 153.313,238.519 153.889 C 238.519 154.398,238.685 154.815,238.889 154.815 C 239.093 154.815,239.259 155.403,239.259 156.123 C 239.259 156.944,239.466 157.510,239.815 157.644 C 240.120 157.761,240.370 158.256,240.370 158.743 C 240.370 159.231,240.537 159.630,240.741 159.630 C 240.944 159.630,241.111 160.218,241.111 160.938 C 241.111 161.758,241.318 162.325,241.667 162.459 C 241.972 162.576,242.222 163.071,242.222 163.558 C 242.222 164.099,242.439 164.444,242.778 164.444 C 243.179 164.444,243.333 164.856,243.333 165.926 C 243.333 166.741,243.500 167.407,243.704 167.407 C 243.907 167.407,244.074 167.824,244.074 168.333 C 244.074 168.909,244.284 169.259,244.630 169.259 C 245.031 169.259,245.185 169.671,245.185 170.741 C 245.185 171.556,245.352 172.222,245.556 172.222 C 245.759 172.222,245.926 172.797,245.926 173.500 C 245.926 174.238,246.155 174.906,246.469 175.082 C 246.768 175.249,247.053 175.924,247.103 176.582 C 247.155 177.263,247.400 177.778,247.671 177.778 C 247.954 177.778,248.148 178.230,248.148 178.889 C 248.148 179.500,248.315 180.000,248.519 180.000 C 248.722 180.000,248.889 180.583,248.889 181.296 C 248.889 182.202,249.056 182.593,249.444 182.593 C 249.846 182.593,250.000 183.004,250.000 184.074 C 250.000 184.889,250.167 185.556,250.370 185.556 C 250.574 185.556,250.741 186.222,250.741 187.037 C 250.741 188.107,250.895 188.519,251.296 188.519 C 251.698 188.519,251.852 188.930,251.852 190.000 C 251.852 190.815,252.019 191.481,252.222 191.481 C 252.426 191.481,252.593 192.070,252.593 192.789 C 252.593 193.610,252.799 194.177,253.148 194.311 C 253.537 194.460,253.704 195.067,253.704 196.336 C 253.704 197.700,253.841 198.148,254.259 198.148 C 254.679 198.148,254.815 198.601,254.815 200.000 C 254.815 201.019,254.981 201.852,255.185 201.852 C 255.389 201.852,255.556 202.581,255.556 203.473 C 255.556 204.463,255.772 205.274,256.111 205.556 C 256.466 205.850,256.667 206.669,256.667 207.823 C 256.667 208.817,256.833 209.630,257.037 209.630 C 257.241 209.630,257.407 210.534,257.407 211.640 C 257.407 212.900,257.607 213.851,257.943 214.186 C 258.255 214.499,258.526 215.630,258.591 216.898 C 258.669 218.396,258.848 219.045,259.167 218.981 C 259.502 218.914,259.630 219.605,259.630 221.481 C 259.630 222.963,259.788 224.074,260.000 224.074 C 260.214 224.074,260.370 225.247,260.370 226.852 C 260.370 229.074,260.481 229.630,260.926 229.630 C 261.379 229.630,261.481 230.247,261.481 232.963 C 261.481 234.938,261.632 236.296,261.852 236.296 C 262.075 236.296,262.222 237.840,262.222 240.185 C 262.222 243.395,262.319 244.074,262.778 244.074 C 263.250 244.074,263.333 245.021,263.333 250.370 C 263.333 255.742,263.416 256.667,263.893 256.667 C 264.385 256.667,264.441 258.436,264.356 271.204 C 264.280 282.595,264.159 285.721,263.796 285.648 C 263.448 285.578,263.333 286.597,263.333 289.775 C 263.333 293.184,263.227 294.036,262.778 294.208 C 262.352 294.371,262.222 295.073,262.222 297.211 C 262.222 298.823,262.066 300.000,261.852 300.000 C 261.630 300.000,261.481 301.466,261.481 303.658 C 261.481 306.458,261.351 307.425,260.926 307.778 C 260.518 308.116,260.370 309.015,260.370 311.156 C 260.370 313.503,260.479 314.074,260.926 314.074 C 261.231 314.074,261.481 314.239,261.481 314.440 C 261.481 315.580,262.800 316.296,264.897 316.296 C 266.077 316.296,267.037 316.462,267.037 316.667 C 267.037 316.910,274.815 317.037,289.630 317.037 C 304.444 317.037,312.222 316.910,312.222 316.667 C 312.222 316.447,313.580 316.296,315.556 316.296 C 318.272 316.296,318.889 316.193,318.889 315.741 C 318.889 315.304,319.403 315.185,321.296 315.185 C 323.189 315.185,323.704 315.066,323.704 314.630 C 323.704 314.210,324.156 314.074,325.556 314.074 C 326.574 314.074,327.407 313.907,327.407 313.704 C 327.407 313.500,328.074 313.333,328.889 313.333 C 329.959 313.333,330.370 313.179,330.370 312.778 C 330.370 312.377,330.782 312.222,331.852 312.222 C 332.667 312.222,333.333 312.056,333.333 311.852 C 333.333 311.648,333.750 311.481,334.259 311.481 C 334.835 311.481,335.185 311.272,335.185 310.926 C 335.185 310.525,335.597 310.370,336.667 310.370 C 337.737 310.370,338.148 310.216,338.148 309.815 C 338.148 309.469,338.498 309.259,339.074 309.259 C 339.583 309.259,340.000 309.093,340.000 308.889 C 340.000 308.685,340.417 308.519,340.926 308.519 C 341.502 308.519,341.852 308.309,341.852 307.963 C 341.852 307.617,342.202 307.407,342.778 307.407 C 343.287 307.407,343.704 307.241,343.704 307.037 C 343.704 306.833,343.954 306.667,344.259 306.667 C 344.565 306.667,344.815 306.417,344.815 306.111 C 344.815 305.796,345.147 305.556,345.584 305.556 C 346.383 305.556,348.519 303.690,348.519 302.991 C 348.519 302.772,348.769 302.593,349.074 302.593 C 349.531 302.593,349.630 301.934,349.630 298.889 C 349.630 295.844,349.531 295.185,349.074 295.185 C 348.637 295.185,348.519 294.671,348.519 292.778 C 348.519 291.420,348.357 290.370,348.148 290.370 C 347.939 290.370,347.778 289.321,347.778 287.963 C 347.778 286.070,347.659 285.556,347.222 285.556 C 346.803 285.556,346.667 285.105,346.667 283.726 C 346.667 282.719,346.500 281.793,346.296 281.667 C 346.093 281.541,345.926 280.864,345.926 280.163 C 345.926 279.277,345.757 278.889,345.370 278.889 C 344.969 278.889,344.815 278.477,344.815 277.407 C 344.815 276.337,344.660 275.926,344.259 275.926 C 343.858 275.926,343.704 275.514,343.704 274.444 C 343.704 273.630,343.537 272.963,343.333 272.963 C 343.130 272.963,342.963 272.296,342.963 271.481 C 342.963 270.412,342.809 270.000,342.407 270.000 C 342.019 270.000,341.852 269.609,341.852 268.704 C 341.852 267.991,341.685 267.407,341.481 267.407 C 341.278 267.407,341.111 266.741,341.111 265.926 C 341.111 264.856,340.957 264.444,340.556 264.444 C 340.154 264.444,340.000 264.033,340.000 262.963 C 340.000 262.148,339.855 261.481,339.677 261.481 C 339.499 261.481,339.247 260.815,339.117 260.000 C 338.987 259.185,338.715 258.519,338.514 258.519 C 338.313 258.519,338.148 257.935,338.148 257.222 C 338.148 256.317,337.981 255.926,337.593 255.926 C 337.191 255.926,337.037 255.514,337.037 254.444 C 337.037 253.630,336.870 252.963,336.667 252.963 C 336.463 252.963,336.296 252.541,336.296 252.025 C 336.296 251.510,336.046 250.992,335.741 250.875 C 335.398 250.743,335.185 250.180,335.185 249.405 C 335.185 248.714,335.019 248.148,334.815 248.148 C 334.611 248.148,334.444 247.560,334.444 246.840 C 334.444 246.019,334.238 245.453,333.889 245.319 C 333.527 245.180,333.333 244.604,333.333 243.664 C 333.333 242.629,333.176 242.222,332.778 242.222 C 332.390 242.222,332.222 241.831,332.222 240.926 C 332.222 240.213,332.056 239.630,331.852 239.630 C 331.648 239.630,331.481 239.130,331.481 238.519 C 331.481 237.778,331.296 237.407,330.926 237.407 C 330.540 237.407,330.370 237.019,330.370 236.133 C 330.370 235.432,330.204 234.756,330.000 234.630 C 329.796 234.504,329.630 233.905,329.630 233.300 C 329.630 232.663,329.395 232.109,329.074 231.986 C 328.730 231.854,328.519 231.290,328.519 230.504 C 328.519 229.719,328.307 229.155,327.963 229.023 C 327.657 228.906,327.407 228.411,327.407 227.923 C 327.407 227.436,327.241 227.037,327.037 227.037 C 326.833 227.037,326.667 226.370,326.667 225.556 C 326.667 224.486,326.512 224.074,326.111 224.074 C 325.725 224.074,325.556 223.686,325.556 222.800 C 325.556 222.099,325.389 221.422,325.185 221.296 C 324.981 221.170,324.815 220.661,324.815 220.163 C 324.815 219.607,324.601 219.259,324.259 219.259 C 323.870 219.259,323.704 218.867,323.704 217.951 C 323.704 217.130,323.497 216.564,323.148 216.430 C 322.843 216.313,322.593 215.818,322.593 215.331 C 322.593 214.843,322.426 214.444,322.222 214.444 C 322.019 214.444,321.852 214.028,321.852 213.519 C 321.852 212.942,321.642 212.593,321.296 212.593 C 320.991 212.593,320.741 212.414,320.741 212.196 C 320.741 211.542,319.735 210.741,318.915 210.741 C 318.493 210.741,318.148 210.907,318.148 211.111 C 318.148 211.315,317.898 211.481,317.593 211.481 C 317.227 211.481,317.037 211.847,317.037 212.553 C 317.037 213.164,316.798 213.716,316.481 213.838 C 316.061 213.999,315.926 214.682,315.926 216.655 C 315.926 218.144,315.767 219.259,315.556 219.259 C 315.328 219.259,315.185 221.111,315.185 224.074 C 315.185 228.107,315.095 228.889,314.630 228.889 C 314.228 228.889,314.074 229.300,314.074 230.370 C 314.074 231.185,313.907 231.852,313.704 231.852 C 313.500 231.852,313.333 232.417,313.333 233.109 C 313.333 233.884,313.121 234.447,312.778 234.578 C 312.472 234.696,312.222 235.142,312.222 235.570 C 312.222 236.713,311.407 237.437,310.823 236.812 C 310.245 236.194,310.166 219.259,310.741 219.259 C 310.969 219.259,311.111 217.407,311.111 214.444 C 311.111 210.412,311.201 209.630,311.667 209.630 C 312.113 209.630,312.222 209.059,312.222 206.712 C 312.222 204.570,312.370 203.672,312.778 203.333 C 313.165 203.012,313.333 202.158,313.333 200.510 C 313.333 199.182,313.496 198.148,313.704 198.148 C 313.913 198.148,314.074 197.099,314.074 195.741 C 314.074 193.848,314.193 193.333,314.630 193.333 C 315.031 193.333,315.185 192.922,315.185 191.852 C 315.185 191.037,315.352 190.370,315.556 190.370 C 315.759 190.370,315.926 189.704,315.926 188.889 C 315.926 187.819,316.080 187.407,316.481 187.407 C 316.866 187.407,317.037 187.021,317.037 186.151 C 317.037 185.375,317.250 184.812,317.593 184.681 C 317.898 184.564,318.148 184.046,318.148 183.530 C 318.148 183.014,318.315 182.593,318.519 182.593 C 318.722 182.593,318.889 182.176,318.889 181.667 C 318.889 181.091,319.099 180.741,319.444 180.741 C 319.790 180.741,320.000 180.391,320.000 179.815 C 320.000 179.306,320.167 178.889,320.370 178.889 C 320.574 178.889,320.741 178.639,320.741 178.333 C 320.741 178.028,320.991 177.778,321.296 177.778 C 321.611 177.778,321.852 177.446,321.852 177.011 C 321.852 176.191,322.653 175.185,323.307 175.185 C 323.525 175.185,323.704 175.011,323.704 174.797 C 323.704 174.584,324.120 174.023,324.630 173.551 C 325.139 173.079,325.556 172.337,325.556 171.902 C 325.556 171.467,325.734 171.111,325.952 171.111 C 326.465 171.111,327.407 170.169,327.407 169.656 C 327.407 169.438,327.587 169.259,327.806 169.259 C 328.325 169.259,330.370 167.214,330.370 166.695 C 330.370 166.476,330.549 166.296,330.767 166.296 C 331.280 166.296,332.222 165.354,332.222 164.841 C 332.222 164.623,332.400 164.444,332.617 164.444 C 333.108 164.444,337.037 160.487,337.037 159.992 C 337.037 159.793,337.226 159.630,337.456 159.630 C 337.687 159.630,338.426 159.046,339.098 158.333 C 339.770 157.620,340.498 157.037,340.716 157.037 C 340.933 157.037,341.778 156.370,342.593 155.556 C 343.407 154.741,344.241 154.074,344.444 154.074 C 344.648 154.074,344.815 153.824,344.815 153.519 C 344.815 153.213,344.993 152.963,345.212 152.963 C 345.724 152.963,346.667 152.021,346.667 151.508 C 346.667 151.290,346.917 151.111,347.222 151.111 C 347.528 151.111,347.778 150.933,347.778 150.714 C 347.778 150.202,348.720 149.259,349.233 149.259 C 349.451 149.259,349.630 149.009,349.630 148.704 C 349.630 148.398,349.880 148.148,350.185 148.148 C 350.491 148.148,350.741 148.019,350.741 147.862 C 350.741 147.705,351.324 147.262,352.037 146.878 C 352.750 146.494,353.333 145.956,353.333 145.682 C 353.333 145.409,353.511 145.185,353.729 145.185 C 353.946 145.185,354.674 144.602,355.346 143.889 C 356.019 143.176,356.758 142.593,356.988 142.593 C 357.219 142.593,357.407 142.415,357.407 142.198 C 357.407 141.684,361.314 137.778,361.828 137.778 C 362.045 137.778,362.222 137.600,362.222 137.383 C 362.222 137.165,362.806 136.437,363.519 135.765 C 364.231 135.092,364.815 134.354,364.815 134.123 C 364.815 133.892,365.065 133.704,365.370 133.704 C 365.676 133.704,365.926 133.537,365.926 133.333 C 365.926 133.130,366.176 132.963,366.481 132.963 C 366.787 132.963,367.037 132.784,367.037 132.566 C 367.037 132.053,367.979 131.111,368.492 131.111 C 368.710 131.111,368.889 130.861,368.889 130.556 C 368.889 130.250,369.056 130.000,369.259 130.000 C 369.463 130.000,369.630 129.750,369.630 129.444 C 369.630 129.139,369.880 128.889,370.185 128.889 C 370.491 128.889,370.741 128.722,370.741 128.519 C 370.741 128.315,370.991 128.148,371.296 128.148 C 371.602 128.148,371.852 127.970,371.852 127.751 C 371.852 127.239,372.794 126.296,373.307 126.296 C 373.525 126.296,373.704 126.046,373.704 125.741 C 373.704 125.435,373.870 125.185,374.074 125.185 C 374.278 125.185,374.444 124.935,374.444 124.630 C 374.444 124.324,374.633 124.074,374.864 124.074 C 375.094 124.074,375.833 123.491,376.505 122.778 C 377.178 122.065,377.906 121.481,378.123 121.481 C 378.341 121.481,378.519 121.304,378.519 121.086 C 378.519 120.869,379.102 120.141,379.815 119.468 C 380.528 118.796,381.111 118.057,381.111 117.827 C 381.111 117.596,381.289 117.407,381.506 117.407 C 382.201 117.407,385.926 113.344,385.926 112.584 C 385.926 112.180,386.175 111.852,386.481 111.852 C 386.787 111.852,387.037 111.602,387.037 111.296 C 387.037 110.991,387.216 110.741,387.434 110.741 C 387.947 110.741,388.889 109.798,388.889 109.286 C 388.889 109.067,389.139 108.889,389.444 108.889 C 389.750 108.889,390.000 108.700,390.000 108.469 C 390.000 108.239,390.366 107.732,390.814 107.344 C 391.261 106.956,391.662 106.401,391.705 106.112 C 391.747 105.822,392.214 105.184,392.743 104.694 C 393.271 104.205,393.704 103.615,393.704 103.383 C 393.704 103.152,393.954 102.963,394.259 102.963 C 394.574 102.963,394.815 102.631,394.815 102.196 C 394.815 101.376,395.616 100.370,396.270 100.370 C 396.488 100.370,396.667 100.014,396.667 99.580 C 396.667 99.145,397.083 98.402,397.593 97.931 C 398.102 97.459,398.519 96.786,398.519 96.436 C 398.519 96.086,398.802 95.486,399.148 95.104 C 400.386 93.736,400.294 79.259,399.047 79.259 C 398.735 79.259,398.519 78.893,398.519 78.364 C 398.519 77.872,398.386 77.414,398.225 77.346 C 398.064 77.278,397.550 76.597,397.084 75.833 C 396.617 75.069,396.083 74.444,395.896 74.444 C 395.709 74.444,395.556 74.266,395.556 74.048 C 395.556 73.535,394.613 72.593,394.101 72.593 C 393.882 72.593,393.704 72.362,393.704 72.080 C 393.704 71.798,393.412 71.470,393.056 71.350 C 392.062 71.017,391.077 70.303,389.790 68.981 C 389.144 68.319,388.261 67.778,387.827 67.778 C 387.372 67.778,387.037 67.542,387.037 67.222 C 387.037 66.917,386.787 66.667,386.481 66.667 C 386.176 66.667,385.926 66.503,385.926 66.303 C 385.926 66.104,385.541 65.843,385.071 65.726 C 384.601 65.608,383.911 65.104,383.538 64.607 C 383.154 64.096,382.479 63.704,381.985 63.704 C 381.504 63.704,381.111 63.537,381.111 63.333 C 381.111 63.130,380.694 62.963,380.185 62.963 C 379.676 62.963,379.259 62.784,379.259 62.566 C 379.259 61.909,378.252 61.111,377.422 61.111 C 376.994 61.111,376.547 60.861,376.430 60.556 C 376.313 60.250,375.818 60.000,375.331 60.000 C 374.790 60.000,374.444 59.783,374.444 59.444 C 374.444 59.099,374.095 58.889,373.519 58.889 C 373.009 58.889,372.593 58.722,372.593 58.519 C 372.593 58.315,371.926 58.148,371.111 58.148 C 370.041 58.148,369.630 57.994,369.630 57.593 C 369.630 57.136,368.971 57.037,365.926 57.037 C 362.881 57.037,362.222 57.136,362.222 57.593 M251.254 303.127 C 250.835 303.420,249.555 303.699,248.410 303.745 C 247.083 303.799,246.259 304.008,246.138 304.322 C 246.030 304.603,245.388 304.815,244.641 304.815 C 243.922 304.815,243.333 304.981,243.333 305.185 C 243.333 305.389,242.667 305.556,241.852 305.556 C 240.782 305.556,240.370 305.710,240.370 306.111 C 240.370 306.512,239.959 306.667,238.889 306.667 C 238.074 306.667,237.407 306.833,237.407 307.037 C 237.407 307.241,236.819 307.407,236.099 307.407 C 235.279 307.407,234.712 307.614,234.578 307.963 C 234.447 308.306,233.884 308.519,233.109 308.519 C 232.417 308.519,231.852 308.671,231.852 308.856 C 231.852 309.042,231.185 309.307,230.370 309.444 C 229.556 309.582,228.889 309.847,228.889 310.033 C 228.889 310.218,228.050 310.370,227.025 310.370 C 225.711 310.370,225.099 310.534,224.949 310.926 C 224.799 311.315,224.193 311.481,222.923 311.481 C 221.927 311.481,221.111 311.648,221.111 311.852 C 221.111 312.058,220.120 312.222,218.877 312.222 C 217.233 312.222,216.587 312.369,216.430 312.778 C 216.263 313.214,215.509 313.333,212.923 313.333 C 211.112 313.333,209.630 313.486,209.630 313.673 C 209.630 313.861,207.518 314.069,204.938 314.136 C 201.604 314.224,200.201 314.393,200.092 314.722 C 199.979 315.063,198.578 315.185,194.784 315.185 C 190.449 315.185,189.630 315.274,189.630 315.741 C 189.630 316.211,188.747 316.296,183.911 316.296 C 180.498 316.296,178.100 316.446,177.963 316.667 C 177.827 316.887,175.486 317.037,172.189 317.037 C 167.601 317.037,166.607 317.133,166.430 317.593 C 166.255 318.050,165.304 318.148,161.071 318.148 C 157.888 318.148,155.926 318.289,155.926 318.519 C 155.926 318.748,153.947 318.889,150.729 318.889 C 146.451 318.889,145.495 318.987,145.319 319.444 C 145.136 319.922,143.452 320.000,133.294 320.000 L 121.481 320.000 121.481 321.323 C 121.481 322.884,122.174 323.704,123.492 323.704 C 124.092 323.704,124.444 323.909,124.444 324.259 C 124.444 324.690,124.935 324.815,126.636 324.815 C 128.060 324.815,128.881 324.977,128.981 325.278 C 129.103 325.642,135.568 325.762,159.290 325.842 C 178.476 325.907,189.489 326.075,189.568 326.305 C 189.740 326.810,276.667 326.801,276.667 326.296 C 276.667 326.093,277.301 325.926,278.077 325.926 C 278.853 325.926,279.812 325.681,280.207 325.382 C 280.602 325.083,281.301 324.833,281.759 324.827 C 282.248 324.820,282.593 324.585,282.593 324.259 C 282.593 323.954,282.759 323.704,282.963 323.704 C 283.167 323.704,283.333 323.314,283.333 322.837 C 283.333 321.619,281.979 321.111,278.726 321.111 C 276.649 321.111,275.955 320.980,275.792 320.556 C 275.610 320.081,274.125 320.000,265.567 320.000 C 256.915 320.000,255.556 319.925,255.556 319.444 C 255.556 319.139,255.306 318.889,255.000 318.889 C 254.694 318.889,254.444 318.722,254.444 318.519 C 254.444 318.315,254.185 318.148,253.867 318.148 C 253.549 318.148,253.393 317.980,253.520 317.775 C 253.647 317.570,253.490 317.302,253.172 317.180 C 252.360 316.869,252.339 313.333,253.148 313.333 C 253.454 313.333,253.704 313.083,253.704 312.778 C 253.704 312.472,253.867 312.222,254.067 312.222 C 254.267 312.222,254.535 311.806,254.663 311.296 C 254.791 310.787,255.044 310.370,255.225 310.370 C 255.407 310.370,255.556 310.120,255.556 309.815 C 255.556 309.509,255.734 309.259,255.952 309.259 C 256.815 309.259,257.407 308.140,257.407 306.508 C 257.407 305.577,257.241 304.815,257.037 304.815 C 256.833 304.815,256.667 304.565,256.667 304.259 C 256.667 303.920,256.321 303.704,255.780 303.704 C 255.293 303.704,254.798 303.454,254.681 303.148 C 254.405 302.430,252.268 302.417,251.254 303.127 " stroke="none" fill="#0c5c74" fill-rule="evenodd"></path></g></svg>