<svg id="svg" version="1.1" xmlns="http://www.w3.org/2000/svg" xmlns:xlink="http://www.w3.org/1999/xlink" width="400" height="462.45847176079735" viewBox="0, 0, 400,462.45847176079735"><g id="svgg"><path id="path0" d="M293.300 11.006 L 292.400 11.645 292.400 113.049 C 292.400 184.923,292.274 214.688,291.968 215.260 C 291.286 216.534,289.127 217.200,285.675 217.200 C 280.649 217.200,281.066 214.771,281.414 241.988 C 281.610 257.368,281.851 265.308,282.127 265.479 C 282.357 265.620,283.817 265.704,285.372 265.665 C 288.689 265.582,290.569 266.044,291.864 267.260 L 292.800 268.139 292.800 358.854 L 292.800 449.569 293.675 450.384 C 294.796 451.428,342.291 451.695,343.148 450.662 C 343.668 450.037,343.825 11.644,343.306 11.175 C 342.560 10.500,294.242 10.337,293.300 11.006 M305.600 11.202 C 309.890 11.208,313.629 11.357,313.908 11.535 C 314.405 11.850,314.422 19.392,314.401 230.100 C 314.400 237.471,314.322 238.478,313.700 239.100 C 312.666 240.134,283.684 240.051,283.103 239.012 C 282.481 237.900,282.311 219.971,282.911 218.800 C 283.399 217.850,283.597 217.800,286.881 217.800 C 290.687 217.800,292.312 217.083,292.852 215.164 C 293.001 214.634,293.138 168.784,293.156 113.276 C 293.173 57.767,293.325 12.118,293.494 11.834 C 293.953 11.059,294.843 10.806,296.400 11.009 C 297.170 11.109,301.310 11.196,305.600 11.202 M77.946 117.123 C 77.456 117.466,77.219 118.084,77.254 118.923 C 77.301 120.012,77.335 120.053,77.488 119.200 C 77.587 118.650,77.802 118.060,77.966 117.888 C 78.518 117.311,195.298 117.513,195.665 118.092 C 195.843 118.371,195.991 140.385,195.994 167.011 C 195.999 208.918,196.079 215.535,196.587 216.260 C 197.747 217.916,199.364 218.000,230.163 218.000 C 258.829 218.000,259.582 218.020,259.986 218.774 C 261.054 220.769,260.424 238.952,259.272 239.394 C 257.622 240.027,181.474 239.645,180.829 239.001 C 180.265 238.437,180.179 232.864,180.000 185.353 C 179.804 133.454,179.784 132.323,179.024 131.768 C 178.036 131.046,82.032 130.903,80.144 131.621 C 78.182 132.367,77.655 131.085,77.501 125.200 C 77.428 122.450,77.401 129.981,77.440 141.935 C 77.482 154.975,77.662 163.822,77.889 164.049 C 78.121 164.281,90.667 164.420,110.341 164.407 C 146.159 164.384,144.374 164.246,145.205 167.102 C 145.513 168.162,145.606 187.063,145.520 231.800 L 145.400 295.000 144.100 298.067 C 143.385 299.753,142.800 301.373,142.799 301.667 C 142.798 301.960,142.168 303.244,141.399 304.520 C 140.630 305.796,140.000 306.996,140.000 307.187 C 140.000 308.302,132.395 314.545,129.220 316.036 C 122.229 319.319,109.027 319.412,103.012 316.221 C 101.539 315.439,100.111 314.800,99.839 314.800 C 99.135 314.800,92.754 308.960,91.815 307.457 C 91.384 306.766,90.916 306.110,90.775 306.000 C 90.364 305.678,89.487 303.939,88.759 302.000 C 88.387 301.010,87.802 299.480,87.459 298.600 C 87.116 297.720,86.827 296.082,86.818 294.960 C 86.795 292.380,86.123 290.404,85.261 290.388 C 84.897 290.381,73.800 290.387,60.600 290.400 C 32.511 290.427,34.743 290.046,35.521 294.679 C 35.773 296.176,36.063 299.380,36.167 301.800 C 36.308 305.085,36.610 306.939,37.359 309.115 C 37.911 310.718,38.533 313.238,38.741 314.715 C 38.972 316.347,39.607 318.318,40.360 319.741 C 41.042 321.028,41.600 322.388,41.600 322.762 C 41.600 323.137,42.107 324.244,42.727 325.222 C 43.347 326.200,44.067 327.614,44.328 328.364 C 44.590 329.115,45.253 330.318,45.802 331.038 C 46.351 331.758,46.800 332.521,46.800 332.734 C 46.800 333.876,56.669 345.701,58.360 346.585 C 58.932 346.884,59.940 347.701,60.600 348.401 C 61.948 349.831,68.119 354.400,68.702 354.400 C 68.910 354.400,69.782 354.899,70.640 355.510 C 72.304 356.694,78.876 360.000,79.565 360.000 C 79.792 360.000,81.017 360.472,82.289 361.048 C 83.560 361.624,86.220 362.508,88.200 363.012 C 90.180 363.517,92.520 364.195,93.400 364.519 C 94.280 364.843,97.520 365.320,100.600 365.579 C 103.680 365.838,107.190 366.248,108.400 366.489 C 111.650 367.138,116.063 367.163,120.800 366.561 C 123.110 366.266,127.839 365.827,131.310 365.585 C 136.058 365.253,138.290 364.910,140.328 364.198 C 141.818 363.678,144.288 363.037,145.818 362.774 C 147.348 362.511,149.410 361.894,150.400 361.403 C 151.390 360.911,152.920 360.280,153.800 359.999 C 154.680 359.719,155.883 359.150,156.474 358.736 C 157.064 358.322,158.291 357.721,159.200 357.400 C 160.108 357.079,161.335 356.437,161.926 355.972 C 162.517 355.508,163.540 354.878,164.200 354.574 C 165.445 353.999,170.219 350.650,171.290 349.600 C 171.627 349.270,172.885 348.190,174.086 347.200 C 175.287 346.210,177.368 343.960,178.711 342.200 C 180.053 340.440,181.879 338.056,182.768 336.902 C 183.657 335.749,184.839 333.949,185.396 332.902 C 185.952 331.856,186.574 330.730,186.777 330.400 C 187.681 328.935,190.801 322.113,190.809 321.585 C 190.814 321.263,191.186 320.190,191.637 319.200 C 192.088 318.210,192.881 315.330,193.399 312.800 C 193.916 310.270,194.531 307.700,194.764 307.090 C 195.813 304.343,196.062 300.007,196.034 285.000 C 196.017 275.369,196.162 268.925,196.414 268.159 C 197.215 265.729,196.127 265.811,229.496 265.686 L 259.992 265.572 260.259 264.506 C 260.407 263.919,260.563 258.571,260.608 252.620 C 260.652 246.669,260.824 236.835,260.989 230.767 C 261.256 220.973,261.217 219.592,260.638 218.474 L 259.987 217.215 229.159 217.107 L 198.331 217.000 197.365 215.878 L 196.400 214.755 196.400 166.374 C 196.400 120.609,196.362 117.959,195.693 117.387 C 194.701 116.538,79.151 116.279,77.946 117.123 " stroke="none" fill="#39ad8b" fill-rule="evenodd"></path><path id="path1" d="M0.000 231.200 L 0.000 462.400 200.000 462.400 L 400.000 462.400 400.000 231.200 L 400.000 0.000 200.000 0.000 L 0.000 0.000 0.000 231.200 M344.743 9.372 C 345.351 9.979,345.400 26.638,345.400 230.785 L 345.400 451.541 344.557 452.671 L 343.714 453.800 319.211 453.903 C 292.470 454.016,292.070 453.987,290.781 451.880 C 290.010 450.619,289.998 449.238,290.003 360.400 C 290.006 310.790,290.007 269.903,290.004 269.539 C 289.999 268.683,288.018 268.000,285.540 268.000 C 283.194 268.000,282.000 268.968,282.000 270.869 C 282.000 273.413,281.451 273.600,273.982 273.600 C 268.186 273.600,267.172 273.506,266.418 272.895 L 265.548 272.190 265.549 241.496 C 265.550 224.615,265.670 210.611,265.814 210.377 C 266.345 209.518,267.977 209.276,274.157 209.139 C 281.285 208.982,282.000 209.265,282.000 212.244 C 282.000 214.974,286.945 216.437,289.369 214.426 C 289.970 213.927,290.019 205.808,289.988 112.507 C 289.950 1.603,289.783 9.748,292.123 8.803 C 293.899 8.087,344.000 8.628,344.743 9.372 M70.913 110.938 C 73.360 111.961,73.228 110.280,73.236 140.623 C 73.244 172.762,73.764 169.496,68.544 170.079 C 61.540 170.862,56.179 170.060,55.417 168.115 C 54.970 166.975,55.171 113.201,55.626 112.352 C 56.651 110.436,67.346 109.447,70.913 110.938 M195.964 114.346 C 196.494 114.496,197.304 115.123,197.764 115.739 L 198.600 116.859 198.687 165.497 C 198.736 192.248,198.928 214.288,199.114 214.474 C 199.301 214.661,212.851 214.831,229.227 214.852 C 261.273 214.893,261.510 214.908,262.558 216.898 C 263.728 219.121,263.359 265.061,262.158 266.671 C 260.921 268.329,261.454 268.301,229.376 268.353 C 206.357 268.389,199.605 268.511,199.091 268.900 C 198.501 269.346,198.413 271.041,198.276 284.600 C 198.102 301.770,197.519 308.465,195.823 312.762 C 195.266 314.170,194.696 316.240,194.555 317.362 C 194.415 318.483,193.692 320.649,192.950 322.176 C 192.207 323.703,191.600 325.180,191.600 325.458 C 191.600 325.737,191.145 326.634,190.590 327.453 C 190.034 328.272,189.470 329.405,189.335 329.971 C 189.200 330.537,188.442 332.080,187.649 333.400 C 186.366 335.536,185.091 337.330,180.536 343.404 C 176.946 348.193,165.344 357.417,161.019 358.922 C 160.349 359.156,159.000 359.853,158.022 360.473 C 157.044 361.093,156.023 361.600,155.754 361.600 C 155.485 361.600,153.951 362.230,152.344 363.000 C 150.737 363.770,149.126 364.400,148.764 364.400 C 148.402 364.400,146.507 364.923,144.553 365.563 C 142.599 366.202,139.380 366.914,137.400 367.145 C 135.420 367.377,132.630 367.821,131.200 368.132 C 127.327 368.976,116.332 369.742,112.000 369.471 C 105.906 369.090,101.092 368.514,99.805 368.013 C 99.148 367.757,97.078 367.365,95.205 367.142 C 93.332 366.918,90.540 366.287,89.000 365.740 C 87.460 365.192,85.271 364.514,84.136 364.233 C 83.002 363.952,81.160 363.245,80.044 362.661 C 78.928 362.077,77.757 361.600,77.441 361.600 C 76.714 361.600,71.012 358.616,69.327 357.354 C 68.626 356.829,67.903 356.400,67.718 356.400 C 66.953 356.400,57.735 349.256,55.036 346.570 C 52.890 344.436,48.453 339.086,46.932 336.800 C 46.127 335.590,44.961 333.855,44.341 332.944 C 43.721 332.034,43.019 330.774,42.781 330.144 C 42.543 329.515,41.833 328.190,41.203 327.200 C 40.572 326.210,39.927 324.860,39.769 324.200 C 39.611 323.540,39.061 322.188,38.548 321.195 C 38.035 320.202,37.429 318.408,37.202 317.209 C 36.974 316.009,36.424 314.277,35.980 313.358 C 35.229 311.807,34.278 306.136,33.773 300.200 C 33.661 298.880,33.303 296.540,32.977 295.000 C 32.248 291.556,32.580 290.121,34.387 288.900 L 35.718 288.000 61.059 288.000 C 91.467 288.000,87.424 286.679,89.828 297.400 C 90.590 300.799,91.240 302.688,92.052 303.872 C 92.684 304.792,93.200 305.730,93.200 305.957 C 93.200 307.264,100.323 312.873,103.436 314.017 C 104.736 314.495,106.520 315.175,107.400 315.529 C 112.428 317.548,124.006 316.276,130.600 312.979 C 133.030 311.764,137.680 307.120,138.640 304.948 C 139.144 303.807,139.740 302.761,139.963 302.623 C 140.405 302.350,141.148 299.994,142.394 294.911 C 143.184 291.685,143.200 290.427,143.200 229.675 L 143.200 167.728 142.181 167.264 C 141.435 166.924,132.643 166.800,109.363 166.800 L 77.564 166.800 76.582 165.818 L 75.600 164.836 75.500 147.318 C 75.307 113.450,75.174 115.416,77.723 114.411 C 78.750 114.007,194.539 113.943,195.964 114.346 M89.346 268.029 L 90.400 268.858 90.400 275.855 C 90.400 283.628,90.257 284.180,88.095 284.780 C 85.461 285.512,33.833 285.341,32.392 284.596 C 30.585 283.661,30.400 282.905,30.400 276.452 C 30.400 269.660,30.657 268.597,32.497 267.798 C 34.946 266.733,87.973 266.949,89.346 268.029 " stroke="none" fill="#0c443c" fill-rule="evenodd"></path><path id="path2" d="M292.123 8.803 C 289.783 9.748,289.950 1.603,289.988 112.507 C 290.019 205.808,289.970 213.927,289.369 214.426 C 286.945 216.437,282.000 214.974,282.000 212.244 C 282.000 209.265,281.285 208.982,274.157 209.139 C 267.977 209.276,266.345 209.518,265.814 210.377 C 265.670 210.611,265.550 224.615,265.549 241.496 L 265.548 272.190 266.418 272.895 C 267.172 273.506,268.186 273.600,273.982 273.600 C 281.451 273.600,282.000 273.413,282.000 270.869 C 282.000 268.968,283.194 268.000,285.540 268.000 C 288.018 268.000,289.999 268.683,290.004 269.539 C 290.007 269.903,290.006 310.790,290.003 360.400 C 289.998 449.238,290.010 450.619,290.781 451.880 C 292.070 453.987,292.470 454.016,319.211 453.903 L 343.714 453.800 344.557 452.671 L 345.400 451.541 345.400 230.785 C 345.400 26.638,345.351 9.979,344.743 9.372 C 344.000 8.628,293.899 8.087,292.123 8.803 M330.238 9.950 C 342.181 9.996,343.123 10.052,343.745 10.740 C 344.675 11.766,344.581 450.218,343.651 451.339 C 343.151 451.941,340.899 452.000,318.533 452.000 L 293.964 452.000 292.982 451.018 L 292.000 450.036 291.991 359.518 C 291.982 270.877,291.966 268.979,291.214 268.000 C 290.493 267.061,290.167 266.988,285.842 266.800 C 283.309 266.690,281.067 266.420,280.858 266.200 C 280.631 265.961,280.423 256.035,280.340 241.469 C 280.176 213.038,279.577 216.000,285.495 216.000 C 288.934 216.000,289.316 215.921,290.218 215.018 L 291.200 214.036 291.200 112.680 C 291.200 11.777,291.204 11.321,292.001 10.599 C 293.232 9.485,294.832 9.381,306.536 9.650 C 312.511 9.787,323.177 9.922,330.238 9.950 M57.110 111.024 C 55.215 112.052,55.234 111.770,55.184 140.244 C 55.133 169.372,55.081 168.506,56.948 169.488 C 59.410 170.782,71.278 170.494,72.666 169.106 C 73.478 168.294,73.525 113.074,72.715 112.097 C 71.266 110.350,59.804 109.561,57.110 111.024 M60.800 114.400 C 60.800 114.933,60.533 115.200,60.000 115.200 C 59.229 115.200,58.916 114.417,59.467 113.867 C 60.017 113.316,60.800 113.629,60.800 114.400 M77.723 114.411 C 75.174 115.416,75.307 113.450,75.500 147.318 L 75.600 164.836 76.582 165.818 L 77.564 166.800 109.363 166.800 C 132.643 166.800,141.435 166.924,142.181 167.264 L 143.200 167.728 143.200 229.675 C 143.200 290.427,143.184 291.685,142.394 294.911 C 141.148 299.994,140.405 302.350,139.963 302.623 C 139.740 302.761,139.144 303.807,138.640 304.948 C 137.680 307.120,133.030 311.764,130.600 312.979 C 124.006 316.276,112.428 317.548,107.400 315.529 C 106.520 315.175,104.736 314.495,103.436 314.017 C 100.323 312.873,93.200 307.264,93.200 305.957 C 93.200 305.730,92.684 304.792,92.052 303.872 C 91.240 302.688,90.590 300.799,89.828 297.400 C 87.424 286.679,91.467 288.000,61.059 288.000 L 35.718 288.000 34.387 288.900 C 32.580 290.121,32.248 291.556,32.977 295.000 C 33.303 296.540,33.661 298.880,33.773 300.200 C 34.278 306.136,35.229 311.807,35.980 313.358 C 36.424 314.277,36.974 316.009,37.202 317.209 C 37.429 318.408,38.035 320.202,38.548 321.195 C 39.061 322.188,39.611 323.540,39.769 324.200 C 39.927 324.860,40.572 326.210,41.203 327.200 C 41.833 328.190,42.543 329.515,42.781 330.144 C 43.019 330.774,43.721 332.034,44.341 332.944 C 44.961 333.855,46.127 335.590,46.932 336.800 C 48.453 339.086,52.890 344.436,55.036 346.570 C 57.735 349.256,66.953 356.400,67.718 356.400 C 67.903 356.400,68.626 356.829,69.327 357.354 C 71.012 358.616,76.714 361.600,77.441 361.600 C 77.757 361.600,78.928 362.077,80.044 362.661 C 81.160 363.245,83.002 363.952,84.136 364.233 C 85.271 364.514,87.460 365.192,89.000 365.740 C 90.540 366.287,93.332 366.918,95.205 367.142 C 97.078 367.365,99.148 367.757,99.805 368.013 C 101.092 368.514,105.906 369.090,112.000 369.471 C 116.332 369.742,127.327 368.976,131.200 368.132 C 132.630 367.821,135.420 367.377,137.400 367.145 C 139.380 366.914,142.599 366.202,144.553 365.563 C 146.507 364.923,148.402 364.400,148.764 364.400 C 149.126 364.400,150.737 363.770,152.344 363.000 C 153.951 362.230,155.485 361.600,155.754 361.600 C 156.023 361.600,157.044 361.093,158.022 360.473 C 159.000 359.853,160.349 359.156,161.019 358.922 C 165.344 357.417,176.946 348.193,180.536 343.404 C 185.091 337.330,186.366 335.536,187.649 333.400 C 188.442 332.080,189.200 330.537,189.335 329.971 C 189.470 329.405,190.034 328.272,190.590 327.453 C 191.145 326.634,191.600 325.737,191.600 325.458 C 191.600 325.180,192.207 323.703,192.950 322.176 C 193.692 320.649,194.415 318.483,194.555 317.362 C 194.696 316.240,195.266 314.170,195.823 312.762 C 197.519 308.465,198.102 301.770,198.276 284.600 C 198.413 271.041,198.501 269.346,199.091 268.900 C 199.605 268.511,206.357 268.389,229.376 268.353 C 261.454 268.301,260.921 268.329,262.158 266.671 C 263.359 265.061,263.728 219.121,262.558 216.898 C 261.510 214.908,261.273 214.893,229.227 214.852 C 212.851 214.831,199.301 214.661,199.114 214.474 C 198.928 214.288,198.736 192.248,198.687 165.497 L 198.600 116.859 197.764 115.739 C 197.304 115.123,196.494 114.496,195.964 114.346 C 194.539 113.943,78.750 114.007,77.723 114.411 M196.594 116.416 C 197.391 117.213,197.402 117.773,197.600 166.099 L 197.800 214.976 198.800 215.482 C 199.580 215.877,206.441 215.990,229.918 215.994 L 260.036 216.000 261.062 217.026 L 262.088 218.051 261.813 241.526 L 261.539 265.000 260.547 265.900 L 259.555 266.800 229.222 266.800 C 199.960 266.800,198.855 266.827,197.944 267.564 L 197.000 268.328 196.772 285.864 C 196.545 303.240,196.059 308.839,194.568 311.252 C 194.456 311.432,194.104 312.947,193.784 314.618 C 192.781 319.858,187.407 331.768,183.900 336.521 C 176.919 345.984,173.829 349.044,166.200 354.047 C 160.285 357.926,150.789 362.405,146.746 363.223 C 145.566 363.461,143.250 364.091,141.600 364.621 C 138.565 365.597,135.701 366.025,127.000 366.804 C 124.360 367.041,121.331 367.406,120.269 367.617 C 117.341 368.198,111.199 368.082,108.964 367.404 C 107.884 367.077,106.010 366.801,104.800 366.791 C 92.016 366.689,73.165 359.483,62.050 350.448 C 59.988 348.772,57.715 347.006,56.998 346.524 C 56.282 346.043,55.320 345.041,54.861 344.298 C 54.401 343.555,53.636 342.599,53.159 342.174 C 49.267 338.700,44.162 330.430,39.841 320.600 C 38.133 316.715,35.602 305.945,35.375 301.600 C 35.266 299.510,34.977 296.606,34.733 295.147 C 33.743 289.227,31.954 289.600,61.357 289.600 C 89.745 289.600,87.078 289.145,87.480 294.053 C 87.909 299.293,91.165 306.362,94.662 309.644 C 97.350 312.169,100.341 314.319,101.862 314.820 C 102.672 315.088,103.890 315.628,104.567 316.021 C 105.766 316.715,109.085 317.319,114.400 317.809 C 126.862 318.960,139.440 310.884,142.636 299.679 C 144.954 291.554,144.752 298.146,144.777 229.922 L 144.800 167.645 143.835 166.522 L 142.869 165.400 110.344 165.321 C 81.643 165.251,77.767 165.169,77.371 164.628 C 77.000 164.120,76.193 129.565,76.317 119.529 C 76.344 117.391,76.918 116.079,78.002 115.677 C 80.175 114.873,195.771 115.594,196.594 116.416 M61.374 166.357 C 61.638 166.784,59.731 167.328,59.175 166.985 C 58.962 166.853,58.891 166.577,59.017 166.372 C 59.311 165.897,61.082 165.886,61.374 166.357 M279.919 213.039 C 280.062 214.031,279.054 214.983,278.205 214.657 C 276.953 214.177,277.853 211.838,279.192 212.092 C 279.526 212.156,279.854 212.582,279.919 213.039 M32.497 267.798 C 30.657 268.597,30.400 269.660,30.400 276.452 C 30.400 282.905,30.585 283.661,32.392 284.596 C 33.833 285.341,85.461 285.512,88.095 284.780 C 90.257 284.180,90.400 283.628,90.400 275.855 L 90.400 268.858 89.346 268.029 C 87.973 266.949,34.946 266.733,32.497 267.798 M279.520 268.880 C 280.476 269.836,280.106 271.203,278.900 271.170 C 277.262 271.124,274.619 270.072,276.038 270.030 C 276.609 270.014,277.402 269.640,277.800 269.200 C 278.642 268.270,278.868 268.228,279.520 268.880 M272.333 270.006 C 272.910 270.011,272.919 270.065,272.400 270.400 C 271.636 270.893,269.600 270.918,269.600 270.433 C 269.600 269.954,270.457 269.618,271.133 269.832 C 271.426 269.924,271.966 270.003,272.333 270.006 M36.228 270.445 C 36.647 271.123,35.566 271.586,34.752 271.077 C 34.226 270.749,34.162 270.545,34.516 270.320 C 35.210 269.879,35.910 269.930,36.228 270.445 M87.665 270.809 C 87.303 272.395,87.246 279.739,87.591 280.383 C 87.868 280.902,87.831 281.242,87.462 281.548 C 86.691 282.188,85.973 281.322,86.383 280.246 C 86.954 278.743,86.478 271.464,85.775 270.940 C 85.292 270.581,85.271 270.434,85.679 270.265 C 86.626 269.872,87.805 270.195,87.665 270.809 " stroke="none" fill="#1e7661" fill-rule="evenodd"></path><path id="path3" d="M294.237 9.637 C 290.845 10.197,291.200 -1.831,291.200 112.680 L 291.200 214.036 290.218 215.018 C 289.316 215.921,288.934 216.000,285.495 216.000 C 279.577 216.000,280.176 213.038,280.340 241.469 C 280.423 256.035,280.631 265.961,280.858 266.200 C 281.067 266.420,283.309 266.690,285.842 266.800 C 290.167 266.988,290.493 267.061,291.214 268.000 C 291.966 268.979,291.982 270.877,291.991 359.518 L 292.000 450.036 292.982 451.018 L 293.964 452.000 318.533 452.000 C 340.899 452.000,343.151 451.941,343.651 451.339 C 344.581 450.218,344.675 11.766,343.745 10.740 C 343.123 10.052,342.181 9.996,330.238 9.950 C 323.177 9.922,312.511 9.787,306.536 9.650 C 300.561 9.512,295.027 9.507,294.237 9.637 M343.306 11.175 C 343.825 11.644,343.668 450.037,343.148 450.662 C 342.291 451.695,294.796 451.428,293.675 450.384 L 292.800 449.569 292.800 358.854 L 292.800 268.139 291.864 267.260 C 290.569 266.044,288.689 265.582,285.372 265.665 C 283.817 265.704,282.357 265.620,282.127 265.479 C 281.851 265.308,281.610 257.368,281.414 241.988 C 281.066 214.771,280.649 217.200,285.675 217.200 C 289.127 217.200,291.286 216.534,291.968 215.260 C 292.274 214.688,292.400 184.923,292.400 113.049 L 292.400 11.645 293.300 11.006 C 294.242 10.337,342.560 10.500,343.306 11.175 M59.467 113.867 C 58.916 114.417,59.229 115.200,60.000 115.200 C 60.533 115.200,60.800 114.933,60.800 114.400 C 60.800 113.629,60.017 113.316,59.467 113.867 M78.002 115.677 C 76.918 116.079,76.344 117.391,76.317 119.529 C 76.193 129.565,77.000 164.120,77.371 164.628 C 77.767 165.169,81.643 165.251,110.344 165.321 L 142.869 165.400 143.835 166.522 L 144.800 167.645 144.777 229.922 C 144.752 298.146,144.954 291.554,142.636 299.679 C 139.440 310.884,126.862 318.960,114.400 317.809 C 109.085 317.319,105.766 316.715,104.567 316.021 C 103.890 315.628,102.672 315.088,101.862 314.820 C 100.341 314.319,97.350 312.169,94.662 309.644 C 91.165 306.362,87.909 299.293,87.480 294.053 C 87.078 289.145,89.745 289.600,61.357 289.600 C 31.954 289.600,33.743 289.227,34.733 295.147 C 34.977 296.606,35.266 299.510,35.375 301.600 C 35.602 305.945,38.133 316.715,39.841 320.600 C 44.162 330.430,49.267 338.700,53.159 342.174 C 53.636 342.599,54.401 343.555,54.861 344.298 C 55.320 345.041,56.282 346.043,56.998 346.524 C 57.715 347.006,59.988 348.772,62.050 350.448 C 73.165 359.483,92.016 366.689,104.800 366.791 C 106.010 366.801,107.884 367.077,108.964 367.404 C 111.199 368.082,117.341 368.198,120.269 367.617 C 121.331 367.406,124.360 367.041,127.000 366.804 C 135.701 366.025,138.565 365.597,141.600 364.621 C 143.250 364.091,145.566 363.461,146.746 363.223 C 150.789 362.405,160.285 357.926,166.200 354.047 C 173.829 349.044,176.919 345.984,183.900 336.521 C 187.407 331.768,192.781 319.858,193.784 314.618 C 194.104 312.947,194.456 311.432,194.568 311.252 C 196.059 308.839,196.545 303.240,196.772 285.864 L 197.000 268.328 197.944 267.564 C 198.855 266.827,199.960 266.800,229.222 266.800 L 259.555 266.800 260.547 265.900 L 261.539 265.000 261.813 241.526 L 262.088 218.051 261.062 217.026 L 260.036 216.000 229.918 215.994 C 206.441 215.990,199.580 215.877,198.800 215.482 L 197.800 214.976 197.600 166.099 C 197.402 117.773,197.391 117.213,196.594 116.416 C 195.771 115.594,80.175 114.873,78.002 115.677 M195.693 117.387 C 196.362 117.959,196.400 120.609,196.400 166.374 L 196.400 214.755 197.365 215.878 L 198.331 217.000 229.159 217.107 L 259.987 217.215 260.638 218.474 C 261.217 219.592,261.256 220.973,260.989 230.767 C 260.824 236.835,260.652 246.669,260.608 252.620 C 260.563 258.571,260.407 263.919,260.259 264.506 L 259.992 265.572 229.496 265.686 C 196.127 265.811,197.215 265.729,196.414 268.159 C 196.162 268.925,196.017 275.369,196.034 285.000 C 196.062 300.007,195.813 304.343,194.764 307.090 C 194.531 307.700,193.916 310.270,193.399 312.800 C 192.881 315.330,192.088 318.210,191.637 319.200 C 191.186 320.190,190.814 321.263,190.809 321.585 C 190.801 322.113,187.681 328.935,186.777 330.400 C 186.574 330.730,185.952 331.856,185.396 332.902 C 184.839 333.949,183.657 335.749,182.768 336.902 C 181.879 338.056,180.053 340.440,178.711 342.200 C 177.368 343.960,175.287 346.210,174.086 347.200 C 172.885 348.190,171.627 349.270,171.290 349.600 C 170.219 350.650,165.445 353.999,164.200 354.574 C 163.540 354.878,162.517 355.508,161.926 355.972 C 161.335 356.437,160.108 357.079,159.200 357.400 C 158.291 357.721,157.064 358.322,156.474 358.736 C 155.883 359.150,154.680 359.719,153.800 359.999 C 152.920 360.280,151.390 360.911,150.400 361.403 C 149.410 361.894,147.348 362.511,145.818 362.774 C 144.288 363.037,141.818 363.678,140.328 364.198 C 138.290 364.910,136.058 365.253,131.310 365.585 C 127.839 365.827,123.110 366.266,120.800 366.561 C 116.063 367.163,111.650 367.138,108.400 366.489 C 107.190 366.248,103.680 365.838,100.600 365.579 C 97.520 365.320,94.280 364.843,93.400 364.519 C 92.520 364.195,90.180 363.517,88.200 363.012 C 86.220 362.508,83.560 361.624,82.289 361.048 C 81.017 360.472,79.792 360.000,79.565 360.000 C 78.876 360.000,72.304 356.694,70.640 355.510 C 69.782 354.899,68.910 354.400,68.702 354.400 C 68.119 354.400,61.948 349.831,60.600 348.401 C 59.940 347.701,58.932 346.884,58.360 346.585 C 56.669 345.701,46.800 333.876,46.800 332.734 C 46.800 332.521,46.351 331.758,45.802 331.038 C 45.253 330.318,44.590 329.115,44.328 328.364 C 44.067 327.614,43.347 326.200,42.727 325.222 C 42.107 324.244,41.600 323.137,41.600 322.762 C 41.600 322.388,41.042 321.028,40.360 319.741 C 39.607 318.318,38.972 316.347,38.741 314.715 C 38.533 313.238,37.911 310.718,37.359 309.115 C 36.610 306.939,36.308 305.085,36.167 301.800 C 36.063 299.380,35.773 296.176,35.521 294.679 C 34.743 290.046,32.511 290.427,60.600 290.400 C 73.800 290.387,84.897 290.381,85.261 290.388 C 86.123 290.404,86.795 292.380,86.818 294.960 C 86.827 296.082,87.116 297.720,87.459 298.600 C 87.802 299.480,88.387 301.010,88.759 302.000 C 89.487 303.939,90.364 305.678,90.775 306.000 C 90.916 306.110,91.384 306.766,91.815 307.457 C 92.754 308.960,99.135 314.800,99.839 314.800 C 100.111 314.800,101.539 315.439,103.012 316.221 C 109.027 319.412,122.229 319.319,129.220 316.036 C 132.395 314.545,140.000 308.302,140.000 307.187 C 140.000 306.996,140.630 305.796,141.399 304.520 C 142.168 303.244,142.798 301.960,142.799 301.667 C 142.800 301.373,143.385 299.753,144.100 298.067 L 145.400 295.000 145.520 231.800 C 145.606 187.063,145.513 168.162,145.205 167.102 C 144.374 164.246,146.159 164.384,110.341 164.407 C 90.607 164.420,78.122 164.282,77.888 164.048 C 77.041 163.201,77.086 117.725,77.935 117.131 C 79.150 116.279,194.693 116.531,195.693 117.387 M59.017 166.372 C 58.891 166.577,58.962 166.853,59.175 166.985 C 59.731 167.328,61.638 166.784,61.374 166.357 C 61.082 165.886,59.311 165.897,59.017 166.372 M278.092 212.468 C 277.412 213.148,277.475 214.377,278.205 214.657 C 279.054 214.983,280.062 214.031,279.919 213.039 C 279.780 212.069,278.798 211.762,278.092 212.468 M277.800 269.200 C 277.402 269.640,276.609 270.014,276.038 270.030 C 275.082 270.058,275.111 270.104,276.400 270.600 C 278.693 271.483,280.000 271.367,280.000 270.280 C 280.000 268.521,278.902 267.982,277.800 269.200 M270.100 269.865 C 269.825 269.976,269.600 270.232,269.600 270.433 C 269.600 270.918,271.636 270.893,272.400 270.400 C 272.919 270.065,272.910 270.011,272.333 270.006 C 271.966 270.003,271.426 269.924,271.133 269.832 C 270.840 269.739,270.375 269.754,270.100 269.865 M34.516 270.320 C 34.162 270.545,34.226 270.749,34.752 271.077 C 35.566 271.586,36.647 271.123,36.228 270.445 C 35.910 269.930,35.210 269.879,34.516 270.320 M85.679 270.265 C 85.271 270.434,85.292 270.581,85.775 270.940 C 86.478 271.464,86.954 278.743,86.383 280.246 C 85.973 281.322,86.691 282.188,87.462 281.548 C 87.831 281.242,87.868 280.902,87.591 280.383 C 87.246 279.739,87.303 272.395,87.665 270.809 C 87.805 270.195,86.626 269.872,85.679 270.265 " stroke="none" fill="#3c8474" fill-rule="evenodd"></path><path id="path4" d="M294.400 11.072 C 294.070 11.207,293.662 11.550,293.494 11.834 C 293.325 12.118,293.173 57.767,293.156 113.276 C 293.138 168.784,293.001 214.634,292.852 215.164 C 292.312 217.083,290.687 217.800,286.881 217.800 C 283.597 217.800,283.399 217.850,282.911 218.800 C 282.311 219.971,282.481 237.900,283.103 239.012 C 283.684 240.051,312.666 240.134,313.700 239.100 C 314.322 238.478,314.400 237.471,314.401 230.100 C 314.422 19.392,314.405 11.850,313.908 11.535 C 313.629 11.357,309.890 11.208,305.600 11.202 C 301.310 11.196,297.170 11.109,296.400 11.009 C 295.630 10.909,294.730 10.937,294.400 11.072 M77.932 117.882 C 76.404 119.723,77.912 132.543,79.559 131.720 C 80.840 131.080,178.141 131.122,179.017 131.763 C 179.786 132.325,179.804 133.305,180.000 185.353 C 180.179 232.864,180.265 238.437,180.829 239.001 C 181.474 239.645,257.622 240.027,259.272 239.394 C 260.424 238.952,261.054 220.769,259.986 218.774 C 259.582 218.020,258.829 218.000,230.163 218.000 C 199.364 218.000,197.747 217.916,196.587 216.260 C 196.079 215.535,195.999 208.918,195.994 167.011 C 195.991 140.385,195.843 118.371,195.665 118.092 C 195.204 117.366,78.533 117.158,77.932 117.882 " stroke="none" fill="#5fb898" fill-rule="evenodd"></path></g></svg>