<svg id="svg" version="1.1" xmlns="http://www.w3.org/2000/svg" xmlns:xlink="http://www.w3.org/1999/xlink" width="400" height="403.7974683544304" viewBox="0, 0, 400,403.7974683544304"><g id="svgg"><path id="path0" d="M172.011 202.149 C 171.815 202.345,168.537 202.578,164.727 202.668 C 160.917 202.757,157.170 202.939,156.400 203.071 C 155.630 203.203,154.550 203.385,154.000 203.476 C 153.450 203.566,151.290 203.787,149.200 203.967 C 147.110 204.147,144.680 204.493,143.800 204.737 C 142.920 204.981,141.210 205.193,140.000 205.208 C 138.790 205.223,136.990 205.419,136.000 205.644 C 135.010 205.868,132.850 206.236,131.200 206.461 C 129.550 206.686,128.020 207.019,127.800 207.201 C 127.580 207.383,126.050 207.660,124.400 207.817 C 122.750 207.974,121.191 208.269,120.934 208.472 C 120.678 208.675,119.148 208.946,117.534 209.075 C 115.921 209.203,114.394 209.470,114.142 209.668 C 113.891 209.866,112.730 210.141,111.562 210.279 C 110.395 210.417,108.981 210.770,108.420 211.063 C 107.859 211.356,106.680 211.603,105.800 211.612 C 104.920 211.621,103.750 211.886,103.200 212.200 C 102.650 212.514,101.609 212.778,100.887 212.786 C 100.165 212.794,98.963 213.055,98.216 213.368 C 97.469 213.680,95.852 214.061,94.623 214.214 C 93.395 214.368,92.298 214.642,92.185 214.824 C 92.073 215.005,91.149 215.279,90.132 215.431 C 89.115 215.584,87.814 215.953,87.241 216.252 C 86.669 216.551,85.570 216.802,84.800 216.810 C 84.030 216.819,83.051 217.090,82.624 217.413 C 82.196 217.736,81.206 218.006,80.424 218.013 C 79.641 218.020,78.651 218.290,78.224 218.613 C 77.796 218.936,76.896 219.206,76.224 219.214 C 75.551 219.222,74.550 219.486,74.000 219.800 C 73.450 220.114,72.347 220.378,71.549 220.386 C 70.751 220.394,69.874 220.670,69.600 221.000 C 69.326 221.330,68.629 221.601,68.051 221.602 C 67.473 221.604,66.497 221.867,65.883 222.188 C 65.269 222.508,64.142 222.887,63.379 223.030 C 62.616 223.174,61.902 223.435,61.793 223.611 C 61.685 223.786,60.832 224.057,59.898 224.212 C 58.964 224.368,57.714 224.743,57.120 225.047 C 56.526 225.351,55.603 225.600,55.069 225.600 C 54.535 225.600,53.874 225.870,53.600 226.200 C 53.326 226.530,52.629 226.806,52.051 226.813 C 51.473 226.820,50.651 227.090,50.224 227.413 C 49.796 227.736,48.986 228.006,48.424 228.013 C 47.861 228.020,47.051 228.290,46.624 228.613 C 46.196 228.936,45.431 229.200,44.922 229.200 C 44.413 229.200,43.325 229.560,42.504 230.000 C 41.684 230.440,40.799 230.800,40.538 230.800 C 40.278 230.800,39.555 231.059,38.932 231.376 C 36.775 232.472,34.876 233.200,34.140 233.213 C 33.733 233.220,33.051 233.490,32.624 233.813 C 32.196 234.136,31.364 234.400,30.773 234.400 C 30.182 234.400,29.474 234.670,29.200 235.000 C 28.926 235.330,28.296 235.600,27.800 235.600 C 27.304 235.600,26.674 235.870,26.400 236.200 C 26.126 236.530,25.644 236.800,25.329 236.800 C 24.813 236.800,23.324 237.391,19.800 238.995 C 16.866 240.330,15.639 240.800,15.089 240.800 C 14.764 240.800,14.274 241.070,14.000 241.400 C 13.726 241.730,13.096 242.000,12.600 242.000 C 12.104 242.000,11.474 242.270,11.200 242.600 C 10.926 242.930,10.469 243.200,10.183 243.200 C 9.898 243.200,9.155 243.468,8.532 243.795 C 7.077 244.559,3.719 246.000,3.393 246.000 C 3.256 246.000,2.873 246.270,2.543 246.600 C 2.213 246.930,1.506 247.200,0.971 247.200 L 0.000 247.200 0.000 325.400 L 0.000 403.600 200.000 403.600 L 400.000 403.600 400.000 328.045 L 400.000 252.489 398.520 252.211 C 397.707 252.059,396.677 251.679,396.231 251.367 C 395.786 251.055,394.956 250.800,394.387 250.800 C 393.818 250.800,393.004 250.536,392.576 250.213 C 392.149 249.890,391.339 249.620,390.776 249.613 C 390.214 249.606,389.404 249.336,388.976 249.013 C 388.549 248.690,387.739 248.420,387.176 248.413 C 386.614 248.406,385.804 248.136,385.376 247.813 C 384.949 247.490,384.150 247.219,383.600 247.210 C 383.050 247.202,382.120 246.944,381.533 246.638 C 380.946 246.332,379.731 245.957,378.833 245.806 C 377.935 245.654,377.200 245.374,377.200 245.183 C 377.200 244.992,376.525 244.714,375.700 244.565 C 374.875 244.415,373.714 244.047,373.120 243.747 C 372.526 243.446,371.603 243.200,371.069 243.200 C 370.535 243.200,369.874 242.930,369.600 242.600 C 369.326 242.270,368.528 242.000,367.827 242.000 C 367.126 242.000,366.204 241.736,365.776 241.413 C 365.349 241.090,364.455 240.820,363.789 240.813 C 363.123 240.806,362.223 240.553,361.789 240.250 C 361.355 239.948,360.236 239.572,359.302 239.415 C 358.368 239.259,357.512 238.982,357.400 238.800 C 357.288 238.618,356.432 238.341,355.498 238.185 C 354.564 238.028,353.445 237.652,353.011 237.350 C 352.577 237.047,351.767 236.794,351.211 236.787 C 350.655 236.780,349.851 236.510,349.424 236.187 C 348.996 235.864,348.176 235.600,347.600 235.600 C 347.024 235.600,346.204 235.336,345.776 235.013 C 345.349 234.690,344.539 234.420,343.976 234.413 C 343.414 234.406,342.604 234.136,342.176 233.813 C 341.749 233.490,340.849 233.220,340.176 233.213 C 339.504 233.206,338.604 232.936,338.176 232.613 C 337.749 232.290,336.950 232.019,336.400 232.010 C 335.850 232.002,334.920 231.744,334.333 231.438 C 333.746 231.132,332.486 230.750,331.533 230.591 C 330.580 230.431,329.445 230.052,329.011 229.750 C 328.577 229.447,327.767 229.194,327.211 229.187 C 326.655 229.180,325.851 228.910,325.424 228.587 C 324.996 228.264,324.074 228.000,323.373 228.000 C 322.672 228.000,321.874 227.730,321.600 227.400 C 321.322 227.065,320.450 226.800,319.627 226.800 C 318.816 226.800,317.804 226.536,317.376 226.213 C 316.949 225.890,316.150 225.619,315.600 225.610 C 315.050 225.602,314.084 225.326,313.454 224.998 C 312.824 224.669,311.924 224.399,311.454 224.398 C 310.984 224.396,310.131 224.151,309.559 223.852 C 308.986 223.553,307.680 223.183,306.657 223.029 C 305.633 222.876,304.302 222.493,303.698 222.178 C 303.094 221.863,302.150 221.597,301.600 221.588 C 301.050 221.579,300.150 221.314,299.600 221.000 C 299.050 220.686,297.947 220.422,297.149 220.414 C 296.351 220.406,295.474 220.130,295.200 219.800 C 294.922 219.465,294.050 219.200,293.227 219.200 C 292.416 219.200,291.404 218.936,290.976 218.613 C 290.549 218.290,289.559 218.020,288.776 218.013 C 287.994 218.006,287.004 217.736,286.576 217.413 C 286.149 217.090,285.260 216.819,284.600 216.810 C 283.940 216.802,282.921 216.545,282.336 216.240 C 281.751 215.935,280.356 215.559,279.237 215.405 C 278.117 215.251,277.106 214.972,276.991 214.786 C 276.876 214.599,275.931 214.322,274.891 214.171 C 273.851 214.020,272.514 213.649,271.920 213.348 C 271.326 213.047,270.246 212.794,269.520 212.786 C 268.794 212.778,267.750 212.514,267.200 212.200 C 266.650 211.886,265.358 211.622,264.329 211.614 C 263.299 211.606,262.216 211.359,261.921 211.064 C 261.626 210.769,260.243 210.424,258.846 210.298 C 257.450 210.171,256.112 209.872,255.874 209.634 C 255.635 209.395,254.867 209.200,254.166 209.200 C 253.465 209.200,252.016 208.942,250.946 208.627 C 249.131 208.092,247.789 207.872,239.700 206.782 C 237.995 206.552,236.060 206.169,235.400 205.930 C 234.740 205.691,232.400 205.344,230.200 205.158 C 225.797 204.786,224.891 204.659,224.000 204.287 C 223.670 204.149,221.420 203.959,219.000 203.864 C 216.580 203.769,213.779 203.502,212.775 203.272 C 211.772 203.041,207.812 202.813,203.975 202.766 C 200.139 202.718,196.640 202.495,196.200 202.270 C 195.200 201.760,172.514 201.646,172.011 202.149 " stroke="none" fill="#1c7c34" fill-rule="evenodd"></path><path id="path1" d="M0.000 109.200 C 0.000 169.260,0.055 218.400,0.123 218.400 C 0.191 218.400,2.486 217.310,5.223 215.978 C 11.936 212.711,14.490 211.497,17.800 209.999 C 19.340 209.302,20.870 208.566,21.200 208.363 C 21.530 208.161,22.070 207.893,22.400 207.769 C 22.730 207.644,23.270 207.374,23.600 207.169 C 23.930 206.963,24.470 206.695,24.800 206.572 C 25.130 206.449,25.940 206.101,26.600 205.798 C 27.260 205.495,29.060 204.681,30.600 203.990 C 36.209 201.471,37.042 201.093,39.400 199.992 C 44.833 197.457,48.085 196.000,48.309 196.000 C 48.777 196.000,52.000 194.324,52.221 193.965 C 52.346 193.764,52.814 193.600,53.262 193.600 C 53.710 193.600,54.554 193.357,55.138 193.061 C 56.518 192.360,58.195 191.626,62.600 189.794 C 64.580 188.971,66.782 188.045,67.494 187.738 C 68.206 187.430,69.421 186.913,70.194 186.589 C 70.967 186.265,72.185 185.743,72.900 185.430 C 73.615 185.116,74.830 184.594,75.600 184.271 C 82.291 181.458,83.942 180.800,84.311 180.800 C 84.544 180.800,85.245 180.544,85.868 180.232 C 86.490 179.919,87.765 179.379,88.700 179.032 C 89.635 178.684,91.075 178.141,91.900 177.824 C 98.976 175.107,100.883 174.399,102.800 173.780 C 104.010 173.390,105.540 172.852,106.200 172.584 C 108.298 171.735,110.158 171.130,111.600 170.830 C 112.370 170.670,113.360 170.353,113.800 170.126 C 114.902 169.557,118.288 168.513,120.104 168.183 C 120.932 168.032,121.707 167.750,121.828 167.555 C 121.949 167.360,122.366 167.200,122.756 167.200 C 123.146 167.200,124.621 166.860,126.033 166.444 C 130.242 165.205,137.074 163.472,141.000 162.649 C 146.605 161.473,150.255 160.835,152.800 160.584 C 154.230 160.443,156.120 160.174,157.000 159.985 C 167.327 157.773,203.818 159.290,219.600 162.587 C 221.030 162.885,223.730 163.430,225.600 163.798 C 227.470 164.165,229.720 164.645,230.600 164.864 C 231.480 165.084,232.920 165.397,233.800 165.561 C 234.680 165.725,236.030 166.065,236.800 166.318 C 237.570 166.571,239.550 167.151,241.200 167.606 C 247.742 169.412,247.688 169.396,259.200 172.891 C 260.630 173.326,262.160 173.827,262.600 174.005 C 263.040 174.184,264.750 174.731,266.400 175.221 C 268.050 175.712,269.967 176.357,270.660 176.656 C 271.354 176.955,272.203 177.200,272.547 177.200 C 272.891 177.200,273.764 177.446,274.486 177.748 C 276.150 178.442,278.258 179.176,279.800 179.600 C 281.613 180.098,283.616 180.828,285.444 181.656 C 286.348 182.065,287.437 182.400,287.864 182.400 C 288.291 182.400,288.811 182.551,289.020 182.736 C 289.229 182.922,290.660 183.474,292.200 183.963 C 293.740 184.453,295.540 185.092,296.200 185.383 C 299.505 186.839,300.486 187.200,301.137 187.200 C 301.528 187.200,302.196 187.464,302.624 187.787 C 303.051 188.110,303.643 188.380,303.940 188.387 C 304.236 188.394,305.046 188.643,305.740 188.940 C 306.433 189.237,308.080 189.882,309.400 190.373 C 314.478 192.261,315.033 192.480,316.132 193.032 C 316.755 193.344,317.574 193.600,317.952 193.600 C 318.331 193.600,318.811 193.767,319.020 193.972 C 319.408 194.352,321.892 195.319,324.400 196.066 C 325.170 196.295,325.980 196.615,326.200 196.776 C 326.420 196.938,327.770 197.490,329.200 198.004 C 330.630 198.518,332.155 199.177,332.589 199.469 C 333.023 199.761,333.677 200.000,334.043 200.000 C 334.409 200.000,335.224 200.269,335.854 200.598 C 336.484 200.926,337.293 201.196,337.651 201.198 C 338.009 201.199,338.508 201.448,338.760 201.752 C 339.012 202.055,339.757 202.411,340.415 202.543 C 341.074 202.675,342.555 203.225,343.706 203.765 C 344.858 204.306,346.790 205.124,348.000 205.585 C 349.210 206.045,350.560 206.581,351.000 206.775 C 351.440 206.969,352.700 207.518,353.800 207.995 C 354.900 208.472,356.278 209.118,356.862 209.431 C 357.446 209.744,358.120 210.000,358.361 210.000 C 358.740 210.000,360.975 210.951,365.400 212.997 C 368.654 214.501,370.408 215.200,370.929 215.200 C 371.244 215.200,371.726 215.470,372.000 215.800 C 372.274 216.130,372.731 216.400,373.017 216.400 C 373.302 216.400,374.045 216.650,374.668 216.956 C 375.290 217.262,376.970 218.047,378.400 218.702 C 382.047 220.371,392.078 225.200,392.800 225.635 C 393.130 225.834,394.076 226.287,394.903 226.643 C 395.729 226.998,397.072 227.629,397.887 228.045 C 398.702 228.460,399.511 228.800,399.685 228.800 C 399.858 228.800,400.000 177.320,400.000 114.400 L 400.000 0.000 200.000 0.000 L 0.000 0.000 0.000 109.200 M168.200 201.655 C 166.440 201.847,162.120 202.171,158.600 202.375 C 155.080 202.579,151.030 202.931,149.600 203.157 C 145.461 203.811,140.480 204.444,136.732 204.792 C 134.824 204.969,133.100 205.215,132.900 205.338 C 132.700 205.462,131.291 205.751,129.768 205.982 C 128.246 206.212,126.280 206.569,125.400 206.774 C 124.520 206.979,121.640 207.535,119.000 208.010 C 116.360 208.484,113.284 209.126,112.165 209.436 C 111.046 209.746,109.801 210.000,109.400 210.000 C 108.999 210.000,107.754 210.254,106.635 210.565 C 104.109 211.266,101.100 212.003,99.000 212.433 C 96.861 212.872,91.545 214.179,88.700 214.964 C 87.435 215.314,85.455 215.860,84.300 216.177 C 83.145 216.495,80.850 217.132,79.200 217.593 C 77.550 218.054,75.470 218.592,74.577 218.789 C 73.684 218.986,72.514 219.318,71.977 219.527 C 71.440 219.736,69.650 220.304,68.000 220.789 C 66.350 221.274,64.640 221.822,64.200 222.007 C 63.760 222.192,62.050 222.732,60.400 223.207 C 57.087 224.161,54.226 225.099,53.000 225.633 C 52.560 225.825,50.850 226.424,49.200 226.965 C 44.294 228.571,40.392 229.987,38.600 230.811 C 37.658 231.244,34.737 232.286,32.914 232.839 C 32.207 233.054,31.522 233.403,31.391 233.615 C 31.260 233.827,30.810 234.000,30.390 234.000 C 29.646 234.000,27.756 234.706,25.468 235.839 C 24.845 236.148,24.186 236.400,24.003 236.400 C 23.821 236.400,22.326 237.030,20.682 237.800 C 19.038 238.570,17.489 239.200,17.241 239.200 C 16.992 239.200,16.477 239.369,16.095 239.575 C 15.360 239.971,13.449 240.835,9.230 242.678 C 3.298 245.269,-0.226 247.168,0.871 247.184 C 1.461 247.193,2.213 246.930,2.543 246.600 C 2.873 246.270,3.256 246.000,3.393 246.000 C 3.719 246.000,7.077 244.559,8.532 243.795 C 9.155 243.468,9.898 243.200,10.183 243.200 C 10.469 243.200,10.926 242.930,11.200 242.600 C 11.474 242.270,12.104 242.000,12.600 242.000 C 13.096 242.000,13.726 241.730,14.000 241.400 C 14.274 241.070,14.764 240.800,15.089 240.800 C 15.639 240.800,16.866 240.330,19.800 238.995 C 23.324 237.391,24.813 236.800,25.329 236.800 C 25.644 236.800,26.126 236.530,26.400 236.200 C 26.674 235.870,27.304 235.600,27.800 235.600 C 28.296 235.600,28.926 235.330,29.200 235.000 C 29.474 234.670,30.182 234.400,30.773 234.400 C 31.364 234.400,32.196 234.136,32.624 233.813 C 33.051 233.490,33.733 233.220,34.140 233.213 C 34.876 233.200,36.775 232.472,38.932 231.376 C 39.555 231.059,40.278 230.800,40.538 230.800 C 40.799 230.800,41.684 230.440,42.504 230.000 C 43.325 229.560,44.413 229.200,44.922 229.200 C 45.431 229.200,46.196 228.936,46.624 228.613 C 47.051 228.290,47.861 228.020,48.424 228.013 C 48.986 228.006,49.796 227.736,50.224 227.413 C 50.651 227.090,51.473 226.820,52.051 226.813 C 52.629 226.806,53.326 226.530,53.600 226.200 C 53.874 225.870,54.535 225.600,55.069 225.600 C 55.603 225.600,56.526 225.351,57.120 225.047 C 57.714 224.743,58.964 224.368,59.898 224.212 C 60.832 224.057,61.685 223.786,61.793 223.611 C 61.902 223.435,62.616 223.174,63.379 223.030 C 64.142 222.887,65.269 222.508,65.883 222.188 C 66.497 221.867,67.473 221.604,68.051 221.602 C 68.629 221.601,69.326 221.330,69.600 221.000 C 69.874 220.670,70.751 220.394,71.549 220.386 C 72.347 220.378,73.450 220.114,74.000 219.800 C 74.550 219.486,75.551 219.222,76.224 219.214 C 76.896 219.206,77.796 218.936,78.224 218.613 C 78.651 218.290,79.641 218.020,80.424 218.013 C 81.206 218.006,82.196 217.736,82.624 217.413 C 83.051 217.090,84.030 216.819,84.800 216.810 C 85.570 216.802,86.669 216.551,87.241 216.252 C 87.814 215.953,89.115 215.584,90.132 215.431 C 91.149 215.279,92.073 215.005,92.185 214.824 C 92.298 214.642,93.395 214.368,94.623 214.214 C 95.852 214.061,97.469 213.680,98.216 213.368 C 98.963 213.055,100.165 212.794,100.887 212.786 C 101.609 212.778,102.650 212.514,103.200 212.200 C 103.750 211.886,104.920 211.621,105.800 211.612 C 106.680 211.603,107.859 211.356,108.420 211.063 C 108.981 210.770,110.395 210.417,111.562 210.279 C 112.730 210.141,113.891 209.866,114.142 209.668 C 114.394 209.470,115.921 209.203,117.534 209.075 C 119.148 208.946,120.678 208.675,120.934 208.472 C 121.191 208.269,122.750 207.974,124.400 207.817 C 126.050 207.660,127.580 207.383,127.800 207.201 C 128.020 207.019,129.550 206.686,131.200 206.461 C 132.850 206.236,135.010 205.868,136.000 205.644 C 136.990 205.419,138.790 205.223,140.000 205.208 C 141.210 205.193,142.920 204.981,143.800 204.737 C 144.680 204.493,147.110 204.147,149.200 203.967 C 151.290 203.787,153.450 203.566,154.000 203.476 C 154.550 203.385,155.630 203.203,156.400 203.071 C 157.170 202.939,160.903 202.758,164.694 202.669 C 168.486 202.580,171.816 202.338,172.094 202.130 C 172.792 201.610,195.167 201.739,196.200 202.269 C 196.640 202.495,200.139 202.718,203.975 202.766 C 207.812 202.813,211.772 203.041,212.775 203.272 C 213.779 203.502,216.580 203.769,219.000 203.864 C 221.420 203.959,223.670 204.149,224.000 204.287 C 224.891 204.659,225.797 204.786,230.200 205.158 C 232.400 205.344,234.740 205.691,235.400 205.930 C 236.060 206.169,237.995 206.552,239.700 206.782 C 247.789 207.872,249.131 208.092,250.946 208.627 C 252.016 208.942,253.465 209.200,254.166 209.200 C 254.867 209.200,255.635 209.395,255.874 209.634 C 256.112 209.872,257.450 210.171,258.846 210.298 C 260.243 210.424,261.626 210.769,261.921 211.064 C 262.216 211.359,263.299 211.606,264.329 211.614 C 265.358 211.622,266.650 211.886,267.200 212.200 C 267.750 212.514,268.794 212.778,269.520 212.786 C 270.246 212.794,271.326 213.047,271.920 213.348 C 272.514 213.649,273.851 214.020,274.891 214.171 C 275.931 214.322,276.876 214.599,276.991 214.786 C 277.106 214.972,278.117 215.251,279.237 215.405 C 280.356 215.559,281.751 215.935,282.336 216.240 C 282.921 216.545,283.940 216.802,284.600 216.810 C 285.260 216.819,286.149 217.090,286.576 217.413 C 287.004 217.736,287.994 218.006,288.776 218.013 C 289.559 218.020,290.549 218.290,290.976 218.613 C 291.404 218.936,292.416 219.200,293.227 219.200 C 294.050 219.200,294.922 219.465,295.200 219.800 C 295.474 220.130,296.351 220.406,297.149 220.414 C 297.947 220.422,299.050 220.686,299.600 221.000 C 300.150 221.314,301.050 221.579,301.600 221.588 C 302.150 221.597,303.094 221.863,303.698 222.178 C 304.302 222.493,305.633 222.876,306.657 223.029 C 307.680 223.183,308.986 223.553,309.559 223.852 C 310.131 224.151,310.984 224.396,311.454 224.398 C 311.924 224.399,312.824 224.669,313.454 224.998 C 314.084 225.326,315.050 225.602,315.600 225.610 C 316.150 225.619,316.949 225.890,317.376 226.213 C 317.804 226.536,318.816 226.800,319.627 226.800 C 320.450 226.800,321.322 227.065,321.600 227.400 C 321.874 227.730,322.672 228.000,323.373 228.000 C 324.074 228.000,324.996 228.264,325.424 228.587 C 325.851 228.910,326.655 229.180,327.211 229.187 C 327.767 229.194,328.577 229.447,329.011 229.750 C 329.445 230.052,330.580 230.431,331.533 230.591 C 332.486 230.750,333.746 231.132,334.333 231.438 C 334.920 231.744,335.850 232.002,336.400 232.010 C 336.950 232.019,337.749 232.290,338.176 232.613 C 338.604 232.936,339.504 233.206,340.176 233.213 C 340.849 233.220,341.749 233.490,342.176 233.813 C 342.604 234.136,343.414 234.406,343.976 234.413 C 344.539 234.420,345.349 234.690,345.776 235.013 C 346.204 235.336,347.024 235.600,347.600 235.600 C 348.176 235.600,348.996 235.864,349.424 236.187 C 349.851 236.510,350.655 236.780,351.211 236.787 C 351.767 236.794,352.577 237.047,353.011 237.350 C 353.445 237.652,354.564 238.028,355.498 238.185 C 356.432 238.341,357.288 238.618,357.400 238.800 C 357.512 238.982,358.368 239.259,359.302 239.415 C 360.236 239.572,361.355 239.948,361.789 240.250 C 362.223 240.553,363.123 240.806,363.789 240.813 C 364.455 240.820,365.349 241.090,365.776 241.413 C 366.204 241.736,367.126 242.000,367.827 242.000 C 368.528 242.000,369.326 242.270,369.600 242.600 C 369.874 242.930,370.535 243.200,371.069 243.200 C 371.603 243.200,372.526 243.446,373.120 243.747 C 373.714 244.047,374.875 244.415,375.700 244.565 C 376.525 244.714,377.200 244.992,377.200 245.183 C 377.200 245.374,377.935 245.654,378.833 245.806 C 379.731 245.957,380.946 246.332,381.533 246.638 C 382.120 246.944,383.050 247.202,383.600 247.210 C 384.150 247.219,384.949 247.490,385.376 247.813 C 385.804 248.136,386.614 248.406,387.176 248.413 C 387.739 248.420,388.549 248.690,388.976 249.013 C 389.404 249.336,390.214 249.606,390.776 249.613 C 391.339 249.620,392.149 249.890,392.576 250.213 C 393.004 250.536,393.818 250.800,394.387 250.800 C 394.956 250.800,395.786 251.055,396.231 251.367 C 397.341 252.144,400.000 252.622,400.000 252.045 C 400.000 251.800,399.595 251.594,399.100 251.586 C 398.605 251.578,397.750 251.314,397.200 251.000 C 396.650 250.686,395.716 250.422,395.124 250.414 C 394.532 250.406,393.957 250.254,393.847 250.076 C 393.737 249.897,391.251 248.979,388.323 248.034 C 385.395 247.090,382.724 246.179,382.387 246.010 C 382.050 245.840,381.150 245.577,380.387 245.425 C 379.624 245.273,378.460 244.912,377.800 244.624 C 376.066 243.865,374.007 243.169,372.400 242.800 C 370.860 242.446,368.906 241.790,366.886 240.948 C 366.164 240.646,365.291 240.400,364.947 240.400 C 364.603 240.400,363.754 240.146,363.060 239.835 C 362.367 239.524,360.450 238.871,358.800 238.384 C 357.150 237.897,352.650 236.464,348.800 235.200 C 344.950 233.936,340.450 232.506,338.800 232.022 C 337.150 231.539,335.440 230.989,335.000 230.800 C 334.560 230.611,332.850 230.068,331.200 229.593 C 329.550 229.118,327.480 228.498,326.600 228.216 C 325.720 227.934,323.920 227.390,322.600 227.009 C 321.280 226.627,319.750 226.129,319.200 225.902 C 318.650 225.674,317.570 225.344,316.800 225.168 C 316.030 224.992,314.140 224.459,312.600 223.985 C 311.060 223.510,308.900 222.875,307.800 222.574 C 306.700 222.273,304.900 221.756,303.800 221.424 C 302.700 221.091,300.990 220.621,300.000 220.378 C 299.010 220.134,297.660 219.758,297.000 219.541 C 294.984 218.879,291.905 218.030,289.800 217.556 C 288.700 217.309,287.620 216.968,287.400 216.799 C 287.180 216.629,286.190 216.360,285.200 216.200 C 284.210 216.040,283.220 215.773,283.000 215.607 C 282.780 215.440,281.880 215.178,281.000 215.024 C 279.522 214.765,278.610 214.510,273.600 212.955 C 272.610 212.647,271.417 212.397,270.949 212.398 C 270.481 212.399,269.451 212.130,268.662 211.800 C 267.872 211.470,266.791 211.200,266.259 211.200 C 265.727 211.200,264.416 210.945,263.346 210.633 C 262.276 210.321,260.410 209.852,259.200 209.591 C 257.990 209.330,255.830 208.853,254.400 208.532 C 250.707 207.702,245.969 206.856,235.800 205.213 C 228.389 204.015,225.203 203.599,223.383 203.593 C 222.292 203.589,219.690 203.322,217.600 203.000 C 215.510 202.678,212.450 202.409,210.800 202.402 C 209.150 202.396,204.830 202.125,201.200 201.800 C 193.954 201.152,173.637 201.063,168.200 201.655 " stroke="none" fill="#5cc44c" fill-rule="evenodd"></path><path id="path2" d="M167.000 159.241 C 162.820 159.417,158.410 159.741,157.200 159.960 C 155.990 160.179,153.920 160.469,152.600 160.603 C 149.226 160.947,140.951 162.540,135.900 163.818 C 130.636 165.150,128.466 165.728,126.033 166.444 C 124.621 166.860,123.146 167.200,122.756 167.200 C 122.366 167.200,121.949 167.360,121.828 167.555 C 121.707 167.750,120.932 168.032,120.104 168.183 C 118.288 168.513,114.902 169.557,113.800 170.126 C 113.360 170.353,112.370 170.670,111.600 170.830 C 110.158 171.130,108.298 171.735,106.200 172.584 C 105.540 172.852,104.010 173.390,102.800 173.780 C 100.883 174.399,98.976 175.107,91.900 177.824 C 91.075 178.141,89.635 178.684,88.700 179.032 C 87.765 179.379,86.490 179.919,85.868 180.232 C 85.245 180.544,84.544 180.800,84.311 180.800 C 83.942 180.800,82.291 181.458,75.600 184.271 C 74.830 184.594,73.615 185.116,72.900 185.430 C 72.185 185.743,70.967 186.265,70.194 186.589 C 69.421 186.913,68.206 187.430,67.494 187.738 C 66.782 188.045,64.580 188.971,62.600 189.794 C 58.195 191.626,56.518 192.360,55.138 193.061 C 54.554 193.357,53.710 193.600,53.262 193.600 C 52.814 193.600,52.346 193.764,52.221 193.965 C 52.000 194.324,48.777 196.000,48.309 196.000 C 48.085 196.000,44.833 197.457,39.400 199.992 C 37.042 201.093,36.209 201.471,30.600 203.990 C 25.766 206.161,25.016 206.508,24.400 206.861 C 24.070 207.050,23.530 207.307,23.200 207.431 C 22.870 207.556,22.330 207.826,22.000 208.031 C 21.670 208.237,21.130 208.514,20.800 208.646 C 19.148 209.311,11.838 212.757,3.500 216.802 L 0.000 218.499 0.000 232.650 C 0.000 240.432,0.102 246.800,0.227 246.800 C 0.351 246.800,2.196 245.971,4.327 244.958 C 6.457 243.945,9.010 242.760,10.000 242.326 C 14.542 240.333,15.445 239.926,16.095 239.575 C 16.477 239.369,16.992 239.200,17.241 239.200 C 17.489 239.200,19.038 238.570,20.682 237.800 C 22.326 237.030,23.821 236.400,24.003 236.400 C 24.186 236.400,24.845 236.148,25.468 235.839 C 27.756 234.706,29.646 234.000,30.390 234.000 C 30.810 234.000,31.260 233.827,31.391 233.615 C 31.522 233.403,32.207 233.054,32.914 232.839 C 34.737 232.286,37.658 231.244,38.600 230.811 C 40.392 229.987,44.294 228.571,49.200 226.965 C 50.850 226.424,52.560 225.825,53.000 225.633 C 54.226 225.099,57.087 224.161,60.400 223.207 C 62.050 222.732,63.760 222.192,64.200 222.007 C 64.640 221.822,66.350 221.274,68.000 220.789 C 69.650 220.304,71.440 219.736,71.977 219.527 C 72.514 219.318,73.684 218.986,74.577 218.789 C 75.470 218.592,77.550 218.054,79.200 217.593 C 80.850 217.132,83.145 216.495,84.300 216.177 C 85.455 215.860,87.435 215.314,88.700 214.964 C 91.545 214.179,96.861 212.872,99.000 212.433 C 101.100 212.003,104.109 211.266,106.635 210.565 C 107.754 210.254,108.999 210.000,109.400 210.000 C 109.801 210.000,111.046 209.746,112.165 209.436 C 113.284 209.126,116.360 208.484,119.000 208.010 C 121.640 207.535,124.520 206.979,125.400 206.774 C 126.280 206.569,128.246 206.212,129.768 205.982 C 131.291 205.751,132.700 205.462,132.900 205.338 C 133.100 205.215,134.824 204.969,136.732 204.792 C 140.482 204.443,145.465 203.810,149.600 203.156 C 151.030 202.930,154.997 202.588,158.415 202.396 C 161.833 202.204,166.487 201.857,168.757 201.624 C 174.777 201.006,193.453 201.107,201.200 201.800 C 204.830 202.125,209.150 202.396,210.800 202.402 C 212.450 202.409,215.510 202.678,217.600 203.000 C 219.690 203.322,222.292 203.589,223.383 203.593 C 225.203 203.599,228.389 204.015,235.800 205.213 C 245.969 206.856,250.707 207.702,254.400 208.532 C 255.830 208.853,257.990 209.330,259.200 209.591 C 260.410 209.852,262.276 210.321,263.346 210.633 C 264.416 210.945,265.727 211.200,266.259 211.200 C 266.791 211.200,267.872 211.470,268.662 211.800 C 269.451 212.130,270.481 212.399,270.949 212.398 C 271.417 212.397,272.610 212.647,273.600 212.955 C 278.610 214.510,279.522 214.765,281.000 215.024 C 281.880 215.178,282.780 215.440,283.000 215.607 C 283.220 215.773,284.210 216.040,285.200 216.200 C 286.190 216.360,287.180 216.629,287.400 216.799 C 287.620 216.968,288.700 217.309,289.800 217.556 C 291.905 218.030,294.984 218.879,297.000 219.541 C 297.660 219.758,299.010 220.134,300.000 220.378 C 300.990 220.621,302.700 221.091,303.800 221.424 C 304.900 221.756,306.700 222.273,307.800 222.574 C 308.900 222.875,311.060 223.510,312.600 223.985 C 314.140 224.459,316.030 224.992,316.800 225.168 C 317.570 225.344,318.650 225.674,319.200 225.902 C 319.750 226.129,321.280 226.627,322.600 227.009 C 323.920 227.390,325.720 227.934,326.600 228.216 C 327.480 228.498,329.550 229.118,331.200 229.593 C 332.850 230.068,334.560 230.611,335.000 230.800 C 335.440 230.989,337.150 231.539,338.800 232.022 C 340.450 232.506,344.950 233.936,348.800 235.200 C 352.650 236.464,357.150 237.897,358.800 238.384 C 360.450 238.871,362.367 239.524,363.060 239.835 C 363.754 240.146,364.603 240.400,364.947 240.400 C 365.291 240.400,366.164 240.646,366.886 240.948 C 368.906 241.790,370.860 242.446,372.400 242.800 C 374.007 243.169,376.066 243.865,377.800 244.624 C 378.460 244.912,379.624 245.273,380.387 245.425 C 381.150 245.577,382.050 245.840,382.387 246.010 C 382.724 246.179,385.395 247.090,388.323 248.034 C 391.251 248.979,393.737 249.897,393.847 250.076 C 393.957 250.254,394.532 250.406,395.124 250.414 C 395.716 250.422,396.650 250.686,397.200 251.000 C 397.750 251.314,398.605 251.578,399.100 251.586 L 400.000 251.600 400.000 240.298 L 400.000 228.995 397.987 228.072 C 396.879 227.564,395.394 226.887,394.687 226.568 C 393.979 226.249,393.130 225.827,392.800 225.631 C 392.063 225.192,381.964 220.333,378.400 218.702 C 376.970 218.047,375.290 217.262,374.668 216.956 C 374.045 216.650,373.302 216.400,373.017 216.400 C 372.731 216.400,372.274 216.130,372.000 215.800 C 371.726 215.470,371.244 215.200,370.929 215.200 C 370.408 215.200,368.654 214.501,365.400 212.997 C 360.975 210.951,358.740 210.000,358.361 210.000 C 358.120 210.000,357.446 209.744,356.862 209.431 C 356.278 209.118,354.900 208.472,353.800 207.995 C 352.700 207.518,351.440 206.969,351.000 206.775 C 350.560 206.581,349.210 206.045,348.000 205.585 C 346.790 205.124,344.858 204.306,343.706 203.765 C 342.555 203.225,341.074 202.675,340.415 202.543 C 339.757 202.411,339.012 202.055,338.760 201.752 C 338.508 201.448,338.009 201.199,337.651 201.198 C 337.293 201.196,336.484 200.926,335.854 200.598 C 335.224 200.269,334.409 200.000,334.043 200.000 C 333.677 200.000,333.023 199.761,332.589 199.469 C 332.155 199.177,330.630 198.518,329.200 198.004 C 327.770 197.490,326.420 196.938,326.200 196.776 C 325.980 196.615,325.170 196.295,324.400 196.066 C 321.892 195.319,319.408 194.352,319.020 193.972 C 318.811 193.767,318.331 193.600,317.952 193.600 C 317.574 193.600,316.755 193.344,316.132 193.032 C 315.033 192.480,314.478 192.261,309.400 190.373 C 308.080 189.882,306.433 189.237,305.740 188.940 C 305.046 188.643,304.236 188.394,303.940 188.387 C 303.643 188.380,303.051 188.110,302.624 187.787 C 302.196 187.464,301.528 187.200,301.137 187.200 C 300.486 187.200,299.505 186.839,296.200 185.383 C 295.540 185.092,293.740 184.453,292.200 183.963 C 290.660 183.474,289.229 182.922,289.020 182.736 C 288.811 182.551,288.291 182.400,287.864 182.400 C 287.437 182.400,286.348 182.065,285.444 181.656 C 283.616 180.828,281.613 180.098,279.800 179.600 C 278.258 179.176,276.150 178.442,274.486 177.748 C 273.764 177.446,272.891 177.200,272.547 177.200 C 272.203 177.200,271.354 176.955,270.660 176.656 C 269.967 176.357,268.050 175.712,266.400 175.221 C 264.750 174.731,263.040 174.184,262.600 174.005 C 262.160 173.827,260.630 173.326,259.200 172.891 C 247.688 169.396,247.742 169.412,241.200 167.606 C 239.550 167.151,237.570 166.571,236.800 166.318 C 236.030 166.065,234.680 165.725,233.800 165.561 C 232.920 165.397,231.480 165.084,230.600 164.864 C 229.720 164.645,227.470 164.165,225.600 163.798 C 223.730 163.430,221.030 162.885,219.600 162.587 C 205.751 159.693,186.036 158.439,167.000 159.241 " stroke="none" fill="#fbfbfb" fill-rule="evenodd"></path></g></svg>