<svg id="svg" version="1.1" xmlns="http://www.w3.org/2000/svg" xmlns:xlink="http://www.w3.org/1999/xlink" width="400" height="400" viewBox="0, 0, 400,400"><g id="svgg"><path id="path0" d="M183.538 4.749 C 179.210 5.172,176.230 5.644,175.838 5.968 C 175.257 6.451,175.200 15.523,175.200 107.600 C 175.200 192.316,175.112 208.775,174.656 209.153 C 174.260 209.482,164.391 209.577,138.156 209.502 L 102.200 209.400 102.099 120.500 L 101.998 31.600 101.158 31.600 C 100.215 31.600,91.219 36.900,87.131 39.865 C 85.663 40.929,84.068 42.070,83.585 42.400 C 82.721 42.992,79.104 45.863,75.612 48.731 C 68.819 54.310,56.399 66.325,53.005 70.600 C 52.132 71.700,50.754 73.320,49.943 74.200 C 42.764 81.993,31.651 98.841,25.115 111.842 C 23.665 114.725,22.288 117.425,22.054 117.842 C 21.820 118.259,21.252 119.500,20.792 120.600 C 20.332 121.700,19.796 122.960,19.600 123.400 C 18.199 126.545,17.571 128.100,16.853 130.200 C 16.401 131.520,15.656 133.590,15.197 134.800 C 14.209 137.403,13.161 140.672,11.991 144.800 C 11.523 146.450,10.974 148.250,10.770 148.800 C 10.567 149.350,10.230 150.610,10.021 151.600 C 9.812 152.590,9.260 155.110,8.793 157.200 C 7.567 162.693,6.819 166.610,6.385 169.800 C 6.176 171.340,5.830 173.500,5.616 174.600 C 3.136 187.380,3.927 220.826,7.028 234.282 C 7.343 235.647,7.600 237.324,7.600 238.009 C 7.600 238.693,7.774 239.578,7.987 239.975 C 8.199 240.372,8.655 241.936,8.999 243.449 C 11.159 252.945,13.060 259.597,15.214 265.200 C 15.679 266.410,16.224 267.940,16.424 268.600 C 16.624 269.260,16.952 270.160,17.152 270.600 C 17.352 271.040,17.829 272.300,18.212 273.400 C 19.121 276.013,19.907 277.766,23.452 285.088 C 25.074 288.436,26.400 291.285,26.400 291.419 C 26.400 291.553,27.671 293.763,29.224 296.331 C 30.777 298.899,32.262 301.356,32.524 301.791 C 32.786 302.226,33.732 303.756,34.627 305.191 C 35.521 306.626,36.678 308.520,37.198 309.400 C 37.717 310.280,38.913 311.990,39.855 313.200 C 40.797 314.410,43.046 317.380,44.852 319.800 C 46.658 322.220,48.780 324.930,49.568 325.821 C 61.661 339.511,69.780 347.266,80.699 355.558 C 97.797 368.541,114.503 377.759,132.600 384.196 C 135.460 385.213,138.430 386.298,139.200 386.606 C 140.744 387.223,142.666 387.789,146.000 388.606 C 150.151 389.624,151.803 390.046,153.800 390.600 C 176.944 397.012,212.936 398.050,236.000 392.970 C 237.430 392.656,238.894 392.398,239.254 392.399 C 239.614 392.400,240.784 392.145,241.854 391.833 C 242.924 391.521,244.925 390.981,246.300 390.633 C 247.675 390.285,249.835 389.737,251.100 389.415 C 256.523 388.034,259.883 387.069,261.060 386.553 C 261.754 386.249,262.573 386.000,262.880 386.000 C 263.188 386.000,263.611 385.837,263.820 385.637 C 264.029 385.438,264.830 385.092,265.600 384.869 C 266.370 384.646,267.990 384.082,269.200 383.616 C 270.410 383.150,272.480 382.399,273.800 381.947 C 276.056 381.175,277.757 380.399,288.529 375.219 C 293.878 372.647,308.108 364.148,312.000 361.201 C 312.770 360.618,316.190 358.058,319.600 355.513 C 323.010 352.968,326.349 350.371,327.019 349.743 C 327.690 349.114,330.979 346.102,334.329 343.048 C 337.678 339.995,340.549 337.268,340.709 336.989 C 340.869 336.711,342.620 334.732,344.600 332.592 C 346.580 330.452,348.801 328.048,349.535 327.250 C 350.269 326.453,352.294 323.910,354.035 321.600 C 355.775 319.290,357.590 316.893,358.067 316.272 C 360.145 313.571,362.082 310.810,363.681 308.271 C 364.627 306.771,365.670 305.116,366.000 304.595 C 368.615 300.464,372.600 293.581,374.102 290.600 C 377.338 284.180,380.863 276.774,381.205 275.674 C 381.389 275.083,381.927 273.610,382.400 272.400 C 382.873 271.190,383.413 269.750,383.601 269.200 C 383.788 268.650,384.602 266.400,385.408 264.200 C 387.001 259.855,387.736 257.505,388.661 253.800 C 389.268 251.368,389.997 248.470,390.825 245.200 C 391.076 244.210,391.527 242.500,391.827 241.400 C 392.992 237.131,394.578 227.074,395.422 218.600 C 396.663 206.132,395.879 181.486,393.862 169.600 C 393.545 167.730,393.066 164.850,392.798 163.200 C 392.531 161.550,392.061 159.474,391.756 158.587 C 391.450 157.699,391.200 156.635,391.200 156.222 C 391.200 155.808,390.942 154.554,390.627 153.435 C 390.311 152.316,389.768 150.230,389.420 148.800 C 388.778 146.162,386.330 138.158,385.383 135.600 C 383.802 131.325,383.006 129.359,382.720 129.020 C 382.544 128.811,382.394 128.361,382.386 128.020 C 382.379 127.679,382.025 126.680,381.600 125.800 C 381.175 124.920,380.821 124.076,380.814 123.924 C 380.772 123.076,373.467 108.120,371.321 104.488 C 370.374 102.887,369.600 101.476,369.600 101.354 C 369.600 101.159,367.837 98.412,362.055 89.600 C 355.565 79.708,341.407 63.402,332.000 54.985 C 326.008 49.622,317.492 42.896,312.016 39.200 C 310.875 38.430,308.881 37.040,307.585 36.111 C 306.289 35.182,304.367 33.955,303.314 33.383 C 302.261 32.812,300.860 32.009,300.200 31.599 C 297.649 30.016,295.894 29.173,295.652 29.415 C 295.513 29.553,295.310 92.247,295.200 168.733 L 295.000 307.800 259.044 307.902 C 232.809 307.977,222.940 307.882,222.544 307.553 C 222.087 307.174,222.000 282.913,222.000 156.375 C 222.000 69.157,221.851 5.555,221.645 5.428 C 219.657 4.199,193.883 3.740,183.538 4.749 " stroke="none" fill="#04acec" fill-rule="evenodd"></path><path id="path1" d="M181.200 0.400 C 181.200 0.645,179.267 0.800,176.200 0.800 C 172.022 0.800,171.200 0.899,171.200 1.400 C 171.200 1.733,170.844 2.000,170.400 2.000 C 169.602 2.000,169.600 2.267,169.600 103.600 L 169.600 205.200 138.200 205.200 L 106.800 205.200 106.739 115.100 C 106.706 65.545,106.636 24.820,106.585 24.600 C 106.534 24.380,106.472 23.987,106.446 23.726 C 106.364 22.881,102.800 23.232,102.800 24.085 C 102.800 24.613,102.486 24.800,101.600 24.800 C 100.800 24.800,100.400 25.000,100.400 25.400 C 100.400 25.766,100.027 26.000,99.443 26.000 C 98.916 26.000,98.382 26.270,98.255 26.600 C 98.129 26.930,97.758 27.200,97.432 27.200 C 97.106 27.200,96.696 27.425,96.520 27.700 C 96.081 28.386,93.699 29.600,92.791 29.600 C 92.382 29.600,91.917 29.811,91.758 30.068 C 91.564 30.383,91.687 30.452,92.134 30.281 C 92.500 30.140,92.800 30.199,92.800 30.413 C 92.800 30.748,91.619 30.992,90.700 30.847 C 90.535 30.821,90.400 31.070,90.400 31.400 C 90.400 31.740,90.041 32.000,89.571 32.000 C 88.671 32.000,87.485 32.952,87.886 33.352 C 88.022 33.489,87.743 33.600,87.267 33.600 C 86.763 33.600,86.400 33.851,86.400 34.200 C 86.400 34.530,86.062 34.800,85.649 34.800 C 85.236 34.800,84.674 35.070,84.400 35.400 C 84.126 35.730,83.654 36.000,83.351 36.000 C 83.048 36.000,82.800 36.270,82.800 36.600 C 82.800 37.122,82.069 37.400,81.100 37.247 C 80.935 37.221,80.800 37.384,80.800 37.610 C 80.800 37.835,80.339 38.195,79.776 38.409 C 79.213 38.623,78.863 38.979,79.000 39.199 C 79.136 39.420,78.877 39.600,78.424 39.600 C 77.867 39.600,77.600 39.859,77.600 40.400 C 77.600 41.128,76.755 41.461,75.470 41.237 C 75.289 41.206,75.262 41.377,75.411 41.617 C 75.563 41.864,75.316 42.149,74.840 42.274 C 74.378 42.394,74.000 42.721,74.000 43.000 C 74.000 43.279,73.603 43.611,73.117 43.737 C 72.632 43.864,72.347 44.080,72.484 44.217 C 72.836 44.569,71.323 46.000,70.600 46.000 C 70.270 46.000,70.000 46.256,70.000 46.568 C 70.000 46.881,69.436 47.260,68.747 47.412 C 67.825 47.614,67.640 47.780,68.047 48.037 C 68.381 48.249,68.418 48.390,68.140 48.394 C 67.596 48.401,64.800 51.119,64.800 51.640 C 64.800 51.838,64.575 51.955,64.300 51.900 C 64.025 51.845,63.849 52.038,63.910 52.330 C 63.970 52.621,63.830 52.742,63.598 52.599 C 63.110 52.297,61.217 53.960,61.207 54.700 C 61.203 54.975,60.930 55.200,60.600 55.200 C 60.270 55.200,60.000 55.380,60.000 55.600 C 60.000 55.820,59.730 56.000,59.400 56.000 C 59.067 56.000,58.800 56.356,58.800 56.800 C 58.800 57.244,58.533 57.600,58.200 57.600 C 57.870 57.600,57.600 57.870,57.600 58.200 C 57.600 58.533,57.244 58.800,56.800 58.800 C 56.356 58.800,56.000 59.067,56.000 59.400 C 56.000 59.730,55.820 60.000,55.600 60.000 C 55.380 60.000,55.200 60.270,55.200 60.600 C 55.200 60.930,54.967 61.200,54.681 61.200 C 54.396 61.200,53.721 61.732,53.181 62.383 C 52.642 63.034,51.975 63.574,51.700 63.583 C 51.425 63.592,51.200 63.857,51.200 64.172 C 51.200 64.486,50.570 65.411,49.800 66.227 C 49.030 67.044,48.397 67.912,48.394 68.156 C 48.390 68.401,48.231 68.352,48.037 68.047 C 47.780 67.640,47.614 67.825,47.412 68.747 C 47.260 69.436,46.881 70.000,46.568 70.000 C 46.256 70.000,45.999 70.315,45.999 70.700 C 45.998 71.085,45.459 71.760,44.800 72.200 C 44.141 72.640,43.602 73.225,43.601 73.500 C 43.601 73.775,43.330 74.000,43.000 74.000 C 42.600 74.000,42.400 74.400,42.400 75.200 C 42.400 76.000,42.200 76.400,41.800 76.400 C 41.470 76.400,41.200 76.670,41.200 77.000 C 41.200 77.330,40.930 77.600,40.600 77.600 C 40.270 77.600,39.999 77.735,39.998 77.900 C 39.997 78.065,39.372 78.880,38.609 79.710 C 37.846 80.541,37.217 81.306,37.211 81.410 C 37.205 81.515,37.200 81.870,37.200 82.200 C 37.200 82.530,36.930 82.800,36.600 82.800 C 36.270 82.800,36.000 83.048,36.000 83.351 C 36.000 83.654,35.730 84.126,35.400 84.400 C 35.070 84.674,34.800 85.146,34.800 85.449 C 34.800 86.104,33.143 87.848,32.670 87.690 C 32.489 87.630,32.447 87.752,32.577 87.962 C 32.707 88.173,32.641 88.451,32.431 88.581 C 32.221 88.711,32.118 89.173,32.202 89.608 C 32.313 90.189,32.136 90.400,31.534 90.400 C 30.970 90.400,30.786 90.587,30.945 91.000 C 31.101 91.408,30.923 91.600,30.387 91.600 C 29.779 91.600,29.600 91.873,29.600 92.800 C 29.600 93.600,29.400 94.000,29.000 94.000 C 28.670 94.000,28.400 94.261,28.400 94.580 C 28.400 94.899,28.085 95.344,27.700 95.568 C 27.315 95.792,27.208 95.981,27.462 95.988 C 28.118 96.005,27.166 97.993,26.500 97.997 C 26.212 97.999,26.000 98.508,26.000 99.200 C 26.000 100.000,25.800 100.400,25.400 100.400 C 25.000 100.400,24.800 100.800,24.800 101.600 C 24.800 102.546,24.625 102.800,23.973 102.800 C 23.340 102.800,23.203 102.980,23.390 103.568 C 23.558 104.099,23.408 104.407,22.902 104.568 C 22.499 104.695,22.140 105.201,22.103 105.692 C 22.066 106.183,21.748 106.795,21.397 107.052 C 20.903 107.413,20.877 107.567,21.279 107.728 C 21.673 107.886,21.678 107.945,21.300 107.968 C 21.018 107.986,20.800 108.524,20.800 109.200 C 20.800 110.000,20.600 110.400,20.200 110.400 C 19.870 110.400,19.600 110.661,19.600 110.980 C 19.600 111.299,19.285 111.744,18.900 111.968 C 18.515 112.192,18.408 112.381,18.662 112.388 C 19.380 112.407,18.334 114.392,17.600 114.403 C 17.067 114.411,17.067 114.455,17.600 114.800 C 18.000 115.058,18.033 115.190,17.700 115.194 C 17.400 115.198,17.200 115.741,17.200 116.553 C 17.200 117.598,17.006 117.958,16.347 118.130 C 15.730 118.291,15.552 118.574,15.704 119.154 C 15.832 119.642,15.618 120.222,15.157 120.639 C 14.740 121.016,14.400 121.855,14.400 122.505 C 14.400 123.371,14.246 123.626,13.821 123.463 C 13.376 123.292,13.214 123.674,13.121 125.121 C 13.041 126.363,12.830 126.966,12.500 126.900 C 12.176 126.835,12.000 127.293,12.000 128.200 C 12.000 129.178,11.819 129.600,11.400 129.600 C 11.070 129.600,10.821 129.735,10.847 129.900 C 11.108 131.553,10.733 133.549,10.200 133.345 C 9.720 133.161,9.600 133.484,9.600 134.957 C 9.600 136.329,9.447 136.800,9.000 136.800 C 8.557 136.800,8.400 137.263,8.400 138.567 C 8.400 140.793,8.034 141.897,7.550 141.134 C 7.299 140.736,7.202 140.805,7.173 141.400 C 7.049 143.915,6.749 145.384,6.304 145.659 C 5.731 146.013,5.718 146.076,5.650 148.800 C 5.623 149.900,5.426 150.800,5.213 150.800 C 4.999 150.800,4.940 150.500,5.081 150.134 C 5.257 149.675,5.185 149.562,4.849 149.770 C 4.581 149.935,4.391 150.370,4.427 150.735 C 4.678 153.295,4.356 156.000,3.800 156.000 C 3.333 156.000,3.200 156.535,3.200 158.413 C 3.200 160.245,3.048 160.884,2.566 161.068 C 2.060 161.262,2.039 161.377,2.463 161.639 C 2.885 161.900,2.892 162.068,2.497 162.463 C 2.181 162.779,2.000 164.169,2.000 166.280 C 2.000 168.964,1.885 169.600,1.400 169.600 C 0.897 169.600,0.800 170.444,0.800 174.800 C 0.800 178.000,0.646 180.000,0.400 180.000 C -0.129 180.000,-0.153 221.079,0.376 221.267 C 0.582 221.340,0.790 223.695,0.838 226.500 C 0.905 230.385,1.050 231.600,1.448 231.600 C 1.831 231.600,2.000 232.581,2.085 235.300 C 2.169 237.999,2.335 238.973,2.700 238.900 C 3.059 238.828,3.200 239.533,3.200 241.400 C 3.200 243.444,3.328 244.000,3.800 244.000 C 4.260 244.000,4.400 244.508,4.400 246.171 C 4.400 247.494,4.618 248.561,4.957 248.900 C 5.263 249.206,5.614 250.524,5.736 251.828 C 5.858 253.133,5.970 254.290,5.985 254.400 C 6.000 254.510,6.187 254.330,6.400 254.000 C 6.671 253.580,6.790 254.222,6.794 256.137 C 6.799 258.536,6.899 258.901,7.600 259.084 C 8.262 259.257,8.400 259.630,8.400 261.247 C 8.400 262.716,8.549 263.200,9.000 263.200 C 9.389 263.200,9.600 263.590,9.600 264.311 C 9.600 264.922,9.861 265.795,10.180 266.250 C 10.499 266.706,10.805 267.826,10.858 268.739 C 10.920 269.788,11.149 270.400,11.478 270.400 C 11.916 270.400,12.227 271.763,12.047 272.900 C 12.021 273.065,12.270 273.200,12.600 273.200 C 13.015 273.200,13.200 273.617,13.200 274.551 C 13.200 275.294,13.470 276.126,13.800 276.400 C 14.130 276.674,14.400 277.242,14.400 277.662 C 14.400 278.082,14.699 279.095,15.064 279.913 C 15.429 280.731,15.766 281.535,15.814 281.700 C 15.861 281.865,15.944 282.135,15.997 282.300 C 16.051 282.465,16.073 282.735,16.047 282.900 C 16.021 283.065,16.225 283.155,16.500 283.100 C 16.799 283.040,17.050 283.522,17.125 284.300 C 17.203 285.105,17.469 285.600,17.825 285.600 C 18.215 285.600,18.400 286.050,18.400 287.000 C 18.400 287.907,18.576 288.365,18.900 288.300 C 19.199 288.240,19.450 288.722,19.525 289.500 C 19.603 290.305,19.869 290.800,20.225 290.800 C 20.597 290.800,20.800 291.224,20.800 292.000 C 20.800 292.800,21.000 293.200,21.400 293.200 C 21.917 293.200,22.225 294.209,22.044 295.311 C 22.016 295.482,22.264 295.727,22.596 295.854 C 22.928 295.981,23.200 296.533,23.200 297.080 C 23.200 297.738,23.471 298.146,24.000 298.284 C 24.440 298.399,24.800 298.742,24.800 299.047 C 24.800 299.351,25.070 299.600,25.400 299.600 C 25.800 299.600,26.000 300.000,26.000 300.800 C 26.000 301.600,26.200 302.000,26.600 302.000 C 26.930 302.000,27.200 302.345,27.200 302.767 C 27.200 303.899,27.633 304.827,28.042 304.574 C 28.239 304.452,28.400 304.723,28.400 305.176 C 28.400 305.642,28.661 306.000,29.000 306.000 C 29.330 306.000,29.600 306.282,29.600 306.627 C 29.600 306.971,30.095 307.907,30.700 308.707 C 31.305 309.506,31.530 309.999,31.200 309.803 C 30.684 309.496,30.676 309.540,31.145 310.119 C 31.445 310.489,31.841 310.698,32.024 310.585 C 32.208 310.471,32.284 310.762,32.194 311.231 C 32.080 311.824,32.268 312.145,32.815 312.288 C 33.366 312.432,33.600 312.837,33.600 313.647 C 33.600 314.281,33.780 314.800,34.000 314.800 C 34.519 314.800,36.000 316.281,36.000 316.800 C 36.000 317.020,36.270 317.200,36.600 317.200 C 36.995 317.200,37.200 317.595,37.200 318.357 C 37.200 319.017,37.458 319.613,37.800 319.745 C 38.130 319.871,38.400 320.251,38.400 320.587 C 38.400 320.924,38.670 321.200,39.000 321.200 C 39.330 321.200,39.600 321.470,39.600 321.800 C 39.600 322.133,39.956 322.400,40.400 322.400 C 40.989 322.400,41.200 322.667,41.200 323.413 C 41.200 323.969,41.470 324.529,41.800 324.655 C 42.130 324.782,42.400 325.136,42.400 325.443 C 42.400 325.749,42.670 326.000,43.000 326.000 C 43.343 326.000,43.600 326.360,43.600 326.843 C 43.600 327.428,43.784 327.615,44.200 327.455 C 44.601 327.302,44.817 327.486,44.850 328.013 C 44.953 329.632,45.036 329.799,45.710 329.744 C 46.089 329.714,46.400 329.842,46.400 330.029 C 46.400 330.216,46.805 330.762,47.300 331.243 C 47.795 331.724,47.947 331.973,47.638 331.797 C 47.262 331.582,47.171 331.629,47.362 331.938 C 47.519 332.192,47.817 332.400,48.024 332.400 C 48.421 332.400,50.000 333.849,50.000 334.213 C 50.000 334.331,50.540 334.955,51.200 335.600 C 51.860 336.245,52.400 336.970,52.400 337.210 C 52.400 337.451,52.592 337.528,52.827 337.383 C 53.062 337.238,53.353 337.497,53.474 337.960 C 53.594 338.422,53.942 338.800,54.247 338.800 C 54.551 338.800,54.800 339.070,54.800 339.400 C 54.800 339.730,55.056 340.000,55.368 340.000 C 55.681 340.000,56.055 340.540,56.200 341.200 C 56.345 341.860,56.719 342.400,57.032 342.400 C 57.344 342.400,57.600 342.656,57.600 342.968 C 57.600 343.281,58.140 343.655,58.800 343.800 C 59.460 343.945,60.000 344.319,60.000 344.632 C 60.000 344.944,60.270 345.200,60.600 345.200 C 60.930 345.200,61.200 345.449,61.200 345.753 C 61.200 346.058,61.578 346.406,62.040 346.526 C 62.503 346.647,62.762 346.938,62.617 347.173 C 62.472 347.408,62.549 347.600,62.790 347.600 C 63.030 347.600,63.755 348.140,64.400 348.800 C 65.045 349.460,65.759 350.000,65.987 350.000 C 66.214 350.000,66.400 350.258,66.400 350.573 C 66.400 350.888,66.763 351.261,67.206 351.402 C 67.649 351.543,67.908 351.825,67.782 352.029 C 67.656 352.233,67.736 352.400,67.961 352.400 C 68.520 352.400,71.599 355.551,71.606 356.132 C 71.610 356.402,71.776 356.346,72.000 356.000 C 72.258 355.600,72.390 355.567,72.394 355.900 C 72.397 356.175,72.760 356.400,73.200 356.400 C 73.644 356.400,74.000 356.667,74.000 357.000 C 74.000 357.330,74.270 357.600,74.600 357.600 C 74.930 357.600,75.200 357.870,75.200 358.200 C 75.200 358.600,75.600 358.800,76.400 358.800 C 77.333 358.800,77.600 358.978,77.600 359.600 C 77.600 360.129,77.867 360.400,78.387 360.400 C 78.923 360.400,79.101 360.592,78.945 361.000 C 78.784 361.420,78.975 361.600,79.581 361.600 C 80.057 361.600,80.348 361.761,80.226 361.958 C 79.973 362.367,80.901 362.800,82.033 362.800 C 82.455 362.800,82.800 363.070,82.800 363.400 C 82.800 363.730,82.980 364.000,83.200 364.000 C 83.706 364.000,85.200 365.475,85.200 365.975 C 85.200 366.181,85.785 366.406,86.500 366.475 C 87.333 366.555,87.800 366.815,87.800 367.200 C 87.800 367.530,88.032 367.800,88.315 367.800 C 88.598 367.800,88.996 368.070,89.200 368.400 C 89.559 368.980,89.707 369.042,91.000 369.150 C 91.330 369.178,91.600 369.470,91.600 369.800 C 91.600 370.200,92.000 370.400,92.800 370.400 C 93.558 370.400,94.000 370.605,94.000 370.957 C 94.000 371.263,94.486 371.635,95.079 371.784 C 95.925 371.997,96.033 372.134,95.579 372.421 C 95.158 372.688,95.349 372.789,96.280 372.794 C 96.984 372.797,97.704 373.039,97.880 373.330 C 98.056 373.622,98.526 373.980,98.925 374.127 C 99.324 374.274,99.536 374.580,99.396 374.807 C 99.255 375.034,99.289 375.194,99.470 375.163 C 100.569 374.972,101.532 375.295,101.692 375.910 C 101.795 376.304,102.295 376.652,102.812 376.691 C 103.326 376.730,103.903 377.040,104.093 377.381 C 104.284 377.722,104.970 378.000,105.620 378.000 C 106.402 378.000,106.800 378.202,106.800 378.600 C 106.800 379.000,107.200 379.200,108.000 379.200 C 108.800 379.200,109.200 379.400,109.200 379.800 C 109.200 380.195,109.595 380.400,110.357 380.400 C 111.017 380.400,111.613 380.658,111.745 381.000 C 111.877 381.344,112.474 381.600,113.145 381.600 C 113.815 381.600,114.413 381.856,114.545 382.200 C 114.671 382.530,115.231 382.800,115.787 382.800 C 116.421 382.800,116.800 383.025,116.800 383.400 C 116.800 383.987,117.097 384.112,118.490 384.108 C 118.869 384.107,119.283 384.430,119.408 384.826 C 119.554 385.286,119.927 385.491,120.438 385.393 C 120.878 385.308,121.590 385.590,122.019 386.019 C 122.496 386.496,123.345 386.800,124.200 386.800 C 125.178 386.800,125.600 386.981,125.600 387.400 C 125.600 387.730,125.735 387.979,125.900 387.953 C 127.312 387.730,129.585 388.075,129.500 388.500 C 129.435 388.827,130.024 389.044,131.200 389.128 C 132.231 389.201,133.136 389.500,133.320 389.828 C 133.513 390.173,134.265 390.400,135.220 390.400 C 136.358 390.400,136.800 390.568,136.800 391.000 C 136.800 391.419,137.222 391.600,138.200 391.600 C 139.178 391.600,139.600 391.781,139.600 392.200 C 139.600 392.530,139.960 392.822,140.400 392.850 C 140.840 392.878,141.380 392.945,141.600 393.000 C 141.820 393.055,142.630 393.123,143.400 393.150 C 144.260 393.181,144.761 393.386,144.700 393.682 C 144.587 394.228,144.815 394.280,147.600 394.350 C 149.001 394.385,149.600 394.564,149.600 394.947 C 149.600 395.341,150.245 395.509,151.900 395.546 C 153.395 395.579,154.350 395.800,154.628 396.176 C 154.896 396.540,155.940 396.801,157.428 396.878 C 159.113 396.965,159.769 397.150,159.694 397.519 C 159.635 397.804,159.815 398.008,160.094 397.972 C 162.542 397.651,167.200 398.063,167.200 398.600 C 167.200 399.099,167.978 399.200,171.800 399.200 C 174.600 399.200,176.400 399.357,176.400 399.600 C 176.400 399.862,184.600 400.000,200.200 400.000 C 215.800 400.000,224.000 399.862,224.000 399.600 C 224.000 399.358,225.733 399.200,228.400 399.200 C 232.044 399.200,232.800 399.097,232.800 398.600 C 232.800 398.111,233.468 398.000,236.413 398.000 C 239.255 398.000,240.074 397.872,240.255 397.400 C 240.420 396.972,241.089 396.800,242.594 396.800 C 243.980 396.800,244.873 396.594,245.200 396.200 C 245.530 395.803,246.425 395.600,247.849 395.600 C 249.494 395.600,250.000 395.459,250.000 395.000 C 250.000 394.529,250.553 394.400,252.580 394.400 C 254.464 394.400,255.251 394.237,255.498 393.797 C 255.684 393.465,256.459 393.142,257.222 393.080 C 257.984 393.017,258.859 392.811,259.166 392.621 C 259.544 392.388,259.632 392.424,259.441 392.734 C 259.259 393.027,259.376 393.107,259.767 392.957 C 260.101 392.829,260.335 392.521,260.287 392.274 C 260.237 392.013,261.032 391.723,262.176 391.585 C 263.262 391.454,264.222 391.133,264.309 390.873 C 264.396 390.613,264.992 390.400,265.633 390.400 C 266.404 390.400,266.800 390.196,266.800 389.800 C 266.800 389.347,267.289 389.200,268.800 389.200 C 270.187 389.200,270.769 389.047,270.700 388.700 C 270.635 388.377,271.202 388.156,272.300 388.077 C 273.457 387.993,274.000 387.770,274.000 387.377 C 274.000 386.844,274.774 386.683,277.300 386.693 C 277.685 386.695,278.000 386.449,278.000 386.148 C 278.000 385.834,278.416 385.600,278.971 385.600 C 279.506 385.600,280.224 385.319,280.567 384.975 C 280.911 384.632,281.581 384.322,282.057 384.286 C 282.533 384.250,283.005 383.901,283.108 383.510 C 283.231 383.037,283.678 382.800,284.447 382.800 C 285.205 382.800,285.600 382.595,285.600 382.200 C 285.600 381.781,286.022 381.600,287.000 381.600 C 287.978 381.600,288.400 381.419,288.400 381.000 C 288.400 380.625,288.779 380.400,289.413 380.400 C 289.969 380.400,290.529 380.130,290.655 379.800 C 290.787 379.458,291.383 379.200,292.043 379.200 C 292.805 379.200,293.200 378.995,293.200 378.600 C 293.200 378.182,293.621 378.000,294.587 378.000 C 295.656 378.000,295.922 377.862,295.745 377.400 C 295.587 376.988,295.769 376.800,296.324 376.800 C 297.557 376.800,298.400 376.376,298.400 375.757 C 298.400 375.405,298.841 375.200,299.600 375.200 C 300.400 375.200,300.800 375.000,300.800 374.600 C 300.800 374.270,301.076 374.000,301.413 374.000 C 301.749 374.000,302.129 373.730,302.255 373.400 C 302.382 373.070,302.817 372.800,303.223 372.800 C 303.628 372.800,304.108 372.536,304.289 372.213 C 304.469 371.891,305.198 371.582,305.908 371.528 C 306.644 371.472,307.200 371.208,307.200 370.915 C 307.200 370.632,307.470 370.400,307.800 370.400 C 308.130 370.400,308.400 370.130,308.400 369.800 C 308.400 369.397,308.803 369.200,309.624 369.200 C 310.297 369.200,310.745 369.034,310.619 368.831 C 310.494 368.628,311.113 368.143,311.996 367.754 C 312.878 367.365,313.600 366.901,313.600 366.723 C 313.600 366.545,313.870 366.400,314.200 366.400 C 314.530 366.400,314.800 366.220,314.800 366.000 C 314.800 365.235,316.406 364.000,317.400 364.000 C 318.022 364.000,318.400 363.773,318.400 363.400 C 318.400 363.070,318.586 362.800,318.813 362.800 C 319.041 362.800,319.755 362.260,320.400 361.600 C 321.045 360.940,321.772 360.400,322.015 360.400 C 322.617 360.400,323.621 359.355,323.314 359.048 C 323.178 358.911,323.457 358.800,323.933 358.800 C 324.437 358.800,324.800 358.549,324.800 358.200 C 324.800 357.870,325.070 357.600,325.400 357.600 C 325.730 357.600,326.000 357.330,326.000 357.000 C 326.000 356.627,326.378 356.400,327.000 356.400 C 327.622 356.400,328.000 356.173,328.000 355.800 C 328.000 355.420,328.383 355.200,329.043 355.200 C 329.773 355.200,330.021 355.032,329.870 354.639 C 329.743 354.306,329.968 353.997,330.428 353.877 C 330.852 353.766,331.200 353.394,331.200 353.050 C 331.200 352.659,331.424 352.511,331.800 352.655 C 332.220 352.816,332.400 352.625,332.400 352.019 C 332.400 351.507,332.575 351.261,332.827 351.417 C 333.062 351.562,333.348 351.319,333.464 350.877 C 333.579 350.435,334.035 349.979,334.477 349.864 C 334.919 349.748,335.162 349.462,335.017 349.227 C 334.862 348.977,335.095 348.800,335.576 348.800 C 336.042 348.800,336.400 348.539,336.400 348.200 C 336.400 347.870,336.670 347.600,337.000 347.600 C 337.330 347.600,337.600 347.420,337.600 347.200 C 337.600 346.515,339.031 345.330,340.242 345.012 C 341.262 344.745,341.307 344.674,340.619 344.420 C 339.963 344.179,340.048 344.090,341.145 343.871 C 341.865 343.727,342.353 343.448,342.231 343.250 C 341.958 342.808,342.972 341.905,343.334 342.267 C 343.477 342.411,343.716 341.922,343.863 341.183 C 344.088 340.062,344.181 339.968,344.420 340.619 C 344.674 341.307,344.745 341.262,345.012 340.242 C 345.330 339.031,346.515 337.600,347.200 337.600 C 347.420 337.600,347.600 337.330,347.600 337.000 C 347.600 336.670,347.870 336.400,348.200 336.400 C 348.539 336.400,348.800 336.042,348.800 335.576 C 348.800 335.095,348.977 334.862,349.227 335.017 C 349.462 335.162,349.748 334.919,349.864 334.477 C 349.979 334.035,350.435 333.579,350.877 333.464 C 351.319 333.348,351.562 333.062,351.417 332.827 C 351.261 332.575,351.507 332.400,352.019 332.400 C 352.598 332.400,352.814 332.214,352.670 331.839 C 352.543 331.506,352.768 331.197,353.228 331.077 C 353.652 330.966,354.000 330.594,354.000 330.250 C 354.000 329.859,354.224 329.711,354.600 329.855 C 355.039 330.024,355.200 329.805,355.200 329.043 C 355.200 328.383,355.420 328.000,355.800 328.000 C 356.173 328.000,356.400 327.622,356.400 327.000 C 356.400 326.378,356.627 326.000,357.000 326.000 C 357.330 326.000,357.600 325.730,357.600 325.400 C 357.600 325.070,357.870 324.800,358.200 324.800 C 358.549 324.800,358.800 324.437,358.800 323.933 C 358.800 323.457,358.911 323.178,359.048 323.314 C 359.403 323.669,360.400 322.574,360.400 321.829 C 360.400 321.483,360.670 321.200,361.000 321.200 C 361.330 321.200,361.600 320.924,361.600 320.587 C 361.600 320.251,361.870 319.871,362.200 319.745 C 362.530 319.618,362.800 319.258,362.800 318.945 C 362.800 318.631,363.032 318.286,363.316 318.177 C 363.599 318.068,363.857 317.636,363.889 317.216 C 363.951 316.395,365.345 314.800,366.000 314.800 C 366.220 314.800,366.400 314.530,366.400 314.200 C 366.400 313.870,366.577 313.600,366.792 313.600 C 367.008 313.600,367.299 313.146,367.438 312.591 C 367.577 312.036,367.991 311.361,368.357 311.091 C 368.723 310.821,369.040 310.285,369.061 309.900 C 369.136 308.541,369.206 308.400,369.800 308.400 C 370.200 308.400,370.400 308.000,370.400 307.200 C 370.400 306.400,370.600 306.000,371.000 306.000 C 371.330 306.000,371.600 305.749,371.600 305.443 C 371.600 305.136,371.870 304.782,372.200 304.655 C 372.530 304.529,372.800 303.964,372.800 303.400 C 372.800 302.836,373.070 302.271,373.400 302.145 C 373.730 302.018,374.000 301.664,374.000 301.357 C 374.000 301.051,374.270 300.800,374.600 300.800 C 375.000 300.800,375.200 300.400,375.200 299.600 C 375.200 298.800,375.400 298.400,375.800 298.400 C 376.385 298.400,376.569 297.947,376.423 296.869 C 376.383 296.577,376.677 296.252,377.075 296.148 C 377.553 296.023,377.831 295.528,377.890 294.700 C 377.940 294.009,378.255 293.289,378.590 293.102 C 378.926 292.914,379.200 292.338,379.200 291.823 C 379.200 291.307,379.470 290.782,379.800 290.655 C 380.130 290.529,380.400 289.969,380.400 289.413 C 380.400 288.779,380.625 288.400,381.000 288.400 C 381.419 288.400,381.600 287.978,381.600 287.000 C 381.600 286.022,381.781 285.600,382.200 285.600 C 382.595 285.600,382.800 285.205,382.800 284.447 C 382.800 283.678,383.037 283.231,383.510 283.108 C 383.901 283.005,384.250 282.533,384.286 282.057 C 384.322 281.581,384.632 280.911,384.975 280.567 C 385.319 280.224,385.600 279.500,385.600 278.959 C 385.600 278.418,385.870 277.871,386.200 277.745 C 386.591 277.595,386.800 276.972,386.800 275.957 C 386.800 274.925,386.980 274.400,387.334 274.400 C 387.684 274.400,387.891 273.824,387.934 272.732 C 387.970 271.814,388.270 270.765,388.600 270.400 C 388.930 270.035,389.200 269.076,389.200 268.269 C 389.200 267.230,389.376 266.800,389.800 266.800 C 390.178 266.800,390.400 266.419,390.400 265.771 C 390.400 265.206,390.670 264.473,391.000 264.143 C 391.330 263.813,391.600 262.836,391.600 261.971 C 391.600 260.905,391.777 260.400,392.150 260.400 C 392.742 260.400,393.200 258.722,393.200 256.550 C 393.200 255.708,393.381 255.238,393.682 255.300 C 394.228 255.413,394.280 255.185,394.350 252.400 C 394.385 250.999,394.564 250.400,394.947 250.400 C 395.341 250.400,395.509 249.755,395.546 248.100 C 395.579 246.605,395.800 245.650,396.176 245.372 C 396.540 245.104,396.801 244.060,396.878 242.572 C 396.965 240.887,397.150 240.231,397.519 240.306 C 397.804 240.365,398.008 240.185,397.972 239.906 C 397.651 237.458,398.063 232.800,398.600 232.800 C 399.099 232.800,399.200 232.022,399.200 228.200 C 399.200 225.400,399.357 223.600,399.600 223.600 C 399.862 223.600,400.000 215.667,400.000 200.600 C 400.000 185.533,399.862 177.600,399.600 177.600 C 399.357 177.600,399.200 175.811,399.200 173.033 C 399.200 168.381,398.997 167.031,398.358 167.426 C 398.158 167.550,398.000 166.119,398.000 164.181 C 398.000 161.264,397.905 160.751,397.400 160.945 C 396.898 161.137,396.800 160.661,396.800 158.030 C 396.800 155.604,396.663 154.833,396.200 154.655 C 395.767 154.489,395.600 153.810,395.600 152.213 C 395.600 150.513,395.461 150.000,395.000 150.000 C 394.545 150.000,394.388 149.467,394.350 147.800 C 394.282 144.803,394.235 144.585,393.682 144.700 C 393.247 144.790,393.084 143.905,393.093 141.500 C 393.095 141.082,392.795 140.800,392.348 140.800 C 391.716 140.800,391.600 140.486,391.600 138.776 C 391.600 137.629,391.439 136.852,391.228 136.983 C 390.650 137.340,390.455 136.740,390.356 134.299 C 390.302 132.964,390.091 132.077,389.838 132.123 C 389.603 132.165,389.319 131.519,389.205 130.687 C 389.092 129.854,388.820 129.224,388.600 129.287 C 388.380 129.349,388.144 128.815,388.075 128.100 C 387.997 127.295,387.731 126.800,387.375 126.800 C 386.853 126.800,386.561 125.307,386.770 123.700 C 386.806 123.425,386.598 123.200,386.308 123.200 C 386.019 123.200,385.577 122.435,385.326 121.500 C 384.443 118.203,383.808 116.788,383.301 116.983 C 382.959 117.114,382.800 116.734,382.800 115.787 C 382.800 114.821,382.618 114.400,382.200 114.400 C 381.799 114.400,381.600 113.999,381.600 113.187 C 381.600 112.479,381.351 111.879,381.000 111.745 C 380.658 111.613,380.400 111.017,380.400 110.357 C 380.400 109.595,380.195 109.200,379.800 109.200 C 379.400 109.200,379.200 108.800,379.200 108.000 C 379.200 107.200,379.000 106.800,378.600 106.800 C 378.237 106.800,378.000 106.429,378.000 105.862 C 378.000 105.346,377.660 104.616,377.243 104.239 C 376.782 103.822,376.568 103.242,376.696 102.754 C 376.848 102.174,376.670 101.891,376.053 101.730 C 375.300 101.533,374.956 100.660,375.163 99.470 C 375.194 99.289,375.023 99.262,374.783 99.411 C 374.537 99.562,374.253 99.325,374.134 98.868 C 374.017 98.421,373.669 97.959,373.361 97.840 C 373.052 97.722,372.800 97.164,372.800 96.600 C 372.800 96.036,372.530 95.471,372.200 95.345 C 371.870 95.218,371.600 94.864,371.600 94.557 C 371.600 94.251,371.330 94.000,371.000 94.000 C 370.600 94.000,370.400 93.600,370.400 92.800 C 370.400 92.102,370.189 91.600,369.896 91.600 C 369.619 91.600,369.156 91.221,368.867 90.758 C 368.578 90.295,368.532 90.034,368.766 90.179 C 369.000 90.323,368.788 89.828,368.295 89.077 C 367.803 88.327,367.175 87.797,366.900 87.899 C 366.603 88.010,366.400 87.756,366.400 87.276 C 366.400 86.106,365.974 85.169,365.558 85.426 C 365.361 85.548,365.200 85.361,365.200 85.011 C 365.200 84.661,364.930 84.271,364.600 84.145 C 364.270 84.018,364.000 83.664,364.000 83.357 C 364.000 83.051,363.730 82.800,363.400 82.800 C 363.070 82.800,362.800 82.455,362.800 82.033 C 362.800 80.901,362.367 79.973,361.958 80.226 C 361.761 80.348,361.600 80.057,361.600 79.581 C 361.600 78.975,361.420 78.784,361.000 78.945 C 360.592 79.101,360.400 78.923,360.400 78.387 C 360.400 77.867,360.129 77.600,359.600 77.600 C 358.978 77.600,358.800 77.333,358.800 76.400 C 358.800 75.740,358.620 75.200,358.400 75.200 C 357.768 75.200,356.400 73.666,356.400 72.957 C 356.400 72.550,356.180 72.399,355.800 72.545 C 355.392 72.701,355.200 72.523,355.200 71.987 C 355.200 71.554,354.953 71.200,354.650 71.200 C 354.348 71.200,353.990 70.648,353.855 69.973 C 353.720 69.299,353.440 68.852,353.233 68.979 C 353.027 69.107,352.742 68.846,352.600 68.400 C 352.458 67.954,352.188 67.684,352.000 67.800 C 351.812 67.916,351.543 67.649,351.402 67.206 C 351.261 66.763,350.888 66.400,350.573 66.400 C 350.258 66.400,350.000 66.124,350.000 65.787 C 350.000 65.451,349.730 65.071,349.400 64.945 C 349.070 64.818,348.800 64.464,348.800 64.157 C 348.800 63.851,348.530 63.600,348.200 63.600 C 347.870 63.600,347.600 63.330,347.600 63.000 C 347.600 62.670,347.330 62.400,347.000 62.400 C 346.670 62.400,346.400 62.130,346.400 61.800 C 346.400 61.470,346.130 61.200,345.800 61.200 C 345.470 61.200,345.200 60.930,345.200 60.600 C 345.200 60.270,344.949 60.000,344.643 60.000 C 344.336 60.000,343.982 59.730,343.855 59.400 C 343.729 59.070,343.349 58.800,343.013 58.800 C 342.676 58.800,342.400 58.530,342.400 58.200 C 342.400 57.870,342.130 57.600,341.800 57.600 C 341.470 57.600,341.200 57.324,341.200 56.987 C 341.200 56.651,340.930 56.271,340.600 56.145 C 340.270 56.018,340.000 55.664,340.000 55.357 C 340.000 55.051,339.730 54.800,339.400 54.800 C 339.070 54.800,338.800 54.551,338.800 54.247 C 338.800 53.942,338.422 53.594,337.960 53.474 C 337.497 53.353,337.238 53.062,337.383 52.827 C 337.528 52.592,337.451 52.400,337.210 52.400 C 336.970 52.400,336.245 51.860,335.600 51.200 C 334.955 50.540,334.322 50.000,334.194 50.000 C 334.066 50.000,333.545 49.550,333.035 49.000 C 332.525 48.450,331.859 47.997,331.554 47.994 C 331.113 47.989,331.122 47.909,331.600 47.600 C 332.109 47.271,332.090 47.211,331.476 47.206 C 331.078 47.203,330.865 47.018,331.003 46.795 C 331.142 46.570,330.708 46.282,330.027 46.145 C 329.352 46.010,328.800 45.673,328.800 45.397 C 328.800 45.120,328.422 44.794,327.960 44.674 C 327.497 44.553,327.238 44.262,327.383 44.027 C 327.528 43.792,327.367 43.600,327.024 43.600 C 326.337 43.600,324.541 41.977,324.700 41.500 C 324.755 41.335,324.665 41.221,324.500 41.247 C 323.214 41.450,322.400 41.122,322.400 40.400 C 322.400 39.956,322.133 39.600,321.800 39.600 C 321.470 39.600,321.200 39.330,321.200 39.000 C 321.200 38.661,320.842 38.400,320.376 38.400 C 319.923 38.400,319.652 38.239,319.774 38.042 C 320.027 37.633,319.099 37.200,317.967 37.200 C 317.545 37.200,317.200 36.951,317.200 36.647 C 317.200 36.342,316.822 35.994,316.360 35.874 C 315.884 35.749,315.637 35.464,315.789 35.217 C 315.938 34.977,315.911 34.806,315.730 34.837 C 314.628 35.029,313.600 34.721,313.600 34.200 C 313.600 33.861,313.242 33.600,312.776 33.600 C 312.323 33.600,312.035 33.465,312.134 33.300 C 312.234 33.135,312.065 32.768,311.758 32.484 C 311.451 32.201,311.200 32.085,311.200 32.229 C 311.200 32.372,310.826 32.064,310.370 31.544 C 309.913 31.025,309.662 30.838,309.811 31.130 C 310.037 31.568,309.939 31.569,309.242 31.133 C 308.779 30.844,308.400 30.381,308.400 30.104 C 308.400 29.811,307.898 29.600,307.200 29.600 C 306.400 29.600,306.000 29.400,306.000 29.000 C 306.000 28.661,305.642 28.400,305.176 28.400 C 304.723 28.400,304.452 28.239,304.574 28.042 C 304.823 27.639,303.904 27.200,302.810 27.200 C 302.412 27.200,301.982 26.930,301.855 26.600 C 301.729 26.270,301.189 26.000,300.655 26.000 C 300.122 26.000,299.582 25.730,299.455 25.400 C 299.329 25.070,298.769 24.800,298.213 24.800 C 297.309 24.800,297.006 24.428,297.153 23.500 C 297.179 23.335,296.949 23.200,296.643 23.200 C 296.336 23.200,295.998 22.971,295.890 22.691 C 295.783 22.411,295.179 22.141,294.548 22.090 C 293.916 22.040,293.220 21.769,293.000 21.489 C 292.548 20.914,292.032 20.865,291.300 21.330 C 290.902 21.583,290.800 50.278,290.800 162.624 L 290.800 303.600 259.200 303.600 L 227.600 303.600 227.553 152.500 C 227.527 69.395,227.519 1.289,227.535 1.152 C 227.552 1.016,225.908 0.872,223.883 0.832 C 221.857 0.792,220.140 0.589,220.067 0.380 C 219.880 -0.153,181.200 -0.133,181.200 0.400 M216.945 4.765 C 219.335 5.009,221.450 5.307,221.645 5.428 C 221.851 5.555,222.000 69.157,222.000 156.375 C 222.000 282.913,222.087 307.174,222.544 307.553 C 222.940 307.882,232.809 307.977,259.044 307.902 L 295.000 307.800 295.200 168.733 C 295.310 92.247,295.513 29.553,295.652 29.415 C 295.894 29.173,297.649 30.016,300.200 31.599 C 300.860 32.009,302.261 32.812,303.314 33.383 C 304.367 33.955,306.289 35.182,307.585 36.111 C 308.881 37.040,310.875 38.430,312.016 39.200 C 328.061 50.030,343.708 65.118,356.818 82.400 C 358.905 85.150,361.261 88.390,362.055 89.600 C 367.837 98.412,369.600 101.159,369.600 101.354 C 369.600 101.476,370.374 102.887,371.321 104.488 C 373.467 108.120,380.772 123.076,380.814 123.924 C 380.821 124.076,381.175 124.920,381.600 125.800 C 382.025 126.680,382.379 127.679,382.386 128.020 C 382.394 128.361,382.544 128.811,382.720 129.020 C 383.006 129.359,383.802 131.325,385.383 135.600 C 386.330 138.158,388.778 146.162,389.420 148.800 C 389.768 150.230,390.311 152.316,390.627 153.435 C 390.942 154.554,391.200 155.808,391.200 156.222 C 391.200 156.635,391.450 157.699,391.756 158.587 C 392.061 159.474,392.531 161.550,392.798 163.200 C 393.066 164.850,393.545 167.730,393.862 169.600 C 395.879 181.486,396.663 206.132,395.422 218.600 C 394.578 227.074,392.992 237.131,391.827 241.400 C 391.527 242.500,391.076 244.210,390.825 245.200 C 389.997 248.470,389.268 251.368,388.661 253.800 C 387.736 257.505,387.001 259.855,385.408 264.200 C 384.602 266.400,383.788 268.650,383.601 269.200 C 383.413 269.750,382.873 271.190,382.400 272.400 C 381.927 273.610,381.389 275.083,381.205 275.674 C 380.863 276.774,377.338 284.180,374.102 290.600 C 372.600 293.581,368.615 300.464,366.000 304.595 C 365.670 305.116,364.627 306.771,363.681 308.271 C 362.082 310.810,360.145 313.571,358.067 316.272 C 357.590 316.893,355.775 319.290,354.035 321.600 C 352.294 323.910,350.269 326.453,349.535 327.250 C 348.801 328.048,346.580 330.452,344.600 332.592 C 342.620 334.732,340.869 336.711,340.709 336.989 C 340.549 337.268,337.678 339.995,334.329 343.048 C 330.979 346.102,327.690 349.114,327.019 349.743 C 326.349 350.371,323.010 352.968,319.600 355.513 C 316.190 358.058,312.770 360.618,312.000 361.201 C 308.108 364.148,293.878 372.647,288.529 375.219 C 277.757 380.399,276.056 381.175,273.800 381.947 C 272.480 382.399,270.410 383.150,269.200 383.616 C 267.990 384.082,266.370 384.646,265.600 384.869 C 264.830 385.092,264.029 385.438,263.820 385.637 C 263.611 385.837,263.188 386.000,262.880 386.000 C 262.573 386.000,261.754 386.249,261.060 386.553 C 259.883 387.069,256.523 388.034,251.100 389.415 C 249.835 389.737,247.675 390.285,246.300 390.633 C 244.925 390.981,242.924 391.521,241.854 391.833 C 240.784 392.145,239.614 392.400,239.254 392.399 C 238.894 392.398,237.430 392.656,236.000 392.970 C 212.936 398.050,176.944 397.012,153.800 390.600 C 151.803 390.046,150.151 389.624,146.000 388.606 C 142.666 387.789,140.744 387.223,139.200 386.606 C 138.430 386.298,135.460 385.213,132.600 384.196 C 119.109 379.397,100.615 369.943,89.666 362.246 C 76.211 352.789,64.799 342.747,54.400 331.213 C 48.711 324.904,48.248 324.351,44.852 319.800 C 43.046 317.380,40.797 314.410,39.855 313.200 C 38.913 311.990,37.717 310.280,37.198 309.400 C 36.678 308.520,35.521 306.626,34.627 305.191 C 33.732 303.756,32.786 302.226,32.524 301.791 C 32.262 301.356,30.777 298.899,29.224 296.331 C 27.671 293.763,26.400 291.553,26.400 291.419 C 26.400 291.285,25.074 288.436,23.452 285.088 C 19.907 277.766,19.121 276.013,18.212 273.400 C 17.829 272.300,17.352 271.040,17.152 270.600 C 16.952 270.160,16.624 269.260,16.424 268.600 C 16.224 267.940,15.679 266.410,15.214 265.200 C 13.060 259.597,11.159 252.945,8.999 243.449 C 8.655 241.936,8.199 240.372,7.987 239.975 C 7.774 239.578,7.600 238.693,7.600 238.009 C 7.600 237.324,7.343 235.647,7.028 234.282 C 3.927 220.826,3.136 187.380,5.616 174.600 C 5.830 173.500,6.176 171.340,6.385 169.800 C 6.819 166.610,7.567 162.693,8.793 157.200 C 9.260 155.110,9.812 152.590,10.021 151.600 C 10.230 150.610,10.567 149.350,10.770 148.800 C 10.974 148.250,11.523 146.450,11.991 144.800 C 13.161 140.672,14.209 137.403,15.197 134.800 C 15.656 133.590,16.401 131.520,16.853 130.200 C 17.571 128.100,18.199 126.545,19.600 123.400 C 19.796 122.960,20.332 121.700,20.792 120.600 C 21.252 119.500,21.820 118.259,22.054 117.842 C 22.288 117.425,23.665 114.725,25.115 111.842 C 31.651 98.841,42.764 81.993,49.943 74.200 C 50.754 73.320,52.132 71.700,53.005 70.600 C 56.399 66.325,68.819 54.310,75.612 48.731 C 79.104 45.863,82.721 42.992,83.585 42.400 C 84.068 42.070,85.663 40.929,87.131 39.865 C 91.219 36.900,100.215 31.600,101.158 31.600 L 101.998 31.600 102.099 120.500 L 102.200 209.400 138.156 209.502 C 164.391 209.577,174.260 209.482,174.656 209.153 C 175.112 208.775,175.200 192.316,175.200 107.600 C 175.200 15.523,175.257 6.451,175.838 5.968 C 177.787 4.351,205.082 3.552,216.945 4.765 " stroke="none" fill="#1b84e5" fill-rule="evenodd"></path></g></svg>