<svg id="svg" version="1.1" xmlns="http://www.w3.org/2000/svg" xmlns:xlink="http://www.w3.org/1999/xlink" width="400" height="381.6618911174785" viewBox="0, 0, 400,381.6618911174785"><g id="svgg"><path id="path0" d="M150.763 0.382 C 150.763 0.592,150.506 0.763,150.191 0.763 C 149.684 0.763,149.618 9.351,149.618 75.763 C 149.618 139.615,149.697 150.763,150.150 150.763 C 150.442 150.763,150.781 151.021,150.901 151.336 C 151.234 152.203,203.468 152.203,204.335 151.336 C 204.650 151.021,205.091 150.763,205.316 150.763 C 205.541 150.763,205.705 150.635,205.680 150.477 C 205.655 150.320,205.655 128.678,205.680 102.385 L 205.725 54.580 211.982 54.580 C 217.192 54.580,218.276 54.676,218.459 55.153 C 218.652 55.656,222.956 55.725,254.008 55.725 C 283.562 55.725,289.370 55.811,289.537 56.248 C 289.682 56.623,290.617 56.789,292.859 56.837 C 295.142 56.886,296.064 57.053,296.292 57.460 C 296.504 57.838,297.254 58.015,298.642 58.015 C 299.954 58.015,300.749 58.191,300.870 58.507 C 300.974 58.777,301.720 59.043,302.528 59.097 C 303.336 59.152,304.117 59.410,304.263 59.671 C 304.409 59.932,305.179 60.190,305.974 60.243 C 306.769 60.297,307.547 60.547,307.703 60.800 C 307.990 61.263,308.150 61.316,309.542 61.403 C 309.962 61.429,310.262 61.661,310.210 61.918 C 310.157 62.176,310.544 62.451,311.069 62.529 C 311.594 62.608,312.126 62.838,312.252 63.041 C 312.378 63.244,312.721 63.452,313.015 63.503 C 314.208 63.711,315.267 64.194,315.267 64.530 C 315.267 64.725,315.697 64.885,316.221 64.885 C 316.772 64.885,317.135 65.083,317.080 65.354 C 317.028 65.611,317.374 65.881,317.850 65.953 C 318.326 66.026,319.266 66.588,319.939 67.203 C 320.612 67.818,321.564 68.321,322.054 68.321 C 322.545 68.321,322.851 68.474,322.736 68.661 C 322.519 69.011,324.245 70.330,325.101 70.467 C 325.366 70.510,326.049 71.075,326.617 71.723 C 327.186 72.371,327.880 72.901,328.161 72.901 C 328.441 72.901,328.584 73.042,328.477 73.214 C 328.265 73.557,329.374 74.644,329.918 74.628 C 330.104 74.623,330.403 75.016,330.583 75.502 C 330.763 75.987,331.063 76.290,331.251 76.174 C 331.439 76.058,331.686 76.322,331.801 76.760 C 331.916 77.199,332.173 77.456,332.374 77.333 C 332.574 77.209,332.828 77.454,332.939 77.878 C 333.050 78.301,333.362 78.600,333.633 78.541 C 333.904 78.483,334.133 78.633,334.143 78.875 C 334.152 79.118,334.633 79.753,335.210 80.289 C 335.787 80.824,336.260 81.448,336.260 81.677 C 336.260 82.095,336.622 82.611,337.909 84.024 C 338.291 84.444,338.676 85.161,338.764 85.617 C 338.852 86.074,339.097 86.506,339.309 86.576 C 339.521 86.647,339.695 87.125,339.695 87.639 C 339.695 88.153,339.952 88.672,340.267 88.793 C 340.582 88.914,340.840 89.429,340.840 89.938 C 340.840 90.447,341.097 90.963,341.412 91.083 C 341.772 91.221,341.985 91.805,341.985 92.651 C 341.985 93.393,342.231 94.191,342.532 94.424 C 342.834 94.657,343.163 95.687,343.263 96.713 C 343.364 97.739,343.625 98.689,343.842 98.824 C 344.060 98.958,344.289 100.351,344.352 101.920 C 344.433 103.951,344.603 104.744,344.943 104.676 C 345.677 104.529,345.632 124.264,344.898 124.546 C 344.522 124.690,344.360 125.634,344.315 127.926 C 344.271 130.224,344.097 131.225,343.692 131.531 C 343.382 131.764,343.130 132.563,343.130 133.312 C 343.130 134.058,342.944 134.731,342.718 134.807 C 342.491 134.882,342.214 135.626,342.103 136.461 C 341.991 137.295,341.733 138.082,341.528 138.211 C 341.324 138.339,341.196 138.511,341.245 138.592 C 341.445 138.927,340.760 140.458,340.410 140.458 C 340.202 140.458,340.130 140.618,340.251 140.813 C 340.372 141.009,340.296 141.277,340.083 141.408 C 339.869 141.540,339.695 142.153,339.695 142.771 C 339.695 143.514,339.501 143.893,339.122 143.893 C 338.740 143.893,338.550 144.275,338.550 145.038 C 338.550 145.821,338.361 146.183,337.955 146.183 C 337.627 146.183,337.458 146.343,337.579 146.539 C 337.700 146.734,337.454 147.136,337.032 147.432 C 336.610 147.727,336.378 148.083,336.516 148.221 C 336.655 148.360,336.482 148.473,336.132 148.473 C 335.782 148.473,335.515 148.602,335.537 148.760 C 335.641 149.478,334.974 150.763,334.497 150.763 C 334.207 150.763,333.969 151.021,333.969 151.336 C 333.969 151.651,333.712 151.908,333.397 151.908 C 333.082 151.908,332.824 152.166,332.824 152.481 C 332.824 152.796,332.567 153.053,332.252 153.053 C 331.937 153.053,331.679 153.311,331.679 153.626 C 331.679 153.986,331.316 154.198,330.703 154.198 C 330.144 154.198,329.828 154.363,329.963 154.583 C 330.094 154.794,329.895 155.085,329.520 155.229 C 329.145 155.372,328.367 155.972,327.791 156.562 C 327.215 157.151,326.566 157.634,326.349 157.634 C 326.132 157.634,325.954 157.891,325.954 158.206 C 325.954 158.564,325.592 158.779,324.988 158.779 C 324.457 158.779,323.923 159.036,323.802 159.351 C 323.681 159.666,323.343 159.924,323.051 159.924 C 322.758 159.924,322.519 160.181,322.519 160.496 C 322.519 160.878,322.137 161.069,321.374 161.069 C 320.662 161.069,320.265 161.249,320.324 161.546 C 320.378 161.816,319.955 162.076,319.348 162.146 C 318.758 162.213,318.181 162.514,318.066 162.814 C 317.951 163.114,317.441 163.359,316.932 163.359 C 316.423 163.359,315.908 163.616,315.787 163.931 C 315.666 164.246,315.151 164.504,314.642 164.504 C 314.133 164.504,313.618 164.761,313.497 165.076 C 313.376 165.391,312.861 165.649,312.352 165.649 C 311.843 165.649,311.328 165.906,311.207 166.221 C 311.081 166.548,310.512 166.794,309.883 166.794 C 309.156 166.794,308.779 166.989,308.779 167.366 C 308.779 167.779,308.357 167.939,307.271 167.939 C 306.363 167.939,305.642 168.155,305.458 168.483 C 305.290 168.782,304.466 169.083,303.626 169.151 C 302.657 169.230,302.134 169.449,302.195 169.752 C 302.261 170.083,301.705 170.229,300.382 170.229 C 298.940 170.229,298.473 170.369,298.473 170.802 C 298.473 171.247,297.964 171.374,296.183 171.374 C 294.402 171.374,293.893 171.501,293.893 171.947 C 293.893 172.411,293.277 172.519,290.637 172.519 C 288.095 172.519,287.332 172.645,287.161 173.092 C 286.968 173.594,283.349 173.664,257.784 173.664 C 232.120 173.664,228.626 173.733,228.626 174.237 C 228.626 174.552,228.368 174.809,228.053 174.809 C 227.739 174.809,227.481 175.048,227.481 175.341 C 227.481 175.633,227.223 175.971,226.908 176.092 C 226.408 176.284,226.336 179.443,226.336 201.324 C 226.336 223.302,226.405 226.336,226.908 226.336 C 227.290 226.336,227.481 226.718,227.481 227.481 C 227.481 228.205,227.676 228.626,228.013 228.626 C 228.305 228.626,228.643 228.884,228.764 229.198 C 229.098 230.068,299.618 230.068,299.618 229.198 C 299.618 228.734,300.235 228.626,302.875 228.626 C 305.417 228.626,306.179 228.500,306.351 228.053 C 306.517 227.621,307.216 227.481,309.213 227.481 C 311.210 227.481,311.910 227.341,312.076 226.908 C 312.237 226.489,312.897 226.336,314.545 226.336 C 316.290 226.336,316.794 226.207,316.794 225.763 C 316.794 225.323,317.283 225.191,318.905 225.191 C 320.430 225.191,321.077 225.032,321.236 224.618 C 321.394 224.207,322.038 224.046,323.526 224.046 C 325.014 224.046,325.658 223.885,325.816 223.473 C 325.941 223.147,326.511 222.901,327.140 222.901 C 327.867 222.901,328.244 222.705,328.244 222.328 C 328.244 221.904,328.690 221.756,329.962 221.756 C 331.234 221.756,331.679 221.607,331.679 221.183 C 331.679 220.759,332.125 220.611,333.397 220.611 C 334.669 220.611,335.115 220.462,335.115 220.038 C 335.115 219.624,335.540 219.466,336.653 219.466 C 337.669 219.466,338.267 219.271,338.412 218.893 C 338.537 218.567,339.106 218.321,339.735 218.321 C 340.463 218.321,340.840 218.125,340.840 217.748 C 340.840 217.366,341.221 217.176,341.985 217.176 C 342.748 217.176,343.130 216.985,343.130 216.603 C 343.130 216.221,343.511 216.031,344.275 216.031 C 345.038 216.031,345.420 215.840,345.420 215.458 C 345.420 215.076,345.802 214.885,346.565 214.885 C 347.328 214.885,347.710 214.695,347.710 214.313 C 347.710 213.955,348.072 213.740,348.676 213.740 C 349.207 213.740,349.741 213.483,349.862 213.168 C 349.983 212.853,350.498 212.595,351.007 212.595 C 351.516 212.595,352.031 212.338,352.152 212.023 C 352.273 211.708,352.611 211.450,352.903 211.450 C 353.196 211.450,353.435 211.193,353.435 210.878 C 353.435 210.496,353.817 210.305,354.580 210.305 C 355.344 210.305,355.725 210.115,355.725 209.733 C 355.725 209.418,355.983 209.160,356.298 209.160 C 356.613 209.160,356.870 208.903,356.870 208.588 C 356.870 208.230,357.232 208.015,357.836 208.015 C 358.368 208.015,358.901 207.758,359.022 207.443 C 359.143 207.128,359.481 206.870,359.774 206.870 C 360.066 206.870,360.305 206.613,360.305 206.298 C 360.305 205.983,360.563 205.725,360.878 205.725 C 361.193 205.725,361.450 205.468,361.450 205.153 C 361.450 204.838,361.708 204.580,362.023 204.580 C 362.338 204.580,362.595 204.323,362.595 204.008 C 362.595 203.650,362.957 203.435,363.562 203.435 C 364.093 203.435,364.627 203.177,364.747 202.863 C 364.868 202.548,365.206 202.290,365.499 202.290 C 365.791 202.290,366.031 202.129,366.031 201.932 C 366.031 201.450,372.081 195.420,372.565 195.420 C 372.774 195.420,372.845 195.257,372.722 195.057 C 372.599 194.858,372.846 194.508,373.272 194.281 C 373.728 194.036,374.046 193.480,374.046 192.926 C 374.046 192.344,374.264 191.985,374.618 191.985 C 374.933 191.985,375.191 191.727,375.191 191.412 C 375.191 191.097,375.448 190.840,375.763 190.840 C 376.078 190.840,376.336 190.582,376.336 190.267 C 376.336 189.952,376.594 189.695,376.908 189.695 C 377.236 189.695,377.481 189.351,377.481 188.890 C 377.481 188.335,377.657 188.154,378.049 188.304 C 378.361 188.424,378.599 188.400,378.576 188.250 C 378.419 187.194,378.711 186.260,379.198 186.260 C 379.513 186.260,379.771 186.002,379.771 185.687 C 379.771 185.372,380.029 185.115,380.344 185.115 C 380.658 185.115,380.916 184.875,380.916 184.583 C 380.916 184.290,381.174 183.952,381.489 183.831 C 381.803 183.711,382.061 183.195,382.061 182.686 C 382.061 182.177,382.319 181.662,382.634 181.541 C 382.948 181.421,383.206 180.887,383.206 180.355 C 383.206 179.751,383.420 179.389,383.779 179.389 C 384.094 179.389,384.351 179.150,384.351 178.858 C 384.351 178.565,384.609 178.227,384.924 178.106 C 385.239 177.985,385.496 177.452,385.496 176.920 C 385.496 176.316,385.711 175.954,386.069 175.954 C 386.450 175.954,386.641 175.573,386.641 174.809 C 386.641 174.046,386.832 173.664,387.214 173.664 C 387.595 173.664,387.786 173.282,387.786 172.519 C 387.786 171.756,387.977 171.374,388.359 171.374 C 388.736 171.374,388.931 170.997,388.931 170.270 C 388.931 169.640,389.177 169.071,389.504 168.946 C 389.882 168.801,390.076 168.203,390.076 167.188 C 390.076 166.074,390.235 165.649,390.649 165.649 C 391.026 165.649,391.221 165.272,391.221 164.545 C 391.221 163.915,391.468 163.346,391.794 163.221 C 392.168 163.077,392.366 162.483,392.366 161.503 C 392.366 160.524,392.565 159.929,392.939 159.786 C 393.313 159.642,393.511 159.047,393.511 158.068 C 393.511 157.089,393.710 156.494,394.084 156.351 C 394.497 156.192,394.656 155.544,394.656 154.020 C 394.656 152.397,394.789 151.908,395.229 151.908 C 395.651 151.908,395.802 151.468,395.802 150.232 C 395.802 149.093,395.985 148.484,396.374 148.335 C 396.807 148.169,396.947 147.470,396.947 145.473 C 396.947 143.512,397.090 142.775,397.502 142.617 C 397.902 142.463,398.089 141.626,398.170 139.618 C 398.250 137.639,398.421 136.860,398.760 136.927 C 399.113 136.998,399.237 136.132,399.237 133.588 C 399.237 131.552,399.392 130.153,399.618 130.153 C 399.867 130.153,400.000 123.791,400.000 111.832 C 400.000 99.873,399.867 93.511,399.618 93.511 C 399.392 93.511,399.237 92.112,399.237 90.076 C 399.237 87.277,399.131 86.641,398.664 86.641 C 398.219 86.641,398.092 86.132,398.092 84.351 C 398.092 82.570,397.964 82.061,397.519 82.061 C 397.074 82.061,396.947 81.552,396.947 79.771 C 396.947 77.990,396.819 77.481,396.374 77.481 C 395.950 77.481,395.802 77.036,395.802 75.763 C 395.802 74.491,395.653 74.046,395.229 74.046 C 394.805 74.046,394.656 73.601,394.656 72.328 C 394.656 71.056,394.508 70.611,394.084 70.611 C 393.702 70.611,393.511 70.229,393.511 69.466 C 393.511 68.702,393.321 68.321,392.939 68.321 C 392.441 68.321,392.099 66.578,392.321 65.172 C 392.346 65.014,392.109 64.885,391.794 64.885 C 391.412 64.885,391.221 64.504,391.221 63.740 C 391.221 62.977,391.031 62.595,390.649 62.595 C 390.158 62.595,389.865 61.644,390.031 60.592 C 390.056 60.434,389.819 60.305,389.504 60.305 C 389.189 60.305,388.931 60.048,388.931 59.733 C 388.931 59.418,388.674 59.160,388.359 59.160 C 387.977 59.160,387.786 58.779,387.786 58.015 C 387.786 57.252,387.595 56.870,387.214 56.870 C 386.832 56.870,386.641 56.489,386.641 55.725 C 386.641 54.962,386.450 54.580,386.069 54.580 C 385.687 54.580,385.496 54.198,385.496 53.435 C 385.496 52.672,385.305 52.290,384.924 52.290 C 384.609 52.290,384.351 52.032,384.351 51.718 C 384.351 51.403,384.094 51.145,383.779 51.145 C 383.397 51.145,383.206 50.763,383.206 50.000 C 383.206 49.237,383.015 48.855,382.634 48.855 C 382.319 48.855,382.061 48.597,382.061 48.282 C 382.061 47.968,381.803 47.710,381.489 47.710 C 380.991 47.710,380.698 46.729,380.880 45.678 C 380.910 45.505,380.747 45.479,380.518 45.621 C 380.282 45.767,380.010 45.530,379.892 45.077 C 379.776 44.636,379.444 44.275,379.154 44.275 C 378.864 44.275,378.626 44.017,378.626 43.702 C 378.626 43.387,378.368 43.130,378.053 43.130 C 377.739 43.130,377.481 42.872,377.481 42.557 C 377.481 42.242,377.223 41.985,376.908 41.985 C 376.594 41.985,376.336 41.727,376.336 41.412 C 376.336 41.097,376.078 40.840,375.763 40.840 C 375.448 40.840,375.191 40.582,375.191 40.267 C 375.191 39.952,374.933 39.695,374.618 39.695 C 374.303 39.695,374.046 39.437,374.046 39.122 C 374.046 38.807,373.788 38.550,373.473 38.550 C 373.158 38.550,372.901 38.292,372.901 37.977 C 372.901 37.662,372.643 37.405,372.328 37.405 C 372.013 37.405,371.756 37.147,371.756 36.832 C 371.756 36.517,371.498 36.260,371.183 36.260 C 370.868 36.260,370.611 36.002,370.611 35.687 C 370.611 35.372,370.353 35.115,370.038 35.115 C 369.723 35.115,369.466 34.857,369.466 34.542 C 369.466 34.227,369.208 33.969,368.893 33.969 C 368.578 33.969,368.321 33.712,368.321 33.397 C 368.321 33.082,368.063 32.824,367.748 32.824 C 367.433 32.824,367.176 32.567,367.176 32.252 C 367.176 31.937,366.918 31.679,366.603 31.679 C 366.288 31.679,366.031 31.422,366.031 31.107 C 366.031 30.792,365.773 30.534,365.458 30.534 C 365.143 30.534,364.885 30.277,364.885 29.962 C 364.885 29.647,364.646 29.389,364.354 29.389 C 364.061 29.389,363.723 29.132,363.602 28.817 C 363.482 28.502,362.948 28.244,362.417 28.244 C 361.812 28.244,361.450 28.030,361.450 27.672 C 361.450 27.357,361.193 27.099,360.878 27.099 C 360.563 27.099,360.305 26.842,360.305 26.527 C 360.305 26.212,360.048 25.954,359.733 25.954 C 359.418 25.954,359.160 25.717,359.160 25.426 C 359.160 25.136,358.800 24.804,358.359 24.689 C 357.905 24.570,357.669 24.298,357.814 24.062 C 357.956 23.833,357.930 23.670,357.757 23.700 C 356.706 23.882,355.725 23.589,355.725 23.092 C 355.725 22.777,355.468 22.519,355.153 22.519 C 354.838 22.519,354.580 22.261,354.580 21.947 C 354.580 21.632,354.323 21.374,354.008 21.374 C 353.693 21.374,353.435 21.116,353.435 20.802 C 353.435 20.420,353.053 20.229,352.290 20.229 C 351.570 20.229,351.145 20.033,351.145 19.701 C 351.145 19.411,350.784 19.079,350.343 18.963 C 349.889 18.845,349.653 18.573,349.799 18.337 C 349.941 18.108,349.915 17.945,349.742 17.975 C 348.691 18.157,347.710 17.864,347.710 17.366 C 347.710 16.985,347.328 16.794,346.565 16.794 C 345.802 16.794,345.420 16.603,345.420 16.221 C 345.420 15.906,345.162 15.649,344.847 15.649 C 344.532 15.649,344.275 15.391,344.275 15.076 C 344.275 14.695,343.893 14.504,343.130 14.504 C 342.366 14.504,341.985 14.313,341.985 13.931 C 341.985 13.550,341.603 13.359,340.840 13.359 C 340.076 13.359,339.695 13.168,339.695 12.786 C 339.695 12.405,339.313 12.214,338.550 12.214 C 337.786 12.214,337.405 12.023,337.405 11.641 C 337.405 11.260,337.023 11.069,336.260 11.069 C 335.496 11.069,335.115 10.878,335.115 10.496 C 335.115 10.181,334.986 9.944,334.828 9.969 C 333.422 10.191,331.679 9.849,331.679 9.351 C 331.679 8.969,331.298 8.779,330.534 8.779 C 329.771 8.779,329.389 8.588,329.389 8.206 C 329.389 7.824,329.008 7.634,328.244 7.634 C 327.481 7.634,327.099 7.443,327.099 7.061 C 327.099 6.637,326.654 6.489,325.382 6.489 C 324.109 6.489,323.664 6.340,323.664 5.916 C 323.664 5.492,323.219 5.344,321.947 5.344 C 320.674 5.344,320.229 5.195,320.229 4.771 C 320.229 4.456,320.100 4.219,319.943 4.244 C 318.297 4.504,315.649 4.123,315.649 3.626 C 315.649 3.181,315.140 3.053,313.359 3.053 C 311.578 3.053,311.069 2.926,311.069 2.481 C 311.069 2.023,310.496 1.908,308.206 1.908 C 305.916 1.908,305.344 1.794,305.344 1.336 C 305.344 0.863,304.644 0.763,301.336 0.763 C 298.919 0.763,297.328 0.612,297.328 0.382 C 297.328 0.129,272.646 0.000,224.046 0.000 C 175.445 0.000,150.763 0.129,150.763 0.382 " stroke="none" fill="#1291d9" fill-rule="evenodd"></path><path id="path1" d="M56.870 176.527 C 56.870 176.972,56.361 177.099,54.580 177.099 C 52.799 177.099,52.290 177.226,52.290 177.672 C 52.290 178.167,51.172 178.403,49.748 178.210 C 49.609 178.191,49.343 178.449,49.157 178.783 C 48.970 179.116,48.568 179.389,48.263 179.389 C 47.959 179.389,47.710 179.647,47.710 179.962 C 47.710 180.344,47.328 180.534,46.565 180.534 C 45.802 180.534,45.420 180.725,45.420 181.107 C 45.420 181.489,45.038 181.679,44.275 181.679 C 43.511 181.679,43.130 181.870,43.130 182.252 C 43.130 182.567,42.872 182.824,42.557 182.824 C 42.242 182.824,41.985 183.082,41.985 183.397 C 41.985 183.779,41.603 183.969,40.840 183.969 C 40.076 183.969,39.695 184.160,39.695 184.542 C 39.695 184.857,39.437 185.115,39.122 185.115 C 38.807 185.115,38.550 185.372,38.550 185.687 C 38.550 186.002,38.292 186.260,37.977 186.260 C 37.662 186.260,37.405 186.517,37.405 186.832 C 37.405 187.147,37.147 187.405,36.832 187.405 C 36.517 187.405,36.260 187.662,36.260 187.977 C 36.260 188.292,36.002 188.550,35.687 188.550 C 35.372 188.550,35.115 188.807,35.115 189.122 C 35.115 189.437,34.857 189.695,34.542 189.695 C 34.227 189.695,33.969 189.952,33.969 190.267 C 33.969 190.582,33.712 190.840,33.397 190.840 C 33.082 190.840,32.824 191.097,32.824 191.412 C 32.824 191.727,32.567 191.985,32.252 191.985 C 31.937 191.985,31.679 192.242,31.679 192.557 C 31.679 192.872,31.422 193.130,31.107 193.130 C 30.792 193.130,30.534 193.387,30.534 193.702 C 30.534 194.017,30.277 194.275,29.962 194.275 C 29.647 194.275,29.389 194.532,29.389 194.847 C 29.389 195.162,29.132 195.420,28.817 195.420 C 28.502 195.420,28.244 195.677,28.244 195.992 C 28.244 196.307,27.987 196.565,27.672 196.565 C 27.357 196.565,27.099 196.823,27.099 197.137 C 27.099 197.452,26.842 197.710,26.527 197.710 C 26.212 197.710,25.954 197.968,25.954 198.282 C 25.954 198.597,25.697 198.855,25.382 198.855 C 25.067 198.855,24.809 199.113,24.809 199.427 C 24.809 199.742,24.552 200.000,24.237 200.000 C 23.922 200.000,23.664 200.258,23.664 200.573 C 23.664 200.887,23.406 201.145,23.092 201.145 C 22.777 201.145,22.519 201.403,22.519 201.718 C 22.519 202.032,22.261 202.290,21.947 202.290 C 21.632 202.290,21.374 202.548,21.374 202.863 C 21.374 203.355,20.698 203.619,19.775 203.488 C 19.631 203.467,19.403 203.793,19.271 204.212 C 19.138 204.630,18.882 204.882,18.702 204.771 C 18.523 204.660,18.265 204.918,18.130 205.344 C 17.995 205.769,17.737 206.027,17.557 205.916 C 17.378 205.805,17.120 206.063,16.985 206.489 C 16.850 206.914,16.598 207.176,16.425 207.069 C 16.252 206.962,16.012 207.131,15.892 207.445 C 15.771 207.759,15.410 208.015,15.088 208.015 C 14.767 208.015,14.504 208.273,14.504 208.588 C 14.504 208.903,14.246 209.160,13.931 209.160 C 13.616 209.160,13.359 209.418,13.359 209.733 C 13.359 210.048,13.101 210.305,12.786 210.305 C 12.471 210.305,12.214 210.477,12.214 210.687 C 12.214 211.182,10.800 212.595,10.305 212.595 C 10.095 212.595,9.924 212.767,9.924 212.977 C 9.924 213.472,8.510 214.885,8.015 214.885 C 7.805 214.885,7.634 215.143,7.634 215.458 C 7.634 215.773,7.376 216.031,7.061 216.031 C 6.746 216.031,6.489 216.288,6.489 216.603 C 6.489 216.918,6.231 217.176,5.916 217.176 C 5.601 217.176,5.344 217.433,5.344 217.748 C 5.344 218.063,5.086 218.321,4.771 218.321 C 4.456 218.321,4.198 218.578,4.198 218.893 C 4.198 219.208,3.941 219.466,3.626 219.466 C 3.311 219.466,3.053 219.723,3.053 220.038 C 3.053 220.353,2.796 220.611,2.481 220.611 C 2.166 220.611,1.908 220.868,1.908 221.183 C 1.908 221.498,1.651 221.756,1.336 221.756 C 1.021 221.756,0.763 222.013,0.763 222.328 C 0.763 222.643,0.592 222.901,0.382 222.901 C 0.161 222.901,0.000 224.109,0.000 225.763 C 0.000 227.417,0.161 228.626,0.382 228.626 C 0.592 228.626,0.763 228.884,0.763 229.198 C 0.763 229.705,8.524 229.771,68.321 229.771 C 121.218 229.771,135.857 229.670,135.782 229.306 C 135.729 229.045,136.237 228.752,136.943 228.638 C 137.633 228.526,138.184 228.263,138.168 228.053 C 138.151 227.844,138.667 227.586,139.313 227.481 C 139.959 227.376,140.475 227.118,140.458 226.908 C 140.441 226.698,140.957 226.441,141.603 226.336 C 142.249 226.231,142.728 225.973,142.668 225.763 C 142.607 225.553,143.115 225.328,143.798 225.262 C 144.566 225.188,145.038 224.934,145.038 224.594 C 145.038 224.239,145.442 224.046,146.183 224.046 C 146.947 224.046,147.328 223.855,147.328 223.473 C 147.328 223.092,147.710 222.901,148.473 222.901 C 149.237 222.901,149.618 222.710,149.618 222.328 C 149.618 222.013,149.950 221.756,150.354 221.756 C 150.759 221.756,151.319 221.527,151.599 221.248 C 151.878 220.968,152.577 220.621,153.153 220.477 C 153.728 220.333,154.198 220.046,154.198 219.840 C 154.198 219.634,154.530 219.466,154.935 219.466 C 155.339 219.466,155.899 219.237,156.179 218.958 C 156.458 218.678,157.158 218.331,157.733 218.187 C 158.308 218.043,158.779 217.756,158.779 217.550 C 158.779 217.344,159.110 217.176,159.515 217.176 C 159.920 217.176,160.479 216.947,160.759 216.667 C 161.038 216.388,161.738 216.041,162.313 215.897 C 162.888 215.752,163.359 215.466,163.359 215.260 C 163.359 215.054,163.690 214.885,164.095 214.885 C 164.500 214.885,165.088 214.629,165.401 214.315 C 165.715 214.001,166.343 213.688,166.796 213.619 C 167.249 213.550,167.735 213.322,167.875 213.112 C 168.015 212.902,168.425 212.622,168.785 212.489 C 169.601 212.188,169.295 214.499,168.453 215.000 C 168.170 215.168,167.939 215.708,167.939 216.200 C 167.939 216.691,167.681 217.193,167.366 217.314 C 167.052 217.434,166.794 217.950,166.794 218.459 C 166.794 218.968,166.536 219.483,166.221 219.604 C 165.906 219.725,165.649 220.240,165.649 220.749 C 165.649 221.258,165.391 221.773,165.076 221.894 C 164.761 222.015,164.504 222.530,164.504 223.039 C 164.504 223.548,164.246 224.063,163.931 224.184 C 163.616 224.305,163.359 224.820,163.359 225.329 C 163.359 225.838,163.101 226.353,162.786 226.474 C 162.471 226.595,162.214 227.110,162.214 227.619 C 162.214 228.128,161.956 228.643,161.641 228.764 C 161.326 228.885,161.069 229.400,161.069 229.909 C 161.069 230.418,160.811 230.933,160.496 231.054 C 160.181 231.175,159.924 231.709,159.924 232.240 C 159.924 232.844,159.709 233.206,159.351 233.206 C 158.969 233.206,158.779 233.588,158.779 234.351 C 158.779 235.115,158.588 235.496,158.206 235.496 C 157.824 235.496,157.634 235.878,157.634 236.641 C 157.634 237.405,157.443 237.786,157.061 237.786 C 156.679 237.786,156.489 238.168,156.489 238.931 C 156.489 239.695,156.298 240.076,155.916 240.076 C 155.534 240.076,155.344 240.458,155.344 241.221 C 155.344 241.985,155.153 242.366,154.771 242.366 C 154.389 242.366,154.198 242.748,154.198 243.511 C 154.198 244.275,154.008 244.656,153.626 244.656 C 153.244 244.656,153.053 245.038,153.053 245.802 C 153.053 246.565,152.863 246.947,152.481 246.947 C 151.974 246.947,151.908 254.644,151.908 313.931 C 151.908 373.219,151.974 380.916,152.481 380.916 C 152.796 380.916,153.053 381.088,153.053 381.298 C 153.053 381.518,154.262 381.679,155.916 381.679 C 157.570 381.679,158.779 381.518,158.779 381.298 C 158.779 381.088,159.036 380.916,159.351 380.916 C 159.666 380.916,159.924 380.658,159.924 380.344 C 159.924 380.029,160.181 379.771,160.496 379.771 C 160.811 379.771,161.069 379.513,161.069 379.198 C 161.069 378.884,161.326 378.626,161.641 378.626 C 161.956 378.626,162.214 378.368,162.214 378.053 C 162.214 377.739,162.471 377.481,162.786 377.481 C 163.101 377.481,163.359 377.223,163.359 376.908 C 163.359 376.594,163.616 376.336,163.931 376.336 C 164.246 376.336,164.504 376.078,164.504 375.763 C 164.504 375.448,164.761 375.191,165.076 375.191 C 165.391 375.191,165.649 374.933,165.649 374.618 C 165.649 374.303,165.906 374.046,166.221 374.046 C 166.536 374.046,166.794 373.788,166.794 373.473 C 166.794 373.158,167.052 372.901,167.366 372.901 C 167.681 372.901,167.939 372.643,167.939 372.328 C 167.939 372.013,168.197 371.756,168.511 371.756 C 168.826 371.756,169.084 371.498,169.084 371.183 C 169.084 370.868,169.342 370.611,169.656 370.611 C 169.971 370.611,170.229 370.353,170.229 370.038 C 170.229 369.723,170.487 369.466,170.802 369.466 C 171.116 369.466,171.374 369.208,171.374 368.893 C 171.374 368.578,171.632 368.321,171.947 368.321 C 172.261 368.321,172.519 368.063,172.519 367.748 C 172.519 367.433,172.777 367.176,173.092 367.176 C 173.406 367.176,173.664 366.918,173.664 366.603 C 173.664 366.288,173.922 366.031,174.237 366.031 C 174.552 366.031,174.809 365.773,174.809 365.458 C 174.809 365.143,175.067 364.885,175.382 364.885 C 175.697 364.885,175.954 364.628,175.954 364.313 C 175.954 363.998,176.212 363.740,176.527 363.740 C 176.842 363.740,177.099 363.483,177.099 363.168 C 177.099 362.853,177.357 362.595,177.672 362.595 C 177.987 362.595,178.244 362.338,178.244 362.023 C 178.244 361.708,178.502 361.450,178.817 361.450 C 179.132 361.450,179.389 361.193,179.389 360.878 C 179.389 360.563,179.647 360.305,179.962 360.305 C 180.277 360.305,180.534 360.048,180.534 359.733 C 180.534 359.418,180.792 359.160,181.107 359.160 C 181.422 359.160,181.679 358.903,181.679 358.588 C 181.679 358.273,181.937 358.015,182.252 358.015 C 182.567 358.015,182.824 357.844,182.824 357.634 C 182.824 357.139,184.238 355.725,184.733 355.725 C 184.943 355.725,185.115 355.468,185.115 355.153 C 185.115 354.838,185.372 354.580,185.687 354.580 C 186.002 354.580,186.260 354.323,186.260 354.008 C 186.260 353.693,186.517 353.435,186.832 353.435 C 187.147 353.435,187.405 353.172,187.405 352.851 C 187.405 352.529,187.661 352.168,187.975 352.047 C 188.289 351.927,188.458 351.687,188.351 351.514 C 188.244 351.341,188.505 351.089,188.931 350.954 C 189.357 350.819,189.615 350.561,189.504 350.382 C 189.393 350.202,189.650 349.944,190.076 349.809 C 190.502 349.674,190.760 349.416,190.649 349.237 C 190.538 349.057,190.789 348.801,191.208 348.668 C 191.627 348.535,191.952 348.308,191.932 348.164 C 191.800 347.241,192.065 346.565,192.557 346.565 C 192.872 346.565,193.130 346.307,193.130 345.992 C 193.130 345.677,193.387 345.420,193.702 345.420 C 194.017 345.420,194.275 345.162,194.275 344.847 C 194.275 344.532,194.532 344.275,194.847 344.275 C 195.162 344.275,195.420 344.017,195.420 343.702 C 195.420 343.387,195.677 343.130,195.992 343.130 C 196.307 343.130,196.565 342.872,196.565 342.557 C 196.565 342.242,196.823 341.985,197.137 341.985 C 197.452 341.985,197.710 341.727,197.710 341.412 C 197.710 341.097,197.968 340.840,198.282 340.840 C 198.597 340.840,198.855 340.582,198.855 340.267 C 198.855 339.952,199.113 339.695,199.427 339.695 C 199.809 339.695,200.000 339.313,200.000 338.550 C 200.000 337.786,200.191 337.405,200.573 337.405 C 200.954 337.405,201.145 337.023,201.145 336.260 C 201.145 335.496,201.336 335.115,201.718 335.115 C 202.099 335.115,202.290 334.733,202.290 333.969 C 202.290 333.206,202.481 332.824,202.863 332.824 C 203.242 332.824,203.435 332.445,203.435 331.698 C 203.435 331.079,203.681 330.435,203.981 330.267 C 204.597 329.922,204.580 329.995,204.580 327.672 C 204.580 326.399,204.729 325.954,205.153 325.954 C 205.922 325.954,206.036 177.181,205.267 176.412 C 204.498 175.643,56.870 175.757,56.870 176.527 " stroke="none" fill="#143277" fill-rule="evenodd"></path></g></svg>