<svg id="svg" version="1.1" xmlns="http://www.w3.org/2000/svg" xmlns:xlink="http://www.w3.org/1999/xlink" width="400" height="306.87361419068736" viewBox="0, 0, 400,306.87361419068736"><g id="svgg"><path id="path0" d="M172.525 1.538 L 172.525 3.077 184.881 2.997 L 197.237 2.916 197.331 1.458 L 197.424 0.000 184.975 0.000 L 172.525 0.000 172.525 1.538 M107.559 61.934 C 107.374 62.504,107.039 63.283,105.806 66.002 C 104.881 68.043,103.274 71.617,102.668 72.985 C 101.538 75.534,101.333 76.009,101.173 76.439 C 101.079 76.692,100.883 77.107,100.738 77.360 C 100.481 77.808,99.790 79.321,98.985 81.197 C 98.768 81.704,98.246 82.878,97.825 83.807 C 96.540 86.640,95.152 89.739,94.695 90.795 C 93.997 92.407,92.178 96.476,91.095 98.849 C 89.660 101.995,87.369 107.090,86.678 108.672 C 86.420 109.263,86.014 110.138,85.775 110.616 C 85.537 111.094,85.342 111.664,85.342 111.883 C 85.342 112.102,85.134 112.453,84.881 112.663 C 84.628 112.873,84.421 113.235,84.421 113.467 C 84.421 113.699,83.990 114.822,83.464 115.962 C 81.721 119.742,80.686 122.019,80.430 122.640 C 80.210 123.173,79.313 125.185,77.829 128.473 C 77.600 128.979,77.042 130.223,76.588 131.236 C 74.752 135.332,74.504 135.873,74.098 136.655 C 73.866 137.103,73.676 137.690,73.676 137.960 C 73.676 138.229,73.538 138.450,73.369 138.450 C 73.200 138.450,73.062 138.670,73.062 138.940 C 73.062 139.209,72.865 139.796,72.625 140.244 C 72.240 140.961,71.407 142.777,69.787 146.431 C 69.525 147.022,69.196 147.733,69.055 148.010 C 68.620 148.871,68.855 148.887,81.729 148.887 C 94.543 148.887,95.472 148.807,95.472 147.707 C 95.472 147.408,95.675 146.894,95.923 146.567 C 96.171 146.239,96.378 145.716,96.383 145.404 C 96.389 145.093,96.576 144.471,96.800 144.023 C 97.024 143.575,97.438 142.748,97.721 142.185 C 98.004 141.623,98.235 140.978,98.235 140.752 C 98.235 140.526,98.432 139.950,98.674 139.472 C 98.915 138.994,99.554 137.498,100.094 136.147 C 100.634 134.797,101.265 133.256,101.497 132.724 C 101.729 132.192,101.919 131.631,101.919 131.477 C 101.919 131.324,102.200 130.896,102.545 130.526 L 103.171 129.854 121.040 129.858 C 141.185 129.863,140.036 129.768,140.756 131.493 C 141.050 132.195,141.467 133.185,141.683 133.691 C 141.900 134.198,142.314 135.234,142.604 135.994 C 142.894 136.754,143.311 137.790,143.531 138.296 C 143.750 138.803,144.147 139.722,144.413 140.338 C 144.679 140.954,144.896 141.613,144.896 141.800 C 144.896 141.988,145.028 142.382,145.189 142.675 C 145.584 143.396,147.082 147.123,147.470 148.350 C 147.628 148.850,148.524 148.887,160.543 148.887 C 173.698 148.887,174.117 148.851,173.189 147.797 C 173.048 147.637,172.618 146.746,172.234 145.817 C 171.605 144.298,171.070 143.083,169.530 139.678 C 169.263 139.087,168.868 138.189,168.654 137.682 C 168.439 137.176,167.860 135.863,167.366 134.766 C 166.873 133.668,166.233 132.218,165.946 131.543 C 164.213 127.474,163.846 126.642,163.576 126.170 C 163.430 125.917,163.235 125.503,163.140 125.249 C 163.046 124.996,162.771 124.340,162.528 123.791 C 162.286 123.243,161.859 122.276,161.580 121.642 C 161.301 121.009,160.887 120.125,160.659 119.676 C 160.432 119.228,160.246 118.641,160.246 118.372 C 160.246 118.102,160.107 117.882,159.939 117.882 C 159.770 117.882,159.632 117.736,159.632 117.558 C 159.632 117.277,159.247 116.321,158.097 113.738 C 157.946 113.400,157.524 112.433,157.157 111.589 C 156.791 110.744,156.155 109.294,155.743 108.365 C 155.331 107.437,154.813 106.262,154.592 105.756 C 154.370 105.249,153.977 104.351,153.717 103.761 C 153.458 103.170,153.004 102.134,152.708 101.458 C 152.413 100.783,151.985 99.864,151.757 99.415 C 151.529 98.967,151.343 98.380,151.343 98.111 C 151.343 97.841,151.205 97.621,151.036 97.621 C 150.867 97.621,150.729 97.469,150.729 97.284 C 150.729 97.098,150.533 96.511,150.293 95.979 C 150.054 95.447,149.432 94.069,148.912 92.918 C 148.392 91.766,147.966 90.644,147.966 90.423 C 147.966 90.202,147.759 89.849,147.506 89.639 C 147.252 89.429,147.045 89.078,147.045 88.859 C 147.045 88.640,146.850 88.070,146.611 87.592 C 146.373 87.114,145.937 86.170,145.644 85.495 C 145.350 84.820,144.924 83.900,144.696 83.452 C 144.469 83.004,144.282 82.417,144.282 82.148 C 144.282 81.878,144.144 81.658,143.975 81.658 C 143.807 81.658,143.668 81.512,143.668 81.334 C 143.668 81.053,143.284 80.096,142.134 77.513 C 141.983 77.176,141.560 76.209,141.194 75.365 C 140.584 73.958,139.733 72.030,138.587 69.455 C 138.343 68.906,137.912 67.939,137.630 67.306 C 137.348 66.673,136.942 65.741,136.728 65.234 C 136.514 64.728,136.042 63.657,135.679 62.855 L 135.018 61.397 121.375 61.397 C 108.653 61.397,107.720 61.433,107.559 61.934 M180.343 62.391 C 180.262 62.604,180.231 81.842,180.274 105.142 L 180.353 147.506 192.018 147.506 L 203.684 147.506 203.837 122.487 C 203.961 102.251,204.067 97.483,204.388 97.549 C 204.770 97.627,205.962 98.870,207.330 100.619 C 207.688 101.077,208.189 101.674,208.442 101.945 C 209.491 103.070,212.044 106.119,213.030 107.425 C 213.611 108.196,214.179 108.895,214.291 108.979 C 214.548 109.172,216.545 111.511,217.959 113.272 C 218.550 114.009,219.248 114.829,219.510 115.096 C 219.773 115.362,220.460 116.201,221.037 116.961 C 221.615 117.721,222.174 118.411,222.281 118.496 C 222.388 118.580,223.403 119.754,224.535 121.105 C 229.986 127.604,229.102 127.220,231.619 124.184 C 232.295 123.369,232.988 122.550,233.161 122.364 C 233.333 122.178,234.024 121.335,234.696 120.491 C 235.367 119.647,236.066 118.818,236.247 118.649 C 236.534 118.382,238.206 116.392,240.215 113.926 C 240.553 113.511,241.036 112.951,241.289 112.682 C 241.543 112.412,242.226 111.573,242.807 110.816 C 243.389 110.059,244.080 109.215,244.342 108.941 C 245.058 108.193,247.763 105.030,248.810 103.716 C 252.460 99.139,253.791 97.654,254.259 97.639 C 254.767 97.622,254.797 98.993,254.797 122.272 C 254.797 141.035,254.885 147.010,255.165 147.291 C 255.886 148.012,278.032 147.797,278.424 147.065 C 278.912 146.152,278.862 62.869,278.373 62.379 C 277.983 61.989,256.892 61.828,255.487 62.204 C 255.041 62.324,254.797 62.624,254.797 63.053 C 254.797 63.418,254.555 63.932,254.259 64.195 C 253.964 64.459,252.962 65.616,252.034 66.767 C 251.105 67.918,250.000 69.226,249.578 69.674 C 249.156 70.121,248.258 71.171,247.583 72.005 C 245.883 74.107,245.205 74.911,244.649 75.485 C 244.387 75.757,243.696 76.598,243.114 77.355 C 242.533 78.111,241.850 78.951,241.596 79.221 C 241.343 79.490,240.860 80.046,240.522 80.455 C 238.692 82.676,235.011 87.051,234.862 87.183 C 234.767 87.268,234.137 88.028,233.462 88.872 C 232.787 89.716,231.958 90.727,231.620 91.117 C 231.282 91.508,230.931 92.130,230.840 92.499 C 230.591 93.503,227.782 93.690,227.782 92.703 C 227.782 92.138,225.541 88.847,224.546 87.951 C 224.359 87.782,223.525 86.816,222.694 85.804 C 221.862 84.792,221.044 83.808,220.875 83.617 C 220.706 83.426,220.015 82.610,219.340 81.802 C 218.665 80.995,217.971 80.183,217.799 79.998 C 217.626 79.814,216.936 78.973,216.264 78.130 C 215.592 77.287,214.604 76.113,214.069 75.521 C 213.534 74.928,212.780 74.029,212.393 73.523 C 212.006 73.016,210.855 71.628,209.835 70.438 C 208.816 69.249,207.542 67.729,207.005 67.062 C 206.467 66.394,205.541 65.302,204.946 64.634 C 204.350 63.966,203.823 63.138,203.774 62.792 C 203.662 62.012,180.637 61.617,180.343 62.391 M20.645 62.548 L 9.210 62.632 9.210 105.303 L 9.210 147.973 21.259 147.893 L 33.308 147.813 33.461 131.850 L 33.615 115.886 46.815 115.691 C 60.433 115.489,62.962 115.331,63.998 114.616 C 64.331 114.386,64.898 114.198,65.259 114.198 C 66.228 114.198,70.767 111.707,72.325 110.320 C 72.679 110.005,73.439 109.331,74.013 108.824 C 76.481 106.643,80.099 100.864,80.571 98.348 C 80.685 97.738,80.899 97.014,81.045 96.739 C 82.442 94.122,82.445 84.194,81.049 81.619 C 80.901 81.344,80.685 80.620,80.571 80.009 C 80.131 77.666,76.638 71.922,74.357 69.791 C 71.909 67.504,66.727 64.160,65.631 64.160 C 65.340 64.160,64.648 63.966,64.093 63.729 C 60.759 62.305,59.235 62.263,20.645 62.548 M304.528 62.612 L 293.016 62.778 292.938 105.372 L 292.860 147.966 304.987 147.966 L 317.114 147.966 317.114 132.218 C 317.114 120.379,317.206 116.378,317.483 116.101 C 317.756 115.828,320.852 115.733,329.511 115.733 C 341.191 115.733,345.875 115.449,347.706 114.630 C 348.238 114.393,348.955 114.198,349.299 114.198 C 349.644 114.198,350.004 114.070,350.101 113.915 C 350.197 113.759,350.688 113.541,351.193 113.430 C 351.698 113.319,352.111 113.110,352.111 112.966 C 352.111 112.822,352.411 112.609,352.778 112.493 C 353.145 112.376,353.594 112.164,353.775 112.021 C 353.957 111.878,354.935 111.115,355.948 110.325 C 359.741 107.366,364.390 100.811,364.390 98.421 C 364.390 98.127,364.530 97.625,364.702 97.304 C 366.226 94.457,366.290 85.742,364.819 81.494 C 364.583 80.813,364.390 80.044,364.390 79.786 C 364.390 76.810,357.751 68.489,353.594 66.255 C 352.863 65.862,352.196 65.472,352.111 65.388 C 351.764 65.043,349.883 64.160,349.496 64.160 C 349.268 64.160,348.692 63.995,348.216 63.794 C 345.215 62.525,333.132 62.198,304.528 62.612 M52.016 79.204 C 54.510 80.623,57.099 83.444,57.099 84.743 C 57.099 85.052,57.237 85.391,57.406 85.495 C 58.276 86.033,57.489 91.784,56.342 93.274 C 55.062 94.937,52.913 96.712,51.097 97.606 L 48.964 98.658 42.185 98.792 C 33.040 98.973,34.075 100.296,34.075 88.426 C 34.075 83.042,34.165 78.404,34.274 78.119 C 34.456 77.646,35.154 77.610,42.033 77.712 L 49.592 77.825 52.016 79.204 M334.919 78.694 C 335.679 79.138,336.508 79.590,336.761 79.700 C 337.588 80.057,340.752 83.541,340.752 84.094 C 340.752 84.391,340.971 85.072,341.238 85.608 C 343.148 89.437,340.209 94.821,334.618 97.737 C 332.898 98.634,321.341 99.360,318.828 98.729 L 318.035 98.530 318.035 88.303 C 318.035 82.678,318.139 77.969,318.266 77.839 C 318.958 77.126,333.515 77.873,334.919 78.694 M122.369 85.265 C 122.729 86.404,123.475 88.295,123.892 89.127 C 124.132 89.605,124.328 90.181,124.328 90.407 C 124.328 90.633,124.536 91.243,124.789 91.763 C 125.042 92.284,125.457 93.135,125.710 93.655 C 125.963 94.175,126.170 94.786,126.170 95.012 C 126.170 95.237,126.369 95.813,126.612 96.291 C 126.855 96.769,127.276 97.713,127.548 98.388 C 127.820 99.064,128.173 99.856,128.334 100.149 C 128.495 100.443,128.626 100.830,128.626 101.010 C 128.626 101.191,128.910 101.987,129.257 102.780 C 130.133 104.782,130.313 105.215,131.067 107.137 C 131.737 108.847,131.825 109.064,132.759 111.310 C 133.046 112.002,133.235 112.969,133.179 113.459 L 133.078 114.351 121.412 114.351 L 109.747 114.351 109.783 113.186 C 109.803 112.544,110.030 111.577,110.288 111.037 C 110.546 110.496,110.924 109.639,111.128 109.133 C 111.333 108.626,111.675 107.797,111.889 107.291 C 112.104 106.784,112.516 105.748,112.806 104.988 C 113.096 104.229,113.542 103.124,113.796 102.533 C 114.735 100.353,115.054 99.585,115.579 98.235 C 115.875 97.475,116.297 96.439,116.516 95.932 C 116.736 95.426,117.133 94.507,117.399 93.891 C 117.664 93.274,117.882 92.616,117.882 92.428 C 117.882 92.241,118.015 91.847,118.178 91.554 C 118.341 91.261,118.760 90.330,119.110 89.486 C 119.459 88.642,119.879 87.711,120.041 87.418 C 120.204 87.125,120.338 86.676,120.338 86.420 C 120.338 85.291,122.066 84.308,122.369 85.265 M171.604 305.449 L 171.604 306.984 184.037 306.984 L 196.470 306.984 196.470 305.449 L 196.470 303.914 184.037 303.914 L 171.604 303.914 171.604 305.449 " stroke="none" fill="#f9fafa" fill-rule="evenodd"></path><path id="path1" d="M0.000 154.873 L 0.000 279.969 157.176 279.969 L 314.351 279.969 314.351 279.048 C 314.351 278.434,314.505 278.127,314.812 278.127 C 315.153 278.127,315.272 277.769,315.272 276.746 C 315.272 275.723,315.392 275.365,315.733 275.365 C 316.063 275.365,316.193 275.027,316.193 274.169 C 316.193 273.390,316.354 272.913,316.654 272.798 C 316.958 272.681,317.114 272.200,317.114 271.383 C 317.114 270.488,317.242 270.146,317.575 270.146 C 317.916 270.146,318.035 269.788,318.035 268.764 C 318.035 267.741,318.155 267.383,318.496 267.383 C 318.803 267.383,318.956 267.076,318.956 266.462 C 318.956 265.955,319.082 265.541,319.236 265.541 C 319.390 265.541,319.609 264.989,319.723 264.315 C 319.837 263.640,320.057 263.010,320.211 262.915 C 320.365 262.820,320.491 262.198,320.491 261.532 C 320.491 260.661,320.620 260.322,320.952 260.322 C 321.285 260.322,321.412 259.980,321.412 259.085 C 321.412 258.268,321.569 257.787,321.873 257.670 C 322.173 257.555,322.333 257.078,322.333 256.299 C 322.333 255.441,322.463 255.104,322.794 255.104 C 323.135 255.104,323.254 254.745,323.254 253.722 C 323.254 252.699,323.373 252.341,323.715 252.341 C 324.045 252.341,324.175 252.003,324.175 251.146 C 324.175 250.367,324.335 249.889,324.635 249.774 C 324.939 249.657,325.096 249.176,325.096 248.360 C 325.096 247.464,325.223 247.122,325.556 247.122 C 325.860 247.122,326.017 246.818,326.017 246.227 C 326.017 245.734,326.164 245.282,326.344 245.222 C 326.523 245.162,326.749 244.529,326.845 243.815 C 326.940 243.101,327.126 242.517,327.258 242.517 C 327.390 242.517,327.591 241.965,327.705 241.291 C 327.819 240.616,328.038 239.987,328.192 239.891 C 328.347 239.796,328.473 239.174,328.473 238.508 C 328.473 237.638,328.602 237.299,328.933 237.299 C 329.274 237.299,329.394 236.940,329.394 235.917 C 329.394 234.894,329.513 234.536,329.854 234.536 C 330.187 234.536,330.315 234.195,330.315 233.308 C 330.315 232.421,330.443 232.080,330.775 232.080 C 331.116 232.080,331.236 231.722,331.236 230.698 C 331.236 229.675,331.355 229.317,331.696 229.317 C 332.037 229.317,332.157 228.959,332.157 227.936 C 332.157 226.912,332.276 226.554,332.617 226.554 C 332.950 226.554,333.078 226.213,333.078 225.326 C 333.078 224.439,333.205 224.098,333.538 224.098 C 333.842 224.098,333.998 223.794,333.998 223.203 C 333.998 222.710,334.146 222.258,334.325 222.199 C 334.505 222.139,334.730 221.506,334.826 220.792 C 334.922 220.078,335.108 219.493,335.240 219.493 C 335.372 219.493,335.573 218.942,335.687 218.267 C 335.801 217.593,336.020 216.963,336.174 216.868 C 336.328 216.772,336.454 216.150,336.454 215.485 C 336.454 214.614,336.583 214.275,336.915 214.275 C 337.256 214.275,337.375 213.917,337.375 212.893 C 337.375 211.870,337.495 211.512,337.836 211.512 C 338.166 211.512,338.296 211.174,338.296 210.317 C 338.296 209.538,338.457 209.060,338.757 208.945 C 339.061 208.828,339.217 208.348,339.217 207.531 C 339.217 206.635,339.345 206.293,339.678 206.293 C 340.019 206.293,340.138 205.935,340.138 204.912 C 340.138 203.888,340.258 203.530,340.599 203.530 C 340.889 203.530,341.059 203.238,341.059 202.741 C 341.059 202.307,341.266 201.744,341.520 201.491 C 341.773 201.238,341.984 200.661,341.990 200.208 C 341.995 199.756,342.202 199.118,342.450 198.790 C 342.698 198.462,342.901 197.818,342.901 197.358 C 342.901 196.897,343.048 196.472,343.228 196.412 C 343.408 196.352,343.633 195.719,343.729 195.005 C 343.824 194.291,344.023 193.707,344.169 193.707 C 344.316 193.707,344.436 193.154,344.436 192.479 C 344.436 191.592,344.564 191.251,344.896 191.251 C 345.237 191.251,345.357 190.893,345.357 189.870 C 345.357 188.846,345.476 188.488,345.817 188.488 C 346.158 188.488,346.278 188.130,346.278 187.107 C 346.278 186.083,346.397 185.725,346.738 185.725 C 347.071 185.725,347.199 185.384,347.199 184.497 C 347.199 183.610,347.327 183.269,347.659 183.269 C 348.000 183.269,348.120 182.911,348.120 181.888 C 348.120 180.865,348.239 180.507,348.580 180.507 C 348.870 180.507,349.041 180.214,349.041 179.717 C 349.041 179.283,349.248 178.721,349.501 178.467 C 349.754 178.214,349.962 177.592,349.962 177.086 C 349.962 176.579,350.169 175.958,350.422 175.704 C 350.675 175.451,350.883 174.851,350.883 174.371 C 350.883 173.890,351.030 173.448,351.209 173.388 C 351.389 173.328,351.615 172.695,351.710 171.981 C 351.806 171.267,352.004 170.683,352.151 170.683 C 352.298 170.683,352.417 170.130,352.417 169.455 C 352.417 168.568,352.545 168.227,352.878 168.227 C 353.219 168.227,353.338 167.869,353.338 166.846 C 353.338 165.822,353.458 165.464,353.799 165.464 C 354.140 165.464,354.259 165.106,354.259 164.083 C 354.259 163.060,354.379 162.701,354.720 162.701 C 355.052 162.701,355.180 162.360,355.180 161.474 C 355.180 160.587,355.308 160.246,355.641 160.246 C 355.931 160.246,356.101 159.953,356.101 159.456 C 356.101 159.022,356.309 158.460,356.562 158.206 C 356.815 157.953,357.022 157.331,357.022 156.825 C 357.022 156.318,357.229 155.697,357.483 155.443 C 357.736 155.190,357.943 154.524,357.943 153.963 C 357.943 153.340,358.122 152.875,358.404 152.767 C 358.690 152.657,358.864 152.189,358.864 151.532 C 358.864 150.950,359.011 150.424,359.191 150.364 C 359.371 150.304,359.596 149.671,359.692 148.957 C 359.788 148.243,359.986 147.659,360.133 147.659 C 360.279 147.659,360.399 147.102,360.399 146.422 C 360.399 145.605,360.556 145.124,360.860 145.007 C 361.160 144.892,361.320 144.415,361.320 143.636 C 361.320 142.778,361.450 142.441,361.781 142.441 C 362.122 142.441,362.241 142.082,362.241 141.059 C 362.241 140.036,362.360 139.678,362.701 139.678 C 363.035 139.678,363.162 139.336,363.162 138.440 C 363.162 137.623,363.318 137.142,363.622 137.026 C 363.876 136.929,364.083 136.535,364.083 136.152 C 364.083 135.769,364.290 135.283,364.543 135.073 C 364.797 134.863,365.004 134.283,365.004 133.785 C 365.004 133.288,365.211 132.673,365.464 132.420 C 365.718 132.166,365.925 131.500,365.925 130.940 C 365.925 130.316,366.104 129.851,366.385 129.743 C 366.671 129.633,366.846 129.166,366.846 128.508 C 366.846 127.926,366.993 127.400,367.173 127.341 C 367.352 127.281,367.578 126.647,367.673 125.934 C 367.769 125.220,367.967 124.635,368.114 124.635 C 368.261 124.635,368.381 124.014,368.381 123.254 C 368.381 122.231,368.500 121.873,368.841 121.873 C 369.174 121.873,369.302 121.532,369.302 120.645 C 369.302 119.758,369.430 119.417,369.762 119.417 C 370.103 119.417,370.223 119.059,370.223 118.035 C 370.223 117.012,370.342 116.654,370.683 116.654 C 370.986 116.654,371.144 116.351,371.144 115.766 C 371.144 115.260,371.342 114.802,371.604 114.701 C 371.905 114.585,372.064 114.107,372.064 113.320 C 372.064 112.532,372.224 112.054,372.525 111.938 C 372.810 111.829,372.985 111.361,372.985 110.710 C 372.985 110.059,373.161 109.592,373.446 109.482 C 373.747 109.367,373.906 108.888,373.906 108.101 C 373.906 107.313,374.066 106.835,374.367 106.719 C 374.631 106.618,374.827 106.160,374.827 105.647 C 374.827 105.155,375.034 104.356,375.286 103.872 C 375.538 103.389,375.745 102.682,375.746 102.302 C 375.747 101.922,375.886 101.612,376.055 101.612 C 376.224 101.612,376.362 100.990,376.362 100.230 C 376.362 99.207,376.482 98.849,376.823 98.849 C 377.153 98.849,377.283 98.511,377.283 97.654 C 377.283 96.875,377.443 96.397,377.744 96.282 C 378.048 96.165,378.204 95.685,378.204 94.868 C 378.204 93.972,378.331 93.630,378.665 93.630 C 378.968 93.630,379.125 93.327,379.125 92.742 C 379.125 92.236,379.323 91.778,379.586 91.677 C 379.887 91.562,380.046 91.083,380.046 90.296 C 380.046 89.508,380.205 89.030,380.507 88.914 C 380.792 88.805,380.967 88.338,380.967 87.686 C 380.967 87.035,381.142 86.568,381.427 86.458 C 381.729 86.343,381.888 85.865,381.888 85.077 C 381.888 84.289,382.047 83.811,382.348 83.696 C 382.640 83.584,382.809 83.113,382.809 82.413 C 382.809 81.805,383.016 81.100,383.269 80.846 C 383.523 80.593,383.730 79.981,383.730 79.487 C 383.730 78.992,383.868 78.588,384.037 78.588 C 384.206 78.588,384.344 77.966,384.344 77.206 C 384.344 76.183,384.463 75.825,384.804 75.825 C 385.145 75.825,385.265 75.467,385.265 74.444 C 385.265 73.420,385.384 73.062,385.725 73.062 C 386.032 73.062,386.186 72.755,386.186 72.141 C 386.186 71.527,386.339 71.220,386.646 71.220 C 386.977 71.220,387.107 70.883,387.107 70.025 C 387.107 69.246,387.267 68.769,387.567 68.653 C 387.871 68.537,388.028 68.056,388.028 67.239 C 388.028 66.344,388.155 66.002,388.488 66.002 C 388.819 66.002,388.949 65.664,388.949 64.806 C 388.949 64.027,389.109 63.550,389.409 63.435 C 389.710 63.319,389.870 62.841,389.870 62.053 C 389.870 61.266,390.029 60.787,390.330 60.672 C 390.621 60.560,390.790 60.089,390.790 59.389 C 390.790 58.781,390.998 58.076,391.251 57.823 C 391.504 57.569,391.711 56.958,391.711 56.463 C 391.711 55.969,391.850 55.564,392.018 55.564 C 392.187 55.564,392.325 54.942,392.325 54.183 C 392.325 53.159,392.445 52.801,392.786 52.801 C 393.127 52.801,393.246 52.443,393.246 51.420 C 393.246 50.397,393.366 50.038,393.707 50.038 C 394.014 50.038,394.167 49.731,394.167 49.117 C 394.167 48.503,394.321 48.196,394.628 48.196 C 394.961 48.196,395.088 47.854,395.088 46.959 C 395.088 46.142,395.245 45.661,395.549 45.545 C 395.846 45.431,396.009 44.956,396.009 44.206 C 396.009 43.456,396.173 42.981,396.470 42.867 C 396.774 42.750,396.930 42.269,396.930 41.452 C 396.930 40.557,397.057 40.215,397.391 40.215 C 397.721 40.215,397.851 39.877,397.851 39.020 C 397.851 38.241,398.011 37.763,398.312 37.648 C 398.613 37.532,398.772 37.053,398.772 36.259 C 398.772 35.593,398.928 34.995,399.118 34.932 C 399.475 34.813,399.950 32.530,399.982 30.775 L 400.000 29.777 200.000 29.777 L 0.000 29.777 0.000 154.873 M136.123 62.394 C 136.427 63.112,137.084 64.597,137.581 65.695 C 138.079 66.792,138.662 68.104,138.876 68.611 C 139.091 69.117,139.485 70.015,139.752 70.606 C 141.390 74.227,142.210 76.081,143.351 78.741 C 143.621 79.370,145.213 82.921,145.966 84.574 C 146.197 85.081,146.590 85.979,146.839 86.569 C 147.088 87.160,147.720 88.577,148.243 89.717 C 148.766 90.857,149.194 91.882,149.194 91.995 C 149.194 92.108,149.621 93.109,150.142 94.220 C 150.663 95.331,151.208 96.516,151.353 96.853 C 151.498 97.191,151.900 98.116,152.247 98.909 C 152.594 99.701,152.878 100.496,152.878 100.674 C 152.878 100.852,153.016 100.998,153.185 100.998 C 153.354 100.998,153.492 101.218,153.492 101.488 C 153.492 101.757,153.682 102.344,153.914 102.792 C 154.525 103.970,155.446 106.003,156.710 108.962 C 157.319 110.387,158.008 111.976,158.242 112.492 C 158.475 113.008,158.964 114.121,159.329 114.965 C 159.693 115.810,160.256 117.087,160.579 117.805 C 160.902 118.523,161.451 119.766,161.800 120.568 C 162.436 122.033,162.936 123.170,163.760 125.019 C 164.004 125.568,164.571 126.846,165.019 127.859 C 165.467 128.872,166.115 130.322,166.458 131.082 C 166.802 131.842,167.190 132.740,167.321 133.078 C 167.452 133.415,167.972 134.589,168.476 135.687 C 168.980 136.784,169.626 138.235,169.912 138.910 C 170.198 139.586,170.686 140.691,170.996 141.366 C 172.848 145.397,174.054 148.461,173.923 148.802 C 173.804 149.112,170.999 149.194,160.558 149.194 L 147.344 149.194 146.687 147.736 C 146.326 146.934,145.855 145.863,145.640 145.357 C 145.425 144.850,145.031 143.932,144.766 143.315 C 144.500 142.699,144.282 142.041,144.282 141.853 C 144.282 141.665,144.151 141.271,143.990 140.978 C 143.684 140.420,143.189 139.229,142.300 136.915 C 142.009 136.155,141.591 135.119,141.372 134.612 C 141.153 134.106,140.692 133.001,140.348 132.157 L 139.722 130.622 121.450 130.542 L 103.178 130.463 102.679 131.617 C 102.405 132.251,102.001 133.185,101.781 133.691 C 101.562 134.198,101.140 135.234,100.844 135.994 C 100.548 136.754,100.127 137.790,99.907 138.296 C 99.688 138.803,99.291 139.722,99.025 140.338 C 98.759 140.954,98.542 141.599,98.542 141.771 C 98.542 141.943,98.347 142.475,98.110 142.953 C 97.872 143.431,97.536 144.167,97.363 144.589 C 97.035 145.389,96.417 146.904,95.829 148.350 L 95.485 149.194 81.962 149.194 C 66.789 149.194,67.646 149.347,68.868 146.866 C 69.277 146.036,69.854 144.804,70.151 144.129 C 70.447 143.454,71.094 142.003,71.587 140.906 C 72.081 139.808,72.660 138.496,72.875 137.989 C 73.089 137.483,73.482 136.585,73.748 135.994 C 74.013 135.403,74.312 134.712,74.412 134.459 C 74.512 134.206,74.712 133.791,74.857 133.538 C 75.002 133.285,75.325 132.594,75.575 132.003 C 76.057 130.861,76.418 130.052,77.972 126.631 C 78.509 125.449,79.062 124.206,79.202 123.868 C 79.488 123.174,81.108 119.581,81.969 117.728 C 82.283 117.053,82.834 115.810,83.193 114.965 C 83.552 114.121,84.102 112.878,84.416 112.203 C 85.278 110.350,86.897 106.757,87.183 106.063 C 87.403 105.530,88.301 103.518,89.784 100.230 C 90.013 99.724,90.570 98.480,91.022 97.467 C 92.088 95.077,92.756 93.591,93.783 91.328 C 94.242 90.315,94.829 89.002,95.087 88.411 C 95.345 87.820,95.959 86.439,96.453 85.342 C 96.946 84.244,97.534 82.932,97.758 82.425 C 97.983 81.919,98.607 80.537,99.145 79.355 C 99.683 78.173,100.320 76.757,100.561 76.209 C 101.235 74.669,101.797 73.405,102.847 71.067 C 104.928 66.434,105.352 65.510,105.776 64.672 C 106.018 64.194,106.216 63.658,106.216 63.480 C 106.216 63.303,106.504 62.692,106.855 62.124 L 107.494 61.090 121.532 61.090 L 135.569 61.090 136.123 62.394 M204.422 62.718 C 204.774 63.445,205.448 64.447,205.919 64.944 C 206.390 65.441,207.462 66.676,208.300 67.688 C 209.138 68.700,209.962 69.684,210.130 69.875 C 210.299 70.066,210.990 70.882,211.665 71.690 C 212.341 72.497,213.034 73.309,213.207 73.494 C 213.379 73.678,214.070 74.520,214.742 75.365 C 215.413 76.209,216.032 76.969,216.117 77.053 C 216.469 77.406,218.506 79.783,219.647 81.173 C 220.322 81.996,221.014 82.822,221.184 83.008 C 221.354 83.194,221.887 83.830,222.369 84.421 C 224.263 86.745,225.529 88.238,226.631 89.449 C 227.264 90.145,227.863 91.059,227.961 91.481 C 228.315 92.998,228.372 93.057,229.392 92.959 C 230.192 92.882,230.413 92.709,230.499 92.095 C 230.558 91.673,230.696 91.259,230.806 91.174 C 230.916 91.090,231.558 90.330,232.233 89.486 C 233.660 87.701,234.057 87.218,235.656 85.320 C 236.306 84.548,237.391 83.252,238.066 82.441 C 238.741 81.630,239.432 80.810,239.601 80.619 C 239.770 80.428,240.588 79.444,241.420 78.432 C 242.251 77.420,243.080 76.454,243.262 76.285 C 243.443 76.117,244.487 74.873,245.581 73.523 C 246.676 72.172,247.712 70.912,247.884 70.722 C 248.056 70.532,248.749 69.713,249.424 68.901 C 250.100 68.089,251.426 66.518,252.371 65.409 C 253.316 64.300,254.226 62.978,254.392 62.471 L 254.694 61.550 266.948 61.550 L 279.202 61.550 279.202 104.835 L 279.202 148.120 266.922 148.120 L 254.643 148.120 254.485 123.254 C 254.308 95.363,254.408 97.818,253.492 99.026 C 252.892 99.818,252.070 100.795,250.959 102.037 C 250.790 102.225,250.102 103.070,249.429 103.914 C 248.757 104.758,247.767 105.932,247.229 106.523 C 246.691 107.114,245.933 108.012,245.544 108.519 C 244.753 109.551,241.290 113.653,241.010 113.891 C 240.910 113.975,240.279 114.735,239.607 115.579 C 238.935 116.424,238.245 117.269,238.072 117.457 C 237.607 117.966,236.680 119.078,235.303 120.779 C 234.628 121.612,233.688 122.717,233.215 123.235 C 232.742 123.752,231.913 124.753,231.373 125.459 C 229.718 127.623,229.300 127.644,227.576 125.650 C 226.760 124.708,225.953 123.783,225.780 123.595 C 225.608 123.408,224.917 122.563,224.245 121.719 C 223.574 120.875,222.944 120.115,222.848 120.031 C 222.751 119.946,221.244 118.150,219.501 116.040 C 217.757 113.929,216.178 112.064,215.993 111.896 C 215.808 111.727,215.106 110.898,214.435 110.054 C 213.763 109.210,213.072 108.365,212.900 108.176 C 212.385 107.613,211.432 106.463,210.130 104.835 C 209.455 103.991,208.754 103.162,208.572 102.993 C 208.391 102.824,207.562 101.857,206.731 100.844 C 205.004 98.741,204.701 98.477,204.379 98.798 C 204.252 98.925,204.113 110.075,204.069 123.575 L 203.991 148.120 192.018 148.201 C 181.036 148.275,180.014 148.238,179.662 147.758 C 179.159 147.072,179.094 62.928,179.596 61.991 C 179.902 61.419,180.364 61.397,191.848 61.397 L 203.783 61.397 204.422 62.718 M62.255 62.502 C 63.387 62.772,64.748 63.187,65.280 63.423 C 65.813 63.659,66.404 63.853,66.596 63.853 C 66.787 63.853,67.250 64.049,67.624 64.288 C 67.998 64.528,69.031 65.121,69.919 65.607 C 74.243 67.971,81.044 76.420,81.044 79.428 C 81.044 79.646,81.166 80.064,81.315 80.357 C 83.050 83.772,83.050 94.585,81.315 98.000 C 81.166 98.294,81.044 98.694,81.044 98.889 C 81.044 103.054,70.963 113.591,65.952 114.663 C 65.388 114.784,64.789 114.984,64.620 115.109 C 63.492 115.939,60.095 116.179,47.276 116.336 L 33.922 116.500 33.842 132.390 L 33.763 148.280 21.256 148.200 L 8.749 148.120 8.665 105.756 C 8.619 82.456,8.656 63.081,8.748 62.701 L 8.914 62.011 34.555 62.011 C 57.003 62.011,60.452 62.072,62.255 62.502 M346.431 62.607 C 350.168 63.626,350.980 63.950,353.338 65.364 C 358.107 68.225,361.765 72.299,364.116 77.370 C 364.837 78.926,365.621 81.409,365.619 82.134 C 365.618 82.480,365.790 82.935,366.002 83.146 C 366.545 83.689,366.530 93.287,365.983 95.165 C 365.762 95.925,365.365 97.306,365.101 98.235 C 364.058 101.911,361.484 106.092,358.557 108.868 C 356.333 110.977,355.015 112.049,354.643 112.049 C 354.432 112.049,354.259 112.162,354.259 112.300 C 354.259 112.600,350.979 114.252,349.041 114.928 C 345.345 116.217,343.640 116.347,330.451 116.347 L 317.734 116.347 317.654 132.233 L 317.575 148.120 305.065 148.200 L 292.556 148.280 292.556 105.350 C 292.556 81.739,292.648 62.328,292.760 62.215 C 293.336 61.640,344.247 62.012,346.431 62.607 M34.689 88.258 L 34.689 98.235 40.656 98.235 C 47.973 98.235,50.221 97.819,52.648 96.016 C 59.809 90.697,58.336 82.034,49.721 78.803 C 48.564 78.369,47.178 78.281,41.509 78.281 L 34.689 78.281 34.689 88.258 M318.649 88.258 L 318.649 98.235 324.668 98.235 C 329.094 98.235,331.169 98.110,332.512 97.762 C 341.377 95.465,343.884 85.881,337.006 80.583 C 336.787 80.414,335.917 79.957,335.073 79.566 C 334.229 79.176,333.298 78.727,333.005 78.569 C 332.712 78.410,329.362 78.281,325.561 78.281 L 318.649 78.281 318.649 88.258 M121.050 86.493 C 120.946 86.788,120.598 87.652,120.276 88.411 C 119.954 89.171,119.545 90.138,119.368 90.560 C 119.190 90.982,118.870 91.742,118.656 92.249 C 118.441 92.755,118.029 93.791,117.739 94.551 C 117.449 95.311,117.033 96.347,116.815 96.853 C 116.597 97.360,115.970 98.880,115.423 100.230 C 114.504 102.497,113.940 103.877,113.288 105.449 C 113.148 105.787,112.735 106.823,112.371 107.751 C 111.476 110.035,111.295 110.480,110.710 111.829 C 110.434 112.468,110.207 113.124,110.207 113.287 C 110.207 113.611,132.378 113.721,132.699 113.399 C 132.801 113.298,132.666 112.711,132.399 112.095 C 131.547 110.127,131.151 109.166,130.611 107.751 C 130.321 106.992,129.904 105.955,129.685 105.449 C 129.465 104.942,129.068 104.024,128.802 103.407 C 128.537 102.791,128.319 102.133,128.319 101.945 C 128.319 101.757,128.186 101.363,128.023 101.070 C 127.541 100.204,126.579 97.882,126.055 96.320 C 125.786 95.520,125.440 94.622,125.286 94.324 C 125.132 94.027,124.767 93.162,124.475 92.402 C 123.957 91.055,123.688 90.400,122.674 88.017 C 122.402 87.378,122.180 86.653,122.180 86.406 C 122.180 85.773,121.279 85.843,121.050 86.493 " stroke="none" fill="#20325e" fill-rule="evenodd"></path><path id="path2" d="M114.756 61.320 C 118.524 61.369,124.603 61.369,128.263 61.320 C 131.924 61.271,128.841 61.231,121.412 61.231 C 113.983 61.231,110.988 61.271,114.756 61.320 M107.020 62.394 C 106.771 62.943,106.266 64.083,105.897 64.927 C 105.527 65.771,104.896 67.187,104.493 68.074 C 104.090 68.960,103.431 70.411,103.028 71.297 C 102.625 72.183,101.999 73.599,101.636 74.444 C 101.273 75.288,100.843 76.218,100.680 76.512 C 100.252 77.282,100.316 77.492,100.844 77.053 C 101.097 76.843,101.305 76.467,101.305 76.219 C 101.305 75.970,101.496 75.400,101.730 74.951 C 101.963 74.503,102.369 73.653,102.632 73.062 C 103.340 71.471,104.934 67.925,105.806 66.002 C 107.499 62.268,107.839 61.397,107.603 61.397 C 107.531 61.397,107.269 61.846,107.020 62.394 M135.372 62.144 C 135.528 62.555,135.781 63.142,135.933 63.448 C 136.086 63.755,136.415 64.490,136.664 65.081 C 136.914 65.672,137.348 66.673,137.630 67.306 C 137.912 67.939,138.343 68.906,138.587 69.455 C 139.733 72.030,140.584 73.958,141.194 75.365 C 141.560 76.209,141.983 77.176,142.134 77.513 C 143.284 80.096,143.668 81.053,143.668 81.334 C 143.668 81.512,143.807 81.658,143.975 81.658 C 144.144 81.658,144.282 81.878,144.282 82.148 C 144.282 82.417,144.469 83.004,144.696 83.452 C 144.924 83.900,145.350 84.820,145.644 85.495 C 145.937 86.170,146.373 87.114,146.611 87.592 C 146.850 88.070,147.045 88.640,147.045 88.859 C 147.045 89.078,147.252 89.429,147.506 89.639 C 147.990 90.041,148.151 89.664,147.709 89.163 C 147.567 89.003,146.929 87.629,146.292 86.109 C 144.978 82.977,143.755 80.204,143.369 79.479 C 143.225 79.209,142.525 77.620,141.814 75.948 C 140.580 73.050,139.688 71.015,138.462 68.304 C 138.156 67.629,137.532 66.178,137.075 65.081 C 136.618 63.983,136.119 62.954,135.965 62.794 C 135.812 62.633,135.687 62.253,135.687 61.949 C 135.687 61.645,135.552 61.397,135.387 61.397 C 135.197 61.397,135.192 61.669,135.372 62.144 M180.034 62.087 C 179.954 62.299,179.924 81.673,179.967 105.142 L 180.046 147.813 191.845 147.893 C 201.079 147.956,203.696 147.889,203.889 147.586 C 204.024 147.373,204.137 136.113,204.140 122.563 C 204.142 109.014,204.236 97.928,204.347 97.928 C 204.579 97.928,205.847 99.296,207.476 101.305 C 208.092 102.064,208.669 102.755,208.759 102.840 C 208.849 102.924,211.050 105.549,213.649 108.672 C 216.249 111.796,218.459 114.421,218.561 114.505 C 218.663 114.589,219.295 115.349,219.964 116.193 C 220.634 117.038,221.261 117.797,221.358 117.882 C 221.455 117.966,223.039 119.831,224.878 122.026 C 229.854 127.967,229.137 127.487,230.615 125.863 C 231.307 125.104,234.226 121.650,237.101 118.189 C 239.976 114.728,242.411 111.827,242.510 111.742 C 242.610 111.658,243.239 110.899,243.909 110.056 C 244.579 109.214,245.557 108.039,246.083 107.447 C 246.609 106.855,248.587 104.505,250.479 102.226 C 252.371 99.946,254.047 98.035,254.204 97.979 C 254.379 97.917,254.491 107.353,254.494 122.231 C 254.496 135.625,254.582 146.897,254.684 147.279 L 254.870 147.973 266.882 147.893 L 278.895 147.813 278.973 105.007 C 279.035 70.966,278.972 62.152,278.666 61.957 C 278.454 61.823,273.000 61.711,266.545 61.708 L 254.808 61.704 254.601 62.530 C 254.430 63.210,251.038 67.489,245.523 73.983 C 245.021 74.574,244.105 75.672,243.487 76.422 C 242.869 77.173,241.939 78.278,241.419 78.878 C 240.900 79.478,238.976 81.765,237.144 83.960 C 235.312 86.155,233.729 88.020,233.626 88.104 C 232.933 88.669,230.545 92.075,230.545 92.498 C 230.545 92.898,230.265 93.016,229.317 93.016 C 228.345 93.016,228.089 92.902,228.089 92.470 C 228.089 91.726,227.441 90.869,221.962 84.370 C 219.352 81.274,214.798 75.840,211.841 72.295 C 208.885 68.749,206.079 65.434,205.606 64.927 C 205.134 64.421,204.516 63.488,204.233 62.855 L 203.719 61.704 191.950 61.704 C 182.817 61.704,180.148 61.790,180.034 62.087 M45.280 62.335 C 58.429 62.526,62.588 62.845,64.370 63.800 C 64.738 63.998,65.292 64.160,65.600 64.160 C 66.723 64.160,71.877 67.474,74.357 69.791 C 76.638 71.922,80.131 77.666,80.571 80.009 C 80.685 80.620,80.901 81.344,81.049 81.619 C 82.445 84.194,82.442 94.122,81.045 96.739 C 80.899 97.014,80.685 97.738,80.571 98.348 C 80.099 100.864,76.481 106.643,74.013 108.824 C 73.439 109.331,72.679 110.005,72.325 110.320 C 70.767 111.707,66.228 114.198,65.259 114.198 C 64.898 114.198,64.331 114.386,63.998 114.616 C 62.962 115.331,60.433 115.489,46.815 115.691 L 33.615 115.886 33.461 131.850 L 33.308 147.813 21.259 147.893 L 9.210 147.973 9.210 105.303 L 9.210 62.632 20.645 62.546 L 32.080 62.460 20.568 62.465 L 9.056 62.471 9.056 105.295 L 9.056 148.120 21.065 148.200 C 30.858 148.265,33.137 148.204,33.418 147.865 C 33.660 147.573,33.786 142.820,33.842 131.822 L 33.922 116.193 47.429 115.999 C 60.299 115.814,62.298 115.677,64.774 114.807 C 69.612 113.108,73.475 110.348,76.749 106.251 C 78.335 104.266,80.320 100.686,80.767 99.002 C 80.902 98.496,81.317 97.045,81.690 95.779 C 82.517 92.970,82.692 86.184,82.003 83.653 C 79.967 76.176,77.865 72.460,73.481 68.584 C 66.956 62.817,63.252 61.989,44.359 62.082 L 32.080 62.143 45.280 62.335 M203.774 62.792 C 203.823 63.138,204.350 63.966,204.946 64.634 C 205.541 65.302,206.467 66.394,207.005 67.062 C 207.542 67.729,208.816 69.249,209.835 70.438 C 210.855 71.628,212.006 73.016,212.393 73.523 C 212.780 74.029,213.534 74.928,214.069 75.521 C 214.604 76.113,215.592 77.287,216.264 78.130 C 216.936 78.973,217.626 79.814,217.799 79.998 C 217.971 80.183,218.665 80.995,219.340 81.802 C 220.015 82.610,220.706 83.426,220.875 83.617 C 221.044 83.808,221.862 84.792,222.694 85.804 C 223.525 86.816,224.359 87.782,224.546 87.951 C 225.541 88.847,227.782 92.138,227.782 92.703 C 227.782 93.690,230.591 93.503,230.840 92.499 C 230.931 92.130,231.282 91.508,231.620 91.117 C 231.958 90.727,232.787 89.716,233.462 88.872 C 234.137 88.028,234.767 87.268,234.862 87.183 C 235.011 87.051,238.692 82.676,240.522 80.455 C 240.860 80.046,241.343 79.490,241.596 79.221 C 241.850 78.951,242.533 78.111,243.114 77.355 C 243.696 76.598,244.387 75.757,244.649 75.485 C 245.205 74.911,245.883 74.107,247.583 72.005 C 248.258 71.171,249.156 70.121,249.578 69.674 C 250.000 69.226,251.105 67.918,252.034 66.767 C 252.962 65.616,253.964 64.459,254.259 64.195 C 254.555 63.932,254.797 63.418,254.797 63.053 C 254.797 62.624,255.041 62.324,255.487 62.204 C 256.892 61.828,277.983 61.989,278.373 62.379 C 278.862 62.869,278.912 146.152,278.424 147.065 C 278.032 147.797,255.886 148.012,255.165 147.291 C 254.885 147.010,254.797 141.035,254.797 122.272 C 254.797 98.993,254.767 97.622,254.259 97.639 C 253.791 97.654,252.460 99.139,248.810 103.716 C 247.763 105.030,245.058 108.193,244.342 108.941 C 244.080 109.215,243.389 110.059,242.807 110.816 C 242.226 111.573,241.543 112.412,241.289 112.682 C 241.036 112.951,240.553 113.511,240.215 113.926 C 238.206 116.392,236.534 118.382,236.247 118.649 C 236.066 118.818,235.367 119.647,234.696 120.491 C 234.024 121.335,233.333 122.178,233.161 122.364 C 232.988 122.550,232.295 123.369,231.619 124.184 C 229.102 127.220,229.986 127.604,224.535 121.105 C 223.403 119.754,222.388 118.580,222.281 118.496 C 222.174 118.411,221.615 117.721,221.037 116.961 C 220.460 116.201,219.773 115.362,219.510 115.096 C 219.248 114.829,218.550 114.009,217.959 113.272 C 216.545 111.511,214.548 109.172,214.291 108.979 C 214.179 108.895,213.611 108.196,213.030 107.425 C 212.044 106.119,209.491 103.070,208.442 101.945 C 208.189 101.674,207.688 101.077,207.330 100.619 C 205.962 98.870,204.770 97.627,204.388 97.549 C 204.067 97.483,203.961 102.251,203.837 122.487 L 203.684 147.506 192.018 147.506 L 180.353 147.506 180.274 105.142 C 180.231 81.842,180.262 62.604,180.343 62.391 C 180.637 61.617,203.662 62.012,203.774 62.792 M304.451 62.241 C 298.078 62.287,292.863 62.427,292.862 62.552 C 292.862 62.676,300.149 62.672,309.056 62.543 C 335.475 62.159,345.074 62.466,348.216 63.794 C 348.692 63.995,349.268 64.160,349.496 64.160 C 349.883 64.160,351.764 65.043,352.111 65.388 C 352.196 65.472,352.863 65.862,353.594 66.255 C 357.790 68.510,364.390 76.814,364.390 79.838 C 364.390 80.125,364.592 80.824,364.838 81.392 C 365.476 82.860,365.402 81.823,364.726 79.804 C 362.276 72.484,355.831 65.880,348.902 63.586 C 343.979 61.956,343.916 61.954,304.451 62.241 M292.705 105.449 C 292.705 128.749,292.741 138.326,292.786 126.732 C 292.830 115.137,292.830 96.073,292.786 84.368 C 292.741 72.662,292.705 82.149,292.705 105.449 M34.262 78.153 C 33.701 79.612,34.073 98.212,34.669 98.531 C 35.031 98.725,37.517 98.824,41.039 98.785 L 46.815 98.721 40.675 98.538 C 37.299 98.438,34.499 98.328,34.455 98.295 C 34.410 98.262,34.410 93.711,34.455 88.181 L 34.536 78.127 41.136 77.965 L 47.736 77.802 41.092 77.734 C 35.276 77.675,34.425 77.727,34.262 78.153 M99.319 79.587 C 98.843 80.642,98.060 82.377,97.577 83.444 C 97.095 84.511,96.700 85.435,96.700 85.498 C 96.700 85.560,96.078 86.933,95.318 88.548 C 94.559 90.163,93.937 91.543,93.937 91.614 C 93.937 91.728,93.066 93.674,91.178 97.774 C 90.867 98.450,90.309 99.693,89.938 100.537 C 89.290 102.009,88.213 104.415,87.326 106.370 C 87.097 106.876,86.542 108.120,86.094 109.133 C 85.647 110.146,85.087 111.376,84.850 111.866 C 84.305 112.998,84.310 113.137,84.881 112.663 C 85.134 112.453,85.342 112.102,85.342 111.883 C 85.342 111.664,85.537 111.094,85.775 110.616 C 86.014 110.138,86.420 109.263,86.678 108.672 C 87.369 107.090,89.660 101.995,91.095 98.849 C 92.178 96.476,93.997 92.407,94.695 90.795 C 95.152 89.739,96.540 86.640,97.825 83.807 C 98.246 82.878,98.805 81.635,99.068 81.044 C 99.331 80.453,99.763 79.526,100.028 78.984 C 100.293 78.442,100.437 77.924,100.347 77.834 C 100.257 77.744,99.794 78.533,99.319 79.587 M318.240 77.872 C 317.743 78.368,318.015 98.468,318.521 98.662 C 318.788 98.765,321.654 98.819,324.891 98.782 L 330.775 98.715 324.635 98.552 L 318.496 98.388 318.496 88.258 L 318.496 78.127 324.942 77.964 L 331.389 77.802 324.917 77.734 C 321.357 77.697,318.353 77.759,318.240 77.872 M49.731 78.485 C 56.710 80.920,59.560 88.189,55.660 93.602 C 54.867 94.704,52.464 96.700,51.931 96.700 C 51.776 96.700,51.495 96.885,51.308 97.110 C 51.120 97.336,50.171 97.697,49.198 97.912 C 46.727 98.459,46.666 98.490,48.005 98.518 C 50.241 98.563,54.175 96.089,56.342 93.274 C 57.489 91.784,58.276 86.033,57.406 85.495 C 57.237 85.391,57.099 85.060,57.099 84.759 C 57.099 82.801,51.380 77.946,49.124 77.989 C 48.537 78.000,48.683 78.120,49.731 78.485 M333.538 78.552 C 336.710 79.699,339.711 82.218,340.532 84.421 C 340.649 84.734,340.711 84.669,340.728 84.218 C 340.752 83.562,337.728 80.117,336.761 79.700 C 336.508 79.590,335.692 79.157,334.948 78.737 C 334.204 78.317,333.237 77.979,332.799 77.985 C 332.201 77.993,332.385 78.134,333.538 78.552 M365.499 83.960 C 366.130 88.723,366.196 88.998,366.085 86.416 C 366.026 85.065,365.825 83.615,365.637 83.193 C 365.353 82.556,365.330 82.686,365.499 83.960 M120.952 85.342 C 120.614 85.679,120.338 86.165,120.338 86.420 C 120.338 86.676,120.204 87.125,120.041 87.418 C 119.879 87.711,119.459 88.642,119.110 89.486 C 118.760 90.330,118.341 91.261,118.178 91.554 C 118.015 91.847,117.882 92.241,117.882 92.428 C 117.882 92.616,117.664 93.274,117.399 93.891 C 117.133 94.507,116.736 95.426,116.516 95.932 C 116.297 96.439,115.875 97.475,115.579 98.235 C 115.054 99.585,114.735 100.353,113.796 102.533 C 113.542 103.124,113.096 104.229,112.806 104.988 C 112.205 106.564,111.673 107.837,111.109 109.056 C 110.894 109.520,110.787 109.968,110.871 110.053 C 111.055 110.236,111.357 109.615,112.663 106.370 C 113.207 105.019,113.770 103.638,113.914 103.300 C 114.058 102.962,114.672 101.443,115.277 99.923 C 115.882 98.404,116.502 96.884,116.654 96.546 C 116.806 96.209,117.426 94.689,118.031 93.170 C 118.636 91.650,119.252 90.130,119.401 89.793 C 119.549 89.455,119.981 88.390,120.362 87.427 C 121.269 85.129,121.740 84.980,122.499 86.753 C 122.830 87.524,123.105 88.247,123.111 88.360 C 123.137 88.876,124.309 90.961,124.318 90.508 C 124.324 90.227,124.132 89.605,123.892 89.127 C 123.475 88.295,122.729 86.404,122.369 85.265 C 122.146 84.562,121.708 84.586,120.952 85.342 M340.901 85.649 C 342.597 91.244,338.237 97.148,331.543 98.323 C 330.967 98.425,331.052 98.469,331.883 98.500 C 334.781 98.609,339.628 94.898,341.045 91.483 C 341.639 90.053,341.672 85.821,341.094 85.280 C 340.736 84.944,340.705 85.003,340.901 85.649 M365.860 91.174 C 365.739 92.272,365.567 93.791,365.478 94.551 L 365.314 95.932 365.774 94.398 C 366.026 93.553,366.198 92.034,366.156 91.021 L 366.078 89.179 365.860 91.174 M147.977 90.462 C 147.971 90.661,148.392 91.766,148.912 92.918 C 149.432 94.069,150.054 95.447,150.293 95.979 C 150.533 96.511,150.729 97.098,150.729 97.284 C 150.729 97.469,150.867 97.621,151.036 97.621 C 151.205 97.621,151.343 97.841,151.343 98.111 C 151.343 98.380,151.529 98.967,151.757 99.415 C 151.985 99.864,152.395 100.750,152.670 101.386 C 153.295 102.835,153.976 104.390,154.550 105.679 C 155.697 108.254,156.547 110.182,157.157 111.589 C 157.524 112.433,157.946 113.400,158.097 113.738 C 159.247 116.321,159.632 117.277,159.632 117.558 C 159.632 117.736,159.770 117.882,159.939 117.882 C 160.107 117.882,160.246 118.102,160.246 118.372 C 160.246 118.641,160.432 119.228,160.659 119.676 C 160.887 120.125,161.318 121.044,161.616 121.719 C 161.915 122.394,162.350 123.314,162.584 123.762 C 162.817 124.210,163.008 124.780,163.008 125.029 C 163.008 125.278,163.216 125.653,163.469 125.863 C 163.997 126.302,164.061 126.093,163.634 125.322 C 163.309 124.735,162.203 122.244,161.013 119.417 C 160.142 117.347,159.065 114.933,157.761 112.125 C 157.270 111.069,156.869 110.141,156.869 110.061 C 156.869 109.982,156.534 109.188,156.126 108.297 C 154.465 104.677,153.492 102.483,153.492 102.359 C 153.492 102.286,153.066 101.294,152.544 100.154 C 151.170 97.148,150.846 96.431,150.014 94.551 C 148.505 91.145,147.988 90.108,147.977 90.462 M124.338 91.213 C 124.329 91.388,124.857 92.790,125.536 94.398 C 125.808 95.040,127.127 98.310,128.693 102.226 C 129.200 103.492,129.730 104.804,129.871 105.142 C 130.013 105.480,130.426 106.516,130.790 107.444 C 131.155 108.373,131.570 109.409,131.714 109.747 C 133.677 114.355,134.814 113.891,121.556 113.891 C 109.093 113.891,109.384 113.938,110.338 112.092 C 110.962 110.887,110.964 110.174,110.342 111.062 C 110.078 111.438,109.837 112.332,109.805 113.049 L 109.747 114.351 121.412 114.351 L 133.078 114.351 133.179 113.459 C 133.235 112.969,133.046 112.002,132.759 111.310 C 131.825 109.064,131.737 108.847,131.067 107.137 C 130.313 105.215,130.133 104.782,129.257 102.780 C 128.910 101.987,128.626 101.191,128.626 101.010 C 128.626 100.830,128.495 100.443,128.334 100.149 C 128.173 99.856,127.820 99.064,127.548 98.388 C 127.276 97.713,126.855 96.769,126.612 96.291 C 126.369 95.813,126.166 95.192,126.161 94.910 C 126.155 94.628,125.948 94.129,125.700 93.802 C 125.452 93.474,125.249 92.982,125.249 92.709 C 125.249 92.248,124.360 90.787,124.338 91.213 M364.756 97.113 C 364.555 97.670,364.390 98.311,364.390 98.539 C 364.390 100.817,359.644 107.442,355.948 110.325 C 354.935 111.115,353.957 111.878,353.775 112.021 C 353.594 112.164,353.145 112.376,352.778 112.493 C 352.411 112.609,352.111 112.822,352.111 112.966 C 352.111 113.110,351.698 113.319,351.193 113.430 C 350.688 113.541,350.197 113.759,350.101 113.915 C 350.004 114.070,349.644 114.198,349.299 114.198 C 348.955 114.198,348.238 114.393,347.706 114.630 C 345.875 115.449,341.191 115.733,329.511 115.733 C 320.852 115.733,317.756 115.828,317.483 116.101 C 317.206 116.378,317.114 120.378,317.114 132.214 L 317.114 147.959 305.142 148.045 L 293.169 148.131 305.219 148.125 L 317.268 148.120 317.421 132.157 L 317.575 116.193 331.082 116.002 C 344.547 115.812,345.843 115.714,349.041 114.650 C 356.088 112.304,362.559 105.552,364.850 98.151 C 365.439 96.252,365.364 95.431,364.756 97.113 M83.828 114.272 C 83.588 114.822,82.794 116.556,82.064 118.124 C 81.334 119.692,80.737 121.039,80.737 121.116 C 80.737 121.194,80.306 122.190,79.780 123.330 C 78.558 125.975,77.421 128.485,76.824 129.854 C 76.566 130.445,75.945 131.800,75.442 132.864 C 74.940 133.929,74.595 134.867,74.676 134.948 C 74.824 135.095,75.039 134.676,76.585 131.236 C 77.041 130.223,77.600 128.979,77.829 128.473 C 79.313 125.185,80.210 123.173,80.430 122.640 C 80.688 122.014,81.740 119.701,83.479 115.931 C 84.013 114.774,84.409 113.702,84.358 113.549 C 84.307 113.397,84.069 113.722,83.828 114.272 M163.940 126.802 C 163.934 127.066,164.132 127.549,164.380 127.877 C 164.957 128.640,164.964 128.096,164.390 127.091 C 164.109 126.599,163.947 126.496,163.940 126.802 M164.867 128.861 C 164.858 129.074,164.982 129.488,165.142 129.782 C 165.303 130.075,165.667 130.867,165.952 131.543 C 166.236 132.218,166.873 133.668,167.366 134.766 C 167.860 135.863,168.439 137.176,168.654 137.682 C 168.868 138.189,169.263 139.087,169.530 139.678 C 171.070 143.083,171.605 144.298,172.234 145.817 C 172.618 146.746,173.048 147.637,173.189 147.797 C 174.105 148.838,173.663 148.879,160.629 148.964 L 147.813 149.048 160.639 149.121 C 171.156 149.181,173.494 149.120,173.624 148.781 C 173.764 148.416,172.804 146.010,170.542 141.059 C 170.156 140.215,169.259 138.156,168.547 136.485 C 167.835 134.813,167.136 133.224,166.992 132.954 C 166.848 132.684,166.315 131.566,165.807 130.468 C 165.299 129.371,164.876 128.647,164.867 128.861 M102.545 130.526 C 102.200 130.896,101.919 131.324,101.919 131.477 C 101.919 131.631,101.729 132.192,101.497 132.724 C 101.265 133.256,100.634 134.797,100.094 136.147 C 99.554 137.498,98.915 138.994,98.674 139.472 C 98.432 139.950,98.235 140.526,98.235 140.752 C 98.235 140.978,98.004 141.623,97.721 142.185 C 97.438 142.748,97.024 143.575,96.800 144.023 C 96.576 144.471,96.389 145.093,96.383 145.404 C 96.378 145.716,96.171 146.239,95.923 146.567 C 95.675 146.894,95.472 147.408,95.472 147.707 C 95.472 148.798,94.507 148.886,81.755 148.960 L 69.225 149.033 81.351 149.125 C 94.746 149.227,95.347 149.187,95.629 148.186 C 95.735 147.812,96.007 147.091,96.235 146.585 C 96.463 146.078,97.090 144.559,97.629 143.208 C 98.168 141.857,98.727 140.476,98.872 140.138 C 99.016 139.800,99.632 138.281,100.240 136.761 C 101.706 133.100,102.168 132.001,102.630 131.082 L 103.017 130.315 120.860 130.235 C 131.120 130.190,139.009 130.275,139.421 130.437 C 139.988 130.659,140.512 131.672,141.924 135.274 C 142.905 137.781,144.132 140.867,144.648 142.134 C 145.165 143.400,145.757 144.850,145.963 145.357 C 146.170 145.863,146.517 146.731,146.734 147.285 C 146.950 147.840,147.200 148.221,147.288 148.133 C 147.376 148.045,147.201 147.384,146.898 146.665 C 146.596 145.945,146.153 144.873,145.914 144.282 C 145.676 143.691,145.349 142.968,145.189 142.675 C 145.028 142.382,144.896 141.988,144.896 141.800 C 144.896 141.613,144.679 140.954,144.413 140.338 C 144.147 139.722,143.750 138.803,143.531 138.296 C 143.311 137.790,142.894 136.754,142.604 135.994 C 142.314 135.234,141.900 134.198,141.683 133.691 C 141.467 133.185,141.050 132.195,140.756 131.493 C 140.036 129.768,141.185 129.863,121.040 129.858 L 103.171 129.854 102.545 130.526 M74.067 136.042 C 73.870 136.438,73.410 137.452,73.044 138.296 C 72.678 139.140,72.049 140.556,71.646 141.443 C 71.243 142.329,70.554 143.849,70.115 144.820 C 69.676 145.790,69.124 146.986,68.887 147.476 C 68.378 148.531,68.347 148.887,68.764 148.887 C 68.933 148.887,69.049 148.784,69.023 148.657 C 68.969 148.404,69.218 147.690,69.850 146.278 C 70.077 145.771,70.696 144.390,71.225 143.208 C 71.754 142.026,72.384 140.692,72.625 140.244 C 72.865 139.796,73.062 139.209,73.062 138.940 C 73.062 138.670,73.200 138.450,73.369 138.450 C 73.538 138.450,73.676 138.204,73.676 137.904 C 73.676 137.604,73.894 137.048,74.160 136.668 C 74.425 136.289,74.594 135.831,74.534 135.650 C 74.474 135.470,74.264 135.646,74.067 136.042 " stroke="none" fill="#949ca4" fill-rule="evenodd"></path><path id="path3" d="M179.598 61.987 C 179.095 62.928,179.157 147.070,179.662 147.758 C 180.211 148.507,203.860 148.411,204.065 147.659 C 204.159 147.315,204.122 147.296,203.917 147.586 C 203.703 147.889,201.068 147.956,191.845 147.893 L 180.046 147.813 180.046 104.835 L 180.046 61.857 191.845 61.777 C 201.068 61.714,203.703 61.781,203.917 62.084 C 204.122 62.374,204.159 62.355,204.065 62.011 C 203.843 61.196,180.034 61.172,179.598 61.987 M254.633 61.721 C 254.520 61.903,254.511 62.134,254.612 62.236 C 254.714 62.337,254.797 62.259,254.797 62.062 C 254.797 61.644,278.011 61.542,278.666 61.957 C 278.972 62.152,279.035 70.966,278.973 105.007 L 278.895 147.813 266.869 147.893 C 256.292 147.964,254.825 147.917,254.698 147.503 C 254.594 147.169,254.566 147.190,254.602 147.576 C 254.648 148.086,255.408 148.120,266.927 148.120 L 279.202 148.120 279.202 104.835 L 279.202 61.550 267.020 61.470 C 258.561 61.414,254.775 61.491,254.633 61.721 M135.699 62.011 C 135.703 62.264,135.909 62.739,136.157 63.067 C 136.737 63.833,136.733 63.549,136.149 62.430 C 135.897 61.946,135.694 61.757,135.699 62.011 M8.782 62.496 C 8.510 63.205,8.553 147.904,8.826 148.072 C 8.952 148.151,9.056 128.922,9.056 105.343 L 9.056 62.471 20.721 62.312 L 32.387 62.153 20.678 62.082 C 10.241 62.018,8.948 62.064,8.782 62.496 M59.862 62.480 C 63.213 62.991,63.773 62.983,61.857 62.450 C 61.013 62.215,59.632 62.036,58.787 62.052 C 57.427 62.078,57.548 62.127,59.862 62.480 M106.548 62.578 C 106.366 62.919,106.217 63.380,106.218 63.602 C 106.219 63.824,106.429 63.606,106.684 63.116 C 106.940 62.627,107.088 62.166,107.014 62.092 C 106.940 62.019,106.731 62.237,106.548 62.578 M292.662 62.484 C 292.562 62.745,292.566 63.044,292.671 63.150 C 292.776 63.255,292.863 63.112,292.863 62.833 C 292.863 62.371,293.907 62.318,304.451 62.241 L 316.040 62.157 304.442 62.084 C 294.227 62.019,292.822 62.067,292.662 62.484 M343.668 62.485 C 346.847 63.003,347.754 62.989,345.817 62.450 C 344.973 62.215,343.592 62.036,342.748 62.053 C 341.316 62.082,341.378 62.111,343.668 62.485 M204.144 62.815 C 204.144 62.977,204.569 63.587,205.087 64.171 L 206.030 65.234 205.177 64.006 C 204.707 63.331,204.282 62.721,204.233 62.650 C 204.184 62.580,204.144 62.654,204.144 62.815 M254.207 62.898 C 254.194 63.132,253.397 64.237,252.436 65.354 C 249.912 68.286,249.774 68.457,249.937 68.457 C 250.330 68.457,254.517 63.177,254.384 62.849 C 254.275 62.580,254.224 62.594,254.207 62.898 M64.425 63.404 C 65.776 63.991,66.407 63.980,65.276 63.390 C 64.792 63.138,64.170 62.937,63.894 62.944 C 63.618 62.950,63.857 63.158,64.425 63.404 M348.385 63.404 C 348.953 63.651,349.575 63.847,349.767 63.841 C 349.958 63.834,349.650 63.627,349.082 63.380 C 348.514 63.134,347.892 62.937,347.701 62.944 C 347.509 62.950,347.817 63.158,348.385 63.404 M352.658 65.312 C 357.431 68.047,361.137 71.997,363.511 76.883 C 364.163 78.225,364.697 79.108,364.697 78.845 C 364.697 77.981,362.403 73.934,360.706 71.803 C 358.133 68.573,352.059 63.848,350.488 63.854 C 350.283 63.855,351.259 64.511,352.658 65.312 M105.627 64.727 C 105.445 65.068,105.296 65.529,105.297 65.751 C 105.298 65.973,105.508 65.755,105.763 65.265 C 106.019 64.776,106.167 64.315,106.093 64.241 C 106.020 64.167,105.810 64.386,105.627 64.727 M70.606 66.271 C 72.620 67.541,76.443 71.392,77.839 73.557 C 79.743 76.510,79.855 76.659,79.321 75.518 C 77.749 72.163,71.138 65.357,69.487 65.393 C 69.343 65.397,69.847 65.791,70.606 66.271 M206.153 65.623 C 206.329 65.747,207.476 67.057,208.701 68.534 C 209.926 70.012,211.012 71.220,211.114 71.220 C 211.278 71.220,210.806 70.600,209.809 69.505 C 209.631 69.310,208.803 68.305,207.967 67.270 C 207.131 66.236,206.309 65.391,206.140 65.393 C 205.947 65.396,205.952 65.481,206.153 65.623 M137.540 66.173 C 137.559 66.688,138.428 68.020,138.429 67.536 C 138.430 67.283,138.227 66.808,137.979 66.480 C 137.732 66.152,137.534 66.014,137.540 66.173 M104.382 67.594 C 103.703 68.999,103.611 69.351,104.039 68.903 C 104.373 68.553,105.320 66.309,105.133 66.309 C 105.062 66.309,104.723 66.887,104.382 67.594 M138.450 68.210 C 138.450 68.308,138.656 68.783,138.908 69.267 C 139.161 69.750,139.363 69.939,139.359 69.685 C 139.355 69.432,139.148 68.957,138.900 68.629 C 138.653 68.301,138.450 68.113,138.450 68.210 M248.867 69.489 C 248.606 69.887,248.210 70.406,247.987 70.642 C 247.494 71.165,244.730 74.516,244.092 75.365 C 243.134 76.640,245.524 74.029,247.675 71.450 C 248.907 69.973,249.786 68.764,249.629 68.764 C 249.471 68.764,249.128 69.090,248.867 69.489 M103.354 69.847 C 103.240 70.180,103.063 70.660,102.961 70.913 C 102.859 71.167,103.008 71.059,103.291 70.675 C 103.575 70.291,103.751 69.811,103.684 69.609 C 103.615 69.402,103.470 69.507,103.354 69.847 M139.371 70.359 C 139.371 70.456,139.577 70.932,139.829 71.415 C 140.081 71.899,140.284 72.087,140.280 71.834 C 140.276 71.581,140.069 71.106,139.821 70.778 C 139.574 70.450,139.371 70.262,139.371 70.359 M102.291 72.151 C 102.086 72.479,101.924 72.921,101.931 73.135 C 101.938 73.348,102.156 73.131,102.415 72.651 C 102.955 71.656,102.854 71.250,102.291 72.151 M213.586 74.405 C 214.894 75.977,218.381 80.129,221.335 83.631 C 224.290 87.134,227.018 90.433,227.398 90.962 C 227.778 91.491,228.089 91.760,228.089 91.560 C 228.089 91.360,227.697 90.742,227.218 90.187 C 226.739 89.633,226.014 88.775,225.607 88.282 C 225.199 87.789,224.658 87.161,224.405 86.888 C 224.152 86.615,223.395 85.706,222.723 84.868 C 222.051 84.031,221.361 83.194,221.188 83.008 C 221.016 82.822,220.322 81.996,219.647 81.173 C 218.506 79.783,216.469 77.406,216.117 77.053 C 216.032 76.969,215.413 76.209,214.740 75.365 C 214.068 74.520,213.204 73.486,212.822 73.065 C 212.439 72.645,212.126 72.211,212.126 72.100 C 212.126 71.990,211.920 71.821,211.668 71.724 C 211.416 71.627,212.279 72.834,213.586 74.405 M141.402 74.981 C 142.000 76.374,142.688 77.984,142.930 78.558 C 143.172 79.133,143.446 79.526,143.540 79.432 C 143.634 79.338,143.568 79.006,143.394 78.695 C 143.097 78.165,142.535 76.911,141.180 73.753 C 140.872 73.035,140.552 72.448,140.468 72.448 C 140.384 72.448,140.804 73.588,141.402 74.981 M101.370 74.300 C 101.165 74.628,100.999 75.070,101.000 75.284 C 101.001 75.497,101.210 75.271,101.466 74.782 C 101.998 73.762,101.927 73.407,101.370 74.300 M100.409 76.393 C 100.226 76.734,100.078 77.194,100.079 77.417 C 100.080 77.639,100.289 77.420,100.545 76.931 C 100.800 76.441,100.948 75.980,100.875 75.907 C 100.801 75.833,100.591 76.051,100.409 76.393 M241.765 78.015 C 240.929 79.049,240.100 80.055,239.923 80.249 C 238.942 81.325,238.451 81.965,238.605 81.965 C 238.751 81.965,240.455 80.042,243.161 76.823 C 243.480 76.443,243.638 76.133,243.513 76.133 C 243.387 76.134,242.601 76.981,241.765 78.015 M79.838 76.899 C 79.838 77.068,80.035 77.552,80.276 77.974 C 80.518 78.396,80.715 78.603,80.715 78.434 C 80.715 78.266,80.518 77.782,80.276 77.360 C 80.035 76.938,79.838 76.731,79.838 76.899 M34.522 78.360 C 34.440 78.573,34.412 83.166,34.459 88.568 L 34.545 98.388 34.617 88.340 L 34.689 78.292 41.673 78.204 L 48.657 78.115 41.663 78.045 C 36.273 77.990,34.636 78.063,34.522 78.360 M318.482 78.360 C 318.400 78.573,318.370 83.166,318.415 88.568 L 318.496 98.388 324.635 98.398 L 330.775 98.407 324.712 98.315 L 318.649 98.222 318.649 88.257 L 318.649 78.293 325.480 78.204 L 332.310 78.115 325.470 78.044 C 320.203 77.990,318.596 78.063,318.482 78.360 M48.810 78.411 C 48.810 78.482,49.328 78.710,49.962 78.918 C 50.595 79.126,51.665 79.643,52.341 80.067 C 53.016 80.491,53.399 80.632,53.191 80.380 C 52.539 79.588,48.810 77.912,48.810 78.411 M332.924 78.588 C 333.028 78.757,333.280 78.895,333.484 78.895 C 333.687 78.895,334.385 79.179,335.034 79.527 C 335.682 79.875,336.276 80.096,336.353 80.019 C 336.487 79.885,333.322 78.281,332.925 78.281 C 332.820 78.281,332.820 78.419,332.924 78.588 M364.870 80.123 C 365.394 82.355,365.554 82.774,365.573 81.965 C 365.582 81.543,365.388 80.783,365.140 80.276 C 364.757 79.493,364.717 79.470,364.870 80.123 M98.607 80.440 C 98.402 80.767,98.236 81.210,98.237 81.423 C 98.238 81.637,98.447 81.411,98.703 80.921 C 99.235 79.901,99.164 79.547,98.607 80.440 M143.680 80.123 C 143.684 80.376,143.891 80.851,144.139 81.179 C 144.718 81.945,144.715 81.661,144.131 80.542 C 143.879 80.058,143.676 79.870,143.680 80.123 M81.065 80.335 C 81.135 81.132,81.615 81.808,81.636 81.139 C 81.648 80.769,81.520 80.381,81.351 80.276 C 81.182 80.172,81.053 80.198,81.065 80.335 M336.761 80.423 C 336.761 80.595,336.878 80.737,337.021 80.737 C 337.443 80.737,338.432 81.715,339.473 83.162 C 340.008 83.905,340.445 84.407,340.445 84.278 C 340.445 84.148,339.961 83.383,339.370 82.578 C 338.286 81.101,336.761 79.842,336.761 80.423 M54.490 81.634 C 54.827 82.066,55.176 82.490,55.264 82.576 C 55.822 83.118,56.447 84.498,56.796 85.955 C 57.018 86.884,57.253 87.483,57.319 87.287 C 57.627 86.372,56.399 83.467,55.161 82.183 C 54.454 81.449,54.152 81.202,54.490 81.634 M97.646 82.532 C 97.463 82.873,97.315 83.334,97.316 83.556 C 97.317 83.778,97.527 83.560,97.782 83.070 C 98.037 82.581,98.185 82.120,98.112 82.046 C 98.038 81.972,97.828 82.191,97.646 82.532 M144.600 82.136 C 144.620 82.651,145.489 83.983,145.490 83.500 C 145.490 83.246,145.288 82.771,145.040 82.443 C 144.792 82.116,144.594 81.977,144.600 82.136 M81.847 83.039 C 81.968 83.546,82.162 84.651,82.279 85.495 L 82.492 87.030 82.535 85.607 C 82.559 84.824,82.365 83.719,82.103 83.151 C 81.638 82.142,81.632 82.140,81.847 83.039 M237.527 83.094 C 237.148 83.546,236.361 84.479,235.777 85.166 C 233.983 87.279,233.674 87.706,234.273 87.244 C 234.921 86.745,238.626 82.272,238.392 82.272 C 238.295 82.272,237.906 82.642,237.527 83.094 M365.842 83.816 C 366.152 85.215,366.147 93.175,365.835 94.551 C 365.620 95.496,365.639 95.552,365.988 95.012 C 366.547 94.147,366.554 83.699,365.996 83.141 C 365.681 82.826,365.652 82.956,365.842 83.816 M96.224 85.879 C 95.798 86.850,95.316 87.884,95.153 88.177 C 94.714 88.969,94.796 89.255,95.262 88.556 C 95.791 87.762,97.340 84.114,97.147 84.114 C 97.066 84.114,96.650 84.908,96.224 85.879 M145.534 84.276 C 145.584 84.906,147.306 88.231,147.329 87.739 C 147.342 87.453,147.229 87.144,147.079 87.051 C 146.929 86.958,146.713 86.512,146.600 86.060 C 146.392 85.231,145.490 83.722,145.534 84.276 M340.642 85.649 C 340.927 87.005,340.932 89.168,340.653 90.560 L 340.437 91.635 340.878 90.560 C 341.462 89.139,341.465 87.313,340.887 85.802 C 340.428 84.603,340.422 84.600,340.642 85.649 M121.364 85.592 C 120.997 85.829,119.718 88.613,119.734 89.141 C 119.748 89.595,120.928 87.147,120.941 86.636 C 120.947 86.420,121.252 86.132,121.618 85.996 C 121.985 85.861,122.151 85.667,121.987 85.566 C 121.824 85.465,121.543 85.477,121.364 85.592 M122.202 86.569 C 122.201 87.012,123.067 88.769,123.090 88.370 C 123.096 88.263,122.899 87.710,122.652 87.142 C 122.405 86.574,122.203 86.316,122.202 86.569 M147.352 88.518 C 147.352 88.576,147.539 89.025,147.767 89.515 C 147.995 90.006,148.406 90.890,148.681 91.481 C 149.488 93.218,149.266 92.027,148.431 90.138 C 147.792 88.695,147.352 88.033,147.352 88.518 M232.080 89.639 C 231.545 90.315,231.176 90.867,231.261 90.867 C 231.345 90.867,231.852 90.315,232.387 89.639 C 232.922 88.964,233.290 88.411,233.206 88.411 C 233.121 88.411,232.615 88.964,232.080 89.639 M56.820 90.265 C 56.152 92.879,55.363 93.946,52.459 96.163 C 52.072 96.458,51.858 96.700,51.984 96.700 C 53.753 96.700,57.726 91.065,57.346 89.094 C 57.292 88.816,57.056 89.342,56.820 90.265 M123.102 89.043 C 123.101 89.307,123.303 89.790,123.551 90.118 C 124.138 90.893,124.143 90.557,123.563 89.444 C 123.311 88.961,123.103 88.780,123.102 89.043 M94.294 90.113 C 93.780 91.242,93.878 91.483,94.434 90.456 C 94.694 89.977,94.849 89.528,94.778 89.457 C 94.708 89.387,94.490 89.682,94.294 90.113 M118.572 91.865 C 118.242 92.767,118.251 92.805,118.659 92.267 C 119.049 91.751,119.279 90.867,119.024 90.867 C 118.976 90.867,118.773 91.316,118.572 91.865 M124.044 91.174 C 124.043 91.617,124.909 93.374,124.932 92.975 C 124.938 92.867,124.741 92.315,124.494 91.747 C 124.247 91.179,124.045 90.921,124.044 91.174 M82.221 93.016 C 82.108 93.945,81.928 95.050,81.820 95.472 C 81.700 95.940,81.816 95.824,82.115 95.173 C 82.402 94.551,82.569 93.528,82.516 92.717 L 82.425 91.328 82.221 93.016 M93.388 92.105 C 93.184 92.433,93.022 92.875,93.028 93.089 C 93.035 93.302,93.253 93.084,93.513 92.605 C 94.052 91.610,93.951 91.204,93.388 92.105 M339.762 92.642 C 338.676 94.467,337.229 95.692,334.451 97.141 C 333.949 97.403,333.733 97.618,333.972 97.619 C 335.528 97.626,341.111 92.659,340.374 91.922 C 340.311 91.859,340.036 92.183,339.762 92.642 M149.699 93.860 C 150.129 94.907,150.729 95.826,150.729 95.438 C 150.729 95.165,149.493 92.709,149.356 92.709 C 149.284 92.709,149.438 93.227,149.699 93.860 M117.817 93.485 C 117.722 93.818,117.551 94.367,117.437 94.705 C 117.322 95.042,117.454 94.930,117.728 94.456 C 118.003 93.981,118.174 93.432,118.109 93.236 C 118.043 93.039,117.912 93.151,117.817 93.485 M124.954 93.630 C 124.958 93.883,125.165 94.359,125.413 94.686 C 125.992 95.453,125.989 95.168,125.405 94.049 C 125.153 93.565,124.950 93.377,124.954 93.630 M92.221 94.734 C 91.948 95.393,91.393 96.637,90.989 97.497 C 90.584 98.358,90.255 99.186,90.258 99.339 C 90.260 99.491,90.532 99.064,90.862 98.388 C 92.364 95.315,93.001 93.819,92.865 93.683 C 92.784 93.602,92.494 94.075,92.221 94.734 M116.734 96.304 C 116.525 96.750,116.410 97.172,116.479 97.241 C 116.663 97.426,117.324 96.100,117.211 95.772 C 117.158 95.618,116.943 95.857,116.734 96.304 M126.042 96.239 C 126.713 98.394,127.717 100.556,127.680 99.770 C 127.668 99.517,127.251 98.480,126.754 97.467 C 126.257 96.454,125.936 95.902,126.042 96.239 M150.731 96.104 C 150.730 96.367,150.932 96.851,151.180 97.178 C 151.766 97.954,151.772 97.618,151.191 96.505 C 150.939 96.021,150.732 95.841,150.731 96.104 M365.251 96.546 C 365.147 97.053,364.978 97.813,364.876 98.235 C 364.750 98.757,364.844 98.671,365.170 97.967 C 365.435 97.397,365.603 96.637,365.546 96.278 C 365.461 95.749,365.405 95.800,365.251 96.546 M81.067 97.856 C 80.831 98.573,80.729 99.250,80.841 99.362 C 80.952 99.474,81.044 99.293,81.044 98.961 C 81.044 98.629,81.195 98.207,81.380 98.022 C 81.564 97.837,81.666 97.431,81.606 97.120 C 81.535 96.748,81.349 97.002,81.067 97.856 M47.889 97.928 L 47.122 98.174 47.889 98.183 C 48.312 98.188,48.933 98.073,49.271 97.928 L 49.885 97.664 49.271 97.673 C 48.933 97.678,48.312 97.793,47.889 97.928 M115.975 98.089 C 115.880 98.423,115.709 98.972,115.595 99.309 C 115.480 99.647,115.612 99.535,115.886 99.061 C 116.161 98.586,116.332 98.037,116.267 97.841 C 116.201 97.644,116.070 97.756,115.975 98.089 M331.850 97.928 L 331.082 98.174 331.850 98.200 C 332.272 98.214,332.824 98.092,333.078 97.928 C 333.664 97.549,333.033 97.549,331.850 97.928 M151.662 98.235 C 151.666 98.488,151.872 98.963,152.120 99.291 C 152.700 100.057,152.696 99.773,152.112 98.654 C 151.860 98.170,151.657 97.982,151.662 98.235 M204.144 98.406 C 204.144 98.670,204.271 98.807,204.427 98.711 C 204.767 98.500,205.106 98.827,207.076 101.264 C 207.912 102.298,208.734 103.143,208.903 103.141 C 209.107 103.138,209.107 103.062,208.903 102.912 C 208.734 102.788,208.092 102.064,207.476 101.305 C 204.877 98.099,204.144 97.462,204.144 98.406 M250.139 102.610 C 247.999 105.184,245.996 107.569,245.688 107.908 C 245.379 108.247,244.579 109.214,243.909 110.057 C 243.239 110.899,242.618 111.660,242.528 111.747 C 241.712 112.535,240.591 113.947,240.855 113.855 C 241.172 113.743,244.036 110.484,245.544 108.519 C 245.933 108.012,246.691 107.114,247.229 106.523 C 247.767 105.932,248.757 104.762,249.429 103.923 C 250.890 102.100,251.553 101.311,252.878 99.819 C 253.426 99.201,253.877 98.557,253.880 98.388 C 253.883 98.219,254.019 98.289,254.183 98.542 C 254.437 98.935,254.481 98.924,254.485 98.465 C 254.494 97.480,254.054 97.900,250.139 102.610 M38.006 98.464 C 39.745 98.519,42.508 98.519,44.145 98.464 C 45.782 98.408,44.359 98.364,40.982 98.364 C 37.606 98.364,36.266 98.409,38.006 98.464 M363.625 101.255 C 362.565 103.593,360.697 106.264,358.445 108.662 C 357.578 109.585,357.207 110.069,357.621 109.737 C 360.267 107.612,364.936 100.854,364.631 99.590 C 364.583 99.392,364.130 100.141,363.625 101.255 M89.664 100.337 C 89.482 100.678,89.333 101.139,89.334 101.361 C 89.335 101.583,89.545 101.365,89.800 100.875 C 90.055 100.386,90.204 99.925,90.130 99.851 C 90.056 99.778,89.847 99.996,89.664 100.337 M114.862 100.857 C 114.347 101.986,114.446 102.227,115.002 101.201 C 115.261 100.722,115.417 100.272,115.346 100.202 C 115.276 100.132,115.058 100.427,114.862 100.857 M128.329 101.872 C 128.324 102.100,128.507 102.722,128.737 103.254 C 128.966 103.786,129.317 104.619,129.516 105.105 C 129.714 105.591,129.951 105.915,130.040 105.826 C 130.130 105.736,130.068 105.407,129.903 105.095 C 129.737 104.783,129.317 103.837,128.970 102.993 C 128.623 102.149,128.335 101.645,128.329 101.872 M88.419 103.204 C 87.740 104.609,87.648 104.961,88.076 104.513 C 88.410 104.163,89.357 101.919,89.170 101.919 C 89.098 101.919,88.760 102.497,88.419 103.204 M113.968 103.064 C 113.422 104.230,113.495 104.707,114.055 103.632 C 114.312 103.140,114.484 102.626,114.437 102.491 C 114.390 102.356,114.179 102.614,113.968 103.064 M153.503 102.397 C 153.522 102.912,154.391 104.244,154.392 103.761 C 154.393 103.507,154.191 103.032,153.943 102.704 C 153.695 102.376,153.497 102.238,153.503 102.397 M78.662 103.566 C 78.479 103.968,77.410 105.453,76.286 106.868 C 74.907 108.602,74.702 108.943,75.657 107.913 C 77.299 106.142,79.375 103.217,79.149 102.992 C 79.064 102.907,78.845 103.165,78.662 103.566 M210.170 104.912 C 211.564 106.624,212.278 107.471,213.431 108.785 C 213.896 109.314,214.587 110.194,214.966 110.740 C 215.346 111.286,215.848 111.807,216.083 111.898 C 216.318 111.989,215.897 111.335,215.148 110.444 C 210.359 104.751,209.240 103.454,209.118 103.454 C 209.043 103.454,209.517 104.110,210.170 104.912 M154.413 104.464 C 154.413 104.588,154.545 104.930,154.706 105.223 C 155.047 105.841,156.869 109.898,156.869 110.037 C 156.869 110.460,158.471 113.619,158.614 113.476 C 158.715 113.375,158.664 113.116,158.501 112.901 C 158.337 112.686,157.532 110.921,156.712 108.979 C 155.338 105.726,154.413 103.909,154.413 104.464 M87.391 105.457 C 87.276 105.790,87.100 106.270,86.998 106.523 C 86.896 106.777,87.045 106.670,87.328 106.285 C 87.611 105.901,87.788 105.421,87.721 105.219 C 87.652 105.012,87.507 105.117,87.391 105.457 M112.279 107.223 C 111.541 109.013,111.613 109.447,112.371 107.776 C 112.710 107.030,112.948 106.307,112.902 106.170 C 112.855 106.033,112.575 106.506,112.279 107.223 M130.171 106.436 C 130.166 106.642,130.354 107.263,130.589 107.818 C 130.825 108.372,131.175 109.224,131.368 109.710 C 131.561 110.196,131.793 110.520,131.882 110.430 C 131.972 110.340,131.910 110.012,131.744 109.700 C 131.579 109.388,131.159 108.442,130.812 107.598 C 130.465 106.754,130.177 106.231,130.171 106.436 M86.470 107.606 C 86.355 107.939,86.179 108.419,86.077 108.672 C 85.975 108.926,86.124 108.818,86.407 108.434 C 86.690 108.050,86.867 107.570,86.800 107.368 C 86.731 107.161,86.586 107.266,86.470 107.606 M72.587 110.573 L 71.374 111.860 72.498 110.957 C 73.436 110.204,74.196 109.286,73.882 109.286 C 73.837 109.286,73.255 109.865,72.587 110.573 M85.407 109.910 C 85.202 110.238,85.040 110.680,85.047 110.894 C 85.054 111.107,85.272 110.890,85.531 110.410 C 86.071 109.415,85.970 109.009,85.407 109.910 M111.173 109.937 C 111.016 110.339,110.650 111.243,110.360 111.946 C 110.069 112.649,109.924 113.374,110.037 113.557 C 110.275 113.943,132.924 114.045,132.924 113.661 C 132.924 113.534,127.813 113.468,121.566 113.515 C 114.218 113.569,110.207 113.491,110.207 113.295 C 110.207 112.995,110.930 111.201,111.494 110.101 C 111.654 109.789,111.711 109.460,111.621 109.370 C 111.532 109.280,111.330 109.536,111.173 109.937 M356.364 110.424 C 356.304 110.564,355.856 110.987,355.369 111.364 C 354.882 111.741,354.606 112.044,354.755 112.038 C 355.204 112.020,356.859 110.556,356.659 110.355 C 356.556 110.253,356.423 110.284,356.364 110.424 M132.026 111.128 C 132.025 111.571,132.891 113.328,132.913 112.929 C 132.919 112.821,132.722 112.269,132.476 111.701 C 132.229 111.133,132.027 110.875,132.026 111.128 M84.333 112.422 C 83.184 114.865,82.272 117.063,82.368 117.160 C 82.426 117.217,82.860 116.402,83.334 115.347 C 83.807 114.293,84.384 113.028,84.616 112.537 C 84.848 112.045,84.986 111.591,84.923 111.528 C 84.860 111.465,84.594 111.867,84.333 112.422 M68.460 113.157 C 67.195 113.899,66.330 114.505,66.536 114.505 C 66.838 114.505,70.703 112.310,71.195 111.859 C 71.684 111.411,70.402 112.020,68.460 113.157 M353.778 112.337 C 353.621 112.489,352.667 113.040,351.659 113.560 C 350.650 114.080,349.991 114.505,350.193 114.505 C 350.898 114.505,354.470 112.464,354.213 112.208 C 354.132 112.126,353.936 112.184,353.778 112.337 M218.732 115.119 C 220.037 116.723,221.537 118.520,222.065 119.112 C 222.592 119.705,223.576 120.879,224.251 121.722 C 226.391 124.393,229.903 128.269,228.977 126.938 C 228.742 126.600,228.472 126.255,228.377 126.170 C 228.283 126.086,226.704 124.221,224.870 122.026 C 223.035 119.831,221.455 117.966,221.358 117.882 C 221.261 117.797,220.633 117.038,219.963 116.193 C 219.292 115.349,218.207 114.106,217.551 113.431 C 216.895 112.755,217.426 113.515,218.732 115.119 M239.110 115.810 C 235.450 120.097,233.324 122.768,233.681 122.630 C 233.898 122.546,234.386 122.030,234.765 121.484 C 235.144 120.938,235.835 120.058,236.300 119.529 C 238.465 117.064,240.786 114.198,240.617 114.198 C 240.545 114.198,239.866 114.923,239.110 115.810 M64.160 114.965 C 63.673 115.244,63.566 115.408,63.868 115.415 C 64.130 115.421,64.475 115.301,64.635 115.149 C 64.796 114.996,65.203 114.805,65.541 114.724 L 66.155 114.576 65.541 114.551 C 65.203 114.538,64.582 114.724,64.160 114.965 M347.966 114.977 C 346.727 115.544,347.468 115.545,348.775 114.977 C 349.343 114.731,349.601 114.535,349.348 114.542 C 349.094 114.549,348.473 114.745,347.966 114.977 M60.169 115.749 C 59.409 115.884,53.235 116.005,46.449 116.017 C 39.664 116.030,34.047 116.144,33.969 116.270 C 33.747 116.628,60.769 116.187,62.011 115.813 C 63.351 115.409,62.288 115.372,60.169 115.749 M344.922 115.656 C 344.796 115.783,338.591 115.955,331.134 116.040 L 317.575 116.193 317.421 132.204 C 317.337 141.010,317.371 148.151,317.498 148.072 C 317.625 147.994,317.728 140.824,317.728 132.138 L 317.728 116.347 330.545 116.333 C 340.170 116.323,343.820 116.217,345.203 115.904 C 346.538 115.603,346.785 115.480,346.099 115.457 C 345.578 115.440,345.049 115.530,344.922 115.656 M160.614 118.503 C 160.966 119.351,161.307 119.992,161.372 119.928 C 161.516 119.784,160.325 116.961,160.120 116.961 C 160.039 116.961,160.261 117.655,160.614 118.503 M81.683 118.142 C 81.500 118.483,81.352 118.944,81.353 119.166 C 81.354 119.388,81.563 119.170,81.819 118.680 C 82.074 118.191,82.222 117.730,82.149 117.656 C 82.075 117.583,81.865 117.801,81.683 118.142 M80.261 121.489 C 79.834 122.460,79.353 123.494,79.190 123.787 C 78.818 124.459,78.807 124.851,79.171 124.467 C 79.521 124.097,81.373 119.724,81.179 119.724 C 81.100 119.724,80.687 120.518,80.261 121.489 M161.484 120.509 C 161.504 121.024,162.373 122.356,162.374 121.873 C 162.374 121.619,162.172 121.144,161.924 120.816 C 161.676 120.488,161.478 120.350,161.484 120.509 M162.394 122.546 C 162.394 122.644,162.601 123.119,162.853 123.603 C 163.105 124.086,163.308 124.275,163.304 124.021 C 163.299 123.768,163.093 123.293,162.845 122.965 C 162.597 122.637,162.394 122.449,162.394 122.546 M231.924 124.405 C 231.278 125.123,230.465 126.028,230.117 126.418 C 229.728 126.853,229.659 127.050,229.938 126.929 C 230.354 126.749,233.475 123.101,233.214 123.101 C 233.151 123.101,232.571 123.688,231.924 124.405 M163.325 124.677 C 163.320 124.784,163.522 125.268,163.774 125.752 C 164.026 126.235,164.233 126.416,164.234 126.152 C 164.236 125.702,163.346 124.258,163.325 124.677 M78.488 125.411 C 78.374 125.744,78.197 126.224,78.095 126.477 C 77.994 126.731,78.142 126.623,78.425 126.239 C 78.709 125.855,78.886 125.375,78.818 125.173 C 78.749 124.966,78.604 125.071,78.488 125.411 M164.744 127.936 C 165.262 129.185,166.540 132.047,167.076 133.154 C 167.259 133.533,167.465 133.789,167.533 133.721 C 167.600 133.653,167.524 133.343,167.364 133.031 C 166.955 132.235,165.924 129.966,165.188 128.243 C 164.845 127.441,164.498 126.784,164.416 126.784 C 164.335 126.784,164.482 127.302,164.744 127.936 M77.425 127.715 C 77.220 128.043,77.058 128.485,77.065 128.699 C 77.072 128.912,77.290 128.695,77.550 128.215 C 78.089 127.220,77.988 126.814,77.425 127.715 M76.464 129.808 C 76.281 130.149,76.133 130.610,76.134 130.832 C 76.135 131.054,76.345 130.835,76.600 130.346 C 76.855 129.856,77.004 129.396,76.930 129.322 C 76.856 129.248,76.646 129.467,76.464 129.808 M102.652 130.938 C 102.372 131.366,102.226 131.799,102.329 131.902 C 102.432 132.004,102.654 131.725,102.822 131.281 L 103.130 130.473 121.173 130.391 L 139.217 130.310 121.189 130.235 L 103.161 130.161 102.652 130.938 M140.144 131.604 C 140.604 132.705,140.906 133.202,140.906 132.859 C 140.906 132.528,139.973 130.468,139.823 130.468 C 139.738 130.468,139.883 130.979,140.144 131.604 M75.543 131.957 C 75.360 132.298,75.212 132.758,75.213 132.981 C 75.214 133.203,75.424 132.984,75.679 132.495 C 75.934 132.005,76.083 131.544,76.009 131.471 C 75.935 131.397,75.725 131.616,75.543 131.957 M101.692 133.142 C 101.482 133.588,101.368 134.010,101.437 134.079 C 101.621 134.264,102.282 132.938,102.169 132.610 C 102.116 132.456,101.901 132.695,101.692 133.142 M140.926 133.538 C 140.926 133.791,141.128 134.267,141.376 134.594 C 141.949 135.353,141.943 134.854,141.366 133.845 C 141.112 133.400,140.927 133.271,140.926 133.538 M74.658 133.906 C 74.456 134.109,74.286 134.489,74.280 134.751 C 74.275 135.012,74.068 135.495,73.820 135.822 C 73.572 136.150,73.371 136.634,73.373 136.897 C 73.376 137.160,73.669 136.754,74.026 135.994 C 74.383 135.234,74.796 134.371,74.945 134.075 C 75.262 133.446,75.172 133.393,74.658 133.906 M100.933 134.927 C 100.838 135.261,100.667 135.810,100.553 136.147 C 100.438 136.485,100.569 136.373,100.844 135.899 C 101.119 135.424,101.290 134.875,101.224 134.679 C 101.159 134.482,101.028 134.594,100.933 134.927 M141.849 135.687 C 141.848 136.129,142.714 137.887,142.737 137.487 C 142.743 137.380,142.546 136.827,142.299 136.259 C 142.052 135.691,141.850 135.434,141.849 135.687 M168.558 136.463 C 168.607 137.094,170.330 140.418,170.353 139.926 C 170.365 139.641,170.253 139.331,170.103 139.238 C 169.953 139.145,169.737 138.700,169.624 138.247 C 169.416 137.418,168.514 135.909,168.558 136.463 M99.835 137.662 C 99.321 138.790,99.369 139.027,99.946 138.203 C 100.212 137.824,100.380 137.363,100.318 137.179 C 100.257 136.995,100.040 137.213,99.835 137.662 M72.780 138.096 C 72.598 138.437,72.449 138.898,72.450 139.120 C 72.451 139.342,72.661 139.124,72.916 138.634 C 73.171 138.145,73.320 137.684,73.246 137.610 C 73.172 137.537,72.963 137.755,72.780 138.096 M142.758 138.031 C 142.752 138.223,142.954 138.775,143.206 139.259 C 143.458 139.742,143.661 139.931,143.656 139.678 C 143.645 139.127,142.774 137.529,142.758 138.031 M98.926 139.902 C 98.379 141.068,98.452 141.545,99.013 140.470 C 99.270 139.978,99.441 139.464,99.394 139.329 C 99.348 139.194,99.137 139.452,98.926 139.902 M71.534 140.963 C 70.856 142.368,70.764 142.720,71.192 142.272 C 71.526 141.922,72.473 139.678,72.286 139.678 C 72.214 139.678,71.876 140.256,71.534 140.963 M170.385 140.767 C 170.380 140.945,170.490 141.221,170.630 141.381 C 170.770 141.542,171.343 142.747,171.903 144.059 C 172.463 145.371,172.970 146.396,173.030 146.336 C 173.149 146.216,171.359 142.047,170.764 141.059 C 170.561 140.721,170.391 140.590,170.385 140.767 M97.993 142.267 C 97.479 143.395,97.527 143.631,98.104 142.808 C 98.370 142.428,98.538 141.967,98.476 141.784 C 98.415 141.600,98.198 141.817,97.993 142.267 M144.292 141.780 C 144.287 142.008,144.470 142.630,144.700 143.162 C 144.929 143.694,145.280 144.527,145.479 145.013 C 145.678 145.499,145.914 145.823,146.004 145.733 C 146.093 145.644,146.031 145.315,145.866 145.003 C 145.700 144.691,145.281 143.745,144.933 142.901 C 144.586 142.057,144.298 141.552,144.292 141.780 M70.506 143.216 C 70.392 143.549,70.216 144.029,70.114 144.282 C 70.012 144.536,70.161 144.429,70.444 144.044 C 70.727 143.660,70.904 143.180,70.837 142.978 C 70.768 142.771,70.623 142.876,70.506 143.216 M97.072 144.416 C 96.535 145.593,96.617 146.137,97.171 145.075 C 97.428 144.583,97.594 144.049,97.541 143.889 C 97.488 143.730,97.277 143.966,97.072 144.416 M69.428 145.677 C 68.914 146.806,69.012 147.047,69.568 146.020 C 69.828 145.541,69.983 145.092,69.913 145.021 C 69.843 144.951,69.624 145.246,69.428 145.677 M96.157 146.816 C 95.970 147.195,95.733 147.808,95.630 148.177 C 95.527 148.546,95.208 148.910,94.920 148.985 C 94.446 149.110,94.448 149.126,94.941 149.159 C 95.268 149.180,95.618 148.857,95.819 148.350 C 96.002 147.886,96.285 147.251,96.447 146.939 C 96.610 146.627,96.687 146.316,96.619 146.248 C 96.552 146.181,96.344 146.436,96.157 146.816 M146.131 146.367 C 146.119 147.046,147.346 149.194,147.742 149.189 C 148.033 149.186,148.035 149.131,147.752 148.951 C 147.549 148.822,147.103 148.099,146.761 147.344 C 146.418 146.589,146.135 146.149,146.131 146.367 M173.332 147.199 C 173.450 147.536,173.558 148.117,173.573 148.488 C 173.589 148.908,173.708 149.055,173.887 148.876 C 174.066 148.697,173.975 148.209,173.646 147.586 C 173.355 147.036,173.213 146.861,173.332 147.199 M68.459 147.657 C 68.014 148.488,68.266 149.205,68.985 149.159 C 69.498 149.125,69.498 149.114,68.995 148.983 C 68.374 148.820,68.296 148.251,68.821 147.726 C 69.020 147.526,69.101 147.279,68.999 147.178 C 68.897 147.076,68.654 147.292,68.459 147.657 " stroke="none" fill="#6c7c88" fill-rule="evenodd"></path></g></svg>