<svg id="svg" version="1.1" xmlns="http://www.w3.org/2000/svg" xmlns:xlink="http://www.w3.org/1999/xlink" width="400" height="252.25505443234837" viewBox="0, 0, 400,252.25505443234837"><g id="svgg"><path id="path0" d="M0.000 126.128 L 0.000 252.255 200.000 252.255 L 400.000 252.255 400.000 126.128 L 400.000 0.000 200.000 0.000 L 0.000 0.000 0.000 126.128 M99.982 28.153 C 124.598 31.033,139.354 44.424,139.345 63.876 C 139.337 79.959,131.754 92.554,118.053 99.241 C 106.718 104.772,89.794 105.752,80.433 101.417 C 77.073 99.861,77.014 99.696,79.664 99.260 C 94.992 96.737,104.359 85.861,104.341 70.607 C 104.322 54.241,95.162 46.034,76.913 46.034 L 72.473 46.034 72.473 98.212 C 72.473 151.273,72.542 154.788,73.664 159.205 L 74.229 161.431 55.677 161.431 L 37.124 161.431 37.671 159.277 C 38.813 154.781,38.878 151.289,38.878 94.557 C 38.878 37.825,38.813 34.333,37.671 29.837 L 37.124 27.683 66.542 27.683 C 90.818 27.683,96.663 27.765,99.982 28.153 M216.884 33.359 C 218.006 36.481,225.079 56.252,232.603 77.294 C 257.838 147.866,261.798 158.194,265.039 161.885 L 266.010 162.991 247.242 162.911 L 228.475 162.830 221.093 141.835 C 217.033 130.288,213.568 120.524,213.393 120.138 L 213.075 119.436 190.767 119.516 L 168.459 119.596 161.304 141.446 L 154.149 163.297 140.584 163.297 L 127.018 163.297 128.982 159.335 C 131.325 154.605,135.981 142.951,142.561 125.350 C 147.006 113.457,170.249 50.668,176.151 34.606 L 178.694 27.689 196.769 27.686 L 214.845 27.683 216.884 33.359 M360.809 38.880 C 360.809 44.697,360.704 49.454,360.575 49.452 C 360.447 49.450,359.572 49.212,358.631 48.924 C 357.116 48.460,354.533 48.388,336.003 48.291 L 315.086 48.183 315.086 64.540 L 315.086 80.897 331.026 80.806 C 339.794 80.756,347.212 80.595,347.512 80.449 C 348.024 80.198,348.056 80.768,348.056 90.263 L 348.056 100.344 346.267 100.120 C 345.284 99.998,337.865 99.885,329.782 99.871 L 315.086 99.844 315.086 121.462 L 315.086 143.079 333.515 143.077 C 357.789 143.073,365.053 142.614,369.936 140.776 L 371.928 140.026 371.240 143.186 C 370.861 144.923,369.724 150.159,368.713 154.820 L 366.874 163.294 323.059 163.296 L 279.243 163.297 279.441 162.597 C 281.067 156.847,281.171 152.805,281.165 95.490 C 281.159 38.564,281.011 32.895,279.422 28.755 C 279.272 28.363,284.549 28.305,320.029 28.305 L 360.809 28.305 360.809 38.880 M190.893 51.223 C 190.548 51.809,175.091 98.678,175.205 98.792 C 175.274 98.861,182.472 98.881,191.202 98.836 L 207.075 98.756 199.218 75.023 C 191.365 51.299,191.172 50.748,190.893 51.223 M328.771 188.801 C 361.315 189.195,394.783 190.014,395.195 190.425 C 395.305 190.535,394.568 192.770,393.557 195.391 L 391.720 200.156 387.851 200.220 C 301.511 201.669,216.946 205.881,120.373 213.542 C 75.204 217.126,15.361 223.090,10.766 224.465 C 10.256 224.618,10.208 224.525,10.397 223.751 C 11.203 220.459,17.529 198.547,17.737 198.327 C 18.205 197.833,95.001 193.955,141.369 192.083 C 213.331 189.177,273.264 188.127,328.771 188.801 " stroke="none" fill="#000000" fill-rule="evenodd"></path></g></svg>