<svg id="svg" version="1.1" xmlns="http://www.w3.org/2000/svg" xmlns:xlink="http://www.w3.org/1999/xlink" width="400" height="369.49640287769785" viewBox="0, 0, 400,369.49640287769785"><g id="svgg"><path id="path0" d="M0.000 184.748 L 0.000 369.496 200.000 369.496 L 400.000 369.496 400.000 184.748 L 400.000 0.000 200.000 0.000 L 0.000 0.000 0.000 184.748 M105.245 28.984 C 133.970 35.032,146.740 57.284,135.484 81.674 C 126.870 100.338,97.519 110.330,79.139 100.857 L 77.416 99.968 81.568 98.993 C 97.386 95.276,106.916 81.491,104.283 66.137 C 102.005 52.853,93.144 46.043,78.136 46.043 L 72.485 46.043 72.645 102.014 C 72.768 144.651,72.974 158.363,73.511 159.568 L 74.216 161.151 55.752 161.151 C 38.869 161.151,37.318 161.070,37.649 160.207 C 38.812 157.176,39.117 143.542,39.122 94.388 C 39.127 45.058,38.880 33.979,37.664 29.133 L 37.267 27.554 68.849 27.762 C 96.259 27.943,101.068 28.104,105.245 28.984 M226.549 60.719 C 255.599 141.993,259.121 151.447,263.225 159.176 L 265.191 162.878 246.918 162.878 L 228.646 162.878 227.728 160.432 C 226.452 157.031,213.525 120.147,213.525 119.907 C 213.525 119.800,203.359 119.712,190.933 119.712 L 168.341 119.712 161.189 141.583 L 154.037 163.453 140.616 163.453 C 128.425 163.453,125.885 163.179,127.699 162.058 C 129.201 161.130,136.334 142.675,160.846 76.304 C 170.540 50.056,178.606 28.362,178.771 28.095 C 178.936 27.828,187.115 27.678,196.947 27.762 L 214.823 27.914 226.549 60.719 M360.288 39.097 L 360.288 49.416 358.421 48.881 C 357.394 48.586,347.164 48.345,335.687 48.345 L 314.820 48.345 314.820 64.781 L 314.820 81.217 331.223 81.040 L 347.627 80.863 347.626 90.535 L 347.626 100.206 343.165 100.037 C 340.712 99.944,333.331 99.930,326.763 100.006 L 314.820 100.144 314.820 121.727 L 314.820 143.309 334.245 143.304 C 354.867 143.299,364.887 142.718,368.924 141.294 C 372.094 140.175,372.054 139.077,369.305 151.799 L 366.911 162.878 323.244 162.878 L 279.578 162.878 279.950 161.583 C 282.009 154.415,282.009 37.240,279.950 30.072 L 279.578 28.777 319.933 28.777 L 360.288 28.777 360.288 39.097 M183.077 74.388 C 178.840 87.129,175.253 97.878,175.107 98.273 C 174.898 98.838,178.330 98.993,191.079 98.993 C 203.828 98.993,207.260 98.838,207.051 98.273 C 206.905 97.878,203.319 87.129,199.082 74.388 C 194.844 61.647,191.243 51.223,191.079 51.223 C 190.915 51.223,187.314 61.647,183.077 74.388 M353.094 189.399 C 370.504 189.745,387.104 190.199,389.984 190.409 L 395.221 190.791 393.482 195.455 L 391.743 200.119 371.843 200.507 C 261.613 202.656,92.854 213.654,17.025 223.631 C 13.569 224.086,10.663 224.380,10.568 224.285 C 10.472 224.189,12.043 218.298,14.058 211.192 L 17.721 198.273 41.810 197.020 C 181.780 189.738,266.092 187.674,353.094 189.399 M282.113 238.650 C 284.183 240.524,283.027 244.704,280.288 245.247 C 276.405 246.018,274.022 241.687,276.688 238.705 C 277.825 237.433,280.735 237.403,282.113 238.650 M53.577 239.434 C 66.827 241.947,66.253 258.424,52.845 260.434 C 51.378 260.654,49.344 260.651,48.326 260.427 L 46.473 260.020 48.650 258.787 C 56.379 254.409,54.537 244.029,46.032 244.029 L 43.661 244.029 43.845 260.432 L 44.029 276.835 39.281 276.835 L 34.532 276.835 34.532 257.842 L 34.532 238.849 42.511 238.849 C 46.900 238.849,51.879 239.112,53.577 239.434 M162.550 253.385 C 165.377 261.376,168.526 269.921,169.547 272.374 L 171.404 276.835 166.422 276.832 L 161.439 276.830 159.410 270.933 L 157.381 265.036 150.825 265.036 L 144.269 265.036 142.302 270.935 L 140.336 276.835 136.631 276.835 L 132.926 276.835 134.000 274.676 C 134.591 273.489,137.874 264.942,141.296 255.683 L 147.518 238.849 152.464 238.852 L 157.410 238.856 162.550 253.385 M150.560 245.755 C 150.085 246.963,146.187 258.605,146.187 258.818 C 146.187 258.914,148.259 258.993,150.791 258.993 C 153.324 258.993,155.391 258.928,155.384 258.849 C 155.259 257.242,150.801 245.143,150.560 245.755 M262.218 252.662 C 262.369 252.662,263.243 252.107,264.159 251.430 C 266.014 250.059,271.655 249.192,271.655 250.278 C 271.655 253.676,270.198 256.186,268.419 255.852 C 263.353 254.902,261.725 258.286,261.981 269.237 L 262.158 276.837 257.842 276.835 L 253.525 276.834 253.525 263.927 L 253.525 251.020 257.554 250.241 L 261.583 249.461 261.763 251.062 C 261.862 251.942,262.067 252.662,262.218 252.662 M283.867 264.604 L 284.029 276.835 279.712 276.835 L 275.396 276.835 275.396 263.896 L 275.396 250.957 278.273 250.400 C 283.602 249.369,283.443 249.353,283.580 250.923 C 283.649 251.721,283.779 257.878,283.867 264.604 M83.574 251.333 C 87.040 253.357,87.392 254.671,87.591 266.332 L 87.770 276.836 83.597 276.835 C 81.130 276.835,79.424 276.593,79.424 276.244 C 79.424 275.920,78.583 276.104,77.554 276.654 C 73.259 278.950,66.467 277.541,63.657 273.771 C 59.070 267.617,65.632 260.719,76.076 260.719 L 79.424 260.719 79.424 258.705 C 79.424 254.311,73.484 252.942,67.425 255.940 L 65.179 257.051 66.054 254.425 C 67.141 251.164,66.812 251.481,70.063 250.563 C 73.827 249.499,81.149 249.916,83.574 251.333 M101.295 251.145 L 101.295 252.505 103.982 251.145 C 107.375 249.427,110.664 249.406,113.966 251.079 C 118.326 253.289,118.804 254.749,119.052 266.619 L 119.265 276.835 114.922 276.835 L 110.579 276.835 110.398 267.109 C 110.189 255.962,109.819 254.964,105.899 254.964 C 101.979 254.964,101.609 255.962,101.401 267.109 L 101.219 276.835 96.941 276.835 L 92.662 276.835 92.662 263.966 L 92.662 251.097 95.683 250.516 C 100.727 249.547,101.295 249.610,101.295 251.145 M183.597 251.511 L 183.597 253.237 184.771 252.063 C 187.980 248.855,194.170 249.136,198.200 252.674 L 200.109 254.351 201.732 252.656 C 204.906 249.343,210.434 248.923,214.597 251.678 C 218.117 254.007,218.562 255.616,218.806 266.906 L 219.021 276.835 214.834 276.835 L 210.647 276.835 210.647 268.058 C 210.645 257.176,210.029 255.354,206.252 255.078 C 201.975 254.766,201.439 256.140,201.439 267.416 L 201.439 276.835 197.122 276.835 L 192.806 276.835 192.797 267.770 C 192.787 256.455,191.600 253.756,187.141 254.914 C 184.283 255.655,183.599 258.194,183.598 268.058 L 183.597 276.835 179.424 276.834 L 175.252 276.834 175.252 263.941 L 175.252 251.049 178.129 250.492 C 183.238 249.504,183.597 249.571,183.597 251.511 M243.324 251.164 C 246.584 252.867,249.280 256.773,250.021 260.863 L 250.412 263.022 241.101 263.022 L 231.791 263.022 232.112 265.418 C 232.985 271.922,241.242 275.007,247.653 271.224 L 249.587 270.083 248.679 273.172 C 246.309 281.229,229.028 278.791,224.376 269.745 C 218.459 258.239,231.808 245.149,243.324 251.164 M309.707 250.284 L 311.212 250.647 310.394 253.431 C 309.731 255.688,309.392 256.135,308.601 255.797 C 302.098 253.015,296.691 256.256,296.691 262.935 C 296.691 270.867,303.710 275.029,310.855 271.334 C 313.136 270.155,313.217 270.295,312.202 273.666 C 309.893 281.340,293.499 278.460,289.174 269.621 C 283.637 258.304,295.737 246.909,309.707 250.284 M337.291 251.133 C 341.108 252.952,341.558 254.481,341.772 266.331 L 341.962 276.835 337.935 276.835 C 335.406 276.835,333.827 276.588,333.688 276.171 C 333.535 275.713,333.007 275.808,331.986 276.477 C 328.095 279.027,320.299 277.669,317.855 274.016 C 313.533 267.555,318.500 261.565,328.761 260.862 L 333.237 260.555 333.237 258.368 C 333.237 253.856,328.221 253.070,320.480 256.368 C 319.421 256.819,320.252 252.755,321.467 251.541 C 323.326 249.681,333.687 249.414,337.291 251.133 M355.108 251.223 C 355.108 252.959,355.366 252.996,357.234 251.526 C 360.422 249.018,366.566 249.338,369.801 252.179 C 372.490 254.539,372.929 256.579,373.095 267.483 L 373.237 276.836 369.065 276.835 L 364.892 276.835 364.889 268.633 C 364.884 257.106,364.096 254.964,359.860 254.964 C 355.961 254.964,355.142 257.377,355.122 268.921 L 355.108 276.835 350.935 276.834 L 346.763 276.834 346.863 264.029 L 346.963 251.223 350.028 250.568 C 354.771 249.555,355.108 249.598,355.108 251.223 M234.011 255.108 C 233.213 255.820,232.394 257.115,232.189 257.986 L 231.818 259.568 236.484 259.568 C 240.701 259.568,241.151 259.462,241.151 258.464 C 241.151 254.593,236.850 252.571,234.011 255.108 M73.283 265.012 C 68.682 267.013,69.811 273.381,74.767 273.381 C 78.614 273.381,79.424 272.464,79.424 268.109 L 79.424 264.173 77.266 264.195 C 76.079 264.208,74.287 264.575,73.283 265.012 M327.136 264.994 C 322.717 266.918,324.205 273.381,329.067 273.381 C 332.671 273.381,333.237 272.675,333.237 268.181 L 333.237 264.173 331.079 264.195 C 329.892 264.208,328.118 264.567,327.136 264.994 M287.997 289.782 C 290.179 290.244,292.055 290.712,292.166 290.823 C 292.554 291.211,289.624 298.991,289.132 298.877 C 288.858 298.813,287.150 298.230,285.338 297.582 C 272.044 292.826,261.816 301.315,262.554 316.490 C 263.187 329.489,273.269 337.993,283.614 334.252 L 285.582 333.540 285.381 324.468 L 285.180 315.396 291.655 315.396 L 298.129 315.396 298.129 327.172 L 298.129 338.948 295.971 339.515 C 269.087 346.571,249.209 336.570,249.209 315.988 C 249.209 297.155,266.777 285.286,287.997 289.782 M100.145 294.245 L 100.145 297.842 91.512 297.656 L 82.878 297.471 82.878 303.843 L 82.878 310.216 88.921 310.216 L 94.964 310.216 94.964 313.669 L 94.964 317.122 88.921 317.122 L 82.878 317.122 82.878 325.468 L 82.878 333.813 91.367 333.799 C 96.036 333.792,100.846 333.556,102.056 333.275 C 103.786 332.873,104.195 332.925,103.967 333.518 C 103.808 333.933,103.367 335.852,102.987 337.783 L 102.296 341.295 86.112 341.295 L 69.928 341.295 69.928 315.971 L 69.928 290.648 85.036 290.648 L 100.144 290.647 100.145 294.245 M133.525 306.790 L 147.626 322.885 147.779 306.766 L 147.932 290.647 152.589 290.647 C 156.599 290.647,157.197 290.774,156.896 291.558 C 156.704 292.059,156.547 303.454,156.547 316.882 L 156.547 341.295 152.062 341.295 L 147.578 341.295 133.598 325.468 C 125.909 316.763,119.381 309.640,119.090 309.640 C 118.781 309.640,118.561 316.232,118.561 325.468 L 118.561 341.295 114.101 341.295 L 109.640 341.295 109.796 315.971 L 109.952 290.647 114.688 290.671 L 119.424 290.695 133.525 306.790 M195.109 294.245 L 195.109 297.842 186.619 297.842 L 178.129 297.842 177.966 304.029 L 177.803 310.216 184.153 310.216 L 190.504 310.216 190.504 313.650 L 190.504 317.083 184.317 317.247 L 178.129 317.410 177.969 325.675 L 177.809 333.940 188.473 333.729 C 200.428 333.492,199.528 333.091,198.358 338.129 L 197.690 341.007 181.579 341.160 L 165.468 341.313 165.468 315.980 L 165.468 290.648 180.288 290.648 L 195.108 290.647 195.109 294.245 M231.923 291.273 C 244.321 293.931,246.413 309.846,234.992 314.618 L 233.116 315.402 236.901 321.253 C 242.488 329.892,244.912 333.094,249.126 337.410 L 252.919 341.295 248.042 341.261 C 236.590 341.180,236.580 341.173,227.222 326.593 L 219.883 315.161 222.603 314.145 C 232.838 310.325,231.284 297.554,220.585 297.554 L 217.554 297.554 217.554 319.424 L 217.554 341.295 211.079 341.295 L 204.604 341.295 204.604 315.971 L 204.604 290.648 216.806 290.648 C 223.517 290.648,230.320 290.929,231.923 291.273 M317.711 300.481 C 320.395 305.889,322.761 310.422,322.969 310.554 C 323.178 310.686,326.111 306.261,329.487 300.721 L 335.626 290.647 340.484 290.647 L 345.342 290.647 343.086 294.245 C 341.846 296.223,337.809 302.633,334.116 308.489 L 327.402 319.137 327.586 330.216 L 327.770 341.296 321.420 341.295 L 315.071 341.295 315.297 330.216 L 315.524 319.137 309.653 309.065 C 306.424 303.525,302.815 297.439,301.634 295.540 C 300.452 293.640,299.295 291.763,299.061 291.367 C 298.731 290.807,300.214 290.647,305.735 290.647 L 312.833 290.647 317.711 300.481 " stroke="none" fill="#000000" fill-rule="evenodd"></path></g></svg>
