<svg id="svg" version="1.1" xmlns="http://www.w3.org/2000/svg" xmlns:xlink="http://www.w3.org/1999/xlink" width="400" height="426.6666666666667" viewBox="0, 0, 400,426.6666666666667"><g id="svgg"><path id="path0" d="M348.400 0.105 C 348.290 0.215,347.301 0.413,346.203 0.543 C 345.105 0.674,344.145 0.965,344.070 1.191 C 343.995 1.416,343.408 1.600,342.767 1.600 C 341.996 1.600,341.600 1.804,341.600 2.200 C 341.600 2.644,341.133 2.800,339.800 2.800 C 338.499 2.800,338.000 2.960,338.000 3.377 C 338.000 3.770,337.457 3.993,336.300 4.077 C 335.202 4.156,334.635 4.377,334.700 4.700 C 334.786 5.128,333.132 5.448,331.889 5.244 C 331.718 5.216,331.473 5.464,331.346 5.796 C 331.213 6.142,330.620 6.400,329.957 6.400 C 329.195 6.400,328.800 6.605,328.800 7.000 C 328.800 7.444,328.333 7.600,327.000 7.600 C 325.667 7.600,325.200 7.756,325.200 8.200 C 325.200 8.615,324.783 8.800,323.849 8.800 C 323.106 8.800,322.274 9.070,322.000 9.400 C 321.726 9.730,321.074 10.000,320.551 10.000 C 319.972 10.000,319.600 10.235,319.600 10.600 C 319.600 11.043,319.137 11.200,317.833 11.200 C 316.862 11.200,316.007 11.363,315.933 11.563 C 315.860 11.763,315.080 12.039,314.200 12.176 C 313.320 12.313,312.540 12.599,312.467 12.812 C 312.393 13.026,311.821 13.200,311.195 13.200 C 310.569 13.200,309.787 13.470,309.457 13.800 C 309.127 14.130,308.479 14.400,308.016 14.400 C 307.553 14.400,307.071 14.670,306.945 15.000 C 306.788 15.407,306.150 15.600,304.957 15.600 C 303.662 15.600,303.200 15.758,303.200 16.200 C 303.200 16.631,302.760 16.800,301.643 16.800 C 300.628 16.800,300.005 17.009,299.855 17.400 C 299.729 17.730,299.169 18.000,298.613 18.000 C 297.979 18.000,297.600 18.225,297.600 18.600 C 297.600 19.044,297.133 19.200,295.800 19.200 C 294.467 19.200,294.000 19.356,294.000 19.800 C 294.000 20.130,293.730 20.400,293.400 20.400 C 293.027 20.400,292.800 20.778,292.800 21.400 C 292.800 22.022,293.027 22.400,293.400 22.400 C 293.925 22.400,294.203 23.139,294.044 24.111 C 294.016 24.282,294.264 24.527,294.596 24.654 C 294.928 24.781,295.200 25.136,295.200 25.443 C 295.200 25.749,295.470 26.000,295.800 26.000 C 296.130 26.000,296.400 26.251,296.400 26.557 C 296.400 26.864,296.670 27.218,297.000 27.345 C 297.330 27.471,297.600 27.914,297.600 28.329 C 297.600 28.744,298.036 29.554,298.569 30.129 C 299.102 30.704,299.654 31.540,299.796 31.987 C 299.938 32.434,300.222 32.800,300.427 32.800 C 300.632 32.800,300.800 33.070,300.800 33.400 C 300.800 33.730,301.070 34.000,301.400 34.000 C 301.800 34.000,302.000 34.400,302.000 35.200 C 302.000 36.000,302.200 36.400,302.600 36.400 C 302.930 36.400,303.200 36.670,303.200 37.000 C 303.200 37.330,303.470 37.600,303.800 37.600 C 304.200 37.600,304.400 38.000,304.400 38.800 C 304.400 39.600,304.600 40.000,305.000 40.000 C 305.400 40.000,305.600 40.400,305.600 41.200 C 305.600 42.000,305.800 42.400,306.200 42.400 C 306.573 42.400,306.800 42.778,306.800 43.400 C 306.800 44.022,307.027 44.400,307.400 44.400 C 307.800 44.400,308.000 44.800,308.000 45.600 C 308.000 46.293,308.211 46.800,308.500 46.800 C 308.775 46.800,309.027 47.274,309.061 47.853 C 309.094 48.431,309.292 49.016,309.499 49.152 C 309.707 49.289,309.998 49.895,310.146 50.500 C 310.294 51.105,310.592 51.600,310.808 51.600 C 311.023 51.600,311.200 52.127,311.200 52.771 C 311.200 53.416,311.470 54.213,311.800 54.543 C 312.130 54.873,312.400 55.606,312.400 56.171 C 312.400 56.819,312.622 57.200,313.000 57.200 C 313.522 57.200,313.880 59.026,313.647 60.500 C 313.621 60.665,313.870 60.800,314.200 60.800 C 314.615 60.800,314.800 61.217,314.800 62.157 C 314.800 62.995,315.030 63.603,315.400 63.745 C 315.811 63.902,316.000 64.545,316.000 65.787 C 316.000 67.132,316.155 67.600,316.600 67.600 C 317.037 67.600,317.214 68.089,317.250 69.400 C 317.319 71.897,317.340 71.992,317.876 72.323 C 318.138 72.485,318.395 73.548,318.446 74.685 C 318.502 75.894,318.719 76.721,318.970 76.677 C 319.237 76.629,319.445 77.737,319.519 79.588 C 319.585 81.232,319.800 82.676,319.997 82.798 C 320.193 82.920,320.432 84.603,320.526 86.538 C 320.621 88.474,320.901 90.261,321.149 90.509 C 321.778 91.138,321.783 118.111,321.154 119.286 C 320.909 119.744,320.627 121.578,320.528 123.360 C 320.429 125.142,320.180 126.771,319.974 126.980 C 319.768 127.189,319.600 128.854,319.600 130.680 C 319.600 133.364,319.485 134.000,319.000 134.000 C 318.556 134.000,318.400 134.467,318.400 135.800 C 318.400 137.133,318.244 137.600,317.800 137.600 C 317.470 137.600,317.221 137.735,317.247 137.900 C 317.480 139.375,317.123 142.384,316.725 142.300 C 316.424 142.237,316.190 142.933,316.088 144.200 C 315.995 145.357,315.690 146.335,315.364 146.520 C 315.054 146.696,314.800 147.376,314.800 148.032 C 314.800 148.724,314.548 149.322,314.200 149.455 C 313.853 149.588,313.600 150.186,313.600 150.871 C 313.600 151.524,313.330 152.327,313.000 152.657 C 312.670 152.987,312.400 153.874,312.400 154.629 C 312.400 155.581,312.217 156.000,311.800 156.000 C 311.405 156.000,311.200 156.395,311.200 157.157 C 311.200 157.820,310.942 158.413,310.596 158.546 C 310.264 158.673,310.016 158.918,310.044 159.089 C 310.192 159.994,309.951 160.817,309.600 160.600 C 309.380 160.464,309.200 160.689,309.200 161.100 C 309.200 161.511,308.936 162.196,308.613 162.624 C 308.290 163.051,308.020 163.895,308.013 164.500 C 308.005 165.162,307.801 165.560,307.500 165.500 C 307.217 165.443,306.944 165.887,306.871 166.524 C 306.800 167.142,306.485 167.746,306.171 167.866 C 305.857 167.987,305.600 168.432,305.600 168.855 C 305.600 169.279,305.330 169.729,305.000 169.855 C 304.670 169.982,304.400 170.516,304.400 171.043 C 304.400 171.627,304.166 172.000,303.800 172.000 C 303.400 172.000,303.200 172.400,303.200 173.200 C 303.200 174.000,303.000 174.400,302.600 174.400 C 302.270 174.400,302.000 174.593,302.000 174.829 C 302.000 175.064,301.730 175.527,301.400 175.857 C 301.070 176.187,300.800 176.785,300.800 177.186 C 300.800 177.587,300.530 178.018,300.200 178.145 C 299.870 178.271,299.600 178.681,299.600 179.054 C 299.600 179.428,299.490 179.623,299.355 179.489 C 299.221 179.354,298.702 179.999,298.204 180.922 C 297.705 181.845,297.096 182.555,296.849 182.500 C 296.602 182.445,296.400 182.661,296.400 182.980 C 296.400 183.299,296.114 183.720,295.764 183.916 C 295.414 184.112,295.144 184.391,295.164 184.536 C 295.299 185.533,295.119 186.000,294.600 186.000 C 294.270 186.000,294.000 186.251,294.000 186.557 C 294.000 186.864,293.730 187.218,293.400 187.345 C 293.070 187.471,292.800 187.851,292.800 188.187 C 292.800 188.524,292.575 188.755,292.300 188.700 C 292.019 188.644,291.745 189.081,291.673 189.700 C 291.601 190.330,291.302 190.800,290.973 190.800 C 290.658 190.800,290.400 191.070,290.400 191.400 C 290.400 191.730,290.265 191.961,290.100 191.914 C 289.746 191.813,286.960 194.583,286.107 195.886 C 285.780 196.385,285.352 196.694,285.156 196.573 C 284.960 196.452,284.800 196.723,284.800 197.176 C 284.800 197.629,284.583 197.955,284.318 197.900 C 284.053 197.845,283.828 198.070,283.818 198.400 C 283.808 198.730,283.575 199.000,283.300 199.000 C 283.025 199.000,282.789 199.180,282.776 199.400 C 282.763 199.620,282.391 199.933,281.950 200.097 C 281.509 200.260,281.261 200.575,281.398 200.797 C 281.536 201.019,281.268 201.200,280.800 201.200 C 280.333 201.200,280.065 201.381,280.202 201.603 C 280.339 201.824,280.155 202.119,279.793 202.258 C 278.932 202.588,275.371 206.105,275.500 206.497 C 275.555 206.664,275.330 206.800,275.000 206.800 C 274.670 206.800,274.400 207.070,274.400 207.400 C 274.400 207.730,274.130 208.000,273.800 208.000 C 273.470 208.000,273.200 208.270,273.200 208.600 C 273.200 208.930,272.930 209.222,272.600 209.250 C 271.217 209.365,271.005 209.460,271.100 209.918 C 271.155 210.183,270.840 210.400,270.400 210.400 C 269.956 210.400,269.600 210.667,269.600 211.000 C 269.600 211.330,269.330 211.600,269.000 211.600 C 268.670 211.600,268.400 211.870,268.400 212.200 C 268.400 212.573,268.022 212.800,267.400 212.800 C 266.778 212.800,266.400 213.027,266.400 213.400 C 266.400 213.739,266.042 214.000,265.576 214.000 C 265.123 214.000,264.856 214.167,264.982 214.371 C 265.108 214.575,264.846 214.858,264.400 215.000 C 263.954 215.142,263.692 215.425,263.818 215.629 C 263.944 215.833,263.581 216.000,263.011 216.000 C 262.441 216.000,261.871 216.270,261.745 216.600 C 261.618 216.930,261.264 217.200,260.957 217.200 C 260.651 217.200,260.400 217.470,260.400 217.800 C 260.400 218.170,260.024 218.400,259.420 218.400 C 258.881 218.400,258.296 218.653,258.120 218.962 C 257.944 219.270,257.350 219.590,256.800 219.671 C 256.250 219.752,255.845 220.040,255.900 220.309 C 255.955 220.579,255.724 220.800,255.387 220.800 C 255.051 220.800,254.671 221.070,254.545 221.400 C 254.418 221.730,253.903 222.000,253.400 222.000 C 252.897 222.000,252.382 222.270,252.255 222.600 C 252.129 222.930,251.569 223.200,251.013 223.200 C 250.379 223.200,250.000 223.425,250.000 223.800 C 250.000 224.196,249.604 224.400,248.833 224.400 C 248.192 224.400,247.606 224.582,247.532 224.804 C 247.458 225.026,246.949 225.294,246.400 225.400 C 245.851 225.506,245.342 225.774,245.268 225.996 C 245.194 226.218,244.718 226.400,244.209 226.400 C 243.701 226.400,243.182 226.670,243.055 227.000 C 242.929 227.330,242.389 227.600,241.855 227.600 C 241.322 227.600,240.782 227.870,240.655 228.200 C 240.513 228.572,239.904 228.800,239.055 228.800 C 238.207 228.800,237.598 229.028,237.455 229.400 C 237.321 229.751,236.721 230.000,236.013 230.000 C 235.201 230.000,234.800 230.199,234.800 230.600 C 234.800 231.044,234.333 231.200,233.000 231.200 C 231.667 231.200,231.200 231.356,231.200 231.800 C 231.200 232.220,230.776 232.400,229.787 232.400 C 228.901 232.400,228.289 232.623,228.145 233.000 C 227.988 233.407,227.350 233.600,226.157 233.600 C 224.862 233.600,224.400 233.758,224.400 234.200 C 224.400 234.666,223.870 234.800,222.033 234.800 C 220.670 234.800,219.605 234.986,219.520 235.239 C 219.440 235.481,218.480 235.777,217.387 235.897 C 216.294 236.017,215.307 236.257,215.194 236.429 C 215.081 236.601,213.551 236.784,211.794 236.834 C 209.743 236.894,208.457 237.113,208.200 237.446 C 207.926 237.802,206.538 237.988,203.800 238.036 C 199.567 238.111,198.668 238.262,199.026 238.842 C 199.423 239.484,177.237 239.294,176.593 238.650 C 176.209 238.266,174.824 238.078,172.029 238.030 C 169.431 237.985,167.626 237.757,166.908 237.383 C 166.263 237.046,164.672 236.804,163.100 236.802 C 161.568 236.801,160.400 236.627,160.400 236.400 C 160.400 236.180,159.603 236.000,158.629 236.000 C 157.587 236.000,156.610 235.753,156.257 235.400 C 155.867 235.010,154.876 234.800,153.429 234.800 C 151.714 234.800,151.200 234.662,151.200 234.200 C 151.200 233.766,150.754 233.600,149.587 233.600 C 148.523 233.600,147.897 233.396,147.745 233.000 C 147.588 232.591,146.948 232.400,145.734 232.400 C 144.754 232.400,144.052 232.239,144.174 232.042 C 144.455 231.587,143.461 231.200,142.010 231.200 C 141.380 231.200,140.784 230.936,140.655 230.600 C 140.521 230.249,139.921 230.000,139.213 230.000 C 138.456 230.000,138.038 229.812,138.100 229.500 C 138.165 229.177,137.596 228.956,136.491 228.877 C 135.551 228.809,134.883 228.589,135.007 228.388 C 135.131 228.188,134.730 227.907,134.116 227.764 C 133.502 227.621,132.791 227.244,132.536 226.925 C 132.281 226.607,131.977 226.404,131.860 226.473 C 131.536 226.666,128.008 225.043,128.004 224.700 C 128.002 224.535,127.479 224.400,126.843 224.400 C 126.206 224.400,125.587 224.144,125.467 223.831 C 125.347 223.518,124.833 223.199,124.324 223.122 C 123.816 223.044,123.445 222.760,123.500 222.491 C 123.561 222.190,123.135 222.000,122.400 222.000 C 121.600 222.000,121.200 221.800,121.200 221.400 C 121.200 221.000,120.800 220.800,120.000 220.800 C 119.200 220.800,118.800 220.600,118.800 220.200 C 118.800 219.870,118.530 219.600,118.200 219.600 C 117.870 219.600,117.600 219.330,117.600 219.000 C 117.600 218.600,117.200 218.400,116.400 218.400 C 115.600 218.400,115.200 218.200,115.200 217.800 C 115.200 217.470,114.930 217.200,114.600 217.200 C 114.270 217.200,114.000 216.930,114.000 216.600 C 114.000 216.227,113.622 216.000,113.000 216.000 C 112.450 216.000,112.000 215.832,112.000 215.627 C 112.000 215.422,111.637 215.139,111.194 214.998 C 110.751 214.857,110.483 214.590,110.598 214.404 C 110.713 214.217,110.265 213.946,109.603 213.801 C 108.942 213.655,108.400 213.371,108.400 213.168 C 108.400 212.966,108.130 212.800,107.800 212.800 C 107.470 212.800,107.200 212.530,107.200 212.200 C 107.200 211.870,106.949 211.600,106.643 211.600 C 106.336 211.600,105.982 211.330,105.855 211.000 C 105.729 210.670,105.169 210.400,104.613 210.400 C 104.056 210.400,103.600 210.230,103.600 210.022 C 103.600 209.515,98.463 204.400,97.954 204.400 C 97.733 204.400,97.664 204.220,97.800 204.000 C 97.936 203.780,97.812 203.592,97.524 203.583 C 97.236 203.574,96.558 203.034,96.019 202.383 C 95.479 201.732,94.793 201.200,94.495 201.200 C 94.197 201.200,94.044 201.052,94.156 200.871 C 94.384 200.502,92.766 198.963,92.300 199.107 C 92.135 199.158,92.000 198.967,92.000 198.681 C 92.000 198.396,91.468 197.721,90.817 197.181 C 90.166 196.642,89.626 195.964,89.617 195.676 C 89.608 195.388,89.420 195.264,89.200 195.400 C 88.980 195.536,88.800 195.442,88.800 195.190 C 88.800 194.635,85.921 191.768,85.500 191.904 C 85.335 191.957,85.200 191.730,85.200 191.400 C 85.200 191.070,84.930 190.800,84.600 190.800 C 84.270 190.800,84.000 190.530,84.000 190.200 C 84.000 189.870,83.730 189.600,83.400 189.600 C 83.000 189.600,82.800 189.200,82.800 188.400 C 82.800 187.600,82.600 187.200,82.200 187.200 C 81.870 187.200,81.600 186.930,81.600 186.600 C 81.600 186.270,81.330 186.000,81.000 186.000 C 80.670 186.000,80.400 185.730,80.400 185.400 C 80.400 185.070,80.238 184.800,80.039 184.800 C 79.841 184.800,79.503 184.305,79.288 183.700 C 79.074 183.095,78.423 182.093,77.843 181.472 C 77.262 180.852,76.891 180.176,77.019 179.970 C 77.146 179.763,76.969 179.486,76.625 179.354 C 76.281 179.222,76.000 178.864,76.000 178.557 C 76.000 178.251,75.742 178.000,75.427 178.000 C 75.098 178.000,74.799 177.530,74.727 176.900 C 74.655 176.281,74.381 175.844,74.100 175.900 C 73.825 175.955,73.600 175.640,73.600 175.200 C 73.600 174.756,73.333 174.400,73.000 174.400 C 72.600 174.400,72.400 174.000,72.400 173.200 C 72.400 172.400,72.200 172.000,71.800 172.000 C 71.454 172.000,71.200 171.638,71.200 171.144 C 71.200 170.673,70.922 170.085,70.582 169.836 C 70.242 169.588,69.935 168.995,69.899 168.520 C 69.863 168.044,69.690 167.744,69.514 167.853 C 69.338 167.962,69.091 167.724,68.965 167.325 C 68.838 166.926,68.537 166.150,68.296 165.600 C 68.055 165.050,67.838 164.510,67.814 164.400 C 67.791 164.290,67.578 163.840,67.341 163.400 C 67.104 162.960,66.790 162.098,66.644 161.484 C 66.497 160.870,66.202 160.475,65.988 160.607 C 65.657 160.812,65.398 159.677,65.553 158.700 C 65.579 158.535,65.330 158.400,65.000 158.400 C 64.670 158.400,64.400 158.130,64.400 157.800 C 64.400 157.400,64.000 157.200,63.200 157.200 C 62.540 157.200,62.000 157.380,62.000 157.600 C 62.000 157.820,61.736 158.000,61.414 158.000 C 61.091 158.000,60.275 158.540,59.600 159.200 C 58.925 159.860,58.199 160.400,57.986 160.400 C 57.774 160.400,57.600 160.670,57.600 161.000 C 57.600 161.330,57.330 161.600,57.000 161.600 C 56.670 161.600,56.400 161.870,56.400 162.200 C 56.400 162.530,56.130 162.800,55.800 162.800 C 55.470 162.800,55.200 163.070,55.200 163.400 C 55.200 163.730,54.930 164.000,54.600 164.000 C 54.270 164.000,54.000 164.270,54.000 164.600 C 54.000 164.930,53.730 165.200,53.400 165.200 C 53.070 165.200,52.800 165.470,52.800 165.800 C 52.800 166.130,52.530 166.400,52.200 166.400 C 51.870 166.400,51.600 166.670,51.600 167.000 C 51.600 167.330,51.330 167.600,51.000 167.600 C 50.670 167.600,50.400 167.777,50.400 167.992 C 50.400 168.208,49.950 168.498,49.400 168.636 C 48.850 168.774,48.400 169.137,48.400 169.443 C 48.400 169.750,48.149 170.000,47.843 170.000 C 47.536 170.000,47.178 170.281,47.046 170.625 C 46.914 170.969,46.624 171.139,46.403 171.002 C 46.181 170.865,46.000 170.943,46.000 171.176 C 46.000 171.713,44.531 173.200,44.000 173.200 C 43.780 173.200,43.600 173.470,43.600 173.800 C 43.600 174.130,43.330 174.400,43.000 174.400 C 42.670 174.400,42.400 174.670,42.400 175.000 C 42.400 175.330,42.130 175.600,41.800 175.600 C 41.470 175.600,41.200 175.870,41.200 176.200 C 41.200 176.530,40.930 176.800,40.600 176.800 C 40.270 176.800,40.000 177.070,40.000 177.400 C 40.000 177.927,39.243 178.191,38.568 177.900 C 38.440 177.845,38.086 178.250,37.782 178.800 C 37.477 179.350,37.222 179.665,37.214 179.500 C 37.206 179.335,36.480 179.920,35.600 180.800 C 34.720 181.680,33.820 182.400,33.600 182.400 C 33.380 182.400,33.200 182.670,33.200 183.000 C 33.200 183.330,32.930 183.600,32.600 183.600 C 32.270 183.600,32.000 183.870,32.000 184.200 C 32.000 184.530,31.730 184.800,31.400 184.800 C 31.070 184.800,30.800 185.070,30.800 185.400 C 30.800 185.730,30.530 186.000,30.200 186.000 C 29.870 186.000,29.600 186.270,29.600 186.600 C 29.600 186.930,29.330 187.200,29.000 187.200 C 28.670 187.200,28.400 187.470,28.400 187.800 C 28.400 188.316,27.692 188.593,26.724 188.455 C 26.573 188.434,26.335 188.775,26.196 189.214 C 26.056 189.653,25.775 189.908,25.571 189.782 C 25.367 189.656,25.200 189.833,25.200 190.176 C 25.200 190.519,24.930 190.800,24.600 190.800 C 24.270 190.800,24.000 191.081,24.000 191.424 C 24.000 191.767,23.819 191.935,23.597 191.798 C 23.376 191.661,23.086 191.831,22.954 192.175 C 22.822 192.519,22.464 192.800,22.157 192.800 C 21.851 192.800,21.600 192.980,21.600 193.200 C 21.600 193.720,19.890 195.430,19.500 195.300 C 19.335 195.245,19.200 195.451,19.200 195.757 C 19.200 196.064,18.930 196.418,18.600 196.545 C 18.270 196.671,18.000 197.231,18.000 197.787 C 18.000 198.421,17.775 198.800,17.400 198.800 C 17.061 198.800,16.800 199.158,16.800 199.624 C 16.800 200.077,16.639 200.348,16.442 200.226 C 16.011 199.960,15.600 200.918,15.600 202.190 C 15.600 202.698,15.330 203.218,15.000 203.345 C 14.506 203.534,14.400 204.564,14.400 209.155 C 14.400 214.765,14.580 216.183,15.242 215.774 C 15.439 215.652,15.600 216.193,15.600 216.976 C 15.600 217.946,15.783 218.400,16.173 218.400 C 16.502 218.400,16.801 218.870,16.873 219.500 C 16.945 220.119,17.219 220.556,17.500 220.500 C 17.775 220.445,18.000 220.760,18.000 221.200 C 18.000 221.644,18.267 222.000,18.600 222.000 C 18.930 222.000,19.200 222.341,19.200 222.757 C 19.200 223.174,19.470 223.618,19.800 223.745 C 20.130 223.871,20.400 224.251,20.400 224.587 C 20.400 224.924,20.670 225.200,21.000 225.200 C 21.330 225.200,21.600 225.470,21.600 225.800 C 21.600 226.130,21.870 226.400,22.200 226.400 C 22.578 226.400,22.800 226.781,22.800 227.431 C 22.800 228.043,23.288 228.949,24.000 229.662 C 24.660 230.322,25.200 231.036,25.200 231.250 C 25.200 231.463,25.695 232.101,26.300 232.667 C 26.905 233.233,27.355 233.855,27.300 234.048 C 27.245 234.242,27.547 234.400,27.971 234.400 C 28.396 234.400,29.013 234.670,29.343 235.000 C 29.673 235.330,30.136 235.600,30.371 235.600 C 30.607 235.600,30.800 235.870,30.800 236.200 C 30.800 236.600,31.200 236.800,32.000 236.800 C 32.817 236.800,33.200 236.998,33.200 237.420 C 33.200 237.964,34.178 238.026,41.100 237.920 C 47.156 237.828,48.977 237.683,48.900 237.300 C 48.828 236.941,49.533 236.800,51.400 236.800 C 53.444 236.800,54.000 236.672,54.000 236.200 C 54.000 235.697,54.844 235.600,59.200 235.600 C 62.400 235.600,64.400 235.446,64.400 235.200 C 64.400 234.965,65.792 234.800,67.776 234.800 C 69.633 234.800,71.264 234.980,71.400 235.200 C 71.542 235.429,73.604 235.600,76.224 235.600 C 80.025 235.600,80.800 235.702,80.800 236.200 C 80.800 236.659,81.306 236.800,82.957 236.800 C 84.512 236.800,85.179 236.969,85.346 237.404 C 85.473 237.736,85.718 237.984,85.889 237.956 C 87.520 237.689,90.000 238.077,90.000 238.600 C 90.000 239.031,90.440 239.200,91.557 239.200 C 92.572 239.200,93.195 239.409,93.345 239.800 C 93.497 240.196,94.123 240.400,95.187 240.400 C 96.354 240.400,96.800 240.566,96.800 241.000 C 96.800 241.395,97.195 241.600,97.957 241.600 C 98.617 241.600,99.213 241.858,99.345 242.200 C 99.471 242.530,100.011 242.800,100.545 242.800 C 101.078 242.800,101.618 243.070,101.745 243.400 C 101.871 243.730,102.461 244.000,103.054 244.000 C 103.648 244.000,104.019 244.114,103.880 244.253 C 103.561 244.572,105.108 245.798,106.300 246.172 C 106.795 246.327,107.200 246.622,107.200 246.827 C 107.200 247.032,107.451 247.200,107.757 247.200 C 108.064 247.200,108.418 247.470,108.545 247.800 C 108.671 248.130,109.231 248.400,109.787 248.400 C 110.421 248.400,110.800 248.625,110.800 249.000 C 110.800 249.400,111.200 249.600,112.000 249.600 C 112.800 249.600,113.200 249.800,113.200 250.200 C 113.200 250.530,113.470 250.800,113.800 250.800 C 114.130 250.800,114.400 250.974,114.400 251.186 C 114.400 252.056,117.583 254.819,119.300 255.440 C 119.685 255.579,120.000 255.942,120.000 256.247 C 120.000 256.551,120.204 256.800,120.454 256.800 C 120.704 256.800,121.325 257.250,121.835 257.800 C 122.345 258.350,122.950 258.800,123.181 258.800 C 123.411 258.800,123.600 259.070,123.600 259.400 C 123.600 259.730,123.858 260.000,124.173 260.000 C 124.502 260.000,124.801 260.470,124.873 261.100 C 124.945 261.719,125.219 262.156,125.500 262.100 C 125.775 262.045,126.000 262.360,126.000 262.800 C 126.000 263.244,126.267 263.600,126.600 263.600 C 126.930 263.600,127.155 263.758,127.100 263.952 C 127.045 264.145,127.495 264.767,128.100 265.333 C 128.705 265.899,129.200 266.550,129.200 266.781 C 129.200 267.011,129.470 267.200,129.800 267.200 C 130.173 267.200,130.400 267.578,130.400 268.200 C 130.400 268.822,130.627 269.200,131.000 269.200 C 131.330 269.200,131.600 269.470,131.600 269.800 C 131.600 270.130,131.870 270.400,132.200 270.400 C 132.600 270.400,132.800 270.800,132.800 271.600 C 132.800 272.400,133.000 272.800,133.400 272.800 C 133.800 272.800,134.000 273.200,134.000 274.000 C 134.000 274.800,134.200 275.200,134.600 275.200 C 134.930 275.200,135.200 275.470,135.200 275.800 C 135.200 276.130,135.470 276.400,135.800 276.400 C 136.200 276.400,136.400 276.800,136.400 277.600 C 136.400 278.260,136.577 278.800,136.792 278.800 C 137.008 278.800,137.298 279.250,137.436 279.800 C 137.574 280.350,137.847 280.800,138.043 280.800 C 138.240 280.800,138.400 281.329,138.400 281.976 C 138.400 282.623,138.583 283.266,138.807 283.404 C 139.030 283.542,139.109 283.823,138.983 284.028 C 138.856 284.232,138.943 284.400,139.176 284.400 C 139.409 284.400,139.600 284.747,139.600 285.171 C 139.600 285.596,139.870 286.213,140.200 286.543 C 140.530 286.873,140.800 287.791,140.800 288.584 C 140.800 289.496,141.020 290.110,141.400 290.255 C 141.791 290.405,142.000 291.028,142.000 292.043 C 142.000 293.160,142.169 293.600,142.600 293.600 C 143.044 293.600,143.200 294.067,143.200 295.400 C 143.200 296.733,143.356 297.200,143.800 297.200 C 144.175 297.200,144.400 297.579,144.400 298.213 C 144.400 298.769,144.670 299.329,145.000 299.455 C 145.330 299.582,145.600 299.990,145.600 300.362 C 145.600 300.733,146.132 301.479,146.783 302.019 C 147.434 302.558,147.974 303.225,147.983 303.500 C 147.992 303.775,148.270 304.000,148.600 304.000 C 148.930 304.000,149.200 304.270,149.200 304.600 C 149.200 304.937,149.557 305.200,150.013 305.200 C 150.461 305.200,151.355 305.740,152.000 306.400 C 152.996 307.419,153.477 307.600,155.187 307.600 C 156.710 307.600,157.200 307.746,157.200 308.200 C 157.200 308.697,157.959 308.800,161.629 308.800 C 165.032 308.800,166.196 308.939,166.657 309.400 C 167.554 310.297,209.200 310.309,209.200 309.412 C 209.200 308.931,210.130 308.803,214.300 308.712 C 218.120 308.628,219.375 308.475,219.300 308.100 C 219.231 307.753,219.813 307.600,221.200 307.600 C 222.711 307.600,223.200 307.453,223.200 307.000 C 223.200 306.634,223.573 306.400,224.157 306.400 C 224.684 306.400,225.218 306.130,225.345 305.800 C 225.471 305.470,225.851 305.200,226.187 305.200 C 226.524 305.200,226.800 304.930,226.800 304.600 C 226.800 304.270,227.070 304.000,227.400 304.000 C 227.730 304.000,228.000 303.822,228.000 303.605 C 228.000 302.990,229.304 301.617,229.671 301.844 C 229.852 301.956,230.000 301.677,230.000 301.224 C 230.000 300.771,230.232 300.400,230.515 300.400 C 230.798 300.400,231.060 299.998,231.097 299.508 C 231.134 299.017,231.454 298.403,231.809 298.144 C 232.163 297.885,232.441 297.566,232.427 297.436 C 232.204 295.458,232.482 293.600,233.000 293.600 C 233.434 293.600,233.600 293.154,233.600 291.987 C 233.600 290.923,233.804 290.297,234.200 290.145 C 234.574 290.001,234.800 289.391,234.800 288.529 C 234.800 287.766,235.070 286.873,235.400 286.543 C 235.730 286.213,236.000 285.345,236.000 284.614 C 236.000 283.802,236.233 283.196,236.600 283.055 C 236.930 282.929,237.200 282.369,237.200 281.813 C 237.200 281.235,237.429 280.800,237.733 280.800 C 238.027 280.800,238.267 280.568,238.267 280.286 C 238.267 279.500,239.711 276.400,240.077 276.400 C 240.255 276.400,240.400 276.149,240.400 275.843 C 240.400 275.536,240.670 275.182,241.000 275.055 C 241.330 274.929,241.600 274.369,241.600 273.813 C 241.600 273.179,241.825 272.800,242.200 272.800 C 242.600 272.800,242.800 272.400,242.800 271.600 C 242.800 270.800,243.000 270.400,243.400 270.400 C 243.730 270.400,244.000 270.149,244.000 269.843 C 244.000 269.536,244.270 269.182,244.600 269.055 C 244.930 268.929,245.205 268.504,245.211 268.113 C 245.217 267.721,245.757 266.875,246.411 266.233 C 247.065 265.592,247.600 264.906,247.600 264.710 C 247.600 264.513,247.782 264.465,248.005 264.603 C 248.230 264.742,248.518 264.308,248.655 263.627 C 248.790 262.952,249.148 262.400,249.450 262.400 C 249.753 262.400,250.000 262.211,250.000 261.981 C 250.000 261.750,250.450 261.145,251.000 260.635 C 251.550 260.125,252.000 259.504,252.000 259.254 C 252.000 259.004,252.270 258.800,252.600 258.800 C 252.930 258.800,253.200 258.530,253.200 258.200 C 253.200 257.870,253.451 257.600,253.757 257.600 C 254.064 257.600,254.422 257.319,254.554 256.975 C 254.686 256.631,254.976 256.461,255.197 256.598 C 255.419 256.735,255.600 256.567,255.600 256.224 C 255.600 255.881,255.870 255.600,256.200 255.600 C 256.530 255.600,256.800 255.330,256.800 255.000 C 256.800 254.670,257.070 254.400,257.400 254.400 C 257.730 254.400,258.000 254.130,258.000 253.800 C 258.000 253.470,258.341 253.200,258.757 253.200 C 259.174 253.200,259.618 252.930,259.745 252.600 C 259.871 252.270,260.251 252.000,260.587 252.000 C 260.924 252.000,261.200 251.730,261.200 251.400 C 261.200 251.070,261.470 250.800,261.800 250.800 C 262.130 250.800,262.400 250.530,262.400 250.200 C 262.400 249.870,262.670 249.600,263.000 249.600 C 263.330 249.600,263.600 249.330,263.600 249.000 C 263.600 248.600,264.000 248.400,264.800 248.400 C 265.600 248.400,266.000 248.200,266.000 247.800 C 266.000 247.470,266.255 247.200,266.567 247.200 C 266.878 247.200,267.194 247.018,267.268 246.796 C 267.342 246.574,267.839 246.308,268.372 246.205 C 268.905 246.103,269.444 245.859,269.571 245.663 C 269.697 245.468,270.205 245.181,270.700 245.027 C 271.195 244.872,271.600 244.578,271.600 244.373 C 271.600 244.168,271.876 244.000,272.213 244.000 C 272.549 244.000,272.929 243.730,273.055 243.400 C 273.182 243.070,273.716 242.800,274.243 242.800 C 274.827 242.800,275.200 242.566,275.200 242.200 C 275.200 241.800,275.600 241.600,276.400 241.600 C 277.200 241.600,277.600 241.400,277.600 241.000 C 277.600 240.556,278.067 240.400,279.400 240.400 C 280.733 240.400,281.200 240.244,281.200 239.800 C 281.200 239.367,281.644 239.200,282.800 239.200 C 283.867 239.200,284.367 239.033,284.300 238.700 C 284.234 238.369,284.842 238.159,286.100 238.078 C 287.434 237.992,288.000 237.784,288.000 237.378 C 288.000 236.944,288.550 236.800,290.213 236.800 C 291.810 236.800,292.489 236.633,292.655 236.200 C 292.835 235.733,293.628 235.600,296.243 235.600 C 298.214 235.600,299.600 235.435,299.600 235.200 C 299.600 234.945,303.000 234.800,309.000 234.800 C 315.000 234.800,318.400 234.945,318.400 235.200 C 318.400 235.429,319.604 235.600,321.213 235.600 C 323.176 235.600,324.086 235.760,324.228 236.129 C 324.353 236.456,325.229 236.695,326.513 236.753 C 327.828 236.813,328.714 237.061,328.918 237.424 C 329.401 238.288,338.000 238.265,338.000 237.400 C 338.000 236.946,338.490 236.800,340.013 236.800 C 341.432 236.800,342.093 236.623,342.255 236.200 C 342.382 235.870,342.721 235.600,343.009 235.600 C 343.298 235.600,343.593 235.425,343.667 235.212 C 343.740 234.998,344.240 234.756,344.779 234.675 C 345.317 234.593,345.827 234.318,345.912 234.063 C 345.997 233.809,346.322 233.600,346.633 233.600 C 346.945 233.600,347.200 233.330,347.200 233.000 C 347.200 232.670,347.470 232.400,347.800 232.400 C 348.130 232.400,348.400 232.130,348.400 231.800 C 348.400 231.470,348.670 231.200,349.000 231.200 C 349.330 231.200,349.600 230.945,349.600 230.633 C 349.600 230.322,349.809 229.997,350.063 229.912 C 350.318 229.827,350.586 229.371,350.658 228.898 C 350.730 228.426,351.332 227.484,351.995 226.806 C 352.658 226.127,353.200 225.219,353.200 224.786 C 353.200 224.354,353.380 224.000,353.600 224.000 C 353.820 224.000,354.000 223.730,354.000 223.400 C 354.000 223.070,354.225 222.845,354.500 222.900 C 354.781 222.956,355.055 222.519,355.127 221.900 C 355.199 221.270,355.498 220.800,355.827 220.800 C 356.142 220.800,356.408 220.575,356.417 220.300 C 356.426 220.025,356.966 219.358,357.617 218.819 C 358.300 218.253,358.800 217.449,358.800 216.919 C 358.800 216.369,359.041 216.000,359.400 216.000 C 359.800 216.000,360.000 215.600,360.000 214.800 C 360.000 214.000,360.200 213.600,360.600 213.600 C 360.966 213.600,361.200 213.227,361.200 212.643 C 361.200 212.116,361.470 211.582,361.800 211.455 C 362.130 211.329,362.400 210.949,362.400 210.613 C 362.400 210.276,362.580 210.000,362.800 210.000 C 363.020 210.000,363.200 209.770,363.200 209.489 C 363.200 209.208,363.511 208.534,363.891 207.992 C 364.271 207.449,364.621 206.737,364.669 206.410 C 364.717 206.082,364.946 205.751,365.178 205.674 C 365.410 205.597,365.600 205.008,365.600 204.367 C 365.600 203.640,365.809 203.200,366.153 203.200 C 366.458 203.200,366.806 202.822,366.926 202.360 C 367.047 201.897,367.338 201.638,367.573 201.783 C 367.840 201.948,368.000 201.589,368.000 200.824 C 368.000 200.058,368.187 199.637,368.500 199.700 C 368.781 199.756,369.055 199.319,369.127 198.700 C 369.199 198.070,369.498 197.600,369.827 197.600 C 370.192 197.600,370.400 197.181,370.400 196.443 C 370.400 195.783,370.658 195.187,371.000 195.055 C 371.330 194.929,371.600 194.389,371.600 193.855 C 371.600 193.322,371.870 192.782,372.200 192.655 C 372.530 192.529,372.800 191.969,372.800 191.413 C 372.800 190.856,373.031 190.400,373.313 190.400 C 373.595 190.400,373.866 189.915,373.915 189.322 C 373.964 188.730,374.152 188.145,374.333 188.022 C 374.876 187.656,376.059 185.085,376.276 183.800 C 376.388 183.140,376.625 182.509,376.803 182.399 C 376.982 182.288,377.189 181.658,377.264 180.999 C 377.339 180.339,377.610 179.840,377.866 179.889 C 378.204 179.953,378.345 178.114,378.381 173.189 C 378.424 167.325,378.347 166.400,377.815 166.400 C 377.398 166.400,377.200 166.013,377.200 165.200 C 377.200 164.540,377.040 164.000,376.843 164.000 C 376.647 164.000,376.365 163.514,376.216 162.920 C 376.067 162.326,375.507 161.435,374.972 160.939 C 374.438 160.444,374.000 159.754,374.000 159.407 C 374.000 159.059,373.730 158.671,373.400 158.545 C 373.070 158.418,372.800 158.085,372.800 157.804 C 372.800 157.523,372.422 157.194,371.960 157.074 C 371.497 156.953,371.238 156.662,371.383 156.427 C 371.528 156.192,371.457 156.000,371.224 156.000 C 370.687 156.000,369.200 154.531,369.200 154.000 C 369.200 153.780,368.930 153.600,368.600 153.600 C 368.270 153.600,368.000 153.330,368.000 153.000 C 368.000 152.670,367.730 152.400,367.400 152.400 C 367.070 152.400,366.800 152.130,366.800 151.800 C 366.800 151.470,366.530 151.200,366.200 151.200 C 365.863 151.200,365.600 150.843,365.600 150.383 C 365.600 149.543,365.354 149.169,363.554 147.272 C 362.978 146.665,362.380 145.768,362.225 145.279 C 362.070 144.789,361.775 144.492,361.571 144.618 C 361.367 144.744,361.200 144.477,361.200 144.024 C 361.200 143.558,360.939 143.200,360.600 143.200 C 360.225 143.200,360.000 142.821,360.000 142.187 C 360.000 141.631,359.750 141.079,359.445 140.962 C 359.140 140.845,358.782 140.208,358.650 139.548 C 358.516 138.882,358.229 138.459,358.005 138.597 C 357.767 138.744,357.600 138.361,357.600 137.666 C 357.600 136.986,357.346 136.388,357.000 136.255 C 356.670 136.129,356.400 135.569,356.400 135.013 C 356.400 134.379,356.175 134.000,355.800 134.000 C 355.405 134.000,355.200 133.605,355.200 132.843 C 355.200 132.183,354.942 131.587,354.600 131.455 C 354.202 131.303,354.000 130.674,354.000 129.589 C 354.000 128.689,353.843 128.050,353.652 128.168 C 353.460 128.287,353.202 127.626,353.077 126.700 C 352.953 125.775,352.660 124.953,352.426 124.875 C 352.192 124.797,352.000 123.938,352.000 122.967 C 352.000 121.663,351.843 121.200,351.400 121.200 C 350.924 121.200,350.800 120.624,350.800 118.420 C 350.800 116.404,350.640 115.550,350.219 115.314 C 349.761 115.058,349.625 113.867,349.577 109.722 C 349.531 105.622,349.394 104.406,348.959 104.240 C 348.155 103.931,348.190 100.166,349.000 99.855 C 349.488 99.668,349.600 98.718,349.600 94.784 C 349.600 91.014,349.733 89.810,350.200 89.343 C 350.596 88.947,350.800 87.951,350.800 86.414 C 350.800 84.713,350.962 84.024,351.400 83.855 C 351.833 83.689,352.000 83.010,352.000 81.413 C 352.000 79.713,352.139 79.200,352.600 79.200 C 353.000 79.200,353.200 78.800,353.200 78.000 C 353.200 77.340,353.380 76.800,353.600 76.800 C 353.820 76.800,354.000 76.080,354.000 75.200 C 354.000 74.044,354.167 73.600,354.600 73.600 C 355.019 73.600,355.200 73.178,355.200 72.200 C 355.200 71.307,355.378 70.836,355.691 70.900 C 355.960 70.955,356.248 70.550,356.331 70.000 C 356.413 69.450,356.674 68.880,356.911 68.733 C 357.147 68.586,357.402 68.046,357.478 67.533 C 357.553 67.020,357.882 66.400,358.207 66.156 C 358.533 65.912,358.800 65.316,358.800 64.832 C 358.800 64.341,358.979 64.063,359.205 64.203 C 359.430 64.342,359.718 63.908,359.855 63.227 C 359.990 62.552,360.348 62.000,360.650 62.000 C 360.994 62.000,361.200 61.552,361.200 60.800 C 361.200 60.000,361.400 59.600,361.800 59.600 C 362.130 59.600,362.400 59.330,362.400 59.000 C 362.400 58.670,362.670 58.400,363.000 58.400 C 363.330 58.400,363.579 58.265,363.553 58.100 C 363.420 57.261,363.649 56.783,364.062 57.038 C 364.343 57.212,364.415 57.148,364.247 56.876 C 364.095 56.630,364.306 56.094,364.716 55.684 C 365.126 55.274,365.581 54.626,365.728 54.244 C 365.874 53.862,366.155 53.649,366.352 53.770 C 366.548 53.892,366.807 53.615,366.928 53.155 C 367.048 52.696,367.338 52.438,367.573 52.583 C 367.808 52.728,368.000 52.633,368.000 52.372 C 368.000 52.110,368.810 51.142,369.800 50.220 C 370.870 49.224,371.600 48.191,371.600 47.672 C 371.600 46.896,372.160 46.586,373.276 46.745 C 373.427 46.766,373.665 46.425,373.804 45.986 C 373.944 45.547,374.225 45.292,374.429 45.418 C 374.633 45.544,374.800 45.379,374.800 45.052 C 374.800 44.725,375.108 44.149,375.484 43.773 C 375.860 43.397,376.225 42.709,376.295 42.245 C 376.366 41.780,376.598 41.340,376.812 41.267 C 377.025 41.193,377.200 40.608,377.200 39.967 C 377.200 39.196,377.404 38.800,377.800 38.800 C 378.308 38.800,378.400 37.822,378.400 32.400 C 378.400 26.978,378.308 26.000,377.800 26.000 C 377.367 26.000,377.200 25.556,377.200 24.400 C 377.200 23.520,377.020 22.800,376.800 22.800 C 376.580 22.800,376.400 22.344,376.400 21.787 C 376.400 21.231,376.130 20.671,375.800 20.545 C 375.470 20.418,375.200 19.987,375.200 19.586 C 375.200 19.185,374.931 18.588,374.602 18.259 C 374.273 17.931,373.942 17.252,373.866 16.752 C 373.789 16.252,373.518 15.773,373.263 15.688 C 373.009 15.603,372.800 15.093,372.800 14.554 C 372.800 14.016,372.530 13.471,372.200 13.345 C 371.870 13.218,371.600 12.684,371.600 12.157 C 371.600 11.573,371.366 11.200,371.000 11.200 C 370.670 11.200,370.378 10.930,370.350 10.600 C 370.235 9.217,370.140 9.005,369.682 9.100 C 369.417 9.155,369.200 8.840,369.200 8.400 C 369.200 7.956,368.933 7.600,368.600 7.600 C 368.270 7.600,367.978 7.330,367.950 7.000 C 367.923 6.670,367.878 6.175,367.850 5.900 C 367.822 5.625,367.305 5.343,366.700 5.273 C 366.095 5.204,365.600 4.950,365.600 4.709 C 365.600 3.993,363.086 1.961,361.906 1.723 C 361.305 1.602,360.898 1.365,361.002 1.197 C 361.382 0.581,348.994 -0.493,348.400 0.105 M5.200 325.557 C 5.200 325.753,4.747 326.027,4.194 326.166 C 2.976 326.471,1.563 327.617,1.844 328.071 C 1.956 328.252,1.767 328.400,1.424 328.400 C 1.081 328.400,0.778 328.670,0.750 329.000 C 0.656 330.130,0.600 330.334,0.300 330.633 C -0.688 331.621,0.195 342.400,1.264 342.400 C 1.449 342.400,1.600 342.670,1.600 343.000 C 1.600 343.330,1.870 343.600,2.200 343.600 C 2.530 343.600,2.800 343.870,2.800 344.200 C 2.800 344.530,3.051 344.800,3.357 344.800 C 3.664 344.800,4.018 345.070,4.145 345.400 C 4.310 345.831,4.985 346.000,6.545 346.000 C 8.109 346.000,8.779 346.168,8.946 346.603 C 9.150 347.135,14.171 347.205,51.686 347.196 C 80.140 347.190,94.240 347.321,94.331 347.593 C 94.406 347.817,95.262 348.000,96.233 348.000 C 97.537 348.000,98.000 348.157,98.000 348.600 C 98.000 348.930,98.270 349.200,98.600 349.200 C 98.930 349.200,99.200 349.470,99.200 349.800 C 99.200 350.130,99.470 350.400,99.800 350.400 C 100.130 350.400,100.400 350.670,100.400 351.000 C 100.400 351.330,100.670 351.600,101.000 351.600 C 101.493 351.600,101.600 352.313,101.600 355.613 C 101.600 358.810,101.478 359.672,101.000 359.855 C 100.670 359.982,100.400 360.516,100.400 361.043 C 100.400 361.627,100.166 362.000,99.800 362.000 C 99.470 362.000,99.200 362.270,99.200 362.600 C 99.200 363.000,98.800 363.200,98.000 363.200 C 97.200 363.200,96.800 363.400,96.800 363.800 C 96.800 364.261,96.287 364.400,94.587 364.400 C 92.990 364.400,92.311 364.567,92.145 365.000 C 91.942 365.528,86.795 365.600,49.157 365.600 C 11.417 365.600,6.400 365.670,6.400 366.200 C 6.400 366.530,6.130 366.800,5.800 366.800 C 4.555 366.800,2.800 368.423,2.800 369.575 C 2.800 369.982,2.530 370.418,2.200 370.545 C 1.870 370.671,1.600 371.126,1.600 371.554 C 1.600 371.983,1.375 372.408,1.100 372.500 C -0.692 373.097,0.669 423.200,2.477 423.200 C 2.655 423.200,2.800 423.380,2.800 423.600 C 2.800 424.276,4.211 425.456,5.600 425.940 C 7.015 426.433,16.482 426.585,16.945 426.122 C 17.098 425.969,17.476 425.806,17.784 425.761 C 18.880 425.600,20.375 424.187,20.387 423.300 C 20.394 422.805,20.577 422.400,20.792 422.400 C 21.008 422.400,21.306 421.905,21.454 421.300 C 21.602 420.695,21.920 420.072,22.162 419.915 C 22.464 419.718,22.640 414.655,22.729 403.615 L 22.857 387.600 56.829 387.600 C 86.759 387.600,90.800 387.529,90.800 387.000 C 90.800 386.507,91.513 386.400,94.813 386.400 C 98.010 386.400,98.872 386.278,99.055 385.800 C 99.217 385.379,99.873 385.200,101.255 385.200 C 102.637 385.200,103.294 385.021,103.455 384.600 C 103.582 384.270,104.122 384.000,104.655 384.000 C 105.189 384.000,105.729 383.730,105.855 383.400 C 105.987 383.058,106.583 382.800,107.243 382.800 C 108.005 382.800,108.400 382.595,108.400 382.200 C 108.400 381.797,108.803 381.600,109.624 381.600 C 110.337 381.600,110.744 381.433,110.600 381.200 C 110.464 380.980,110.639 380.800,110.989 380.800 C 111.339 380.800,111.729 380.530,111.855 380.200 C 111.982 379.870,112.432 379.600,112.856 379.600 C 113.280 379.600,113.788 379.196,113.988 378.700 C 114.187 378.205,114.361 377.980,114.375 378.200 C 114.420 378.885,117.599 375.040,117.599 374.300 C 117.600 373.915,117.870 373.600,118.200 373.600 C 118.530 373.600,118.800 373.330,118.800 373.000 C 118.800 372.670,119.070 372.400,119.400 372.400 C 119.800 372.400,120.000 372.000,120.000 371.200 C 120.000 370.400,120.200 370.000,120.600 370.000 C 121.000 370.000,121.200 369.600,121.200 368.800 C 121.200 368.053,121.389 367.638,121.700 367.700 C 122.522 367.864,122.625 344.682,121.806 343.863 C 121.473 343.530,121.200 342.996,121.200 342.678 C 121.200 342.359,120.930 341.874,120.600 341.600 C 120.270 341.326,120.000 340.764,120.000 340.351 C 120.000 339.568,118.422 337.726,117.900 337.900 C 117.735 337.955,117.600 337.730,117.600 337.400 C 117.600 337.070,117.330 336.800,117.000 336.800 C 116.670 336.800,116.400 336.530,116.400 336.200 C 116.400 335.870,116.130 335.600,115.800 335.600 C 115.470 335.600,115.200 335.330,115.200 335.000 C 115.200 334.670,114.930 334.400,114.600 334.400 C 114.270 334.400,114.000 334.149,114.000 333.843 C 114.000 333.536,113.719 333.178,113.375 333.046 C 113.031 332.914,112.861 332.624,112.998 332.403 C 113.135 332.181,112.867 332.000,112.400 332.000 C 111.930 332.000,111.664 331.820,111.803 331.595 C 111.942 331.370,111.508 331.082,110.827 330.945 C 110.152 330.810,109.595 330.498,109.590 330.250 C 109.577 329.690,106.842 328.400,105.669 328.400 C 105.163 328.400,104.800 328.149,104.800 327.800 C 104.800 327.379,104.375 327.200,103.371 327.200 C 102.586 327.200,101.708 326.965,101.420 326.677 C 101.133 326.390,100.020 326.110,98.949 326.056 C 97.877 326.002,96.940 325.787,96.867 325.579 C 96.693 325.085,5.200 325.063,5.200 325.557 M165.367 325.593 C 165.150 325.810,164.107 326.020,163.049 326.060 C 161.870 326.104,161.045 326.339,160.919 326.666 C 160.797 326.986,160.084 327.200,159.145 327.200 C 158.118 327.200,157.495 327.408,157.345 327.800 C 157.213 328.142,156.617 328.400,155.957 328.400 C 155.195 328.400,154.800 328.605,154.800 329.000 C 154.800 329.330,154.462 329.600,154.049 329.600 C 153.636 329.600,153.074 329.870,152.800 330.200 C 152.526 330.530,151.983 330.800,151.594 330.800 C 151.204 330.800,150.782 331.070,150.655 331.400 C 150.529 331.730,150.149 332.000,149.813 332.000 C 149.476 332.000,149.200 332.270,149.200 332.600 C 149.200 332.930,148.930 333.200,148.600 333.200 C 148.270 333.200,148.000 333.470,148.000 333.800 C 148.000 334.130,147.730 334.400,147.400 334.400 C 147.070 334.400,146.800 334.670,146.800 335.000 C 146.800 335.330,146.530 335.600,146.200 335.600 C 145.870 335.600,145.600 335.870,145.600 336.200 C 145.600 336.530,145.422 336.800,145.205 336.800 C 144.502 336.800,143.200 338.157,143.200 338.889 C 143.200 339.280,142.885 339.947,142.500 340.371 C 141.005 342.019,140.800 342.406,140.800 343.583 C 140.800 344.398,140.602 344.800,140.200 344.800 C 139.462 344.800,139.270 405.749,140.007 406.204 C 140.230 406.342,140.309 406.623,140.183 406.828 C 140.056 407.032,140.143 407.200,140.376 407.200 C 140.609 407.200,140.800 407.631,140.800 408.157 C 140.800 408.684,141.070 409.218,141.400 409.345 C 141.730 409.471,142.000 410.011,142.000 410.545 C 142.000 411.078,142.270 411.618,142.600 411.745 C 142.930 411.871,143.200 412.251,143.200 412.587 C 143.200 412.924,143.470 413.200,143.800 413.200 C 144.130 413.200,144.400 413.541,144.400 413.957 C 144.400 414.374,144.670 414.818,145.000 414.945 C 145.330 415.071,145.600 415.451,145.600 415.787 C 145.600 416.124,145.851 416.400,146.157 416.400 C 146.464 416.400,146.818 416.670,146.945 417.000 C 147.071 417.330,147.641 417.600,148.211 417.600 C 148.781 417.600,149.142 417.771,149.012 417.980 C 148.883 418.189,149.148 418.558,149.600 418.800 C 150.052 419.042,150.317 419.411,150.188 419.620 C 150.058 419.829,150.329 420.000,150.789 420.000 C 151.249 420.000,151.729 420.270,151.855 420.600 C 151.982 420.930,152.432 421.200,152.855 421.200 C 153.279 421.200,153.729 421.470,153.855 421.800 C 153.982 422.130,154.522 422.400,155.055 422.400 C 155.589 422.400,156.129 422.670,156.255 423.000 C 156.405 423.391,157.028 423.600,158.043 423.600 C 159.160 423.600,159.600 423.769,159.600 424.200 C 159.600 424.654,160.092 424.800,161.629 424.800 C 162.893 424.800,163.882 425.025,164.254 425.397 C 165.242 426.385,254.588 426.288,256.581 425.296 C 257.350 424.913,257.985 424.465,257.990 424.300 C 258.005 423.851,259.540 422.400,260.000 422.400 C 260.220 422.400,260.400 422.207,260.400 421.971 C 260.400 421.736,260.650 421.293,260.956 420.987 C 261.818 420.125,261.875 410.800,261.018 410.800 C 260.674 410.800,260.400 410.458,260.400 410.029 C 260.400 409.604,260.130 408.987,259.800 408.657 C 259.470 408.327,259.200 407.864,259.200 407.629 C 259.200 407.393,258.949 407.200,258.643 407.200 C 258.336 407.200,257.982 406.930,257.855 406.600 C 257.729 406.270,257.189 406.000,256.655 406.000 C 256.122 406.000,255.583 405.733,255.458 405.407 C 255.259 404.889,249.950 404.813,213.115 404.804 C 185.629 404.797,170.954 404.656,170.867 404.397 C 170.793 404.179,169.778 404.000,168.609 404.000 C 167.091 404.000,166.420 403.829,166.255 403.400 C 166.121 403.049,165.521 402.800,164.813 402.800 C 164.078 402.800,163.639 402.610,163.700 402.318 C 163.795 401.860,163.583 401.765,162.200 401.650 C 161.811 401.618,161.600 401.178,161.600 400.400 C 161.600 399.600,161.400 399.200,161.000 399.200 C 160.473 399.200,160.400 396.289,160.400 375.400 C 160.400 354.511,160.473 351.600,161.000 351.600 C 161.330 351.600,161.600 351.330,161.600 351.000 C 161.600 350.670,161.870 350.400,162.200 350.400 C 162.530 350.400,162.800 350.130,162.800 349.800 C 162.800 349.470,163.070 349.200,163.400 349.200 C 163.730 349.200,164.000 348.930,164.000 348.600 C 164.000 348.154,164.469 348.000,165.824 348.000 C 166.937 348.000,167.551 347.844,167.400 347.600 C 167.152 347.199,169.722 347.006,173.040 347.177 C 174.095 347.232,174.906 347.037,175.312 346.631 C 175.878 346.065,180.048 346.000,215.943 346.000 C 250.965 346.000,256.018 345.925,256.543 345.400 C 256.873 345.070,257.336 344.800,257.571 344.800 C 257.807 344.800,258.000 344.530,258.000 344.200 C 258.000 343.870,258.270 343.600,258.600 343.600 C 258.930 343.600,259.200 343.330,259.200 343.000 C 259.200 342.670,259.470 342.400,259.800 342.400 C 260.130 342.400,260.400 342.145,260.400 341.833 C 260.400 341.522,260.624 341.192,260.898 341.101 C 262.689 340.504,261.358 328.420,259.500 328.403 C 259.335 328.401,259.200 328.130,259.200 327.800 C 259.200 327.470,258.945 327.200,258.633 327.200 C 258.322 327.200,258.006 327.018,257.932 326.796 C 257.858 326.574,257.349 326.306,256.800 326.200 C 256.251 326.094,255.742 325.826,255.668 325.604 C 255.485 325.054,165.917 325.043,165.367 325.593 M284.732 325.604 C 284.658 325.826,284.157 326.093,283.619 326.196 C 283.081 326.300,282.485 326.662,282.296 327.001 C 282.106 327.340,281.782 327.512,281.575 327.385 C 281.369 327.257,281.200 327.439,281.200 327.789 C 281.200 328.139,280.930 328.529,280.600 328.655 C 280.270 328.782,280.000 329.316,280.000 329.843 C 280.000 330.427,279.766 330.800,279.400 330.800 C 278.901 330.800,278.800 331.578,278.800 335.400 C 278.800 339.222,278.901 340.000,279.400 340.000 C 279.800 340.000,280.000 340.400,280.000 341.200 C 280.000 342.000,280.200 342.400,280.600 342.400 C 280.930 342.400,281.200 342.670,281.200 343.000 C 281.200 343.330,281.470 343.600,281.800 343.600 C 282.130 343.600,282.400 343.870,282.400 344.200 C 282.400 344.530,282.648 344.800,282.951 344.800 C 283.254 344.800,283.726 345.070,284.000 345.400 C 284.289 345.748,285.161 346.000,286.078 346.000 C 286.953 346.000,287.926 346.269,288.262 346.604 C 288.793 347.136,293.902 347.207,330.730 347.194 C 358.977 347.185,372.638 347.313,372.730 347.590 C 372.805 347.815,373.662 348.000,374.633 348.000 C 375.937 348.000,376.400 348.157,376.400 348.600 C 376.400 348.930,376.670 349.200,377.000 349.200 C 377.330 349.200,377.600 349.389,377.600 349.619 C 377.600 349.850,378.050 350.455,378.600 350.965 C 379.615 351.906,380.232 359.638,379.243 359.026 C 379.046 358.905,378.767 359.276,378.623 359.851 C 378.335 360.998,377.499 362.000,376.829 362.000 C 376.593 362.000,376.400 362.270,376.400 362.600 C 376.400 363.000,376.000 363.200,375.200 363.200 C 374.400 363.200,374.000 363.400,374.000 363.800 C 374.000 364.291,373.313 364.400,370.220 364.400 C 367.291 364.400,366.365 364.534,366.107 364.995 C 365.817 365.514,360.564 365.603,324.787 365.695 C 292.256 365.778,283.821 365.903,283.900 366.300 C 283.955 366.575,283.640 366.800,283.200 366.800 C 282.756 366.800,282.400 367.067,282.400 367.400 C 282.400 367.730,282.130 368.000,281.800 368.000 C 281.470 368.000,281.200 368.270,281.200 368.600 C 281.200 368.930,280.930 369.200,280.600 369.200 C 280.200 369.200,280.000 369.600,280.000 370.400 C 280.000 371.147,279.811 371.562,279.500 371.500 C 278.676 371.335,278.574 421.031,279.397 421.854 C 279.729 422.186,280.000 422.714,280.000 423.029 C 280.000 423.343,280.270 423.600,280.600 423.600 C 280.930 423.600,281.200 423.870,281.200 424.200 C 281.200 424.530,281.380 424.800,281.600 424.800 C 281.820 424.800,282.360 425.160,282.800 425.600 C 283.715 426.515,295.200 426.864,295.200 425.976 C 295.200 425.743,295.348 425.644,295.529 425.756 C 295.896 425.983,297.200 424.610,297.200 423.995 C 297.200 423.778,297.470 423.600,297.800 423.600 C 298.130 423.600,298.400 423.330,298.400 423.000 C 298.400 422.670,298.670 422.400,299.000 422.400 C 299.467 422.400,299.600 421.867,299.600 420.000 C 299.600 418.133,299.733 417.600,300.200 417.600 C 300.723 417.600,300.800 415.600,300.800 402.000 L 300.800 386.400 303.200 386.400 C 305.067 386.400,305.600 386.533,305.600 387.000 C 305.600 387.400,306.000 387.600,306.800 387.600 C 307.600 387.600,308.000 387.800,308.000 388.200 C 308.000 388.530,308.270 388.800,308.600 388.800 C 308.930 388.800,309.200 388.946,309.200 389.124 C 309.200 389.302,310.188 389.887,311.396 390.424 C 312.604 390.961,313.594 391.521,313.596 391.668 C 313.598 391.816,314.140 392.055,314.800 392.200 C 315.460 392.345,316.000 392.629,316.000 392.832 C 316.000 393.034,316.540 393.200,317.200 393.200 C 318.000 393.200,318.400 393.400,318.400 393.800 C 318.400 394.166,318.773 394.400,319.357 394.400 C 319.884 394.400,320.418 394.670,320.545 395.000 C 320.671 395.330,321.231 395.600,321.787 395.600 C 322.344 395.600,322.800 395.784,322.800 396.009 C 322.800 396.233,323.244 396.620,323.787 396.867 C 324.331 397.115,324.680 397.471,324.564 397.658 C 324.448 397.846,324.819 398.000,325.389 398.000 C 325.959 398.000,326.529 398.270,326.655 398.600 C 326.782 398.930,327.316 399.200,327.843 399.200 C 328.427 399.200,328.800 399.434,328.800 399.800 C 328.800 400.130,328.935 400.379,329.100 400.353 C 330.132 400.190,331.200 400.476,331.200 400.915 C 331.200 401.198,331.593 401.459,332.073 401.496 C 332.554 401.532,333.103 401.840,333.293 402.181 C 333.484 402.521,334.081 402.800,334.620 402.800 C 335.159 402.800,335.600 402.980,335.600 403.200 C 335.600 403.420,336.056 403.600,336.613 403.600 C 337.169 403.600,337.729 403.870,337.855 404.200 C 337.982 404.530,338.426 404.800,338.843 404.800 C 339.259 404.800,339.555 405.025,339.500 405.300 C 339.444 405.581,339.881 405.855,340.500 405.927 C 341.130 405.999,341.600 406.298,341.600 406.627 C 341.600 406.992,342.019 407.200,342.757 407.200 C 343.417 407.200,344.013 407.458,344.145 407.800 C 344.271 408.130,344.746 408.400,345.200 408.400 C 345.654 408.400,346.129 408.670,346.255 409.000 C 346.382 409.330,346.916 409.600,347.443 409.600 C 348.027 409.600,348.400 409.834,348.400 410.200 C 348.400 410.595,348.795 410.800,349.557 410.800 C 350.217 410.800,350.813 411.058,350.945 411.400 C 351.071 411.730,351.611 412.000,352.145 412.000 C 352.678 412.000,353.218 412.270,353.345 412.600 C 353.471 412.930,353.881 413.200,354.254 413.200 C 354.628 413.200,354.820 413.313,354.682 413.451 C 354.361 413.772,357.139 415.200,358.085 415.200 C 358.478 415.200,358.800 415.470,358.800 415.800 C 358.800 416.195,359.195 416.400,359.957 416.400 C 360.617 416.400,361.213 416.658,361.345 417.000 C 361.471 417.330,362.031 417.600,362.587 417.600 C 363.221 417.600,363.600 417.825,363.600 418.200 C 363.600 418.600,364.000 418.800,364.800 418.800 C 365.600 418.800,366.000 419.000,366.000 419.400 C 366.000 419.773,366.378 420.000,367.000 420.000 C 367.588 420.000,368.000 420.230,368.000 420.557 C 368.000 420.863,368.450 421.226,369.000 421.364 C 369.550 421.502,370.000 421.792,370.000 422.008 C 370.000 422.223,370.341 422.400,370.757 422.400 C 371.174 422.400,371.618 422.670,371.745 423.000 C 371.871 423.330,372.411 423.600,372.945 423.600 C 373.478 423.600,374.018 423.870,374.145 424.200 C 374.304 424.615,374.951 424.800,376.243 424.800 C 377.561 424.800,378.263 425.006,378.623 425.500 C 379.161 426.235,391.192 426.580,393.600 425.930 C 394.150 425.781,394.806 425.646,395.058 425.630 C 395.685 425.589,399.424 421.997,399.300 421.555 C 399.245 421.360,399.380 421.200,399.600 421.200 C 399.835 421.200,400.000 419.800,400.000 417.800 C 400.000 415.800,399.835 414.400,399.600 414.400 C 399.380 414.400,399.245 414.242,399.300 414.048 C 399.355 413.855,398.905 413.233,398.300 412.667 C 397.695 412.101,397.200 411.450,397.200 411.219 C 397.200 410.989,396.930 410.800,396.600 410.800 C 396.270 410.800,396.000 410.530,396.000 410.200 C 396.000 409.800,395.600 409.600,394.800 409.600 C 394.000 409.600,393.600 409.400,393.600 409.000 C 393.600 408.605,393.205 408.400,392.443 408.400 C 391.783 408.400,391.187 408.142,391.055 407.800 C 390.929 407.470,390.389 407.200,389.855 407.200 C 389.322 407.200,388.782 406.930,388.655 406.600 C 388.529 406.270,388.079 406.000,387.655 406.000 C 387.232 406.000,386.782 405.730,386.655 405.400 C 386.529 405.070,386.149 404.800,385.813 404.800 C 385.476 404.800,385.200 404.632,385.200 404.427 C 385.200 404.221,384.705 403.996,384.100 403.927 C 383.481 403.855,383.044 403.581,383.100 403.300 C 383.162 402.992,382.755 402.800,382.043 402.800 C 381.383 402.800,380.787 402.542,380.655 402.200 C 380.529 401.870,379.969 401.600,379.413 401.600 C 378.779 401.600,378.400 401.375,378.400 401.000 C 378.400 400.634,378.027 400.400,377.443 400.400 C 376.916 400.400,376.382 400.130,376.255 399.800 C 376.129 399.470,375.569 399.200,375.013 399.200 C 374.379 399.200,374.000 398.975,374.000 398.600 C 374.000 398.205,373.605 398.000,372.843 398.000 C 372.183 398.000,371.587 397.742,371.455 397.400 C 371.329 397.070,370.789 396.800,370.255 396.800 C 369.722 396.800,369.182 396.530,369.055 396.200 C 368.929 395.870,368.389 395.600,367.855 395.600 C 367.322 395.600,366.782 395.330,366.655 395.000 C 366.529 394.670,366.171 394.400,365.862 394.400 C 365.552 394.400,365.076 394.132,364.804 393.804 C 364.532 393.477,364.169 393.296,363.997 393.402 C 363.825 393.508,363.581 393.326,363.454 392.998 C 363.328 392.669,362.769 392.400,362.213 392.400 C 361.579 392.400,361.200 392.175,361.200 391.800 C 361.200 391.405,360.805 391.200,360.043 391.200 C 359.383 391.200,358.787 390.942,358.655 390.600 C 358.529 390.270,357.969 390.000,357.413 390.000 C 356.779 390.000,356.400 389.775,356.400 389.400 C 356.400 389.000,356.000 388.800,355.200 388.800 C 354.400 388.800,354.000 388.600,354.000 388.200 C 354.000 387.827,353.622 387.600,353.000 387.600 C 352.378 387.600,352.000 387.373,352.000 387.000 C 352.000 386.480,353.556 386.400,363.600 386.400 C 373.644 386.400,375.200 386.320,375.200 385.800 C 375.200 385.324,375.778 385.200,378.000 385.200 C 380.222 385.200,380.800 385.076,380.800 384.600 C 380.800 384.200,381.200 384.000,382.000 384.000 C 382.800 384.000,383.200 383.800,383.200 383.400 C 383.200 383.000,383.600 382.800,384.400 382.800 C 385.200 382.800,385.600 382.600,385.600 382.200 C 385.600 381.797,386.003 381.600,386.824 381.600 C 387.497 381.600,387.945 381.435,387.820 381.233 C 387.695 381.030,388.135 380.746,388.797 380.601 C 389.458 380.455,390.000 380.171,390.000 379.968 C 390.000 379.766,390.270 379.600,390.600 379.600 C 390.930 379.600,391.200 379.330,391.200 379.000 C 391.200 378.670,391.470 378.400,391.800 378.400 C 392.130 378.400,392.400 378.130,392.400 377.800 C 392.400 377.470,392.670 377.200,393.000 377.200 C 393.330 377.200,393.600 376.930,393.600 376.600 C 393.600 376.270,393.870 376.000,394.200 376.000 C 394.530 376.000,394.800 375.730,394.800 375.400 C 394.800 375.070,395.070 374.800,395.400 374.800 C 395.730 374.800,396.000 374.530,396.000 374.200 C 396.000 373.870,396.270 373.600,396.600 373.600 C 396.930 373.600,397.200 373.262,397.200 372.849 C 397.200 372.436,397.470 371.874,397.800 371.600 C 398.130 371.326,398.400 370.869,398.400 370.584 C 398.400 370.300,398.575 370.007,398.788 369.933 C 399.002 369.860,399.237 369.400,399.311 368.910 C 399.385 368.421,399.571 367.896,399.723 367.744 C 400.088 367.379,400.083 344.217,399.718 343.852 C 399.563 343.697,399.371 343.085,399.292 342.492 C 399.213 341.900,399.004 341.322,398.828 341.207 C 398.652 341.093,398.381 340.595,398.227 340.100 C 398.072 339.605,397.778 339.200,397.573 339.200 C 397.368 339.200,397.200 339.020,397.200 338.800 C 397.200 338.580,396.840 338.040,396.400 337.600 C 395.960 337.160,395.420 336.800,395.200 336.800 C 394.980 336.800,394.800 336.530,394.800 336.200 C 394.800 335.870,394.530 335.600,394.200 335.600 C 393.870 335.600,393.600 335.330,393.600 335.000 C 393.600 334.670,393.330 334.400,393.000 334.400 C 392.670 334.400,392.400 334.130,392.400 333.800 C 392.400 333.470,392.130 333.200,391.800 333.200 C 391.470 333.200,391.200 332.930,391.200 332.600 C 391.200 332.270,390.930 332.000,390.600 332.000 C 390.270 332.000,390.000 331.768,390.000 331.485 C 390.000 331.202,389.598 330.940,389.108 330.903 C 388.617 330.866,388.012 330.558,387.764 330.218 C 387.515 329.878,386.927 329.600,386.456 329.600 C 385.962 329.600,385.600 329.346,385.600 329.000 C 385.600 328.605,385.205 328.400,384.443 328.400 C 383.783 328.400,383.187 328.142,383.055 327.800 C 382.905 327.408,382.282 327.200,381.255 327.200 C 380.316 327.200,379.603 326.986,379.481 326.666 C 379.355 326.338,378.528 326.105,377.338 326.060 C 376.272 326.020,375.340 325.810,375.267 325.594 C 375.080 325.043,284.916 325.053,284.732 325.604 " stroke="none" fill="#4084c4" fill-rule="evenodd"></path><path id="path1" d="M283.600 29.000 C 283.600 29.330,283.330 29.600,283.000 29.600 C 282.670 29.600,282.400 29.851,282.400 30.157 C 282.400 30.464,282.130 30.818,281.800 30.945 C 281.470 31.071,281.200 31.611,281.200 32.145 C 281.200 32.678,280.930 33.218,280.600 33.345 C 280.177 33.507,280.000 34.168,280.000 35.587 C 280.000 37.110,279.854 37.600,279.400 37.600 C 278.897 37.600,278.800 38.444,278.800 42.800 C 278.800 47.156,278.897 48.000,279.400 48.000 C 279.775 48.000,280.000 48.379,280.000 49.013 C 280.000 49.569,280.270 50.129,280.600 50.255 C 280.930 50.382,281.200 50.736,281.200 51.043 C 281.200 51.349,281.470 51.600,281.800 51.600 C 282.200 51.600,282.400 52.000,282.400 52.800 C 282.400 53.600,282.600 54.000,283.000 54.000 C 283.373 54.000,283.600 54.378,283.600 55.000 C 283.600 55.622,283.827 56.000,284.200 56.000 C 284.644 56.000,284.800 56.467,284.800 57.800 C 284.800 59.133,284.956 59.600,285.400 59.600 C 285.730 59.600,286.000 59.950,286.000 60.379 C 286.000 60.807,286.450 62.004,287.000 63.038 C 287.550 64.073,288.000 65.329,288.000 65.831 C 288.000 66.333,288.270 67.013,288.600 67.343 C 288.930 67.673,289.200 68.406,289.200 68.971 C 289.200 69.619,289.422 70.000,289.800 70.000 C 290.244 70.000,290.400 70.467,290.400 71.800 C 290.400 73.133,290.556 73.600,291.000 73.600 C 291.434 73.600,291.600 74.046,291.600 75.213 C 291.600 76.277,291.804 76.903,292.200 77.055 C 292.653 77.229,292.800 77.961,292.800 80.043 C 292.800 82.227,292.925 82.800,293.400 82.800 C 293.876 82.800,294.000 83.379,294.000 85.613 C 294.000 87.744,294.145 88.481,294.600 88.655 C 295.089 88.843,295.200 89.805,295.200 93.843 C 295.200 97.983,295.299 98.800,295.800 98.800 C 296.300 98.800,296.400 99.600,296.400 103.600 C 296.400 107.600,296.300 108.400,295.800 108.400 C 295.294 108.400,295.200 109.306,295.200 114.157 C 295.200 118.906,295.095 119.955,294.600 120.145 C 294.137 120.323,294.000 121.096,294.000 123.545 C 294.000 125.993,293.863 126.767,293.400 126.945 C 292.967 127.111,292.800 127.790,292.800 129.387 C 292.800 131.087,292.661 131.600,292.200 131.600 C 291.741 131.600,291.600 132.106,291.600 133.757 C 291.600 135.306,291.431 135.979,291.000 136.145 C 290.604 136.297,290.400 136.923,290.400 137.987 C 290.400 139.154,290.234 139.600,289.800 139.600 C 289.356 139.600,289.200 140.067,289.200 141.400 C 289.200 142.733,289.044 143.200,288.600 143.200 C 288.200 143.200,288.000 143.600,288.000 144.400 C 288.000 145.060,287.822 145.600,287.605 145.600 C 287.387 145.600,287.094 146.320,286.954 147.200 C 286.813 148.080,286.541 148.800,286.349 148.800 C 286.157 148.800,286.000 149.147,286.000 149.571 C 286.000 149.996,285.730 150.613,285.400 150.943 C 285.070 151.273,284.800 152.006,284.800 152.571 C 284.800 153.219,284.578 153.600,284.200 153.600 C 283.800 153.600,283.600 154.000,283.600 154.800 C 283.600 155.600,283.400 156.000,283.000 156.000 C 282.627 156.000,282.400 156.378,282.400 157.000 C 282.400 157.622,282.173 158.000,281.800 158.000 C 281.467 158.000,281.200 158.356,281.200 158.800 C 281.200 159.244,280.933 159.600,280.600 159.600 C 280.227 159.600,280.000 159.978,280.000 160.600 C 280.000 161.222,279.773 161.600,279.400 161.600 C 279.000 161.600,278.800 162.000,278.800 162.800 C 278.800 163.600,278.600 164.000,278.200 164.000 C 277.870 164.000,277.600 164.251,277.600 164.557 C 277.600 164.864,277.330 165.218,277.000 165.345 C 276.670 165.471,276.400 166.031,276.400 166.587 C 276.400 167.221,276.175 167.600,275.800 167.600 C 275.470 167.600,275.200 167.804,275.200 168.054 C 275.200 168.304,274.750 168.925,274.200 169.435 C 273.650 169.945,273.200 170.730,273.200 171.181 C 273.200 171.642,272.938 172.000,272.600 172.000 C 272.270 172.000,272.000 172.270,272.000 172.600 C 272.000 172.930,271.730 173.200,271.400 173.200 C 271.070 173.200,270.800 173.470,270.800 173.800 C 270.800 174.130,270.530 174.400,270.200 174.400 C 269.870 174.400,269.600 174.670,269.600 175.000 C 269.600 175.330,269.330 175.600,269.000 175.600 C 268.670 175.600,268.400 175.774,268.400 175.986 C 268.400 176.199,267.860 176.925,267.200 177.600 C 266.540 178.275,266.000 179.002,266.000 179.214 C 266.000 179.427,265.280 180.300,264.400 181.154 C 263.520 182.008,262.800 182.907,262.800 183.153 C 262.800 183.399,262.387 183.600,261.881 183.600 C 261.351 183.600,260.547 184.100,259.981 184.783 C 259.442 185.434,258.775 185.974,258.500 185.983 C 258.225 185.992,258.000 186.270,258.000 186.600 C 258.000 186.930,257.730 187.200,257.400 187.200 C 257.070 187.200,256.800 187.470,256.800 187.800 C 256.800 188.130,256.530 188.400,256.200 188.400 C 255.870 188.400,255.600 188.670,255.600 189.000 C 255.600 189.330,255.330 189.600,255.000 189.600 C 254.670 189.600,254.400 189.870,254.400 190.200 C 254.400 190.573,254.022 190.800,253.400 190.800 C 252.850 190.800,252.400 190.980,252.400 191.200 C 252.400 191.420,252.130 191.600,251.800 191.600 C 251.470 191.600,251.200 191.870,251.200 192.200 C 251.200 192.530,250.930 192.800,250.600 192.800 C 250.270 192.800,250.000 193.070,250.000 193.400 C 250.000 193.775,249.621 194.000,248.987 194.000 C 248.431 194.000,247.871 194.270,247.745 194.600 C 247.618 194.930,247.264 195.200,246.957 195.200 C 246.651 195.200,246.400 195.470,246.400 195.800 C 246.400 196.200,246.000 196.400,245.200 196.400 C 244.400 196.400,244.000 196.600,244.000 197.000 C 244.000 197.373,243.622 197.600,243.000 197.600 C 242.378 197.600,242.000 197.827,242.000 198.200 C 242.000 198.530,241.724 198.800,241.387 198.800 C 241.051 198.800,240.671 199.070,240.545 199.400 C 240.418 199.730,239.884 200.000,239.357 200.000 C 238.773 200.000,238.400 200.234,238.400 200.600 C 238.400 200.978,238.019 201.200,237.371 201.200 C 236.806 201.200,236.073 201.470,235.743 201.800 C 235.413 202.130,234.796 202.400,234.371 202.400 C 233.947 202.400,233.600 202.580,233.600 202.800 C 233.600 203.020,233.144 203.200,232.587 203.200 C 232.031 203.200,231.471 203.470,231.345 203.800 C 231.218 204.130,230.703 204.400,230.200 204.400 C 229.697 204.400,229.182 204.670,229.055 205.000 C 228.903 205.396,228.277 205.600,227.213 205.600 C 226.046 205.600,225.600 205.766,225.600 206.200 C 225.600 206.634,225.154 206.800,223.987 206.800 C 222.923 206.800,222.297 207.004,222.145 207.400 C 222.013 207.742,221.417 208.000,220.757 208.000 C 219.995 208.000,219.600 208.205,219.600 208.600 C 219.600 209.061,219.089 209.200,217.400 209.200 C 215.711 209.200,215.200 209.339,215.200 209.800 C 215.200 210.267,214.667 210.400,212.800 210.400 C 210.933 210.400,210.400 210.533,210.400 211.000 C 210.400 211.486,209.756 211.600,207.000 211.600 C 204.244 211.600,203.600 211.714,203.600 212.200 C 203.600 212.703,202.756 212.800,198.400 212.800 C 195.200 212.800,193.200 212.954,193.200 213.200 C 193.200 213.449,190.933 213.600,187.200 213.600 C 183.467 213.600,181.200 213.449,181.200 213.200 C 181.200 212.957,179.400 212.800,176.600 212.800 C 172.778 212.800,172.000 212.699,172.000 212.200 C 172.000 211.714,171.356 211.600,168.600 211.600 C 165.844 211.600,165.200 211.486,165.200 211.000 C 165.200 210.533,164.667 210.400,162.800 210.400 C 160.933 210.400,160.400 210.267,160.400 209.800 C 160.400 209.367,159.956 209.200,158.800 209.200 C 157.644 209.200,157.200 209.033,157.200 208.600 C 157.200 208.156,156.733 208.000,155.400 208.000 C 154.067 208.000,153.600 207.844,153.600 207.400 C 153.600 206.956,153.133 206.800,151.800 206.800 C 150.467 206.800,150.000 206.644,150.000 206.200 C 150.000 205.769,149.560 205.600,148.443 205.600 C 147.428 205.600,146.805 205.391,146.655 205.000 C 146.529 204.670,145.969 204.400,145.413 204.400 C 144.779 204.400,144.400 204.175,144.400 203.800 C 144.400 203.422,144.019 203.200,143.371 203.200 C 142.806 203.200,142.073 202.930,141.743 202.600 C 141.413 202.270,140.796 202.000,140.371 202.000 C 139.947 202.000,139.600 201.820,139.600 201.600 C 139.600 201.380,139.060 201.200,138.400 201.200 C 137.600 201.200,137.200 201.000,137.200 200.600 C 137.200 200.227,136.822 200.000,136.200 200.000 C 135.578 200.000,135.200 199.773,135.200 199.400 C 135.200 199.070,134.949 198.800,134.643 198.800 C 134.336 198.800,133.982 198.530,133.855 198.200 C 133.729 197.870,133.169 197.600,132.613 197.600 C 131.979 197.600,131.600 197.375,131.600 197.000 C 131.600 196.670,131.330 196.400,131.000 196.400 C 130.670 196.400,130.400 196.130,130.400 195.800 C 130.400 195.400,130.000 195.200,129.200 195.200 C 128.400 195.200,128.000 195.000,128.000 194.600 C 128.000 194.270,127.749 194.000,127.443 194.000 C 127.136 194.000,126.782 193.730,126.655 193.400 C 126.529 193.070,126.141 192.800,125.793 192.800 C 125.446 192.800,124.745 192.350,124.235 191.800 C 123.725 191.250,123.149 190.792,122.954 190.783 C 122.759 190.774,122.158 190.234,121.619 189.583 C 121.053 188.900,120.249 188.400,119.719 188.400 C 119.169 188.400,118.800 188.159,118.800 187.800 C 118.800 187.470,118.530 187.200,118.200 187.200 C 117.870 187.200,117.600 186.930,117.600 186.600 C 117.600 186.270,117.330 186.000,117.000 186.000 C 116.670 186.000,116.400 185.730,116.400 185.400 C 116.400 185.070,116.130 184.800,115.800 184.800 C 115.470 184.800,115.200 184.530,115.200 184.200 C 115.200 183.870,114.930 183.600,114.600 183.600 C 114.270 183.600,114.000 183.330,114.000 183.000 C 114.000 182.670,113.760 182.400,113.468 182.400 C 113.175 182.400,112.694 181.950,112.400 181.400 C 112.106 180.850,111.625 180.400,111.332 180.400 C 111.040 180.400,110.800 180.130,110.800 179.800 C 110.800 179.470,110.530 179.200,110.200 179.200 C 109.870 179.200,109.600 178.930,109.600 178.600 C 109.600 178.270,109.330 178.000,109.000 178.000 C 108.670 178.000,108.400 177.730,108.400 177.400 C 108.400 177.070,108.130 176.800,107.800 176.800 C 107.470 176.800,107.200 176.530,107.200 176.200 C 107.200 175.870,106.930 175.600,106.600 175.600 C 106.270 175.600,106.000 175.330,106.000 175.000 C 106.000 174.670,105.730 174.400,105.400 174.400 C 105.025 174.400,104.800 174.021,104.800 173.387 C 104.800 172.831,104.530 172.271,104.200 172.145 C 103.870 172.018,103.600 171.745,103.600 171.538 C 103.600 171.331,103.175 170.765,102.656 170.281 C 102.136 169.796,101.584 168.995,101.429 168.500 C 101.273 168.005,100.978 167.600,100.773 167.600 C 100.568 167.600,100.400 167.330,100.400 167.000 C 100.400 166.670,100.130 166.400,99.800 166.400 C 99.425 166.400,99.200 166.021,99.200 165.387 C 99.200 164.831,98.930 164.271,98.600 164.145 C 98.270 164.018,98.000 163.664,98.000 163.357 C 98.000 163.051,97.730 162.800,97.400 162.800 C 97.070 162.800,96.800 162.530,96.800 162.200 C 96.800 161.870,96.530 161.600,96.200 161.600 C 95.800 161.600,95.600 161.200,95.600 160.400 C 95.600 159.600,95.400 159.200,95.000 159.200 C 94.627 159.200,94.400 158.822,94.400 158.200 C 94.400 157.578,94.173 157.200,93.800 157.200 C 93.470 157.200,93.200 156.930,93.200 156.600 C 93.200 156.249,92.826 155.993,92.300 155.983 C 91.805 155.974,90.958 155.434,90.419 154.783 C 89.853 154.100,89.049 153.600,88.519 153.600 C 87.969 153.600,87.600 153.359,87.600 153.000 C 87.600 152.556,87.133 152.400,85.800 152.400 C 84.467 152.400,84.000 152.244,84.000 151.800 C 84.000 151.307,83.289 151.200,80.000 151.200 C 76.711 151.200,76.000 151.307,76.000 151.800 C 76.000 152.200,75.600 152.400,74.800 152.400 L 73.600 152.400 73.600 155.013 C 73.600 156.966,73.751 157.683,74.200 157.855 C 74.530 157.982,74.800 158.522,74.800 159.055 C 74.800 159.589,75.070 160.129,75.400 160.255 C 75.742 160.387,76.000 160.983,76.000 161.643 C 76.000 162.405,76.205 162.800,76.600 162.800 C 76.966 162.800,77.200 163.173,77.200 163.757 C 77.200 164.284,77.470 164.818,77.800 164.945 C 78.130 165.071,78.400 165.451,78.400 165.787 C 78.400 166.124,78.670 166.400,79.000 166.400 C 79.373 166.400,79.600 166.778,79.600 167.400 C 79.600 167.950,79.766 168.400,79.968 168.400 C 80.171 168.400,80.455 168.940,80.600 169.600 C 80.745 170.260,81.029 170.800,81.232 170.800 C 81.434 170.800,81.600 171.070,81.600 171.400 C 81.600 171.730,81.870 172.000,82.200 172.000 C 82.600 172.000,82.800 172.400,82.800 173.200 C 82.800 174.000,83.000 174.400,83.400 174.400 C 83.730 174.400,84.000 174.731,84.000 175.136 C 84.000 175.541,84.810 176.730,85.800 177.778 C 86.790 178.826,87.600 180.025,87.600 180.442 C 87.600 180.859,87.870 181.200,88.200 181.200 C 88.530 181.200,88.800 181.470,88.800 181.800 C 88.800 182.130,89.070 182.400,89.400 182.400 C 89.730 182.400,90.000 182.670,90.000 183.000 C 90.000 183.330,90.270 183.600,90.600 183.600 C 90.975 183.600,91.200 183.979,91.200 184.613 C 91.200 185.169,91.470 185.729,91.800 185.855 C 92.130 185.982,92.400 186.261,92.400 186.474 C 92.400 187.006,95.831 190.400,96.368 190.400 C 96.606 190.400,96.800 190.670,96.800 191.000 C 96.800 191.330,97.070 191.600,97.400 191.600 C 97.730 191.600,98.000 191.870,98.000 192.200 C 98.000 192.530,98.270 192.800,98.600 192.800 C 98.930 192.800,99.200 193.070,99.200 193.400 C 99.200 193.730,99.470 194.000,99.800 194.000 C 100.130 194.000,100.400 194.270,100.400 194.600 C 100.400 194.930,100.670 195.200,101.000 195.200 C 101.330 195.200,101.600 195.470,101.600 195.800 C 101.600 196.130,101.870 196.400,102.200 196.400 C 102.530 196.400,102.800 196.599,102.800 196.842 C 102.800 197.356,107.453 202.000,107.967 202.000 C 108.158 202.000,108.418 202.270,108.545 202.600 C 108.671 202.930,109.231 203.200,109.787 203.200 C 110.421 203.200,110.800 203.425,110.800 203.800 C 110.800 204.130,111.070 204.400,111.400 204.400 C 111.730 204.400,112.000 204.670,112.000 205.000 C 112.000 205.330,112.270 205.600,112.600 205.600 C 112.930 205.600,113.200 205.870,113.200 206.200 C 113.200 206.551,113.574 206.807,114.100 206.817 C 114.595 206.826,115.442 207.366,115.981 208.017 C 116.547 208.700,117.351 209.200,117.881 209.200 C 118.431 209.200,118.800 209.441,118.800 209.800 C 118.800 210.130,119.051 210.400,119.357 210.400 C 119.664 210.400,120.018 210.670,120.145 211.000 C 120.271 211.330,120.749 211.600,121.207 211.600 C 121.664 211.600,122.455 212.050,122.965 212.600 C 123.502 213.179,124.335 213.600,124.946 213.600 C 125.616 213.600,126.000 213.818,126.000 214.200 C 126.000 214.573,126.378 214.800,127.000 214.800 C 127.622 214.800,128.000 215.027,128.000 215.400 C 128.000 215.800,128.400 216.000,129.200 216.000 C 130.000 216.000,130.400 216.200,130.400 216.600 C 130.400 217.000,130.800 217.200,131.600 217.200 C 132.400 217.200,132.800 217.400,132.800 217.800 C 132.800 218.200,133.200 218.400,134.000 218.400 C 134.800 218.400,135.200 218.600,135.200 219.000 C 135.200 219.400,135.600 219.600,136.400 219.600 C 137.200 219.600,137.600 219.800,137.600 220.200 C 137.600 220.566,137.973 220.800,138.557 220.800 C 139.084 220.800,139.618 221.070,139.745 221.400 C 139.897 221.796,140.523 222.000,141.587 222.000 C 142.754 222.000,143.200 222.166,143.200 222.600 C 143.200 223.035,143.648 223.200,144.829 223.200 C 145.743 223.200,146.720 223.463,147.057 223.800 C 147.387 224.130,148.184 224.400,148.829 224.400 C 149.473 224.400,150.000 224.580,150.000 224.800 C 150.000 225.020,150.810 225.200,151.800 225.200 C 153.133 225.200,153.600 225.356,153.600 225.800 C 153.600 226.267,154.133 226.400,156.000 226.400 C 157.867 226.400,158.400 226.533,158.400 227.000 C 158.400 227.461,158.913 227.600,160.613 227.600 C 162.210 227.600,162.889 227.767,163.055 228.200 C 163.235 228.667,164.028 228.800,166.643 228.800 C 169.360 228.800,170.000 228.914,170.000 229.400 C 170.000 229.924,172.179 230.000,187.213 230.000 C 202.144 230.000,204.456 229.920,204.655 229.400 C 204.839 228.923,205.694 228.800,208.843 228.800 C 212.094 228.800,212.800 228.693,212.800 228.200 C 212.800 227.739,213.311 227.600,215.000 227.600 C 216.689 227.600,217.200 227.461,217.200 227.000 C 217.200 226.533,217.733 226.400,219.600 226.400 C 221.467 226.400,222.000 226.267,222.000 225.800 C 222.000 225.333,222.533 225.200,224.400 225.200 C 225.720 225.200,226.800 225.036,226.800 224.835 C 226.800 224.634,227.520 224.349,228.400 224.200 C 229.280 224.051,230.000 223.766,230.000 223.565 C 230.000 223.364,230.540 223.200,231.200 223.200 C 232.000 223.200,232.400 223.000,232.400 222.600 C 232.400 222.166,232.846 222.000,234.013 222.000 C 235.077 222.000,235.703 221.796,235.855 221.400 C 235.987 221.058,236.583 220.800,237.243 220.800 C 238.005 220.800,238.400 220.595,238.400 220.200 C 238.400 219.827,238.778 219.600,239.400 219.600 C 240.022 219.600,240.400 219.373,240.400 219.000 C 240.400 218.600,240.800 218.400,241.600 218.400 C 242.400 218.400,242.800 218.200,242.800 217.800 C 242.800 217.366,243.246 217.200,244.413 217.200 C 245.477 217.200,246.103 216.996,246.255 216.600 C 246.382 216.270,246.897 216.000,247.400 216.000 C 247.903 216.000,248.418 215.730,248.545 215.400 C 248.671 215.070,249.051 214.800,249.387 214.800 C 249.724 214.800,250.000 214.530,250.000 214.200 C 250.000 213.827,250.378 213.600,251.000 213.600 C 251.550 213.600,252.000 213.420,252.000 213.200 C 252.000 212.980,252.270 212.800,252.600 212.800 C 252.930 212.800,253.200 212.530,253.200 212.200 C 253.200 211.800,253.600 211.600,254.400 211.600 C 255.200 211.600,255.600 211.400,255.600 211.000 C 255.600 210.625,255.979 210.400,256.613 210.400 C 257.169 210.400,257.729 210.130,257.855 209.800 C 257.982 209.470,258.336 209.200,258.643 209.200 C 258.949 209.200,259.200 208.930,259.200 208.600 C 259.200 208.264,259.557 208.000,260.013 208.000 C 260.459 208.000,260.929 207.730,261.055 207.400 C 261.182 207.070,261.536 206.800,261.843 206.800 C 262.149 206.800,262.400 206.530,262.400 206.200 C 262.400 205.870,262.670 205.600,263.000 205.600 C 263.330 205.600,263.600 205.330,263.600 205.000 C 263.600 204.600,264.000 204.400,264.800 204.400 C 265.600 204.400,266.000 204.200,266.000 203.800 C 266.000 203.470,266.270 203.200,266.600 203.200 C 266.930 203.200,267.200 202.930,267.200 202.600 C 267.200 202.270,267.404 202.000,267.654 202.000 C 267.904 202.000,268.525 201.550,269.035 201.000 C 269.545 200.450,270.150 200.000,270.381 200.000 C 270.611 200.000,270.800 199.730,270.800 199.400 C 270.800 199.070,271.070 198.800,271.400 198.800 C 271.730 198.800,272.000 198.530,272.000 198.200 C 272.000 197.870,272.270 197.600,272.600 197.600 C 272.930 197.600,273.200 197.330,273.200 197.000 C 273.200 196.664,273.557 196.400,274.013 196.400 C 274.459 196.400,274.929 196.130,275.055 195.800 C 275.182 195.470,275.536 195.200,275.843 195.200 C 276.149 195.200,276.400 194.930,276.400 194.600 C 276.400 194.270,276.670 194.000,277.000 194.000 C 277.330 194.000,277.600 193.749,277.600 193.443 C 277.600 193.136,277.870 192.782,278.200 192.655 C 278.530 192.529,278.800 191.969,278.800 191.413 C 278.800 190.779,279.025 190.400,279.400 190.400 C 279.730 190.400,280.000 190.220,280.000 190.000 C 280.000 189.780,280.270 189.600,280.600 189.600 C 280.930 189.600,281.200 189.330,281.200 189.000 C 281.200 188.670,281.470 188.400,281.800 188.400 C 282.130 188.400,282.400 188.130,282.400 187.800 C 282.400 187.470,282.670 187.200,283.000 187.200 C 283.330 187.200,283.600 187.011,283.600 186.781 C 283.600 186.550,284.050 185.945,284.600 185.435 C 285.179 184.898,285.600 184.065,285.600 183.454 C 285.600 182.784,285.818 182.400,286.200 182.400 C 286.530 182.400,286.800 182.130,286.800 181.800 C 286.800 181.470,287.070 181.200,287.400 181.200 C 287.730 181.200,288.000 180.930,288.000 180.600 C 288.000 180.270,288.270 180.000,288.600 180.000 C 288.973 180.000,289.200 179.622,289.200 179.000 C 289.200 178.378,289.427 178.000,289.800 178.000 C 290.130 178.000,290.400 177.730,290.400 177.400 C 290.400 177.070,290.670 176.800,291.000 176.800 C 291.330 176.800,291.600 176.552,291.600 176.249 C 291.600 175.946,291.870 175.474,292.200 175.200 C 292.530 174.926,292.800 174.364,292.800 173.951 C 292.800 173.538,293.070 173.200,293.400 173.200 C 293.800 173.200,294.000 172.800,294.000 172.000 C 294.000 171.200,294.200 170.800,294.600 170.800 C 294.930 170.800,295.200 170.545,295.200 170.233 C 295.200 169.922,295.335 169.607,295.500 169.533 C 295.997 169.312,297.200 166.790,297.200 165.968 C 297.200 165.545,297.470 165.200,297.800 165.200 C 298.200 165.200,298.400 164.800,298.400 164.000 C 298.400 163.200,298.600 162.800,299.000 162.800 C 299.400 162.800,299.600 162.400,299.600 161.600 C 299.600 160.800,299.800 160.400,300.200 160.400 C 300.600 160.400,300.800 160.000,300.800 159.200 C 300.800 158.400,301.000 158.000,301.400 158.000 C 301.766 158.000,302.000 157.627,302.000 157.043 C 302.000 156.516,302.270 155.982,302.600 155.855 C 302.930 155.729,303.200 155.191,303.200 154.662 C 303.200 154.132,303.470 153.474,303.800 153.200 C 304.130 152.926,304.400 152.113,304.400 151.394 C 304.400 150.600,304.636 149.995,305.000 149.855 C 305.396 149.703,305.600 149.077,305.600 148.013 C 305.600 146.846,305.766 146.400,306.200 146.400 C 306.631 146.400,306.800 145.960,306.800 144.843 C 306.800 143.828,307.009 143.205,307.400 143.055 C 307.796 142.903,308.000 142.277,308.000 141.213 C 308.000 140.326,308.180 139.600,308.400 139.600 C 308.622 139.600,308.800 138.533,308.800 137.200 C 308.800 135.333,308.933 134.800,309.400 134.800 C 309.876 134.800,310.000 134.222,310.000 132.000 C 310.000 129.778,310.124 129.200,310.600 129.200 C 311.086 129.200,311.200 128.554,311.200 125.787 C 311.200 123.123,311.332 122.324,311.800 122.145 C 312.708 121.796,312.708 87.600,311.800 87.600 C 311.311 87.600,311.200 86.933,311.200 84.000 C 311.200 81.067,311.089 80.400,310.600 80.400 C 310.124 80.400,310.000 79.822,310.000 77.600 C 310.000 75.378,309.876 74.800,309.400 74.800 C 308.940 74.800,308.800 74.292,308.800 72.624 C 308.800 71.427,308.620 70.336,308.400 70.200 C 308.180 70.064,308.000 69.328,308.000 68.564 C 308.000 67.698,307.774 67.088,307.400 66.945 C 306.993 66.788,306.800 66.150,306.800 64.957 C 306.800 63.662,306.642 63.200,306.200 63.200 C 305.766 63.200,305.600 62.754,305.600 61.587 C 305.600 60.523,305.396 59.897,305.000 59.745 C 304.609 59.595,304.400 58.972,304.400 57.957 C 304.400 56.840,304.231 56.400,303.800 56.400 C 303.400 56.400,303.200 56.000,303.200 55.200 C 303.200 54.400,303.000 54.000,302.600 54.000 C 302.200 54.000,302.000 53.600,302.000 52.800 C 302.000 52.000,301.800 51.600,301.400 51.600 C 301.000 51.600,300.800 51.200,300.800 50.400 C 300.800 49.600,300.600 49.200,300.200 49.200 C 299.800 49.200,299.600 48.800,299.600 48.000 C 299.600 47.200,299.400 46.800,299.000 46.800 C 298.627 46.800,298.400 46.422,298.400 45.800 C 298.400 45.178,298.173 44.800,297.800 44.800 C 297.400 44.800,297.200 44.400,297.200 43.600 C 297.200 42.940,297.020 42.400,296.800 42.400 C 296.580 42.400,296.400 42.053,296.400 41.629 C 296.400 41.204,296.130 40.587,295.800 40.257 C 295.470 39.927,295.200 39.464,295.200 39.229 C 295.200 38.993,294.930 38.800,294.600 38.800 C 294.225 38.800,294.000 38.421,294.000 37.787 C 294.000 37.231,293.730 36.671,293.400 36.545 C 293.070 36.418,292.800 35.968,292.800 35.545 C 292.800 35.121,292.530 34.671,292.200 34.545 C 291.870 34.418,291.600 34.064,291.600 33.757 C 291.600 33.451,291.330 33.200,291.000 33.200 C 290.670 33.200,290.400 32.930,290.400 32.600 C 290.400 32.270,290.130 32.000,289.800 32.000 C 289.400 32.000,289.200 31.600,289.200 30.800 C 289.200 30.000,289.000 29.600,288.600 29.600 C 288.270 29.600,288.000 29.330,288.000 29.000 C 288.000 28.539,287.489 28.400,285.800 28.400 C 284.111 28.400,283.600 28.539,283.600 29.000 M262.800 45.200 C 262.800 45.420,262.530 45.600,262.200 45.600 C 261.870 45.600,261.600 45.870,261.600 46.200 C 261.600 46.530,261.330 46.800,261.000 46.800 C 260.670 46.800,260.400 47.076,260.400 47.413 C 260.400 47.749,260.130 48.129,259.800 48.255 C 259.409 48.405,259.200 49.028,259.200 50.043 C 259.200 51.160,259.031 51.600,258.600 51.600 C 258.092 51.600,258.000 52.557,258.000 57.813 C 258.000 62.966,258.102 64.064,258.600 64.255 C 258.930 64.382,259.200 64.736,259.200 65.043 C 259.200 65.349,259.470 65.600,259.800 65.600 C 260.173 65.600,260.400 65.978,260.400 66.600 C 260.400 67.222,260.627 67.600,261.000 67.600 C 261.444 67.600,261.600 68.067,261.600 69.400 C 261.600 70.733,261.756 71.200,262.200 71.200 C 262.569 71.200,262.800 71.575,262.800 72.176 C 262.800 72.713,262.980 73.264,263.200 73.400 C 263.420 73.536,263.600 73.984,263.600 74.395 C 263.600 74.806,263.870 75.413,264.200 75.743 C 264.530 76.073,264.800 76.986,264.800 77.771 C 264.800 78.775,264.979 79.200,265.400 79.200 C 265.844 79.200,266.000 79.667,266.000 81.000 C 266.000 82.333,266.156 82.800,266.600 82.800 C 267.061 82.800,267.200 83.313,267.200 85.013 C 267.200 86.610,267.367 87.289,267.800 87.455 C 268.263 87.633,268.400 88.407,268.400 90.855 C 268.400 93.304,268.537 94.077,269.000 94.255 C 269.513 94.452,269.600 96.072,269.600 105.443 C 269.600 114.916,269.519 116.400,269.000 116.400 C 268.520 116.400,268.400 117.000,268.400 119.400 C 268.400 121.800,268.280 122.400,267.800 122.400 C 267.341 122.400,267.200 122.906,267.200 124.557 C 267.200 126.106,267.031 126.779,266.600 126.945 C 266.207 127.096,266.000 127.719,266.000 128.754 C 266.000 129.623,265.816 130.395,265.591 130.470 C 265.365 130.545,265.065 131.323,264.923 132.200 C 264.780 133.076,264.425 134.033,264.132 134.325 C 263.839 134.618,263.600 135.384,263.600 136.029 C 263.600 136.673,263.420 137.200,263.200 137.200 C 262.980 137.200,262.800 137.740,262.800 138.400 C 262.800 139.200,262.600 139.600,262.200 139.600 C 261.800 139.600,261.600 140.000,261.600 140.800 C 261.600 141.600,261.400 142.000,261.000 142.000 C 260.600 142.000,260.400 142.400,260.400 143.200 C 260.400 144.000,260.200 144.400,259.800 144.400 C 259.449 144.400,259.193 144.774,259.183 145.300 C 259.174 145.795,258.634 146.642,257.983 147.181 C 257.300 147.747,256.800 148.551,256.800 149.081 C 256.800 149.631,256.559 150.000,256.200 150.000 C 255.870 150.000,255.600 150.251,255.600 150.557 C 255.600 150.864,255.330 151.218,255.000 151.345 C 254.670 151.471,254.400 152.031,254.400 152.587 C 254.400 153.221,254.175 153.600,253.800 153.600 C 253.470 153.600,253.200 153.789,253.200 154.019 C 253.200 154.250,252.750 154.855,252.200 155.365 C 251.650 155.875,251.200 156.676,251.200 157.146 C 251.200 157.638,250.946 158.000,250.600 158.000 C 250.270 158.000,250.000 158.270,250.000 158.600 C 250.000 158.930,249.730 159.200,249.400 159.200 C 249.070 159.200,248.800 159.470,248.800 159.800 C 248.800 160.130,248.530 160.400,248.200 160.400 C 247.870 160.400,247.600 160.670,247.600 161.000 C 247.600 161.330,247.330 161.600,247.000 161.600 C 246.670 161.600,246.400 161.870,246.400 162.200 C 246.400 162.530,246.130 162.800,245.800 162.800 C 245.470 162.800,245.200 163.070,245.200 163.400 C 245.200 163.730,244.930 164.000,244.600 164.000 C 244.270 164.000,244.000 164.270,244.000 164.600 C 244.000 164.930,243.730 165.200,243.400 165.200 C 243.070 165.200,242.800 165.470,242.800 165.800 C 242.800 166.130,242.530 166.400,242.200 166.400 C 241.870 166.400,241.600 166.670,241.600 167.000 C 241.600 167.330,241.349 167.600,241.043 167.600 C 240.736 167.600,240.382 167.870,240.255 168.200 C 240.129 168.530,239.725 168.800,239.358 168.800 C 238.992 168.800,238.275 169.250,237.765 169.800 C 237.255 170.350,236.650 170.800,236.419 170.800 C 236.189 170.800,236.000 171.070,236.000 171.400 C 236.000 171.730,235.653 172.000,235.229 172.000 C 234.804 172.000,234.187 172.270,233.857 172.600 C 233.527 172.930,233.064 173.200,232.829 173.200 C 232.593 173.200,232.400 173.470,232.400 173.800 C 232.400 174.137,232.043 174.400,231.587 174.400 C 231.139 174.400,230.245 174.940,229.600 175.600 C 228.955 176.260,228.061 176.800,227.613 176.800 C 227.157 176.800,226.800 177.063,226.800 177.400 C 226.800 177.800,226.400 178.000,225.600 178.000 C 224.800 178.000,224.400 178.200,224.400 178.600 C 224.400 179.000,224.000 179.200,223.200 179.200 C 222.540 179.200,222.000 179.380,222.000 179.600 C 222.000 179.820,221.544 180.000,220.987 180.000 C 220.431 180.000,219.871 180.270,219.745 180.600 C 219.602 180.972,218.993 181.200,218.145 181.200 C 217.296 181.200,216.687 181.428,216.545 181.800 C 216.413 182.142,215.817 182.400,215.157 182.400 C 214.395 182.400,214.000 182.605,214.000 183.000 C 214.000 183.461,213.487 183.600,211.787 183.600 C 210.190 183.600,209.511 183.767,209.345 184.200 C 209.195 184.591,208.572 184.800,207.557 184.800 C 206.440 184.800,206.000 184.969,206.000 185.400 C 206.000 185.889,205.333 186.000,202.400 186.000 C 199.467 186.000,198.800 186.111,198.800 186.600 C 198.800 187.119,197.311 187.200,187.800 187.200 C 178.289 187.200,176.800 187.119,176.800 186.600 C 176.800 186.120,176.200 186.000,173.800 186.000 C 171.400 186.000,170.800 185.880,170.800 185.400 C 170.800 184.939,170.289 184.800,168.600 184.800 C 166.911 184.800,166.400 184.661,166.400 184.200 C 166.400 183.756,165.933 183.600,164.600 183.600 C 163.267 183.600,162.800 183.444,162.800 183.000 C 162.800 182.558,162.338 182.400,161.043 182.400 C 159.850 182.400,159.212 182.207,159.055 181.800 C 158.929 181.470,158.369 181.200,157.813 181.200 C 157.256 181.200,156.800 181.022,156.800 180.805 C 156.800 180.587,156.080 180.294,155.200 180.154 C 154.320 180.013,153.600 179.741,153.600 179.549 C 153.600 179.357,153.060 179.200,152.400 179.200 C 151.600 179.200,151.200 179.000,151.200 178.600 C 151.200 178.200,150.800 178.000,150.000 178.000 C 149.200 178.000,148.800 177.800,148.800 177.400 C 148.800 177.070,148.530 176.800,148.200 176.800 C 147.870 176.800,147.600 176.530,147.600 176.200 C 147.600 175.827,147.222 175.600,146.600 175.600 C 145.978 175.600,145.600 175.373,145.600 175.000 C 145.600 174.600,145.200 174.400,144.400 174.400 C 143.600 174.400,143.200 174.200,143.200 173.800 C 143.200 173.470,142.930 173.200,142.600 173.200 C 142.270 173.200,142.000 172.930,142.000 172.600 C 142.000 172.200,141.600 172.000,140.800 172.000 C 140.000 172.000,139.600 171.800,139.600 171.400 C 139.600 171.070,139.330 170.800,139.000 170.800 C 138.670 170.800,138.400 170.530,138.400 170.200 C 138.400 169.870,138.196 169.600,137.946 169.600 C 137.696 169.600,137.075 169.150,136.565 168.600 C 136.055 168.050,135.270 167.600,134.819 167.600 C 134.358 167.600,134.000 167.338,134.000 167.000 C 134.000 166.670,133.730 166.400,133.400 166.400 C 133.070 166.400,132.800 166.130,132.800 165.800 C 132.800 165.470,132.530 165.200,132.200 165.200 C 131.870 165.200,131.600 164.930,131.600 164.600 C 131.600 164.270,131.330 164.000,131.000 164.000 C 130.670 164.000,130.400 163.730,130.400 163.400 C 130.400 163.070,130.130 162.800,129.800 162.800 C 129.470 162.800,129.200 162.530,129.200 162.200 C 129.200 161.870,128.930 161.600,128.600 161.600 C 128.270 161.600,128.000 161.330,128.000 161.000 C 128.000 160.670,127.730 160.400,127.400 160.400 C 127.027 160.400,126.800 160.022,126.800 159.400 C 126.800 158.778,126.573 158.400,126.200 158.400 C 125.870 158.400,125.600 158.130,125.600 157.800 C 125.600 157.470,125.420 157.200,125.200 157.200 C 124.980 157.200,124.800 156.930,124.800 156.600 C 124.800 156.270,124.530 156.000,124.200 156.000 C 123.870 156.000,123.600 155.730,123.600 155.400 C 123.600 155.070,123.330 154.800,123.000 154.800 C 122.670 154.800,122.400 154.453,122.400 154.029 C 122.400 153.604,122.130 152.987,121.800 152.657 C 121.470 152.327,121.200 151.864,121.200 151.629 C 121.200 151.393,120.930 151.200,120.600 151.200 C 120.225 151.200,120.000 150.821,120.000 150.187 C 120.000 149.631,119.730 149.071,119.400 148.945 C 119.070 148.818,118.800 148.284,118.800 147.757 C 118.800 147.173,118.566 146.800,118.200 146.800 C 117.870 146.800,117.600 146.530,117.600 146.200 C 117.600 145.870,117.330 145.600,117.000 145.600 C 116.670 145.600,116.400 145.330,116.400 145.000 C 116.400 144.600,116.000 144.400,115.200 144.400 C 114.540 144.400,114.000 144.220,114.000 144.000 C 114.000 143.096,112.355 142.000,111.000 142.000 C 110.022 142.000,109.600 141.819,109.600 141.400 C 109.600 140.897,108.756 140.800,104.400 140.800 C 100.044 140.800,99.200 140.897,99.200 141.400 C 99.200 141.730,98.930 142.000,98.600 142.000 C 98.139 142.000,98.000 142.511,98.000 144.200 C 98.000 145.889,98.139 146.400,98.600 146.400 C 99.034 146.400,99.200 146.846,99.200 148.013 C 99.200 149.077,99.404 149.703,99.800 149.855 C 100.130 149.982,100.400 150.336,100.400 150.643 C 100.400 150.949,100.670 151.200,101.000 151.200 C 101.400 151.200,101.600 151.600,101.600 152.400 C 101.600 153.200,101.800 153.600,102.200 153.600 C 102.573 153.600,102.800 153.978,102.800 154.600 C 102.800 155.150,102.980 155.600,103.200 155.600 C 103.420 155.600,103.600 155.870,103.600 156.200 C 103.600 156.530,103.870 156.800,104.200 156.800 C 104.600 156.800,104.800 157.200,104.800 158.000 C 104.800 158.800,105.000 159.200,105.400 159.200 C 105.775 159.200,106.000 159.579,106.000 160.213 C 106.000 160.769,106.270 161.329,106.600 161.455 C 106.930 161.582,107.200 161.936,107.200 162.243 C 107.200 162.549,107.470 162.800,107.800 162.800 C 108.130 162.800,108.400 163.070,108.400 163.400 C 108.400 163.730,108.670 164.000,109.000 164.000 C 109.373 164.000,109.600 164.378,109.600 165.000 C 109.600 165.622,109.827 166.000,110.200 166.000 C 110.530 166.000,110.800 166.230,110.800 166.511 C 110.800 167.085,112.196 168.400,112.805 168.400 C 113.022 168.400,113.200 168.670,113.200 169.000 C 113.200 169.330,113.470 169.600,113.800 169.600 C 114.200 169.600,114.400 170.000,114.400 170.800 C 114.400 171.600,114.600 172.000,115.000 172.000 C 115.330 172.000,115.600 172.200,115.600 172.443 C 115.600 172.988,121.456 178.800,122.005 178.800 C 122.222 178.800,122.400 179.070,122.400 179.400 C 122.400 179.730,122.670 180.000,123.000 180.000 C 123.330 180.000,123.600 180.270,123.600 180.600 C 123.600 181.000,124.000 181.200,124.800 181.200 C 125.460 181.200,126.000 181.395,126.000 181.633 C 126.000 182.369,128.769 184.800,129.607 184.800 C 130.045 184.800,130.400 185.069,130.400 185.400 C 130.400 185.730,130.670 186.000,131.000 186.000 C 131.330 186.000,131.600 186.270,131.600 186.600 C 131.600 187.000,132.000 187.200,132.800 187.200 C 133.600 187.200,134.000 187.400,134.000 187.800 C 134.000 188.130,134.270 188.400,134.600 188.400 C 134.930 188.400,135.200 188.670,135.200 189.000 C 135.200 189.400,135.600 189.600,136.400 189.600 C 137.060 189.600,137.600 189.760,137.600 189.957 C 137.600 190.153,138.050 190.426,138.600 190.564 C 139.150 190.702,139.600 190.992,139.600 191.208 C 139.600 191.423,139.851 191.600,140.157 191.600 C 140.464 191.600,140.818 191.870,140.945 192.200 C 141.071 192.530,141.631 192.800,142.187 192.800 C 142.821 192.800,143.200 193.025,143.200 193.400 C 143.200 193.800,143.600 194.000,144.400 194.000 C 145.200 194.000,145.600 194.200,145.600 194.600 C 145.600 195.000,146.000 195.200,146.800 195.200 C 147.600 195.200,148.000 195.400,148.000 195.800 C 148.000 196.233,148.444 196.400,149.600 196.400 C 150.756 196.400,151.200 196.567,151.200 197.000 C 151.200 197.395,151.595 197.600,152.357 197.600 C 153.017 197.600,153.613 197.858,153.745 198.200 C 153.895 198.592,154.518 198.800,155.545 198.800 C 156.571 198.800,157.194 199.008,157.345 199.400 C 157.506 199.821,158.163 200.000,159.545 200.000 C 160.927 200.000,161.583 200.179,161.745 200.600 C 161.896 200.994,162.520 201.200,163.564 201.200 C 164.438 201.200,165.264 201.380,165.400 201.600 C 165.536 201.820,167.057 202.000,168.781 202.000 C 171.197 202.000,171.967 202.137,172.145 202.600 C 172.493 203.507,203.600 203.507,203.600 202.600 C 203.600 202.114,204.244 202.000,207.000 202.000 C 209.000 202.000,210.400 201.835,210.400 201.600 C 210.400 201.380,211.126 201.200,212.013 201.200 C 213.077 201.200,213.703 200.996,213.855 200.600 C 214.021 200.169,214.694 200.000,216.243 200.000 C 217.894 200.000,218.400 199.859,218.400 199.400 C 218.400 198.966,218.846 198.800,220.013 198.800 C 221.077 198.800,221.703 198.596,221.855 198.200 C 221.995 197.836,222.600 197.600,223.394 197.600 C 224.113 197.600,224.926 197.330,225.200 197.000 C 225.474 196.670,226.132 196.400,226.662 196.400 C 227.191 196.400,227.729 196.130,227.855 195.800 C 227.982 195.470,228.516 195.200,229.043 195.200 C 229.627 195.200,230.000 194.966,230.000 194.600 C 230.000 194.200,230.400 194.000,231.200 194.000 C 232.000 194.000,232.400 193.800,232.400 193.400 C 232.400 193.000,232.800 192.800,233.600 192.800 C 234.400 192.800,234.800 192.600,234.800 192.200 C 234.800 191.800,235.200 191.600,236.000 191.600 C 236.800 191.600,237.200 191.400,237.200 191.000 C 237.200 190.627,237.578 190.400,238.200 190.400 C 238.750 190.400,239.200 190.220,239.200 190.000 C 239.200 189.780,239.470 189.600,239.800 189.600 C 240.130 189.600,240.400 189.330,240.400 189.000 C 240.400 188.625,240.779 188.400,241.413 188.400 C 241.969 188.400,242.529 188.130,242.655 187.800 C 242.782 187.470,243.136 187.200,243.443 187.200 C 243.749 187.200,244.000 186.930,244.000 186.600 C 244.000 186.225,244.379 186.000,245.013 186.000 C 245.569 186.000,246.129 185.730,246.255 185.400 C 246.382 185.070,246.736 184.800,247.043 184.800 C 247.349 184.800,247.600 184.530,247.600 184.200 C 247.600 183.870,247.870 183.600,248.200 183.600 C 248.530 183.600,248.800 183.330,248.800 183.000 C 248.800 182.627,249.178 182.400,249.800 182.400 C 250.422 182.400,250.800 182.173,250.800 181.800 C 250.800 181.470,251.070 181.200,251.400 181.200 C 251.730 181.200,252.000 180.930,252.000 180.600 C 252.000 180.270,252.189 180.000,252.419 180.000 C 252.650 180.000,253.255 179.550,253.765 179.000 C 254.275 178.450,254.896 178.000,255.146 178.000 C 255.396 178.000,255.600 177.730,255.600 177.400 C 255.600 177.070,255.870 176.800,256.200 176.800 C 256.530 176.800,256.800 176.530,256.800 176.200 C 256.800 175.870,257.070 175.600,257.400 175.600 C 257.730 175.600,258.000 175.330,258.000 175.000 C 258.000 174.670,258.270 174.400,258.600 174.400 C 258.930 174.400,259.200 174.130,259.200 173.800 C 259.200 173.470,259.470 173.200,259.800 173.200 C 260.130 173.200,260.400 173.011,260.400 172.781 C 260.400 172.550,260.850 171.945,261.400 171.435 C 261.950 170.925,262.400 170.304,262.400 170.054 C 262.400 169.804,262.670 169.600,263.000 169.600 C 263.373 169.600,263.600 169.222,263.600 168.600 C 263.600 167.978,263.827 167.600,264.200 167.600 C 264.530 167.600,264.800 167.330,264.800 167.000 C 264.800 166.670,265.070 166.400,265.400 166.400 C 265.730 166.400,266.000 166.149,266.000 165.843 C 266.000 165.536,266.270 165.182,266.600 165.055 C 266.930 164.929,267.200 164.369,267.200 163.813 C 267.200 163.179,267.425 162.800,267.800 162.800 C 268.130 162.800,268.400 162.530,268.400 162.200 C 268.400 161.870,268.670 161.600,269.000 161.600 C 269.330 161.600,269.600 161.349,269.600 161.043 C 269.600 160.736,269.870 160.382,270.200 160.255 C 270.530 160.129,270.800 159.569,270.800 159.013 C 270.800 158.379,271.025 158.000,271.400 158.000 C 271.738 158.000,272.000 157.642,272.000 157.181 C 272.000 156.730,272.450 155.945,273.000 155.435 C 273.579 154.898,274.000 154.065,274.000 153.454 C 274.000 152.784,274.218 152.400,274.600 152.400 C 275.000 152.400,275.200 152.000,275.200 151.200 C 275.200 150.400,275.400 150.000,275.800 150.000 C 276.200 150.000,276.400 149.600,276.400 148.800 C 276.400 148.000,276.600 147.600,277.000 147.600 C 277.400 147.600,277.600 147.200,277.600 146.400 C 277.600 145.600,277.800 145.200,278.200 145.200 C 278.633 145.200,278.800 144.756,278.800 143.600 C 278.800 142.444,278.967 142.000,279.400 142.000 C 279.795 142.000,280.000 141.605,280.000 140.843 C 280.000 140.183,280.258 139.587,280.600 139.455 C 280.992 139.305,281.200 138.682,281.200 137.655 C 281.200 136.629,281.408 136.006,281.800 135.855 C 282.221 135.694,282.400 135.037,282.400 133.655 C 282.400 132.273,282.579 131.617,283.000 131.455 C 283.431 131.290,283.600 130.615,283.600 129.055 C 283.600 127.496,283.769 126.821,284.200 126.655 C 284.664 126.477,284.800 125.699,284.800 123.213 C 284.800 121.338,284.967 120.000,285.200 120.000 C 285.460 120.000,285.600 114.533,285.600 104.400 C 285.600 94.267,285.460 88.800,285.200 88.800 C 284.975 88.800,284.800 87.676,284.800 86.229 C 284.800 84.476,284.609 83.466,284.200 83.057 C 283.824 82.682,283.600 81.698,283.600 80.429 C 283.600 78.892,283.454 78.400,283.000 78.400 C 282.548 78.400,282.400 77.914,282.400 76.429 C 282.400 75.210,282.171 74.228,281.800 73.857 C 281.470 73.527,281.200 72.794,281.200 72.229 C 281.200 71.581,280.978 71.200,280.600 71.200 C 280.169 71.200,280.000 70.760,280.000 69.643 C 280.000 68.628,279.791 68.005,279.400 67.855 C 279.070 67.729,278.800 67.169,278.800 66.613 C 278.800 65.979,278.575 65.600,278.200 65.600 C 277.756 65.600,277.600 65.133,277.600 63.800 C 277.600 62.467,277.444 62.000,277.000 62.000 C 276.600 62.000,276.400 61.600,276.400 60.800 C 276.400 60.000,276.200 59.600,275.800 59.600 C 275.434 59.600,275.200 59.227,275.200 58.643 C 275.200 58.116,274.930 57.582,274.600 57.455 C 274.270 57.329,274.000 56.769,274.000 56.213 C 274.000 55.656,273.820 55.200,273.600 55.200 C 273.380 55.200,273.200 54.930,273.200 54.600 C 273.200 54.270,272.930 54.000,272.600 54.000 C 272.225 54.000,272.000 53.621,272.000 52.987 C 272.000 52.431,271.730 51.871,271.400 51.745 C 271.070 51.618,270.800 51.264,270.800 50.957 C 270.800 50.651,270.530 50.400,270.200 50.400 C 269.800 50.400,269.600 50.000,269.600 49.200 C 269.600 48.400,269.400 48.000,269.000 48.000 C 268.670 48.000,268.400 47.730,268.400 47.400 C 268.400 47.070,268.130 46.800,267.800 46.800 C 267.427 46.800,267.200 46.422,267.200 45.800 C 267.200 44.855,267.080 44.800,265.000 44.800 C 263.790 44.800,262.800 44.980,262.800 45.200 " stroke="none" fill="#44ac4c" fill-rule="evenodd"></path></g></svg>