<svg id="svg" version="1.1" xmlns="http://www.w3.org/2000/svg" xmlns:xlink="http://www.w3.org/1999/xlink" width="400" height="369.5014662756598" viewBox="0, 0, 400,369.5014662756598"><g id="svgg"><path id="path0" d="M279.852 0.370 C 279.852 0.573,279.603 0.739,279.298 0.739 C 278.993 0.739,278.743 0.989,278.743 1.294 C 278.743 1.599,278.585 1.848,278.392 1.848 C 277.707 1.848,276.155 3.609,276.155 4.386 C 276.155 4.841,275.921 5.176,275.601 5.176 C 275.293 5.176,275.046 5.504,275.046 5.915 C 275.046 6.326,274.800 6.654,274.492 6.654 C 274.187 6.654,273.937 6.904,273.937 7.209 C 273.937 7.514,273.688 7.763,273.383 7.763 C 273.044 7.763,272.828 8.108,272.828 8.648 C 272.828 9.135,272.579 9.628,272.274 9.746 C 271.969 9.863,271.719 10.213,271.719 10.524 C 271.719 10.836,271.530 11.091,271.299 11.091 C 270.633 11.091,269.131 12.904,269.131 13.709 C 269.131 14.112,268.882 14.537,268.577 14.654 C 268.272 14.771,268.022 15.098,268.022 15.382 C 268.022 15.665,267.773 15.896,267.468 15.896 C 267.163 15.896,266.913 16.146,266.913 16.451 C 266.913 16.756,266.664 17.006,266.359 17.006 C 266.054 17.006,265.804 17.320,265.804 17.705 C 265.804 18.090,265.555 18.501,265.250 18.618 C 264.945 18.735,264.695 19.252,264.695 19.767 C 264.695 20.456,264.500 20.702,263.956 20.702 C 263.545 20.702,263.216 20.949,263.216 21.257 C 263.216 21.562,262.967 21.811,262.662 21.811 C 262.357 21.811,262.107 22.041,262.107 22.321 C 262.107 22.601,261.858 23.037,261.553 23.290 C 261.248 23.543,260.998 24.063,260.998 24.445 C 260.998 24.826,260.749 25.139,260.444 25.139 C 260.139 25.139,259.889 25.393,259.889 25.705 C 259.889 26.016,259.640 26.367,259.335 26.484 C 259.030 26.601,258.780 26.928,258.780 27.211 C 258.780 27.495,258.530 27.726,258.226 27.726 C 257.875 27.726,257.671 28.079,257.671 28.685 C 257.671 29.333,257.431 29.707,256.932 29.837 C 256.525 29.944,256.192 30.183,256.192 30.370 C 256.192 30.556,255.693 31.197,255.083 31.793 C 254.428 32.433,253.974 33.260,253.974 33.814 C 253.974 34.400,253.767 34.750,253.420 34.750 C 253.115 34.750,252.865 35.000,252.865 35.305 C 252.865 35.610,252.616 35.860,252.311 35.860 C 252.006 35.860,251.756 36.109,251.756 36.414 C 251.756 36.719,251.543 36.969,251.283 36.969 C 251.022 36.969,250.600 37.426,250.344 37.985 C 249.398 40.052,248.982 40.665,248.526 40.665 C 248.269 40.665,248.059 40.915,248.059 41.220 C 248.059 41.525,247.810 41.774,247.505 41.774 C 247.158 41.774,246.950 42.125,246.950 42.710 C 246.950 43.225,246.701 43.742,246.396 43.859 C 246.091 43.976,245.841 44.303,245.841 44.587 C 245.841 44.870,245.591 45.102,245.287 45.102 C 244.982 45.102,244.727 45.310,244.722 45.564 C 244.716 45.818,244.212 46.516,243.601 47.115 C 242.991 47.715,242.395 48.588,242.278 49.056 C 242.160 49.524,241.833 49.908,241.550 49.908 C 241.267 49.908,241.035 50.157,241.035 50.462 C 241.035 50.767,240.786 51.017,240.481 51.017 C 240.176 51.017,239.926 51.332,239.926 51.716 C 239.926 52.101,239.677 52.512,239.372 52.629 C 239.067 52.746,238.817 53.263,238.817 53.778 C 238.817 54.363,238.609 54.713,238.262 54.713 C 237.957 54.713,237.708 54.963,237.708 55.268 C 237.708 55.573,237.490 55.823,237.223 55.823 C 236.627 55.823,235.120 57.799,235.120 58.580 C 235.120 58.893,234.871 59.150,234.566 59.150 C 234.258 59.150,234.011 59.478,234.011 59.889 C 234.011 60.300,233.765 60.628,233.457 60.628 C 233.152 60.628,232.902 60.878,232.902 61.183 C 232.902 61.488,232.652 61.738,232.348 61.738 C 231.978 61.738,231.793 62.107,231.793 62.847 C 231.793 63.586,231.608 63.956,231.238 63.956 C 230.933 63.956,230.684 64.186,230.684 64.467 C 230.684 64.748,230.351 65.065,229.945 65.172 C 229.538 65.278,229.205 65.612,229.205 65.915 C 229.205 66.217,228.956 66.560,228.651 66.677 C 228.346 66.794,228.096 67.311,228.096 67.826 C 228.096 68.411,227.888 68.762,227.542 68.762 C 227.237 68.762,226.987 69.011,226.987 69.316 C 226.987 69.621,226.738 69.871,226.433 69.871 C 226.128 69.871,225.878 70.120,225.878 70.425 C 225.878 70.730,225.628 70.980,225.323 70.980 C 224.954 70.980,224.769 71.349,224.769 72.089 C 224.769 72.805,224.581 73.198,224.239 73.198 C 223.948 73.198,223.604 73.530,223.475 73.937 C 223.346 74.344,223.002 74.677,222.711 74.677 C 222.419 74.677,222.181 74.926,222.181 75.231 C 222.181 75.536,221.932 75.786,221.627 75.786 C 221.319 75.786,221.072 76.114,221.072 76.525 C 221.072 76.932,220.909 77.264,220.709 77.264 C 220.510 77.264,220.242 77.680,220.115 78.189 C 219.987 78.697,219.651 79.113,219.368 79.113 C 219.085 79.113,218.854 79.445,218.854 79.852 C 218.854 80.263,218.608 80.591,218.299 80.591 C 217.994 80.591,217.745 80.758,217.745 80.961 C 217.745 81.165,217.412 81.664,217.006 82.070 C 216.599 82.477,216.266 83.059,216.266 83.364 C 216.266 83.669,216.017 83.919,215.712 83.919 C 215.407 83.919,215.157 84.150,215.157 84.434 C 215.157 84.717,214.908 85.044,214.603 85.161 C 214.298 85.278,214.048 85.611,214.048 85.901 C 214.048 86.190,213.799 86.523,213.494 86.640 C 213.189 86.757,212.939 87.274,212.939 87.789 C 212.939 88.374,212.731 88.725,212.384 88.725 C 212.079 88.725,211.830 88.974,211.830 89.279 C 211.830 89.584,211.580 89.834,211.275 89.834 C 210.970 89.834,210.721 90.083,210.721 90.388 C 210.721 90.693,210.551 90.943,210.343 90.943 C 210.136 90.943,209.765 91.400,209.519 91.959 C 209.274 92.518,208.861 93.109,208.603 93.272 C 208.345 93.434,208.133 93.809,208.133 94.103 C 208.133 94.398,207.884 94.640,207.579 94.640 C 207.274 94.640,207.024 94.889,207.024 95.194 C 207.024 95.499,206.774 95.749,206.470 95.749 C 206.100 95.749,205.915 96.118,205.915 96.858 C 205.915 97.597,205.730 97.967,205.360 97.967 C 205.055 97.967,204.806 98.216,204.806 98.521 C 204.806 98.826,204.556 99.076,204.251 99.076 C 203.943 99.076,203.697 99.404,203.697 99.815 C 203.697 100.231,203.450 100.555,203.133 100.555 C 202.802 100.555,202.478 101.013,202.348 101.664 C 202.226 102.274,201.897 102.773,201.617 102.773 C 201.338 102.773,201.109 103.022,201.109 103.327 C 201.109 103.632,200.845 103.882,200.522 103.882 C 198.508 103.882,200.267 106.707,211.432 121.406 C 217.470 129.356,223.593 137.440,225.038 139.372 C 226.483 141.303,229.189 144.880,231.050 147.320 C 232.911 149.760,236.112 153.990,238.164 156.720 C 240.215 159.450,242.179 162.028,242.528 162.450 C 243.433 163.542,257.845 182.717,258.173 183.265 C 258.541 183.879,260.251 181.569,228.692 223.088 C 199.609 261.348,198.959 262.280,200.534 263.432 C 200.850 263.663,201.109 264.042,201.109 264.274 C 201.109 264.505,201.345 264.695,201.634 264.695 C 201.923 264.695,202.269 265.194,202.403 265.804 C 202.537 266.414,202.883 266.913,203.172 266.913 C 203.461 266.913,203.697 267.163,203.697 267.468 C 203.697 267.773,203.946 268.022,204.251 268.022 C 204.556 268.022,204.806 268.277,204.806 268.588 C 204.806 268.900,205.055 269.250,205.360 269.367 C 205.665 269.484,205.915 269.983,205.915 270.476 C 205.915 270.969,206.165 271.468,206.470 271.585 C 206.774 271.702,207.024 272.030,207.024 272.313 C 207.024 272.596,207.274 272.828,207.579 272.828 C 207.884 272.828,208.133 273.078,208.133 273.383 C 208.133 273.688,208.369 273.937,208.658 273.937 C 208.947 273.937,209.293 274.436,209.427 275.046 C 209.561 275.656,209.907 276.155,210.196 276.155 C 210.485 276.155,210.721 276.488,210.721 276.895 C 210.721 277.305,210.967 277.634,211.275 277.634 C 211.580 277.634,211.830 277.884,211.830 278.189 C 211.830 278.494,212.079 278.743,212.384 278.743 C 212.689 278.743,212.939 279.064,212.939 279.456 C 212.939 279.848,213.189 280.419,213.494 280.724 C 213.799 281.029,214.048 281.456,214.048 281.674 C 214.048 281.892,214.298 282.070,214.603 282.070 C 214.908 282.070,215.157 282.264,215.157 282.501 C 215.157 282.738,215.399 283.196,215.694 283.518 C 215.990 283.840,216.572 284.478,216.988 284.935 C 217.404 285.393,217.745 286.017,217.745 286.322 C 217.745 286.627,217.994 286.876,218.299 286.876 C 218.604 286.876,218.854 287.126,218.854 287.431 C 218.854 287.736,219.104 287.985,219.409 287.985 C 219.713 287.985,219.963 288.217,219.963 288.500 C 219.963 288.783,220.213 289.111,220.518 289.228 C 220.823 289.345,221.072 289.804,221.072 290.249 C 221.072 291.038,223.692 293.900,224.415 293.900 C 224.610 293.900,224.769 294.399,224.769 295.009 C 224.769 295.749,224.954 296.118,225.323 296.118 C 225.632 296.118,225.878 296.447,225.878 296.858 C 225.878 297.268,226.124 297.597,226.433 297.597 C 226.738 297.597,226.987 297.847,226.987 298.152 C 226.987 298.457,227.237 298.706,227.542 298.706 C 227.888 298.706,228.096 299.057,228.096 299.642 C 228.096 300.157,228.346 300.673,228.651 300.791 C 228.956 300.908,229.205 301.235,229.205 301.518 C 229.205 301.802,229.538 302.033,229.945 302.033 C 230.437 302.033,230.684 302.280,230.684 302.773 C 230.684 303.183,230.930 303.512,231.238 303.512 C 231.585 303.512,231.793 303.862,231.793 304.448 C 231.793 304.963,232.043 305.479,232.348 305.596 C 232.652 305.713,232.902 306.041,232.902 306.324 C 232.902 306.607,233.152 306.839,233.457 306.839 C 233.762 306.839,234.011 307.089,234.011 307.394 C 234.011 307.699,234.261 307.948,234.566 307.948 C 234.871 307.948,235.120 308.256,235.120 308.631 C 235.120 309.007,235.453 309.697,235.860 310.166 C 236.266 310.635,236.599 311.160,236.599 311.332 C 236.599 311.504,236.848 311.645,237.153 311.645 C 237.458 311.645,237.708 311.895,237.708 312.200 C 237.708 312.505,237.957 312.754,238.262 312.754 C 238.567 312.754,238.817 313.067,238.817 313.448 C 238.817 313.830,239.067 314.349,239.372 314.603 C 239.677 314.856,239.926 315.292,239.926 315.572 C 239.926 315.852,240.176 316.081,240.481 316.081 C 240.786 316.081,241.035 316.336,241.035 316.647 C 241.035 316.959,241.285 317.309,241.590 317.426 C 241.895 317.543,242.144 317.873,242.144 318.158 C 242.144 318.443,242.477 318.961,242.884 319.309 C 243.290 319.658,243.623 320.155,243.623 320.415 C 243.623 320.675,243.872 320.887,244.177 320.887 C 244.482 320.887,244.732 321.137,244.732 321.442 C 244.732 321.747,244.982 321.996,245.287 321.996 C 245.595 321.996,245.841 322.325,245.841 322.736 C 245.841 323.146,246.087 323.475,246.396 323.475 C 246.742 323.475,246.950 323.825,246.950 324.411 C 246.950 324.926,247.200 325.442,247.505 325.559 C 247.810 325.677,248.059 326.004,248.059 326.287 C 248.059 326.570,248.309 326.802,248.614 326.802 C 248.919 326.802,249.168 327.052,249.168 327.357 C 249.168 327.662,249.405 327.911,249.693 327.911 C 249.982 327.911,250.328 328.410,250.462 329.020 C 250.596 329.630,250.942 330.129,251.231 330.129 C 251.520 330.129,251.756 330.462,251.756 330.869 C 251.756 331.280,252.002 331.608,252.311 331.608 C 252.616 331.608,252.865 331.858,252.865 332.163 C 252.865 332.468,253.115 332.717,253.420 332.717 C 253.766 332.717,253.974 333.068,253.974 333.653 C 253.974 334.168,254.224 334.685,254.529 334.802 C 254.834 334.919,255.083 335.246,255.083 335.529 C 255.083 335.813,255.333 336.044,255.638 336.044 C 255.943 336.044,256.192 336.288,256.192 336.586 C 256.192 336.884,256.525 337.305,256.932 337.523 C 257.338 337.741,257.671 338.251,257.671 338.657 C 257.671 339.063,257.921 339.490,258.226 339.608 C 258.530 339.725,258.780 340.052,258.780 340.335 C 258.780 340.619,259.030 340.850,259.335 340.850 C 259.640 340.850,259.889 341.100,259.889 341.405 C 259.889 341.710,260.139 341.959,260.444 341.959 C 260.749 341.959,260.998 342.280,260.998 342.672 C 260.998 343.064,261.248 343.635,261.553 343.940 C 261.858 344.245,262.110 344.631,262.114 344.798 C 262.123 345.241,263.805 346.765,264.285 346.765 C 264.511 346.765,264.695 347.186,264.695 347.701 C 264.695 348.216,264.945 348.733,265.250 348.850 C 265.555 348.967,265.804 349.276,265.804 349.538 C 265.804 349.799,266.054 350.109,266.359 350.226 C 266.664 350.343,266.913 350.694,266.913 351.005 C 266.913 351.316,267.163 351.571,267.468 351.571 C 267.773 351.571,268.022 351.821,268.022 352.126 C 268.022 352.431,268.272 352.680,268.577 352.680 C 268.903 352.680,269.134 353.022,269.138 353.512 C 269.144 354.364,270.574 356.007,271.309 356.007 C 271.535 356.007,271.719 356.340,271.719 356.747 C 271.719 357.158,271.965 357.486,272.274 357.486 C 272.620 357.486,272.828 357.837,272.828 358.422 C 272.828 358.937,273.078 359.454,273.383 359.571 C 273.688 359.688,273.937 360.015,273.937 360.298 C 273.937 360.582,274.187 360.813,274.492 360.813 C 274.797 360.813,275.046 361.063,275.046 361.368 C 275.046 361.673,275.296 361.922,275.601 361.922 C 275.906 361.922,276.155 362.230,276.155 362.605 C 276.155 362.981,276.488 363.672,276.895 364.140 C 277.301 364.609,277.634 365.134,277.634 365.306 C 277.634 365.478,277.884 365.619,278.189 365.619 C 278.494 365.619,278.743 365.869,278.743 366.174 C 278.743 366.479,278.993 366.728,279.298 366.728 C 279.628 366.728,279.852 367.068,279.852 367.570 C 279.852 369.841,275.389 369.686,340.670 369.686 L 400.000 369.686 400.000 368.207 C 400.000 367.394,399.834 366.728,399.630 366.728 C 399.427 366.728,399.261 366.479,399.261 366.174 C 399.261 365.869,399.011 365.619,398.706 365.619 C 398.401 365.619,398.152 365.370,398.152 365.065 C 398.152 364.760,397.902 364.510,397.597 364.510 C 397.250 364.510,397.043 364.160,397.043 363.573 C 397.043 363.020,396.589 362.193,395.933 361.553 C 395.323 360.956,394.824 360.297,394.824 360.086 C 394.824 359.876,394.588 359.704,394.299 359.704 C 394.010 359.704,393.664 359.205,393.530 358.595 C 393.397 357.985,393.051 357.486,392.762 357.486 C 392.473 357.486,392.237 357.237,392.237 356.932 C 392.237 356.627,391.987 356.377,391.682 356.377 C 391.374 356.377,391.128 356.048,391.128 355.638 C 391.128 355.227,390.881 354.898,390.573 354.898 C 390.226 354.898,390.018 354.548,390.018 353.963 C 390.018 353.448,389.769 352.931,389.464 352.814 C 389.159 352.697,388.909 352.369,388.909 352.086 C 388.909 351.803,388.660 351.571,388.355 351.571 C 388.050 351.571,387.800 351.322,387.800 351.017 C 387.800 350.709,387.472 350.462,387.061 350.462 C 386.486 350.462,386.322 350.216,386.322 349.353 C 386.322 348.614,386.137 348.244,385.767 348.244 C 385.459 348.244,385.213 347.915,385.213 347.505 C 385.213 347.094,384.966 346.765,384.658 346.765 C 384.353 346.765,384.104 346.516,384.104 346.211 C 384.104 345.906,383.854 345.656,383.549 345.656 C 383.244 345.656,382.994 345.335,382.994 344.943 C 382.994 344.551,382.745 343.981,382.440 343.676 C 382.135 343.371,381.885 342.943,381.885 342.725 C 381.885 342.507,381.636 342.329,381.331 342.329 C 381.026 342.329,380.776 342.064,380.776 341.740 C 380.776 341.416,380.444 341.064,380.037 340.957 C 379.630 340.851,379.298 340.529,379.298 340.241 C 379.298 339.953,379.048 339.622,378.743 339.505 C 378.438 339.388,378.189 338.894,378.189 338.408 C 378.189 337.868,377.972 337.523,377.634 337.523 C 377.329 337.523,377.079 337.274,377.079 336.969 C 377.079 336.664,376.830 336.414,376.525 336.414 C 376.217 336.414,375.970 336.085,375.970 335.675 C 375.970 335.264,375.724 334.935,375.416 334.935 C 375.089 334.935,374.859 334.594,374.855 334.104 C 374.848 333.251,373.419 331.608,372.684 331.608 C 372.458 331.608,372.274 331.359,372.274 331.054 C 372.274 330.749,372.024 330.499,371.719 330.499 C 371.354 330.499,371.165 330.134,371.165 329.430 C 371.165 328.820,370.926 328.269,370.610 328.147 C 370.305 328.030,370.055 327.680,370.055 327.368 C 370.055 327.057,369.806 326.802,369.501 326.802 C 369.196 326.802,368.946 326.553,368.946 326.248 C 368.946 325.943,368.697 325.693,368.392 325.693 C 368.087 325.693,367.837 325.368,367.837 324.972 C 367.837 324.575,367.255 323.685,366.543 322.993 C 365.832 322.302,365.250 321.546,365.250 321.312 C 365.250 321.078,365.000 320.887,364.695 320.887 C 364.348 320.887,364.140 320.537,364.140 319.951 C 364.140 319.437,363.891 318.920,363.586 318.803 C 363.281 318.686,363.031 318.358,363.031 318.075 C 363.031 317.792,362.782 317.560,362.477 317.560 C 362.172 317.560,361.922 317.311,361.922 317.006 C 361.922 316.701,361.686 316.451,361.397 316.451 C 361.108 316.451,360.765 315.966,360.635 315.373 C 360.505 314.780,360.159 314.203,359.867 314.091 C 359.574 313.978,359.335 313.632,359.335 313.320 C 359.335 313.009,359.085 312.754,358.780 312.754 C 358.475 312.754,358.226 312.505,358.226 312.200 C 358.226 311.895,358.018 311.644,357.763 311.642 C 357.509 311.640,356.975 310.895,356.576 309.987 C 356.177 309.079,355.636 308.254,355.374 308.154 C 355.112 308.054,354.898 307.717,354.898 307.405 C 354.898 307.094,354.649 306.839,354.344 306.839 C 354.039 306.839,353.789 306.590,353.789 306.285 C 353.789 305.977,353.461 305.730,353.050 305.730 C 352.475 305.730,352.311 305.484,352.311 304.621 C 352.311 303.882,352.126 303.512,351.756 303.512 C 351.451 303.512,351.201 303.262,351.201 302.957 C 351.201 302.652,350.952 302.403,350.647 302.403 C 350.339 302.403,350.092 302.074,350.092 301.664 C 350.092 301.253,349.846 300.924,349.538 300.924 C 349.191 300.924,348.983 300.574,348.983 299.988 C 348.983 299.474,348.734 298.957,348.429 298.840 C 348.124 298.723,347.874 298.395,347.874 298.112 C 347.874 297.829,347.625 297.597,347.320 297.597 C 347.015 297.597,346.765 297.348,346.765 297.043 C 346.765 296.734,346.437 296.488,346.026 296.488 C 345.457 296.488,345.287 296.242,345.287 295.418 C 345.287 294.809,345.048 294.257,344.732 294.136 C 344.427 294.019,344.177 293.669,344.177 293.357 C 344.177 293.046,343.928 292.791,343.623 292.791 C 343.318 292.791,343.068 292.542,343.068 292.237 C 343.068 291.932,342.819 291.682,342.514 291.682 C 342.167 291.682,341.959 291.332,341.959 290.746 C 341.959 290.232,341.710 289.715,341.405 289.598 C 341.100 289.481,340.847 289.195,340.844 288.962 C 340.836 288.429,339.220 286.876,338.672 286.876 C 338.447 286.876,338.262 286.455,338.262 285.940 C 338.262 285.426,338.013 284.909,337.708 284.792 C 337.403 284.675,337.153 284.347,337.153 284.064 C 337.153 283.781,336.904 283.549,336.599 283.549 C 336.294 283.549,336.044 283.299,336.044 282.994 C 336.044 282.689,335.795 282.440,335.490 282.440 C 335.185 282.440,334.935 282.119,334.935 281.727 C 334.935 281.335,334.686 280.764,334.381 280.459 C 334.076 280.154,333.826 279.787,333.826 279.644 C 333.826 279.269,332.006 277.634,331.589 277.634 C 331.396 277.634,331.238 277.322,331.238 276.940 C 331.238 276.558,330.989 276.039,330.684 275.786 C 330.379 275.532,330.129 275.091,330.129 274.804 C 330.129 274.518,329.880 274.188,329.575 274.071 C 329.270 273.954,329.020 273.626,329.020 273.343 C 329.020 273.060,328.771 272.828,328.466 272.828 C 328.161 272.828,327.911 272.596,327.911 272.313 C 327.911 272.030,327.662 271.702,327.357 271.585 C 327.052 271.468,326.802 271.019,326.802 270.587 C 326.802 270.112,326.510 269.725,326.063 269.608 C 325.656 269.502,325.323 269.179,325.323 268.892 C 325.323 268.604,325.074 268.273,324.769 268.156 C 324.464 268.039,324.214 267.711,324.214 267.428 C 324.214 267.145,323.965 266.913,323.660 266.913 C 323.290 266.913,323.105 266.543,323.105 265.804 C 323.105 265.065,322.921 264.695,322.551 264.695 C 322.246 264.695,321.996 264.445,321.996 264.140 C 321.996 263.835,321.747 263.586,321.442 263.586 C 321.137 263.586,320.887 263.336,320.887 263.031 C 320.887 262.726,320.638 262.477,320.333 262.477 C 320.024 262.477,319.778 262.148,319.778 261.734 C 319.778 261.325,319.445 260.706,319.039 260.358 C 318.632 260.010,318.299 259.512,318.299 259.252 C 318.299 258.993,318.050 258.780,317.745 258.780 C 317.440 258.780,317.190 258.530,317.190 258.226 C 317.190 257.921,316.941 257.671,316.636 257.671 C 316.289 257.671,316.081 257.321,316.081 256.735 C 316.081 256.220,315.832 255.704,315.527 255.587 C 315.222 255.470,314.972 255.137,314.972 254.847 C 314.972 254.558,314.723 254.225,314.418 254.108 C 314.113 253.991,313.863 253.663,313.863 253.380 C 313.863 253.097,313.614 252.865,313.309 252.865 C 313.004 252.865,312.754 252.614,312.754 252.307 C 312.754 252.000,312.421 251.464,312.015 251.116 C 311.608 250.768,311.275 250.270,311.275 250.010 C 311.275 249.750,311.026 249.538,310.721 249.538 C 310.416 249.538,310.166 249.297,310.166 249.002 C 310.166 248.707,309.958 248.333,309.704 248.170 C 309.185 247.838,308.494 246.807,307.957 245.564 C 307.759 245.106,307.426 244.732,307.218 244.732 C 307.010 244.732,306.839 244.482,306.839 244.177 C 306.839 243.872,306.590 243.623,306.285 243.623 C 305.980 243.623,305.730 243.413,305.730 243.157 C 305.730 242.901,305.397 242.484,304.991 242.230 C 304.584 241.976,304.251 241.432,304.251 241.020 C 304.251 240.609,304.002 240.177,303.697 240.060 C 303.392 239.943,303.142 239.615,303.142 239.332 C 303.142 239.049,302.893 238.817,302.588 238.817 C 302.283 238.817,302.033 238.567,302.033 238.262 C 302.033 237.957,301.784 237.708,301.479 237.708 C 301.132 237.708,300.924 237.358,300.924 236.772 C 300.924 236.257,300.675 235.741,300.370 235.624 C 300.065 235.506,299.815 235.240,299.815 235.031 C 299.815 234.567,298.065 232.902,297.578 232.902 C 297.385 232.902,297.227 232.481,297.227 231.966 C 297.227 231.452,296.978 230.935,296.673 230.818 C 296.368 230.701,296.118 230.373,296.118 230.090 C 296.118 229.807,295.869 229.575,295.564 229.575 C 295.259 229.575,295.009 229.325,295.009 229.020 C 295.009 228.715,294.858 228.466,294.673 228.466 C 294.487 228.466,293.963 227.695,293.507 226.753 C 293.050 225.811,292.370 224.959,291.995 224.861 C 291.619 224.763,291.312 224.453,291.312 224.171 C 291.312 223.890,291.063 223.660,290.758 223.660 C 290.411 223.660,290.203 223.309,290.203 222.724 C 290.203 222.209,289.954 221.692,289.649 221.575 C 289.344 221.458,289.094 221.126,289.094 220.836 C 289.094 220.546,288.845 220.214,288.540 220.097 C 288.235 219.980,287.985 219.652,287.985 219.369 C 287.985 219.086,287.736 218.854,287.431 218.854 C 287.126 218.854,286.876 218.622,286.876 218.339 C 286.876 218.056,286.627 217.728,286.322 217.611 C 286.017 217.494,285.767 217.045,285.767 216.613 C 285.767 216.138,285.474 215.751,285.028 215.634 C 284.619 215.527,284.288 215.130,284.288 214.744 C 284.288 214.361,284.039 214.048,283.734 214.048 C 283.429 214.048,283.179 213.799,283.179 213.494 C 283.179 213.189,282.930 212.939,282.625 212.939 C 282.255 212.939,282.070 212.569,282.070 211.830 C 282.070 211.091,281.885 210.721,281.516 210.721 C 281.211 210.721,280.961 210.471,280.961 210.166 C 280.961 209.861,280.712 209.612,280.407 209.612 C 280.102 209.612,279.852 209.362,279.852 209.057 C 279.852 208.752,279.621 208.503,279.339 208.503 C 279.045 208.503,278.722 207.950,278.583 207.209 C 278.437 206.434,278.124 205.915,277.802 205.915 C 277.506 205.915,277.264 205.665,277.264 205.360 C 277.264 205.055,277.015 204.806,276.710 204.806 C 276.405 204.806,276.155 204.556,276.155 204.251 C 276.155 203.946,275.906 203.697,275.601 203.697 C 275.231 203.697,275.046 203.327,275.046 202.588 C 275.046 201.848,274.861 201.479,274.492 201.479 C 274.187 201.479,273.937 201.224,273.937 200.913 C 273.937 200.601,273.688 200.251,273.383 200.134 C 273.078 200.017,272.828 199.689,272.828 199.406 C 272.828 199.123,272.574 198.891,272.264 198.891 C 271.934 198.891,271.609 198.432,271.479 197.782 C 271.357 197.172,271.028 196.673,270.749 196.673 C 270.469 196.673,270.240 196.423,270.240 196.118 C 270.240 195.813,269.991 195.564,269.686 195.564 C 269.381 195.564,269.131 195.309,269.131 194.998 C 269.131 194.686,268.882 194.336,268.577 194.219 C 268.272 194.102,268.022 193.711,268.022 193.351 C 268.022 192.991,267.773 192.490,267.468 192.237 C 267.163 191.983,266.913 191.547,266.913 191.267 C 266.913 190.987,266.664 190.758,266.359 190.758 C 266.054 190.758,265.804 190.508,265.804 190.203 C 265.804 189.895,265.475 189.649,265.065 189.649 C 264.520 189.649,264.325 189.402,264.325 188.713 C 264.325 188.198,264.076 187.681,263.771 187.564 C 263.466 187.447,263.216 187.037,263.216 186.652 C 263.216 186.267,262.967 185.952,262.662 185.952 C 262.357 185.952,262.107 185.702,262.107 185.397 C 262.107 185.092,261.858 184.843,261.553 184.843 C 261.188 184.843,260.998 184.478,260.998 183.773 C 260.998 183.164,261.237 182.612,261.553 182.491 C 261.858 182.374,262.107 182.024,262.107 181.712 C 262.107 181.401,262.357 181.146,262.662 181.146 C 263.031 181.146,263.216 180.776,263.216 180.037 C 263.216 179.298,263.401 178.928,263.771 178.928 C 264.076 178.928,264.325 178.678,264.325 178.373 C 264.325 178.068,264.533 177.816,264.787 177.812 C 265.351 177.805,266.913 176.209,266.913 175.641 C 266.913 175.416,267.066 175.231,267.253 175.231 C 267.441 175.231,267.703 174.732,267.837 174.122 C 267.971 173.512,268.317 173.013,268.606 173.013 C 268.895 173.013,269.131 172.763,269.131 172.458 C 269.131 172.153,269.381 171.904,269.686 171.904 C 269.991 171.904,270.240 171.663,270.240 171.368 C 270.240 171.073,270.452 170.699,270.710 170.536 C 270.969 170.373,271.381 169.783,271.626 169.224 C 271.872 168.665,272.243 168.207,272.450 168.207 C 272.658 168.207,272.828 167.957,272.828 167.652 C 272.828 167.348,273.078 167.098,273.383 167.098 C 273.688 167.098,273.937 166.866,273.937 166.583 C 273.937 166.300,274.187 165.972,274.492 165.855 C 274.797 165.738,275.046 165.221,275.046 164.707 C 275.046 164.121,275.254 163.771,275.601 163.771 C 275.906 163.771,276.155 163.521,276.155 163.216 C 276.155 162.911,276.405 162.662,276.710 162.662 C 277.018 162.662,277.264 162.333,277.264 161.922 C 277.264 161.516,277.501 161.183,277.789 161.183 C 278.078 161.183,278.424 160.684,278.558 160.074 C 278.692 159.464,279.038 158.965,279.327 158.965 C 279.616 158.965,279.852 158.715,279.852 158.410 C 279.852 158.105,280.102 157.856,280.407 157.856 C 280.712 157.856,280.961 157.624,280.961 157.341 C 280.961 157.058,281.211 156.730,281.516 156.613 C 281.821 156.496,282.070 156.083,282.070 155.695 C 282.070 155.306,282.320 154.782,282.625 154.529 C 282.930 154.276,283.179 153.839,283.179 153.559 C 283.179 153.279,283.429 153.050,283.734 153.050 C 284.039 153.050,284.288 152.800,284.288 152.495 C 284.288 152.190,284.522 151.941,284.807 151.941 C 285.092 151.941,285.499 151.442,285.712 150.832 C 285.924 150.222,286.273 149.723,286.487 149.723 C 286.701 149.723,286.876 149.491,286.876 149.208 C 286.876 148.925,287.126 148.597,287.431 148.480 C 287.736 148.363,287.985 148.012,287.985 147.701 C 287.985 147.390,288.235 147.135,288.540 147.135 C 288.845 147.135,289.094 146.906,289.094 146.626 C 289.094 146.346,289.344 145.909,289.649 145.656 C 289.954 145.403,290.203 144.884,290.203 144.502 C 290.203 144.120,290.453 143.808,290.758 143.808 C 291.063 143.808,291.312 143.578,291.312 143.296 C 291.312 143.015,291.645 142.698,292.052 142.592 C 292.458 142.485,292.791 142.133,292.791 141.809 C 292.791 141.485,292.944 141.220,293.131 141.220 C 293.319 141.220,293.581 140.721,293.715 140.111 C 293.849 139.501,294.195 139.002,294.484 139.002 C 294.773 139.002,295.009 138.752,295.009 138.447 C 295.009 138.142,295.259 137.893,295.564 137.893 C 295.869 137.893,296.118 137.638,296.118 137.327 C 296.118 137.015,296.368 136.665,296.673 136.548 C 296.989 136.426,297.227 135.875,297.227 135.265 C 297.227 134.598,297.421 134.196,297.742 134.196 C 298.026 134.196,298.353 133.946,298.470 133.641 C 298.587 133.336,298.938 133.087,299.249 133.087 C 299.560 133.087,299.815 132.855,299.815 132.572 C 299.815 132.289,300.065 131.961,300.370 131.844 C 300.675 131.727,300.924 131.210,300.924 130.696 C 300.924 130.110,301.132 129.760,301.479 129.760 C 301.784 129.760,302.033 129.528,302.033 129.245 C 302.033 128.961,302.283 128.634,302.588 128.517 C 302.893 128.400,303.142 128.049,303.142 127.738 C 303.142 127.427,303.392 127.172,303.697 127.172 C 304.002 127.172,304.251 126.872,304.251 126.506 C 304.251 126.139,305.056 125.016,306.039 124.010 C 307.022 123.004,307.940 121.724,308.079 121.165 C 308.218 120.605,308.495 120.148,308.695 120.148 C 308.894 120.148,309.057 119.898,309.057 119.593 C 309.057 119.288,309.307 119.039,309.612 119.039 C 309.917 119.039,310.166 118.789,310.166 118.484 C 310.166 118.179,310.416 117.930,310.721 117.930 C 311.026 117.930,311.275 117.680,311.275 117.375 C 311.275 117.070,311.608 116.488,312.015 116.081 C 312.421 115.675,312.754 115.092,312.754 114.787 C 312.754 114.482,313.004 114.233,313.309 114.233 C 313.614 114.233,313.863 113.983,313.863 113.678 C 313.863 113.373,314.113 113.124,314.418 113.124 C 314.723 113.124,314.972 112.892,314.972 112.609 C 314.972 112.326,315.222 111.998,315.527 111.881 C 315.832 111.764,316.081 111.247,316.081 110.732 C 316.081 110.147,316.289 109.797,316.636 109.797 C 316.941 109.797,317.190 109.565,317.190 109.282 C 317.190 108.998,317.440 108.671,317.745 108.554 C 318.050 108.437,318.299 108.086,318.299 107.775 C 318.299 107.464,318.536 107.209,318.825 107.209 C 319.113 107.209,319.459 106.710,319.593 106.100 C 319.727 105.490,320.073 104.991,320.362 104.991 C 320.651 104.991,320.887 104.741,320.887 104.436 C 320.887 104.131,321.137 103.882,321.442 103.882 C 321.747 103.882,321.996 103.627,321.996 103.316 C 321.996 103.004,322.246 102.654,322.551 102.537 C 322.867 102.415,323.105 101.864,323.105 101.254 C 323.105 100.550,323.295 100.185,323.660 100.185 C 323.965 100.185,324.214 99.935,324.214 99.630 C 324.214 99.325,324.464 99.076,324.769 99.076 C 325.074 99.076,325.323 98.826,325.323 98.521 C 325.323 98.216,325.577 97.967,325.887 97.967 C 326.218 97.967,326.543 97.508,326.673 96.858 C 326.795 96.248,327.123 95.749,327.403 95.749 C 327.683 95.749,327.911 95.416,327.911 95.009 C 327.911 94.598,328.158 94.270,328.466 94.270 C 328.771 94.270,329.020 94.020,329.020 93.715 C 329.020 93.410,329.270 93.161,329.575 93.161 C 329.945 93.161,330.129 92.791,330.129 92.052 C 330.129 91.312,330.314 90.943,330.684 90.943 C 330.989 90.943,331.238 90.693,331.238 90.388 C 331.238 90.083,331.413 89.834,331.626 89.834 C 332.218 89.834,333.801 87.886,333.815 87.142 C 333.821 86.780,334.076 86.388,334.381 86.270 C 334.686 86.153,334.935 85.826,334.935 85.543 C 334.935 85.259,335.185 85.028,335.490 85.028 C 335.795 85.028,336.044 84.778,336.044 84.473 C 336.044 84.168,336.294 83.919,336.599 83.919 C 336.904 83.919,337.153 83.604,337.153 83.219 C 337.153 82.834,337.403 82.423,337.708 82.306 C 338.013 82.189,338.262 81.672,338.262 81.158 C 338.262 80.564,338.469 80.222,338.829 80.222 C 339.140 80.222,339.490 79.972,339.608 79.667 C 339.725 79.362,340.052 79.113,340.335 79.113 C 340.619 79.113,340.850 78.884,340.850 78.603 C 340.850 78.323,341.100 77.887,341.405 77.634 C 341.710 77.381,341.959 76.861,341.959 76.480 C 341.959 76.098,342.209 75.786,342.514 75.786 C 342.819 75.786,343.068 75.531,343.068 75.219 C 343.068 74.908,343.318 74.558,343.623 74.441 C 343.928 74.323,344.177 73.996,344.177 73.713 C 344.177 73.430,344.427 73.198,344.732 73.198 C 345.102 73.198,345.287 72.828,345.287 72.089 C 345.287 71.479,345.479 70.980,345.713 70.980 C 346.504 70.980,348.983 68.025,348.983 67.082 C 348.983 66.521,349.195 66.174,349.538 66.174 C 349.843 66.174,350.092 65.924,350.092 65.619 C 350.092 65.314,350.342 65.065,350.647 65.065 C 350.952 65.065,351.201 64.815,351.201 64.510 C 351.201 64.205,351.451 63.956,351.756 63.956 C 352.126 63.956,352.311 63.586,352.311 62.847 C 352.311 62.078,352.492 61.738,352.900 61.738 C 353.224 61.738,353.576 61.405,353.682 60.998 C 353.789 60.591,354.106 60.259,354.387 60.259 C 354.668 60.259,354.898 60.009,354.898 59.704 C 354.898 59.399,355.148 59.150,355.453 59.150 C 355.823 59.150,356.007 58.780,356.007 58.041 C 356.007 57.301,356.192 56.932,356.562 56.932 C 356.867 56.932,357.116 56.682,357.116 56.377 C 357.116 56.072,357.366 55.823,357.671 55.823 C 357.976 55.823,358.226 55.581,358.226 55.286 C 358.226 54.992,358.437 54.617,358.695 54.455 C 358.954 54.292,359.366 53.701,359.612 53.142 C 359.857 52.583,360.228 52.126,360.436 52.126 C 360.643 52.126,360.813 51.876,360.813 51.571 C 360.813 51.266,361.063 51.017,361.368 51.017 C 361.673 51.017,361.922 50.767,361.922 50.462 C 361.922 50.157,362.172 49.908,362.477 49.908 C 362.782 49.908,363.031 49.646,363.031 49.327 C 363.031 49.007,363.281 48.496,363.586 48.191 C 363.891 47.886,364.140 47.316,364.140 46.924 C 364.140 46.532,364.390 46.211,364.695 46.211 C 365.000 46.211,365.250 45.961,365.250 45.656 C 365.250 45.351,365.457 45.101,365.712 45.099 C 366.224 45.096,367.837 42.906,367.837 42.214 C 367.837 41.972,368.087 41.774,368.392 41.774 C 368.700 41.774,368.946 41.446,368.946 41.035 C 368.946 40.624,369.193 40.296,369.501 40.296 C 369.806 40.296,370.055 40.046,370.055 39.741 C 370.055 39.436,370.305 39.187,370.610 39.187 C 370.980 39.187,371.165 38.817,371.165 38.078 C 371.165 37.338,371.349 36.969,371.719 36.969 C 372.024 36.969,372.274 36.719,372.274 36.414 C 372.274 36.109,372.512 35.860,372.803 35.860 C 373.094 35.860,373.434 35.542,373.557 35.154 C 373.680 34.766,374.024 34.356,374.321 34.242 C 374.618 34.128,374.861 33.613,374.861 33.098 C 374.861 32.513,375.069 32.163,375.416 32.163 C 375.721 32.163,375.970 31.913,375.970 31.608 C 375.970 31.303,376.220 31.054,376.525 31.054 C 376.830 31.054,377.079 30.822,377.079 30.539 C 377.079 30.255,377.329 29.928,377.634 29.811 C 377.939 29.694,378.189 29.177,378.189 28.662 C 378.189 28.077,378.396 27.726,378.743 27.726 C 379.051 27.726,379.298 27.398,379.298 26.987 C 379.298 26.494,379.544 26.248,380.037 26.248 C 380.448 26.248,380.776 26.001,380.776 25.693 C 380.776 25.388,380.934 25.139,381.126 25.139 C 381.471 25.139,382.382 23.716,382.844 22.458 C 382.974 22.103,383.311 21.811,383.592 21.811 C 383.873 21.811,384.104 21.479,384.104 21.072 C 384.104 20.661,384.350 20.333,384.658 20.333 C 384.963 20.333,385.213 20.101,385.213 19.818 C 385.213 19.535,385.462 19.207,385.767 19.090 C 386.072 18.973,386.322 18.456,386.322 17.941 C 386.322 17.252,386.516 17.006,387.061 17.006 C 387.468 17.006,387.800 16.774,387.800 16.491 C 387.800 16.207,388.050 15.880,388.355 15.763 C 388.660 15.646,388.909 15.313,388.909 15.023 C 388.909 14.734,389.159 14.401,389.464 14.284 C 389.769 14.167,390.018 13.650,390.018 13.135 C 390.018 12.550,390.226 12.200,390.573 12.200 C 390.878 12.200,391.128 11.950,391.128 11.645 C 391.128 11.340,391.377 11.091,391.682 11.091 C 391.987 11.091,392.237 10.841,392.237 10.536 C 392.237 10.231,392.412 9.982,392.626 9.982 C 392.839 9.982,393.184 9.496,393.391 8.902 C 393.598 8.308,394.005 7.731,394.296 7.620 C 394.586 7.508,394.824 7.162,394.824 6.851 C 394.824 6.539,395.074 6.285,395.379 6.285 C 395.684 6.285,395.933 6.053,395.933 5.770 C 395.933 5.486,396.183 5.159,396.488 5.042 C 396.793 4.925,397.043 4.408,397.043 3.893 C 397.043 3.329,397.252 2.957,397.571 2.957 C 398.387 2.957,399.261 1.893,399.261 0.898 L 399.261 0.000 339.556 0.000 C 300.000 0.000,279.852 0.125,279.852 0.370 " stroke="none" fill="#bcbcbb" fill-rule="evenodd"></path><path id="path1" d="M1.848 1.479 C 1.848 2.547,2.002 2.957,2.403 2.957 C 2.708 2.957,2.957 3.207,2.957 3.512 C 2.957 3.817,3.207 4.067,3.512 4.067 C 3.817 4.067,4.067 4.316,4.067 4.621 C 4.067 4.926,4.316 5.176,4.621 5.176 C 4.963 5.176,5.176 5.523,5.176 6.083 C 5.176 6.966,6.703 8.872,7.411 8.872 C 7.605 8.872,7.763 9.122,7.763 9.427 C 7.763 9.732,8.013 9.982,8.318 9.982 C 8.688 9.982,8.872 10.351,8.872 11.091 C 8.872 11.830,9.057 12.200,9.427 12.200 C 9.732 12.200,9.982 12.449,9.982 12.754 C 9.982 13.059,10.231 13.309,10.536 13.309 C 10.844 13.309,11.091 13.637,11.091 14.048 C 11.091 14.455,11.319 14.787,11.599 14.787 C 11.878 14.787,12.207 15.287,12.329 15.896 C 12.459 16.547,12.784 17.006,13.115 17.006 C 13.425 17.006,13.678 17.255,13.678 17.560 C 13.678 17.865,13.928 18.115,14.233 18.115 C 14.538 18.115,14.787 18.364,14.787 18.669 C 14.787 18.974,15.037 19.224,15.342 19.224 C 15.707 19.224,15.896 19.589,15.896 20.293 C 15.896 20.903,16.135 21.454,16.451 21.575 C 16.756 21.692,17.006 22.043,17.006 22.354 C 17.006 22.666,17.255 22.921,17.560 22.921 C 17.865 22.921,18.115 23.170,18.115 23.475 C 18.115 23.780,18.364 24.030,18.669 24.030 C 18.974 24.030,19.224 24.279,19.224 24.584 C 19.224 24.889,19.527 25.442,19.899 25.814 C 20.270 26.185,20.681 26.767,20.811 27.108 C 20.942 27.448,21.220 27.726,21.430 27.726 C 21.640 27.726,21.811 27.976,21.811 28.281 C 21.811 28.586,22.043 28.835,22.326 28.835 C 22.609 28.835,22.945 29.251,23.072 29.760 C 23.200 30.268,23.467 30.684,23.667 30.684 C 23.866 30.684,24.030 31.017,24.030 31.423 C 24.030 31.834,24.276 32.163,24.584 32.163 C 24.889 32.163,25.139 32.412,25.139 32.717 C 25.139 33.022,25.388 33.272,25.693 33.272 C 25.998 33.272,26.248 33.537,26.248 33.861 C 26.248 34.185,26.580 34.537,26.987 34.643 C 27.511 34.780,27.726 35.148,27.726 35.903 C 27.726 36.604,27.916 36.969,28.281 36.969 C 28.586 36.969,28.835 37.218,28.835 37.523 C 28.835 37.828,29.085 38.078,29.390 38.078 C 29.695 38.078,29.945 38.327,29.945 38.632 C 29.945 38.937,30.194 39.187,30.499 39.187 C 30.851 39.187,31.054 39.541,31.054 40.154 C 31.054 41.138,33.495 43.993,34.337 43.993 C 34.565 43.993,34.750 44.492,34.750 45.102 C 34.750 45.841,34.935 46.211,35.305 46.211 C 35.610 46.211,35.860 46.465,35.860 46.777 C 35.860 47.088,36.109 47.439,36.414 47.556 C 36.719 47.673,36.969 48.000,36.969 48.284 C 36.969 48.567,37.218 48.799,37.523 48.799 C 37.870 48.799,38.078 49.149,38.078 49.734 C 38.078 50.249,38.327 50.766,38.632 50.883 C 38.937 51.000,39.187 51.327,39.187 51.611 C 39.187 51.894,39.441 52.126,39.753 52.126 C 40.064 52.126,40.415 52.375,40.532 52.680 C 40.649 52.985,40.976 53.235,41.260 53.235 C 41.581 53.235,41.774 53.637,41.774 54.304 C 41.774 54.914,42.013 55.465,42.329 55.587 C 42.634 55.704,42.884 56.054,42.884 56.365 C 42.884 56.677,43.133 56.932,43.438 56.932 C 43.743 56.932,43.993 57.181,43.993 57.486 C 43.993 57.791,44.242 58.041,44.547 58.041 C 44.852 58.041,45.102 58.361,45.102 58.754 C 45.102 59.146,45.319 59.686,45.584 59.955 C 45.850 60.224,46.177 60.735,46.312 61.091 C 46.447 61.446,46.812 61.738,47.123 61.738 C 47.435 61.738,47.689 61.987,47.689 62.292 C 47.689 62.597,47.939 62.847,48.244 62.847 C 48.549 62.847,48.799 63.159,48.799 63.541 C 48.799 63.922,49.048 64.442,49.353 64.695 C 49.658 64.948,49.908 65.384,49.908 65.664 C 49.908 65.945,50.157 66.174,50.462 66.174 C 50.767 66.174,51.017 66.405,51.017 66.689 C 51.017 66.972,51.266 67.299,51.571 67.416 C 51.876 67.534,52.126 67.884,52.126 68.195 C 52.126 68.507,52.354 68.762,52.634 68.762 C 52.914 68.762,53.242 69.261,53.364 69.871 C 53.494 70.521,53.819 70.980,54.150 70.980 C 54.460 70.980,54.713 71.229,54.713 71.534 C 54.713 71.839,54.963 72.089,55.268 72.089 C 55.573 72.089,55.823 72.338,55.823 72.643 C 55.823 72.948,56.072 73.198,56.377 73.198 C 56.748 73.198,56.932 73.569,56.932 74.318 C 56.932 74.974,57.162 75.528,57.486 75.652 C 57.791 75.769,58.041 76.096,58.041 76.380 C 58.041 76.663,58.290 76.895,58.595 76.895 C 58.900 76.895,59.150 77.144,59.150 77.449 C 59.150 77.754,59.386 78.004,59.675 78.004 C 59.964 78.004,60.310 78.503,60.444 79.113 C 60.578 79.723,60.924 80.222,61.212 80.222 C 61.501 80.222,61.738 80.555,61.738 80.961 C 61.738 81.372,61.984 81.701,62.292 81.701 C 62.597 81.701,62.847 81.950,62.847 82.255 C 62.847 82.560,63.096 82.810,63.401 82.810 C 63.748 82.810,63.956 83.160,63.956 83.745 C 63.956 84.260,64.205 84.777,64.510 84.894 C 64.815 85.011,65.065 85.339,65.065 85.622 C 65.065 85.905,65.314 86.137,65.619 86.137 C 65.924 86.137,66.174 86.386,66.174 86.691 C 66.174 86.996,66.410 87.246,66.699 87.246 C 66.988 87.246,67.336 87.756,67.473 88.380 C 67.610 89.004,67.956 89.604,68.242 89.713 C 68.528 89.823,68.762 90.144,68.762 90.428 C 68.762 90.711,69.011 90.943,69.316 90.943 C 69.621 90.943,69.871 91.192,69.871 91.497 C 69.871 91.802,70.120 92.052,70.425 92.052 C 70.730 92.052,70.980 92.373,70.980 92.765 C 70.980 93.157,71.229 93.727,71.534 94.032 C 71.839 94.337,72.089 94.700,72.089 94.838 C 72.089 95.284,73.737 96.845,74.214 96.851 C 74.469 96.855,74.677 97.196,74.677 97.609 C 74.677 98.022,74.926 98.455,75.231 98.572 C 75.536 98.689,75.786 99.100,75.786 99.485 C 75.786 99.870,76.035 100.185,76.340 100.185 C 76.645 100.185,76.895 100.440,76.895 100.751 C 76.895 101.062,77.144 101.413,77.449 101.530 C 77.754 101.647,78.004 101.957,78.004 102.218 C 78.004 102.480,78.253 102.789,78.558 102.906 C 78.863 103.023,79.113 103.462,79.113 103.882 C 79.113 104.301,79.362 104.740,79.667 104.857 C 79.972 104.974,80.222 105.302,80.222 105.585 C 80.222 105.868,80.555 106.100,80.961 106.100 C 81.372 106.100,81.701 106.346,81.701 106.654 C 81.701 106.959,81.950 107.209,82.255 107.209 C 82.626 107.209,82.810 107.580,82.810 108.330 C 82.810 108.985,83.040 109.539,83.364 109.663 C 83.669 109.780,83.919 110.108,83.919 110.391 C 83.919 110.674,84.168 110.906,84.473 110.906 C 84.778 110.906,85.028 111.155,85.028 111.460 C 85.028 111.765,85.277 112.015,85.582 112.015 C 85.887 112.015,86.137 112.336,86.137 112.728 C 86.137 113.120,86.354 113.661,86.620 113.929 C 86.885 114.198,87.213 114.709,87.347 115.065 C 87.482 115.421,87.847 115.712,88.158 115.712 C 88.470 115.712,88.725 115.961,88.725 116.266 C 88.725 116.571,88.974 116.821,89.279 116.821 C 89.626 116.821,89.834 117.171,89.834 117.757 C 89.834 118.271,90.083 118.788,90.388 118.905 C 90.693 119.022,90.943 119.350,90.943 119.633 C 90.943 119.916,91.192 120.148,91.497 120.148 C 91.802 120.148,92.052 120.403,92.052 120.714 C 92.052 121.025,92.301 121.376,92.606 121.493 C 92.911 121.610,93.161 121.843,93.161 122.010 C 93.161 122.616,94.836 124.923,95.287 124.938 C 95.541 124.947,95.749 125.203,95.749 125.508 C 95.749 125.813,95.998 126.063,96.303 126.063 C 96.608 126.063,96.858 126.292,96.858 126.572 C 96.858 126.852,97.107 127.288,97.412 127.542 C 97.717 127.795,97.967 128.319,97.967 128.708 C 97.967 129.096,98.216 129.509,98.521 129.626 C 98.826 129.743,99.076 130.071,99.076 130.354 C 99.076 130.637,99.325 130.869,99.630 130.869 C 99.935 130.869,100.185 131.118,100.185 131.423 C 100.185 131.728,100.421 131.978,100.710 131.978 C 100.999 131.978,101.345 132.477,101.479 133.087 C 101.613 133.697,101.959 134.196,102.247 134.196 C 102.536 134.196,102.773 134.529,102.773 134.935 C 102.773 135.346,103.019 135.675,103.327 135.675 C 103.632 135.675,103.882 135.924,103.882 136.229 C 103.882 136.534,104.131 136.784,104.436 136.784 C 104.806 136.784,104.991 137.153,104.991 137.893 C 104.991 138.632,105.176 139.002,105.545 139.002 C 105.850 139.002,106.100 139.251,106.100 139.556 C 106.100 139.861,106.349 140.111,106.654 140.111 C 106.959 140.111,107.209 140.349,107.209 140.641 C 107.209 140.932,107.542 141.276,107.948 141.405 C 108.424 141.556,108.688 141.964,108.688 142.550 C 108.688 143.051,108.937 143.557,109.242 143.674 C 109.547 143.791,109.797 144.119,109.797 144.402 C 109.797 144.685,110.046 144.917,110.351 144.917 C 110.656 144.917,110.906 145.166,110.906 145.471 C 110.906 145.776,111.155 146.026,111.460 146.026 C 111.807 146.026,112.015 146.376,112.015 146.962 C 112.015 147.476,112.264 147.993,112.569 148.110 C 112.874 148.227,113.127 148.513,113.130 148.746 C 113.138 149.279,114.755 150.832,115.302 150.832 C 115.527 150.832,115.712 151.253,115.712 151.768 C 115.712 152.282,115.961 152.799,116.266 152.916 C 116.571 153.033,116.821 153.361,116.821 153.644 C 116.821 153.927,117.070 154.159,117.375 154.159 C 117.683 154.159,117.930 154.488,117.930 154.898 C 117.930 155.309,118.176 155.638,118.484 155.638 C 118.789 155.638,119.039 155.869,119.039 156.153 C 119.039 156.436,119.288 156.763,119.593 156.880 C 119.898 156.997,120.151 157.390,120.154 157.752 C 120.161 158.468,121.663 160.074,122.326 160.074 C 122.551 160.074,122.736 160.323,122.736 160.628 C 122.736 160.933,122.985 161.183,123.290 161.183 C 123.677 161.183,123.845 161.573,123.845 162.477 C 123.845 163.381,124.012 163.771,124.399 163.771 C 124.704 163.771,124.954 164.020,124.954 164.325 C 124.954 164.630,125.203 164.880,125.508 164.880 C 125.813 164.880,126.063 165.129,126.063 165.434 C 126.063 165.739,126.312 165.989,126.617 165.989 C 126.964 165.989,127.172 166.339,127.172 166.925 C 127.172 167.439,127.415 167.954,127.712 168.068 C 128.010 168.182,128.354 168.593,128.477 168.981 C 128.600 169.368,128.939 169.686,129.230 169.686 C 129.521 169.686,129.760 169.935,129.760 170.240 C 129.760 170.545,130.009 170.795,130.314 170.795 C 130.684 170.795,130.869 171.165,130.869 171.904 C 130.869 172.643,131.054 173.013,131.423 173.013 C 131.728 173.013,131.978 173.262,131.978 173.567 C 131.978 173.872,132.227 174.122,132.532 174.122 C 132.837 174.122,133.087 174.377,133.087 174.688 C 133.087 174.999,133.326 175.346,133.619 175.458 C 133.911 175.571,134.257 176.148,134.388 176.741 C 134.518 177.334,134.861 177.819,135.150 177.819 C 135.438 177.819,135.675 178.068,135.675 178.373 C 135.675 178.678,135.924 178.928,136.229 178.928 C 136.534 178.928,136.784 179.177,136.784 179.482 C 136.784 179.787,137.033 180.037,137.338 180.037 C 137.708 180.037,137.893 180.407,137.893 181.146 C 137.893 181.885,138.078 182.255,138.447 182.255 C 139.213 182.255,139.213 184.785,138.447 185.079 C 138.142 185.196,137.893 185.690,137.893 186.176 C 137.893 186.716,137.677 187.061,137.338 187.061 C 137.030 187.061,136.784 187.390,136.784 187.800 C 136.784 188.211,136.537 188.540,136.229 188.540 C 135.924 188.540,135.675 188.789,135.675 189.094 C 135.675 189.399,135.421 189.649,135.111 189.649 C 134.780 189.649,134.455 190.107,134.325 190.758 C 134.203 191.368,133.875 191.867,133.595 191.867 C 133.316 191.867,133.087 192.116,133.087 192.421 C 133.087 192.726,132.837 192.976,132.532 192.976 C 132.224 192.976,131.978 193.305,131.978 193.715 C 131.978 194.126,131.731 194.455,131.423 194.455 C 131.054 194.455,130.869 194.824,130.869 195.564 C 130.869 196.303,130.684 196.673,130.314 196.673 C 130.009 196.673,129.760 196.922,129.760 197.227 C 129.760 197.532,129.593 197.782,129.390 197.782 C 128.624 197.782,126.921 200.012,126.214 201.941 C 126.083 202.297,125.746 202.588,125.465 202.588 C 125.184 202.588,124.954 202.837,124.954 203.142 C 124.954 203.447,124.704 203.697,124.399 203.697 C 124.094 203.697,123.845 203.952,123.845 204.263 C 123.845 204.574,123.595 204.925,123.290 205.042 C 122.985 205.159,122.736 205.653,122.736 206.139 C 122.736 206.702,122.521 207.024,122.147 207.024 C 121.823 207.024,121.470 207.357,121.364 207.763 C 121.258 208.170,120.941 208.503,120.659 208.503 C 120.378 208.503,120.148 208.681,120.148 208.899 C 120.148 209.117,119.898 209.544,119.593 209.849 C 119.288 210.154,119.039 210.725,119.039 211.117 C 119.039 211.509,118.789 211.830,118.484 211.830 C 118.179 211.830,117.930 212.079,117.930 212.384 C 117.930 212.689,117.680 212.939,117.375 212.939 C 117.067 212.939,116.821 213.268,116.821 213.678 C 116.821 214.089,116.574 214.418,116.266 214.418 C 115.896 214.418,115.712 214.787,115.712 215.527 C 115.712 216.389,115.547 216.636,114.972 216.636 C 114.562 216.636,114.233 216.882,114.233 217.190 C 114.233 217.495,113.983 217.745,113.678 217.745 C 113.373 217.745,113.124 217.977,113.124 218.260 C 113.124 218.543,112.874 218.871,112.569 218.988 C 112.264 219.105,112.015 219.622,112.015 220.136 C 112.015 220.722,111.807 221.072,111.460 221.072 C 111.152 221.072,110.906 221.401,110.906 221.811 C 110.906 222.222,110.659 222.551,110.351 222.551 C 110.046 222.551,109.797 222.800,109.797 223.105 C 109.797 223.410,109.547 223.660,109.242 223.660 C 108.872 223.660,108.688 224.030,108.688 224.769 C 108.688 225.632,108.523 225.878,107.948 225.878 C 107.542 225.878,107.209 226.110,107.209 226.393 C 107.209 226.676,106.959 227.004,106.654 227.121 C 106.349 227.238,106.100 227.588,106.100 227.900 C 106.100 228.211,105.850 228.466,105.545 228.466 C 105.176 228.466,104.991 228.835,104.991 229.575 C 104.991 230.314,104.806 230.684,104.436 230.684 C 104.131 230.684,103.882 230.933,103.882 231.238 C 103.882 231.543,103.632 231.793,103.327 231.793 C 103.022 231.793,102.773 232.043,102.773 232.348 C 102.773 232.652,102.542 232.902,102.259 232.902 C 101.965 232.902,101.642 233.455,101.503 234.196 C 101.358 234.970,101.045 235.490,100.723 235.490 C 100.427 235.490,100.185 235.739,100.185 236.044 C 100.185 236.349,99.935 236.599,99.630 236.599 C 99.325 236.599,99.076 236.848,99.076 237.153 C 99.076 237.458,98.826 237.708,98.521 237.708 C 98.216 237.708,97.967 238.020,97.967 238.402 C 97.967 238.784,97.717 239.303,97.412 239.556 C 97.107 239.809,96.858 240.246,96.858 240.526 C 96.858 240.806,96.608 241.035,96.303 241.035 C 95.995 241.035,95.749 241.364,95.749 241.774 C 95.749 242.181,95.582 242.514,95.379 242.514 C 94.769 242.514,93.565 243.909,93.315 244.907 C 93.186 245.421,92.849 245.841,92.566 245.841 C 92.283 245.841,92.052 246.073,92.052 246.356 C 92.052 246.639,91.802 246.967,91.497 247.084 C 91.192 247.201,90.943 247.551,90.943 247.863 C 90.943 248.174,90.693 248.429,90.388 248.429 C 90.018 248.429,89.834 248.799,89.834 249.538 C 89.834 250.277,89.649 250.647,89.279 250.647 C 88.974 250.647,88.725 250.896,88.725 251.201 C 88.725 251.506,88.540 251.756,88.315 251.756 C 87.575 251.756,86.150 253.401,86.143 254.263 C 86.140 254.727,85.887 255.202,85.582 255.319 C 85.277 255.436,85.028 255.764,85.028 256.047 C 85.028 256.330,84.778 256.562,84.473 256.562 C 84.168 256.562,83.919 256.811,83.919 257.116 C 83.919 257.421,83.669 257.671,83.364 257.671 C 82.994 257.671,82.810 258.041,82.810 258.780 C 82.810 259.519,82.625 259.889,82.255 259.889 C 81.950 259.889,81.701 260.139,81.701 260.444 C 81.701 260.749,81.435 260.998,81.111 260.998 C 80.787 260.998,80.435 261.331,80.329 261.738 C 80.223 262.144,79.905 262.477,79.624 262.477 C 79.302 262.477,79.113 262.888,79.113 263.586 C 79.113 264.325,78.928 264.695,78.558 264.695 C 78.253 264.695,78.004 264.945,78.004 265.250 C 78.004 265.555,77.754 265.804,77.449 265.804 C 77.144 265.804,76.895 266.054,76.895 266.359 C 76.895 266.664,76.645 266.913,76.340 266.913 C 76.035 266.913,75.786 267.225,75.786 267.607 C 75.786 267.989,75.536 268.508,75.231 268.762 C 74.926 269.015,74.677 269.534,74.677 269.916 C 74.677 270.364,74.414 270.610,73.937 270.610 C 73.526 270.610,73.198 270.856,73.198 271.165 C 73.198 271.470,72.948 271.719,72.643 271.719 C 72.335 271.719,72.089 272.048,72.089 272.458 C 72.089 272.865,71.926 273.198,71.726 273.198 C 71.527 273.198,71.262 273.602,71.138 274.095 C 71.014 274.589,70.678 275.083,70.392 275.193 C 70.105 275.303,69.871 275.647,69.871 275.959 C 69.871 276.270,69.621 276.525,69.316 276.525 C 69.011 276.525,68.762 276.774,68.762 277.079 C 68.762 277.384,68.587 277.634,68.373 277.634 C 68.159 277.634,67.810 278.133,67.597 278.743 C 67.384 279.353,66.977 279.852,66.692 279.852 C 66.407 279.852,66.174 280.084,66.174 280.367 C 66.174 280.650,65.924 280.978,65.619 281.095 C 65.314 281.212,65.065 281.562,65.065 281.874 C 65.065 282.185,64.815 282.440,64.510 282.440 C 64.140 282.440,63.956 282.810,63.956 283.549 C 63.956 284.288,63.771 284.658,63.401 284.658 C 63.096 284.658,62.847 284.908,62.847 285.213 C 62.847 285.518,62.597 285.767,62.292 285.767 C 61.987 285.767,61.738 285.933,61.738 286.137 C 61.738 286.340,61.405 286.839,60.998 287.246 C 60.591 287.652,60.259 288.318,60.259 288.725 C 60.259 289.135,60.012 289.464,59.704 289.464 C 59.399 289.464,59.150 289.713,59.150 290.018 C 59.150 290.323,58.900 290.573,58.595 290.573 C 58.290 290.573,58.041 290.823,58.041 291.128 C 58.041 291.433,57.791 291.682,57.486 291.682 C 57.116 291.682,56.932 292.052,56.932 292.791 C 56.932 293.530,56.747 293.900,56.377 293.900 C 56.072 293.900,55.823 294.132,55.823 294.415 C 55.823 294.698,55.573 295.026,55.268 295.143 C 54.963 295.260,54.713 295.610,54.713 295.922 C 54.713 296.233,54.480 296.488,54.195 296.488 C 53.910 296.488,53.503 296.987,53.290 297.597 C 53.078 298.207,52.729 298.706,52.515 298.706 C 52.301 298.706,52.126 298.956,52.126 299.261 C 52.126 299.566,51.876 299.815,51.571 299.815 C 51.266 299.815,51.017 300.065,51.017 300.370 C 51.017 300.675,50.853 300.924,50.654 300.924 C 50.455 300.924,49.914 301.753,49.453 302.765 C 48.991 303.778,48.406 304.609,48.152 304.614 C 47.897 304.618,47.689 304.871,47.689 305.176 C 47.689 305.481,47.435 305.730,47.123 305.730 C 46.812 305.730,46.447 306.021,46.312 306.377 C 46.177 306.733,45.850 307.244,45.584 307.513 C 45.319 307.781,45.102 308.322,45.102 308.714 C 45.102 309.106,44.852 309.427,44.547 309.427 C 44.242 309.427,43.993 309.677,43.993 309.982 C 43.993 310.287,43.743 310.536,43.438 310.536 C 43.133 310.536,42.884 310.768,42.884 311.051 C 42.884 311.334,42.634 311.662,42.329 311.779 C 42.024 311.896,41.774 312.413,41.774 312.927 C 41.774 313.513,41.567 313.863,41.220 313.863 C 40.915 313.863,40.665 314.093,40.665 314.375 C 40.665 314.656,40.333 314.973,39.926 315.079 C 39.519 315.186,39.187 315.520,39.187 315.822 C 39.187 316.125,38.937 316.468,38.632 316.585 C 38.327 316.702,38.078 317.219,38.078 317.733 C 38.078 318.319,37.870 318.669,37.523 318.669 C 37.218 318.669,36.969 318.919,36.969 319.224 C 36.969 319.529,36.719 319.778,36.414 319.778 C 36.109 319.778,35.860 320.010,35.860 320.293 C 35.860 320.576,35.610 320.904,35.305 321.021 C 34.981 321.145,34.750 321.699,34.750 322.354 C 34.750 323.229,34.588 323.475,34.011 323.475 C 33.600 323.475,33.272 323.722,33.272 324.030 C 33.272 324.335,33.022 324.584,32.717 324.584 C 32.412 324.584,32.163 324.816,32.163 325.099 C 32.163 325.382,31.913 325.710,31.608 325.827 C 31.303 325.944,31.054 326.461,31.054 326.975 C 31.054 327.561,30.846 327.911,30.499 327.911 C 30.191 327.911,29.945 328.240,29.945 328.651 C 29.945 329.061,29.698 329.390,29.390 329.390 C 29.085 329.390,28.835 329.640,28.835 329.945 C 28.835 330.250,28.586 330.499,28.281 330.499 C 27.976 330.499,27.726 330.792,27.726 331.150 C 27.726 331.507,27.394 332.008,26.987 332.262 C 26.580 332.516,26.248 332.972,26.248 333.275 C 26.248 333.578,25.998 333.826,25.693 333.826 C 25.388 333.826,25.139 334.058,25.139 334.341 C 25.139 334.624,24.889 334.952,24.584 335.069 C 24.279 335.186,24.030 335.519,24.030 335.808 C 24.030 336.098,23.780 336.431,23.475 336.548 C 23.170 336.665,22.921 337.182,22.921 337.696 C 22.921 338.282,22.713 338.632,22.366 338.632 C 22.061 338.632,21.811 338.882,21.811 339.187 C 21.811 339.492,21.562 339.741,21.257 339.741 C 20.952 339.741,20.702 339.954,20.702 340.214 C 20.702 340.473,20.370 340.971,19.963 341.319 C 19.556 341.667,19.224 342.286,19.224 342.695 C 19.224 343.109,18.978 343.438,18.669 343.438 C 18.364 343.438,18.115 343.688,18.115 343.993 C 18.115 344.298,17.865 344.547,17.560 344.547 C 17.255 344.547,17.006 344.779,17.006 345.062 C 17.006 345.345,16.756 345.673,16.451 345.790 C 16.146 345.907,15.896 346.424,15.896 346.938 C 15.896 347.524,15.689 347.874,15.342 347.874 C 15.037 347.874,14.787 348.129,14.787 348.440 C 14.787 348.752,14.538 349.102,14.233 349.219 C 13.928 349.336,13.678 349.664,13.678 349.947 C 13.678 350.230,13.425 350.462,13.115 350.462 C 12.784 350.462,12.459 350.921,12.329 351.571 C 12.207 352.181,11.878 352.680,11.599 352.680 C 11.319 352.680,11.091 352.930,11.091 353.235 C 11.091 353.540,10.841 353.789,10.536 353.789 C 10.231 353.789,9.982 354.021,9.982 354.304 C 9.982 354.587,9.732 354.915,9.427 355.032 C 9.103 355.156,8.872 355.710,8.872 356.365 C 8.872 357.115,8.689 357.486,8.318 357.486 C 8.013 357.486,7.763 357.736,7.763 358.041 C 7.763 358.346,7.606 358.595,7.413 358.595 C 6.728 358.595,5.176 360.356,5.176 361.133 C 5.176 361.588,4.941 361.922,4.621 361.922 C 4.313 361.922,4.067 362.251,4.067 362.662 C 4.067 363.072,3.820 363.401,3.512 363.401 C 3.207 363.401,2.957 363.651,2.957 363.956 C 2.957 364.261,2.708 364.510,2.403 364.510 C 2.098 364.510,1.848 364.765,1.848 365.076 C 1.848 365.388,1.599 365.738,1.294 365.855 C 0.989 365.972,0.739 366.383,0.739 366.768 C 0.739 367.153,0.573 367.468,0.370 367.468 C 0.166 367.468,0.000 367.967,0.000 368.577 L 0.000 369.686 59.519 369.686 C 98.953 369.686,119.039 369.561,119.039 369.316 C 119.039 369.113,119.288 368.946,119.593 368.946 C 119.898 368.946,120.148 368.697,120.148 368.392 C 120.148 368.087,120.397 367.837,120.702 367.837 C 121.007 367.837,121.257 367.588,121.257 367.283 C 121.257 366.978,121.427 366.728,121.635 366.728 C 121.842 366.728,122.213 366.271,122.459 365.712 C 122.704 365.152,123.116 364.562,123.375 364.399 C 123.633 364.237,123.845 363.862,123.845 363.568 C 123.845 363.273,124.094 363.031,124.399 363.031 C 124.704 363.031,124.954 362.800,124.954 362.516 C 124.954 362.233,125.203 361.906,125.508 361.789 C 125.813 361.672,126.063 361.155,126.063 360.640 C 126.063 360.055,126.271 359.704,126.617 359.704 C 126.922 359.704,127.172 359.455,127.172 359.150 C 127.172 358.845,127.421 358.595,127.726 358.595 C 128.031 358.595,128.281 358.383,128.281 358.123 C 128.281 357.863,128.614 357.366,129.020 357.017 C 129.427 356.669,129.760 356.050,129.760 355.641 C 129.760 355.227,130.005 354.898,130.314 354.898 C 130.619 354.898,130.869 354.649,130.869 354.344 C 130.869 354.039,131.118 353.789,131.423 353.789 C 131.728 353.789,131.978 353.540,131.978 353.235 C 131.978 352.930,132.227 352.680,132.532 352.680 C 132.902 352.680,133.087 352.311,133.087 351.571 C 133.087 350.832,133.272 350.462,133.641 350.462 C 133.949 350.462,134.196 350.133,134.196 349.723 C 134.196 349.312,134.442 348.983,134.750 348.983 C 135.055 348.983,135.305 348.753,135.305 348.472 C 135.305 348.191,135.638 347.874,136.044 347.767 C 136.491 347.650,136.784 347.263,136.784 346.788 C 136.784 346.356,137.033 345.907,137.338 345.790 C 137.643 345.673,137.893 345.345,137.893 345.062 C 137.893 344.779,138.142 344.547,138.447 344.547 C 138.755 344.547,139.002 344.219,139.002 343.808 C 139.002 343.397,139.248 343.068,139.556 343.068 C 139.861 343.068,140.111 342.837,140.111 342.553 C 140.111 342.270,140.360 341.943,140.665 341.826 C 140.970 341.709,141.220 341.192,141.220 340.677 C 141.220 340.092,141.428 339.741,141.774 339.741 C 142.079 339.741,142.329 339.492,142.329 339.187 C 142.329 338.882,142.584 338.632,142.895 338.632 C 143.207 338.632,143.572 338.341,143.706 337.985 C 143.841 337.629,144.168 337.118,144.434 336.850 C 144.700 336.581,144.917 336.040,144.917 335.648 C 144.917 335.256,145.166 334.935,145.471 334.935 C 145.776 334.935,146.026 334.686,146.026 334.381 C 146.026 334.076,146.275 333.826,146.580 333.826 C 146.885 333.826,147.135 333.595,147.135 333.311 C 147.135 333.028,147.384 332.701,147.689 332.584 C 147.994 332.466,148.244 331.969,148.244 331.478 C 148.244 330.896,148.501 330.518,148.983 330.392 C 149.390 330.286,149.723 329.933,149.723 329.609 C 149.723 329.285,149.972 329.020,150.277 329.020 C 150.582 329.020,150.832 328.789,150.832 328.505 C 150.832 328.222,151.081 327.895,151.386 327.778 C 151.691 327.661,151.941 327.144,151.941 326.629 C 151.941 326.044,152.149 325.693,152.495 325.693 C 152.800 325.693,153.050 325.444,153.050 325.139 C 153.050 324.834,153.299 324.584,153.604 324.584 C 153.913 324.584,154.159 324.255,154.159 323.845 C 154.159 323.434,154.405 323.105,154.713 323.105 C 155.083 323.105,155.268 322.736,155.268 321.996 C 155.268 321.134,155.432 320.887,156.007 320.887 C 156.418 320.887,156.747 320.641,156.747 320.333 C 156.747 320.028,156.996 319.778,157.301 319.778 C 157.606 319.778,157.856 319.546,157.856 319.263 C 157.856 318.980,158.105 318.652,158.410 318.535 C 158.715 318.418,158.965 317.919,158.965 317.426 C 158.965 316.933,159.214 316.434,159.519 316.317 C 159.824 316.200,160.074 315.850,160.074 315.538 C 160.074 315.227,160.323 314.972,160.628 314.972 C 160.933 314.972,161.183 314.723,161.183 314.418 C 161.183 314.113,161.433 313.863,161.738 313.863 C 162.078 313.863,162.292 313.517,162.292 312.964 C 162.292 312.389,162.559 311.980,163.031 311.830 C 163.438 311.701,163.771 311.375,163.771 311.105 C 163.771 310.836,164.020 310.519,164.325 310.402 C 164.630 310.285,164.880 309.935,164.880 309.623 C 164.880 309.312,165.129 309.057,165.434 309.057 C 165.739 309.057,165.989 308.828,165.989 308.548 C 165.989 308.268,166.238 307.832,166.543 307.579 C 166.848 307.325,167.098 306.806,167.098 306.424 C 167.098 306.042,167.348 305.730,167.652 305.730 C 167.957 305.730,168.207 305.481,168.207 305.176 C 168.207 304.871,168.457 304.621,168.762 304.621 C 169.070 304.621,169.316 304.292,169.316 303.882 C 169.316 303.475,169.552 303.142,169.841 303.142 C 170.130 303.142,170.476 302.643,170.610 302.033 C 170.744 301.423,171.090 300.924,171.379 300.924 C 171.668 300.924,171.904 300.675,171.904 300.370 C 171.904 300.065,172.153 299.815,172.458 299.815 C 172.763 299.815,173.013 299.583,173.013 299.300 C 173.013 299.017,173.262 298.689,173.567 298.572 C 173.872 298.455,174.122 297.939,174.122 297.424 C 174.122 296.838,174.330 296.488,174.677 296.488 C 174.985 296.488,175.231 296.159,175.231 295.749 C 175.231 295.338,175.478 295.009,175.786 295.009 C 176.091 295.009,176.340 294.760,176.340 294.455 C 176.340 294.150,176.594 293.900,176.904 293.900 C 177.235 293.900,177.559 293.442,177.689 292.791 C 177.811 292.181,178.140 291.682,178.420 291.682 C 178.699 291.682,178.928 291.433,178.928 291.128 C 178.928 290.823,179.177 290.573,179.482 290.573 C 179.791 290.573,180.037 290.244,180.037 289.834 C 180.037 289.423,180.283 289.094,180.591 289.094 C 180.961 289.094,181.146 288.725,181.146 287.985 C 181.146 287.246,181.331 286.876,181.701 286.876 C 182.006 286.876,182.255 286.627,182.255 286.322 C 182.255 286.017,182.440 285.767,182.665 285.767 C 183.476 285.767,184.830 284.095,184.836 283.087 C 184.841 282.432,185.040 282.070,185.397 282.070 C 185.702 282.070,185.952 281.821,185.952 281.516 C 185.952 281.211,186.201 280.961,186.506 280.961 C 186.811 280.961,187.061 280.712,187.061 280.407 C 187.061 280.102,187.311 279.852,187.616 279.852 C 187.924 279.852,188.170 279.524,188.170 279.113 C 188.170 278.706,188.333 278.373,188.533 278.373 C 188.732 278.373,188.996 277.973,189.119 277.484 C 189.241 276.995,189.660 276.511,190.050 276.410 C 190.439 276.308,190.758 275.959,190.758 275.635 C 190.758 275.311,191.007 275.046,191.312 275.046 C 191.617 275.046,191.867 274.817,191.867 274.537 C 191.867 274.257,192.116 273.821,192.421 273.567 C 192.726 273.314,192.976 272.795,192.976 272.413 C 192.976 272.031,193.226 271.719,193.530 271.719 C 193.835 271.719,194.085 271.470,194.085 271.165 C 194.085 270.860,194.335 270.610,194.640 270.610 C 194.948 270.610,195.194 270.281,195.194 269.871 C 195.194 269.460,195.441 269.131,195.749 269.131 C 196.118 269.131,196.303 268.762,196.303 268.022 C 196.303 267.160,196.467 266.913,197.043 266.913 C 197.453 266.913,197.782 266.667,197.782 266.359 C 197.782 266.054,198.031 265.804,198.336 265.804 C 198.641 265.804,198.891 265.572,198.891 265.289 C 198.891 265.006,199.120 264.686,199.399 264.579 C 199.697 264.465,200.014 263.534,200.164 262.333 C 200.417 260.306,200.746 259.853,228.586 223.210 C 261.069 180.454,258.537 183.872,258.179 183.274 C 257.847 182.719,243.441 163.552,242.528 162.450 C 242.179 162.028,240.215 159.450,238.164 156.720 C 236.112 153.990,232.911 149.760,231.050 147.320 C 229.189 144.880,226.483 141.303,225.038 139.372 C 223.593 137.440,217.453 129.333,211.394 121.356 C 200.679 107.249,200.371 106.797,200.138 104.813 C 199.978 103.455,199.730 102.773,199.395 102.773 C 199.118 102.773,198.891 102.523,198.891 102.218 C 198.891 101.913,198.641 101.664,198.336 101.664 C 198.031 101.664,197.782 101.398,197.782 101.074 C 197.782 100.750,197.449 100.398,197.043 100.292 C 196.561 100.166,196.303 99.788,196.303 99.206 C 196.303 98.715,196.054 98.217,195.749 98.100 C 195.444 97.983,195.194 97.656,195.194 97.373 C 195.194 97.089,194.945 96.858,194.640 96.858 C 194.335 96.858,194.085 96.608,194.085 96.303 C 194.085 95.998,193.835 95.749,193.530 95.749 C 193.184 95.749,192.976 95.398,192.976 94.813 C 192.976 94.298,192.726 93.781,192.421 93.664 C 192.116 93.547,191.864 93.261,191.861 93.029 C 191.852 92.496,190.236 90.943,189.689 90.943 C 189.464 90.943,189.279 90.522,189.279 90.007 C 189.279 89.492,189.030 88.975,188.725 88.858 C 188.420 88.741,188.170 88.414,188.170 88.131 C 188.170 87.847,187.921 87.616,187.616 87.616 C 187.307 87.616,187.061 87.287,187.061 86.876 C 187.061 86.470,186.829 86.137,186.547 86.137 C 186.264 86.137,185.928 85.721,185.800 85.213 C 185.673 84.704,185.405 84.288,185.206 84.288 C 185.006 84.288,184.840 84.080,184.836 83.826 C 184.829 83.263,183.233 81.701,182.665 81.701 C 182.440 81.701,182.255 81.446,182.255 81.134 C 182.255 80.823,182.006 80.473,181.701 80.355 C 181.384 80.234,181.146 79.683,181.146 79.073 C 181.146 78.369,180.957 78.004,180.591 78.004 C 180.287 78.004,180.037 77.754,180.037 77.449 C 180.037 77.144,179.787 76.895,179.482 76.895 C 179.177 76.895,178.928 76.645,178.928 76.340 C 178.928 76.035,178.678 75.786,178.373 75.786 C 178.030 75.786,177.819 75.438,177.819 74.874 C 177.819 74.342,177.512 73.799,177.079 73.567 C 176.673 73.350,176.340 72.928,176.340 72.630 C 176.340 72.332,176.091 72.089,175.786 72.089 C 175.481 72.089,175.231 71.839,175.231 71.534 C 175.231 71.229,174.982 70.980,174.677 70.980 C 174.307 70.980,174.122 70.610,174.122 69.871 C 174.122 69.131,173.937 68.762,173.567 68.762 C 173.262 68.762,173.013 68.512,173.013 68.207 C 173.013 67.902,172.763 67.652,172.458 67.652 C 172.153 67.652,171.904 67.398,171.904 67.086 C 171.904 66.775,171.665 66.428,171.372 66.316 C 171.079 66.204,170.733 65.627,170.603 65.034 C 170.473 64.441,170.130 63.956,169.841 63.956 C 169.552 63.956,169.316 63.706,169.316 63.401 C 169.316 63.096,169.067 62.847,168.762 62.847 C 168.457 62.847,168.207 62.597,168.207 62.292 C 168.207 61.987,167.957 61.738,167.652 61.738 C 167.283 61.738,167.098 61.368,167.098 60.628 C 167.098 59.889,166.913 59.519,166.543 59.519 C 166.235 59.519,165.989 59.191,165.989 58.780 C 165.989 58.369,165.742 58.041,165.434 58.041 C 165.129 58.041,164.880 57.791,164.880 57.486 C 164.880 57.181,164.630 56.932,164.325 56.932 C 164.020 56.932,163.771 56.682,163.771 56.377 C 163.771 56.072,163.438 55.490,163.031 55.083 C 162.625 54.677,162.292 54.177,162.292 53.974 C 162.292 53.771,162.043 53.604,161.738 53.604 C 161.429 53.604,161.183 53.276,161.183 52.865 C 161.183 52.454,160.937 52.126,160.628 52.126 C 160.323 52.126,160.074 51.894,160.074 51.611 C 160.074 51.327,159.824 51.000,159.519 50.883 C 159.214 50.766,158.965 50.249,158.965 49.734 C 158.965 49.149,158.757 48.799,158.410 48.799 C 158.105 48.799,157.856 48.549,157.856 48.244 C 157.856 47.939,157.626 47.689,157.344 47.689 C 157.063 47.689,156.746 47.357,156.640 46.950 C 156.533 46.543,156.181 46.211,155.857 46.211 C 155.449 46.211,155.268 45.870,155.268 45.102 C 155.268 44.362,155.083 43.993,154.713 43.993 C 154.409 43.993,154.159 43.743,154.159 43.438 C 154.159 43.133,153.909 42.884,153.604 42.884 C 153.299 42.884,153.050 42.634,153.050 42.329 C 153.050 42.024,152.800 41.774,152.495 41.774 C 152.149 41.774,151.941 41.424,151.941 40.839 C 151.941 40.324,151.691 39.807,151.386 39.690 C 151.081 39.573,150.829 39.287,150.825 39.055 C 150.817 38.521,149.201 36.969,148.654 36.969 C 148.428 36.969,148.244 36.470,148.244 35.860 C 148.244 35.120,148.059 34.750,147.689 34.750 C 147.384 34.750,147.135 34.501,147.135 34.196 C 147.135 33.891,146.885 33.641,146.580 33.641 C 146.272 33.641,146.026 33.313,146.026 32.902 C 146.026 32.491,145.779 32.163,145.471 32.163 C 145.166 32.163,144.917 31.864,144.917 31.499 C 144.917 30.770,142.256 27.726,141.619 27.726 C 141.399 27.726,141.220 27.414,141.220 27.032 C 141.220 26.651,140.970 26.131,140.665 25.878 C 140.360 25.625,140.111 25.105,140.111 24.724 C 140.111 24.342,139.861 24.030,139.556 24.030 C 139.251 24.030,139.002 23.780,139.002 23.475 C 139.002 23.170,138.752 22.921,138.447 22.921 C 138.142 22.921,137.893 22.689,137.893 22.406 C 137.893 22.122,137.643 21.795,137.338 21.678 C 137.033 21.561,136.784 21.128,136.784 20.717 C 136.784 20.306,136.451 19.762,136.044 19.508 C 135.638 19.254,135.305 18.836,135.305 18.580 C 135.305 18.324,135.055 18.115,134.750 18.115 C 134.445 18.115,134.196 17.865,134.196 17.560 C 134.196 17.255,133.946 17.006,133.641 17.006 C 133.272 17.006,133.087 16.636,133.087 15.896 C 133.087 15.157,132.902 14.787,132.532 14.787 C 132.227 14.787,131.978 14.538,131.978 14.233 C 131.978 13.928,131.728 13.678,131.423 13.678 C 131.118 13.678,130.869 13.424,130.869 13.112 C 130.869 12.801,130.629 12.454,130.337 12.342 C 130.044 12.230,129.698 11.653,129.568 11.060 C 129.438 10.467,129.095 9.982,128.806 9.982 C 128.517 9.982,128.281 9.732,128.281 9.427 C 128.281 9.122,128.031 8.872,127.726 8.872 C 127.421 8.872,127.172 8.623,127.172 8.318 C 127.172 8.013,126.922 7.763,126.617 7.763 C 126.252 7.763,126.063 7.398,126.063 6.694 C 126.063 6.084,125.824 5.533,125.508 5.412 C 125.203 5.295,124.954 4.944,124.954 4.633 C 124.954 4.321,124.704 4.067,124.399 4.067 C 124.094 4.067,123.845 3.817,123.845 3.512 C 123.845 3.207,123.608 2.957,123.320 2.957 C 123.031 2.957,122.685 2.458,122.551 1.848 C 122.417 1.238,122.071 0.739,121.782 0.739 C 121.493 0.739,121.257 0.573,121.257 0.370 C 121.257 0.125,101.109 0.000,61.553 0.000 L 1.848 0.000 1.848 1.479 " stroke="none" fill="#006eb6" fill-rule="evenodd"></path></g></svg>