<?xml version="1.0" encoding="UTF-8"?>
<!DOCTYPE svg PUBLIC "-//W3C//DTD SVG 1.1//EN" "http://www.w3.org/Graphics/SVG/1.1/DTD/svg11.dtd">
<svg xmlns="http://www.w3.org/2000/svg" version="1.1" width="309px" height="337px" style="shape-rendering:geometricPrecision; text-rendering:geometricPrecision; image-rendering:optimizeQuality; fill-rule:evenodd; clip-rule:evenodd" xmlns:xlink="http://www.w3.org/1999/xlink">
<g><path style="opacity:1" fill="#156082" d="M 125.5,-0.5 C 134.167,-0.5 142.833,-0.5 151.5,-0.5C 151.5,111.833 151.5,224.167 151.5,336.5C 142.833,336.5 134.167,336.5 125.5,336.5C 125.5,224.167 125.5,111.833 125.5,-0.5 Z"/></g>
<g><path style="opacity:1" fill="#156082" d="M 156.5,-0.5 C 165.167,-0.5 173.833,-0.5 182.5,-0.5C 182.5,111.833 182.5,224.167 182.5,336.5C 173.833,336.5 165.167,336.5 156.5,336.5C 156.5,224.167 156.5,111.833 156.5,-0.5 Z"/></g>
<g><path style="opacity:0.997" fill="#007ea4" d="M -0.5,100.5 C 26.8354,100.333 54.1687,100.5 81.5,101C 100.314,105.15 112.814,116.316 119,134.5C 119.5,201.833 119.667,269.166 119.5,336.5C 111.167,336.5 102.833,336.5 94.5,336.5C 94.6666,304.165 94.5,271.832 94,239.5C 93.0549,228.905 87.5549,222.405 77.5,220C 51.5021,219.5 25.5021,219.333 -0.5,219.5C -0.5,179.833 -0.5,140.167 -0.5,100.5 Z"/></g>
<g><path style="opacity:0.998" fill="#007ea3" d="M 308.5,100.5 C 308.5,140.167 308.5,179.833 308.5,219.5C 282.498,219.333 256.498,219.5 230.5,220C 222.47,221.695 217.303,226.528 215,234.5C 214.667,236.833 214.333,239.167 214,241.5C 213.5,273.165 213.333,304.832 213.5,336.5C 205.167,336.5 196.833,336.5 188.5,336.5C 188.333,269.499 188.5,202.499 189,135.5C 194.862,116.814 207.362,105.314 226.5,101C 253.831,100.5 281.165,100.333 308.5,100.5 Z"/></g>
</svg>
