<?xml version="1.0" encoding="UTF-8"?>
<!DOCTYPE svg PUBLIC "-//W3C//DTD SVG 1.1//EN" "http://www.w3.org/Graphics/SVG/1.1/DTD/svg11.dtd">
<svg xmlns="http://www.w3.org/2000/svg" version="1.1" width="682px" height="743px" style="shape-rendering:geometricPrecision; text-rendering:geometricPrecision; image-rendering:optimizeQuality; fill-rule:evenodd; clip-rule:evenodd" xmlns:xlink="http://www.w3.org/1999/xlink">
<g><path style="opacity:1" fill="#156082" d="M 278.5,-0.5 C 296.833,-0.5 315.167,-0.5 333.5,-0.5C 333.5,247.167 333.5,494.833 333.5,742.5C 315.167,742.5 296.833,742.5 278.5,742.5C 278.5,494.833 278.5,247.167 278.5,-0.5 Z"/></g>
<g><path style="opacity:1" fill="#156082" d="M 346.5,-0.5 C 365.167,-0.5 383.833,-0.5 402.5,-0.5C 402.5,247.167 402.5,494.833 402.5,742.5C 383.833,742.5 365.167,742.5 346.5,742.5C 346.5,494.833 346.5,247.167 346.5,-0.5 Z"/></g>
<g><path style="opacity:0.999" fill="#007da3" d="M -0.5,222.5 C 60.5375,222.019 121.537,222.519 182.5,224C 219.352,233.198 245.519,255.031 261,289.5C 262.644,294.077 263.978,298.744 265,303.5C 265.5,449.833 265.667,596.166 265.5,742.5C 246.833,742.5 228.167,742.5 209.5,742.5C 209.667,669.499 209.5,596.499 209,523.5C 206.983,509.621 200.483,498.454 189.5,490C 184.376,487.718 179.043,486.051 173.5,485C 115.501,484.5 57.501,484.333 -0.5,484.5C -0.5,397.167 -0.5,309.833 -0.5,222.5 Z"/></g>
<g><path style="opacity:0.999" fill="#007da3" d="M 681.5,222.5 C 681.5,309.833 681.5,397.167 681.5,484.5C 623.499,484.333 565.499,484.5 507.5,485C 491.306,487.188 480.473,496.022 475,511.5C 473.687,515.42 472.687,519.42 472,523.5C 471.5,596.499 471.333,669.499 471.5,742.5C 452.833,742.5 434.167,742.5 415.5,742.5C 415.333,596.166 415.5,449.833 416,303.5C 428.047,261.122 455.547,234.622 498.5,224C 559.463,222.519 620.463,222.019 681.5,222.5 Z"/></g>
</svg>
