<svg id="svg" version="1.1" xmlns="http://www.w3.org/2000/svg" xmlns:xlink="http://www.w3.org/1999/xlink" width="400" height="409.3457943925234" viewBox="0, 0, 400,409.3457943925234"><g id="svgg"><path id="path0" d="M195.200 0.400 C 195.200 0.620,194.435 0.802,193.500 0.805 C 191.109 0.813,190.105 1.154,189.874 2.037 C 189.715 2.648,189.309 2.800,187.837 2.800 C 186.144 2.800,186.000 2.878,186.000 3.800 C 186.000 4.766,185.909 4.800,183.363 4.800 C 181.062 4.800,180.698 4.902,180.516 5.600 C 180.378 6.127,179.947 6.416,179.253 6.446 C 177.168 6.537,176.998 6.613,176.872 7.500 C 176.759 8.294,176.500 8.405,174.672 8.446 C 171.497 8.517,171.400 8.545,171.400 9.400 C 171.400 10.083,171.093 10.218,169.300 10.321 C 167.527 10.423,167.200 10.563,167.200 11.221 C 167.200 11.835,166.904 12.011,165.800 12.050 C 165.030 12.078,164.220 12.145,164.000 12.200 C 163.780 12.255,163.252 12.322,162.827 12.350 C 162.402 12.378,161.940 12.760,161.800 13.200 C 161.596 13.841,161.195 14.000,159.773 14.000 C 158.798 14.000,158.021 14.135,158.047 14.300 C 158.280 15.772,157.983 15.964,155.300 16.082 C 153.577 16.157,152.600 16.369,152.600 16.667 C 152.600 17.435,152.135 17.676,150.527 17.739 C 149.270 17.789,148.977 17.959,148.872 18.700 C 148.759 19.494,148.500 19.605,146.672 19.646 C 143.484 19.717,143.408 19.741,143.272 20.700 C 143.159 21.494,142.913 21.600,141.172 21.600 C 139.467 21.600,139.200 21.708,139.200 22.400 C 139.200 22.888,138.927 23.208,138.500 23.220 C 134.847 23.325,133.600 23.682,133.600 24.624 C 133.600 25.040,133.101 25.200,131.800 25.200 C 130.147 25.200,130.000 25.281,130.000 26.200 C 130.000 27.166,129.909 27.200,127.363 27.200 C 125.062 27.200,124.698 27.302,124.516 28.000 C 124.360 28.597,123.970 28.800,122.982 28.800 C 121.733 28.800,120.400 29.631,120.400 30.409 C 120.400 30.603,119.275 30.815,117.900 30.881 C 115.655 30.988,115.387 31.092,115.272 31.900 C 115.159 32.694,114.913 32.800,113.172 32.800 C 111.467 32.800,111.200 32.908,111.200 33.600 C 111.200 34.040,111.065 34.407,110.900 34.416 C 106.418 34.653,105.412 34.932,105.760 35.840 C 105.926 36.274,105.526 36.400,103.987 36.400 C 102.144 36.400,102.000 36.471,102.000 37.382 C 102.000 38.315,101.868 38.369,99.300 38.482 C 96.889 38.587,96.587 38.692,96.478 39.457 C 96.388 40.087,96.149 40.260,95.575 40.109 C 94.548 39.841,92.400 40.747,92.400 41.449 C 92.400 41.830,91.875 42.002,90.700 42.005 C 88.270 42.013,87.169 42.383,87.294 43.148 C 87.379 43.669,86.979 43.824,85.300 43.921 C 83.527 44.023,83.200 44.163,83.200 44.821 C 83.200 45.249,82.975 45.614,82.700 45.631 C 82.425 45.648,81.570 45.733,80.800 45.820 C 80.030 45.908,79.093 45.996,78.719 46.016 C 78.344 46.036,77.927 46.401,77.792 46.826 C 77.598 47.438,77.175 47.600,75.773 47.600 C 74.798 47.600,74.021 47.735,74.047 47.900 C 74.288 49.423,74.008 49.600,71.363 49.600 C 69.094 49.600,68.697 49.708,68.523 50.371 C 68.343 51.060,65.760 51.940,64.700 51.675 C 64.535 51.634,64.400 51.960,64.400 52.400 C 64.400 53.074,64.132 53.201,62.700 53.205 C 60.230 53.213,59.200 53.579,59.200 54.447 C 59.200 55.084,58.892 55.200,57.200 55.200 C 55.494 55.200,55.200 55.313,55.200 55.968 C 55.200 56.804,54.131 57.176,51.445 57.276 C 50.304 57.318,49.839 57.529,49.698 58.067 C 49.549 58.637,49.117 58.800,47.753 58.800 C 46.158 58.800,46.000 58.889,46.000 59.782 C 46.000 60.715,45.868 60.769,43.300 60.882 C 40.770 60.993,40.606 61.057,40.695 61.898 C 40.747 62.392,40.657 62.776,40.495 62.751 C 38.487 62.440,36.400 62.873,36.400 63.600 C 36.400 64.274,36.132 64.401,34.700 64.405 C 32.309 64.413,31.305 64.754,31.074 65.637 C 30.916 66.241,30.510 66.400,29.123 66.400 C 27.626 66.400,27.361 66.523,27.307 67.245 C 27.220 68.390,27.291 68.361,24.428 68.447 C 22.337 68.510,21.859 68.652,21.700 69.261 C 21.518 69.955,20.560 70.204,18.748 70.029 C 18.354 69.991,17.994 70.370,17.840 70.983 C 17.619 71.862,17.355 72.006,15.892 72.043 C 12.757 72.121,12.604 72.168,12.472 73.100 C 12.359 73.894,12.113 74.000,10.372 74.000 C 8.667 74.000,8.400 74.108,8.400 74.800 C 8.400 75.474,8.132 75.601,6.700 75.605 C 4.319 75.613,3.265 75.964,2.986 76.843 C 2.837 77.312,2.376 77.600,1.773 77.600 L 0.800 77.600 0.800 184.000 L 0.800 290.400 3.600 290.400 C 6.100 290.400,6.400 290.317,6.400 289.628 C 6.400 289.132,6.722 288.810,7.300 288.728 C 7.871 288.647,8.246 288.279,8.325 287.722 C 8.427 287.001,8.751 286.822,10.125 286.722 C 11.493 286.622,11.800 286.453,11.800 285.800 C 11.800 285.225,12.109 284.964,12.900 284.873 C 13.677 284.784,14.000 284.520,14.000 283.973 C 14.000 283.521,14.291 283.181,14.700 283.154 C 15.085 283.128,15.580 283.066,15.800 283.015 C 16.020 282.964,16.515 282.894,16.900 282.861 C 17.285 282.827,17.579 282.665,17.553 282.500 C 17.406 281.574,17.708 281.200,18.600 281.200 C 19.400 281.200,19.600 281.000,19.600 280.200 C 19.600 279.281,19.747 279.200,21.400 279.200 C 22.912 279.200,23.200 279.076,23.200 278.428 C 23.200 277.932,23.522 277.610,24.100 277.528 C 24.678 277.446,25.046 277.078,25.128 276.500 C 25.238 275.721,25.495 275.600,27.028 275.600 C 28.651 275.600,28.800 275.516,28.800 274.600 C 28.800 273.724,28.973 273.600,30.200 273.600 C 30.970 273.600,31.735 273.590,31.900 273.579 C 32.065 273.567,32.427 273.123,32.705 272.593 C 33.020 271.993,33.435 271.715,33.805 271.857 C 34.236 272.023,34.400 271.804,34.400 271.065 C 34.400 270.131,34.561 270.033,36.300 269.922 C 37.921 269.818,38.219 269.668,38.328 268.900 C 38.438 268.121,38.695 268.000,40.228 268.000 C 41.733 268.000,42.000 267.880,42.000 267.200 C 42.000 266.760,42.225 266.379,42.500 266.354 C 42.775 266.328,43.180 266.266,43.400 266.215 C 43.620 266.164,44.213 266.094,44.718 266.061 C 45.353 266.019,45.599 265.785,45.518 265.300 C 45.423 264.739,45.739 264.575,47.100 264.477 C 48.291 264.391,48.800 264.174,48.800 263.753 C 48.800 263.423,48.980 263.264,49.200 263.400 C 49.420 263.536,49.600 263.367,49.600 263.024 C 49.600 262.681,49.924 262.400,50.320 262.400 C 50.716 262.400,51.282 262.175,51.579 261.900 C 52.010 261.500,52.061 261.500,51.835 261.900 C 51.340 262.777,52.330 262.436,52.982 261.504 C 53.327 261.012,53.922 260.607,54.305 260.604 C 54.720 260.602,55.052 260.237,55.128 259.700 C 55.241 258.900,55.486 258.799,57.328 258.794 C 59.582 258.787,60.123 258.568,60.517 257.500 C 60.747 256.875,61.947 256.575,63.470 256.763 C 63.728 256.795,64.071 256.609,64.232 256.349 C 64.432 256.024,64.348 255.982,63.962 256.215 C 63.483 256.503,63.481 256.453,63.949 255.877 C 64.251 255.505,65.001 255.200,65.616 255.200 C 67.256 255.200,68.000 254.812,68.000 253.957 C 68.000 253.368,68.311 253.189,69.400 253.150 C 71.714 253.067,71.795 253.034,71.928 252.100 C 72.038 251.321,72.295 251.200,73.828 251.200 C 75.333 251.200,75.600 251.080,75.600 250.400 C 75.600 249.603,76.122 249.434,78.297 249.524 C 78.932 249.551,79.266 249.275,79.441 248.581 C 79.662 247.700,79.896 247.599,81.743 247.594 C 84.013 247.587,84.905 247.218,84.721 246.363 C 84.631 245.946,85.145 245.769,86.700 245.679 C 88.473 245.577,88.800 245.437,88.800 244.779 C 88.800 244.351,89.025 243.986,89.300 243.969 C 89.575 243.952,90.430 243.867,91.200 243.780 C 91.970 243.692,92.907 243.604,93.281 243.584 C 93.656 243.564,94.073 243.199,94.208 242.774 C 94.402 242.162,94.825 242.000,96.227 242.000 C 97.852 242.000,98.000 241.916,98.000 241.000 C 98.000 240.035,100.191 239.592,103.100 239.970 C 103.375 240.006,103.600 239.667,103.600 239.218 C 103.600 238.428,103.987 238.220,105.154 238.382 C 106.392 238.555,107.600 237.968,107.600 237.192 C 107.600 236.483,107.875 236.400,110.224 236.400 C 111.871 236.400,112.755 236.251,112.600 236.000 C 112.464 235.780,112.543 235.600,112.776 235.600 C 113.009 235.600,113.200 235.330,113.200 235.000 C 113.200 234.533,113.735 234.400,115.613 234.400 C 117.684 234.400,118.069 234.283,118.331 233.576 C 118.586 232.885,119.046 232.730,121.170 232.614 C 123.485 232.489,124.082 232.219,124.493 231.114 C 124.552 230.956,125.728 230.794,127.107 230.754 C 129.377 230.687,129.637 230.591,129.851 229.740 C 130.060 228.907,130.333 228.794,132.243 228.750 C 135.381 228.677,135.389 228.675,135.518 227.778 C 135.612 227.115,135.883 226.979,136.918 227.071 C 139.329 227.285,141.200 226.802,141.200 225.965 C 141.200 225.301,141.504 225.199,143.500 225.194 C 145.664 225.188,146.912 224.837,146.834 224.255 C 146.815 224.115,146.800 223.827,146.800 223.616 C 146.800 223.404,148.375 223.179,150.300 223.116 C 153.348 223.015,153.793 222.910,153.744 222.300 C 153.688 221.586,154.010 221.445,155.363 221.590 C 157.337 221.802,159.600 221.153,159.600 220.375 C 159.600 219.663,159.907 219.600,163.400 219.600 C 167.187 219.600,167.200 219.596,167.200 218.600 C 167.200 217.604,167.213 217.600,171.000 217.600 C 174.533 217.600,174.800 217.544,174.800 216.800 C 174.800 216.012,175.331 215.814,176.971 215.991 C 179.037 216.214,181.967 215.533,182.208 214.774 C 182.427 214.085,182.846 214.000,186.027 214.000 C 189.572 214.000,189.600 213.992,189.600 213.000 L 189.600 212.000 193.900 211.994 C 198.430 211.987,199.480 211.708,199.063 210.620 C 198.915 210.235,198.973 210.060,199.201 210.201 C 200.235 210.840,208.400 209.901,208.400 209.143 C 208.400 208.448,213.272 208.010,216.900 208.379 C 217.401 208.430,217.600 208.163,217.600 207.438 L 217.600 206.425 222.300 206.313 C 226.830 206.204,227.005 206.167,227.128 205.300 C 227.254 204.410,227.324 204.400,233.628 204.400 C 239.733 204.400,240.000 204.367,240.000 203.600 C 240.000 202.841,240.280 202.798,245.500 202.761 C 253.191 202.705,253.000 202.730,253.000 201.800 C 253.000 200.887,253.112 200.872,261.200 200.704 C 266.044 200.603,266.204 200.572,266.328 199.700 L 266.456 198.800 274.828 198.800 C 282.933 198.800,283.200 198.775,283.200 198.000 C 283.200 197.220,283.483 197.199,294.800 197.150 C 308.602 197.091,307.400 197.181,307.401 196.199 C 307.401 195.406,307.722 195.399,353.301 195.298 L 399.200 195.197 399.200 136.398 L 399.200 77.600 398.200 77.600 C 397.578 77.600,397.200 77.373,397.200 77.000 C 397.200 76.670,396.919 76.400,396.576 76.400 C 396.233 76.400,396.064 76.220,396.200 76.000 C 396.354 75.750,395.537 75.600,394.024 75.600 C 391.722 75.600,391.376 75.418,391.553 74.300 C 391.579 74.135,390.719 74.000,389.643 74.000 C 387.724 74.000,386.822 73.336,387.422 72.364 C 387.548 72.160,386.515 72.000,385.067 72.000 C 382.648 72.000,382.471 71.937,382.236 71.000 C 382.011 70.104,381.781 70.000,380.030 70.000 C 378.272 70.000,378.096 69.919,378.284 69.200 C 378.479 68.455,378.296 68.400,375.647 68.400 C 372.877 68.400,372.800 68.373,372.800 67.400 C 372.800 66.481,372.653 66.400,371.000 66.400 C 369.667 66.400,369.200 66.244,369.200 65.800 C 369.200 65.470,368.975 65.245,368.700 65.300 C 368.425 65.355,368.245 65.175,368.300 64.900 C 368.371 64.544,367.707 64.400,366.000 64.400 C 363.867 64.400,363.600 64.311,363.600 63.600 C 363.600 62.956,363.333 62.800,362.233 62.800 C 360.348 62.800,359.600 62.447,359.600 61.557 C 359.600 60.886,359.281 60.800,356.800 60.800 C 354.080 60.800,354.000 60.771,354.000 59.800 C 354.000 58.886,353.850 58.800,352.249 58.800 C 351.087 58.800,350.313 58.572,349.949 58.123 C 349.576 57.663,349.560 57.543,349.900 57.747 C 350.175 57.912,350.400 57.857,350.400 57.624 C 350.400 57.391,349.703 57.200,348.850 57.200 C 346.172 57.200,344.800 56.777,344.800 55.950 C 344.800 55.334,344.495 55.200,343.095 55.200 C 341.710 55.200,341.315 55.031,340.995 54.300 C 340.659 53.535,340.211 53.370,338.000 53.200 C 335.868 53.036,335.420 52.881,335.509 52.339 C 335.593 51.827,335.172 51.616,333.647 51.406 C 332.176 51.204,331.626 50.941,331.476 50.368 C 331.303 49.709,330.902 49.600,328.637 49.600 C 326.091 49.600,326.000 49.566,326.000 48.600 C 326.000 47.685,325.850 47.600,324.247 47.600 C 322.856 47.600,322.452 47.442,322.293 46.835 C 322.083 46.031,318.151 45.213,317.230 45.781 C 316.855 46.013,316.605 45.237,316.753 44.300 C 316.779 44.135,316.019 44.000,315.064 44.000 C 313.590 44.000,313.258 43.846,312.862 42.975 C 312.592 42.383,312.100 41.980,311.697 42.021 C 309.138 42.281,307.600 41.980,307.600 41.218 C 307.600 40.405,305.765 39.789,304.174 40.068 C 303.644 40.161,303.416 39.962,303.409 39.400 C 303.401 38.692,303.090 38.586,300.700 38.482 C 298.132 38.369,298.000 38.315,298.000 37.382 C 298.000 36.485,297.844 36.400,296.200 36.400 C 294.667 36.400,294.400 36.281,294.400 35.600 C 294.400 35.013,294.107 34.779,293.300 34.722 C 292.695 34.679,291.750 34.606,291.200 34.559 C 290.650 34.512,289.885 34.457,289.500 34.437 C 289.086 34.415,288.800 34.082,288.800 33.622 C 288.800 32.977,288.474 32.823,286.900 32.722 C 285.271 32.617,284.982 32.470,284.871 31.689 C 284.800 31.188,284.530 30.805,284.271 30.837 C 281.826 31.139,279.765 30.743,279.395 29.900 C 279.097 29.220,278.647 28.990,277.556 28.958 C 275.842 28.909,275.072 28.510,275.341 27.809 C 275.449 27.529,275.326 27.305,275.068 27.313 C 271.057 27.427,270.000 27.195,270.000 26.200 C 270.000 25.281,269.853 25.200,268.200 25.200 C 266.899 25.200,266.400 25.040,266.400 24.624 C 266.400 23.643,265.541 23.390,261.700 23.236 C 261.079 23.211,260.800 22.952,260.800 22.400 C 260.800 21.707,260.533 21.600,258.800 21.600 C 256.933 21.600,256.800 21.533,256.800 20.600 C 256.800 19.630,256.718 19.600,254.028 19.600 C 251.458 19.600,251.246 19.534,251.128 18.700 C 251.022 17.952,250.713 17.779,249.300 17.677 C 247.964 17.580,247.600 17.397,247.600 16.821 C 247.600 16.419,247.375 16.097,247.100 16.107 C 243.203 16.252,242.000 15.991,242.000 15.000 C 242.000 14.081,241.853 14.000,240.200 14.000 C 238.886 14.000,238.400 13.842,238.400 13.414 C 238.400 12.727,237.065 11.925,236.084 12.024 C 233.852 12.247,232.800 11.983,232.800 11.200 C 232.800 10.508,232.533 10.400,230.828 10.400 C 229.087 10.400,228.841 10.294,228.728 9.500 C 228.612 8.683,228.353 8.589,225.926 8.482 C 223.515 8.376,223.239 8.277,223.126 7.482 C 223.041 6.891,222.704 6.584,222.100 6.550 C 221.605 6.522,220.767 6.477,220.237 6.450 C 219.498 6.412,219.321 6.223,219.474 5.638 C 219.598 5.163,219.471 4.886,219.137 4.901 C 215.339 5.076,214.000 4.789,214.000 3.800 C 214.000 2.881,213.853 2.800,212.200 2.800 C 211.210 2.800,210.400 2.633,210.400 2.429 C 210.400 1.442,209.048 0.800,206.971 0.800 C 205.777 0.800,204.800 0.620,204.800 0.400 C 204.800 0.156,202.933 0.000,200.000 0.000 C 197.067 0.000,195.200 0.156,195.200 0.400 " stroke="none" fill="#045cac" fill-rule="evenodd"></path><path id="path1" d="M206.516 284.000 C 206.313 284.777,205.970 284.800,194.803 284.800 C 182.290 284.800,180.944 284.917,180.588 286.039 C 180.371 286.722,179.763 286.791,173.076 286.891 C 165.873 286.999,165.799 287.009,165.672 287.900 C 165.545 288.796,165.514 288.800,158.135 288.800 C 151.062 288.800,150.716 288.836,150.516 289.600 C 150.325 290.330,149.968 290.400,146.453 290.404 C 141.347 290.410,139.719 290.700,139.472 291.647 C 139.293 292.330,138.843 292.400,134.637 292.400 L 130.000 292.400 130.000 293.400 L 130.000 294.400 124.400 294.400 C 119.067 294.400,118.800 294.438,118.800 295.200 C 118.800 295.926,118.532 296.001,115.900 296.005 C 112.257 296.012,111.200 296.288,111.200 297.232 C 111.200 297.888,110.789 297.983,107.500 298.085 C 104.008 298.194,103.793 298.251,103.672 299.100 C 103.548 299.971,103.403 300.000,99.135 300.000 C 95.062 300.000,94.709 300.061,94.516 300.800 C 94.340 301.472,93.970 301.600,92.203 301.600 C 89.133 301.600,87.523 302.009,87.304 302.844 C 87.148 303.441,86.619 303.587,84.258 303.683 C 81.640 303.790,81.389 303.876,81.272 304.700 C 81.154 305.534,80.942 305.600,78.372 305.600 C 75.867 305.600,75.600 305.677,75.600 306.400 C 75.600 307.098,75.332 307.201,73.500 307.204 C 69.995 307.212,68.400 307.602,68.400 308.452 C 68.400 309.111,68.068 309.200,65.600 309.200 C 62.880 309.200,62.800 309.229,62.800 310.200 C 62.800 311.171,62.720 311.200,60.000 311.200 C 57.467 311.200,57.200 311.276,57.200 312.000 C 57.200 312.642,56.933 312.800,55.850 312.800 C 53.511 312.800,51.904 313.281,51.705 314.040 C 51.565 314.578,51.048 314.790,49.659 314.880 C 48.080 314.982,47.781 315.135,47.672 315.900 C 47.555 316.728,47.336 316.800,44.935 316.800 C 42.662 316.800,42.298 316.903,42.116 317.600 C 41.974 318.143,41.568 318.401,40.853 318.404 C 38.499 318.414,36.692 318.928,36.505 319.640 C 36.370 320.157,35.854 320.392,34.659 320.479 C 33.288 320.579,32.978 320.756,32.872 321.500 C 32.762 322.276,32.504 322.400,30.999 322.400 C 29.605 322.400,29.203 322.561,29.000 323.200 C 28.849 323.675,28.392 324.002,27.873 324.005 C 26.207 324.016,25.200 324.483,25.200 325.247 C 25.200 325.865,24.896 326.001,23.500 326.005 C 21.119 326.013,20.065 326.364,19.786 327.243 C 19.599 327.833,19.162 328.000,17.801 328.000 C 16.296 328.000,16.038 328.124,15.928 328.900 C 15.822 329.644,15.512 329.821,14.141 329.921 C 12.945 330.008,12.430 330.243,12.294 330.761 C 12.168 331.242,11.567 331.567,10.480 331.741 C 9.344 331.922,8.777 332.242,8.600 332.800 C 8.460 333.242,7.995 333.600,7.560 333.600 C 7.128 333.600,6.659 333.915,6.517 334.300 C 6.152 335.287,5.593 335.587,4.100 335.594 C 3.069 335.599,2.800 335.765,2.800 336.400 C 2.800 337.048,2.533 337.200,1.400 337.200 C 0.007 337.200,0.000 337.210,0.000 339.000 C 0.000 339.990,0.180 340.800,0.400 340.800 C 0.664 340.800,0.800 352.467,0.800 375.000 L 0.800 409.200 2.800 409.200 C 3.900 409.200,4.800 409.041,4.800 408.847 C 4.800 408.652,5.160 408.399,5.600 408.284 C 6.079 408.159,6.400 407.738,6.400 407.237 C 6.400 406.579,6.649 406.400,7.567 406.400 C 9.255 406.400,10.000 406.019,10.000 405.157 C 10.000 404.616,10.286 404.400,11.000 404.400 C 11.721 404.400,12.000 404.185,12.000 403.628 C 12.000 403.132,12.322 402.810,12.900 402.728 C 13.478 402.646,13.846 402.278,13.928 401.700 C 14.038 400.921,14.295 400.800,15.828 400.800 C 17.451 400.800,17.600 400.716,17.600 399.800 C 17.600 398.896,17.758 398.800,19.237 398.800 C 20.523 398.800,20.919 398.633,21.078 398.022 C 21.190 397.595,21.668 397.190,22.141 397.122 C 22.679 397.046,23.048 396.663,23.128 396.100 C 23.236 395.340,23.502 395.200,24.836 395.200 C 26.134 395.200,26.499 395.021,26.873 394.200 C 27.123 393.650,27.660 393.200,28.064 393.200 C 28.533 393.200,28.800 392.910,28.800 392.400 C 28.800 391.756,29.067 391.600,30.167 391.600 C 32.040 391.600,32.800 391.248,32.800 390.380 C 32.800 389.802,33.162 389.620,34.500 389.523 C 35.913 389.421,36.222 389.248,36.328 388.500 C 36.420 387.849,36.724 387.600,37.428 387.600 C 38.124 387.600,38.400 387.379,38.400 386.823 C 38.400 386.195,38.726 386.022,40.100 385.923 C 41.513 385.821,41.822 385.648,41.928 384.900 C 42.038 384.121,42.295 384.000,43.828 384.000 C 45.451 384.000,45.600 383.916,45.600 383.000 C 45.600 382.078,45.744 382.000,47.437 382.000 C 48.906 382.000,49.315 381.848,49.474 381.240 C 49.616 380.697,50.175 380.405,51.436 380.215 C 52.802 380.011,53.200 379.781,53.200 379.198 C 53.200 378.599,53.546 378.421,54.900 378.323 C 56.313 378.221,56.622 378.048,56.728 377.300 C 56.839 376.518,57.093 376.400,58.665 376.400 C 60.138 376.400,60.514 376.251,60.684 375.600 C 60.831 375.040,61.230 374.800,62.014 374.800 C 63.656 374.800,64.400 374.412,64.400 373.557 C 64.400 372.929,64.700 372.800,66.157 372.800 C 67.697 372.800,67.944 372.677,68.164 371.800 C 68.398 370.871,68.587 370.800,70.845 370.800 C 72.896 370.800,73.306 370.681,73.474 370.040 C 73.617 369.493,74.179 369.204,75.482 369.009 C 76.772 368.815,77.347 368.523,77.487 367.990 C 77.631 367.439,78.119 367.210,79.341 367.121 C 80.712 367.021,81.022 366.844,81.128 366.100 C 81.238 365.324,81.496 365.200,83.001 365.200 C 84.360 365.200,84.799 365.033,84.986 364.445 C 85.174 363.851,85.774 363.632,87.813 363.413 C 89.972 363.182,90.400 363.013,90.400 362.390 C 90.400 361.784,90.756 361.621,92.300 361.522 C 93.921 361.418,94.219 361.268,94.328 360.500 C 94.445 359.672,94.664 359.600,97.065 359.600 C 99.338 359.600,99.702 359.497,99.884 358.800 C 100.010 358.318,100.433 357.998,100.947 357.995 C 102.594 357.984,103.600 357.513,103.600 356.753 C 103.600 356.087,103.924 356.000,106.400 356.000 C 109.120 356.000,109.200 355.971,109.200 355.000 C 109.200 354.034,109.291 354.000,111.837 354.000 C 114.084 354.000,114.504 353.888,114.672 353.247 C 114.818 352.689,115.379 352.426,116.834 352.233 C 118.418 352.023,118.800 351.823,118.800 351.202 C 118.800 350.508,119.151 350.420,122.300 350.316 C 125.584 350.207,125.808 350.145,125.928 349.300 C 126.046 348.466,126.258 348.400,128.828 348.400 C 131.272 348.400,131.600 348.311,131.600 347.650 C 131.600 346.823,132.972 346.400,135.650 346.400 C 136.933 346.400,137.200 346.262,137.200 345.600 C 137.200 344.876,137.467 344.800,140.000 344.800 C 142.720 344.800,142.800 344.771,142.800 343.800 C 142.800 342.829,142.880 342.800,145.600 342.800 C 148.320 342.800,148.400 342.771,148.400 341.800 C 148.400 340.804,148.413 340.800,152.200 340.800 C 155.708 340.800,156.000 340.740,156.000 340.016 C 156.000 339.305,156.329 339.220,159.500 339.116 C 162.690 339.010,163.035 338.920,163.395 338.100 C 163.761 337.265,164.044 337.200,167.295 337.200 C 170.767 337.200,170.800 337.191,170.800 336.200 C 170.800 335.207,170.824 335.200,174.437 335.200 C 177.738 335.200,178.094 335.126,178.284 334.400 C 178.468 333.698,178.830 333.600,181.247 333.600 C 183.917 333.600,184.000 333.570,184.000 332.600 L 184.000 331.600 188.557 331.600 C 193.083 331.600,193.115 331.593,193.364 330.600 C 193.614 329.606,193.643 329.600,198.208 329.600 C 202.508 329.600,202.800 329.550,202.800 328.813 C 202.800 328.084,203.130 328.018,207.300 327.913 C 211.603 327.805,211.806 327.761,211.926 326.912 C 212.047 326.061,212.243 326.020,216.726 325.912 C 221.229 325.804,221.405 325.767,221.528 324.900 C 221.653 324.016,221.754 324.000,227.228 324.000 C 232.533 324.000,232.800 323.962,232.800 323.200 C 232.800 322.433,233.067 322.400,239.200 322.400 L 245.600 322.400 245.600 321.400 L 245.600 320.400 252.200 320.400 L 258.800 320.400 258.800 319.400 L 258.800 318.400 266.153 318.400 C 273.147 318.400,273.517 318.361,273.714 317.608 C 273.912 316.851,274.334 316.810,283.061 316.708 C 292.183 316.600,292.200 316.598,292.327 315.705 L 292.454 314.809 308.327 314.705 L 324.200 314.600 324.328 313.700 L 324.456 312.800 349.628 312.800 L 374.800 312.800 374.800 313.800 L 374.800 314.800 387.400 314.800 L 400.000 314.800 400.000 305.643 C 400.000 295.393,400.191 296.000,396.967 296.000 C 395.467 296.000,395.200 295.879,395.200 295.200 C 395.200 294.438,394.933 294.400,389.600 294.400 L 384.000 294.400 384.000 293.400 L 384.000 292.400 378.428 292.400 C 372.954 292.400,372.853 292.384,372.728 291.500 C 372.602 290.614,372.498 290.598,366.100 290.490 C 359.931 290.386,359.600 290.340,359.600 289.590 C 359.600 288.836,359.307 288.800,353.228 288.800 C 346.924 288.800,346.854 288.790,346.728 287.900 L 346.600 287.000 337.327 286.893 C 328.074 286.786,328.053 286.783,327.927 285.893 L 327.800 285.000 316.833 284.893 C 306.414 284.792,305.838 284.747,305.310 283.993 C 304.430 282.737,206.845 282.743,206.516 284.000 " stroke="none" fill="#fccc0c" fill-rule="evenodd"></path><path id="path2" d="M302.000 211.200 C 302.000 211.979,301.733 212.000,291.991 212.000 L 281.983 212.000 281.531 212.993 L 281.078 213.985 272.039 214.093 C 263.007 214.200,263.000 214.201,262.872 215.100 C 262.756 215.921,254.869 216.536,250.913 216.033 C 250.644 215.999,250.196 216.337,249.916 216.785 C 249.450 217.532,249.004 217.600,244.536 217.600 C 239.129 217.600,238.400 217.746,238.400 218.833 C 238.400 219.527,237.941 219.588,231.900 219.690 C 225.502 219.798,225.398 219.814,225.272 220.700 C 225.148 221.573,225.009 221.600,220.572 221.600 C 216.267 221.600,216.000 221.647,216.000 222.400 C 216.000 223.154,215.733 223.200,211.408 223.200 C 206.843 223.200,206.814 223.206,206.564 224.200 C 206.316 225.190,206.270 225.200,201.964 225.200 C 197.659 225.200,197.613 225.210,197.364 226.200 C 197.115 227.193,197.083 227.200,192.557 227.200 C 188.296 227.200,188.000 227.251,188.000 227.985 C 188.000 228.700,187.671 228.780,184.300 228.885 C 180.808 228.994,180.593 229.051,180.472 229.900 C 180.351 230.756,180.172 230.800,176.780 230.800 C 173.311 230.800,173.208 230.827,172.964 231.800 C 172.720 232.773,172.617 232.800,169.157 232.800 C 165.867 232.800,165.600 232.860,165.600 233.600 C 165.600 234.313,165.317 234.405,163.000 234.450 C 161.570 234.478,160.265 234.531,160.100 234.570 C 158.817 234.868,158.031 235.323,158.108 235.724 C 158.171 236.048,157.274 236.238,155.300 236.318 C 152.519 236.430,152.400 236.475,152.400 237.418 C 152.400 238.389,152.359 238.400,148.763 238.400 C 145.462 238.400,145.106 238.474,144.916 239.200 C 144.747 239.845,144.349 240.009,142.853 240.046 C 139.927 240.119,139.822 240.151,139.412 241.084 C 139.078 241.846,138.664 241.983,136.412 242.084 C 134.049 242.189,133.788 242.286,133.672 243.100 C 133.554 243.934,133.342 244.000,130.772 244.000 C 128.288 244.000,128.000 244.081,128.000 244.782 C 128.000 245.468,127.672 245.578,125.300 245.682 C 122.847 245.789,122.588 245.882,122.472 246.700 C 122.354 247.534,122.142 247.600,119.572 247.600 C 116.882 247.600,116.800 247.630,116.800 248.600 C 116.800 249.571,116.720 249.600,114.000 249.600 C 112.460 249.600,111.221 249.735,111.247 249.900 C 111.414 250.957,111.073 251.200,109.424 251.200 C 108.447 251.200,107.534 251.383,107.396 251.607 C 107.258 251.830,106.986 251.915,106.792 251.795 C 106.599 251.676,106.245 251.943,106.006 252.389 C 105.669 253.018,105.171 253.200,103.786 253.200 C 102.148 253.200,102.000 253.283,102.000 254.200 C 102.000 255.171,101.920 255.200,99.200 255.200 C 96.693 255.200,96.400 255.281,96.400 255.978 C 96.400 256.623,96.074 256.777,94.500 256.878 C 92.879 256.982,92.581 257.132,92.472 257.900 C 92.355 258.726,92.135 258.800,89.780 258.800 C 87.378 258.800,87.199 258.863,86.964 259.800 C 86.744 260.677,86.497 260.800,84.957 260.800 C 83.467 260.800,83.200 260.921,83.200 261.600 C 83.200 262.280,82.933 262.400,81.424 262.400 C 80.447 262.400,79.541 262.572,79.411 262.783 C 79.281 262.993,78.934 263.073,78.640 262.960 C 78.330 262.841,78.015 263.100,77.890 263.577 C 77.717 264.238,77.353 264.400,76.045 264.400 C 74.640 264.400,74.381 264.538,74.164 265.400 C 73.954 266.236,73.674 266.401,72.457 266.406 C 70.795 266.413,69.775 266.913,70.159 267.533 C 70.325 267.802,69.724 268.000,68.510 268.078 C 66.878 268.182,66.581 268.331,66.472 269.100 C 66.362 269.879,66.105 270.000,64.572 270.000 C 62.949 270.000,62.800 270.084,62.800 271.000 C 62.800 271.933,62.667 272.000,60.800 272.000 C 59.067 272.000,58.800 272.107,58.800 272.800 C 58.800 273.442,58.533 273.600,57.450 273.600 C 55.186 273.600,53.635 274.059,53.401 274.798 C 53.257 275.251,52.594 275.595,51.535 275.764 C 50.632 275.908,49.999 276.132,50.128 276.261 C 50.518 276.651,49.314 277.600,48.429 277.600 C 47.875 277.600,47.600 277.858,47.600 278.377 C 47.600 279.005,47.274 279.178,45.900 279.277 C 44.487 279.379,44.178 279.552,44.072 280.300 C 43.962 281.079,43.705 281.200,42.172 281.200 C 40.549 281.200,40.400 281.284,40.400 282.200 C 40.400 283.122,40.256 283.200,38.563 283.200 C 37.084 283.200,36.686 283.351,36.523 283.971 C 36.384 284.505,35.826 284.827,34.712 285.015 C 33.612 285.201,33.040 285.526,32.905 286.043 C 32.780 286.519,32.352 286.800,31.753 286.800 C 31.003 286.800,30.800 287.013,30.800 287.800 C 30.800 288.719,30.653 288.800,29.000 288.800 C 27.467 288.800,27.200 288.919,27.200 289.600 C 27.200 290.040,26.930 290.423,26.600 290.450 C 26.270 290.478,25.820 290.545,25.600 290.600 C 25.380 290.655,24.840 290.723,24.400 290.750 C 23.894 290.782,23.600 291.083,23.600 291.572 C 23.600 292.068,23.278 292.390,22.700 292.472 C 22.122 292.554,21.754 292.922,21.672 293.500 C 21.564 294.260,21.299 294.400,19.960 294.400 C 18.886 294.400,18.297 294.603,18.133 295.031 C 18.000 295.377,17.465 295.823,16.945 296.021 C 16.381 296.235,16.000 296.707,16.000 297.190 C 16.000 297.880,15.740 298.000,14.243 298.000 C 12.703 298.000,12.456 298.123,12.236 299.000 C 12.074 299.646,11.704 300.000,11.192 300.000 C 10.683 300.000,10.400 300.269,10.400 300.755 C 10.400 301.342,10.002 301.569,8.600 301.779 C 7.410 301.958,6.800 302.247,6.800 302.634 C 6.800 302.956,6.350 303.391,5.800 303.600 C 5.188 303.833,4.800 304.294,4.800 304.790 C 4.800 305.469,4.540 305.600,3.190 305.600 C 1.841 305.600,1.519 305.762,1.200 306.600 C 0.991 307.150,0.635 307.600,0.410 307.600 C 0.142 307.600,0.000 310.792,0.000 316.821 L 0.000 326.041 2.174 325.953 C 4.065 325.877,4.377 325.747,4.575 324.956 C 4.761 324.216,5.121 324.023,6.502 323.923 C 7.690 323.837,8.200 323.620,8.200 323.200 C 8.200 322.870,8.650 322.509,9.200 322.397 C 9.852 322.265,10.245 321.882,10.328 321.297 C 10.438 320.522,10.696 320.400,12.228 320.400 C 13.851 320.400,14.000 320.316,14.000 319.400 C 14.000 318.496,14.158 318.400,15.637 318.400 C 16.938 318.400,17.318 318.236,17.484 317.600 C 17.653 316.954,18.030 316.800,19.439 316.800 C 20.968 316.800,21.216 316.676,21.436 315.800 C 21.656 314.923,21.903 314.800,23.443 314.800 C 25.050 314.800,25.200 314.715,25.200 313.800 C 25.200 312.881,25.347 312.800,27.000 312.800 C 28.533 312.800,28.800 312.681,28.800 312.000 C 28.800 311.320,29.067 311.200,30.574 311.200 C 32.780 311.200,34.400 310.612,34.400 309.810 C 34.400 309.354,34.854 309.200,36.200 309.200 C 37.190 309.200,38.023 309.020,38.050 308.800 C 38.078 308.580,38.123 308.175,38.150 307.900 C 38.180 307.597,38.947 307.352,40.100 307.278 C 41.674 307.177,42.000 307.023,42.000 306.378 C 42.000 305.703,42.287 305.600,44.167 305.600 C 46.838 305.600,47.600 305.328,47.600 304.375 C 47.600 303.742,47.984 303.620,50.300 303.518 C 52.753 303.411,53.012 303.318,53.128 302.500 C 53.249 301.645,55.027 301.262,57.470 301.563 C 57.728 301.595,58.203 301.245,58.525 300.786 C 58.951 300.178,59.557 299.945,60.755 299.928 C 62.215 299.908,62.400 299.799,62.400 298.953 C 62.400 298.040,62.517 298.000,65.200 298.000 C 67.920 298.000,68.000 297.971,68.000 297.000 C 68.000 296.029,68.080 296.000,70.800 296.000 C 73.333 296.000,73.600 295.924,73.600 295.200 C 73.600 294.477,73.867 294.400,76.376 294.400 C 77.903 294.400,79.259 294.228,79.389 294.017 C 79.519 293.807,79.874 293.730,80.177 293.846 C 80.501 293.971,80.836 293.717,80.991 293.229 C 81.224 292.495,81.573 292.400,84.027 292.400 C 86.718 292.400,86.800 292.371,86.800 291.400 C 86.800 290.480,90.566 289.902,93.676 290.345 C 93.827 290.366,94.064 290.027,94.203 289.592 C 94.419 288.911,94.814 288.800,97.019 288.800 C 99.422 288.800,99.601 288.737,99.836 287.800 C 100.077 286.840,100.212 286.800,103.211 286.800 C 106.856 286.800,107.600 286.589,107.600 285.557 C 107.600 284.858,107.953 284.800,112.200 284.800 C 116.533 284.800,116.800 284.754,116.800 284.000 C 116.800 283.264,117.082 283.196,120.300 283.154 C 122.225 283.128,123.980 283.066,124.200 283.015 C 124.420 282.964,124.915 282.894,125.300 282.861 C 125.713 282.825,126.000 282.472,126.000 282.000 C 126.000 281.256,126.267 281.200,129.800 281.200 C 133.587 281.200,133.600 281.196,133.600 280.200 L 133.600 279.200 139.200 279.200 C 144.533 279.200,144.800 279.162,144.800 278.400 C 144.800 277.637,145.067 277.600,150.626 277.600 C 156.447 277.600,158.000 277.302,158.000 276.186 C 158.000 275.701,158.982 275.592,163.700 275.554 C 171.005 275.495,170.606 275.556,170.568 274.500 L 170.536 273.600 179.041 273.600 C 187.195 273.600,187.557 273.567,187.800 272.800 C 188.055 271.995,193.051 271.744,203.810 271.993 C 206.558 272.056,208.400 271.501,208.400 270.610 C 208.400 270.067,214.007 270.000,259.800 270.000 C 309.965 270.000,311.200 270.018,311.200 270.757 C 311.200 271.930,311.816 272.000,322.186 272.000 C 331.688 272.000,331.912 272.019,332.124 272.830 C 332.255 273.332,332.629 273.630,333.070 273.584 C 337.328 273.139,349.106 273.667,349.056 274.300 C 349.025 274.685,349.225 274.955,349.500 274.900 C 349.775 274.845,350.000 274.980,350.000 275.200 C 350.000 275.451,352.533 275.600,356.800 275.600 C 363.203 275.600,363.600 275.644,363.600 276.357 C 363.600 277.356,364.462 277.523,369.971 277.587 C 374.406 277.638,375.712 277.880,375.635 278.636 C 375.614 278.836,377.938 279.050,380.799 279.112 C 383.659 279.173,386.000 279.385,386.000 279.583 C 386.000 280.937,387.240 281.200,393.629 281.200 L 400.000 281.200 400.000 245.800 L 400.000 210.400 351.000 210.400 C 302.267 210.400,302.000 210.404,302.000 211.200 " stroke="none" fill="#5cb4eb" fill-rule="evenodd"></path></g></svg>