<svg id="svg" version="1.1" xmlns="http://www.w3.org/2000/svg" xmlns:xlink="http://www.w3.org/1999/xlink" width="400" height="543.5897435897436" viewBox="0, 0, 400,543.5897435897436"><g id="svgg"><path id="path0" d="M-0.000 484.605 L -0.000 542.409 15.700 542.305 L 31.400 542.200 31.503 517.500 C 31.591 496.536,31.692 492.800,32.171 492.800 C 32.482 492.800,32.855 493.339,32.999 493.998 C 33.144 494.656,33.487 495.331,33.761 495.498 C 34.036 495.664,34.376 496.115,34.518 496.500 C 34.659 496.885,35.051 497.200,35.387 497.200 C 35.724 497.200,36.000 497.470,36.000 497.800 C 36.000 498.130,36.270 498.400,36.600 498.400 C 36.968 498.400,37.200 498.774,37.200 499.367 C 37.200 500.748,37.598 501.600,38.243 501.600 C 38.549 501.600,38.800 501.870,38.800 502.200 C 38.800 502.533,39.156 502.800,39.600 502.800 C 40.249 502.800,40.400 503.067,40.400 504.213 C 40.400 505.099,40.623 505.711,41.000 505.855 C 41.330 505.982,41.600 506.336,41.600 506.643 C 41.600 506.949,41.960 507.200,42.400 507.200 C 43.045 507.200,43.200 507.467,43.200 508.573 C 43.200 509.595,43.405 510.011,44.000 510.200 C 44.440 510.340,44.800 510.712,44.800 511.027 C 44.800 511.342,45.070 511.600,45.400 511.600 C 45.774 511.600,46.000 511.978,46.000 512.604 C 46.000 513.156,46.360 513.916,46.800 514.293 C 47.240 514.670,47.600 515.208,47.600 515.489 C 47.600 515.770,47.960 516.000,48.400 516.000 C 49.048 516.000,49.200 516.267,49.200 517.400 C 49.200 518.378,49.381 518.800,49.800 518.800 C 50.133 518.800,50.400 519.156,50.400 519.600 C 50.400 520.133,50.667 520.400,51.200 520.400 C 51.842 520.400,52.000 520.667,52.000 521.753 C 52.000 522.770,52.199 523.159,52.800 523.316 C 53.240 523.431,53.600 523.812,53.600 524.163 C 53.600 524.513,53.870 524.800,54.200 524.800 C 54.604 524.800,54.800 525.204,54.800 526.037 C 54.800 526.938,55.017 527.332,55.600 527.484 C 56.043 527.600,56.400 528.030,56.400 528.447 C 56.400 528.933,56.683 529.200,57.200 529.200 C 57.848 529.200,58.000 529.467,58.000 530.600 C 58.000 531.578,58.181 532.000,58.600 532.000 C 58.933 532.000,59.200 532.356,59.200 532.800 C 59.200 533.333,59.467 533.600,60.000 533.600 C 60.648 533.600,60.800 533.867,60.800 535.000 C 60.800 536.133,60.952 536.400,61.600 536.400 C 62.133 536.400,62.400 536.667,62.400 537.200 C 62.400 537.640,62.650 538.000,62.955 538.000 C 63.274 538.000,63.623 538.598,63.774 539.400 C 63.931 540.238,64.270 540.800,64.618 540.800 C 64.938 540.800,65.200 541.160,65.200 541.600 C 65.200 542.133,65.467 542.400,66.000 542.400 C 66.440 542.400,66.800 542.580,66.800 542.800 C 66.800 543.029,68.000 543.200,69.600 543.200 C 71.200 543.200,72.400 543.029,72.400 542.800 C 72.400 542.580,72.760 542.400,73.200 542.400 C 73.733 542.400,74.000 542.133,74.000 541.600 C 74.000 540.976,74.267 540.800,75.213 540.800 C 75.921 540.800,76.521 540.551,76.655 540.200 C 76.782 539.870,77.226 539.600,77.643 539.600 C 78.133 539.600,78.400 539.318,78.400 538.800 C 78.400 538.172,78.667 538.000,79.637 538.000 C 80.538 538.000,80.932 537.783,81.084 537.200 C 81.200 536.757,81.630 536.400,82.047 536.400 C 82.461 536.400,82.800 536.130,82.800 535.800 C 82.800 535.470,83.145 535.200,83.567 535.200 C 84.759 535.200,85.600 534.769,85.600 534.157 C 85.600 533.851,85.960 533.600,86.400 533.600 C 86.840 533.600,87.200 533.342,87.200 533.027 C 87.200 532.712,87.560 532.340,88.000 532.200 C 88.440 532.060,88.800 531.700,88.800 531.398 C 88.800 531.073,89.327 530.800,90.100 530.725 C 91.718 530.569,92.401 528.000,90.825 528.000 C 90.129 528.000,90.000 527.750,90.000 526.400 C 90.000 525.244,89.833 524.800,89.400 524.800 C 89.070 524.800,88.800 524.530,88.800 524.200 C 88.800 523.867,88.444 523.600,88.000 523.600 C 87.348 523.600,87.200 523.333,87.200 522.163 C 87.200 521.062,87.013 520.676,86.400 520.516 C 85.960 520.401,85.600 520.058,85.600 519.753 C 85.600 519.449,85.330 519.200,85.000 519.200 C 84.632 519.200,84.400 518.826,84.400 518.233 C 84.400 516.852,84.002 516.000,83.357 516.000 C 83.051 516.000,82.800 515.730,82.800 515.400 C 82.800 515.067,82.444 514.800,82.000 514.800 C 81.351 514.800,81.200 514.533,81.200 513.387 C 81.200 512.501,80.977 511.889,80.600 511.745 C 80.270 511.618,80.000 511.264,80.000 510.957 C 80.000 510.651,79.640 510.400,79.200 510.400 C 78.555 510.400,78.400 510.133,78.400 509.027 C 78.400 508.005,78.195 507.589,77.600 507.400 C 77.160 507.260,76.800 506.888,76.800 506.573 C 76.800 506.258,76.530 506.000,76.200 506.000 C 75.800 506.000,75.600 505.600,75.600 504.803 C 75.600 504.040,75.310 503.426,74.800 503.107 C 74.360 502.832,74.000 502.381,74.000 502.104 C 74.000 501.827,73.640 501.600,73.200 501.600 C 72.557 501.600,72.400 501.333,72.400 500.243 C 72.400 499.405,72.170 498.797,71.800 498.655 C 71.470 498.529,71.200 498.149,71.200 497.813 C 71.200 497.467,70.852 497.200,70.400 497.200 C 69.758 497.200,69.600 496.933,69.600 495.847 C 69.600 494.830,69.401 494.441,68.800 494.284 C 68.360 494.169,68.000 493.788,68.000 493.437 C 68.000 493.087,67.730 492.800,67.400 492.800 C 66.967 492.800,66.800 492.356,66.800 491.200 C 66.800 489.638,66.833 489.600,68.200 489.600 C 69.125 489.600,69.600 489.412,69.600 489.047 C 69.600 488.742,69.960 488.399,70.400 488.284 C 70.840 488.169,71.200 487.788,71.200 487.437 C 71.200 487.087,71.470 486.800,71.800 486.800 C 72.133 486.800,72.400 486.444,72.400 486.000 C 72.400 485.467,72.667 485.200,73.200 485.200 C 73.644 485.200,74.000 484.933,74.000 484.600 C 74.000 484.270,74.287 484.000,74.637 484.000 C 74.988 484.000,75.369 483.640,75.484 483.200 C 75.599 482.760,75.942 482.400,76.247 482.400 C 76.551 482.400,76.800 482.040,76.800 481.600 C 76.800 481.067,77.067 480.800,77.600 480.800 C 78.242 480.800,78.400 480.533,78.400 479.447 C 78.400 478.430,78.599 478.041,79.200 477.884 C 79.783 477.732,80.000 477.338,80.000 476.437 C 80.000 475.604,80.196 475.200,80.600 475.200 C 81.030 475.200,81.200 474.761,81.200 473.647 C 81.200 472.430,81.373 472.048,82.000 471.884 C 83.254 471.556,83.254 450.400,82.000 450.400 C 81.297 450.400,81.200 450.133,81.200 448.200 C 81.200 446.511,81.061 446.000,80.600 446.000 C 80.232 446.000,80.000 445.626,80.000 445.033 C 80.000 443.652,79.602 442.800,78.957 442.800 C 78.651 442.800,78.400 442.530,78.400 442.200 C 78.400 441.867,78.044 441.600,77.600 441.600 C 76.933 441.600,76.800 441.333,76.800 440.000 C 76.800 438.844,76.633 438.400,76.200 438.400 C 75.870 438.400,75.600 438.130,75.600 437.800 C 75.600 437.467,75.244 437.200,74.800 437.200 C 74.267 437.200,74.000 436.933,74.000 436.400 C 74.000 435.867,73.733 435.600,73.200 435.600 C 72.667 435.600,72.400 435.333,72.400 434.800 C 72.400 434.360,72.149 434.000,71.843 434.000 C 71.536 434.000,71.182 433.730,71.055 433.400 C 70.929 433.070,70.593 432.800,70.309 432.800 C 70.025 432.800,69.568 432.440,69.293 432.000 C 69.018 431.560,68.388 431.200,67.893 431.200 C 67.398 431.200,66.768 430.840,66.493 430.400 C 66.174 429.890,65.560 429.600,64.797 429.600 C 64.000 429.600,63.600 429.400,63.600 429.000 C 63.600 428.525,63.027 428.400,60.847 428.400 C 58.430 428.400,58.068 428.302,57.884 427.600 C 57.677 426.809,57.338 426.800,28.837 426.800 L 0.000 426.800 -0.000 484.605 M132.800 429.000 C 132.800 429.461,132.289 429.600,130.600 429.600 C 128.667 429.600,128.400 429.697,128.400 430.400 C 128.400 431.103,128.133 431.200,126.200 431.200 C 124.267 431.200,124.000 431.297,124.000 432.000 C 124.000 432.694,123.733 432.800,121.987 432.800 C 120.568 432.800,119.907 432.977,119.745 433.400 C 119.618 433.730,119.174 434.000,118.757 434.000 C 118.267 434.000,118.000 434.282,118.000 434.800 C 118.000 435.448,117.733 435.600,116.600 435.600 C 115.467 435.600,115.200 435.752,115.200 436.400 C 115.200 437.034,114.931 437.201,113.900 437.207 C 112.612 437.214,110.800 438.587,110.800 439.556 C 110.800 439.800,110.440 440.000,110.000 440.000 C 109.467 440.000,109.200 440.267,109.200 440.800 C 109.200 441.333,108.933 441.600,108.400 441.600 C 107.956 441.600,107.600 441.867,107.600 442.200 C 107.600 442.530,107.330 442.800,107.000 442.800 C 106.667 442.800,106.400 443.156,106.400 443.600 C 106.400 444.133,106.133 444.400,105.600 444.400 C 105.067 444.400,104.800 444.667,104.800 445.200 C 104.800 445.733,104.533 446.000,104.000 446.000 C 103.560 446.000,103.200 446.251,103.200 446.557 C 103.200 446.864,102.930 447.218,102.600 447.345 C 102.223 447.489,102.000 448.101,102.000 448.987 C 102.000 450.133,101.849 450.400,101.200 450.400 C 100.760 450.400,100.400 450.649,100.400 450.953 C 100.400 451.258,100.040 451.601,99.600 451.716 C 99.160 451.831,98.800 452.193,98.800 452.520 C 98.800 452.847,98.530 453.218,98.200 453.345 C 97.851 453.478,97.600 454.077,97.600 454.773 C 97.600 455.562,97.327 456.118,96.800 456.400 C 96.276 456.680,96.000 457.238,96.000 458.014 C 96.000 458.785,95.796 459.200,95.418 459.200 C 95.072 459.200,94.732 459.756,94.579 460.572 C 94.437 461.327,94.069 462.041,93.761 462.160 C 93.353 462.316,93.200 463.144,93.200 465.187 C 93.200 467.733,93.124 468.000,92.400 468.000 C 91.699 468.000,91.600 468.267,91.600 470.153 C 91.600 471.970,91.475 472.339,90.800 472.516 C 90.021 472.720,90.000 473.062,90.000 485.563 C 90.000 498.133,90.017 498.400,90.800 498.400 C 91.518 498.400,91.600 498.667,91.600 500.997 C 91.600 503.160,91.733 503.677,92.400 504.093 C 93.035 504.490,93.200 505.026,93.200 506.696 C 93.200 508.300,93.343 508.800,93.800 508.800 C 94.204 508.800,94.400 509.204,94.400 510.037 C 94.400 510.938,94.617 511.332,95.200 511.484 C 95.797 511.640,96.000 512.030,96.000 513.020 C 96.000 513.995,96.212 514.413,96.800 514.600 C 97.395 514.789,97.600 515.205,97.600 516.227 C 97.600 517.181,97.783 517.600,98.200 517.600 C 98.530 517.600,98.800 517.887,98.800 518.237 C 98.800 518.588,99.160 518.969,99.600 519.084 C 100.174 519.234,100.400 519.630,100.400 520.484 C 100.400 521.338,100.626 521.734,101.200 521.884 C 101.640 521.999,102.000 522.348,102.000 522.659 C 102.000 522.970,102.270 523.329,102.600 523.455 C 102.930 523.582,103.200 523.936,103.200 524.243 C 103.200 524.549,103.549 524.800,103.975 524.800 C 104.554 524.800,104.781 525.124,104.875 526.087 C 104.978 527.153,105.224 527.438,106.300 527.745 C 107.015 527.949,107.600 528.360,107.600 528.658 C 107.600 528.956,107.960 529.200,108.400 529.200 C 108.933 529.200,109.200 529.467,109.200 530.000 C 109.200 530.533,109.467 530.800,110.000 530.800 C 110.440 530.800,110.800 531.051,110.800 531.357 C 110.800 531.664,111.070 532.018,111.400 532.145 C 111.730 532.271,112.000 532.651,112.000 532.987 C 112.000 533.333,112.348 533.600,112.800 533.600 C 113.240 533.600,113.600 533.851,113.600 534.157 C 113.600 534.761,114.438 535.200,115.590 535.200 C 115.988 535.200,116.409 535.447,116.525 535.749 C 116.641 536.052,117.381 536.420,118.168 536.568 C 119.031 536.730,119.600 537.067,119.600 537.418 C 119.600 537.816,120.042 538.000,121.000 538.000 C 122.133 538.000,122.400 538.152,122.400 538.800 C 122.400 539.503,122.667 539.600,124.600 539.600 C 126.208 539.600,126.800 539.749,126.800 540.154 C 126.800 540.525,127.525 540.798,129.000 540.983 C 130.511 541.172,131.200 541.436,131.200 541.829 C 131.200 542.294,132.161 542.400,136.400 542.400 C 139.600 542.400,141.600 542.554,141.600 542.800 C 141.600 543.020,142.500 543.200,143.600 543.200 C 144.700 543.200,145.600 543.020,145.600 542.800 C 145.600 542.552,147.800 542.400,151.400 542.400 C 156.091 542.400,157.200 542.293,157.200 541.843 C 157.200 541.198,158.052 540.800,159.433 540.800 C 160.026 540.800,160.400 540.568,160.400 540.200 C 160.400 539.739,160.911 539.600,162.600 539.600 C 164.533 539.600,164.800 539.503,164.800 538.800 C 164.800 538.152,165.067 538.000,166.200 538.000 C 167.173 538.000,167.600 537.818,167.600 537.405 C 167.600 537.020,168.165 536.719,169.200 536.554 C 170.165 536.399,170.800 536.080,170.800 535.749 C 170.800 535.402,171.255 535.200,172.037 535.200 C 172.938 535.200,173.332 534.983,173.484 534.400 C 173.600 533.957,174.030 533.600,174.447 533.600 C 174.861 533.600,175.200 533.349,175.200 533.043 C 175.200 532.736,175.470 532.382,175.800 532.255 C 176.130 532.129,176.400 531.749,176.400 531.413 C 176.400 531.067,176.748 530.800,177.200 530.800 C 177.733 530.800,178.000 530.533,178.000 530.000 C 178.000 529.372,178.267 529.200,179.237 529.200 C 180.138 529.200,180.532 528.983,180.684 528.400 C 180.800 527.957,181.230 527.600,181.647 527.600 C 182.061 527.600,182.400 527.349,182.400 527.043 C 182.400 526.736,182.653 526.388,182.962 526.270 C 183.272 526.151,183.646 525.502,183.794 524.827 C 183.942 524.152,184.319 523.600,184.632 523.600 C 184.944 523.600,185.200 523.240,185.200 522.800 C 185.200 522.267,185.467 522.000,186.000 522.000 C 186.533 522.000,186.800 521.733,186.800 521.200 C 186.800 520.760,187.051 520.400,187.357 520.400 C 187.969 520.400,188.400 519.559,188.400 518.367 C 188.400 517.945,188.670 517.600,189.000 517.600 C 189.415 517.600,189.600 517.183,189.600 516.247 C 189.600 515.230,189.799 514.841,190.400 514.684 C 191.013 514.524,191.200 514.138,191.200 513.037 C 191.200 511.867,191.348 511.600,192.000 511.600 C 192.648 511.600,192.800 511.333,192.800 510.200 C 192.800 509.222,192.981 508.800,193.400 508.800 C 193.861 508.800,194.000 508.289,194.000 506.600 C 194.000 504.667,194.097 504.400,194.800 504.400 C 195.503 504.400,195.600 504.133,195.600 502.200 C 195.600 500.586,195.748 500.000,196.157 500.000 C 197.051 500.000,197.200 499.051,197.200 493.367 C 197.200 488.863,197.296 488.000,197.800 488.000 C 198.253 488.000,198.400 487.511,198.400 486.000 C 198.400 484.533,198.248 484.000,197.828 484.000 C 197.362 484.000,197.233 482.845,197.128 477.767 C 197.017 472.385,196.904 471.464,196.300 471.023 C 195.790 470.651,195.600 469.953,195.600 468.456 C 195.600 466.667,195.496 466.400,194.800 466.400 C 194.097 466.400,194.000 466.133,194.000 464.200 C 194.000 462.511,193.861 462.000,193.400 462.000 C 192.981 462.000,192.800 461.578,192.800 460.600 C 192.800 459.467,192.648 459.200,192.000 459.200 C 191.333 459.200,191.200 458.933,191.200 457.600 C 191.200 456.267,191.067 456.000,190.400 456.000 C 189.752 456.000,189.600 455.733,189.600 454.600 C 189.600 453.622,189.419 453.200,189.000 453.200 C 188.670 453.200,188.400 452.913,188.400 452.563 C 188.400 452.212,188.040 451.831,187.600 451.716 C 187.026 451.566,186.800 451.170,186.800 450.316 C 186.800 449.462,186.574 449.066,186.000 448.916 C 185.557 448.800,185.200 448.370,185.200 447.953 C 185.200 447.539,184.930 447.200,184.600 447.200 C 184.270 447.200,184.000 446.930,184.000 446.600 C 184.000 446.267,183.644 446.000,183.200 446.000 C 182.667 446.000,182.400 445.733,182.400 445.200 C 182.400 444.667,182.133 444.400,181.600 444.400 C 181.067 444.400,180.800 444.133,180.800 443.600 C 180.800 443.156,180.533 442.800,180.200 442.800 C 179.870 442.800,179.600 442.530,179.600 442.200 C 179.600 441.867,179.244 441.600,178.800 441.600 C 178.267 441.600,178.000 441.333,178.000 440.800 C 178.000 440.267,177.733 440.000,177.200 440.000 C 176.667 440.000,176.400 439.733,176.400 439.200 C 176.400 438.756,176.133 438.400,175.800 438.400 C 175.470 438.400,175.200 438.130,175.200 437.800 C 175.200 437.367,174.756 437.200,173.600 437.200 C 172.267 437.200,172.000 437.067,172.000 436.400 C 172.000 435.752,171.733 435.600,170.600 435.600 C 169.467 435.600,169.200 435.448,169.200 434.800 C 169.200 434.267,168.933 434.000,168.400 434.000 C 167.956 434.000,167.600 433.733,167.600 433.400 C 167.600 432.981,167.178 432.800,166.200 432.800 C 165.270 432.800,164.800 432.613,164.800 432.243 C 164.800 431.539,163.927 431.200,162.111 431.200 C 161.235 431.200,160.498 430.939,160.192 430.522 C 159.840 430.040,158.933 429.795,157.048 429.675 C 155.141 429.554,154.400 429.352,154.400 428.953 C 154.400 428.496,152.529 428.400,143.600 428.400 C 134.267 428.400,132.800 428.481,132.800 429.000 M250.000 429.000 C 250.000 429.461,249.489 429.600,247.800 429.600 C 245.867 429.600,245.600 429.697,245.600 430.400 C 245.600 431.103,245.333 431.200,243.400 431.200 C 241.467 431.200,241.200 431.297,241.200 432.000 C 241.200 432.667,240.933 432.800,239.600 432.800 C 238.444 432.800,238.000 432.967,238.000 433.400 C 238.000 433.819,237.578 434.000,236.600 434.000 C 235.467 434.000,235.200 434.152,235.200 434.800 C 235.200 435.448,234.933 435.600,233.800 435.600 C 232.667 435.600,232.400 435.752,232.400 436.400 C 232.400 437.048,232.133 437.200,231.000 437.200 C 230.051 437.200,229.600 437.385,229.600 437.773 C 229.600 438.088,229.240 438.460,228.800 438.600 C 228.360 438.740,228.000 439.112,228.000 439.427 C 228.000 439.742,227.640 440.000,227.200 440.000 C 226.667 440.000,226.400 440.267,226.400 440.800 C 226.400 441.333,226.133 441.600,225.600 441.600 C 225.156 441.600,224.800 441.867,224.800 442.200 C 224.800 442.530,224.530 442.800,224.200 442.800 C 223.867 442.800,223.600 443.156,223.600 443.600 C 223.600 444.133,223.333 444.400,222.800 444.400 C 222.267 444.400,222.000 444.667,222.000 445.200 C 222.000 445.733,221.733 446.000,221.200 446.000 C 220.667 446.000,220.400 446.267,220.400 446.800 C 220.400 447.244,220.133 447.600,219.800 447.600 C 219.381 447.600,219.200 448.022,219.200 449.000 C 219.200 450.133,219.048 450.400,218.400 450.400 C 217.960 450.400,217.600 450.649,217.600 450.953 C 217.600 451.258,217.240 451.601,216.800 451.716 C 216.360 451.831,216.000 452.193,216.000 452.520 C 216.000 452.847,215.730 453.218,215.400 453.345 C 215.051 453.478,214.800 454.077,214.800 454.773 C 214.800 455.562,214.527 456.118,214.000 456.400 C 213.476 456.680,213.200 457.238,213.200 458.014 C 213.200 458.785,212.996 459.200,212.618 459.200 C 212.272 459.200,211.932 459.756,211.779 460.572 C 211.637 461.327,211.269 462.041,210.961 462.160 C 210.553 462.316,210.400 463.144,210.400 465.187 C 210.400 467.733,210.324 468.000,209.600 468.000 C 208.897 468.000,208.800 468.267,208.800 470.200 C 208.800 471.814,208.652 472.400,208.243 472.400 C 206.810 472.400,206.571 497.910,208.000 498.284 C 208.694 498.466,208.800 498.830,208.800 501.043 C 208.800 503.160,208.936 503.678,209.600 504.093 C 210.235 504.490,210.400 505.026,210.400 506.696 C 210.400 508.300,210.543 508.800,211.000 508.800 C 211.404 508.800,211.600 509.204,211.600 510.037 C 211.600 510.938,211.817 511.332,212.400 511.484 C 212.997 511.640,213.200 512.030,213.200 513.020 C 213.200 513.995,213.412 514.413,214.000 514.600 C 214.595 514.789,214.800 515.205,214.800 516.227 C 214.800 517.181,214.983 517.600,215.400 517.600 C 215.730 517.600,216.000 517.887,216.000 518.237 C 216.000 518.588,216.360 518.969,216.800 519.084 C 217.374 519.234,217.600 519.630,217.600 520.484 C 217.600 521.338,217.826 521.734,218.400 521.884 C 218.840 521.999,219.200 522.323,219.200 522.604 C 219.200 522.885,219.470 523.218,219.800 523.345 C 220.130 523.471,220.400 523.851,220.400 524.187 C 220.400 524.533,220.748 524.800,221.200 524.800 C 221.733 524.800,222.000 525.067,222.000 525.600 C 222.000 526.133,222.267 526.400,222.800 526.400 C 223.333 526.400,223.600 526.667,223.600 527.200 C 223.600 527.644,223.867 528.000,224.200 528.000 C 224.530 528.000,224.800 528.270,224.800 528.600 C 224.800 528.933,225.156 529.200,225.600 529.200 C 226.133 529.200,226.400 529.467,226.400 530.000 C 226.400 530.533,226.667 530.800,227.200 530.800 C 227.640 530.800,228.000 531.051,228.000 531.357 C 228.000 531.664,228.270 532.018,228.600 532.145 C 228.930 532.271,229.200 532.651,229.200 532.987 C 229.200 533.435,229.630 533.600,230.800 533.600 C 232.133 533.600,232.400 533.733,232.400 534.400 C 232.400 534.840,232.651 535.200,232.957 535.200 C 233.264 535.200,233.609 535.447,233.725 535.749 C 233.841 536.052,234.581 536.420,235.368 536.568 C 236.231 536.730,236.800 537.067,236.800 537.418 C 236.800 537.816,237.242 538.000,238.200 538.000 C 239.333 538.000,239.600 538.152,239.600 538.800 C 239.600 539.503,239.867 539.600,241.800 539.600 C 243.489 539.600,244.000 539.739,244.000 540.200 C 244.000 540.565,244.372 540.800,244.950 540.800 C 246.752 540.800,248.400 541.302,248.400 541.850 C 248.400 542.288,249.455 542.400,253.600 542.400 C 256.800 542.400,258.800 542.554,258.800 542.800 C 258.800 543.020,259.700 543.200,260.800 543.200 C 261.900 543.200,262.800 543.020,262.800 542.800 C 262.800 542.552,264.993 542.400,268.580 542.400 C 273.512 542.400,274.414 542.304,274.726 541.746 C 274.962 541.324,275.817 541.023,277.146 540.896 C 278.525 540.763,279.200 540.518,279.200 540.149 C 279.200 539.758,279.767 539.600,281.173 539.600 C 282.795 539.600,283.191 539.458,283.400 538.800 C 283.589 538.205,284.005 538.000,285.027 538.000 C 285.934 538.000,286.400 537.811,286.400 537.443 C 286.400 536.831,287.241 536.400,288.433 536.400 C 288.855 536.400,289.200 536.130,289.200 535.800 C 289.200 535.467,289.556 535.200,290.000 535.200 C 290.533 535.200,290.800 534.933,290.800 534.400 C 290.800 533.867,291.067 533.600,291.600 533.600 C 292.040 533.600,292.400 533.338,292.400 533.018 C 292.400 532.670,292.962 532.331,293.800 532.174 C 294.570 532.029,295.200 531.682,295.200 531.402 C 295.200 531.122,295.560 530.799,296.000 530.684 C 296.440 530.569,296.800 530.188,296.800 529.837 C 296.800 529.487,297.070 529.200,297.400 529.200 C 297.730 529.200,298.000 528.951,298.000 528.647 C 298.000 528.342,298.360 527.999,298.800 527.884 C 299.546 527.689,299.600 527.338,299.600 522.684 C 299.600 517.996,299.649 517.680,300.417 517.480 C 301.169 517.283,301.224 517.003,301.117 513.933 L 301.000 510.600 299.500 510.476 C 298.325 510.379,298.000 510.184,298.000 509.576 C 298.000 508.902,297.711 508.800,295.800 508.800 C 293.867 508.800,293.600 508.703,293.600 508.000 C 293.600 507.352,293.333 507.200,292.200 507.200 C 291.222 507.200,290.800 507.019,290.800 506.600 C 290.800 506.139,290.289 506.000,288.600 506.000 C 286.667 506.000,286.400 505.903,286.400 505.200 C 286.400 504.552,286.133 504.400,285.000 504.400 C 283.867 504.400,283.600 504.552,283.600 505.200 C 283.600 505.733,283.333 506.000,282.800 506.000 C 282.348 506.000,282.000 506.267,282.000 506.613 C 282.000 506.949,281.730 507.329,281.400 507.455 C 281.070 507.582,280.800 507.915,280.800 508.196 C 280.800 508.477,280.440 508.801,280.000 508.916 C 279.560 509.031,279.200 509.412,279.200 509.763 C 279.200 510.133,278.865 510.400,278.400 510.400 C 277.956 510.400,277.600 510.667,277.600 511.000 C 277.600 511.330,277.330 511.600,277.000 511.600 C 276.667 511.600,276.400 511.956,276.400 512.400 C 276.400 513.052,276.133 513.200,274.963 513.200 C 273.862 513.200,273.476 513.387,273.316 514.000 C 273.201 514.440,272.858 514.800,272.553 514.800 C 272.249 514.800,272.000 515.070,272.000 515.400 C 272.000 515.861,271.489 516.000,269.800 516.000 C 267.867 516.000,267.600 516.097,267.600 516.800 C 267.600 517.564,267.333 517.600,261.647 517.600 C 256.030 517.600,255.681 517.555,255.484 516.800 C 255.309 516.132,254.938 516.000,253.237 516.000 C 251.693 516.000,251.200 515.855,251.200 515.400 C 251.200 514.981,250.778 514.800,249.800 514.800 C 248.667 514.800,248.400 514.648,248.400 514.000 C 248.400 513.467,248.133 513.200,247.600 513.200 C 247.160 513.200,246.800 512.949,246.800 512.643 C 246.800 512.031,245.959 511.600,244.767 511.600 C 244.345 511.600,244.000 511.330,244.000 511.000 C 244.000 510.667,243.644 510.400,243.200 510.400 C 242.667 510.400,242.400 510.133,242.400 509.600 C 242.400 509.156,242.133 508.800,241.800 508.800 C 241.470 508.800,241.200 508.513,241.200 508.163 C 241.200 507.812,240.840 507.431,240.400 507.316 C 239.826 507.166,239.600 506.770,239.600 505.916 C 239.600 505.062,239.374 504.666,238.800 504.516 C 238.357 504.400,238.000 503.970,238.000 503.553 C 238.000 503.139,237.730 502.800,237.400 502.800 C 236.996 502.800,236.800 502.396,236.800 501.563 C 236.800 500.662,236.583 500.268,236.000 500.116 C 235.335 499.942,235.200 499.570,235.200 497.916 C 235.200 496.262,235.065 495.890,234.400 495.716 C 233.699 495.533,233.600 495.170,233.600 492.796 C 233.600 490.756,233.452 490.029,233.000 489.855 C 232.529 489.674,232.400 488.859,232.400 486.055 C 232.400 483.251,232.529 482.436,233.000 482.255 C 233.468 482.076,233.600 481.277,233.600 478.613 C 233.600 475.467,233.663 475.200,234.400 475.200 C 235.067 475.200,235.200 474.933,235.200 473.600 C 235.200 472.467,235.370 472.000,235.782 472.000 C 236.128 472.000,236.468 471.444,236.621 470.628 C 236.763 469.873,237.131 469.159,237.439 469.040 C 237.750 468.921,238.000 468.284,238.000 467.613 C 238.000 466.667,238.176 466.400,238.800 466.400 C 239.333 466.400,239.600 466.133,239.600 465.600 C 239.600 465.156,239.867 464.800,240.200 464.800 C 240.530 464.800,240.800 464.596,240.800 464.346 C 240.800 463.809,242.437 462.225,243.356 461.872 C 243.710 461.736,244.000 461.349,244.000 461.013 C 244.000 460.676,244.249 460.400,244.553 460.400 C 244.858 460.400,245.201 460.040,245.316 459.600 C 245.431 459.160,245.812 458.800,246.163 458.800 C 246.513 458.800,246.800 458.530,246.800 458.200 C 246.800 457.781,247.222 457.600,248.200 457.600 C 249.333 457.600,249.600 457.448,249.600 456.800 C 249.600 456.133,249.867 456.000,251.200 456.000 C 252.356 456.000,252.800 455.833,252.800 455.400 C 252.800 454.991,253.213 454.799,254.100 454.796 C 256.458 454.788,258.400 454.314,258.400 453.748 C 258.400 453.333,259.127 453.200,261.400 453.200 C 263.673 453.200,264.400 453.333,264.400 453.748 C 264.400 454.332,266.358 454.788,268.900 454.796 C 269.965 454.799,270.400 454.974,270.400 455.400 C 270.400 455.819,270.822 456.000,271.800 456.000 C 272.933 456.000,273.200 456.152,273.200 456.800 C 273.200 457.318,273.467 457.600,273.957 457.600 C 274.374 457.600,274.808 457.844,274.923 458.143 C 275.037 458.442,275.687 458.797,276.366 458.933 C 277.097 459.079,277.600 459.428,277.600 459.790 C 277.600 460.133,277.950 460.400,278.400 460.400 C 278.933 460.400,279.200 460.667,279.200 461.200 C 279.200 461.733,279.467 462.000,280.000 462.000 C 280.444 462.000,280.800 462.267,280.800 462.600 C 280.800 462.930,281.070 463.200,281.400 463.200 C 281.733 463.200,282.000 463.556,282.000 464.000 C 282.000 464.703,282.267 464.800,284.200 464.800 C 286.133 464.800,286.400 464.703,286.400 464.000 C 286.400 463.467,286.667 463.200,287.200 463.200 C 287.644 463.200,288.000 462.933,288.000 462.600 C 288.000 462.270,288.270 462.000,288.600 462.000 C 288.933 462.000,289.200 461.644,289.200 461.200 C 289.200 460.683,289.467 460.400,289.953 460.400 C 290.370 460.400,290.800 460.043,290.916 459.600 C 291.031 459.160,291.412 458.800,291.763 458.800 C 292.113 458.800,292.400 458.530,292.400 458.200 C 292.400 457.870,292.670 457.600,293.000 457.600 C 293.333 457.600,293.600 457.244,293.600 456.800 C 293.600 456.267,293.867 456.000,294.400 456.000 C 294.840 456.000,295.200 455.742,295.200 455.427 C 295.200 455.112,295.560 454.740,296.000 454.600 C 296.440 454.460,296.800 454.088,296.800 453.773 C 296.800 453.458,297.070 453.200,297.400 453.200 C 297.906 453.200,298.000 452.289,298.000 447.400 C 298.000 442.632,297.898 441.600,297.427 441.600 C 297.112 441.600,296.740 441.240,296.600 440.800 C 296.411 440.205,295.995 440.000,294.973 440.000 C 293.867 440.000,293.600 439.845,293.600 439.200 C 293.600 438.756,293.333 438.400,293.000 438.400 C 292.670 438.400,292.400 438.130,292.400 437.800 C 292.400 437.470,292.061 437.200,291.647 437.200 C 291.230 437.200,290.800 436.843,290.684 436.400 C 290.534 435.826,290.138 435.600,289.284 435.600 C 288.430 435.600,288.034 435.374,287.884 434.800 C 287.724 434.187,287.338 434.000,286.237 434.000 C 285.226 434.000,284.800 433.822,284.800 433.400 C 284.800 432.981,284.378 432.800,283.400 432.800 C 282.267 432.800,282.000 432.648,282.000 432.000 C 282.000 431.299,281.733 431.200,279.847 431.200 C 278.030 431.200,277.661 431.075,277.484 430.400 C 277.310 429.735,276.938 429.600,275.280 429.600 C 273.876 429.600,273.217 429.422,273.055 429.000 C 272.858 428.486,271.188 428.400,261.413 428.400 C 251.535 428.400,250.000 428.481,250.000 429.000 M305.600 485.400 L 305.600 542.400 321.000 542.400 L 336.400 542.400 336.400 519.000 L 336.400 495.600 353.200 495.600 L 370.000 495.600 370.000 519.000 L 370.000 542.400 385.000 542.400 L 400.000 542.400 400.000 485.400 L 400.000 428.400 385.000 428.400 L 370.000 428.400 370.000 448.200 L 370.000 468.000 353.200 468.000 L 336.400 468.000 336.400 448.200 L 336.400 428.400 321.000 428.400 L 305.600 428.400 305.600 485.400 M43.200 452.400 C 43.200 453.067,43.467 453.200,44.800 453.200 C 45.899 453.200,46.400 453.374,46.400 453.755 C 46.400 454.074,46.998 454.423,47.800 454.574 C 48.638 454.731,49.200 455.070,49.200 455.418 C 49.200 455.738,49.487 456.000,49.837 456.000 C 50.188 456.000,50.569 456.360,50.684 456.800 C 50.799 457.240,51.142 457.600,51.447 457.600 C 51.751 457.600,52.000 457.870,52.000 458.200 C 52.000 458.533,52.356 458.800,52.800 458.800 C 53.449 458.800,53.600 459.067,53.600 460.213 C 53.600 461.099,53.823 461.711,54.200 461.855 C 54.631 462.021,54.800 462.694,54.800 464.243 C 54.800 465.894,54.659 466.400,54.200 466.400 C 53.781 466.400,53.600 466.822,53.600 467.800 C 53.600 468.933,53.448 469.200,52.800 469.200 C 52.267 469.200,52.000 469.467,52.000 470.000 C 52.000 470.465,51.733 470.800,51.363 470.800 C 51.012 470.800,50.631 471.160,50.516 471.600 C 50.401 472.040,50.058 472.400,49.753 472.400 C 49.449 472.400,49.200 472.670,49.200 473.000 C 49.200 473.422,48.774 473.600,47.763 473.600 C 46.662 473.600,46.276 473.787,46.116 474.400 C 45.944 475.059,45.570 475.200,43.996 475.200 C 42.667 475.200,42.016 475.383,41.855 475.800 C 41.668 476.289,40.699 476.400,36.613 476.400 L 31.600 476.400 31.600 464.000 L 31.600 451.600 37.400 451.600 C 42.933 451.600,43.200 451.637,43.200 452.400 M147.200 453.753 C 147.200 454.379,148.397 454.786,150.257 454.795 C 151.002 454.798,151.608 455.045,151.745 455.400 C 151.889 455.777,152.501 456.000,153.387 456.000 C 154.328 456.000,154.800 456.186,154.800 456.557 C 154.800 457.169,155.641 457.600,156.833 457.600 C 157.255 457.600,157.600 457.870,157.600 458.200 C 157.600 458.530,157.939 458.800,158.353 458.800 C 158.770 458.800,159.200 459.157,159.316 459.600 C 159.468 460.183,159.862 460.400,160.763 460.400 C 161.733 460.400,162.000 460.572,162.000 461.200 C 162.000 461.644,162.267 462.000,162.600 462.000 C 162.930 462.000,163.200 462.270,163.200 462.600 C 163.200 462.933,163.556 463.200,164.000 463.200 C 164.652 463.200,164.800 463.467,164.800 464.637 C 164.800 465.738,164.987 466.124,165.600 466.284 C 166.040 466.399,166.400 466.742,166.400 467.047 C 166.400 467.351,166.670 467.600,167.000 467.600 C 167.368 467.600,167.600 467.974,167.600 468.567 C 167.600 469.948,167.998 470.800,168.643 470.800 C 169.013 470.800,169.200 471.270,169.200 472.200 C 169.200 473.333,169.352 473.600,170.000 473.600 C 170.724 473.600,170.800 473.867,170.800 476.413 C 170.800 478.544,170.945 479.281,171.400 479.455 C 171.895 479.645,172.000 480.696,172.000 485.455 C 172.000 490.215,171.895 491.265,171.400 491.455 C 170.947 491.629,170.800 492.361,170.800 494.443 C 170.800 496.933,170.723 497.200,170.000 497.200 C 169.352 497.200,169.200 497.467,169.200 498.600 C 169.200 499.558,169.016 500.000,168.618 500.000 C 168.267 500.000,167.930 500.569,167.768 501.432 C 167.620 502.219,167.252 502.959,166.949 503.075 C 166.633 503.196,166.400 503.861,166.400 504.643 C 166.400 505.733,166.243 506.000,165.600 506.000 C 165.156 506.000,164.800 506.267,164.800 506.600 C 164.800 506.930,164.542 507.200,164.227 507.200 C 163.912 507.200,163.540 507.560,163.400 508.000 C 163.260 508.440,162.888 508.800,162.573 508.800 C 162.258 508.800,162.000 509.160,162.000 509.600 C 162.000 510.133,161.733 510.400,161.200 510.400 C 160.756 510.400,160.400 510.667,160.400 511.000 C 160.400 511.330,160.113 511.600,159.763 511.600 C 159.412 511.600,159.031 511.960,158.916 512.400 C 158.759 513.001,158.370 513.200,157.353 513.200 C 156.267 513.200,156.000 513.358,156.000 514.000 C 156.000 514.624,155.733 514.800,154.787 514.800 C 154.079 514.800,153.479 515.049,153.345 515.400 C 153.204 515.767,152.598 516.000,151.784 516.000 C 150.805 516.000,150.387 516.211,150.200 516.800 C 149.872 517.834,138.400 518.070,138.400 517.043 C 138.400 516.323,137.522 516.000,135.567 516.000 C 134.441 516.000,134.000 515.831,134.000 515.400 C 134.000 514.981,133.578 514.800,132.600 514.800 C 131.467 514.800,131.200 514.648,131.200 514.000 C 131.200 513.333,130.933 513.200,129.600 513.200 C 128.267 513.200,128.000 513.067,128.000 512.400 C 128.000 511.956,127.733 511.600,127.400 511.600 C 127.070 511.600,126.800 511.330,126.800 511.000 C 126.800 510.667,126.444 510.400,126.000 510.400 C 125.467 510.400,125.200 510.133,125.200 509.600 C 125.200 509.160,124.942 508.800,124.627 508.800 C 124.312 508.800,123.940 508.440,123.800 508.000 C 123.660 507.560,123.288 507.200,122.973 507.200 C 122.599 507.200,122.400 506.770,122.400 505.963 C 122.400 505.062,122.183 504.668,121.600 504.516 C 121.157 504.400,120.800 503.970,120.800 503.553 C 120.800 503.139,120.550 502.800,120.245 502.800 C 119.926 502.800,119.577 502.202,119.426 501.400 C 119.269 500.562,118.930 500.000,118.582 500.000 C 118.149 500.000,118.000 499.479,118.000 497.963 C 118.000 496.262,117.868 495.891,117.200 495.716 C 116.505 495.534,116.400 495.170,116.400 492.941 C 116.400 491.029,116.247 490.316,115.800 490.145 C 115.315 489.959,115.200 489.039,115.200 485.357 C 115.200 481.573,115.302 480.800,115.800 480.800 C 116.275 480.800,116.400 480.227,116.400 478.047 C 116.400 475.630,116.498 475.268,117.200 475.084 C 117.813 474.924,118.000 474.538,118.000 473.437 C 118.000 472.426,118.178 472.000,118.600 472.000 C 118.974 472.000,119.200 471.622,119.200 470.996 C 119.200 470.444,119.560 469.684,120.000 469.307 C 120.444 468.927,120.800 468.127,120.800 467.511 C 120.800 466.667,120.992 466.400,121.600 466.400 C 122.133 466.400,122.400 466.133,122.400 465.600 C 122.400 465.156,122.667 464.800,123.000 464.800 C 123.333 464.800,123.600 464.444,123.600 464.000 C 123.600 463.560,123.826 463.200,124.102 463.200 C 124.378 463.200,125.130 462.570,125.772 461.800 C 126.414 461.030,127.157 460.400,127.423 460.400 C 127.689 460.400,128.001 460.040,128.116 459.600 C 128.231 459.160,128.612 458.800,128.963 458.800 C 129.313 458.800,129.600 458.530,129.600 458.200 C 129.600 457.781,130.022 457.600,131.000 457.600 C 132.133 457.600,132.400 457.448,132.400 456.800 C 132.400 456.133,132.667 456.000,134.000 456.000 C 135.156 456.000,135.600 455.833,135.600 455.400 C 135.600 454.991,136.014 454.798,136.900 454.795 C 138.800 454.787,140.000 454.384,140.000 453.753 C 140.000 453.323,140.802 453.200,143.600 453.200 C 146.398 453.200,147.200 453.323,147.200 453.753 " stroke="none" fill="#18242a" fill-rule="evenodd"></path><path id="path1" d="M344.900 199.899 C 349.025 199.964,355.775 199.964,359.900 199.899 C 364.025 199.834,360.650 199.781,352.400 199.781 C 344.150 199.781,340.775 199.834,344.900 199.899 M317.509 216.798 C 317.025 217.573,316.586 217.600,304.704 217.600 C 294.034 217.600,292.400 217.680,292.400 218.200 C 292.400 218.707,291.378 218.808,285.800 218.850 C 282.170 218.878,279.020 218.945,278.800 219.000 C 278.580 219.055,278.220 219.123,278.000 219.150 C 277.780 219.178,277.600 219.470,277.600 219.800 C 277.600 220.311,276.533 220.400,270.400 220.400 C 263.467 220.400,263.200 220.430,263.200 221.200 C 263.200 221.957,262.933 222.000,258.220 222.000 C 254.275 222.000,253.172 222.121,252.914 222.583 C 252.664 223.030,251.589 223.180,248.294 223.228 C 244.375 223.285,244.000 223.357,244.000 224.045 C 244.000 224.745,243.632 224.800,238.963 224.800 C 234.262 224.800,233.911 224.853,233.716 225.600 C 233.521 226.344,233.170 226.400,228.741 226.400 C 224.873 226.400,223.931 226.513,223.745 227.000 C 223.565 227.467,222.773 227.600,220.161 227.600 C 217.240 227.600,216.742 227.703,216.307 228.400 C 215.872 229.096,215.374 229.200,212.466 229.200 C 209.462 229.200,209.104 229.281,208.916 230.000 C 208.729 230.715,204.662 231.233,202.289 230.844 C 202.118 230.816,201.873 231.064,201.746 231.396 C 201.568 231.859,200.825 232.000,198.557 232.000 C 195.867 232.000,195.600 232.072,195.600 232.800 C 195.600 233.541,195.333 233.600,192.000 233.600 C 189.220 233.600,188.400 233.725,188.400 234.148 C 188.400 234.778,186.401 235.189,183.300 235.196 C 181.702 235.199,181.200 235.343,181.200 235.800 C 181.200 236.251,180.717 236.400,179.249 236.400 C 177.417 236.400,176.045 237.111,176.670 237.737 C 176.815 237.882,175.650 238.000,174.081 238.000 C 171.624 238.000,171.168 238.113,170.794 238.811 C 170.555 239.257,170.191 239.518,169.985 239.391 C 169.251 238.937,164.800 239.676,164.800 240.252 C 164.800 240.661,164.130 240.800,162.163 240.800 C 159.862 240.800,159.498 240.902,159.316 241.600 C 159.140 242.272,158.770 242.400,156.996 242.400 C 155.489 242.400,154.820 242.572,154.655 243.000 C 154.505 243.392,153.882 243.600,152.863 243.600 C 150.492 243.600,148.800 244.037,148.800 244.650 C 148.800 245.050,148.200 245.200,146.600 245.200 C 144.667 245.200,144.400 245.297,144.400 246.000 C 144.400 246.720,144.133 246.800,141.744 246.800 C 139.890 246.800,138.954 246.976,138.644 247.382 C 138.400 247.702,137.391 248.057,136.402 248.171 C 135.414 248.286,134.404 248.654,134.158 248.990 C 133.867 249.388,133.054 249.600,131.818 249.600 C 130.262 249.600,129.888 249.742,129.716 250.400 C 129.543 251.061,129.170 251.200,127.573 251.200 C 126.210 251.200,125.533 251.390,125.278 251.846 C 125.048 252.258,124.298 252.521,123.205 252.574 C 122.141 252.626,121.308 252.911,121.003 253.329 C 120.680 253.770,119.944 254.000,118.859 254.000 C 117.640 254.000,117.076 254.210,116.707 254.800 C 116.334 255.398,115.774 255.600,114.491 255.600 C 113.335 255.600,112.700 255.796,112.545 256.200 C 112.418 256.530,111.898 256.800,111.390 256.800 C 110.050 256.800,109.200 257.205,109.200 257.843 C 109.200 258.244,108.647 258.400,107.227 258.400 C 105.605 258.400,105.209 258.542,105.000 259.200 C 104.811 259.795,104.395 260.000,103.373 260.000 C 102.419 260.000,102.000 260.183,102.000 260.600 C 102.000 261.031,101.559 261.200,100.433 261.200 C 98.478 261.200,97.600 261.523,97.600 262.243 C 97.600 262.616,97.125 262.800,96.163 262.800 C 95.062 262.800,94.676 262.987,94.516 263.600 C 94.343 264.261,93.970 264.400,92.373 264.400 C 91.074 264.400,90.330 264.596,90.105 264.997 C 89.922 265.326,89.255 265.638,88.624 265.690 C 87.917 265.748,87.406 266.056,87.292 266.492 C 87.146 267.050,86.684 267.200,85.116 267.200 C 83.462 267.200,83.090 267.335,82.916 268.000 C 82.759 268.601,82.370 268.800,81.353 268.800 C 80.417 268.800,80.000 268.985,80.000 269.400 C 80.000 269.768,79.626 270.000,79.033 270.000 C 77.652 270.000,76.800 270.398,76.800 271.043 C 76.800 271.413,76.330 271.600,75.400 271.600 C 74.267 271.600,74.000 271.752,74.000 272.400 C 74.000 273.048,73.733 273.200,72.600 273.200 C 71.622 273.200,71.200 273.381,71.200 273.800 C 71.200 274.209,70.786 274.402,69.900 274.405 C 68.000 274.413,66.800 274.816,66.800 275.447 C 66.800 275.799,66.349 276.000,65.563 276.000 C 64.662 276.000,64.268 276.217,64.116 276.800 C 64.001 277.240,63.613 277.614,63.253 277.631 C 61.987 277.690,61.077 277.951,60.840 278.323 C 60.708 278.530,60.015 278.826,59.300 278.982 C 58.576 279.139,58.000 279.515,58.000 279.832 C 58.000 280.215,57.543 280.400,56.600 280.400 C 55.467 280.400,55.200 280.552,55.200 281.200 C 55.200 281.717,54.917 282.018,54.400 282.050 C 53.960 282.078,53.420 282.145,53.200 282.200 C 52.980 282.255,52.609 282.322,52.376 282.350 C 52.143 282.377,52.064 282.580,52.200 282.800 C 52.336 283.020,52.065 283.200,51.597 283.200 C 50.458 283.200,49.120 283.947,49.412 284.420 C 49.542 284.629,49.187 284.800,48.624 284.800 C 47.867 284.800,47.600 285.008,47.600 285.600 C 47.600 286.248,47.333 286.400,46.200 286.400 C 45.222 286.400,44.800 286.581,44.800 287.000 C 44.800 287.419,44.378 287.600,43.400 287.600 C 42.128 287.600,41.795 287.899,41.953 288.900 C 41.979 289.065,41.280 289.200,40.400 289.200 C 39.067 289.200,38.800 289.333,38.800 290.000 C 38.800 290.648,38.533 290.800,37.400 290.800 C 36.475 290.800,36.000 290.988,36.000 291.353 C 36.000 291.658,35.640 292.001,35.200 292.116 C 34.760 292.231,34.400 292.612,34.400 292.963 C 34.400 293.424,34.014 293.600,33.000 293.600 C 32.230 293.600,31.621 293.735,31.647 293.900 C 31.805 294.901,31.472 295.200,30.200 295.200 C 29.222 295.200,28.800 295.381,28.800 295.800 C 28.800 296.133,28.444 296.400,28.000 296.400 C 27.467 296.400,27.200 296.667,27.200 297.200 C 27.200 297.828,26.933 298.000,25.963 298.000 C 25.062 298.000,24.668 298.217,24.516 298.800 C 24.400 299.243,23.970 299.600,23.553 299.600 C 23.139 299.600,22.800 299.870,22.800 300.200 C 22.800 300.619,22.378 300.800,21.400 300.800 C 20.267 300.800,20.000 300.952,20.000 301.600 C 20.000 302.133,19.733 302.400,19.200 302.400 C 18.667 302.400,18.400 302.667,18.400 303.200 C 18.400 303.848,18.133 304.000,17.000 304.000 C 16.072 304.000,15.600 304.187,15.600 304.555 C 15.600 304.871,15.011 305.221,14.239 305.366 C 13.490 305.507,12.776 305.887,12.651 306.211 C 12.527 306.535,12.149 306.800,11.813 306.800 C 11.467 306.800,11.200 307.148,11.200 307.600 C 11.200 308.133,10.933 308.400,10.400 308.400 C 9.956 308.400,9.600 308.667,9.600 309.000 C 9.600 309.404,9.196 309.600,8.363 309.600 C 7.462 309.600,7.068 309.817,6.916 310.400 C 6.800 310.843,6.370 311.200,5.953 311.200 C 5.467 311.200,5.200 311.483,5.200 312.000 C 5.200 312.533,4.933 312.800,4.400 312.800 C 3.956 312.800,3.600 313.067,3.600 313.400 C 3.600 313.730,3.255 314.000,2.833 314.000 C 0.760 314.000,0.800 313.808,0.800 323.843 L 0.800 333.200 2.400 333.200 C 3.467 333.200,4.267 332.933,4.800 332.400 C 5.240 331.960,5.780 331.600,6.000 331.600 C 6.220 331.600,6.400 331.240,6.400 330.800 C 6.400 330.133,6.667 330.000,8.000 330.000 C 9.156 330.000,9.600 329.833,9.600 329.400 C 9.600 328.878,10.632 328.570,11.734 328.764 C 11.918 328.796,12.164 328.458,12.281 328.011 C 12.434 327.425,12.824 327.200,13.684 327.200 C 14.538 327.200,14.934 326.974,15.084 326.400 C 15.200 325.957,15.630 325.600,16.047 325.600 C 16.461 325.600,16.800 325.330,16.800 325.000 C 16.800 324.581,17.222 324.400,18.200 324.400 C 19.333 324.400,19.600 324.248,19.600 323.600 C 19.600 322.933,19.867 322.800,21.200 322.800 C 22.533 322.800,22.800 322.667,22.800 322.000 C 22.800 321.307,23.067 321.200,24.800 321.200 C 26.240 321.200,26.800 321.044,26.800 320.645 C 26.800 320.325,27.403 319.976,28.221 319.822 C 29.003 319.676,29.742 319.296,29.864 318.978 C 29.997 318.631,30.628 318.400,31.443 318.400 C 32.533 318.400,32.800 318.243,32.800 317.600 C 32.800 316.951,33.067 316.800,34.213 316.800 C 35.099 316.800,35.711 316.577,35.855 316.200 C 35.997 315.830,36.605 315.600,37.443 315.600 C 38.533 315.600,38.800 315.443,38.800 314.800 C 38.800 314.125,39.067 314.000,40.512 314.000 C 41.765 314.000,42.378 313.786,42.800 313.200 C 43.175 312.680,43.835 312.400,44.688 312.400 C 45.588 312.400,46.000 312.211,46.000 311.800 C 46.000 311.345,46.493 311.200,48.037 311.200 C 49.738 311.200,50.109 311.068,50.284 310.400 C 50.448 309.773,50.830 309.600,52.047 309.600 C 53.108 309.600,53.600 309.423,53.600 309.043 C 53.600 308.343,54.471 308.000,56.245 308.000 C 57.103 308.000,57.712 307.773,57.855 307.400 C 58.016 306.981,58.669 306.800,60.016 306.800 C 61.595 306.800,61.992 306.654,62.200 306.000 C 62.408 305.346,62.805 305.200,64.384 305.200 C 65.707 305.200,66.385 305.016,66.538 304.616 C 66.672 304.269,67.579 303.924,68.781 303.765 C 70.095 303.591,70.800 303.305,70.800 302.948 C 70.800 302.552,71.396 302.400,72.953 302.400 C 74.770 302.400,75.139 302.275,75.316 301.600 C 75.488 300.942,75.862 300.800,77.418 300.800 C 78.664 300.800,79.466 300.589,79.764 300.182 C 80.012 299.842,80.662 299.553,81.208 299.540 C 83.195 299.490,84.400 299.124,84.400 298.568 C 84.400 298.135,85.025 298.000,87.037 298.000 C 89.338 298.000,89.702 297.898,89.884 297.200 C 90.066 296.506,90.430 296.400,92.643 296.400 C 94.670 296.400,95.286 296.252,95.645 295.676 C 95.961 295.171,96.442 295.003,97.243 295.121 C 98.842 295.356,100.400 294.897,100.400 294.192 C 100.400 293.727,100.988 293.600,103.153 293.600 C 105.570 293.600,105.932 293.502,106.116 292.800 C 106.303 292.084,106.662 292.000,109.543 292.000 C 111.927 292.000,112.844 291.851,113.082 291.424 C 113.290 291.053,114.186 290.815,115.602 290.754 C 118.465 290.631,119.200 290.427,119.200 289.753 C 119.200 289.323,120.007 289.200,122.837 289.200 C 126.138 289.200,126.494 289.126,126.684 288.400 C 126.873 287.676,127.230 287.600,130.447 287.600 C 133.206 287.600,134.000 287.476,134.000 287.047 C 134.000 286.622,134.945 286.455,138.044 286.331 C 141.271 286.201,142.189 286.030,142.588 285.484 C 143.006 284.913,143.790 284.800,147.344 284.800 C 151.333 284.800,151.600 284.750,151.600 284.000 C 151.600 283.243,151.867 283.200,156.613 283.200 C 160.699 283.200,161.668 283.089,161.855 282.600 C 162.040 282.119,162.921 282.000,166.280 282.000 C 170.138 282.000,170.492 281.936,170.684 281.200 C 170.883 280.438,171.230 280.400,178.047 280.400 C 184.908 280.400,185.200 280.368,185.200 279.608 C 185.200 278.849,185.531 278.812,193.300 278.708 C 199.521 278.625,201.377 278.484,201.300 278.100 C 201.222 277.709,203.966 277.594,213.900 277.570 C 227.596 277.538,228.373 277.488,229.044 276.593 C 229.690 275.730,286.400 275.691,286.400 276.553 C 286.400 277.476,287.771 277.589,299.100 277.595 C 308.520 277.599,310.000 277.681,310.000 278.200 C 310.000 278.713,311.156 278.800,318.000 278.800 C 325.733 278.800,326.000 278.827,326.000 279.600 C 326.000 280.368,326.267 280.400,332.613 280.400 C 338.110 280.400,339.264 280.501,339.454 280.998 C 339.581 281.326,339.833 281.504,340.014 281.391 C 340.196 281.279,340.450 281.358,340.580 281.567 C 340.709 281.776,343.009 281.958,345.690 281.971 C 349.599 281.990,350.632 282.115,350.903 282.598 C 351.176 283.085,352.217 283.200,356.375 283.200 C 361.021 283.200,361.506 283.267,361.456 283.900 C 361.406 284.519,361.885 284.613,365.586 284.715 C 368.174 284.786,369.879 285.004,370.054 285.287 C 370.452 285.931,371.315 286.096,375.300 286.288 C 377.988 286.418,378.800 286.589,378.800 287.028 C 378.800 287.489,379.653 287.600,383.200 287.600 C 387.305 287.600,387.600 287.653,387.600 288.385 C 387.600 289.100,387.929 289.180,391.300 289.285 C 393.999 289.369,394.973 289.535,394.900 289.900 C 394.835 290.224,395.293 290.400,396.200 290.400 L 397.600 290.400 397.600 254.010 L 397.600 217.619 390.900 217.510 C 385.260 217.417,384.200 217.305,384.200 216.800 C 384.200 215.712,318.188 215.709,317.509 216.798 " stroke="none" fill="#5cb4eb" fill-rule="evenodd"></path><path id="path2" d="M194.400 0.400 C 194.400 0.620,193.669 0.800,192.776 0.800 C 191.883 0.800,191.242 0.944,191.350 1.119 C 191.785 1.824,190.883 2.359,189.105 2.451 C 188.001 2.508,187.146 2.764,187.027 3.074 C 186.916 3.363,186.474 3.600,186.045 3.600 C 184.841 3.600,184.000 4.029,184.000 4.643 C 184.000 5.014,183.528 5.200,182.587 5.200 C 181.710 5.200,181.089 5.424,180.948 5.791 C 180.812 6.145,179.931 6.488,178.760 6.643 C 177.493 6.811,176.800 7.097,176.800 7.452 C 176.800 7.810,176.323 8.000,175.427 8.000 C 174.405 8.000,173.989 8.205,173.800 8.800 C 173.572 9.520,171.890 9.919,170.270 9.637 C 170.089 9.606,170.052 9.760,170.188 9.980 C 170.327 10.205,169.626 10.583,168.583 10.846 C 167.565 11.102,166.638 11.557,166.523 11.856 C 166.405 12.164,165.737 12.400,164.984 12.400 C 164.005 12.400,163.587 12.611,163.400 13.200 C 163.199 13.833,162.795 14.000,161.462 14.000 C 160.261 14.000,159.577 14.234,159.078 14.817 C 158.693 15.266,158.202 15.525,157.986 15.391 C 157.373 15.012,156.000 15.590,156.000 16.227 C 156.000 16.635,155.507 16.800,154.288 16.800 C 153.035 16.800,152.422 17.014,152.000 17.600 C 151.625 18.120,150.965 18.400,150.112 18.400 C 149.212 18.400,148.800 18.589,148.800 19.000 C 148.800 19.330,148.575 19.611,148.300 19.626 C 146.064 19.740,144.981 20.012,144.580 20.559 C 144.323 20.912,143.547 21.200,142.856 21.200 C 141.867 21.200,141.600 21.370,141.600 22.000 C 141.600 22.645,141.333 22.800,140.220 22.800 C 139.461 22.800,138.696 23.044,138.520 23.341 C 138.344 23.639,137.396 23.987,136.414 24.115 C 135.432 24.242,134.422 24.629,134.170 24.973 C 133.918 25.318,133.147 25.600,132.456 25.600 C 131.467 25.600,131.200 25.770,131.200 26.400 C 131.200 27.072,130.933 27.200,129.531 27.200 C 128.614 27.200,127.569 27.466,127.211 27.790 C 126.658 28.290,125.621 28.639,124.300 28.770 C 124.135 28.787,124.000 29.070,124.000 29.400 C 124.000 29.833,123.556 30.000,122.400 30.000 C 121.081 30.000,120.800 30.137,120.800 30.779 C 120.800 31.437,120.473 31.577,118.700 31.679 C 117.282 31.761,116.632 31.962,116.700 32.300 C 116.792 32.759,115.769 32.999,114.469 32.823 C 114.177 32.783,113.843 33.113,113.727 33.556 C 113.557 34.209,113.129 34.384,111.458 34.481 C 109.784 34.578,109.410 34.731,109.456 35.300 C 109.498 35.841,109.200 36.000,108.143 36.000 C 107.296 36.000,106.687 36.228,106.545 36.600 C 106.418 36.930,105.898 37.200,105.390 37.200 C 104.050 37.200,103.200 37.605,103.200 38.243 C 103.200 38.624,102.706 38.800,101.633 38.800 C 99.678 38.800,98.800 39.123,98.800 39.843 C 98.800 40.213,98.330 40.400,97.400 40.400 C 96.422 40.400,96.000 40.581,96.000 41.000 C 96.000 41.422,95.554 41.608,94.500 41.628 C 92.708 41.662,91.492 42.086,91.670 42.616 C 91.742 42.827,91.125 43.056,90.300 43.124 C 89.125 43.221,88.800 43.416,88.800 44.024 C 88.800 44.654,88.500 44.809,87.200 44.850 C 84.836 44.924,84.590 44.990,84.700 45.518 C 84.763 45.821,84.281 46.000,83.403 46.000 C 82.440 46.000,81.852 46.248,81.507 46.800 C 81.174 47.334,80.574 47.600,79.704 47.600 C 78.667 47.600,78.400 47.764,78.400 48.400 C 78.400 49.128,76.297 49.563,74.300 49.247 C 74.135 49.221,74.000 49.470,74.000 49.800 C 74.000 50.204,73.596 50.400,72.763 50.400 C 71.862 50.400,71.468 50.617,71.316 51.200 C 71.142 51.865,70.770 52.000,69.116 52.000 C 67.462 52.000,67.090 52.135,66.916 52.800 C 66.758 53.403,66.370 53.600,65.341 53.600 C 64.496 53.600,63.887 53.829,63.745 54.200 C 63.611 54.548,63.013 54.800,62.320 54.800 C 61.462 54.800,61.066 55.025,60.916 55.600 C 60.742 56.265,60.370 56.400,58.716 56.400 C 57.062 56.400,56.690 56.535,56.516 57.200 C 56.359 57.801,55.970 58.000,54.953 58.000 C 54.017 58.000,53.600 58.185,53.600 58.600 C 53.600 59.010,53.156 59.216,52.200 59.250 C 51.430 59.278,50.620 59.345,50.400 59.400 C 50.180 59.455,49.820 59.523,49.600 59.550 C 49.380 59.578,49.200 59.870,49.200 60.200 C 49.200 60.622,48.774 60.800,47.763 60.800 C 46.662 60.800,46.276 60.987,46.116 61.600 C 45.947 62.245,45.570 62.400,44.173 62.400 C 43.093 62.400,42.319 62.614,42.120 62.968 C 41.944 63.280,41.170 63.595,40.400 63.668 C 39.481 63.755,39.000 64.006,39.000 64.400 C 39.000 64.805,38.511 65.040,37.500 65.124 C 36.325 65.221,36.000 65.416,36.000 66.024 C 36.000 66.698,35.711 66.800,33.800 66.800 C 32.111 66.800,31.600 66.939,31.600 67.400 C 31.600 67.926,30.201 68.236,29.346 67.900 C 29.206 67.845,28.942 68.205,28.759 68.700 C 28.502 69.395,28.112 69.600,27.046 69.600 C 25.271 69.600,24.400 69.943,24.400 70.643 C 24.400 71.026,23.901 71.200,22.800 71.200 C 21.733 71.200,21.233 71.367,21.300 71.700 C 21.360 72.002,20.868 72.251,20.055 72.329 C 19.129 72.417,18.647 72.698,18.508 73.229 C 18.341 73.870,17.944 74.000,16.153 74.000 C 14.267 74.000,14.000 74.099,14.000 74.800 C 14.000 75.448,13.733 75.600,12.600 75.600 C 11.622 75.600,11.200 75.781,11.200 76.200 C 11.200 76.655,10.707 76.800,9.163 76.800 C 7.462 76.800,7.091 76.932,6.916 77.600 C 6.752 78.227,6.370 78.400,5.153 78.400 C 3.867 78.400,3.600 78.537,3.600 79.200 C 3.600 79.848,3.333 80.000,2.200 80.000 L 0.800 80.000 0.800 189.022 L 0.800 298.044 2.900 297.906 C 4.360 297.811,4.966 297.611,4.889 297.250 C 4.827 296.965,5.142 296.636,5.589 296.519 C 6.035 296.402,6.400 296.077,6.400 295.797 C 6.400 295.314,8.200 294.575,8.949 294.751 C 9.141 294.796,9.192 294.555,9.062 294.216 C 8.848 293.659,9.441 293.385,10.500 293.553 C 10.665 293.579,10.800 293.240,10.800 292.800 C 10.800 292.267,11.067 292.000,11.600 292.000 C 12.040 292.000,12.400 291.738,12.400 291.418 C 12.400 291.071,12.959 290.731,13.786 290.576 C 14.548 290.433,15.133 290.114,15.086 289.868 C 15.039 289.621,15.405 289.357,15.900 289.282 C 16.475 289.194,16.800 288.866,16.800 288.372 C 16.800 287.761,17.083 287.600,18.153 287.600 C 19.192 287.600,19.558 287.405,19.726 286.760 C 19.856 286.263,20.132 286.034,20.400 286.200 C 20.668 286.366,20.944 286.137,21.074 285.640 C 21.264 284.914,22.093 284.576,23.276 284.745 C 23.427 284.766,23.664 284.427,23.803 283.992 C 23.941 283.556,24.402 283.200,24.827 283.200 C 25.252 283.200,25.600 282.950,25.600 282.645 C 25.600 282.326,26.198 281.977,27.000 281.826 C 27.838 281.669,28.400 281.330,28.400 280.982 C 28.400 280.662,28.687 280.400,29.037 280.400 C 29.388 280.400,29.769 280.040,29.884 279.600 C 30.041 278.999,30.430 278.800,31.447 278.800 C 32.383 278.800,32.800 278.615,32.800 278.200 C 32.800 277.800,33.200 277.600,33.997 277.600 C 34.760 277.600,35.374 277.310,35.693 276.800 C 35.968 276.360,36.475 276.000,36.821 276.000 C 37.166 276.000,37.836 275.640,38.308 275.200 C 38.780 274.760,39.455 274.400,39.807 274.400 C 40.159 274.400,40.344 274.232,40.217 274.028 C 39.919 273.545,40.470 273.218,41.765 273.111 C 42.355 273.062,42.899 272.718,43.028 272.313 C 43.187 271.811,43.661 271.600,44.627 271.600 C 45.733 271.600,46.000 271.445,46.000 270.800 C 46.000 270.082,47.274 269.682,48.228 270.100 C 48.354 270.155,48.633 269.885,48.848 269.500 C 49.063 269.115,49.501 268.800,49.820 268.800 C 50.139 268.800,50.400 268.626,50.400 268.413 C 50.400 268.199,50.647 268.120,50.948 268.236 C 51.250 268.351,51.604 268.166,51.736 267.823 C 51.867 267.480,52.341 267.200,52.787 267.200 C 53.234 267.200,53.579 267.065,53.553 266.900 C 53.395 265.899,53.728 265.600,55.000 265.600 C 55.978 265.600,56.400 265.419,56.400 265.000 C 56.400 264.581,56.822 264.400,57.800 264.400 C 58.933 264.400,59.200 264.248,59.200 263.600 C 59.200 262.948,59.467 262.800,60.637 262.800 C 61.738 262.800,62.124 262.613,62.284 262.000 C 62.441 261.399,62.830 261.200,63.847 261.200 C 64.783 261.200,65.200 261.015,65.200 260.600 C 65.200 260.081,66.455 259.756,67.700 259.953 C 67.865 259.979,68.000 259.640,68.000 259.200 C 68.000 258.548,68.267 258.400,69.437 258.400 C 70.538 258.400,70.924 258.213,71.084 257.600 C 71.272 256.881,73.118 256.471,74.900 256.753 C 75.065 256.779,75.200 256.530,75.200 256.200 C 75.200 255.778,75.626 255.600,76.637 255.600 C 77.738 255.600,78.124 255.413,78.284 254.800 C 78.441 254.199,78.830 254.000,79.847 254.000 C 80.933 254.000,81.200 253.842,81.200 253.200 C 81.200 252.570,81.467 252.400,82.456 252.400 C 83.147 252.400,83.912 252.137,84.156 251.814 C 84.402 251.490,85.384 251.186,86.359 251.133 C 87.664 251.061,88.166 250.851,88.305 250.318 C 88.446 249.783,88.889 249.600,90.047 249.600 C 91.333 249.600,91.600 249.463,91.600 248.800 C 91.600 248.136,91.867 248.000,93.171 248.000 C 94.036 248.000,95.009 247.734,95.334 247.409 C 95.659 247.084,96.509 246.774,97.223 246.720 C 98.076 246.655,98.586 246.377,98.708 245.910 C 98.850 245.366,99.303 245.200,100.643 245.200 C 101.960 245.200,102.517 245.002,102.893 244.400 C 103.221 243.875,103.826 243.600,104.653 243.600 C 105.405 243.600,106.007 243.358,106.145 243.000 C 106.302 242.591,106.942 242.400,108.160 242.400 C 109.595 242.400,109.996 242.243,110.200 241.600 C 110.397 240.979,110.805 240.800,112.027 240.800 C 113.333 240.800,113.600 240.664,113.600 240.000 C 113.600 239.297,113.867 239.200,115.800 239.200 C 117.454 239.200,118.000 239.056,118.000 238.621 C 118.000 238.204,118.589 238.008,120.100 237.921 C 121.646 237.832,122.200 237.642,122.200 237.200 C 122.200 236.757,122.759 236.568,124.343 236.478 C 126.071 236.379,126.526 236.204,126.690 235.578 C 126.852 234.959,127.246 234.800,128.618 234.800 C 129.618 234.800,130.595 234.548,130.943 234.200 C 131.305 233.838,132.284 233.600,133.409 233.600 C 134.938 233.600,135.313 233.456,135.484 232.800 C 135.657 232.139,136.030 232.000,137.633 232.000 C 139.162 232.000,139.662 231.831,140.000 231.200 C 140.331 230.582,140.838 230.400,142.227 230.400 C 143.456 230.400,144.098 230.210,144.255 229.800 C 144.421 229.369,145.095 229.200,146.647 229.200 C 148.313 229.200,148.965 229.017,149.493 228.400 C 150.017 227.788,150.673 227.600,152.289 227.600 C 153.810 227.600,154.400 227.447,154.400 227.052 C 154.400 226.666,155.228 226.422,157.193 226.228 C 158.908 226.059,160.106 225.740,160.296 225.401 C 160.498 225.039,161.479 224.817,163.141 224.757 C 165.101 224.687,165.781 224.500,166.135 223.933 C 166.484 223.373,167.090 223.200,168.696 223.200 C 170.300 223.200,170.800 223.057,170.800 222.600 C 170.800 222.007,171.259 221.828,172.373 221.987 C 173.768 222.186,176.400 221.525,176.400 220.975 C 176.400 220.530,177.027 220.400,179.173 220.400 C 181.595 220.400,181.978 220.299,182.200 219.600 C 182.420 218.907,182.805 218.800,185.083 218.800 C 186.928 218.800,187.844 218.625,188.156 218.212 C 188.550 217.690,190.091 217.467,194.900 217.234 C 195.285 217.215,195.600 216.930,195.600 216.600 C 195.600 216.120,196.200 216.000,198.600 216.000 C 200.250 216.000,201.735 215.989,201.900 215.976 C 202.065 215.963,202.329 215.603,202.487 215.176 C 202.734 214.509,203.196 214.393,205.787 214.350 C 209.612 214.287,209.572 214.293,209.932 213.710 C 210.104 213.432,211.175 213.200,212.417 213.173 C 215.196 213.112,216.000 212.888,216.000 212.173 C 216.000 211.718,216.738 211.600,219.573 211.600 C 222.795 211.600,223.171 211.521,223.400 210.800 C 223.634 210.062,224.005 210.000,228.178 210.000 C 231.711 210.000,232.811 209.869,233.200 209.400 C 233.577 208.945,234.599 208.800,237.416 208.800 C 241.471 208.800,242.400 208.606,242.400 207.757 C 242.400 207.310,243.398 207.200,247.437 207.200 C 252.138 207.200,252.489 207.147,252.684 206.400 C 252.876 205.666,253.252 205.596,257.247 205.550 C 262.530 205.489,262.362 205.508,262.716 204.936 C 262.905 204.630,264.960 204.426,268.765 204.336 C 273.848 204.216,274.548 204.118,274.710 203.500 C 274.876 202.866,275.570 202.800,282.047 202.800 C 288.933 202.800,289.200 202.770,289.200 202.000 C 289.200 201.221,289.467 201.200,299.400 201.200 C 307.653 201.200,309.600 201.098,309.600 200.665 C 309.600 200.227,313.673 200.078,331.860 199.851 C 360.497 199.494,389.200 199.900,389.200 200.664 C 389.200 201.072,390.058 201.200,392.800 201.200 L 396.400 201.200 396.400 140.600 L 396.400 80.000 394.963 80.000 C 393.862 80.000,393.476 79.813,393.316 79.200 C 393.161 78.606,392.770 78.400,391.800 78.400 C 390.830 78.400,390.439 78.194,390.284 77.600 C 390.109 76.932,389.738 76.800,388.037 76.800 C 386.493 76.800,386.000 76.655,386.000 76.200 C 386.000 75.778,385.574 75.600,384.563 75.600 C 383.475 75.600,383.076 75.411,382.922 74.822 C 382.779 74.277,382.307 74.007,381.351 73.922 C 380.599 73.855,379.998 73.620,380.015 73.400 C 380.054 72.918,378.678 72.494,376.900 72.440 C 376.029 72.413,375.600 72.202,375.600 71.800 C 375.600 71.378,375.174 71.200,374.163 71.200 C 373.062 71.200,372.676 71.013,372.516 70.400 C 372.343 69.738,371.970 69.600,370.353 69.600 C 368.667 69.600,368.400 69.491,368.400 68.800 C 368.400 68.152,368.133 68.000,367.000 68.000 C 366.022 68.000,365.600 67.819,365.600 67.400 C 365.600 66.939,365.089 66.800,363.400 66.800 C 361.467 66.800,361.200 66.703,361.200 66.000 C 361.200 65.348,360.933 65.200,359.763 65.200 C 358.662 65.200,358.276 65.013,358.116 64.400 C 357.959 63.799,357.570 63.600,356.553 63.600 C 355.617 63.600,355.200 63.415,355.200 63.000 C 355.200 62.539,354.689 62.400,353.000 62.400 C 351.067 62.400,350.800 62.303,350.800 61.600 C 350.800 60.952,350.533 60.800,349.400 60.800 C 348.470 60.800,348.000 60.613,348.000 60.243 C 348.000 59.523,347.122 59.200,345.167 59.200 C 344.041 59.200,343.600 59.031,343.600 58.600 C 343.600 58.183,343.181 58.000,342.227 58.000 C 341.205 58.000,340.789 57.795,340.600 57.200 C 340.419 56.629,339.995 56.400,339.117 56.400 C 338.441 56.400,337.677 56.112,337.420 55.759 C 337.157 55.400,336.127 55.026,335.076 54.907 C 333.857 54.770,333.200 54.504,333.200 54.148 C 333.200 53.795,332.732 53.600,331.889 53.600 C 331.073 53.600,330.319 53.298,329.893 52.800 C 329.426 52.254,328.713 52.000,327.651 52.000 C 326.430 52.000,326.048 51.827,325.884 51.200 C 325.741 50.652,325.338 50.400,324.609 50.400 C 324.023 50.400,323.273 50.130,322.943 49.800 C 322.613 49.470,321.816 49.200,321.171 49.200 C 320.437 49.200,320.000 48.992,320.000 48.643 C 320.000 47.928,319.123 47.600,317.214 47.600 C 316.030 47.600,315.647 47.423,315.484 46.800 C 315.334 46.225,314.938 46.000,314.080 46.000 C 313.387 46.000,312.789 45.748,312.655 45.400 C 312.493 44.977,311.832 44.800,310.413 44.800 C 308.667 44.800,308.400 44.694,308.400 44.000 C 308.400 43.331,308.133 43.200,306.776 43.200 C 305.853 43.200,305.254 43.036,305.388 42.820 C 305.736 42.256,304.252 41.600,302.626 41.600 C 301.625 41.600,301.200 41.421,301.200 41.000 C 301.200 40.567,300.756 40.400,299.600 40.400 C 298.267 40.400,298.000 40.267,298.000 39.600 C 298.000 38.951,297.733 38.800,296.587 38.800 C 295.678 38.800,295.090 38.578,294.936 38.177 C 294.804 37.834,294.450 37.649,294.148 37.764 C 293.847 37.880,293.600 37.801,293.600 37.587 C 293.600 37.374,292.970 37.200,292.200 37.200 C 291.222 37.200,290.800 37.019,290.800 36.600 C 290.800 36.185,290.383 36.000,289.447 36.000 C 288.430 36.000,288.041 35.801,287.884 35.200 C 287.710 34.535,287.338 34.400,285.684 34.400 C 284.030 34.400,283.658 34.265,283.484 33.600 C 283.324 32.987,282.938 32.800,281.837 32.800 C 280.826 32.800,280.400 32.622,280.400 32.200 C 280.400 31.781,279.978 31.600,279.000 31.600 C 278.230 31.600,277.600 31.409,277.600 31.176 C 277.600 30.943,277.439 30.852,277.242 30.974 C 277.045 31.096,276.781 30.926,276.654 30.598 C 276.505 30.208,275.879 30.000,274.859 30.000 C 273.630 30.000,273.248 29.828,273.084 29.200 C 272.931 28.615,272.538 28.400,271.625 28.400 C 270.883 28.400,270.281 28.156,270.145 27.800 C 269.983 27.380,269.328 27.200,267.957 27.200 C 266.267 27.200,266.000 27.091,266.000 26.400 C 266.000 25.733,265.733 25.600,264.400 25.600 C 263.304 25.600,262.800 25.426,262.800 25.047 C 262.800 24.416,261.600 24.013,259.700 24.005 C 258.814 24.002,258.400 23.809,258.400 23.400 C 258.400 22.981,257.978 22.800,257.000 22.800 C 255.867 22.800,255.600 22.648,255.600 22.000 C 255.600 21.331,255.333 21.200,253.976 21.200 C 252.994 21.200,252.451 21.042,252.600 20.799 C 252.849 20.397,251.109 19.538,250.255 19.640 C 249.077 19.782,248.400 19.548,248.400 19.000 C 248.400 18.567,247.956 18.400,246.800 18.400 C 245.522 18.400,245.200 18.254,245.200 17.675 C 245.200 17.092,244.833 16.931,243.328 16.853 C 242.117 16.790,241.281 16.516,240.960 16.078 C 240.688 15.705,240.090 15.378,239.632 15.350 C 238.118 15.259,238.000 15.205,238.000 14.600 C 238.000 14.183,237.580 14.000,236.620 14.000 C 235.769 14.000,235.102 13.754,234.880 13.358 C 234.664 12.971,233.780 12.632,232.660 12.506 C 231.555 12.381,230.800 12.094,230.800 11.798 C 230.800 11.265,228.557 10.655,227.959 11.025 C 227.619 11.236,227.483 10.751,227.700 10.100 C 227.755 9.935,226.810 9.710,225.600 9.600 C 224.000 9.455,223.400 9.236,223.400 8.800 C 223.400 8.395,222.911 8.160,221.900 8.076 C 220.984 8.000,220.400 7.745,220.400 7.422 C 220.400 7.080,219.621 6.795,218.200 6.617 C 216.689 6.428,216.000 6.164,216.000 5.771 C 216.000 5.389,215.553 5.200,214.647 5.200 C 213.630 5.200,213.241 5.001,213.084 4.400 C 212.925 3.793,212.538 3.600,211.480 3.600 C 210.610 3.600,209.999 3.375,209.855 3.000 C 209.699 2.592,209.060 2.400,207.859 2.400 C 206.430 2.400,206.053 2.248,205.884 1.600 C 205.724 0.987,205.338 0.800,204.237 0.800 C 203.447 0.800,202.800 0.620,202.800 0.400 C 202.800 0.159,201.133 0.000,198.600 0.000 C 196.067 0.000,194.400 0.159,194.400 0.400 " stroke="none" fill="#045cac" fill-rule="evenodd"></path><path id="path3" d="M213.200 291.400 C 213.200 291.916,211.885 292.000,203.763 292.000 C 194.662 292.000,194.318 292.029,194.116 292.800 C 193.916 293.566,193.570 293.600,185.953 293.600 C 178.267 293.600,178.000 293.627,178.000 294.400 C 178.000 295.163,177.733 295.200,172.200 295.200 C 167.311 295.200,166.400 295.294,166.400 295.800 C 166.400 296.300,165.586 296.401,161.500 296.405 C 156.112 296.411,154.800 296.615,154.800 297.447 C 154.800 297.884,153.880 298.000,150.400 298.000 C 146.267 298.000,146.000 298.048,146.000 298.800 C 146.000 299.549,145.733 299.600,141.787 299.600 C 138.412 299.600,137.529 299.719,137.345 300.200 C 137.164 300.672,136.346 300.800,133.520 300.800 C 130.262 300.800,129.906 300.875,129.716 301.600 C 129.524 302.333,129.170 302.400,125.516 302.400 C 121.862 302.400,121.507 302.467,121.316 303.200 C 121.131 303.909,120.770 304.000,118.153 304.000 C 115.795 304.000,115.200 304.121,115.200 304.600 C 115.200 305.080,114.600 305.200,112.200 305.200 C 109.467 305.200,109.200 305.271,109.200 306.000 C 109.200 306.729,108.933 306.800,106.200 306.800 C 103.467 306.800,103.200 306.871,103.200 307.600 C 103.200 308.324,102.933 308.400,100.400 308.400 C 98.178 308.400,97.600 308.524,97.600 309.000 C 97.600 309.474,97.031 309.601,94.900 309.605 C 91.661 309.612,90.400 309.904,90.400 310.647 C 90.400 311.048,89.820 311.200,88.289 311.200 C 86.673 311.200,86.017 311.388,85.493 312.000 C 84.996 312.580,84.313 312.800,83.004 312.800 C 81.667 312.800,81.200 312.955,81.200 313.400 C 81.200 313.855,80.707 314.000,79.163 314.000 C 77.462 314.000,77.091 314.132,76.916 314.800 C 76.732 315.502,76.370 315.600,73.953 315.600 C 71.874 315.600,71.200 315.736,71.200 316.154 C 71.200 316.525,70.475 316.798,69.000 316.983 C 67.489 317.172,66.800 317.436,66.800 317.829 C 66.800 318.255,66.240 318.400,64.600 318.400 C 62.667 318.400,62.400 318.497,62.400 319.200 C 62.400 319.903,62.133 320.000,60.200 320.000 C 58.592 320.000,58.000 320.149,58.000 320.554 C 58.000 320.925,57.275 321.198,55.800 321.383 C 54.289 321.572,53.600 321.836,53.600 322.229 C 53.600 322.618,53.141 322.800,52.163 322.800 C 51.062 322.800,50.676 322.987,50.516 323.600 C 50.344 324.259,49.970 324.400,48.396 324.400 C 47.067 324.400,46.416 324.583,46.255 325.000 C 46.119 325.356,45.517 325.600,44.775 325.600 C 43.862 325.600,43.469 325.815,43.316 326.400 C 43.142 327.065,42.770 327.200,41.116 327.200 C 39.462 327.200,39.090 327.335,38.916 328.000 C 38.759 328.601,38.370 328.800,37.353 328.800 C 36.474 328.800,36.000 328.992,36.000 329.348 C 36.000 329.704,35.343 329.970,34.124 330.107 C 33.073 330.226,32.043 330.600,31.780 330.959 C 31.523 331.312,30.747 331.600,30.056 331.600 C 29.067 331.600,28.800 331.770,28.800 332.400 C 28.800 333.067,28.533 333.200,27.200 333.200 C 26.044 333.200,25.600 333.367,25.600 333.800 C 25.600 334.130,25.255 334.400,24.833 334.400 C 23.641 334.400,22.800 334.831,22.800 335.443 C 22.800 335.813,22.330 336.000,21.400 336.000 C 20.267 336.000,20.000 336.152,20.000 336.800 C 20.000 337.467,19.733 337.600,18.400 337.600 C 17.244 337.600,16.800 337.767,16.800 338.200 C 16.800 338.604,16.396 338.800,15.563 338.800 C 14.662 338.800,14.268 339.017,14.116 339.600 C 13.959 340.201,13.570 340.400,12.553 340.400 C 11.467 340.400,11.200 340.558,11.200 341.200 C 11.200 341.824,10.933 342.000,9.987 342.000 C 9.279 342.000,8.679 342.249,8.545 342.600 C 8.418 342.930,7.974 343.200,7.557 343.200 C 7.067 343.200,6.800 343.482,6.800 344.000 C 6.800 344.652,6.533 344.800,5.363 344.800 C 4.262 344.800,3.876 344.987,3.716 345.600 C 3.559 346.201,3.170 346.400,2.153 346.400 L 0.800 346.400 0.800 383.600 L 0.800 420.800 2.200 420.800 C 3.125 420.800,3.600 420.612,3.600 420.247 C 3.600 419.942,3.960 419.599,4.400 419.484 C 4.840 419.369,5.200 418.988,5.200 418.637 C 5.200 418.192,5.572 418.000,6.437 418.000 C 7.338 418.000,7.732 417.783,7.884 417.200 C 8.000 416.757,8.430 416.400,8.847 416.400 C 9.261 416.400,9.600 416.130,9.600 415.800 C 9.600 415.470,9.870 415.200,10.200 415.200 C 10.533 415.200,10.800 414.844,10.800 414.400 C 10.800 413.748,11.067 413.600,12.237 413.600 C 13.338 413.600,13.724 413.413,13.884 412.800 C 13.999 412.360,14.342 412.000,14.647 412.000 C 14.951 412.000,15.200 411.730,15.200 411.400 C 15.200 411.000,15.600 410.800,16.397 410.800 C 17.160 410.800,17.774 410.510,18.093 410.000 C 18.368 409.560,18.819 409.200,19.096 409.200 C 19.373 409.200,19.600 408.840,19.600 408.400 C 19.600 407.751,19.867 407.600,21.013 407.600 C 21.899 407.600,22.511 407.377,22.655 407.000 C 22.782 406.670,23.136 406.400,23.443 406.400 C 23.749 406.400,24.000 406.040,24.000 405.600 C 24.000 404.948,24.267 404.800,25.437 404.800 C 26.538 404.800,26.924 404.613,27.084 404.000 C 27.199 403.560,27.542 403.200,27.847 403.200 C 28.151 403.200,28.400 402.930,28.400 402.600 C 28.400 402.178,28.826 402.000,29.837 402.000 C 30.938 402.000,31.324 401.813,31.484 401.200 C 31.641 400.599,32.030 400.400,33.047 400.400 C 34.133 400.400,34.400 400.242,34.400 399.600 C 34.400 399.067,34.667 398.800,35.200 398.800 C 35.644 398.800,36.000 398.533,36.000 398.200 C 36.000 397.781,36.422 397.600,37.400 397.600 C 38.533 397.600,38.800 397.448,38.800 396.800 C 38.800 396.152,39.067 396.000,40.200 396.000 C 41.333 396.000,41.600 395.848,41.600 395.200 C 41.600 394.557,41.867 394.400,42.957 394.400 C 43.795 394.400,44.403 394.170,44.545 393.800 C 44.671 393.470,45.051 393.200,45.387 393.200 C 45.733 393.200,46.000 392.852,46.000 392.400 C 46.000 391.733,46.267 391.600,47.600 391.600 C 48.933 391.600,49.200 391.467,49.200 390.800 C 49.200 390.152,49.467 390.000,50.600 390.000 C 51.578 390.000,52.000 389.819,52.000 389.400 C 52.000 388.981,52.422 388.800,53.400 388.800 C 54.533 388.800,54.800 388.648,54.800 388.000 C 54.800 387.348,55.067 387.200,56.237 387.200 C 57.338 387.200,57.724 387.013,57.884 386.400 C 58.041 385.799,58.430 385.600,59.447 385.600 C 60.383 385.600,60.800 385.415,60.800 385.000 C 60.800 384.581,61.222 384.400,62.200 384.400 C 63.333 384.400,63.600 384.248,63.600 383.600 C 63.600 382.963,63.867 382.800,64.911 382.800 C 65.727 382.800,66.481 382.498,66.907 382.000 C 67.284 381.560,68.044 381.200,68.596 381.200 C 69.222 381.200,69.600 380.974,69.600 380.600 C 69.600 380.181,70.022 380.000,71.000 380.000 C 72.133 380.000,72.400 379.848,72.400 379.200 C 72.400 378.533,72.667 378.400,74.000 378.400 C 75.089 378.400,75.600 378.225,75.600 377.852 C 75.600 377.495,76.301 377.210,77.600 377.038 C 78.970 376.856,79.600 376.588,79.600 376.186 C 79.600 375.780,80.041 375.600,81.037 375.600 C 82.138 375.600,82.524 375.413,82.684 374.800 C 82.841 374.199,83.230 374.000,84.247 374.000 C 85.183 374.000,85.600 373.815,85.600 373.400 C 85.600 373.032,85.974 372.800,86.567 372.800 C 87.948 372.800,88.800 372.402,88.800 371.757 C 88.800 371.355,89.357 371.200,90.800 371.200 C 92.533 371.200,92.800 371.093,92.800 370.400 C 92.800 369.733,93.067 369.600,94.400 369.600 C 95.488 369.600,96.000 369.425,96.000 369.052 C 96.000 368.696,96.657 368.430,97.876 368.293 C 98.927 368.174,99.957 367.800,100.220 367.441 C 100.477 367.088,101.253 366.800,101.944 366.800 C 102.933 366.800,103.200 366.630,103.200 366.000 C 103.200 365.297,103.467 365.200,105.400 365.200 C 106.996 365.200,107.600 365.050,107.600 364.652 C 107.600 364.296,108.257 364.030,109.476 363.893 C 110.527 363.774,111.557 363.400,111.820 363.041 C 112.077 362.688,112.853 362.400,113.544 362.400 C 114.533 362.400,114.800 362.230,114.800 361.600 C 114.800 360.897,115.067 360.800,117.000 360.800 C 118.689 360.800,119.200 360.661,119.200 360.200 C 119.200 359.745,119.693 359.600,121.237 359.600 C 122.938 359.600,123.309 359.468,123.484 358.800 C 123.661 358.125,124.030 358.000,125.847 358.000 C 127.733 358.000,128.000 357.901,128.000 357.200 C 128.000 356.497,128.267 356.400,130.200 356.400 C 131.889 356.400,132.400 356.261,132.400 355.800 C 132.400 355.369,132.841 355.200,133.967 355.200 C 135.922 355.200,136.800 354.877,136.800 354.157 C 136.800 353.748,137.386 353.600,139.000 353.600 C 140.933 353.600,141.200 353.503,141.200 352.800 C 141.200 352.097,141.467 352.000,143.400 352.000 C 145.089 352.000,145.600 351.861,145.600 351.400 C 145.600 350.939,146.111 350.800,147.800 350.800 C 149.733 350.800,150.000 350.703,150.000 350.000 C 150.000 349.271,150.267 349.200,153.000 349.200 C 155.733 349.200,156.000 349.129,156.000 348.400 C 156.000 347.676,156.267 347.600,158.813 347.600 C 160.944 347.600,161.681 347.455,161.855 347.000 C 162.021 346.569,162.694 346.400,164.243 346.400 C 165.867 346.400,166.598 346.202,167.200 345.600 C 167.787 345.013,168.533 344.800,170.000 344.800 C 171.733 344.800,172.000 344.693,172.000 344.000 C 172.000 343.271,172.267 343.200,175.000 343.200 C 177.400 343.200,178.000 343.080,178.000 342.600 C 178.000 342.123,178.582 342.000,180.837 342.000 C 183.338 342.000,183.700 341.905,183.884 341.200 C 184.068 340.498,184.430 340.400,186.847 340.400 C 189.333 340.400,189.600 340.323,189.600 339.600 C 189.600 338.859,189.867 338.800,193.213 338.800 C 196.055 338.800,196.874 338.672,197.055 338.200 C 197.231 337.742,197.980 337.600,200.210 337.600 C 203.485 337.600,204.400 337.372,204.400 336.557 C 204.400 336.124,205.166 336.000,207.837 336.000 C 210.938 336.000,211.295 335.922,211.484 335.200 C 211.672 334.480,212.030 334.400,215.059 334.400 C 217.682 334.400,218.476 334.268,218.655 333.800 C 218.831 333.342,219.583 333.200,221.843 333.200 C 224.533 333.200,224.800 333.128,224.800 332.400 C 224.800 331.641,225.067 331.600,230.000 331.600 C 234.933 331.600,235.200 331.559,235.200 330.800 C 235.200 330.043,235.467 330.000,240.200 330.000 C 244.246 330.000,245.200 329.892,245.200 329.433 C 245.200 328.983,246.194 328.840,250.033 328.733 C 254.075 328.622,254.950 328.485,255.377 327.900 C 255.808 327.309,256.552 327.200,260.144 327.200 C 264.133 327.200,264.400 327.150,264.400 326.400 C 264.400 325.629,264.667 325.600,271.800 325.600 C 278.111 325.600,279.200 325.512,279.200 325.000 C 279.200 324.489,280.267 324.400,286.400 324.400 C 293.333 324.400,293.600 324.370,293.600 323.600 C 293.600 322.819,293.867 322.800,304.600 322.800 C 315.333 322.800,315.600 322.781,315.600 322.000 C 315.600 321.206,315.867 321.200,349.400 321.200 C 382.933 321.200,383.200 321.206,383.200 322.000 C 383.200 322.770,383.467 322.800,390.400 322.800 L 397.600 322.800 397.600 313.400 L 397.600 304.000 394.800 304.000 C 392.267 304.000,392.000 303.924,392.000 303.200 C 392.000 302.457,391.733 302.400,388.247 302.400 C 384.830 302.400,384.475 302.328,384.284 301.600 C 384.092 300.864,383.738 300.800,379.837 300.800 C 376.337 300.800,375.600 300.696,375.600 300.200 C 375.600 299.705,374.870 299.600,371.427 299.600 C 367.605 299.600,367.233 299.533,367.000 298.800 C 366.764 298.057,366.395 298.000,361.820 298.000 C 357.230 298.000,356.879 297.945,356.684 297.200 C 356.489 296.453,356.138 296.400,351.437 296.400 C 347.226 296.400,346.400 296.302,346.400 295.800 C 346.400 295.291,345.400 295.200,339.800 295.200 C 334.425 295.200,333.200 295.097,333.200 294.643 C 333.200 293.728,332.242 293.600,325.381 293.600 C 319.238 293.600,318.801 293.550,318.400 292.800 C 317.987 292.029,317.562 292.000,306.586 292.000 C 296.732 292.000,295.200 291.919,295.200 291.400 C 295.200 290.871,290.378 290.800,254.200 290.800 C 218.022 290.800,213.200 290.871,213.200 291.400 " stroke="none" fill="#fccc0c" fill-rule="evenodd"></path></g></svg>