<svg width="807" height="688" xmlns="http://www.w3.org/2000/svg" xmlns:xlink="http://www.w3.org/1999/xlink" xml:space="preserve" overflow="hidden"><g transform="translate(-3562 -47)"><path d="M4012.58 728.956 4005.88 729.826 4001.85 730ZM3917.42 728.956 3928.15 730 3924.12 729.826ZM4049.46 723.816 4045.58 724.665 4039.04 725.516ZM3880.54 723.816 3890.96 725.516 3884.42 724.665ZM4126.51 702.412 4120.64 704.82 4116.99 705.956ZM3803.49 702.412 3813.01 705.956 3809.36 704.82ZM4158.91 688.761 4155.59 690.478 4149.8 692.853ZM3771.09 688.761 3780.2 692.854 3774.41 690.478ZM4334.54 520.985 4333.42 523.571 4331.6 526.787ZM3595.46 520.985 3598.39 526.787 3596.58 523.571ZM4347.84 489.05 4346.87 492.28 4346.25 493.718ZM3582.16 489.049 3583.75 493.718 3583.13 492.28ZM4356.99 458.121 4356.72 459.64 4355.73 462.941ZM3573.01 458.121 3574.27 462.942 3573.28 459.64ZM4363 422.14 4362.78 425.823 4362.27 428.679ZM3567 422.14 3567.73 428.679 3567.22 425.823ZM4362.27 353.321 4362.78 356.177 4363 359.86ZM3567.73 353.321 3567 359.86 3567.22 356.177ZM4355.73 319.059 4356.72 322.36 4356.99 323.879ZM3574.27 319.059 3573.01 323.879 3573.28 322.36ZM4346.25 288.282 4346.87 289.721 4347.84 292.95ZM3583.75 288.282 3582.16 292.951 3583.13 289.721ZM4331.6 255.213 4333.42 258.429 4334.54 261.015ZM3598.39 255.213 3595.46 261.015 3596.58 258.429ZM4203.97 118.396 4219.34 128.188C4248.96 149.011 4275 173.397 4296.56 200.576L4305.94 213.73 4299.66 204.924 4300.19 210.187 4300.19 575.219 4300.06 576.516 4296.56 581.424C4275 608.603 4248.96 632.989 4219.34 653.812L4199.45 666.48 4035.83 666.48 4035.93 666.402C4008.5 667.409 3989.11 651.564 3985.46 626.566L3984.89 615.347 3984.89 443.946 3985.57 440.185C3988.75 428.271 3996.32 425.6 4006.74 432.77L4011.07 436.204 4150.63 556.955C4160.74 565.698 4176.01 564.586 4184.74 554.473 4193.48 544.36 4192.37 529.074 4182.26 520.331L4047.15 403.433 4047.15 359.107 4047.17 359.047 4047.17 118.926 4204.8 118.926ZM3741.44 108.581 3741.44 108.582 3725.2 118.926 3927.07 118.926 3927.07 338.073 3797.59 221.622C3792.63 217.154 3786.32 215.125 3780.14 215.455 3773.96 215.785 3767.9 218.476 3763.44 223.447 3754.51 233.391 3755.33 248.695 3765.26 257.631L3927.07 403.159 3927.07 615.713 3926.73 615.314C3927.88 646.693 3907.03 667.552 3875.68 666.402L3875.78 666.48 3730.55 666.48 3741.44 673.418 3741.44 673.418 3741.44 673.418C3698.9 648.936 3662.18 617.663 3633.44 581.424L3617.55 559.147 3631.92 579.294 3631.51 575.219 3631.51 446.133 3773.86 576.622C3783.71 585.652 3799.01 584.98 3808.03 575.121 3817.05 565.263 3816.38 549.951 3806.53 540.922L3634.36 383.094 3631.51 381.377 3631.51 210.187 3632.32 202.146 3633.44 200.576C3662.18 164.337 3698.9 133.064 3741.44 108.582ZM4149.8 89.1469 4155.59 91.5218 4158.91 93.2391ZM3780.2 89.1465 3771.09 93.2394 3774.41 91.5218ZM4116.99 76.0441 4120.64 77.18 4126.51 79.5881ZM3813.01 76.044 3803.49 79.5883 3809.36 77.18ZM4039.04 56.4838 4045.58 57.3346 4049.46 58.1839ZM3890.96 56.4838 3880.54 58.1839 3884.42 57.3346ZM4001.85 51.9999 4005.88 52.1735 4012.58 53.0442ZM3928.15 51.9999 3917.42 53.0442 3924.12 52.1735Z" fill="#FFFFFF" fill-rule="evenodd"/><path d="M4300.29 204.971 4317.22 228.697C4348.01 276.944 4365.5 332.233 4365.5 391 4365.5 449.767 4348.01 505.056 4317.22 553.303L4300.69 576.47 4300.82 575.173 4300.82 210.232ZM3632.69 202.193 3631.88 210.232 3631.88 381.379 3634.73 383.096 3806.97 540.885C3816.83 549.912 3817.5 565.22 3808.47 575.075 3799.45 584.931 3784.14 585.603 3774.29 576.576L3631.88 446.119 3631.88 575.173 3632.29 579.247 3613.78 553.303C3582.99 505.056 3565.5 449.767 3565.5 391 3565.5 332.233 3582.99 276.944 3613.78 228.697ZM3965.5 50.5C4048.34 50.5 4125.3 71.9379 4189.14 108.652L4205.39 118.994 4047.7 118.994 4047.7 359.055 4047.68 359.114 4047.68 403.43 4182.85 520.299C4192.96 529.039 4194.07 544.321 4185.33 554.432 4176.59 564.543 4161.31 565.654 4151.2 556.914L4011.58 436.192 4007.26 432.76C3996.84 425.591 3989.26 428.261 3986.08 440.173L3985.39 443.933 3985.39 615.291 3985.97 626.507C3989.62 651.499 4009.01 667.34 4036.46 666.333L4036.36 666.411 4200.04 666.411 4189.14 673.348C4125.3 710.062 4048.34 731.5 3965.5 731.5 3882.66 731.5 3805.7 710.062 3741.86 673.348L3730.96 666.411 3876.24 666.411 3876.15 666.333C3907.51 667.484 3928.36 646.629 3927.21 615.258L3927.56 615.657 3927.56 403.156 3765.69 257.664C3755.75 248.731 3754.93 233.43 3763.86 223.489 3768.33 218.519 3774.39 215.829 3780.57 215.499 3786.75 215.169 3793.06 217.198 3798.03 221.664L3927.56 338.086 3927.56 118.994 3725.61 118.994 3741.86 108.652C3805.7 71.9379 3882.66 50.5 3965.5 50.5Z" stroke="#000000" stroke-width="6.875" stroke-miterlimit="8" fill="#0D124C" fill-rule="evenodd"/></g></svg>