<svg width="2162" height="1840" xmlns="http://www.w3.org/2000/svg" xmlns:xlink="http://www.w3.org/1999/xlink" xml:space="preserve" overflow="hidden"><g transform="translate(-1115 -89)"><path d="M2323.71 1918.19 2305.67 1920.53 2294.79 1921ZM2067.29 1918.19 2096.21 1921 2085.33 1920.53ZM2423.1 1904.35 2412.65 1906.64 2395.01 1908.93ZM1967.9 1904.35 1995.99 1908.93 1978.35 1906.64ZM2630.72 1846.74 2614.9 1853.22 2605.08 1856.28ZM1760.28 1846.74 1785.92 1856.28 1776.1 1853.22ZM2718.03 1809.99 2709.09 1814.62 2693.49 1821.01ZM1672.97 1809.99 1697.51 1821.01 1681.91 1814.62ZM3191.3 1358.39 3188.3 1365.35 3183.4 1374ZM1199.7 1358.39 1207.6 1374 1202.7 1365.35ZM3227.16 1272.42 3224.53 1281.12 3222.87 1284.99ZM1163.84 1272.42 1168.13 1284.99 1166.47 1281.12ZM3251.82 1189.17 3251.08 1193.26 3248.4 1202.15ZM1139.18 1189.17 1142.6 1202.15 1139.92 1193.26ZM3268 1092.32 3267.41 1102.23 3266.03 1109.92ZM1123 1092.32 1124.97 1109.92 1123.59 1102.23ZM3266.03 907.077 3267.41 914.766 3268 924.679ZM1124.97 907.077 1123 924.679 1123.59 914.766ZM3248.4 814.852 3251.08 823.74 3251.82 827.827ZM1142.6 814.852 1139.18 827.827 1139.92 823.74ZM3222.87 732.01 3224.53 735.882 3227.16 744.576ZM1168.13 732.01 1163.84 744.576 1166.47 735.882ZM3183.4 642.997 3188.3 651.653 3191.3 658.613ZM1207.6 642.996 1199.7 658.614 1202.7 651.653ZM2839.45 274.721 2880.87 301.079C2960.7 357.128 3030.87 422.769 3088.96 495.927L3114.24 531.336 3097.32 507.632 3098.74 521.798 3098.74 1504.37 3098.39 1507.86 3088.96 1521.07C3030.87 1594.23 2960.7 1659.87 2880.87 1715.92L2827.28 1750.02 2386.37 1750.02 2386.63 1749.81C2312.71 1752.52 2260.47 1709.87 2250.64 1642.58L2249.09 1612.38 2249.09 1151.02 2250.93 1140.89C2259.49 1108.82 2279.91 1101.63 2307.98 1120.93L2319.64 1130.18 2695.73 1455.21C2722.96 1478.74 2764.11 1475.75 2787.65 1448.53 2811.19 1421.3 2808.2 1380.16 2780.97 1356.63L2416.88 1041.97 2416.88 922.651 2416.91 922.49 2416.91 276.148 2841.69 276.148ZM1593.08 248.302 1593.07 248.303 1549.31 276.148 2093.3 276.148 2093.3 866.035 1744.39 552.579C1731 540.553 1714.01 535.09 1697.35 535.979 1680.7 536.868 1664.38 544.109 1652.35 557.492 1628.29 584.257 1630.49 625.453 1657.27 649.504L2093.3 1041.23 2093.3 1613.37 2092.37 1612.29C2095.46 1696.76 2039.3 1752.91 1954.81 1749.81L1955.07 1750.02 1563.72 1750.02 1593.07 1768.7 1593.07 1768.7 1593.07 1768.7C1478.43 1702.8 1379.49 1618.62 1302.04 1521.07L1259.23 1461.11 1297.95 1515.34 1296.84 1504.37 1296.84 1156.9 1680.44 1508.15C1706.98 1532.45 1748.21 1530.64 1772.52 1504.11 1796.83 1477.57 1795.02 1436.36 1768.47 1412.05L1304.51 987.218 1296.84 982.597 1296.84 521.798 1299.02 500.155 1302.04 495.927C1379.49 398.383 1478.43 314.203 1593.07 248.303ZM2693.49 195.99 2709.09 202.383 2718.03 207.005ZM1697.51 195.989 1672.97 207.006 1681.91 202.383ZM2605.08 160.721 2614.9 163.778 2630.72 170.26ZM1785.92 160.72 1760.28 170.261 1776.1 163.778ZM2395.01 108.069 2412.65 110.36 2423.1 112.646ZM1995.99 108.069 1967.9 112.646 1978.35 110.36ZM2294.79 95.9999 2305.67 96.4673 2323.71 98.8108ZM2096.21 95.9999 2067.29 98.8108 2085.33 96.4673Z" fill="#FFFFFF" fill-rule="evenodd"/><path d="M3097.84 508.277 3143.45 572.142C3226.39 702.003 3273.5 850.822 3273.5 1009 3273.5 1167.18 3226.39 1316 3143.45 1445.86L3098.91 1508.22 3099.27 1504.73 3099.27 522.439ZM1299.5 500.802 1297.32 522.439 1297.32 983.105 1304.99 987.724 1768.96 1412.43C1795.51 1436.73 1797.32 1477.93 1773.01 1504.46 1748.7 1530.99 1707.47 1532.8 1680.93 1508.5L1297.32 1157.36 1297.32 1504.73 1298.43 1515.69 1248.55 1445.86C1165.61 1316 1118.5 1167.18 1118.5 1009 1118.5 850.822 1165.61 702.003 1248.55 572.142ZM2196 92.5C2419.16 92.5 2626.47 150.203 2798.44 249.024L2842.21 276.861 2417.42 276.861 2417.42 923.015 2417.39 923.176 2417.39 1042.46 2781.48 1357.02C2808.71 1380.55 2811.7 1421.68 2788.17 1448.9 2764.63 1476.11 2723.47 1479.1 2696.24 1455.58L2320.14 1130.64 2308.48 1121.4C2280.41 1102.11 2259.99 1109.29 2251.43 1141.36L2249.59 1151.48 2249.59 1612.71 2251.14 1642.9C2260.97 1710.17 2313.21 1752.8 2387.14 1750.1L2386.88 1750.3 2827.8 1750.3 2798.44 1768.98C2626.47 1867.8 2419.16 1925.5 2196 1925.5 1972.84 1925.5 1765.53 1867.8 1593.56 1768.98L1564.2 1750.3 1955.57 1750.3 1955.31 1750.09C2039.8 1753.19 2095.96 1697.06 2092.86 1612.62L2093.8 1613.69 2093.8 1041.72 1657.75 650.109C1630.98 626.064 1628.78 584.88 1652.84 558.123 1664.87 544.744 1681.19 537.505 1697.84 536.616 1714.5 535.727 1731.49 541.189 1744.88 553.211L2093.8 866.576 2093.8 276.861 1549.79 276.861 1593.56 249.024C1765.53 150.203 1972.84 92.5 2196 92.5Z" stroke="#000000" stroke-width="6.875" stroke-miterlimit="8" fill="#0D124C" fill-rule="evenodd"/></g></svg>