<svg id="svg" version="1.1" xmlns="http://www.w3.org/2000/svg" xmlns:xlink="http://www.w3.org/1999/xlink" width="400" height="348.71794871794873" viewBox="0, 0, 400,348.71794871794873"><g id="svgg"><path id="path0" d="M189.015 20.480 C 189.015 21.449,183.812 22.166,183.261 21.273 C 182.823 20.565,179.644 20.847,179.835 21.577 C 180.066 22.460,178.805 22.749,175.980 22.459 C 173.897 22.246,173.763 22.277,173.569 23.017 C 173.373 23.769,173.262 23.790,170.775 23.557 C 168.403 23.335,168.171 23.371,168.010 23.985 C 167.801 24.784,165.895 25.265,164.946 24.757 C 163.930 24.213,163.208 24.348,163.208 25.081 C 163.208 25.872,161.708 26.317,160.265 25.955 C 159.530 25.770,159.208 25.886,158.789 26.485 C 158.339 27.126,158.040 27.214,156.941 27.029 C 155.791 26.834,155.605 26.901,155.430 27.570 C 155.249 28.262,155.082 28.311,153.640 28.095 C 152.212 27.881,152.049 27.926,152.049 28.538 C 152.049 29.378,151.172 29.758,150.303 29.293 C 149.295 28.753,148.921 28.871,148.550 29.847 C 148.239 30.666,148.083 30.728,146.862 30.522 C 145.673 30.321,145.493 30.384,145.315 31.063 C 145.138 31.742,144.956 31.805,143.739 31.611 C 142.557 31.422,142.339 31.489,142.182 32.088 C 142.068 32.522,141.595 32.867,140.929 33.000 C 140.340 33.118,139.679 33.430,139.459 33.695 C 138.961 34.295,137.414 34.329,137.367 33.740 C 137.348 33.500,137.220 33.697,137.082 34.176 C 136.880 34.881,136.624 35.039,135.752 35.000 C 134.939 34.964,134.627 35.126,134.488 35.658 C 134.338 36.231,134.110 36.325,133.274 36.158 C 132.434 35.990,132.209 36.084,132.057 36.666 C 131.901 37.262,131.693 37.342,130.800 37.146 C 129.888 36.945,129.730 37.012,129.730 37.598 C 129.730 38.315,129.100 38.710,127.958 38.710 C 127.590 38.710,127.289 38.863,127.289 39.050 C 127.289 39.587,124.577 40.757,123.803 40.555 C 123.274 40.417,123.104 40.543,123.104 41.073 C 123.104 41.887,122.385 42.267,121.677 41.826 C 121.321 41.605,121.133 41.734,120.996 42.293 C 120.892 42.718,120.524 43.120,120.180 43.186 C 119.835 43.252,119.253 43.606,118.887 43.972 C 118.521 44.339,117.986 44.638,117.698 44.638 C 117.411 44.638,117.175 44.815,117.175 45.031 C 117.175 45.280,116.796 45.347,116.129 45.214 C 115.245 45.037,115.083 45.113,115.083 45.704 C 115.083 46.560,114.205 46.956,113.537 46.401 C 113.136 46.068,113.080 46.124,113.232 46.706 C 113.360 47.196,113.215 47.492,112.768 47.651 C 112.411 47.779,111.850 48.113,111.521 48.395 C 111.193 48.677,110.683 48.815,110.388 48.702 C 110.036 48.567,109.847 48.702,109.837 49.096 C 109.823 49.658,107.750 51.264,107.038 51.264 C 106.859 51.264,106.713 51.421,106.713 51.613 C 106.713 51.805,106.321 51.962,105.841 51.962 C 105.189 51.962,104.969 52.145,104.969 52.692 C 104.969 53.129,104.689 53.495,104.272 53.604 C 103.888 53.705,103.575 53.944,103.575 54.135 C 103.575 54.327,103.182 54.409,102.703 54.317 C 102.051 54.193,101.831 54.300,101.831 54.739 C 101.831 55.063,100.889 56.010,99.738 56.844 C 98.588 57.678,97.646 58.507,97.646 58.687 C 97.646 58.870,97.123 58.916,96.458 58.791 C 95.301 58.574,95.264 58.603,95.046 59.893 C 94.868 60.947,94.434 61.537,92.923 62.780 C 91.879 63.639,91.024 64.459,91.022 64.603 C 91.021 64.747,90.858 64.865,90.660 64.865 C 90.461 64.865,89.824 65.350,89.244 65.944 C 88.417 66.790,88.000 66.975,87.309 66.802 C 86.616 66.628,86.390 66.730,86.245 67.281 C 86.145 67.665,85.782 68.070,85.438 68.178 C 85.007 68.315,84.873 68.601,85.005 69.106 C 85.127 69.572,84.988 69.951,84.621 70.157 C 84.304 70.334,84.045 70.707,84.045 70.985 C 84.045 71.263,83.810 71.491,83.522 71.491 C 83.235 71.491,82.999 71.636,82.999 71.813 C 82.999 72.148,81.351 74.002,77.332 78.189 C 76.037 79.538,74.978 80.780,74.978 80.949 C 74.978 81.117,74.664 81.255,74.281 81.255 C 73.816 81.255,73.583 81.488,73.583 81.953 C 73.583 82.337,73.426 82.650,73.235 82.650 C 73.043 82.650,72.886 82.956,72.886 83.331 C 72.886 83.705,72.681 84.136,72.431 84.290 C 72.180 84.443,71.534 85.157,70.994 85.876 C 70.455 86.595,69.801 87.184,69.542 87.184 C 69.283 87.184,69.152 87.394,69.251 87.651 C 69.349 87.908,69.188 88.320,68.891 88.566 C 68.595 88.812,68.352 89.141,68.352 89.298 C 68.352 89.845,66.323 91.798,65.977 91.584 C 65.774 91.458,65.697 91.634,65.794 92.004 C 65.966 92.664,64.667 95.205,64.157 95.205 C 63.998 95.205,63.817 95.558,63.756 95.990 C 63.683 96.503,63.364 96.814,62.833 96.889 C 62.247 96.972,62.082 97.162,62.239 97.571 C 62.548 98.375,61.353 100.436,60.577 100.436 C 60.107 100.436,59.991 100.612,60.144 101.093 C 60.385 101.851,59.003 104.235,58.311 104.257 C 58.063 104.265,57.885 104.468,57.916 104.708 C 58.044 105.689,57.853 106.016,57.152 106.016 C 56.584 106.016,56.456 106.177,56.597 106.718 C 56.701 107.115,56.418 108.061,55.945 108.897 C 55.485 109.710,55.017 110.610,54.905 110.898 C 54.793 111.186,54.555 111.656,54.375 111.944 C 54.196 112.232,53.958 112.703,53.847 112.990 C 53.307 114.381,51.837 117.211,51.568 117.378 C 51.401 117.481,51.264 117.859,51.264 118.217 C 51.264 118.576,51.029 119.104,50.741 119.392 C 50.453 119.680,50.218 120.149,50.218 120.435 C 50.218 121.420,49.793 122.058,49.134 122.058 C 48.392 122.058,48.342 122.199,48.782 123.039 C 49.185 123.810,48.649 125.196,47.947 125.196 C 47.528 125.196,47.422 125.501,47.500 126.481 C 47.589 127.593,47.485 127.799,46.731 128.015 C 46.251 128.153,46.055 128.281,46.295 128.300 C 47.270 128.378,46.643 130.776,45.647 130.776 C 44.933 130.776,44.803 131.340,45.326 132.168 C 45.547 132.516,45.490 132.938,45.155 133.451 C 44.879 133.871,44.549 134.874,44.420 135.680 C 44.255 136.711,43.987 137.197,43.517 137.320 C 42.952 137.468,42.884 137.701,43.074 138.829 C 43.380 140.638,43.015 141.700,42.163 141.477 C 41.468 141.295,41.247 141.739,41.848 142.110 C 42.727 142.653,41.974 145.772,40.964 145.772 C 40.362 145.772,40.335 145.944,40.799 146.812 C 41.293 147.736,40.827 149.666,40.061 149.867 C 39.506 150.012,39.453 150.289,39.637 152.054 C 39.881 154.391,39.600 155.885,38.915 155.885 C 38.303 155.885,37.856 157.611,38.342 158.098 C 39.229 158.985,38.624 162.511,37.585 162.511 C 36.968 162.511,36.919 162.659,37.147 163.819 C 37.686 166.551,37.409 170.313,36.631 170.836 C 35.900 171.328,35.591 173.775,36.212 174.158 C 36.519 174.348,36.381 196.850,36.052 200.213 C 35.882 201.954,35.937 202.190,36.548 202.350 C 37.377 202.567,38.064 207.934,37.354 208.645 C 36.658 209.340,36.866 211.683,37.623 211.683 C 38.635 211.683,39.182 214.906,38.317 215.772 C 37.810 216.279,38.222 217.960,38.853 217.960 C 39.401 217.960,39.756 218.704,39.756 219.853 C 39.756 220.730,40.649 221.897,41.587 222.245 C 41.922 222.370,42.197 222.623,42.197 222.808 C 42.197 222.993,42.511 223.244,42.895 223.365 C 43.278 223.487,43.592 223.868,43.592 224.212 C 43.592 224.692,43.796 224.799,44.464 224.671 C 44.982 224.572,45.336 224.666,45.336 224.903 C 45.336 225.122,45.728 225.450,46.207 225.632 C 46.722 225.828,47.079 226.240,47.079 226.637 C 47.079 227.117,47.262 227.263,47.714 227.145 C 48.063 227.053,48.553 227.225,48.803 227.526 C 49.053 227.827,49.401 228.073,49.578 228.073 C 49.901 228.073,50.401 228.433,51.638 229.555 C 52.008 229.891,52.399 230.166,52.508 230.166 C 52.988 230.166,55.100 232.038,55.100 232.463 C 55.100 232.728,55.318 232.850,55.599 232.742 C 56.296 232.475,58.239 233.991,58.239 234.803 C 58.239 235.337,58.410 235.429,59.082 235.261 C 59.546 235.144,59.977 235.167,60.041 235.310 C 60.105 235.454,60.824 236.005,61.639 236.535 C 62.454 237.065,63.121 237.727,63.121 238.006 C 63.121 238.303,63.328 238.434,63.620 238.322 C 64.303 238.060,66.260 239.564,66.260 240.351 C 66.260 240.851,66.441 240.944,67.098 240.779 C 67.634 240.645,68.042 240.746,68.231 241.061 C 68.394 241.331,68.801 241.653,69.137 241.776 C 69.473 241.900,69.747 242.336,69.747 242.747 C 69.747 243.279,69.903 243.433,70.291 243.283 C 71.173 242.945,74.739 245.404,74.529 246.205 C 74.379 246.777,74.446 246.809,75.038 246.448 C 75.588 246.113,75.797 246.137,76.133 246.578 C 76.361 246.877,76.822 247.226,77.158 247.352 C 77.493 247.478,77.768 247.902,77.768 248.296 C 77.768 248.873,77.927 248.971,78.593 248.804 C 79.160 248.661,79.483 248.768,79.628 249.146 C 79.744 249.448,80.079 249.695,80.373 249.695 C 80.711 249.695,80.907 250.017,80.907 250.573 C 80.907 251.336,81.021 251.423,81.779 251.233 C 82.316 251.098,82.650 251.163,82.650 251.401 C 82.650 251.613,82.862 251.787,83.120 251.787 C 83.378 251.787,83.952 252.101,84.394 252.485 C 84.836 252.868,85.331 253.182,85.494 253.182 C 85.656 253.182,85.789 253.474,85.789 253.831 C 85.789 254.336,85.983 254.443,86.661 254.314 C 87.179 254.215,87.533 254.309,87.533 254.545 C 87.533 254.764,87.925 255.092,88.405 255.275 C 88.919 255.470,89.276 255.882,89.276 256.280 C 89.276 256.742,89.468 256.909,89.887 256.814 C 90.812 256.602,92.694 258.274,92.146 258.821 C 91.512 259.456,91.626 260.400,92.361 260.593 C 93.300 260.838,93.960 266.433,93.112 266.957 C 92.411 267.391,92.688 270.968,93.422 270.968 C 94.367 270.968,94.616 272.775,94.321 277.494 C 94.105 280.947,94.142 281.430,94.624 281.430 C 95.510 281.430,95.914 286.024,95.369 289.887 C 95.174 291.263,95.228 291.543,95.686 291.543 C 96.678 291.543,97.063 296.109,96.429 300.349 C 96.203 301.857,96.243 302.005,96.881 302.005 C 97.455 302.005,97.617 302.304,97.785 303.662 C 98.218 307.183,98.171 310.050,97.675 310.357 C 97.062 310.736,97.480 311.908,98.138 311.656 C 98.717 311.433,98.908 312.339,99.240 316.877 C 99.455 319.806,99.543 320.097,100.320 320.451 C 100.923 320.726,113.374 320.837,143.675 320.837 C 171.638 320.837,186.258 320.956,186.399 321.186 C 186.518 321.378,186.919 321.534,187.292 321.534 C 187.664 321.534,187.970 321.652,187.971 321.796 C 187.972 321.940,188.834 322.764,189.887 323.627 C 190.939 324.490,191.801 325.471,191.802 325.806 C 191.804 326.175,192.070 326.417,192.473 326.417 C 192.841 326.417,193.194 326.534,193.258 326.678 C 193.401 326.999,196.885 329.276,198.082 329.830 C 202.807 332.017,216.565 331.245,216.565 328.793 C 216.565 328.637,216.884 328.509,217.273 328.509 C 217.663 328.509,218.077 328.261,218.193 327.958 C 218.320 327.627,218.665 327.475,219.054 327.577 C 219.539 327.703,219.704 327.556,219.706 326.994 C 219.707 326.508,220.384 325.688,221.622 324.673 C 222.674 323.810,223.536 322.986,223.537 322.842 C 223.539 322.698,223.758 322.581,224.025 322.581 C 224.293 322.581,224.602 322.345,224.712 322.058 C 224.822 321.770,225.232 321.534,225.621 321.534 C 226.011 321.534,226.330 321.379,226.330 321.190 C 226.330 320.965,241.327 320.813,269.427 320.754 C 318.314 320.650,313.509 320.981,313.518 317.719 C 313.524 315.654,313.831 314.560,314.403 314.560 C 315.022 314.560,315.422 313.190,314.943 312.711 C 314.004 311.772,314.695 304.202,315.704 304.374 C 316.385 304.491,316.612 301.540,315.955 301.133 C 315.117 300.616,315.784 294.661,316.706 294.420 C 317.442 294.228,317.662 291.080,316.969 290.652 C 316.718 290.496,316.665 289.578,316.813 287.929 C 317.158 284.097,317.334 283.442,317.954 283.679 C 318.428 283.861,318.462 283.412,318.246 279.906 C 317.948 275.059,318.197 273.276,319.138 273.522 C 319.912 273.724,320.124 269.051,319.394 267.882 C 318.732 266.822,319.437 262.409,320.258 262.477 C 320.882 262.529,321.002 260.211,320.468 258.422 C 320.370 258.094,320.599 257.863,321.099 257.787 C 321.530 257.721,321.890 257.482,321.898 257.256 C 321.913 256.833,324.115 255.275,324.697 255.275 C 324.876 255.275,325.022 255.118,325.022 254.926 C 325.022 254.734,325.414 254.577,325.894 254.577 C 326.418 254.577,326.765 254.378,326.765 254.078 C 326.765 253.570,328.512 252.136,329.129 252.136 C 329.315 252.136,330.067 251.587,330.800 250.915 C 331.533 250.244,332.416 249.695,332.762 249.695 C 333.108 249.695,333.391 249.459,333.391 249.172 C 333.391 248.884,333.524 248.649,333.687 248.649 C 333.849 248.649,334.344 248.335,334.786 247.951 C 335.229 247.568,335.802 247.254,336.060 247.254 C 336.319 247.254,336.530 247.078,336.530 246.864 C 336.530 246.637,336.893 246.544,337.402 246.642 C 338.112 246.777,338.274 246.670,338.274 246.064 C 338.274 245.240,340.384 243.869,341.034 244.271 C 341.260 244.411,341.412 244.212,341.412 243.778 C 341.412 243.324,341.739 242.927,342.284 242.720 C 342.764 242.538,343.156 242.228,343.156 242.031 C 343.156 241.835,343.470 241.674,343.854 241.674 C 344.237 241.674,344.551 241.515,344.551 241.321 C 344.551 240.770,348.379 238.458,348.936 238.671 C 349.264 238.797,349.433 238.626,349.433 238.168 C 349.433 237.766,349.800 237.307,350.305 237.077 C 350.785 236.858,351.177 236.530,351.177 236.346 C 351.177 236.163,351.569 236.088,352.049 236.180 C 352.698 236.304,352.921 236.197,352.921 235.763 C 352.921 235.195,354.663 233.653,355.304 233.653 C 355.479 233.653,356.223 233.104,356.955 232.432 C 357.688 231.761,358.493 231.212,358.743 231.212 C 358.993 231.212,359.198 231.037,359.198 230.822 C 359.198 230.595,359.561 230.502,360.070 230.600 C 360.719 230.724,360.942 230.617,360.942 230.183 C 360.942 229.616,362.684 228.073,363.325 228.073 C 363.500 228.073,364.243 227.524,364.976 226.853 C 365.709 226.181,366.514 225.632,366.764 225.632 C 367.014 225.632,367.219 225.508,367.219 225.357 C 367.219 224.575,371.149 222.459,372.181 222.685 C 373.230 222.916,373.237 222.907,373.012 221.706 C 372.740 220.256,373.026 219.355,373.757 219.355 C 374.205 219.355,374.256 219.004,374.071 217.229 C 373.794 214.581,374.055 213.426,374.929 213.426 C 375.652 213.426,375.906 211.571,375.240 211.160 C 374.345 210.607,375.114 204.854,376.071 204.936 C 376.621 204.983,376.674 204.787,376.492 203.367 C 376.257 201.529,376.288 174.818,376.530 171.015 C 376.674 168.764,376.624 168.518,375.996 168.354 C 375.137 168.129,374.522 163.880,375.193 162.805 C 375.863 161.732,375.697 160.070,374.919 160.070 C 374.033 160.070,373.709 158.555,374.021 155.865 C 374.225 154.108,374.178 153.793,373.711 153.793 C 372.996 153.793,372.657 152.387,372.917 150.492 C 373.093 149.207,373.026 148.960,372.461 148.812 C 371.658 148.602,371.102 146.283,371.709 145.676 C 372.322 145.062,372.170 144.377,371.419 144.377 C 370.569 144.377,370.042 142.172,370.657 141.187 C 371.199 140.320,371.163 140.192,370.381 140.192 C 369.562 140.192,369.180 139.144,369.487 137.743 C 369.667 136.926,369.595 136.704,369.153 136.704 C 368.411 136.704,367.927 135.342,368.310 134.328 C 368.719 133.241,368.711 133.217,367.944 133.217 C 367.105 133.217,366.598 131.349,367.231 130.587 C 367.578 130.169,367.523 130.078,366.919 130.078 C 366.123 130.078,365.610 128.840,365.919 127.662 C 366.032 127.228,365.881 126.945,365.482 126.841 C 365.100 126.741,364.779 126.182,364.622 125.346 C 364.484 124.612,364.149 123.694,363.877 123.306 C 363.605 122.917,363.383 122.388,363.383 122.129 C 363.383 121.871,363.147 121.424,362.860 121.136 C 362.225 120.501,362.169 119.281,362.772 119.233 C 363.012 119.214,362.816 119.085,362.337 118.948 C 361.632 118.745,361.474 118.490,361.513 117.618 C 361.549 116.806,361.387 116.493,360.858 116.355 C 360.326 116.216,360.195 115.960,360.320 115.305 C 360.445 114.653,360.314 114.394,359.793 114.258 C 359.216 114.107,359.133 113.873,359.298 112.857 C 359.470 111.798,359.396 111.622,358.737 111.521 C 357.971 111.404,357.912 111.205,358.327 110.141 C 358.494 109.713,358.339 109.528,357.742 109.443 C 357.107 109.353,356.944 109.128,356.992 108.403 C 357.035 107.754,356.854 107.426,356.386 107.304 C 356.019 107.208,355.553 106.761,355.351 106.311 C 354.815 105.118,354.102 103.919,353.675 103.492 C 353.423 103.240,353.414 102.909,353.647 102.475 C 353.930 101.945,353.863 101.831,353.271 101.831 C 352.874 101.831,352.445 101.556,352.316 101.221 C 352.187 100.885,351.643 99.960,351.106 99.165 C 350.570 98.370,350.131 97.427,350.131 97.069 C 350.131 96.711,349.817 96.223,349.433 95.983 C 349.050 95.744,348.736 95.330,348.736 95.065 C 348.736 94.799,348.490 94.488,348.189 94.372 C 347.825 94.233,347.716 93.928,347.863 93.463 C 348.037 92.917,347.927 92.764,347.364 92.764 C 346.968 92.764,346.643 92.618,346.643 92.440 C 346.643 92.262,346.445 91.909,346.203 91.655 C 345.421 90.837,344.551 89.315,344.551 88.766 C 344.551 88.471,344.329 88.230,344.058 88.230 C 343.461 88.230,341.064 85.052,341.064 84.260 C 341.064 83.950,340.836 83.697,340.558 83.697 C 340.280 83.697,339.927 83.480,339.773 83.216 C 339.403 82.578,336.517 79.208,335.745 78.512 C 335.410 78.209,335.135 77.761,335.135 77.516 C 335.135 77.271,334.900 77.071,334.612 77.071 C 334.324 77.071,334.089 76.852,334.089 76.585 C 334.089 76.318,333.879 76.018,333.621 75.920 C 333.321 75.804,333.209 75.363,333.309 74.684 C 333.452 73.711,333.368 73.610,332.236 73.398 C 330.923 73.152,325.719 68.358,325.719 67.396 C 325.719 66.198,324.976 65.484,323.943 65.691 C 323.191 65.841,322.929 65.761,322.929 65.379 C 322.929 65.096,322.758 64.865,322.549 64.865 C 322.340 64.865,321.752 64.486,321.242 64.024 C 320.731 63.561,319.843 62.763,319.268 62.251 C 316.346 59.649,315.257 58.501,315.257 58.022 C 315.257 57.664,315.046 57.561,314.601 57.703 C 314.187 57.834,313.869 57.714,313.740 57.377 C 313.628 57.084,313.367 56.844,313.162 56.844 C 312.456 56.844,310.724 55.318,310.724 54.697 C 310.724 54.292,310.544 54.145,310.207 54.274 C 309.512 54.541,306.190 52.067,306.190 51.283 C 306.190 50.810,305.984 50.703,305.318 50.830 C 304.839 50.922,304.446 50.840,304.446 50.648 C 304.446 50.456,304.133 50.217,303.749 50.117 C 303.317 50.004,303.051 49.641,303.051 49.164 C 303.051 48.528,302.898 48.422,302.171 48.561 C 301.687 48.654,301.201 48.584,301.091 48.406 C 300.981 48.228,300.514 47.939,300.053 47.764 C 299.592 47.589,299.215 47.233,299.215 46.973 C 299.215 46.708,298.872 46.513,298.431 46.529 C 297.863 46.549,297.614 46.330,297.530 45.738 C 297.443 45.123,297.247 44.964,296.738 45.097 C 295.855 45.328,293.938 44.363,293.735 43.584 C 293.630 43.186,293.347 43.035,292.914 43.148 C 292.437 43.273,292.156 43.066,291.904 42.402 C 291.615 41.643,291.402 41.522,290.677 41.704 C 290.135 41.840,289.799 41.776,289.799 41.537 C 289.799 41.325,289.487 41.151,289.105 41.151 C 288.723 41.151,288.214 40.837,287.975 40.453 C 287.718 40.042,287.162 39.756,286.620 39.756 C 286.114 39.756,285.505 39.520,285.266 39.233 C 285.027 38.945,284.548 38.710,284.202 38.710 C 283.855 38.710,283.363 38.501,283.108 38.245 C 282.852 37.990,282.213 37.673,281.688 37.541 C 281.027 37.375,280.732 37.076,280.732 36.572 C 280.732 35.927,280.591 35.869,279.512 36.071 C 278.430 36.274,278.291 36.216,278.291 35.565 C 278.291 34.945,278.113 34.846,277.158 34.938 C 276.218 35.029,276.006 34.918,275.916 34.289 C 275.823 33.631,275.648 33.555,274.609 33.724 C 273.539 33.898,273.409 33.834,273.409 33.133 C 273.409 32.484,273.320 32.420,272.900 32.769 C 272.135 33.404,270.270 32.895,270.270 32.052 C 270.270 31.459,270.099 31.405,268.855 31.604 C 267.589 31.807,267.419 31.748,267.235 31.048 C 267.065 30.398,266.847 30.293,265.948 30.430 C 264.491 30.652,263.998 30.428,263.965 29.526 C 263.950 29.111,263.859 28.967,263.762 29.207 C 263.665 29.446,263.275 29.643,262.895 29.643 C 261.815 29.643,260.857 28.996,261.079 28.417 C 261.302 27.837,260.759 27.742,259.872 28.206 C 259.087 28.618,257.716 28.068,257.716 27.342 C 257.716 26.851,257.458 26.797,256.017 26.988 C 254.089 27.244,253.182 27.013,253.182 26.265 C 253.182 25.875,252.929 25.807,252.136 25.981 C 250.555 26.328,248.997 25.882,248.997 25.081 C 248.997 24.326,248.577 24.239,247.559 24.783 C 246.539 25.330,244.813 24.859,244.813 24.035 C 244.813 23.287,243.806 23.133,242.718 23.715 C 241.782 24.216,238.535 23.485,238.535 22.773 C 238.535 22.322,238.179 22.276,236.269 22.481 C 233.295 22.799,231.785 22.482,232.019 21.587 C 232.215 20.838,229.339 20.596,228.103 21.257 C 226.947 21.876,222.493 21.278,222.493 20.504 C 222.493 19.874,222.259 19.845,218.396 20.004 C 212.322 20.252,203.672 20.252,195.902 20.003 C 189.172 19.787,189.015 19.798,189.015 20.480 M198.559 49.618 C 199.057 49.982,199.197 50.766,199.322 53.890 C 199.407 55.994,199.710 63.287,199.997 70.096 C 200.284 76.905,200.760 88.753,201.054 96.425 C 202.323 129.529,202.666 138.169,203.313 153.444 C 203.513 158.143,203.831 166.696,204.020 172.450 C 204.209 178.204,204.512 185.737,204.694 189.189 C 204.876 192.642,205.118 198.997,205.232 203.313 C 205.512 213.971,206.251 222.843,206.810 222.264 C 206.967 222.103,207.191 218.518,207.309 214.298 C 207.426 210.078,207.674 203.330,207.859 199.303 C 208.043 195.275,208.349 187.193,208.537 181.343 C 208.725 175.493,209.039 167.489,209.235 163.557 C 209.602 156.179,210.419 135.472,210.983 119.268 C 211.298 110.206,211.672 101.099,212.373 85.440 C 212.566 81.125,212.886 72.101,213.084 65.388 C 213.618 47.276,212.648 49.170,221.385 49.176 C 233.040 49.184,243.123 51.414,253.098 56.190 C 257.875 58.477,257.822 55.881,253.521 76.896 C 253.128 78.814,252.589 81.482,252.323 82.825 C 251.787 85.533,251.011 89.361,250.220 93.200 C 249.049 98.889,247.491 106.594,247.348 107.411 C 247.263 107.890,246.749 110.480,246.205 113.165 C 245.661 115.850,244.883 119.773,244.476 121.883 C 244.069 123.993,243.501 126.739,243.213 127.986 C 242.761 129.945,238.372 151.778,235.396 166.870 C 232.658 180.756,232.203 183.023,231.896 184.307 C 231.713 185.074,231.250 187.350,230.868 189.364 C 230.199 192.891,229.448 196.526,228.706 199.826 C 228.512 200.689,228.148 202.572,227.898 204.010 C 227.648 205.449,227.105 208.117,226.690 209.939 C 226.276 211.761,225.793 214.214,225.617 215.389 C 225.442 216.565,225.138 217.948,224.942 218.464 C 224.746 218.979,224.586 219.868,224.586 220.439 C 224.586 221.011,224.329 222.501,224.015 223.751 C 223.588 225.450,223.544 226.125,223.841 226.421 C 224.137 226.718,224.237 226.452,224.237 225.370 C 224.237 224.508,224.431 223.810,224.718 223.644 C 224.982 223.491,225.366 222.659,225.570 221.796 C 225.774 220.933,226.280 219.128,226.693 217.786 C 227.106 216.443,227.650 214.560,227.900 213.601 C 228.151 212.642,228.742 210.523,229.214 208.893 C 229.686 207.262,230.473 204.516,230.963 202.790 C 231.453 201.064,232.434 197.690,233.143 195.292 C 233.852 192.895,234.637 190.148,234.886 189.189 C 235.135 188.230,235.598 186.582,235.914 185.527 C 236.231 184.473,236.775 182.589,237.123 181.343 C 237.471 180.096,238.015 178.213,238.332 177.158 C 238.649 176.103,239.121 174.455,239.382 173.496 C 239.643 172.537,240.675 168.928,241.676 165.475 C 242.677 162.023,243.936 157.629,244.474 155.711 C 245.013 153.793,246.027 150.262,246.729 147.864 C 247.431 145.466,248.396 142.092,248.874 140.366 C 249.352 138.640,250.203 135.658,250.765 133.740 C 251.327 131.822,252.013 129.468,252.290 128.509 C 252.566 127.550,253.118 125.667,253.516 124.324 C 254.347 121.517,255.954 115.937,256.227 114.908 C 256.328 114.525,256.801 112.877,257.278 111.247 C 257.755 109.616,258.350 107.498,258.601 106.539 C 258.851 105.580,259.389 103.697,259.796 102.354 C 260.203 101.011,260.748 99.128,261.007 98.169 C 261.475 96.439,264.165 87.029,265.244 83.348 C 265.553 82.293,265.941 80.959,266.105 80.384 C 266.269 79.808,266.745 78.160,267.163 76.722 C 267.581 75.283,268.124 73.400,268.370 72.537 C 270.528 64.977,270.413 65.092,274.216 66.654 C 275.211 67.062,276.489 67.572,277.056 67.787 C 285.871 71.126,297.383 79.450,304.056 87.309 C 307.058 90.845,307.065 90.927,304.795 95.520 C 303.836 97.459,303.051 99.115,303.051 99.200 C 303.051 99.284,301.972 101.597,300.654 104.341 C 299.335 107.084,297.744 110.427,297.119 111.770 C 296.494 113.112,295.124 116.016,294.075 118.221 C 293.027 120.427,291.732 123.173,291.199 124.324 C 290.666 125.475,289.601 127.751,288.832 129.381 C 288.063 131.011,286.694 133.915,285.791 135.833 C 284.887 137.751,283.552 140.575,282.824 142.110 C 282.095 143.644,280.839 146.312,280.032 148.038 C 279.225 149.765,277.815 152.746,276.897 154.664 C 275.980 156.582,274.681 159.329,274.012 160.767 C 273.342 162.206,272.090 164.874,271.229 166.696 C 270.367 168.518,269.151 171.107,268.525 172.450 C 267.899 173.793,266.232 177.292,264.819 180.227 C 263.405 183.162,262.249 185.618,262.249 185.685 C 262.249 185.752,261.058 188.294,259.602 191.334 C 257.095 196.567,256.443 197.950,253.834 203.575 C 253.233 204.869,251.917 207.655,250.908 209.765 C 248.027 215.792,242.878 226.715,242.114 228.422 C 241.814 229.093,241.356 230.059,241.098 230.568 C 240.543 231.661,240.487 232.607,240.976 232.607 C 241.168 232.607,241.325 232.395,241.325 232.137 C 241.325 231.879,241.639 231.305,242.023 230.863 C 242.406 230.421,242.720 229.861,242.720 229.618 C 242.720 229.376,242.844 229.125,242.996 229.061 C 243.147 228.997,244.582 226.670,246.185 223.888 C 247.787 221.107,249.913 217.419,250.909 215.693 C 252.915 212.216,263.138 194.774,264.297 192.851 C 264.702 192.180,265.142 191.395,265.276 191.107 C 265.409 190.820,268.831 184.935,272.880 178.029 C 276.929 171.124,280.352 165.239,280.485 164.952 C 280.619 164.664,280.882 164.194,281.071 163.906 C 281.682 162.976,295.260 139.715,296.033 138.274 C 296.445 137.507,296.937 136.643,297.127 136.356 C 298.069 134.931,314.560 106.611,314.561 106.416 C 314.562 106.292,314.918 105.747,315.352 105.204 L 316.141 104.219 317.369 105.204 C 320.400 107.636,325.373 113.481,328.445 118.221 C 329.502 119.852,330.626 121.578,330.944 122.058 C 333.094 125.303,338.274 138.129,338.274 140.207 C 338.274 140.569,335.915 143.671,332.345 148.005 C 331.674 148.820,330.105 150.743,328.858 152.279 C 327.611 153.814,323.217 159.203,319.093 164.255 C 311.691 173.322,308.728 176.964,305.318 181.188 C 303.609 183.305,291.938 197.581,290.794 198.954 C 290.475 199.337,288.050 202.319,285.406 205.580 C 282.761 208.840,279.647 212.664,278.486 214.076 C 277.324 215.488,275.588 217.624,274.629 218.823 C 272.121 221.959,261.027 235.542,258.952 238.020 C 257.984 239.174,256.800 240.640,256.321 241.275 C 255.841 241.911,255.241 242.654,254.988 242.925 C 254.734 243.197,254.577 243.659,254.639 243.953 C 254.709 244.286,260.534 238.658,270.069 229.044 C 337.891 160.663,341.754 156.922,341.763 159.623 C 341.764 159.964,341.968 160.636,342.215 161.116 C 346.802 170.015,348.433 189.211,345.682 201.918 C 344.927 205.403,345.089 205.221,338.572 209.887 C 333.107 213.801,330.342 215.795,322.835 221.242 C 320.960 222.602,317.236 225.283,314.559 227.201 C 291.236 243.911,293.123 242.324,292.798 245.510 C 292.671 246.757,292.419 248.561,292.239 249.520 C 292.058 250.480,291.591 254.089,291.200 257.541 C 290.810 260.994,290.324 264.917,290.121 266.260 C 289.917 267.602,289.607 269.956,289.432 271.491 C 289.256 273.025,288.789 276.870,288.395 280.035 C 288.000 283.200,287.504 287.332,287.293 289.217 C 286.940 292.355,286.836 292.673,286.064 292.966 C 285.574 293.152,272.361 293.287,254.534 293.287 L 223.848 293.287 221.514 294.911 C 220.231 295.804,218.306 297.204,217.238 298.022 C 212.686 301.506,210.938 302.180,206.452 302.180 C 201.655 302.180,200.739 301.774,193.573 296.472 L 189.268 293.287 158.158 293.287 C 121.901 293.287,126.119 293.942,125.559 288.225 C 125.352 286.118,124.961 282.825,124.690 280.907 C 124.419 278.989,123.952 275.458,123.651 273.060 C 122.734 265.743,122.381 262.941,121.851 258.762 C 121.571 256.556,121.120 252.868,120.850 250.567 C 120.232 245.307,119.930 243.350,119.657 242.845 C 119.457 242.474,116.048 239.917,108.712 234.634 C 107.030 233.423,104.248 231.412,102.528 230.166 C 100.809 228.919,97.983 226.879,96.248 225.632 C 94.513 224.385,91.803 222.419,90.226 221.263 C 88.649 220.106,86.135 218.302,84.639 217.252 C 68.364 205.834,67.862 205.379,67.134 201.395 C 64.682 187.975,65.758 174.645,70.322 161.918 C 72.006 157.223,68.705 154.530,101.053 186.993 C 116.782 202.778,135.975 222.090,143.705 229.909 C 153.086 239.398,157.875 244.008,158.108 243.775 C 158.341 243.542,158.259 243.222,157.862 242.812 C 157.535 242.474,156.211 240.863,154.918 239.233 C 153.626 237.602,151.724 235.248,150.692 234.002 C 148.083 230.849,147.096 229.638,142.596 224.063 C 140.429 221.378,138.562 219.102,138.447 219.006 C 138.332 218.910,137.305 217.655,136.165 216.216 C 135.025 214.778,134.007 213.522,133.904 213.426 C 133.801 213.330,129.963 208.622,125.375 202.964 C 120.788 197.306,116.242 191.723,115.274 190.558 C 111.886 186.481,110.710 185.046,108.980 182.877 C 106.112 179.284,98.734 170.207,96.253 167.219 C 94.979 165.684,92.233 162.310,90.152 159.721 C 88.071 157.132,86.269 154.935,86.148 154.839 C 85.948 154.681,83.050 151.105,78.806 145.779 C 77.938 144.690,76.643 143.116,75.928 142.281 C 74.334 140.419,74.328 140.761,76.061 135.579 C 77.660 130.797,78.137 129.659,80.626 124.702 C 85.702 114.590,96.211 102.654,97.691 105.318 C 97.851 105.606,101.045 111.074,104.789 117.470 C 108.532 123.866,111.595 129.148,111.595 129.209 C 111.595 129.270,114.986 135.100,119.130 142.166 C 123.274 149.232,127.145 155.876,127.733 156.931 C 128.320 157.986,131.885 164.106,135.653 170.532 C 139.422 176.957,142.964 182.999,143.524 183.958 C 144.084 184.917,144.734 186.016,144.969 186.399 C 145.203 186.783,145.510 187.332,145.650 187.620 C 145.789 187.908,149.219 193.793,153.270 200.697 C 157.322 207.602,160.744 213.487,160.874 213.775 C 161.005 214.063,161.266 214.534,161.454 214.821 C 162.734 216.776,169.834 229.160,169.834 229.438 C 169.834 229.627,170.034 229.908,170.278 230.061 C 170.521 230.215,170.944 230.811,171.216 231.386 C 171.687 232.381,171.718 232.393,171.845 231.637 C 171.918 231.199,171.666 230.179,171.285 229.370 C 170.904 228.561,170.048 226.722,169.383 225.283 C 168.719 223.845,167.310 220.863,166.252 218.657 C 160.810 207.305,159.721 205.012,159.721 204.905 C 159.721 204.799,158.022 201.199,153.621 191.979 C 152.797 190.253,151.478 187.467,150.691 185.789 C 147.759 179.541,145.419 174.578,141.935 167.219 C 139.847 162.807,138.019 158.924,136.271 155.187 C 135.598 153.749,134.224 150.846,133.217 148.736 C 132.211 146.626,130.952 143.958,130.420 142.807 C 129.888 141.656,128.561 138.832,127.471 136.530 C 123.780 128.739,120.989 122.836,118.566 117.698 C 117.662 115.780,116.273 112.838,115.479 111.160 C 113.547 107.073,111.583 102.881,110.208 99.913 C 109.586 98.570,108.407 96.115,107.588 94.457 C 105.795 90.826,105.809 90.773,109.618 86.605 C 117.818 77.634,126.725 71.355,136.931 67.352 C 143.190 64.897,142.200 63.930,145.447 75.676 C 145.845 77.114,146.304 78.684,146.468 79.163 C 146.632 79.643,147.095 81.212,147.496 82.650 C 147.898 84.089,148.461 86.051,148.746 87.010 C 149.449 89.374,154.332 106.395,155.549 110.724 C 156.450 113.932,157.224 116.624,158.553 121.186 C 158.833 122.145,159.276 123.714,159.537 124.673 C 159.798 125.632,160.588 128.378,161.292 130.776 C 161.996 133.173,162.656 135.449,162.759 135.833 C 162.862 136.216,163.652 138.963,164.515 141.935 C 165.377 144.908,166.520 148.910,167.054 150.828 C 167.588 152.746,168.432 155.728,168.929 157.454 C 171.584 166.678,172.433 169.612,173.317 172.624 C 174.526 176.742,175.878 181.496,177.145 186.080 C 177.680 188.014,178.288 190.133,178.498 190.788 C 178.707 191.443,179.136 192.921,179.449 194.071 C 179.763 195.222,180.243 196.870,180.516 197.733 C 181.160 199.774,184.068 209.957,184.648 212.206 C 184.896 213.165,185.508 215.325,186.010 217.006 C 186.512 218.687,186.928 220.257,186.934 220.493 C 186.941 220.730,187.249 221.552,187.620 222.319 C 187.990 223.086,188.299 224.146,188.306 224.673 C 188.312 225.201,188.474 225.632,188.666 225.632 C 189.110 225.632,189.113 223.732,188.671 222.140 C 188.483 221.467,188.186 219.976,188.010 218.827 C 187.834 217.679,186.883 212.895,185.896 208.195 C 184.909 203.496,183.878 198.474,183.606 197.036 C 183.334 195.597,182.782 192.851,182.379 190.933 C 181.977 189.015,181.440 186.347,181.186 185.004 C 180.247 180.044,178.434 171.104,177.331 165.998 C 176.874 163.883,175.244 155.719,174.163 150.131 C 173.903 148.788,173.441 146.513,173.136 145.074 C 172.831 143.636,172.368 141.360,172.108 140.017 C 171.849 138.675,171.060 134.752,170.355 131.299 C 169.651 127.847,168.866 123.923,168.612 122.581 C 168.358 121.238,167.344 116.216,166.360 111.421 C 165.375 106.626,164.361 101.604,164.106 100.262 C 163.278 95.901,160.432 81.817,160.088 80.384 C 159.904 79.616,159.428 77.262,159.030 75.153 C 158.632 73.043,158.088 70.296,157.821 69.050 C 157.555 67.803,156.985 65.015,156.556 62.854 L 155.775 58.924 156.588 58.058 C 157.035 57.582,157.518 57.193,157.661 57.193 C 157.804 57.193,159.404 56.490,161.217 55.632 C 166.928 52.927,173.083 51.118,180.820 49.871 C 185.645 49.093,197.608 48.923,198.559 49.618 " stroke="none" fill="#fb0604" fill-rule="evenodd"></path><path id="path1" d="M196.687 19.507 C 196.687 20.153,197.053 20.186,205.318 20.291 C 214.895 20.413,214.821 20.419,214.821 19.492 C 214.821 18.861,214.418 18.832,205.754 18.832 C 197.020 18.832,196.687 18.857,196.687 19.507 M182.977 20.359 C 182.534 21.512,184.020 21.863,187.397 21.400 C 188.664 21.226,189.015 21.037,189.015 20.528 C 189.015 19.684,183.297 19.523,182.977 20.359 M222.493 20.525 C 222.493 21.193,226.689 21.863,227.919 21.391 C 229.714 20.703,228.373 19.878,225.458 19.878 C 222.803 19.878,222.493 19.946,222.493 20.525 M176.244 21.431 C 175.881 22.378,176.490 22.755,178.092 22.575 C 179.858 22.376,180.115 22.211,179.827 21.462 C 179.547 20.733,176.522 20.706,176.244 21.431 M232.030 21.462 C 231.713 22.288,232.130 22.477,234.285 22.486 C 236.079 22.493,236.279 22.419,236.380 21.709 C 236.522 20.707,232.409 20.474,232.030 21.462 M170.532 23.037 C 170.532 24.012,173.420 23.911,173.606 22.929 C 173.702 22.420,173.457 22.319,172.127 22.319 C 170.749 22.319,170.532 22.417,170.532 23.037 M238.535 22.813 C 238.535 23.499,241.823 24.194,242.741 23.703 C 244.258 22.891,243.528 22.319,240.976 22.319 C 239.102 22.319,238.535 22.434,238.535 22.813 M164.603 24.039 C 164.603 25.310,167.783 25.228,168.029 23.951 C 168.123 23.465,167.841 23.365,166.373 23.365 C 164.856 23.365,164.603 23.462,164.603 24.039 M244.813 24.025 C 244.813 24.765,246.198 25.270,247.283 24.925 C 248.714 24.471,248.075 23.365,246.382 23.365 C 245.075 23.365,244.813 23.476,244.813 24.025 M160.070 25.088 C 160.070 26.016,160.598 26.264,162.010 26.000 C 163.975 25.631,163.690 24.412,161.639 24.412 C 160.318 24.412,160.070 24.519,160.070 25.088 M248.997 25.093 C 248.997 25.822,250.918 26.429,251.959 26.030 C 253.344 25.499,252.526 24.412,250.741 24.412 C 249.243 24.412,248.997 24.508,248.997 25.093 M156.582 26.341 C 156.582 27.464,158.564 27.360,158.945 26.217 C 159.033 25.953,158.636 25.806,157.832 25.806 C 156.942 25.806,156.582 25.960,156.582 26.341 M253.182 26.323 C 253.182 26.901,254.641 27.385,255.448 27.076 C 256.585 26.640,256.013 25.806,254.577 25.806 C 253.578 25.806,253.182 25.953,253.182 26.323 M153.444 27.573 C 153.444 28.153,153.630 28.272,154.400 28.184 C 155.826 28.019,155.927 26.853,154.516 26.853 C 153.665 26.853,153.444 27.001,153.444 27.573 M257.716 27.387 C 257.716 28.088,259.111 28.605,259.895 28.194 C 261.046 27.591,260.614 26.853,259.111 26.853 C 258.090 26.853,257.716 26.996,257.716 27.387 M149.956 28.559 C 149.956 29.299,150.732 29.724,151.526 29.420 C 152.535 29.033,152.145 27.899,151.003 27.899 C 150.209 27.899,149.956 28.058,149.956 28.559 M261.079 28.417 C 260.854 29.002,261.818 29.643,262.924 29.643 C 263.460 29.643,263.644 29.419,263.644 28.771 C 263.644 27.745,261.453 27.443,261.079 28.417 M146.532 29.730 C 146.612 30.293,146.878 30.514,147.475 30.514 C 148.020 30.514,148.408 30.243,148.597 29.730 C 148.864 29.009,148.787 28.945,147.654 28.945 C 146.574 28.945,146.434 29.043,146.532 29.730 M263.993 29.605 C 263.993 30.345,264.769 30.771,265.562 30.466 C 266.571 30.079,266.182 28.945,265.039 28.945 C 264.245 28.945,263.993 29.104,263.993 29.605 M143.048 30.950 C 143.129 31.368,143.492 31.561,144.202 31.561 C 144.912 31.561,145.276 31.368,145.356 30.950 C 145.451 30.459,145.226 30.340,144.202 30.340 C 143.179 30.340,142.953 30.459,143.048 30.950 M267.198 30.950 C 267.279 31.368,267.642 31.561,268.352 31.561 C 269.062 31.561,269.426 31.368,269.506 30.950 C 269.601 30.459,269.376 30.340,268.352 30.340 C 267.329 30.340,267.103 30.459,267.198 30.950 M139.494 31.909 C 139.494 32.258,139.146 32.432,138.448 32.432 C 137.565 32.432,137.402 32.568,137.402 33.304 C 137.402 34.270,138.635 34.547,139.424 33.758 C 139.654 33.528,140.351 33.175,140.972 32.973 C 142.728 32.403,142.692 31.386,140.915 31.386 C 139.885 31.386,139.494 31.530,139.494 31.909 M270.270 32.056 C 270.270 32.756,271.996 33.398,272.703 32.961 C 273.691 32.350,273.056 31.386,271.665 31.386 C 270.522 31.386,270.270 31.507,270.270 32.056 M273.409 33.130 C 273.409 33.641,273.641 33.827,274.281 33.827 C 274.920 33.827,275.153 33.641,275.153 33.130 C 275.153 32.618,274.920 32.432,274.281 32.432 C 273.641 32.432,273.409 32.618,273.409 33.130 M135.078 34.025 C 134.963 34.326,135.029 34.733,135.226 34.930 C 135.806 35.509,136.870 35.105,136.990 34.260 C 137.125 33.315,135.430 33.107,135.078 34.025 M275.850 34.131 C 275.850 34.982,276.289 35.300,277.056 35.005 C 277.863 34.696,277.567 33.675,276.631 33.542 C 276.044 33.458,275.850 33.604,275.850 34.131 M132.868 35.595 C 132.868 36.143,133.056 36.290,133.649 36.206 C 134.809 36.040,134.910 34.874,133.766 34.874 C 133.091 34.874,132.868 35.052,132.868 35.595 M278.291 35.597 C 278.291 36.096,278.479 36.284,278.897 36.203 C 279.807 36.028,279.908 34.874,279.014 34.874 C 278.515 34.874,278.291 35.098,278.291 35.597 M130.494 36.530 C 130.558 36.866,130.921 37.140,131.299 37.140 C 131.677 37.140,132.040 36.866,132.104 36.530 C 132.193 36.073,131.990 35.920,131.299 35.920 C 130.608 35.920,130.406 36.073,130.494 36.530 M280.732 36.611 C 280.732 37.073,281.049 37.381,281.688 37.541 C 282.213 37.673,282.852 37.990,283.108 38.245 C 283.363 38.501,283.855 38.710,284.202 38.710 C 284.548 38.710,285.027 38.945,285.266 39.233 C 285.505 39.520,286.114 39.756,286.620 39.756 C 287.162 39.756,287.718 40.042,287.975 40.453 C 288.214 40.837,288.710 41.151,289.076 41.151 C 289.442 41.151,289.803 41.336,289.879 41.562 C 290.069 42.135,291.194 41.643,291.194 40.987 C 291.194 40.694,290.959 40.453,290.671 40.453 C 290.384 40.453,290.148 40.218,290.148 39.930 C 290.148 39.568,289.785 39.407,288.968 39.407 C 288.082 39.407,287.743 39.234,287.606 38.710 C 287.483 38.238,287.130 38.012,286.519 38.012 C 285.948 38.012,285.615 37.820,285.615 37.489 C 285.615 37.124,285.247 36.966,284.394 36.966 C 283.542 36.966,283.173 36.808,283.173 36.443 C 283.173 36.078,282.805 35.920,281.953 35.920 C 280.969 35.920,280.732 36.054,280.732 36.611 M126.940 37.489 C 126.940 37.820,126.607 38.012,126.035 38.012 C 125.424 38.012,125.072 38.238,124.948 38.710 C 124.848 39.093,124.549 39.407,124.284 39.407 C 123.755 39.407,123.620 40.300,124.103 40.598 C 124.500 40.844,127.289 39.489,127.289 39.050 C 127.289 38.863,127.590 38.710,127.958 38.710 C 129.088 38.710,129.730 38.317,129.730 37.626 C 129.730 37.088,129.471 36.966,128.335 36.966 C 127.327 36.966,126.940 37.111,126.940 37.489 M121.360 41.122 C 121.360 41.833,121.949 42.198,122.668 41.934 C 123.510 41.624,123.166 40.453,122.232 40.453 C 121.605 40.453,121.360 40.641,121.360 41.122 M119.093 42.197 C 118.938 42.686,118.566 42.895,117.849 42.895 C 117.173 42.895,116.827 43.072,116.827 43.418 C 116.827 43.705,116.591 43.941,116.303 43.941 C 116.013 43.941,115.780 44.251,115.780 44.638 C 115.780 45.103,116.013 45.336,116.478 45.336 C 116.861 45.336,117.175 45.179,117.175 44.987 C 117.175 44.795,117.411 44.638,117.698 44.638 C 117.986 44.638,118.521 44.339,118.887 43.972 C 119.253 43.606,119.842 43.251,120.195 43.184 C 120.548 43.117,120.887 42.710,120.948 42.281 C 121.099 41.224,119.426 41.149,119.093 42.197 M291.855 42.284 C 292.283 43.442,293.287 43.521,293.287 42.397 C 293.287 41.675,293.118 41.500,292.426 41.500 C 291.680 41.500,291.604 41.604,291.855 42.284 M293.697 43.475 C 293.828 44.146,295.966 45.445,296.449 45.147 C 296.969 44.825,296.824 43.941,296.251 43.941 C 295.963 43.941,295.728 43.705,295.728 43.418 C 295.728 43.066,295.376 42.895,294.656 42.895 C 293.844 42.895,293.612 43.035,293.697 43.475 M113.402 45.772 C 113.475 46.287,113.753 46.556,114.211 46.556 C 114.669 46.556,114.947 46.287,115.020 45.772 C 115.111 45.128,114.966 44.987,114.211 44.987 C 113.456 44.987,113.311 45.128,113.402 45.772 M297.535 45.772 C 297.614 46.330,297.872 46.548,298.431 46.529 C 298.872 46.513,299.215 46.708,299.215 46.973 C 299.215 47.233,299.592 47.589,300.053 47.764 C 300.514 47.939,300.985 48.234,301.100 48.420 C 301.398 48.902,302.703 48.487,302.703 47.911 C 302.703 47.645,302.389 47.428,302.005 47.428 C 301.540 47.428,301.308 47.196,301.308 46.731 C 301.308 46.188,301.075 46.033,300.262 46.033 C 299.564 46.033,299.215 45.859,299.215 45.510 C 299.215 45.181,298.883 44.987,298.319 44.987 C 297.589 44.987,297.444 45.133,297.535 45.772 M111.247 46.707 C 111.247 47.196,111.022 47.428,110.549 47.428 C 109.727 47.428,109.604 48.401,110.388 48.702 C 110.683 48.815,111.193 48.677,111.521 48.395 C 111.850 48.113,112.405 47.781,112.755 47.657 C 113.715 47.315,113.330 46.227,112.203 46.097 C 111.433 46.008,111.247 46.127,111.247 46.707 M107.759 48.997 C 107.759 49.285,107.524 49.520,107.236 49.520 C 106.949 49.520,106.713 49.738,106.713 50.003 C 106.713 50.268,106.399 50.567,106.016 50.668 C 105.632 50.768,105.318 51.100,105.318 51.406 C 105.318 51.729,105.610 51.962,106.016 51.962 C 106.399 51.962,106.713 51.805,106.713 51.613 C 106.713 51.421,106.859 51.264,107.038 51.264 C 107.216 51.264,107.916 50.911,108.592 50.480 C 110.161 49.479,110.268 48.474,108.806 48.474 C 108.108 48.474,107.759 48.649,107.759 48.997 M303.051 49.204 C 303.051 49.641,303.332 50.008,303.749 50.117 C 304.133 50.217,304.446 50.438,304.446 50.607 C 304.446 50.777,304.760 50.915,305.144 50.915 C 305.609 50.915,305.841 50.683,305.841 50.218 C 305.841 49.830,305.609 49.520,305.318 49.520 C 305.031 49.520,304.795 49.285,304.795 48.997 C 304.795 48.672,304.466 48.474,303.923 48.474 C 303.271 48.474,303.051 48.658,303.051 49.204 M180.820 49.871 C 173.083 51.118,166.928 52.927,161.217 55.632 C 159.404 56.490,157.804 57.193,157.661 57.193 C 157.518 57.193,157.035 57.582,156.588 58.058 L 155.775 58.924 156.556 62.854 C 156.985 65.015,157.555 67.803,157.821 69.050 C 158.088 70.296,158.632 73.043,159.030 75.153 C 159.428 77.262,159.904 79.616,160.088 80.384 C 160.432 81.817,163.278 95.901,164.106 100.262 C 164.361 101.604,165.375 106.626,166.360 111.421 C 167.344 116.216,168.358 121.238,168.612 122.581 C 168.866 123.923,169.651 127.847,170.355 131.299 C 171.060 134.752,171.849 138.675,172.108 140.017 C 172.368 141.360,172.831 143.636,173.136 145.074 C 173.441 146.513,173.903 148.788,174.163 150.131 C 175.244 155.719,176.874 163.883,177.331 165.998 C 178.434 171.104,180.247 180.044,181.186 185.004 C 181.440 186.347,181.977 189.015,182.379 190.933 C 182.782 192.851,183.334 195.597,183.606 197.036 C 183.878 198.474,184.909 203.496,185.896 208.195 C 186.883 212.895,187.834 217.679,188.010 218.827 C 188.186 219.976,188.483 221.467,188.671 222.140 C 189.113 223.732,189.110 225.632,188.666 225.632 C 188.474 225.632,188.312 225.201,188.306 224.673 C 188.299 224.146,187.990 223.086,187.620 222.319 C 187.249 221.552,186.941 220.730,186.934 220.493 C 186.928 220.257,186.512 218.687,186.010 217.006 C 185.508 215.325,184.896 213.165,184.648 212.206 C 184.068 209.957,181.160 199.774,180.516 197.733 C 180.243 196.870,179.763 195.222,179.449 194.071 C 179.136 192.921,178.707 191.443,178.498 190.788 C 178.288 190.133,177.680 188.014,177.145 186.080 C 175.878 181.496,174.526 176.742,173.317 172.624 C 172.433 169.612,171.584 166.678,168.929 157.454 C 168.432 155.728,167.588 152.746,167.054 150.828 C 166.520 148.910,165.377 144.908,164.515 141.935 C 163.652 138.963,162.862 136.216,162.759 135.833 C 162.656 135.449,161.996 133.173,161.292 130.776 C 160.588 128.378,159.798 125.632,159.537 124.673 C 159.276 123.714,158.833 122.145,158.553 121.186 C 157.224 116.624,156.450 113.932,155.549 110.724 C 154.332 106.395,149.449 89.374,148.746 87.010 C 148.461 86.051,147.898 84.089,147.496 82.650 C 147.095 81.212,146.632 79.643,146.468 79.163 C 146.304 78.684,145.845 77.114,145.447 75.676 C 142.200 63.930,143.190 64.897,136.931 67.352 C 126.725 71.355,117.818 77.634,109.618 86.605 C 105.809 90.773,105.795 90.826,107.588 94.457 C 108.407 96.115,109.586 98.570,110.208 99.913 C 111.583 102.881,113.547 107.073,115.479 111.160 C 116.273 112.838,117.662 115.780,118.566 117.698 C 120.989 122.836,123.780 128.739,127.471 136.530 C 128.561 138.832,129.888 141.656,130.420 142.807 C 130.952 143.958,132.211 146.626,133.217 148.736 C 134.224 150.846,135.598 153.749,136.271 155.187 C 138.019 158.924,139.847 162.807,141.935 167.219 C 145.419 174.578,147.759 179.541,150.691 185.789 C 151.478 187.467,152.797 190.253,153.621 191.979 C 158.022 201.199,159.721 204.799,159.721 204.905 C 159.721 205.012,160.810 207.305,166.252 218.657 C 167.310 220.863,168.719 223.845,169.383 225.283 C 170.048 226.722,170.904 228.561,171.285 229.370 C 171.666 230.179,171.918 231.199,171.845 231.637 C 171.718 232.393,171.687 232.381,171.216 231.386 C 170.944 230.811,170.521 230.215,170.278 230.061 C 170.034 229.908,169.834 229.627,169.834 229.438 C 169.834 229.160,162.734 216.776,161.454 214.821 C 161.266 214.534,161.005 214.063,160.874 213.775 C 160.744 213.487,157.322 207.602,153.270 200.697 C 149.219 193.793,145.789 187.908,145.650 187.620 C 145.510 187.332,145.203 186.783,144.969 186.399 C 144.734 186.016,144.084 184.917,143.524 183.958 C 142.964 182.999,139.422 176.957,135.653 170.532 C 131.885 164.106,128.320 157.986,127.733 156.931 C 127.145 155.876,123.274 149.232,119.130 142.166 C 114.986 135.100,111.595 129.270,111.595 129.209 C 111.595 129.148,108.532 123.866,104.789 117.470 C 101.045 111.074,97.851 105.606,97.691 105.318 C 96.211 102.654,85.702 114.590,80.626 124.702 C 78.137 129.659,77.660 130.797,76.061 135.579 C 74.328 140.761,74.334 140.419,75.928 142.281 C 76.643 143.116,77.938 144.690,78.806 145.779 C 83.050 151.105,85.948 154.681,86.148 154.839 C 86.269 154.935,88.071 157.132,90.152 159.721 C 92.233 162.310,94.979 165.684,96.253 167.219 C 98.734 170.207,106.112 179.284,108.980 182.877 C 110.710 185.046,111.886 186.481,115.274 190.558 C 116.242 191.723,120.788 197.306,125.375 202.964 C 129.963 208.622,133.801 213.330,133.904 213.426 C 134.007 213.522,135.025 214.778,136.165 216.216 C 137.305 217.655,138.332 218.910,138.447 219.006 C 138.562 219.102,140.429 221.378,142.596 224.063 C 147.096 229.638,148.083 230.849,150.692 234.002 C 151.724 235.248,153.626 237.602,154.918 239.233 C 156.211 240.863,157.535 242.474,157.862 242.812 C 158.259 243.222,158.341 243.542,158.108 243.775 C 157.875 244.008,153.086 239.398,143.705 229.909 C 135.975 222.090,116.782 202.778,101.053 186.993 C 68.705 154.530,72.006 157.223,70.322 161.918 C 65.758 174.645,64.682 187.975,67.134 201.395 C 67.795 205.014,67.807 205.030,71.995 208.101 C 78.367 212.772,81.982 215.388,84.639 217.252 C 86.135 218.302,88.649 220.106,90.226 221.263 C 91.803 222.419,94.513 224.385,96.248 225.632 C 97.983 226.879,100.809 228.919,102.528 230.166 C 104.248 231.412,107.030 233.423,108.712 234.634 C 116.048 239.917,119.457 242.474,119.657 242.845 C 119.930 243.350,120.232 245.307,120.850 250.567 C 121.120 252.868,121.571 256.556,121.851 258.762 C 122.381 262.941,122.734 265.743,123.651 273.060 C 123.952 275.458,124.419 278.989,124.690 280.907 C 124.961 282.825,125.352 286.118,125.559 288.225 C 126.119 293.942,121.901 293.287,158.158 293.287 L 189.268 293.287 193.573 296.472 C 203.844 304.071,208.901 304.402,217.238 298.022 C 218.306 297.204,220.231 295.804,221.514 294.911 L 223.848 293.287 254.534 293.287 C 272.361 293.287,285.574 293.152,286.064 292.966 C 286.836 292.673,286.940 292.355,287.293 289.217 C 287.504 287.332,288.000 283.200,288.395 280.035 C 288.789 276.870,289.256 273.025,289.432 271.491 C 289.607 269.956,289.917 267.602,290.121 266.260 C 290.324 264.917,290.810 260.994,291.200 257.541 C 291.591 254.089,292.058 250.480,292.239 249.520 C 292.419 248.561,292.671 246.757,292.798 245.510 C 293.123 242.324,291.236 243.911,314.559 227.201 C 317.236 225.283,320.960 222.602,322.835 221.242 C 330.342 215.795,333.107 213.801,338.572 209.887 C 345.089 205.221,344.927 205.403,345.682 201.918 C 348.433 189.211,346.802 170.015,342.215 161.116 C 341.968 160.636,341.764 159.964,341.763 159.623 C 341.754 156.922,337.891 160.663,270.069 229.044 C 260.534 238.658,254.709 244.286,254.639 243.953 C 254.577 243.659,254.734 243.197,254.988 242.925 C 255.241 242.654,255.841 241.911,256.321 241.275 C 256.800 240.640,257.984 239.174,258.952 238.020 C 261.027 235.542,272.121 221.959,274.629 218.823 C 275.588 217.624,277.324 215.488,278.486 214.076 C 279.647 212.664,282.761 208.840,285.406 205.580 C 288.050 202.319,290.475 199.337,290.794 198.954 C 291.938 197.581,303.609 183.305,305.318 181.188 C 308.728 176.964,311.691 173.322,319.093 164.255 C 323.217 159.203,327.611 153.814,328.858 152.279 C 330.105 150.743,331.674 148.820,332.345 148.005 C 335.915 143.671,338.274 140.569,338.274 140.207 C 338.274 138.129,333.094 125.303,330.944 122.058 C 330.626 121.578,329.502 119.852,328.445 118.221 C 325.373 113.481,320.400 107.636,317.369 105.204 L 316.141 104.219 315.352 105.204 C 314.918 105.747,314.562 106.292,314.561 106.416 C 314.560 106.611,298.069 134.931,297.127 136.356 C 296.937 136.643,296.445 137.507,296.033 138.274 C 295.260 139.715,281.682 162.976,281.071 163.906 C 280.882 164.194,280.619 164.664,280.485 164.952 C 280.352 165.239,276.929 171.124,272.880 178.029 C 268.831 184.935,265.409 190.820,265.276 191.107 C 265.142 191.395,264.702 192.180,264.297 192.851 C 263.138 194.774,252.915 212.216,250.909 215.693 C 249.913 217.419,247.787 221.107,246.185 223.888 C 244.582 226.670,243.147 228.997,242.996 229.061 C 242.844 229.125,242.720 229.376,242.720 229.618 C 242.720 229.861,242.406 230.421,242.023 230.863 C 241.639 231.305,241.325 231.879,241.325 232.137 C 241.325 232.395,241.168 232.607,240.976 232.607 C 240.487 232.607,240.543 231.661,241.098 230.568 C 241.356 230.059,241.814 229.093,242.114 228.422 C 242.878 226.715,248.027 215.792,250.908 209.765 C 251.917 207.655,253.233 204.869,253.834 203.575 C 256.443 197.950,257.095 196.567,259.602 191.334 C 261.058 188.294,262.249 185.752,262.249 185.685 C 262.249 185.618,263.405 183.162,264.819 180.227 C 266.232 177.292,267.899 173.793,268.525 172.450 C 269.151 171.107,270.367 168.518,271.229 166.696 C 272.090 164.874,273.342 162.206,274.012 160.767 C 274.681 159.329,275.980 156.582,276.897 154.664 C 277.815 152.746,279.225 149.765,280.032 148.038 C 280.839 146.312,282.095 143.644,282.824 142.110 C 283.552 140.575,284.887 137.751,285.791 135.833 C 286.694 133.915,288.063 131.011,288.832 129.381 C 289.601 127.751,290.666 125.475,291.199 124.324 C 291.732 123.173,293.027 120.427,294.075 118.221 C 295.124 116.016,296.494 113.112,297.119 111.770 C 297.744 110.427,299.335 107.084,300.654 104.341 C 301.972 101.597,303.051 99.284,303.051 99.200 C 303.051 99.115,303.836 97.459,304.795 95.520 C 307.065 90.927,307.058 90.845,304.056 87.309 C 297.383 79.450,285.871 71.126,277.056 67.787 C 276.489 67.572,275.211 67.062,274.216 66.654 C 270.413 65.092,270.528 64.977,268.370 72.537 C 268.124 73.400,267.581 75.283,267.163 76.722 C 266.745 78.160,266.269 79.808,266.105 80.384 C 265.941 80.959,265.553 82.293,265.244 83.348 C 264.165 87.029,261.475 96.439,261.007 98.169 C 260.748 99.128,260.203 101.011,259.796 102.354 C 259.389 103.697,258.851 105.580,258.601 106.539 C 258.350 107.498,257.755 109.616,257.278 111.247 C 256.801 112.877,256.328 114.525,256.227 114.908 C 255.954 115.937,254.347 121.517,253.516 124.324 C 253.118 125.667,252.566 127.550,252.290 128.509 C 252.013 129.468,251.327 131.822,250.765 133.740 C 250.203 135.658,249.352 138.640,248.874 140.366 C 248.396 142.092,247.431 145.466,246.729 147.864 C 246.027 150.262,245.013 153.793,244.474 155.711 C 243.936 157.629,242.677 162.023,241.676 165.475 C 240.675 168.928,239.643 172.537,239.382 173.496 C 239.121 174.455,238.649 176.103,238.332 177.158 C 238.015 178.213,237.471 180.096,237.123 181.343 C 236.775 182.589,236.231 184.473,235.914 185.527 C 235.598 186.582,235.135 188.230,234.886 189.189 C 234.637 190.148,233.852 192.895,233.143 195.292 C 232.434 197.690,231.453 201.064,230.963 202.790 C 230.473 204.516,229.686 207.262,229.214 208.893 C 228.742 210.523,228.151 212.642,227.900 213.601 C 227.650 214.560,227.106 216.443,226.693 217.786 C 226.280 219.128,225.774 220.933,225.570 221.796 C 225.366 222.659,224.982 223.491,224.718 223.644 C 224.431 223.810,224.237 224.508,224.237 225.370 C 224.237 226.452,224.137 226.718,223.841 226.421 C 223.544 226.125,223.588 225.450,224.015 223.751 C 224.329 222.501,224.586 221.011,224.586 220.439 C 224.586 219.868,224.746 218.979,224.942 218.464 C 225.138 217.948,225.442 216.565,225.617 215.389 C 225.793 214.214,226.276 211.761,226.690 209.939 C 227.105 208.117,227.648 205.449,227.898 204.010 C 228.148 202.572,228.512 200.689,228.706 199.826 C 229.448 196.526,230.199 192.891,230.868 189.364 C 231.250 187.350,231.713 185.074,231.896 184.307 C 232.203 183.023,232.658 180.756,235.396 166.870 C 238.372 151.778,242.761 129.945,243.213 127.986 C 243.501 126.739,244.069 123.993,244.476 121.883 C 244.883 119.773,245.661 115.850,246.205 113.165 C 246.749 110.480,247.263 107.890,247.348 107.411 C 247.491 106.594,249.049 98.889,250.220 93.200 C 251.011 89.361,251.787 85.533,252.323 82.825 C 252.589 81.482,253.128 78.814,253.521 76.896 C 257.822 55.881,257.875 58.477,253.098 56.190 C 243.123 51.414,233.040 49.184,221.385 49.176 C 212.648 49.170,213.618 47.276,213.084 65.388 C 212.886 72.101,212.566 81.125,212.373 85.440 C 211.672 101.099,211.298 110.206,210.983 119.268 C 210.419 135.472,209.602 156.179,209.235 163.557 C 209.039 167.489,208.725 175.493,208.537 181.343 C 208.349 187.193,208.043 195.275,207.859 199.303 C 207.674 203.330,207.426 210.078,207.309 214.298 C 207.191 218.518,206.967 222.103,206.810 222.264 C 206.251 222.843,205.512 213.971,205.232 203.313 C 205.118 198.997,204.876 192.642,204.694 189.189 C 204.512 185.737,204.209 178.204,204.020 172.450 C 203.831 166.696,203.513 158.143,203.313 153.444 C 202.666 138.169,202.323 129.529,201.054 96.425 C 200.760 88.753,200.284 76.905,199.997 70.096 C 199.710 63.287,199.407 55.994,199.322 53.890 C 199.197 50.766,199.057 49.982,198.559 49.618 C 197.608 48.923,185.645 49.093,180.820 49.871 M306.190 51.234 C 306.190 51.895,309.195 54.403,309.986 54.403 C 310.200 54.403,310.375 54.089,310.375 53.705 C 310.375 53.318,310.142 53.008,309.852 53.008 C 309.564 53.008,309.329 52.772,309.329 52.485 C 309.329 52.197,309.093 51.962,308.806 51.962 C 308.515 51.962,308.282 51.652,308.282 51.264 C 308.282 50.722,308.050 50.567,307.236 50.567 C 306.438 50.567,306.190 50.725,306.190 51.234 M103.226 52.444 C 103.226 52.709,102.895 53.013,102.492 53.119 C 102.088 53.224,101.825 53.517,101.909 53.769 C 102.084 54.302,103.575 54.614,103.575 54.119 C 103.575 53.936,103.888 53.705,104.272 53.604 C 105.345 53.324,105.200 51.962,104.098 51.962 C 103.588 51.962,103.226 52.162,103.226 52.444 M99.738 54.752 C 99.738 55.139,99.506 55.449,99.215 55.449 C 98.928 55.449,98.692 55.684,98.692 55.972 C 98.692 56.263,98.382 56.495,97.995 56.495 C 97.607 56.495,97.297 56.728,97.297 57.018 C 97.297 57.306,97.062 57.541,96.774 57.541 C 96.484 57.541,96.251 57.851,96.251 58.239 C 96.251 58.704,96.484 58.936,96.949 58.936 C 97.332 58.936,97.646 58.807,97.646 58.648 C 97.646 58.490,98.588 57.678,99.738 56.844 C 102.102 55.132,102.506 54.054,100.785 54.054 C 99.971 54.054,99.738 54.209,99.738 54.752 M310.724 54.686 C 310.724 55.308,312.058 56.499,313.252 56.944 C 313.588 57.069,313.862 57.343,313.862 57.554 C 313.862 57.778,314.151 57.845,314.560 57.716 C 315.047 57.561,315.257 57.653,315.257 58.022 C 315.257 58.501,316.346 59.649,319.268 62.251 C 319.843 62.763,320.731 63.561,321.242 64.024 C 321.752 64.486,322.340 64.865,322.549 64.865 C 322.758 64.865,322.929 65.117,322.929 65.425 C 322.929 65.793,323.119 65.913,323.481 65.774 C 323.784 65.658,324.098 65.562,324.178 65.562 C 324.259 65.562,324.324 65.327,324.324 65.039 C 324.324 64.749,324.014 64.516,323.627 64.516 C 323.162 64.516,322.929 64.284,322.929 63.819 C 322.929 63.431,322.697 63.121,322.406 63.121 C 322.119 63.121,321.883 62.886,321.883 62.598 C 321.883 62.310,321.648 62.075,321.360 62.075 C 321.072 62.075,320.837 61.840,320.837 61.552 C 320.837 61.264,320.602 61.029,320.314 61.029 C 320.026 61.029,319.791 60.793,319.791 60.506 C 319.791 60.215,319.481 59.983,319.093 59.983 C 318.628 59.983,318.396 59.750,318.396 59.285 C 318.396 58.898,318.163 58.588,317.873 58.588 C 317.585 58.588,317.350 58.352,317.350 58.065 C 317.350 57.720,317.005 57.541,316.341 57.541 C 315.766 57.541,315.246 57.316,315.131 57.018 C 315.021 56.731,314.690 56.495,314.396 56.495 C 314.103 56.495,313.862 56.260,313.862 55.972 C 313.862 55.684,313.627 55.449,313.339 55.449 C 313.049 55.449,312.816 55.139,312.816 54.752 C 312.816 54.209,312.584 54.054,311.770 54.054 C 310.992 54.054,310.724 54.216,310.724 54.686 M92.764 60.506 C 92.764 60.793,92.528 61.029,92.241 61.029 C 91.953 61.029,91.718 61.264,91.718 61.552 C 91.718 61.840,91.482 62.075,91.194 62.075 C 90.907 62.075,90.671 62.310,90.671 62.598 C 90.671 62.886,90.436 63.121,90.148 63.121 C 89.858 63.121,89.625 63.431,89.625 63.819 C 89.625 64.284,89.393 64.516,88.928 64.516 C 88.540 64.516,88.230 64.749,88.230 65.039 C 88.230 65.327,87.995 65.562,87.707 65.562 C 87.416 65.562,87.184 65.872,87.184 66.260 C 87.184 67.272,88.095 67.120,89.276 65.911 C 89.839 65.336,90.461 64.865,90.660 64.865 C 90.858 64.865,91.021 64.747,91.022 64.603 C 91.024 64.459,91.886 63.636,92.938 62.772 C 95.122 60.981,95.434 59.983,93.810 59.983 C 93.112 59.983,92.764 60.157,92.764 60.506 M325.719 67.244 C 325.719 68.072,330.882 73.235,331.710 73.235 C 332.638 73.235,332.584 71.488,331.648 71.243 C 331.264 71.143,330.950 70.844,330.950 70.578 C 330.950 70.313,330.715 70.096,330.427 70.096 C 330.139 70.096,329.904 69.861,329.904 69.573 C 329.904 69.285,329.669 69.050,329.381 69.050 C 329.093 69.050,328.858 68.800,328.858 68.494 C 328.858 68.188,328.544 67.856,328.160 67.756 C 327.777 67.655,327.463 67.356,327.463 67.091 C 327.463 66.809,327.101 66.609,326.591 66.609 C 325.980 66.609,325.719 66.799,325.719 67.244 M84.307 68.978 C 83.971 69.046,83.697 69.325,83.697 69.598 C 83.697 69.872,83.461 70.096,83.173 70.096 C 82.886 70.096,82.650 70.331,82.650 70.619 C 82.650 70.907,82.415 71.142,82.127 71.142 C 81.837 71.142,81.604 71.452,81.604 71.840 C 81.604 72.305,81.372 72.537,80.907 72.537 C 80.519 72.537,80.209 72.770,80.209 73.060 C 80.209 73.348,79.974 73.583,79.686 73.583 C 79.398 73.583,79.163 73.819,79.163 74.106 C 79.163 74.394,78.928 74.629,78.640 74.629 C 78.352 74.629,78.117 74.865,78.117 75.153 C 78.117 75.440,77.881 75.676,77.594 75.676 C 77.303 75.676,77.071 75.986,77.071 76.373 C 77.071 76.838,76.838 77.071,76.373 77.071 C 75.986 77.071,75.676 77.303,75.676 77.594 C 75.676 77.881,75.440 78.117,75.153 78.117 C 74.865 78.117,74.629 78.352,74.629 78.640 C 74.629 78.928,74.394 79.163,74.106 79.163 C 73.758 79.163,73.583 79.512,73.583 80.209 C 73.583 81.023,73.738 81.255,74.281 81.255 C 74.664 81.255,74.978 81.117,74.978 80.949 C 74.978 80.780,76.037 79.538,77.332 78.189 C 81.351 74.002,82.999 72.148,82.999 71.813 C 82.999 71.636,83.235 71.491,83.522 71.491 C 83.810 71.491,84.045 71.263,84.045 70.985 C 84.045 70.707,84.297 70.339,84.604 70.167 C 85.333 69.759,85.097 68.819,84.307 68.978 M333.260 75.166 C 333.143 75.471,333.277 75.788,333.572 75.901 C 333.856 76.010,334.089 76.318,334.089 76.585 C 334.089 76.852,334.324 77.071,334.612 77.071 C 334.900 77.071,335.135 77.271,335.135 77.516 C 335.135 77.761,335.410 78.209,335.745 78.512 C 336.517 79.208,339.403 82.578,339.773 83.216 C 339.927 83.480,340.280 83.697,340.558 83.697 C 340.836 83.697,341.064 83.950,341.064 84.260 C 341.064 85.052,343.461 88.230,344.058 88.230 C 344.329 88.230,344.551 88.471,344.551 88.766 C 344.551 89.315,345.421 90.837,346.203 91.655 C 346.445 91.909,346.643 92.262,346.643 92.440 C 346.643 92.618,346.957 92.764,347.341 92.764 C 347.883 92.764,348.038 92.531,348.038 91.718 C 348.038 91.020,347.864 90.671,347.515 90.671 C 347.228 90.671,346.992 90.436,346.992 90.148 C 346.992 89.861,346.757 89.625,346.469 89.625 C 346.178 89.625,345.946 89.315,345.946 88.928 C 345.946 88.540,345.713 88.230,345.423 88.230 C 345.092 88.230,344.900 87.897,344.900 87.326 C 344.900 86.714,344.674 86.362,344.202 86.239 C 343.816 86.138,343.505 85.763,343.505 85.400 C 343.505 85.038,343.269 84.743,342.982 84.743 C 342.694 84.743,342.459 84.507,342.459 84.220 C 342.459 83.932,342.223 83.697,341.935 83.697 C 341.587 83.697,341.412 83.348,341.412 82.650 C 341.412 81.837,341.257 81.604,340.715 81.604 C 340.250 81.604,340.017 81.372,340.017 80.907 C 340.017 80.519,339.785 80.209,339.494 80.209 C 339.207 80.209,338.971 79.974,338.971 79.686 C 338.971 79.398,338.736 79.163,338.448 79.163 C 338.160 79.163,337.925 78.928,337.925 78.640 C 337.925 78.352,337.690 78.117,337.402 78.117 C 337.114 78.117,336.879 77.881,336.879 77.594 C 336.879 77.303,336.569 77.071,336.181 77.071 C 335.716 77.071,335.484 76.838,335.484 76.373 C 335.484 75.986,335.251 75.676,334.961 75.676 C 334.673 75.676,334.438 75.440,334.438 75.153 C 334.438 74.466,333.525 74.476,333.260 75.166 M72.537 82.127 C 72.537 82.418,72.227 82.650,71.840 82.650 C 71.452 82.650,71.142 82.883,71.142 83.173 C 71.142 83.461,70.907 83.697,70.619 83.697 C 70.331 83.697,70.096 83.932,70.096 84.220 C 70.096 84.507,69.861 84.743,69.573 84.743 C 69.207 84.743,69.050 85.111,69.050 85.963 C 69.050 87.580,69.739 87.549,70.994 85.876 C 71.534 85.157,72.180 84.443,72.431 84.290 C 72.681 84.136,72.886 83.705,72.886 83.331 C 72.886 82.956,73.043 82.650,73.235 82.650 C 73.426 82.650,73.583 82.415,73.583 82.127 C 73.583 81.840,73.348 81.604,73.060 81.604 C 72.772 81.604,72.537 81.840,72.537 82.127 M67.781 87.707 C 67.670 87.995,67.362 88.230,67.094 88.230 C 66.827 88.230,66.609 88.544,66.609 88.928 C 66.609 89.315,66.376 89.625,66.085 89.625 C 65.473 89.625,65.359 91.202,65.944 91.564 C 66.287 91.775,68.352 89.893,68.352 89.369 C 68.352 89.253,68.603 88.880,68.909 88.541 C 69.216 88.202,69.364 87.759,69.238 87.555 C 68.901 87.010,68.013 87.103,67.781 87.707 M64.516 92.241 C 64.516 92.531,64.206 92.764,63.819 92.764 C 63.254 92.764,63.121 92.996,63.121 93.984 C 63.121 94.837,62.963 95.205,62.598 95.205 C 62.269 95.205,62.075 95.537,62.075 96.101 C 62.075 97.293,63.585 97.193,63.756 95.990 C 63.817 95.558,63.998 95.205,64.157 95.205 C 64.538 95.205,65.911 92.868,65.911 92.221 C 65.911 91.944,65.597 91.718,65.214 91.718 C 64.826 91.718,64.516 91.950,64.516 92.241 M347.882 93.365 C 347.743 93.728,347.866 94.123,348.194 94.362 C 348.492 94.580,348.736 94.936,348.736 95.153 C 348.736 95.370,349.050 95.744,349.433 95.983 C 349.817 96.223,350.131 96.711,350.131 97.069 C 350.131 97.427,350.570 98.370,351.106 99.165 C 351.643 99.960,352.187 100.885,352.316 101.221 C 352.445 101.556,352.874 101.831,353.271 101.831 C 353.876 101.831,353.933 101.939,353.629 102.507 C 353.377 102.978,353.380 103.253,353.639 103.413 C 353.843 103.539,354.159 103.980,354.342 104.393 C 355.610 107.257,357.105 108.337,357.105 106.390 C 357.105 105.670,356.934 105.318,356.582 105.318 C 356.234 105.318,356.059 104.969,356.059 104.272 C 356.059 103.575,355.885 103.226,355.536 103.226 C 355.248 103.226,355.013 103.007,355.013 102.740 C 355.013 102.473,354.778 102.164,354.490 102.053 C 354.184 101.936,353.967 101.414,353.967 100.796 C 353.967 99.971,353.813 99.738,353.269 99.738 C 352.705 99.738,352.572 99.506,352.572 98.518 C 352.572 97.665,352.414 97.297,352.049 97.297 C 351.761 97.297,351.526 97.062,351.526 96.774 C 351.526 96.486,351.290 96.251,351.003 96.251 C 350.654 96.251,350.480 95.902,350.480 95.205 C 350.480 94.547,350.301 94.159,349.997 94.159 C 349.732 94.159,349.433 93.845,349.332 93.461 C 349.109 92.606,348.197 92.545,347.882 93.365 M61.029 97.995 C 61.029 98.382,60.796 98.692,60.506 98.692 C 60.180 98.692,59.983 99.022,59.983 99.564 C 59.983 100.864,61.090 100.676,61.860 99.245 C 62.213 98.590,62.396 97.884,62.268 97.676 C 61.874 97.038,61.029 97.256,61.029 97.995 M58.588 101.319 C 58.588 101.612,58.352 101.943,58.065 102.053 C 57.766 102.168,57.541 102.688,57.541 103.263 C 57.541 103.927,57.363 104.272,57.018 104.272 C 56.693 104.272,56.495 104.601,56.495 105.144 C 56.495 105.783,56.681 106.016,57.193 106.016 C 57.856 106.016,58.042 105.680,57.916 104.708 C 57.885 104.468,58.063 104.265,58.311 104.257 C 58.920 104.237,60.413 101.848,60.186 101.257 C 59.935 100.603,58.588 100.656,58.588 101.319 M55.323 107.236 C 55.212 107.524,54.882 107.759,54.588 107.759 C 54.227 107.759,54.054 108.099,54.054 108.806 C 54.054 109.503,53.880 109.852,53.531 109.852 C 53.166 109.852,53.008 110.220,53.008 111.072 C 53.008 111.925,52.850 112.293,52.485 112.293 C 52.141 112.293,51.962 112.637,51.962 113.298 C 51.962 114.011,51.758 114.357,51.264 114.486 C 50.756 114.619,50.567 114.962,50.567 115.748 C 50.567 116.474,50.396 116.827,50.044 116.827 C 49.678 116.827,49.520 117.195,49.520 118.047 C 49.520 118.900,49.363 119.268,48.997 119.268 C 48.620 119.268,48.474 119.655,48.474 120.663 C 48.474 121.799,48.597 122.058,49.134 122.058 C 49.793 122.058,50.218 121.420,50.218 120.435 C 50.218 120.149,50.453 119.680,50.741 119.392 C 51.029 119.104,51.264 118.576,51.264 118.217 C 51.264 117.859,51.401 117.481,51.568 117.378 C 51.734 117.275,52.301 116.284,52.827 115.177 C 53.353 114.070,53.924 112.929,54.095 112.642 C 54.267 112.354,54.485 111.922,54.579 111.683 C 55.013 110.586,55.162 110.282,55.970 108.850 C 56.444 108.011,56.747 107.187,56.643 107.019 C 56.342 106.532,55.542 106.664,55.323 107.236 M356.889 108.266 C 356.619 108.970,357.021 109.503,357.824 109.503 C 358.313 109.503,358.500 109.262,358.500 108.631 C 358.500 107.649,357.236 107.362,356.889 108.266 M358.176 110.503 C 357.774 111.256,358.001 111.595,358.907 111.595 C 359.357 111.595,359.547 111.337,359.547 110.724 C 359.547 109.685,358.688 109.547,358.176 110.503 M359.262 113.249 C 359.427 114.675,360.593 114.776,360.593 113.365 C 360.593 112.514,360.444 112.293,359.872 112.293 C 359.292 112.293,359.173 112.480,359.262 113.249 M360.489 114.606 C 360.000 115.094,360.260 116.198,360.903 116.367 C 361.387 116.493,361.548 116.829,361.513 117.642 C 361.474 118.538,361.612 118.765,362.249 118.856 C 362.917 118.951,363.034 118.808,363.034 117.897 C 363.034 117.199,362.860 116.827,362.533 116.827 C 362.223 116.827,361.990 116.396,361.923 115.696 C 361.818 114.618,361.056 114.038,360.489 114.606 M362.337 119.940 C 362.337 120.310,362.572 120.848,362.860 121.136 C 363.147 121.424,363.383 121.871,363.383 122.129 C 363.383 122.388,363.605 122.917,363.877 123.306 C 364.149 123.694,364.484 124.612,364.622 125.346 C 364.779 126.182,365.100 126.741,365.482 126.841 C 365.881 126.945,366.032 127.228,365.919 127.662 C 365.619 128.806,366.124 130.078,366.877 130.078 C 367.463 130.078,367.568 129.841,367.568 128.509 C 367.568 127.347,367.432 126.940,367.044 126.940 C 366.657 126.940,366.521 126.533,366.521 125.371 C 366.521 124.034,366.418 123.801,365.824 123.801 C 365.259 123.801,365.126 123.569,365.126 122.581 C 365.126 121.728,364.969 121.360,364.603 121.360 C 364.255 121.360,364.080 121.011,364.080 120.314 C 364.080 119.430,363.945 119.268,363.208 119.268 C 362.580 119.268,362.337 119.455,362.337 119.940 M47.428 123.801 C 47.428 124.822,47.572 125.196,47.962 125.196 C 48.664 125.196,49.180 123.801,48.770 123.017 C 48.167 121.866,47.428 122.298,47.428 123.801 M46.033 126.940 C 46.033 127.743,46.190 127.986,46.710 127.986 C 47.563 127.986,47.885 127.481,47.601 126.588 C 47.235 125.432,46.033 125.702,46.033 126.940 M44.987 129.555 C 44.987 130.872,46.086 131.352,46.519 130.224 C 46.987 129.006,46.752 128.335,45.859 128.335 C 45.095 128.335,44.987 128.486,44.987 129.555 M367.039 130.784 C 366.602 131.492,367.244 133.217,367.944 133.217 C 368.493 133.217,368.614 132.965,368.614 131.822 C 368.614 130.432,367.650 129.796,367.039 130.784 M43.941 132.694 C 43.941 133.546,43.783 133.915,43.418 133.915 C 43.021 133.915,42.895 134.344,42.895 135.684 C 42.895 138.051,43.933 138.037,44.403 135.662 C 44.572 134.805,44.923 133.801,45.181 133.432 C 45.725 132.655,45.285 131.473,44.452 131.473 C 44.100 131.473,43.941 131.855,43.941 132.694 M368.183 134.538 C 367.949 135.435,368.501 136.704,369.126 136.704 C 369.517 136.704,369.660 136.330,369.660 135.310 C 369.660 133.812,368.528 133.221,368.183 134.538 M369.437 137.926 C 369.078 138.862,369.622 140.192,370.364 140.192 C 370.938 140.192,371.055 139.955,371.055 138.797 C 371.055 137.333,369.902 136.713,369.437 137.926 M41.500 139.830 C 41.500 141.347,42.324 142.136,42.933 141.202 C 43.537 140.275,43.141 138.633,42.284 138.511 C 41.580 138.411,41.500 138.546,41.500 139.830 M370.483 141.415 C 370.083 142.456,370.691 144.377,371.419 144.377 C 372.005 144.377,372.101 144.131,372.101 142.633 C 372.101 140.848,371.014 140.030,370.483 141.415 M40.453 143.829 C 40.453 145.303,40.577 145.772,40.964 145.772 C 42.369 145.772,42.629 142.196,41.238 141.998 C 40.505 141.894,40.453 142.015,40.453 143.829 M371.522 145.966 C 371.200 146.805,371.882 148.718,372.549 148.846 C 373.051 148.943,373.147 148.675,373.147 147.192 C 373.147 145.373,372.064 144.555,371.522 145.966 M39.407 148.238 C 39.407 149.707,39.507 149.988,39.992 149.895 C 41.270 149.649,41.352 146.469,40.081 146.469 C 39.504 146.469,39.407 146.722,39.407 148.238 M372.799 151.323 C 372.799 153.027,373.081 153.793,373.708 153.793 C 374.064 153.793,374.194 153.281,374.194 151.874 C 374.194 150.189,374.109 149.956,373.496 149.956 C 372.917 149.956,372.799 150.189,372.799 151.323 M38.257 151.223 C 38.122 151.358,38.030 152.736,38.053 154.287 C 38.075 155.837,38.165 156.831,38.253 156.495 C 38.340 156.160,38.633 155.885,38.903 155.885 C 39.941 155.885,40.074 151.276,39.041 151.081 C 38.744 151.025,38.391 151.089,38.257 151.223 M374.077 155.769 C 373.323 156.523,374.027 160.070,374.932 160.070 C 375.508 160.070,375.588 159.790,375.588 157.803 C 375.588 155.587,375.022 154.824,374.077 155.769 M36.966 160.220 C 36.966 162.261,37.040 162.511,37.648 162.511 C 39.026 162.511,39.125 158.235,37.751 158.040 C 37.005 157.934,36.966 158.043,36.966 160.220 M375.004 163.069 C 374.580 164.174,375.364 168.251,376.024 168.375 C 376.567 168.478,376.635 168.160,376.635 165.501 C 376.635 162.516,375.732 161.170,375.004 163.069 M35.920 167.929 C 35.920 171.075,35.955 171.235,36.576 170.903 C 37.937 170.174,37.954 164.603,36.594 164.603 C 35.975 164.603,35.920 164.874,35.920 167.929 M376.468 172.961 C 376.253 173.309,376.021 201.297,376.228 201.918 C 376.292 202.110,376.645 202.267,377.012 202.267 C 377.661 202.267,377.681 201.819,377.681 187.446 C 377.681 172.510,377.569 171.179,376.468 172.961 M34.874 186.225 C 34.874 198.547,34.886 198.779,35.571 198.779 C 36.430 198.779,36.323 200.321,36.428 186.399 C 36.516 174.660,36.432 173.670,35.354 173.670 C 34.955 173.670,34.874 175.794,34.874 186.225 M35.920 205.729 C 35.920 209.350,36.234 210.020,37.320 208.713 C 38.015 207.875,37.348 202.486,36.530 202.331 C 35.982 202.227,35.920 202.571,35.920 205.729 M375.368 205.226 C 374.707 206.949,375.052 211.158,375.863 211.273 C 376.652 211.385,376.660 211.346,376.561 208.162 C 376.464 205.044,375.936 203.746,375.368 205.226 M36.966 213.799 C 36.966 215.795,37.011 215.910,37.751 215.805 C 39.113 215.611,39.015 211.683,37.648 211.683 C 37.046 211.683,36.966 211.931,36.966 213.799 M374.002 214.617 C 373.711 216.168,374.087 217.334,374.834 217.192 C 375.788 217.011,375.875 213.426,374.925 213.426 C 374.405 213.426,374.168 213.732,374.002 214.617 M38.040 219.300 C 38.016 221.232,38.101 221.536,38.710 221.695 C 39.093 221.795,39.407 222.094,39.407 222.360 C 39.407 222.625,39.643 222.842,39.930 222.842 C 40.218 222.842,40.453 223.078,40.453 223.365 C 40.453 223.653,40.689 223.888,40.976 223.888 C 41.264 223.888,41.500 224.124,41.500 224.412 C 41.500 224.760,41.848 224.935,42.546 224.935 C 43.786 224.935,44.053 223.733,42.895 223.365 C 42.511 223.244,42.197 222.993,42.197 222.808 C 42.197 222.623,41.922 222.370,41.587 222.245 C 40.649 221.897,39.756 220.730,39.756 219.853 C 39.756 218.719,39.403 217.960,38.876 217.960 C 38.625 217.960,38.340 217.764,38.243 217.524 C 38.146 217.284,38.055 218.084,38.040 219.300 M372.947 220.207 C 372.698 221.197,372.978 221.796,373.691 221.796 C 374.033 221.796,374.194 221.406,374.194 220.575 C 374.194 219.131,373.284 218.862,372.947 220.207 M369.137 223.765 C 368.178 224.441,367.341 225.137,367.277 225.313 C 367.213 225.488,366.969 225.632,366.735 225.632 C 366.501 225.632,365.709 226.181,364.976 226.853 C 364.243 227.524,363.500 228.073,363.325 228.073 C 362.658 228.073,360.942 229.627,360.942 230.231 C 360.942 230.701,361.210 230.863,361.988 230.863 C 362.802 230.863,363.034 230.708,363.034 230.166 C 363.034 229.778,363.266 229.468,363.557 229.468 C 363.845 229.468,364.080 229.233,364.080 228.945 C 364.080 228.580,364.448 228.422,365.301 228.422 C 366.153 228.422,366.521 228.264,366.521 227.899 C 366.521 227.611,366.757 227.376,367.044 227.376 C 367.332 227.376,367.568 227.140,367.568 226.853 C 367.568 226.504,367.916 226.330,368.614 226.330 C 369.427 226.330,369.660 226.175,369.660 225.632 C 369.660 225.167,369.892 224.935,370.357 224.935 C 370.745 224.935,371.055 224.702,371.055 224.412 C 371.055 224.124,371.290 223.888,371.578 223.888 C 371.869 223.888,372.101 223.578,372.101 223.191 C 372.101 222.165,371.144 222.350,369.137 223.765 M43.941 225.458 C 43.941 226.000,44.138 226.330,44.464 226.330 C 44.752 226.330,44.987 226.565,44.987 226.853 C 44.987 227.201,45.336 227.376,46.033 227.376 C 47.393 227.376,47.517 226.130,46.207 225.632 C 45.728 225.450,45.336 225.140,45.336 224.943 C 45.336 224.747,45.022 224.586,44.638 224.586 C 44.127 224.586,43.941 224.818,43.941 225.458 M47.428 227.724 C 47.428 228.112,47.661 228.422,47.951 228.422 C 48.239 228.422,48.474 228.657,48.474 228.945 C 48.474 229.233,48.710 229.468,48.997 229.468 C 49.288 229.468,49.520 229.778,49.520 230.166 C 49.520 230.730,49.753 230.863,50.741 230.863 C 51.594 230.863,51.962 231.021,51.962 231.386 C 51.962 231.674,52.197 231.909,52.485 231.909 C 52.772 231.909,53.008 232.145,53.008 232.432 C 53.008 232.785,53.360 232.956,54.087 232.956 C 54.872 232.956,55.215 233.145,55.348 233.653 C 55.448 234.037,55.747 234.350,56.013 234.350 C 56.278 234.350,56.495 234.586,56.495 234.874 C 56.495 235.199,56.825 235.397,57.367 235.397 C 57.976 235.397,58.239 235.206,58.239 234.765 C 58.239 233.983,56.280 232.481,55.599 232.742 C 55.318 232.850,55.100 232.728,55.100 232.463 C 55.100 232.038,52.988 230.166,52.508 230.166 C 52.399 230.166,52.008 229.891,51.638 229.555 C 50.401 228.433,49.901 228.073,49.578 228.073 C 49.401 228.073,49.062 227.838,48.823 227.550 C 48.205 226.806,47.428 226.903,47.428 227.724 M359.198 230.863 C 359.198 231.055,358.993 231.212,358.743 231.212 C 358.493 231.212,357.688 231.761,356.955 232.432 C 356.223 233.104,355.479 233.653,355.304 233.653 C 354.637 233.653,352.921 235.207,352.921 235.811 C 352.921 236.281,353.189 236.443,353.967 236.443 C 354.664 236.443,355.013 236.269,355.013 235.920 C 355.013 235.632,355.248 235.397,355.536 235.397 C 355.824 235.397,356.059 235.161,356.059 234.874 C 356.059 234.521,356.412 234.350,357.138 234.350 C 357.924 234.350,358.267 234.161,358.399 233.653 C 358.500 233.269,358.799 232.956,359.064 232.956 C 359.330 232.956,359.547 232.720,359.547 232.432 C 359.547 232.145,359.782 231.909,360.070 231.909 C 360.360 231.909,360.593 231.599,360.593 231.212 C 360.593 230.747,360.360 230.514,359.895 230.514 C 359.512 230.514,359.198 230.671,359.198 230.863 M59.024 235.279 C 58.324 235.561,58.522 236.443,59.285 236.443 C 59.673 236.443,59.983 236.675,59.983 236.966 C 59.983 237.254,60.218 237.489,60.506 237.489 C 60.796 237.489,61.029 237.799,61.029 238.187 C 61.029 238.729,61.261 238.884,62.075 238.884 C 62.772 238.884,63.121 239.058,63.121 239.407 C 63.121 239.698,63.431 239.930,63.819 239.930 C 64.206 239.930,64.516 240.163,64.516 240.453 C 64.516 240.779,64.845 240.976,65.388 240.976 C 65.997 240.976,66.260 240.786,66.260 240.345 C 66.260 239.562,64.301 238.061,63.620 238.322 C 63.328 238.434,63.121 238.303,63.121 238.006 C 63.121 237.727,62.454 237.065,61.639 236.535 C 60.824 236.005,60.105 235.453,60.041 235.310 C 59.913 235.021,59.680 235.014,59.024 235.279 M351.177 236.387 C 351.177 236.548,350.785 236.858,350.305 237.077 C 349.800 237.307,349.433 237.766,349.433 238.168 C 349.433 238.626,349.264 238.797,348.936 238.671 C 348.379 238.458,344.551 240.770,344.551 241.321 C 344.551 241.515,344.237 241.674,343.854 241.674 C 343.470 241.674,343.156 241.835,343.156 242.031 C 343.156 242.228,342.764 242.538,342.284 242.720 C 340.974 243.218,341.099 244.464,342.459 244.464 C 343.156 244.464,343.505 244.289,343.505 243.941 C 343.505 243.653,343.730 243.418,344.004 243.418 C 344.279 243.418,344.604 243.104,344.725 242.720 C 344.880 242.232,345.253 242.023,345.969 242.023 C 346.646 242.023,346.992 241.846,346.992 241.500 C 346.992 241.212,347.228 240.976,347.515 240.976 C 347.803 240.976,348.038 240.741,348.038 240.453 C 348.038 240.166,348.257 239.930,348.524 239.930 C 348.791 239.930,349.100 239.695,349.211 239.407 C 349.328 239.101,349.851 238.884,350.469 238.884 C 351.293 238.884,351.526 238.731,351.526 238.187 C 351.526 237.799,351.758 237.489,352.049 237.489 C 352.339 237.489,352.572 237.179,352.572 236.792 C 352.572 236.327,352.339 236.094,351.874 236.094 C 351.491 236.094,351.177 236.226,351.177 236.387 M66.841 240.860 C 66.431 241.270,66.593 242.023,67.091 242.023 C 67.356 242.023,67.655 242.337,67.756 242.720 C 68.015 243.711,69.747 243.701,69.747 242.709 C 69.747 242.320,69.473 241.900,69.137 241.776 C 68.801 241.653,68.401 241.344,68.248 241.090 C 67.950 240.596,67.224 240.478,66.841 240.860 M70.328 243.301 C 69.904 243.726,70.088 244.464,70.619 244.464 C 70.907 244.464,71.142 244.699,71.142 244.987 C 71.142 245.275,71.438 245.510,71.799 245.510 C 72.171 245.510,72.538 245.825,72.645 246.235 C 72.879 247.127,74.388 247.045,74.562 246.131 C 74.717 245.319,70.877 242.753,70.328 243.301 M339.233 244.753 C 338.047 245.474,337.895 246.905,339.004 246.905 C 339.441 246.905,339.807 246.625,339.916 246.207 C 340.020 245.810,340.392 245.510,340.781 245.510 C 341.242 245.510,341.426 245.313,341.347 244.904 C 341.191 244.097,340.405 244.041,339.233 244.753 M74.862 246.440 C 74.423 246.879,74.630 247.951,75.153 247.951 C 75.440 247.951,75.676 248.187,75.676 248.474 C 75.676 248.823,76.024 248.997,76.722 248.997 C 77.919 248.997,78.249 247.757,77.158 247.356 C 76.822 247.233,76.422 246.924,76.269 246.670 C 75.971 246.176,75.244 246.057,74.862 246.440 M336.530 246.905 C 336.530 247.097,336.319 247.254,336.060 247.254 C 335.802 247.254,335.229 247.568,334.786 247.951 C 334.344 248.335,333.849 248.649,333.687 248.649 C 333.524 248.649,333.391 248.884,333.391 249.172 C 333.391 249.459,333.108 249.695,332.762 249.695 C 332.416 249.695,331.533 250.244,330.800 250.915 C 330.067 251.587,329.315 252.136,329.129 252.136 C 328.512 252.136,326.765 253.570,326.765 254.078 C 326.765 254.400,327.136 254.577,327.812 254.577 C 328.509 254.577,328.858 254.403,328.858 254.054 C 328.858 253.766,329.093 253.531,329.381 253.531 C 329.669 253.531,329.904 253.296,329.904 253.008 C 329.904 252.643,330.272 252.485,331.125 252.485 C 331.977 252.485,332.345 252.327,332.345 251.962 C 332.345 251.674,332.581 251.439,332.868 251.439 C 333.159 251.439,333.391 251.129,333.391 250.741 C 333.391 250.199,333.624 250.044,334.438 250.044 C 335.135 250.044,335.484 249.869,335.484 249.520 C 335.484 249.230,335.794 248.997,336.181 248.997 C 336.569 248.997,336.879 248.765,336.879 248.474 C 336.879 248.187,337.114 247.951,337.402 247.951 C 337.693 247.951,337.925 247.641,337.925 247.254 C 337.925 246.789,337.693 246.556,337.228 246.556 C 336.844 246.556,336.530 246.713,336.530 246.905 M78.349 248.881 C 77.925 249.306,78.109 250.044,78.640 250.044 C 78.931 250.044,79.163 250.354,79.163 250.741 C 79.163 251.253,79.396 251.439,80.035 251.439 C 80.732 251.439,80.907 251.264,80.907 250.567 C 80.907 250.016,80.710 249.695,80.373 249.695 C 80.079 249.695,79.748 249.459,79.638 249.172 C 79.430 248.629,78.754 248.477,78.349 248.881 M81.604 251.787 C 81.604 252.175,81.837 252.485,82.127 252.485 C 82.415 252.485,82.650 252.720,82.650 253.008 C 82.650 253.296,82.886 253.531,83.173 253.531 C 83.461 253.531,83.697 253.766,83.697 254.054 C 83.697 254.403,84.045 254.577,84.743 254.577 C 85.557 254.577,85.789 254.422,85.789 253.880 C 85.789 253.496,85.656 253.182,85.494 253.182 C 85.331 253.182,84.836 252.868,84.394 252.485 C 83.952 252.101,83.378 251.787,83.120 251.787 C 82.862 251.787,82.650 251.630,82.650 251.439 C 82.650 251.247,82.415 251.090,82.127 251.090 C 81.837 251.090,81.604 251.400,81.604 251.787 M86.138 255.100 C 86.138 255.643,86.335 255.972,86.661 255.972 C 86.949 255.972,87.184 256.207,87.184 256.495 C 87.184 256.844,87.533 257.018,88.230 257.018 C 89.590 257.018,89.714 255.773,88.405 255.275 C 87.925 255.092,87.533 254.782,87.533 254.586 C 87.533 254.389,87.219 254.228,86.835 254.228 C 86.324 254.228,86.138 254.461,86.138 255.100 M325.022 254.926 C 325.022 255.118,324.876 255.275,324.697 255.275 C 324.097 255.275,321.913 256.839,321.898 257.280 C 321.890 257.520,321.595 257.716,321.244 257.716 C 320.421 257.716,320.140 258.009,320.375 258.622 C 320.627 259.277,321.883 259.249,321.883 258.588 C 321.883 258.222,322.251 258.065,323.104 258.065 C 323.956 258.065,324.324 257.907,324.324 257.541 C 324.324 257.254,324.560 257.018,324.847 257.018 C 325.135 257.018,325.371 256.783,325.371 256.495 C 325.371 256.207,325.606 255.972,325.894 255.972 C 326.184 255.972,326.417 255.662,326.417 255.275 C 326.417 254.810,326.184 254.577,325.719 254.577 C 325.336 254.577,325.022 254.734,325.022 254.926 M89.625 257.367 C 89.625 257.755,89.858 258.065,90.148 258.065 C 90.436 258.065,90.671 258.300,90.671 258.588 C 90.671 259.193,91.909 259.298,92.265 258.723 C 92.521 258.309,90.787 256.703,90.061 256.682 C 89.821 256.675,89.625 256.983,89.625 257.367 M91.718 263.817 C 91.718 267.105,91.735 267.178,92.502 267.069 C 93.852 266.877,93.681 260.833,92.319 260.570 C 91.783 260.467,91.718 260.822,91.718 263.817 M319.684 262.492 C 319.220 263.253,319.034 267.512,319.444 268.006 C 320.516 269.298,320.868 268.631,320.763 265.503 C 320.672 262.762,320.245 261.572,319.684 262.492 M92.764 274.305 C 92.764 277.566,92.782 277.640,93.548 277.531 C 94.950 277.332,94.845 270.968,93.440 270.968 C 92.818 270.968,92.764 271.235,92.764 274.305 M318.221 274.870 C 317.804 277.661,318.113 279.496,319.020 279.625 C 320.086 279.776,320.096 273.683,319.031 273.479 C 318.581 273.393,318.393 273.716,318.221 274.870 M94.159 285.092 C 94.159 288.452,94.213 288.753,94.819 288.753 C 95.924 288.753,96.053 287.233,95.345 282.563 C 94.915 279.729,94.159 281.341,94.159 285.092 M317.228 284.463 C 316.403 288.827,316.648 291.194,317.927 291.194 C 318.568 291.194,318.461 283.833,317.817 283.619 C 317.595 283.546,317.330 283.925,317.228 284.463 M95.205 295.379 C 95.205 298.971,95.249 299.215,95.896 299.215 C 96.982 299.215,97.292 294.450,96.364 292.031 C 95.694 290.286,95.205 291.701,95.205 295.379 M316.091 294.831 C 315.445 296.512,315.787 301.134,316.565 301.245 C 317.334 301.354,317.350 301.287,317.350 297.845 C 317.350 294.442,316.771 293.057,316.091 294.831 M96.328 306.249 C 96.425 310.462,96.607 311.038,97.639 310.386 C 98.662 309.740,97.985 302.005,96.905 302.005 C 96.269 302.005,96.235 302.250,96.328 306.249 M314.986 304.714 C 314.297 306.419,314.709 312.638,315.519 312.753 C 316.538 312.898,316.779 304.704,315.767 304.315 C 315.445 304.191,315.133 304.350,314.986 304.714 M97.297 316.204 C 97.297 320.604,97.332 320.837,97.995 320.837 C 98.382 320.837,98.692 321.069,98.692 321.360 C 98.692 321.822,103.788 321.883,142.459 321.883 C 181.130 321.883,186.225 321.944,186.225 322.406 C 186.225 322.697,186.535 322.929,186.922 322.929 C 187.387 322.929,187.620 323.162,187.620 323.627 C 187.620 324.014,187.852 324.324,188.143 324.324 C 188.431 324.324,188.666 324.560,188.666 324.847 C 188.666 325.135,188.901 325.371,189.189 325.371 C 189.477 325.371,189.712 325.606,189.712 325.894 C 189.712 326.242,190.061 326.417,190.759 326.417 C 192.383 326.417,192.071 325.418,189.887 323.627 C 188.834 322.764,187.972 321.940,187.971 321.796 C 187.970 321.652,187.664 321.534,187.292 321.534 C 186.919 321.534,186.518 321.378,186.399 321.186 C 186.258 320.956,171.638 320.837,143.675 320.837 C 113.374 320.837,100.923 320.726,100.320 320.451 C 99.543 320.097,99.455 319.806,99.240 316.877 C 98.896 312.166,98.753 311.571,97.970 311.571 C 97.339 311.571,97.297 311.860,97.297 316.204 M314.908 314.211 C 314.908 314.403,314.691 314.560,314.426 314.560 C 313.832 314.560,313.525 315.630,313.518 317.719 C 313.509 320.981,318.314 320.650,269.427 320.754 C 241.327 320.813,226.330 320.965,226.330 321.190 C 226.330 321.379,226.011 321.534,225.621 321.534 C 225.232 321.534,224.822 321.770,224.712 322.058 C 224.602 322.345,224.293 322.581,224.025 322.581 C 223.758 322.581,223.539 322.698,223.537 322.842 C 223.536 322.986,222.674 323.810,221.622 324.673 C 219.447 326.456,219.010 327.812,220.608 327.812 C 221.219 327.812,221.572 327.586,221.695 327.114 C 221.795 326.731,222.094 326.417,222.360 326.417 C 222.625 326.417,222.842 326.181,222.842 325.894 C 222.842 325.606,223.078 325.371,223.365 325.371 C 223.653 325.371,223.888 325.135,223.888 324.847 C 223.888 324.560,224.124 324.324,224.412 324.324 C 224.702 324.324,224.935 324.014,224.935 323.627 C 224.935 323.162,225.167 322.929,225.632 322.929 C 226.020 322.929,226.330 322.697,226.330 322.406 C 226.330 321.944,231.502 321.883,270.793 321.883 L 315.257 321.883 315.257 317.873 C 315.257 315.667,315.179 313.862,315.083 313.862 C 314.987 313.862,314.908 314.019,314.908 314.211 M192.236 327.027 C 192.309 327.363,192.556 327.598,192.784 327.550 C 193.013 327.502,193.200 327.777,193.200 328.160 C 193.200 328.548,193.432 328.858,193.723 328.858 C 194.010 328.858,194.246 329.093,194.246 329.381 C 194.246 329.669,194.481 329.904,194.769 329.904 C 195.057 329.904,195.292 330.139,195.292 330.427 C 195.292 330.793,195.660 330.950,196.513 330.950 C 197.501 330.950,197.733 331.083,197.733 331.648 C 197.733 332.035,197.966 332.345,198.256 332.345 C 198.544 332.345,198.779 332.581,198.779 332.868 C 198.779 333.318,199.903 333.391,206.800 333.391 C 213.698 333.391,214.821 333.318,214.821 332.868 C 214.821 332.581,215.057 332.345,215.344 332.345 C 215.635 332.345,215.867 332.035,215.867 331.648 C 215.867 331.254,216.100 330.950,216.402 330.950 C 216.695 330.950,217.026 330.715,217.136 330.427 C 217.247 330.139,217.556 329.904,217.823 329.904 C 218.090 329.904,218.309 329.669,218.309 329.381 C 218.309 329.093,218.544 328.858,218.832 328.858 C 219.122 328.858,219.355 328.548,219.355 328.160 C 219.355 327.348,218.477 327.218,218.183 327.986 C 218.072 328.274,217.663 328.509,217.273 328.509 C 216.884 328.509,216.565 328.637,216.565 328.793 C 216.565 331.245,202.807 332.017,198.082 329.830 C 196.885 329.276,193.401 326.999,193.258 326.678 C 193.011 326.124,192.106 326.432,192.236 327.027 " stroke="none" fill="#fdd900" fill-rule="evenodd"></path></g></svg>