<svg id="svg" version="1.1" xmlns="http://www.w3.org/2000/svg" xmlns:xlink="http://www.w3.org/1999/xlink" width="400" height="400" viewBox="0, 0, 400,400"><g id="svgg"><path id="path0" d="M178.800 0.400 C 178.800 0.644,176.933 0.800,174.000 0.800 C 170.000 0.800,169.200 0.900,169.200 1.400 C 169.200 1.894,168.485 2.000,165.163 2.000 C 161.462 2.000,161.108 2.067,160.916 2.800 C 160.729 3.515,160.370 3.600,157.541 3.600 C 155.096 3.600,154.322 3.737,154.145 4.200 C 153.973 4.647,153.261 4.800,151.357 4.800 C 149.450 4.800,148.800 4.940,148.800 5.352 C 148.800 5.742,148.080 5.956,146.346 6.081 C 144.667 6.203,143.738 6.470,143.402 6.929 C 143.065 7.390,142.331 7.600,141.056 7.600 C 139.673 7.600,139.200 7.753,139.200 8.200 C 139.200 8.655,138.707 8.800,137.163 8.800 C 135.462 8.800,135.091 8.932,134.916 9.600 C 134.747 10.248,134.370 10.400,132.941 10.400 C 131.740 10.400,131.101 10.592,130.945 11.000 C 130.803 11.370,130.195 11.600,129.357 11.600 C 128.267 11.600,128.000 11.757,128.000 12.400 C 128.000 13.093,127.733 13.200,126.000 13.200 C 124.489 13.200,124.000 13.347,124.000 13.800 C 124.000 14.253,123.511 14.400,122.000 14.400 C 120.560 14.400,120.000 14.556,120.000 14.955 C 120.000 15.274,119.402 15.623,118.600 15.774 C 117.762 15.931,117.200 16.270,117.200 16.618 C 117.200 17.016,116.758 17.200,115.800 17.200 C 114.822 17.200,114.400 17.381,114.400 17.800 C 114.400 18.204,113.996 18.400,113.163 18.400 C 112.262 18.400,111.868 18.617,111.716 19.200 C 111.559 19.801,111.170 20.000,110.153 20.000 C 109.217 20.000,108.800 20.185,108.800 20.600 C 108.800 20.997,108.403 21.200,107.627 21.200 C 106.805 21.200,106.378 21.440,106.200 22.000 C 106.022 22.560,105.595 22.800,104.773 22.800 C 103.997 22.800,103.600 23.003,103.600 23.400 C 103.600 23.819,103.178 24.000,102.200 24.000 C 101.222 24.000,100.800 24.181,100.800 24.600 C 100.800 24.930,100.513 25.200,100.163 25.200 C 99.812 25.200,99.431 25.560,99.316 26.000 C 99.170 26.558,98.770 26.800,97.996 26.800 C 97.385 26.800,96.792 27.044,96.677 27.343 C 96.563 27.642,95.913 27.997,95.234 28.133 C 94.503 28.279,94.000 28.628,94.000 28.990 C 94.000 29.333,93.650 29.600,93.200 29.600 C 92.756 29.600,92.400 29.867,92.400 30.200 C 92.400 30.582,92.016 30.800,91.346 30.800 C 90.335 30.800,88.400 32.390,88.400 33.221 C 88.400 33.429,87.770 33.600,87.000 33.600 C 86.022 33.600,85.600 33.781,85.600 34.200 C 85.600 34.530,85.330 34.800,85.000 34.800 C 84.667 34.800,84.400 35.156,84.400 35.600 C 84.400 36.224,84.133 36.400,83.187 36.400 C 82.479 36.400,81.879 36.649,81.745 37.000 C 81.618 37.330,81.247 37.600,80.920 37.600 C 80.593 37.600,80.231 37.960,80.116 38.400 C 80.001 38.840,79.658 39.200,79.353 39.200 C 79.049 39.200,78.800 39.470,78.800 39.800 C 78.800 40.152,78.428 40.405,77.900 40.413 C 76.950 40.426,74.800 42.069,74.800 42.781 C 74.800 43.011,74.440 43.200,74.000 43.200 C 73.556 43.200,73.200 43.467,73.200 43.800 C 73.200 44.130,72.930 44.400,72.600 44.400 C 72.267 44.400,72.000 44.756,72.000 45.200 C 72.000 45.796,71.733 46.000,70.956 46.000 C 69.865 46.000,68.019 47.440,68.007 48.300 C 68.003 48.575,67.640 48.800,67.200 48.800 C 66.756 48.800,66.400 49.067,66.400 49.400 C 66.400 49.730,66.130 50.000,65.800 50.000 C 65.470 50.000,65.200 50.258,65.200 50.573 C 65.200 50.888,64.840 51.260,64.400 51.400 C 63.960 51.540,63.600 51.912,63.600 52.227 C 63.600 52.542,63.330 52.800,63.000 52.800 C 62.670 52.800,62.400 53.049,62.400 53.353 C 62.400 53.658,62.040 54.001,61.600 54.116 C 61.160 54.231,60.800 54.612,60.800 54.963 C 60.800 55.313,60.530 55.600,60.200 55.600 C 59.870 55.600,59.600 55.870,59.600 56.200 C 59.600 56.530,59.330 56.800,59.000 56.800 C 58.667 56.800,58.400 57.156,58.400 57.600 C 58.400 58.133,58.133 58.400,57.600 58.400 C 57.156 58.400,56.800 58.667,56.800 59.000 C 56.800 59.330,56.530 59.600,56.200 59.600 C 55.870 59.600,55.600 59.849,55.600 60.153 C 55.600 60.458,55.240 60.801,54.800 60.916 C 54.360 61.031,54.000 61.412,54.000 61.763 C 54.000 62.113,53.730 62.400,53.400 62.400 C 53.070 62.400,52.800 62.670,52.800 63.000 C 52.800 63.330,52.542 63.600,52.227 63.600 C 51.912 63.600,51.540 63.960,51.400 64.400 C 51.260 64.840,50.888 65.200,50.573 65.200 C 50.258 65.200,50.000 65.470,50.000 65.800 C 50.000 66.130,49.730 66.400,49.400 66.400 C 49.067 66.400,48.800 66.756,48.800 67.200 C 48.800 67.640,48.600 68.000,48.356 68.000 C 47.742 68.000,46.015 69.690,46.007 70.300 C 46.003 70.575,45.744 70.800,45.432 70.800 C 45.119 70.800,44.745 71.340,44.600 72.000 C 44.455 72.660,44.081 73.200,43.768 73.200 C 43.456 73.200,43.200 73.560,43.200 74.000 C 43.200 74.440,43.011 74.800,42.781 74.800 C 42.069 74.800,40.426 76.950,40.413 77.900 C 40.405 78.428,40.152 78.800,39.800 78.800 C 39.470 78.800,39.200 79.049,39.200 79.353 C 39.200 79.658,38.840 80.001,38.400 80.116 C 37.960 80.231,37.600 80.593,37.600 80.920 C 37.600 81.247,37.330 81.618,37.000 81.745 C 36.649 81.879,36.400 82.479,36.400 83.187 C 36.400 84.133,36.224 84.400,35.600 84.400 C 35.156 84.400,34.800 84.667,34.800 85.000 C 34.800 85.330,34.530 85.600,34.200 85.600 C 33.867 85.600,33.600 85.956,33.600 86.400 C 33.600 86.844,33.333 87.200,33.000 87.200 C 32.666 87.200,32.400 87.556,32.400 88.004 C 32.400 88.446,32.040 89.116,31.600 89.493 C 31.156 89.873,30.800 90.673,30.800 91.289 C 30.800 92.010,30.589 92.400,30.200 92.400 C 29.867 92.400,29.600 92.756,29.600 93.200 C 29.600 93.650,29.333 94.000,28.990 94.000 C 28.628 94.000,28.279 94.503,28.133 95.234 C 27.997 95.913,27.642 96.563,27.343 96.677 C 27.044 96.792,26.800 97.406,26.800 98.043 C 26.800 98.835,26.599 99.200,26.163 99.200 C 25.812 99.200,25.431 99.560,25.316 100.000 C 25.201 100.440,24.858 100.800,24.553 100.800 C 24.188 100.800,24.000 101.275,24.000 102.200 C 24.000 103.178,23.819 103.600,23.400 103.600 C 23.005 103.600,22.800 103.995,22.800 104.753 C 22.800 105.570,22.567 105.968,22.000 106.116 C 21.417 106.268,21.200 106.662,21.200 107.563 C 21.200 108.396,21.004 108.800,20.600 108.800 C 20.185 108.800,20.000 109.217,20.000 110.153 C 20.000 111.170,19.801 111.559,19.200 111.716 C 18.617 111.868,18.400 112.262,18.400 113.163 C 18.400 113.996,18.204 114.400,17.800 114.400 C 17.381 114.400,17.200 114.822,17.200 115.800 C 17.200 116.730,17.013 117.200,16.643 117.200 C 16.031 117.200,15.600 118.041,15.600 119.233 C 15.600 119.655,15.330 120.000,15.000 120.000 C 14.547 120.000,14.400 120.489,14.400 122.000 C 14.400 123.511,14.253 124.000,13.800 124.000 C 13.381 124.000,13.200 124.422,13.200 125.400 C 13.200 126.330,13.013 126.800,12.643 126.800 C 11.945 126.800,11.600 127.671,11.600 129.433 C 11.600 130.381,11.416 130.800,11.000 130.800 C 10.549 130.800,10.400 131.284,10.400 132.753 C 10.400 134.370,10.262 134.743,9.600 134.916 C 8.932 135.091,8.800 135.462,8.800 137.163 C 8.800 138.707,8.655 139.200,8.200 139.200 C 7.747 139.200,7.600 139.689,7.600 141.200 C 7.600 142.636,7.444 143.200,7.047 143.200 C 6.359 143.200,6.013 144.431,6.005 146.900 C 6.001 148.320,5.848 148.800,5.400 148.800 C 4.928 148.800,4.800 149.356,4.800 151.400 C 4.800 153.444,4.672 154.000,4.200 154.000 C 3.725 154.000,3.600 154.573,3.600 156.753 C 3.600 159.170,3.502 159.532,2.800 159.716 C 2.067 159.908,2.000 160.262,2.000 163.963 C 2.000 167.285,1.894 168.000,1.400 168.000 C 0.900 168.000,0.800 168.800,0.800 172.800 C 0.800 175.733,0.644 177.600,0.400 177.600 C 0.138 177.600,0.000 185.333,0.000 200.000 C 0.000 214.667,0.138 222.400,0.400 222.400 C 0.644 222.400,0.800 224.267,0.800 227.200 C 0.800 231.200,0.900 232.000,1.400 232.000 C 1.895 232.000,2.000 232.733,2.000 236.200 C 2.000 240.133,2.051 240.400,2.800 240.400 C 3.524 240.400,3.600 240.667,3.600 243.200 C 3.600 245.422,3.724 246.000,4.200 246.000 C 4.672 246.000,4.800 246.556,4.800 248.600 C 4.800 250.644,4.928 251.200,5.400 251.200 C 5.860 251.200,6.000 251.707,6.000 253.367 C 6.000 255.902,6.273 256.800,7.043 256.800 C 7.461 256.800,7.600 257.438,7.600 259.357 C 7.600 261.261,7.753 261.973,8.200 262.145 C 8.556 262.281,8.800 262.883,8.800 263.625 C 8.800 264.538,9.015 264.931,9.600 265.084 C 10.262 265.257,10.400 265.630,10.400 267.247 C 10.400 268.716,10.549 269.200,11.000 269.200 C 11.446 269.200,11.600 269.671,11.600 271.037 C 11.600 272.538,11.746 272.913,12.400 273.084 C 13.062 273.257,13.200 273.630,13.200 275.247 C 13.200 276.716,13.349 277.200,13.800 277.200 C 14.219 277.200,14.400 277.622,14.400 278.600 C 14.400 279.578,14.581 280.000,15.000 280.000 C 15.404 280.000,15.600 280.404,15.600 281.237 C 15.600 282.138,15.817 282.532,16.400 282.684 C 17.001 282.841,17.200 283.230,17.200 284.247 C 17.200 285.183,17.385 285.600,17.800 285.600 C 18.219 285.600,18.400 286.022,18.400 287.000 C 18.400 288.133,18.552 288.400,19.200 288.400 C 19.848 288.400,20.000 288.667,20.000 289.800 C 20.000 290.778,20.181 291.200,20.600 291.200 C 21.004 291.200,21.200 291.604,21.200 292.437 C 21.200 293.338,21.417 293.732,22.000 293.884 C 22.567 294.032,22.800 294.430,22.800 295.247 C 22.800 296.005,23.005 296.400,23.400 296.400 C 23.819 296.400,24.000 296.822,24.000 297.800 C 24.000 298.778,24.181 299.200,24.600 299.200 C 24.933 299.200,25.200 299.556,25.200 300.000 C 25.200 300.440,25.560 301.160,26.000 301.600 C 26.440 302.040,26.800 302.586,26.800 302.813 C 26.800 303.039,27.070 303.329,27.400 303.455 C 27.742 303.587,28.000 304.183,28.000 304.843 C 28.000 305.733,28.184 306.000,28.800 306.000 C 29.424 306.000,29.600 306.267,29.600 307.213 C 29.600 307.921,29.849 308.521,30.200 308.655 C 30.530 308.782,30.800 309.226,30.800 309.643 C 30.800 310.059,31.075 310.400,31.410 310.400 C 31.768 310.400,32.119 310.896,32.260 311.600 C 32.392 312.260,32.748 312.800,33.050 312.800 C 33.352 312.800,33.600 313.160,33.600 313.600 C 33.600 314.040,33.856 314.400,34.168 314.400 C 34.481 314.400,34.852 314.925,34.993 315.567 C 35.134 316.208,35.508 316.833,35.824 316.954 C 36.141 317.076,36.400 317.451,36.400 317.787 C 36.400 318.124,36.670 318.400,37.000 318.400 C 37.330 318.400,37.600 318.687,37.600 319.037 C 37.600 319.388,37.960 319.769,38.400 319.884 C 38.967 320.032,39.200 320.430,39.200 321.247 C 39.200 322.005,39.405 322.400,39.800 322.400 C 40.133 322.400,40.400 322.756,40.400 323.200 C 40.400 323.640,40.651 324.000,40.957 324.000 C 41.264 324.000,41.618 324.270,41.745 324.600 C 41.871 324.930,42.251 325.200,42.587 325.200 C 42.989 325.200,43.200 325.579,43.200 326.303 C 43.200 327.052,43.649 327.818,44.600 328.690 C 45.370 329.397,46.000 330.161,46.000 330.388 C 46.000 330.614,46.270 330.800,46.600 330.800 C 46.930 330.800,47.200 331.070,47.200 331.400 C 47.200 331.733,47.556 332.000,48.000 332.000 C 48.533 332.000,48.800 332.267,48.800 332.800 C 48.800 333.244,49.067 333.600,49.400 333.600 C 49.730 333.600,50.000 333.870,50.000 334.200 C 50.000 334.530,50.270 334.800,50.600 334.800 C 50.930 334.800,51.200 335.087,51.200 335.437 C 51.200 335.788,51.560 336.169,52.000 336.284 C 52.440 336.399,52.800 336.742,52.800 337.047 C 52.800 337.351,53.070 337.600,53.400 337.600 C 53.730 337.600,54.000 337.887,54.000 338.237 C 54.000 338.588,54.360 338.969,54.800 339.084 C 55.367 339.232,55.600 339.630,55.600 340.447 C 55.600 341.205,55.805 341.600,56.200 341.600 C 56.530 341.600,56.800 341.887,56.800 342.237 C 56.800 342.588,57.160 342.969,57.600 343.084 C 58.040 343.199,58.400 343.542,58.400 343.847 C 58.400 344.195,58.845 344.400,59.600 344.400 C 60.431 344.400,60.800 344.596,60.800 345.037 C 60.800 345.388,61.160 345.769,61.600 345.884 C 62.040 345.999,62.400 346.342,62.400 346.647 C 62.400 346.951,62.670 347.200,63.000 347.200 C 63.330 347.200,63.600 347.487,63.600 347.837 C 63.600 348.188,63.960 348.569,64.400 348.684 C 64.840 348.799,65.200 349.142,65.200 349.447 C 65.200 349.751,65.470 350.000,65.800 350.000 C 66.130 350.000,66.400 350.270,66.400 350.600 C 66.400 350.933,66.756 351.200,67.200 351.200 C 67.733 351.200,68.000 351.467,68.000 352.000 C 68.000 352.444,68.267 352.800,68.600 352.800 C 68.930 352.800,69.200 353.070,69.200 353.400 C 69.200 353.730,69.386 354.000,69.612 354.000 C 69.839 354.000,70.603 354.630,71.310 355.400 C 72.182 356.351,72.948 356.800,73.697 356.800 C 74.421 356.800,74.800 357.011,74.800 357.413 C 74.800 357.749,75.070 358.129,75.400 358.255 C 75.730 358.382,76.000 358.736,76.000 359.043 C 76.000 359.349,76.360 359.600,76.800 359.600 C 77.244 359.600,77.600 359.867,77.600 360.200 C 77.600 360.600,78.000 360.800,78.800 360.800 C 79.631 360.800,80.000 360.996,80.000 361.437 C 80.000 361.788,80.360 362.169,80.800 362.284 C 81.240 362.399,81.600 362.742,81.600 363.047 C 81.600 363.351,81.876 363.600,82.213 363.600 C 82.549 363.600,82.924 363.859,83.046 364.176 C 83.167 364.492,83.792 364.866,84.433 365.007 C 85.075 365.148,85.600 365.519,85.600 365.832 C 85.600 366.144,85.960 366.400,86.400 366.400 C 86.840 366.400,87.200 366.648,87.200 366.950 C 87.200 367.252,87.740 367.608,88.400 367.740 C 89.104 367.881,89.600 368.232,89.600 368.590 C 89.600 368.926,89.941 369.200,90.357 369.200 C 90.774 369.200,91.218 369.470,91.345 369.800 C 91.479 370.151,92.079 370.400,92.787 370.400 C 93.733 370.400,94.000 370.576,94.000 371.200 C 94.000 371.816,94.267 372.000,95.157 372.000 C 95.817 372.000,96.413 372.258,96.545 372.600 C 96.671 372.930,97.051 373.200,97.387 373.200 C 97.724 373.200,98.000 373.451,98.000 373.757 C 98.000 374.369,98.841 374.800,100.033 374.800 C 100.455 374.800,100.800 375.070,100.800 375.400 C 100.800 375.819,101.222 376.000,102.200 376.000 C 103.178 376.000,103.600 376.181,103.600 376.600 C 103.600 376.930,103.827 377.200,104.104 377.200 C 104.381 377.200,104.832 377.560,105.107 378.000 C 105.471 378.583,106.040 378.800,107.203 378.800 C 108.356 378.800,108.800 378.967,108.800 379.400 C 108.800 379.819,109.222 380.000,110.200 380.000 C 111.333 380.000,111.600 380.152,111.600 380.800 C 111.600 381.448,111.867 381.600,113.000 381.600 C 113.978 381.600,114.400 381.781,114.400 382.200 C 114.400 382.615,114.817 382.800,115.753 382.800 C 116.770 382.800,117.159 382.999,117.316 383.600 C 117.468 384.183,117.862 384.400,118.763 384.400 C 119.596 384.400,120.000 384.596,120.000 385.000 C 120.000 385.419,120.422 385.600,121.400 385.600 C 122.378 385.600,122.800 385.781,122.800 386.200 C 122.800 386.653,123.289 386.800,124.800 386.800 C 126.533 386.800,126.800 386.907,126.800 387.600 C 126.800 388.293,127.067 388.400,128.800 388.400 C 130.311 388.400,130.800 388.547,130.800 389.000 C 130.800 389.419,131.222 389.600,132.200 389.600 C 133.125 389.600,133.600 389.788,133.600 390.153 C 133.600 390.754,134.784 391.186,136.457 391.195 C 137.039 391.198,137.618 391.470,137.745 391.800 C 137.916 392.247,138.629 392.400,140.541 392.400 C 142.770 392.400,143.134 392.505,143.316 393.200 C 143.486 393.850,143.862 394.000,145.314 394.000 C 146.415 394.000,147.293 394.230,147.600 394.600 C 147.939 395.009,148.847 395.200,150.449 395.200 C 152.272 395.200,152.800 395.335,152.800 395.800 C 152.800 396.276,153.378 396.400,155.600 396.400 C 158.133 396.400,158.400 396.476,158.400 397.200 C 158.400 397.947,158.667 398.000,162.413 398.000 C 165.610 398.000,166.472 398.122,166.655 398.600 C 166.841 399.085,167.761 399.200,171.443 399.200 C 174.214 399.200,176.000 399.357,176.000 399.600 C 176.000 399.862,184.267 400.000,200.000 400.000 C 215.733 400.000,224.000 399.862,224.000 399.600 C 224.000 399.357,225.786 399.200,228.557 399.200 C 232.239 399.200,233.159 399.085,233.345 398.600 C 233.528 398.122,234.390 398.000,237.587 398.000 C 241.333 398.000,241.600 397.947,241.600 397.200 C 241.600 396.476,241.867 396.400,244.400 396.400 C 246.622 396.400,247.200 396.276,247.200 395.800 C 247.200 395.328,247.757 395.200,249.813 395.200 C 251.766 395.200,252.483 395.049,252.655 394.600 C 252.808 394.202,253.443 393.998,254.543 393.995 C 256.781 393.987,258.000 393.620,258.000 392.953 C 258.000 392.549,258.594 392.400,260.200 392.400 C 261.889 392.400,262.400 392.261,262.400 391.800 C 262.400 391.354,262.871 391.200,264.237 391.200 C 265.738 391.200,266.113 391.054,266.284 390.400 C 266.441 389.799,266.830 389.600,267.847 389.600 C 268.783 389.600,269.200 389.415,269.200 389.000 C 269.200 388.547,269.689 388.400,271.200 388.400 C 272.933 388.400,273.200 388.293,273.200 387.600 C 273.200 386.907,273.467 386.800,275.200 386.800 C 276.711 386.800,277.200 386.653,277.200 386.200 C 277.200 385.781,277.622 385.600,278.600 385.600 C 279.578 385.600,280.000 385.419,280.000 385.000 C 280.000 384.581,280.422 384.400,281.400 384.400 C 282.533 384.400,282.800 384.248,282.800 383.600 C 282.800 382.952,283.067 382.800,284.200 382.800 C 285.178 382.800,285.600 382.619,285.600 382.200 C 285.600 381.784,286.019 381.600,286.967 381.600 C 288.729 381.600,289.600 381.255,289.600 380.557 C 289.600 380.203,290.043 380.000,290.813 380.000 C 291.521 380.000,292.121 379.751,292.255 379.400 C 292.389 379.052,292.987 378.800,293.680 378.800 C 294.538 378.800,294.934 378.575,295.084 378.000 C 295.230 377.442,295.630 377.200,296.404 377.200 C 297.022 377.200,297.616 376.934,297.745 376.600 C 297.871 376.270,298.251 376.000,298.587 376.000 C 298.924 376.000,299.200 375.730,299.200 375.400 C 299.200 375.070,299.545 374.800,299.967 374.800 C 301.159 374.800,302.000 374.369,302.000 373.757 C 302.000 373.403,302.443 373.200,303.213 373.200 C 303.921 373.200,304.521 372.951,304.655 372.600 C 304.782 372.270,305.136 372.000,305.443 372.000 C 305.749 372.000,306.000 371.640,306.000 371.200 C 306.000 370.552,306.267 370.400,307.400 370.400 C 308.378 370.400,308.800 370.219,308.800 369.800 C 308.800 369.467,309.156 369.200,309.600 369.200 C 310.040 369.200,310.400 368.944,310.400 368.632 C 310.400 368.319,310.925 367.948,311.567 367.807 C 312.208 367.666,312.833 367.292,312.954 366.976 C 313.076 366.659,313.451 366.400,313.787 366.400 C 314.124 366.400,314.400 366.130,314.400 365.800 C 314.400 365.427,314.777 365.200,315.397 365.200 C 315.960 365.200,316.610 364.852,316.893 364.400 C 317.168 363.960,317.619 363.600,317.896 363.600 C 318.173 363.600,318.400 363.330,318.400 363.000 C 318.400 362.667,318.756 362.400,319.200 362.400 C 319.733 362.400,320.000 362.133,320.000 361.600 C 320.000 360.978,320.267 360.800,321.200 360.800 C 322.000 360.800,322.400 360.600,322.400 360.200 C 322.400 359.867,322.756 359.600,323.200 359.600 C 323.640 359.600,324.000 359.349,324.000 359.043 C 324.000 358.736,324.270 358.382,324.600 358.255 C 324.930 358.129,325.200 357.749,325.200 357.413 C 325.200 356.979,325.609 356.800,326.600 356.800 C 327.525 356.800,328.000 356.612,328.000 356.247 C 328.000 355.942,328.360 355.599,328.800 355.484 C 329.240 355.369,329.600 354.988,329.600 354.637 C 329.600 354.287,329.870 354.000,330.200 354.000 C 330.530 354.000,330.800 353.730,330.800 353.400 C 330.800 353.070,331.070 352.800,331.400 352.800 C 331.733 352.800,332.000 352.444,332.000 352.000 C 332.000 351.467,332.267 351.200,332.800 351.200 C 333.244 351.200,333.600 350.933,333.600 350.600 C 333.600 350.270,333.870 350.000,334.200 350.000 C 334.530 350.000,334.800 349.751,334.800 349.447 C 334.800 349.142,335.160 348.799,335.600 348.684 C 336.040 348.569,336.400 348.188,336.400 347.837 C 336.400 347.487,336.670 347.200,337.000 347.200 C 337.330 347.200,337.600 346.930,337.600 346.600 C 337.600 346.267,337.956 346.000,338.400 346.000 C 338.840 346.000,339.560 345.640,340.000 345.200 C 340.440 344.760,340.980 344.400,341.200 344.400 C 341.420 344.400,341.600 344.151,341.600 343.847 C 341.600 343.542,341.960 343.199,342.400 343.084 C 342.840 342.969,343.200 342.588,343.200 342.237 C 343.200 341.887,343.470 341.600,343.800 341.600 C 344.130 341.600,344.400 341.420,344.400 341.200 C 344.400 340.980,344.760 340.440,345.200 340.000 C 345.640 339.560,346.000 338.840,346.000 338.400 C 346.000 337.956,346.267 337.600,346.600 337.600 C 346.930 337.600,347.200 337.351,347.200 337.047 C 347.200 336.742,347.560 336.399,348.000 336.284 C 348.440 336.169,348.800 335.788,348.800 335.437 C 348.800 335.087,349.070 334.800,349.400 334.800 C 349.730 334.800,350.000 334.530,350.000 334.200 C 350.000 333.870,350.270 333.600,350.600 333.600 C 350.933 333.600,351.200 333.244,351.200 332.800 C 351.200 332.267,351.467 332.000,352.000 332.000 C 352.444 332.000,352.800 331.733,352.800 331.400 C 352.800 331.070,353.070 330.800,353.400 330.800 C 353.730 330.800,354.000 330.542,354.000 330.227 C 354.000 329.912,354.360 329.540,354.800 329.400 C 355.240 329.260,355.600 328.888,355.600 328.573 C 355.600 328.258,355.870 328.000,356.200 328.000 C 356.619 328.000,356.800 327.578,356.800 326.600 C 356.800 325.609,356.979 325.200,357.413 325.200 C 357.749 325.200,358.129 324.930,358.255 324.600 C 358.382 324.270,358.736 324.000,359.043 324.000 C 359.349 324.000,359.600 323.640,359.600 323.200 C 359.600 322.756,359.867 322.400,360.200 322.400 C 360.600 322.400,360.800 322.000,360.800 321.200 C 360.800 320.267,360.978 320.000,361.600 320.000 C 362.133 320.000,362.400 319.733,362.400 319.200 C 362.400 318.756,362.667 318.400,363.000 318.400 C 363.330 318.400,363.600 318.173,363.600 317.896 C 363.600 317.619,363.960 317.168,364.400 316.893 C 364.852 316.610,365.200 315.960,365.200 315.397 C 365.200 314.777,365.427 314.400,365.800 314.400 C 366.133 314.400,366.400 314.044,366.400 313.600 C 366.400 313.160,366.656 312.800,366.968 312.800 C 367.281 312.800,367.655 312.260,367.800 311.600 C 367.945 310.940,368.319 310.400,368.632 310.400 C 368.944 310.400,369.200 310.040,369.200 309.600 C 369.200 309.156,369.467 308.800,369.800 308.800 C 370.219 308.800,370.400 308.378,370.400 307.400 C 370.400 306.267,370.552 306.000,371.200 306.000 C 371.640 306.000,372.000 305.749,372.000 305.443 C 372.000 305.136,372.270 304.782,372.600 304.655 C 372.951 304.521,373.200 303.921,373.200 303.213 C 373.200 302.443,373.403 302.000,373.757 302.000 C 374.369 302.000,374.800 301.159,374.800 299.967 C 374.800 299.545,375.070 299.200,375.400 299.200 C 375.730 299.200,376.000 298.924,376.000 298.587 C 376.000 298.251,376.270 297.871,376.600 297.745 C 376.930 297.618,377.200 297.037,377.200 296.453 C 377.200 295.826,377.527 295.188,378.000 294.893 C 378.440 294.618,378.800 293.964,378.800 293.439 C 378.800 292.915,379.070 292.382,379.400 292.255 C 379.751 292.121,380.000 291.521,380.000 290.813 C 380.000 290.043,380.203 289.600,380.557 289.600 C 381.255 289.600,381.600 288.729,381.600 286.967 C 381.600 286.019,381.784 285.600,382.200 285.600 C 382.619 285.600,382.800 285.178,382.800 284.200 C 382.800 283.067,382.952 282.800,383.600 282.800 C 384.248 282.800,384.400 282.533,384.400 281.400 C 384.400 280.422,384.581 280.000,385.000 280.000 C 385.419 280.000,385.600 279.578,385.600 278.600 C 385.600 277.622,385.781 277.200,386.200 277.200 C 386.653 277.200,386.800 276.711,386.800 275.200 C 386.800 273.467,386.907 273.200,387.600 273.200 C 388.293 273.200,388.400 272.933,388.400 271.200 C 388.400 269.689,388.547 269.200,389.000 269.200 C 389.419 269.200,389.600 268.778,389.600 267.800 C 389.600 266.875,389.788 266.400,390.153 266.400 C 390.754 266.400,391.186 265.216,391.195 263.543 C 391.198 262.961,391.470 262.382,391.800 262.255 C 392.223 262.093,392.400 261.432,392.400 260.013 C 392.400 258.572,392.556 258.000,392.950 258.000 C 393.537 258.000,394.000 256.326,394.000 254.199 C 394.000 253.483,394.270 252.674,394.600 252.400 C 395.009 252.061,395.200 251.153,395.200 249.551 C 395.200 247.728,395.335 247.200,395.800 247.200 C 396.276 247.200,396.400 246.622,396.400 244.400 C 396.400 241.867,396.476 241.600,397.200 241.600 C 397.947 241.600,398.000 241.333,398.000 237.587 C 398.000 234.390,398.122 233.528,398.600 233.345 C 399.085 233.159,399.200 232.239,399.200 228.557 C 399.200 225.786,399.357 224.000,399.600 224.000 C 399.862 224.000,400.000 215.733,400.000 200.000 C 400.000 184.267,399.862 176.000,399.600 176.000 C 399.360 176.000,399.200 174.400,399.200 172.000 C 399.200 168.711,399.093 168.000,398.600 168.000 C 398.101 168.000,398.000 167.218,398.000 163.363 C 398.000 159.062,397.942 158.710,397.200 158.516 C 396.505 158.334,396.400 157.970,396.400 155.741 C 396.400 153.829,396.247 153.116,395.800 152.945 C 395.380 152.783,395.200 152.128,395.200 150.757 C 395.200 149.284,395.052 148.800,394.600 148.800 C 394.127 148.800,394.000 148.240,394.000 146.163 C 394.000 143.862,393.898 143.498,393.200 143.316 C 392.507 143.135,392.400 142.770,392.400 140.596 C 392.400 138.734,392.245 138.026,391.800 137.855 C 391.444 137.719,391.200 137.117,391.200 136.375 C 391.200 135.462,390.985 135.069,390.400 134.916 C 389.738 134.743,389.600 134.370,389.600 132.753 C 389.600 131.284,389.451 130.800,389.000 130.800 C 388.547 130.800,388.400 130.311,388.400 128.800 C 388.400 127.067,388.293 126.800,387.600 126.800 C 386.907 126.800,386.800 126.533,386.800 124.800 C 386.800 123.289,386.653 122.800,386.200 122.800 C 385.781 122.800,385.600 122.378,385.600 121.400 C 385.600 120.422,385.419 120.000,385.000 120.000 C 384.596 120.000,384.400 119.596,384.400 118.763 C 384.400 117.862,384.183 117.468,383.600 117.316 C 382.999 117.159,382.800 116.770,382.800 115.753 C 382.800 114.817,382.615 114.400,382.200 114.400 C 381.796 114.400,381.600 113.996,381.600 113.163 C 381.600 112.262,381.383 111.868,380.800 111.716 C 380.199 111.559,380.000 111.170,380.000 110.153 C 380.000 109.217,379.815 108.800,379.400 108.800 C 378.996 108.800,378.800 108.396,378.800 107.563 C 378.800 106.662,378.583 106.268,378.000 106.116 C 377.433 105.968,377.200 105.570,377.200 104.753 C 377.200 103.995,376.995 103.600,376.600 103.600 C 376.181 103.600,376.000 103.178,376.000 102.200 C 376.000 101.272,375.813 100.800,375.445 100.800 C 375.126 100.800,374.777 100.202,374.626 99.400 C 374.469 98.562,374.130 98.000,373.782 98.000 C 373.462 98.000,373.200 97.724,373.200 97.387 C 373.200 97.051,372.930 96.671,372.600 96.545 C 372.258 96.413,372.000 95.817,372.000 95.157 C 372.000 94.267,371.816 94.000,371.200 94.000 C 370.667 94.000,370.400 93.733,370.400 93.200 C 370.400 92.756,370.133 92.400,369.800 92.400 C 369.411 92.400,369.200 92.010,369.200 91.289 C 369.200 90.673,368.844 89.873,368.400 89.493 C 367.960 89.116,367.600 88.446,367.600 88.004 C 367.600 87.556,367.334 87.200,367.000 87.200 C 366.667 87.200,366.400 86.844,366.400 86.400 C 366.400 85.956,366.133 85.600,365.800 85.600 C 365.470 85.600,365.200 85.330,365.200 85.000 C 365.200 84.667,364.844 84.400,364.400 84.400 C 363.752 84.400,363.600 84.133,363.600 83.000 C 363.600 82.075,363.412 81.600,363.047 81.600 C 362.742 81.600,362.399 81.240,362.284 80.800 C 362.169 80.360,361.788 80.000,361.437 80.000 C 361.087 80.000,360.800 79.730,360.800 79.400 C 360.800 79.070,360.530 78.800,360.200 78.800 C 359.814 78.800,359.598 78.408,359.593 77.700 C 359.586 76.609,358.121 74.800,357.244 74.800 C 357.000 74.800,356.800 74.440,356.800 74.000 C 356.800 73.560,356.544 73.200,356.232 73.200 C 355.919 73.200,355.545 72.660,355.400 72.000 C 355.255 71.340,354.881 70.800,354.568 70.800 C 354.256 70.800,354.000 70.440,354.000 70.000 C 354.000 69.556,353.733 69.200,353.400 69.200 C 353.070 69.200,352.800 68.930,352.800 68.600 C 352.800 68.267,352.444 68.000,352.000 68.000 C 351.467 68.000,351.200 67.733,351.200 67.200 C 351.200 66.756,350.933 66.400,350.600 66.400 C 350.270 66.400,350.000 66.130,350.000 65.800 C 350.000 65.470,349.751 65.200,349.447 65.200 C 349.142 65.200,348.799 64.840,348.684 64.400 C 348.569 63.960,348.188 63.600,347.837 63.600 C 347.487 63.600,347.200 63.330,347.200 63.000 C 347.200 62.670,346.951 62.400,346.647 62.400 C 346.342 62.400,345.999 62.040,345.884 61.600 C 345.769 61.160,345.388 60.800,345.037 60.800 C 344.687 60.800,344.400 60.530,344.400 60.200 C 344.400 59.870,344.130 59.600,343.800 59.600 C 343.470 59.600,343.200 59.330,343.200 59.000 C 343.200 58.667,342.844 58.400,342.400 58.400 C 341.867 58.400,341.600 58.133,341.600 57.600 C 341.600 57.156,341.333 56.800,341.000 56.800 C 340.670 56.800,340.400 56.530,340.400 56.200 C 340.400 55.870,340.151 55.600,339.847 55.600 C 339.542 55.600,339.199 55.240,339.084 54.800 C 338.969 54.360,338.588 54.000,338.237 54.000 C 337.887 54.000,337.600 53.730,337.600 53.400 C 337.600 53.070,337.351 52.800,337.047 52.800 C 336.742 52.800,336.399 52.440,336.284 52.000 C 336.169 51.560,335.788 51.200,335.437 51.200 C 335.087 51.200,334.800 50.930,334.800 50.600 C 334.800 50.270,334.530 50.000,334.200 50.000 C 333.870 50.000,333.600 49.730,333.600 49.400 C 333.600 49.067,333.244 48.800,332.800 48.800 C 332.267 48.800,332.000 48.533,332.000 48.000 C 332.000 47.556,331.733 47.200,331.400 47.200 C 331.070 47.200,330.800 46.930,330.800 46.600 C 330.800 46.267,330.444 46.000,330.000 46.000 C 329.560 46.000,329.200 45.744,329.200 45.432 C 329.200 45.119,328.660 44.745,328.000 44.600 C 327.340 44.455,326.800 44.081,326.800 43.768 C 326.800 43.456,326.440 43.200,326.000 43.200 C 325.560 43.200,325.200 43.029,325.200 42.821 C 325.200 41.990,323.265 40.400,322.254 40.400 C 321.584 40.400,321.200 40.182,321.200 39.800 C 321.200 39.470,320.930 39.200,320.600 39.200 C 320.270 39.200,320.000 38.913,320.000 38.563 C 320.000 38.212,319.640 37.831,319.200 37.716 C 318.760 37.601,318.400 37.258,318.400 36.953 C 318.400 36.588,317.925 36.400,317.000 36.400 C 315.867 36.400,315.600 36.248,315.600 35.600 C 315.600 35.156,315.333 34.800,315.000 34.800 C 314.670 34.800,314.400 34.530,314.400 34.200 C 314.400 33.867,314.044 33.600,313.600 33.600 C 313.156 33.600,312.800 33.333,312.800 33.000 C 312.800 32.666,312.444 32.400,311.996 32.400 C 311.554 32.400,310.884 32.040,310.507 31.600 C 310.127 31.156,309.327 30.800,308.711 30.800 C 307.990 30.800,307.600 30.589,307.600 30.200 C 307.600 29.870,307.261 29.600,306.847 29.600 C 306.430 29.600,306.000 29.243,305.884 28.800 C 305.746 28.271,305.338 28.000,304.680 28.000 C 304.133 28.000,303.582 27.730,303.455 27.400 C 303.321 27.049,302.721 26.800,302.013 26.800 C 301.170 26.800,300.800 26.606,300.800 26.163 C 300.800 25.812,300.440 25.431,300.000 25.316 C 299.560 25.201,299.200 24.858,299.200 24.553 C 299.200 24.188,298.725 24.000,297.800 24.000 C 296.822 24.000,296.400 23.819,296.400 23.400 C 296.400 23.005,296.005 22.800,295.247 22.800 C 294.430 22.800,294.032 22.567,293.884 22.000 C 293.732 21.417,293.338 21.200,292.437 21.200 C 291.604 21.200,291.200 21.004,291.200 20.600 C 291.200 20.185,290.783 20.000,289.847 20.000 C 288.830 20.000,288.441 19.801,288.284 19.200 C 288.132 18.617,287.738 18.400,286.837 18.400 C 286.004 18.400,285.600 18.204,285.600 17.800 C 285.600 17.381,285.178 17.200,284.200 17.200 C 283.270 17.200,282.800 17.013,282.800 16.643 C 282.800 16.031,281.959 15.600,280.767 15.600 C 280.345 15.600,280.000 15.330,280.000 15.000 C 280.000 14.547,279.511 14.400,278.000 14.400 C 276.489 14.400,276.000 14.253,276.000 13.800 C 276.000 13.347,275.511 13.200,274.000 13.200 C 272.267 13.200,272.000 13.093,272.000 12.400 C 272.000 11.752,271.733 11.600,270.600 11.600 C 269.622 11.600,269.200 11.419,269.200 11.000 C 269.200 10.549,268.716 10.400,267.247 10.400 C 265.630 10.400,265.257 10.262,265.084 9.600 C 264.909 8.932,264.538 8.800,262.837 8.800 C 261.293 8.800,260.800 8.655,260.800 8.200 C 260.800 7.747,260.311 7.600,258.800 7.600 C 257.364 7.600,256.800 7.444,256.800 7.047 C 256.800 6.359,255.569 6.013,253.100 6.005 C 251.680 6.001,251.200 5.848,251.200 5.400 C 251.200 4.928,250.644 4.800,248.600 4.800 C 246.556 4.800,246.000 4.672,246.000 4.200 C 246.000 3.726,245.433 3.600,243.296 3.600 C 241.026 3.600,240.512 3.472,240.093 2.800 C 239.642 2.079,239.160 2.000,235.197 2.000 C 231.555 2.000,230.800 1.897,230.800 1.400 C 230.800 0.900,230.000 0.800,226.000 0.800 C 223.067 0.800,221.200 0.644,221.200 0.400 C 221.200 0.138,213.867 0.000,200.000 0.000 C 186.133 0.000,178.800 0.138,178.800 0.400 M219.800 2.546 C 222.880 2.891,226.300 3.353,227.400 3.572 C 228.500 3.790,230.750 4.163,232.400 4.400 C 238.933 5.339,241.849 5.873,242.926 6.326 C 243.545 6.587,244.589 6.800,245.246 6.800 C 245.903 6.800,246.928 7.053,247.525 7.361 C 248.122 7.670,249.490 8.054,250.564 8.216 C 251.639 8.377,252.986 8.753,253.559 9.052 C 254.131 9.351,255.179 9.596,255.886 9.598 C 256.594 9.599,257.764 9.846,258.486 10.148 C 259.209 10.449,260.340 10.882,261.000 11.110 C 264.238 12.228,265.081 12.553,266.062 13.055 C 266.646 13.355,267.362 13.600,267.654 13.600 C 268.263 13.600,272.086 15.031,273.662 15.849 C 274.246 16.152,275.075 16.400,275.505 16.400 C 275.935 16.400,277.495 17.030,278.972 17.800 C 280.449 18.570,281.893 19.200,282.180 19.200 C 282.467 19.200,282.926 19.470,283.200 19.800 C 283.474 20.130,284.008 20.400,284.388 20.400 C 284.767 20.400,285.493 20.760,286.000 21.200 C 286.507 21.640,287.233 22.000,287.612 22.000 C 287.992 22.000,288.526 22.270,288.800 22.600 C 289.074 22.930,289.704 23.200,290.200 23.200 C 290.696 23.200,291.317 23.458,291.579 23.774 C 291.841 24.090,292.583 24.464,293.228 24.606 C 293.872 24.748,294.400 25.012,294.400 25.193 C 294.400 25.374,294.895 25.720,295.500 25.962 C 296.105 26.204,297.140 26.760,297.800 27.197 C 298.460 27.634,299.450 28.215,300.000 28.487 C 300.550 28.760,301.144 29.212,301.320 29.492 C 301.496 29.771,301.969 30.000,302.371 30.000 C 302.773 30.000,303.342 30.289,303.635 30.642 C 303.927 30.995,304.535 31.447,304.984 31.648 C 305.433 31.848,306.340 32.367,307.000 32.802 C 307.660 33.236,308.650 33.815,309.200 34.088 C 309.750 34.360,310.290 34.677,310.400 34.792 C 310.612 35.012,312.160 36.113,314.924 38.009 C 315.846 38.641,317.078 39.573,317.663 40.079 C 318.247 40.586,319.117 41.270,319.596 41.600 C 323.926 44.585,328.500 48.312,332.450 52.075 C 333.908 53.464,336.157 55.500,337.449 56.600 C 340.139 58.891,341.363 60.125,343.954 63.164 C 344.969 64.355,346.765 66.335,347.945 67.564 C 351.239 70.998,353.300 73.454,356.365 77.600 C 357.910 79.690,359.424 81.670,359.730 82.000 C 360.035 82.330,360.968 83.590,361.802 84.800 C 362.637 86.010,363.806 87.630,364.401 88.400 C 364.995 89.170,365.733 90.281,366.041 90.868 C 366.631 91.995,368.920 95.760,370.099 97.543 C 370.483 98.124,370.996 99.095,371.238 99.700 C 371.480 100.305,371.823 100.800,372.000 100.800 C 372.177 100.800,372.525 101.295,372.773 101.900 C 373.284 103.145,374.024 104.456,374.667 105.257 C 374.906 105.556,375.238 106.242,375.404 106.781 C 375.570 107.321,375.952 108.009,376.253 108.310 C 376.554 108.611,376.800 109.182,376.800 109.580 C 376.800 109.977,377.070 110.526,377.400 110.800 C 377.730 111.074,378.000 111.555,378.000 111.870 C 378.000 112.184,378.351 113.107,378.780 113.921 C 379.209 114.734,379.660 115.670,379.782 116.000 C 379.904 116.330,380.531 117.500,381.175 118.600 C 381.820 119.700,382.359 120.893,382.373 121.251 C 382.388 121.609,382.670 122.126,383.000 122.400 C 383.330 122.674,383.600 123.343,383.600 123.887 C 383.600 124.431,383.848 125.354,384.151 125.938 C 385.018 127.609,386.400 131.353,386.400 132.031 C 386.400 132.370,386.664 132.996,386.987 133.424 C 387.310 133.851,387.586 134.470,387.601 134.800 C 387.615 135.130,387.975 136.120,388.400 137.000 C 388.825 137.880,389.179 138.971,389.186 139.424 C 389.194 139.876,389.464 140.596,389.787 141.024 C 390.110 141.451,390.380 142.391,390.387 143.113 C 390.394 143.835,390.650 145.023,390.955 145.754 C 391.260 146.484,391.641 147.873,391.802 148.841 C 391.963 149.808,392.343 151.086,392.647 151.680 C 392.951 152.274,393.200 153.327,393.200 154.020 C 393.200 154.712,393.455 155.846,393.767 156.540 C 394.079 157.233,394.518 158.970,394.742 160.400 C 394.967 161.830,395.333 163.810,395.558 164.800 C 395.782 165.790,395.973 167.484,395.983 168.565 C 395.992 169.646,396.258 171.446,396.574 172.565 C 397.095 174.413,397.387 176.756,398.400 187.200 C 398.827 191.596,398.827 208.804,398.400 213.200 C 397.421 223.297,397.083 225.977,396.567 227.746 C 396.255 228.816,396.000 230.719,396.000 231.973 C 396.000 233.228,395.745 235.142,395.433 236.227 C 395.122 237.312,394.741 239.172,394.587 240.361 C 394.434 241.550,394.059 243.119,393.754 243.848 C 393.449 244.578,393.200 245.729,393.200 246.407 C 393.200 247.085,392.945 248.132,392.634 248.734 C 392.323 249.335,391.949 250.541,391.802 251.414 C 391.656 252.286,391.281 253.679,390.968 254.508 C 390.656 255.338,390.394 256.598,390.387 257.308 C 390.380 258.019,390.110 258.949,389.787 259.376 C 389.464 259.804,389.200 260.479,389.200 260.878 C 389.200 261.277,388.840 262.275,388.400 263.096 C 387.960 263.916,387.594 264.951,387.587 265.394 C 387.580 265.837,387.310 266.549,386.987 266.976 C 386.664 267.404,386.400 268.128,386.400 268.587 C 386.400 269.046,386.153 269.777,385.851 270.211 C 385.549 270.645,385.166 271.630,385.000 272.400 C 384.834 273.170,384.451 274.155,384.149 274.589 C 383.847 275.023,383.600 275.856,383.600 276.440 C 383.600 277.024,383.330 277.726,383.000 278.000 C 382.670 278.274,382.388 278.791,382.373 279.149 C 382.359 279.507,381.820 280.700,381.175 281.800 C 380.531 282.900,379.901 284.070,379.776 284.400 C 379.302 285.652,376.553 291.488,376.008 292.400 C 375.811 292.730,375.233 293.900,374.725 295.000 C 374.216 296.100,373.661 297.061,373.490 297.137 C 373.320 297.212,372.915 297.842,372.591 298.537 C 372.267 299.231,371.644 300.340,371.207 301.000 C 370.770 301.660,370.227 302.560,370.002 303.000 C 369.776 303.440,368.875 304.880,368.000 306.200 C 367.125 307.520,366.227 309.015,366.006 309.522 C 365.784 310.029,365.017 311.223,364.302 312.176 C 363.586 313.129,362.730 314.317,362.400 314.816 C 362.070 315.316,361.485 316.007,361.100 316.351 C 360.715 316.696,360.400 317.148,360.400 317.355 C 360.400 317.563,360.127 318.018,359.793 318.366 C 359.459 318.715,357.861 320.766,356.243 322.924 C 353.576 326.480,350.361 330.244,346.937 333.819 C 346.243 334.544,345.523 335.405,345.337 335.731 C 344.872 336.549,339.764 341.851,337.563 343.800 C 336.569 344.680,334.739 346.271,333.496 347.335 C 332.253 348.399,330.384 350.063,329.343 351.032 C 326.130 354.024,317.937 360.400,317.305 360.400 C 317.125 360.400,316.696 360.715,316.351 361.100 C 316.007 361.485,315.316 362.070,314.816 362.400 C 314.317 362.730,313.164 363.555,312.254 364.233 C 311.344 364.910,309.700 365.982,308.600 366.613 C 307.500 367.245,306.510 367.864,306.400 367.989 C 306.290 368.114,305.750 368.446,305.200 368.728 C 304.025 369.329,302.665 370.136,301.000 371.220 C 300.340 371.650,299.231 372.267,298.537 372.591 C 297.842 372.915,297.212 373.320,297.137 373.490 C 297.061 373.661,295.560 374.498,293.800 375.350 C 292.040 376.203,290.330 377.058,290.000 377.251 C 289.670 377.444,288.950 377.791,288.400 378.022 C 287.510 378.395,285.281 379.477,283.600 380.351 C 280.304 382.066,279.565 382.400,279.070 382.400 C 278.755 382.400,278.274 382.670,278.000 383.000 C 277.726 383.330,277.119 383.601,276.651 383.602 C 276.183 383.604,275.284 383.874,274.654 384.202 C 274.024 384.531,273.304 384.801,273.054 384.802 C 272.804 384.804,272.060 385.095,271.400 385.451 C 270.740 385.806,269.660 386.242,269.000 386.421 C 267.359 386.865,264.462 387.915,262.940 388.618 C 262.246 388.938,261.346 389.206,260.940 389.213 C 260.533 389.220,259.851 389.490,259.424 389.813 C 258.996 390.136,258.136 390.400,257.511 390.400 C 256.886 390.400,255.792 390.643,255.081 390.941 C 254.369 391.238,252.892 391.615,251.799 391.779 C 250.705 391.943,249.322 392.330,248.725 392.639 C 248.128 392.947,247.079 393.200,246.394 393.200 C 245.708 393.200,244.754 393.415,244.274 393.678 C 243.410 394.150,239.854 394.885,234.800 395.636 C 233.370 395.848,231.120 396.206,229.800 396.431 C 228.480 396.656,226.050 396.991,224.400 397.176 C 222.750 397.360,219.960 397.751,218.200 398.044 C 213.851 398.768,186.744 398.788,182.200 398.071 C 180.440 397.793,177.740 397.465,176.200 397.342 C 174.660 397.219,172.629 396.867,171.686 396.559 C 170.743 396.252,169.033 395.992,167.886 395.983 C 166.739 395.973,164.990 395.780,164.000 395.554 C 163.010 395.328,161.030 394.920,159.600 394.647 C 158.170 394.374,156.493 393.937,155.874 393.675 C 155.255 393.414,154.211 393.200,153.554 393.200 C 152.897 393.200,151.872 392.947,151.275 392.639 C 150.678 392.330,149.292 391.947,148.195 391.788 C 147.098 391.629,145.992 391.334,145.737 391.131 C 145.482 390.929,144.402 390.610,143.337 390.423 C 141.210 390.049,139.464 389.480,136.956 388.344 C 136.052 387.935,134.972 387.594,134.556 387.587 C 134.140 387.580,133.451 387.310,133.024 386.987 C 132.596 386.664,131.872 386.400,131.413 386.400 C 130.954 386.400,130.223 386.153,129.789 385.851 C 129.355 385.549,128.370 385.166,127.600 385.000 C 126.830 384.834,125.845 384.451,125.411 384.149 C 124.977 383.847,124.252 383.600,123.800 383.600 C 123.348 383.600,122.623 383.354,122.189 383.054 C 121.755 382.754,120.958 382.370,120.419 382.201 C 119.879 382.032,119.191 381.648,118.890 381.347 C 118.589 381.046,118.018 380.800,117.620 380.800 C 117.223 380.800,116.674 380.530,116.400 380.200 C 116.126 379.870,115.609 379.599,115.251 379.597 C 114.893 379.596,114.060 379.237,113.400 378.800 C 112.740 378.363,111.962 378.004,111.671 378.003 C 111.381 378.001,110.873 377.730,110.543 377.400 C 110.213 377.070,109.618 376.800,109.220 376.800 C 108.823 376.800,108.283 376.542,108.021 376.226 C 107.759 375.910,107.017 375.536,106.372 375.394 C 105.728 375.252,105.200 374.988,105.200 374.807 C 105.200 374.626,104.705 374.283,104.100 374.045 C 102.936 373.586,102.567 373.365,99.524 371.300 C 98.470 370.585,97.454 370.000,97.265 370.000 C 97.077 370.000,96.507 369.640,96.000 369.200 C 95.493 368.760,94.835 368.400,94.539 368.400 C 94.242 368.400,94.000 368.232,94.000 368.027 C 94.000 367.822,93.605 367.529,93.123 367.375 C 92.640 367.222,91.382 366.490,90.327 365.748 C 89.272 365.007,88.226 364.400,88.004 364.400 C 87.782 364.400,87.600 364.214,87.600 363.987 C 87.600 363.761,87.295 363.458,86.923 363.315 C 86.280 363.068,78.506 357.371,76.668 355.800 C 76.411 355.580,75.449 354.890,74.530 354.267 C 73.612 353.643,71.607 351.933,70.075 350.467 C 68.543 349.000,66.247 346.900,64.973 345.800 C 61.684 342.960,57.263 338.563,55.181 336.060 C 54.201 334.883,51.921 332.379,50.112 330.497 C 48.304 328.614,46.112 326.035,45.240 324.764 C 44.368 323.494,43.363 322.128,43.007 321.727 C 41.636 320.189,36.800 313.547,36.800 313.202 C 36.800 313.003,36.575 312.696,36.300 312.520 C 35.697 312.134,34.939 310.990,34.298 309.500 C 34.038 308.895,33.675 308.400,33.491 308.400 C 33.308 308.400,32.970 307.860,32.740 307.200 C 32.510 306.540,32.159 306.000,31.961 306.000 C 31.762 306.000,31.600 305.758,31.600 305.461 C 31.600 305.165,31.240 304.507,30.800 304.000 C 30.360 303.493,30.000 302.918,30.000 302.723 C 30.000 302.527,29.662 301.880,29.249 301.284 C 27.218 298.354,26.000 296.309,26.000 295.829 C 26.000 295.537,25.748 295.089,25.439 294.833 C 25.131 294.577,24.762 293.903,24.619 293.335 C 24.477 292.768,24.099 292.042,23.780 291.723 C 23.461 291.404,23.200 290.818,23.200 290.420 C 23.200 290.023,22.930 289.474,22.600 289.200 C 22.270 288.926,22.000 288.519,22.000 288.295 C 22.000 288.071,21.655 287.148,21.232 286.244 C 20.810 285.340,20.359 284.330,20.231 284.000 C 20.102 283.670,19.469 282.500,18.825 281.400 C 18.180 280.300,17.641 279.107,17.627 278.749 C 17.612 278.391,17.330 277.874,17.000 277.600 C 16.670 277.326,16.400 276.618,16.400 276.027 C 16.400 275.436,16.136 274.604,15.813 274.176 C 15.490 273.749,15.220 273.037,15.213 272.594 C 15.206 272.151,14.840 271.116,14.400 270.296 C 13.960 269.475,13.600 268.477,13.600 268.078 C 13.600 267.679,13.336 267.004,13.013 266.576 C 12.690 266.149,12.420 265.467,12.413 265.060 C 12.406 264.654,12.138 263.754,11.818 263.060 C 10.716 260.675,9.927 258.195,9.595 256.079 C 9.413 254.913,9.086 253.743,8.869 253.479 C 8.652 253.216,8.345 252.100,8.185 251.000 C 8.026 249.900,7.649 248.514,7.348 247.920 C 7.047 247.326,6.799 246.246,6.798 245.520 C 6.796 244.794,6.546 243.722,6.241 243.139 C 5.937 242.555,5.559 240.935,5.402 239.539 C 5.246 238.142,4.866 236.017,4.559 234.816 C 4.251 233.615,4.000 231.691,4.000 230.542 C 4.000 229.393,3.798 227.945,3.552 227.326 C 3.020 225.991,2.181 217.841,1.531 207.703 C 0.940 198.479,1.972 180.337,3.538 172.400 C 3.777 171.190,4.164 168.850,4.398 167.200 C 5.175 161.719,5.842 158.213,6.324 157.074 C 6.586 156.455,6.800 155.411,6.800 154.754 C 6.800 154.097,7.047 153.074,7.348 152.480 C 7.649 151.886,8.026 150.500,8.185 149.400 C 8.345 148.300,8.652 147.184,8.869 146.921 C 9.086 146.657,9.409 145.487,9.588 144.321 C 9.933 142.064,10.454 140.409,11.656 137.756 C 12.065 136.852,12.406 135.772,12.413 135.356 C 12.420 134.940,12.690 134.251,13.013 133.824 C 13.336 133.396,13.600 132.672,13.600 132.213 C 13.600 131.754,13.847 131.023,14.149 130.589 C 14.451 130.155,14.834 129.170,15.000 128.400 C 15.166 127.630,15.549 126.645,15.851 126.211 C 16.153 125.777,16.400 125.057,16.399 124.611 C 16.399 124.165,17.640 121.280,19.158 118.200 C 20.676 115.120,22.025 112.330,22.156 112.000 C 22.287 111.670,22.556 111.130,22.753 110.800 C 22.950 110.470,23.604 109.161,24.207 107.891 C 24.811 106.622,25.461 105.486,25.652 105.368 C 25.843 105.250,26.000 104.886,26.000 104.560 C 26.000 104.061,27.308 101.873,28.008 101.200 C 28.123 101.090,28.440 100.550,28.712 100.000 C 28.985 99.450,29.565 98.460,30.000 97.800 C 30.435 97.140,31.015 96.150,31.287 95.600 C 31.560 95.050,32.012 94.456,32.292 94.280 C 32.571 94.104,32.800 93.715,32.800 93.415 C 32.800 92.893,34.856 89.474,36.178 87.800 C 36.525 87.360,37.074 86.640,37.398 86.200 C 37.722 85.760,38.980 84.108,40.193 82.529 C 41.407 80.950,42.404 79.510,42.409 79.329 C 42.418 79.033,44.213 76.827,45.796 75.166 C 46.128 74.818,46.402 74.368,46.405 74.166 C 46.408 73.965,47.151 72.990,48.056 72.000 C 59.091 59.932,59.932 59.091,72.000 48.056 C 72.990 47.151,73.985 46.408,74.211 46.405 C 74.437 46.402,74.904 46.085,75.249 45.700 C 75.593 45.315,76.286 44.730,76.788 44.400 C 77.291 44.070,79.369 42.540,81.407 41.000 C 83.445 39.460,85.514 37.930,86.005 37.600 C 86.496 37.270,87.177 36.731,87.518 36.403 C 88.179 35.766,89.288 35.070,90.616 34.459 C 91.065 34.252,91.673 33.795,91.965 33.442 C 92.258 33.089,92.748 32.800,93.053 32.800 C 93.358 32.800,94.470 32.215,95.524 31.500 C 98.567 29.435,98.936 29.214,100.100 28.755 C 100.705 28.517,101.200 28.197,101.200 28.044 C 101.200 27.892,102.145 27.272,103.300 26.668 C 104.455 26.063,105.670 25.395,106.000 25.184 C 106.330 24.972,107.050 24.620,107.600 24.401 C 108.150 24.181,108.870 23.834,109.200 23.630 C 109.530 23.425,110.070 23.156,110.400 23.031 C 110.730 22.907,111.270 22.640,111.600 22.438 C 111.930 22.236,114.360 21.050,117.000 19.802 C 119.640 18.554,122.278 17.278,122.862 16.967 C 123.446 16.655,124.266 16.400,124.685 16.400 C 125.104 16.400,125.796 16.136,126.224 15.813 C 126.651 15.490,127.363 15.220,127.806 15.213 C 128.249 15.206,129.284 14.840,130.104 14.400 C 130.925 13.960,131.923 13.600,132.322 13.600 C 132.721 13.600,133.396 13.336,133.824 13.013 C 134.251 12.690,134.960 12.419,135.400 12.410 C 135.840 12.402,136.728 12.120,137.374 11.783 C 138.019 11.446,139.189 11.013,139.974 10.821 C 140.758 10.628,141.940 10.289,142.600 10.068 C 144.016 9.592,146.547 8.933,149.600 8.244 C 150.810 7.972,152.307 7.535,152.926 7.274 C 153.545 7.013,154.535 6.799,155.126 6.798 C 155.717 6.796,156.665 6.552,157.233 6.256 C 157.802 5.959,159.596 5.585,161.221 5.425 C 162.846 5.265,164.497 4.962,164.891 4.751 C 165.284 4.541,167.494 4.203,169.800 4.000 C 172.106 3.797,174.310 3.465,174.697 3.261 C 175.084 3.058,177.470 2.759,180.000 2.597 C 182.530 2.435,185.410 2.159,186.400 1.984 C 189.452 1.444,213.602 1.850,219.800 2.546 M192.000 110.023 C 191.230 110.211,188.713 110.573,186.407 110.827 C 184.100 111.082,181.760 111.466,181.207 111.680 C 180.653 111.894,179.390 112.221,178.400 112.408 C 175.458 112.961,169.573 114.811,167.468 115.844 C 166.845 116.150,166.113 116.400,165.841 116.400 C 165.363 116.400,157.212 120.392,156.000 121.220 C 155.670 121.445,155.007 121.848,154.526 122.115 C 150.504 124.349,144.682 128.603,141.200 131.853 C 140.210 132.777,138.674 134.127,137.787 134.854 C 136.900 135.580,135.578 136.900,134.849 137.787 C 134.120 138.674,132.780 140.198,131.871 141.173 C 129.396 143.830,125.177 149.462,123.461 152.400 C 122.627 153.830,121.773 155.270,121.564 155.600 C 121.355 155.930,120.915 156.740,120.586 157.400 C 119.944 158.688,119.593 159.340,118.862 160.600 C 118.607 161.040,118.214 161.850,117.988 162.400 C 117.763 162.950,117.330 163.940,117.026 164.600 C 116.207 166.379,115.367 168.660,114.373 171.800 C 113.886 173.340,113.243 175.191,112.944 175.914 C 112.645 176.636,112.400 177.757,112.400 178.405 C 112.400 179.054,112.137 180.262,111.815 181.092 C 111.493 181.921,111.044 184.130,110.816 186.000 C 110.589 187.870,110.204 190.660,109.961 192.200 C 109.435 195.530,109.697 208.559,110.343 211.200 C 110.585 212.190,110.952 214.260,111.159 215.800 C 111.366 217.340,111.744 219.410,111.999 220.400 C 113.445 226.003,115.506 232.425,116.037 232.980 C 116.236 233.189,116.400 233.669,116.400 234.046 C 116.400 234.796,120.334 242.832,121.958 245.400 C 122.514 246.280,123.247 247.491,123.585 248.091 C 127.238 254.568,135.985 264.518,142.800 269.948 C 144.890 271.614,146.780 273.122,147.000 273.300 C 148.653 274.638,151.812 276.800,152.115 276.800 C 152.318 276.800,153.141 277.305,153.942 277.923 C 156.133 279.610,167.014 284.800,168.361 284.800 C 168.724 284.800,169.399 285.064,169.859 285.386 C 170.651 285.941,171.250 286.131,175.600 287.209 C 176.590 287.454,178.261 287.922,179.312 288.248 C 180.364 288.575,182.524 289.004,184.112 289.202 C 185.701 289.401,187.720 289.747,188.600 289.972 C 189.480 290.197,194.340 290.381,199.400 290.381 C 204.460 290.381,209.320 290.197,210.200 289.972 C 211.080 289.747,213.099 289.401,214.688 289.202 C 216.276 289.004,218.436 288.575,219.488 288.248 C 220.539 287.922,222.210 287.454,223.200 287.209 C 227.226 286.211,227.901 286.004,229.026 285.417 C 229.672 285.080,230.403 284.804,230.650 284.802 C 231.518 284.798,242.351 279.729,244.400 278.369 C 250.403 274.384,251.913 273.337,252.599 272.680 C 253.040 272.259,254.120 271.460,255.000 270.905 C 257.214 269.508,268.257 258.327,270.314 255.400 C 274.587 249.318,279.192 242.004,279.205 241.279 C 279.208 241.125,279.759 239.920,280.430 238.600 C 281.890 235.727,283.600 231.536,283.600 230.830 C 283.600 230.552,283.849 229.846,284.154 229.262 C 284.873 227.884,286.413 222.817,286.406 221.854 C 286.403 221.443,286.662 220.273,286.982 219.254 C 289.581 210.971,289.585 190.183,286.990 181.000 C 286.679 179.900,286.313 178.236,286.177 177.302 C 286.042 176.368,285.782 175.512,285.600 175.400 C 285.418 175.288,285.141 174.432,284.985 173.498 C 284.828 172.564,284.452 171.445,284.150 171.011 C 283.847 170.577,283.600 169.925,283.600 169.562 C 283.600 168.827,282.556 166.224,280.807 162.600 C 280.170 161.280,279.376 159.570,279.043 158.800 C 278.709 158.030,277.894 156.500,277.231 155.400 C 276.568 154.300,275.727 152.860,275.360 152.200 C 274.695 151.001,271.699 146.738,270.718 145.596 C 270.433 145.264,269.030 143.554,267.601 141.796 C 263.206 136.393,258.352 131.910,250.800 126.277 C 249.180 125.070,248.212 124.450,243.864 121.842 C 241.405 120.367,233.461 116.400,232.966 116.400 C 232.691 116.400,231.955 116.150,231.332 115.844 C 229.227 114.811,223.342 112.961,220.400 112.408 C 219.410 112.221,218.142 111.892,217.582 111.676 C 217.023 111.459,214.511 111.065,212.000 110.800 C 209.489 110.535,207.011 110.156,206.492 109.959 C 205.313 109.511,193.895 109.561,192.000 110.023 " stroke="none" fill="#050607" fill-rule="evenodd"></path><path id="path1" d="M186.400 1.984 C 185.410 2.159,182.530 2.435,180.000 2.597 C 177.470 2.759,175.084 3.058,174.697 3.261 C 174.310 3.465,172.106 3.797,169.800 4.000 C 167.494 4.203,165.284 4.541,164.891 4.751 C 164.497 4.962,162.846 5.265,161.221 5.425 C 159.596 5.585,157.802 5.959,157.233 6.256 C 156.665 6.552,155.717 6.796,155.126 6.798 C 154.535 6.799,153.545 7.013,152.926 7.274 C 152.307 7.535,150.810 7.972,149.600 8.244 C 146.547 8.933,144.016 9.592,142.600 10.068 C 141.940 10.289,140.758 10.628,139.974 10.821 C 139.189 11.013,138.019 11.446,137.374 11.783 C 136.728 12.120,135.840 12.402,135.400 12.410 C 134.960 12.419,134.251 12.690,133.824 13.013 C 133.396 13.336,132.721 13.600,132.322 13.600 C 131.923 13.600,130.925 13.960,130.104 14.400 C 129.284 14.840,128.249 15.206,127.806 15.213 C 127.363 15.220,126.651 15.490,126.224 15.813 C 125.796 16.136,125.104 16.400,124.685 16.400 C 124.266 16.400,123.446 16.655,122.862 16.967 C 122.278 17.278,119.640 18.554,117.000 19.802 C 114.360 21.050,111.930 22.236,111.600 22.438 C 111.270 22.640,110.730 22.907,110.400 23.031 C 110.070 23.156,109.530 23.425,109.200 23.630 C 108.870 23.834,108.150 24.181,107.600 24.401 C 107.050 24.620,106.330 24.972,106.000 25.184 C 105.670 25.395,104.455 26.063,103.300 26.668 C 102.145 27.272,101.200 27.892,101.200 28.044 C 101.200 28.197,100.705 28.517,100.100 28.755 C 98.936 29.214,98.567 29.435,95.524 31.500 C 94.470 32.215,93.358 32.800,93.053 32.800 C 92.748 32.800,92.258 33.089,91.965 33.442 C 91.673 33.795,91.065 34.252,90.616 34.459 C 89.288 35.070,88.179 35.766,87.518 36.403 C 87.177 36.731,86.496 37.270,86.005 37.600 C 85.514 37.930,83.445 39.460,81.407 41.000 C 79.369 42.540,77.291 44.070,76.788 44.400 C 76.286 44.730,75.593 45.315,75.249 45.700 C 74.904 46.085,74.437 46.402,74.211 46.405 C 73.985 46.408,72.990 47.151,72.000 48.056 C 59.932 59.091,59.091 59.932,48.056 72.000 C 47.151 72.990,46.408 73.965,46.405 74.166 C 46.402 74.368,46.128 74.818,45.796 75.166 C 44.213 76.827,42.418 79.033,42.409 79.329 C 42.404 79.510,41.407 80.950,40.193 82.529 C 38.980 84.108,37.722 85.760,37.398 86.200 C 37.074 86.640,36.525 87.360,36.178 87.800 C 34.856 89.474,32.800 92.893,32.800 93.415 C 32.800 93.715,32.571 94.104,32.292 94.280 C 32.012 94.456,31.560 95.050,31.287 95.600 C 31.015 96.150,30.435 97.140,30.000 97.800 C 29.565 98.460,28.985 99.450,28.712 100.000 C 28.440 100.550,28.123 101.090,28.008 101.200 C 27.308 101.873,26.000 104.061,26.000 104.560 C 26.000 104.886,25.843 105.250,25.652 105.368 C 25.461 105.486,24.811 106.622,24.207 107.891 C 23.604 109.161,22.950 110.470,22.753 110.800 C 22.556 111.130,22.287 111.670,22.156 112.000 C 22.025 112.330,20.676 115.120,19.158 118.200 C 17.640 121.280,16.399 124.165,16.399 124.611 C 16.400 125.057,16.153 125.777,15.851 126.211 C 15.549 126.645,15.166 127.630,15.000 128.400 C 14.834 129.170,14.451 130.155,14.149 130.589 C 13.847 131.023,13.600 131.754,13.600 132.213 C 13.600 132.672,13.336 133.396,13.013 133.824 C 12.690 134.251,12.420 134.940,12.413 135.356 C 12.406 135.772,12.065 136.852,11.656 137.756 C 10.454 140.409,9.933 142.064,9.588 144.321 C 9.409 145.487,9.086 146.657,8.869 146.921 C 8.652 147.184,8.345 148.300,8.185 149.400 C 8.026 150.500,7.649 151.886,7.348 152.480 C 7.047 153.074,6.800 154.097,6.800 154.754 C 6.800 155.411,6.586 156.455,6.324 157.074 C 5.842 158.213,5.175 161.719,4.398 167.200 C 4.164 168.850,3.777 171.190,3.538 172.400 C 1.972 180.337,0.940 198.479,1.531 207.703 C 2.181 217.841,3.020 225.991,3.552 227.326 C 3.798 227.945,4.000 229.393,4.000 230.542 C 4.000 231.691,4.251 233.615,4.559 234.816 C 4.866 236.017,5.246 238.142,5.402 239.539 C 5.559 240.935,5.937 242.555,6.241 243.139 C 6.546 243.722,6.796 244.794,6.798 245.520 C 6.799 246.246,7.047 247.326,7.348 247.920 C 7.649 248.514,8.026 249.900,8.185 251.000 C 8.345 252.100,8.652 253.216,8.869 253.479 C 9.086 253.743,9.413 254.913,9.595 256.079 C 9.927 258.195,10.716 260.675,11.818 263.060 C 12.138 263.754,12.406 264.654,12.413 265.060 C 12.420 265.467,12.690 266.149,13.013 266.576 C 13.336 267.004,13.600 267.679,13.600 268.078 C 13.600 268.477,13.960 269.475,14.400 270.296 C 14.840 271.116,15.206 272.151,15.213 272.594 C 15.220 273.037,15.490 273.749,15.813 274.176 C 16.136 274.604,16.400 275.436,16.400 276.027 C 16.400 276.618,16.670 277.326,17.000 277.600 C 17.330 277.874,17.612 278.391,17.627 278.749 C 17.641 279.107,18.180 280.300,18.825 281.400 C 19.469 282.500,20.102 283.670,20.231 284.000 C 20.359 284.330,20.810 285.340,21.232 286.244 C 21.655 287.148,22.000 288.071,22.000 288.295 C 22.000 288.519,22.270 288.926,22.600 289.200 C 22.930 289.474,23.200 290.023,23.200 290.420 C 23.200 290.818,23.461 291.404,23.780 291.723 C 24.099 292.042,24.477 292.768,24.619 293.335 C 24.762 293.903,25.131 294.577,25.439 294.833 C 25.748 295.089,26.000 295.537,26.000 295.829 C 26.000 296.309,27.218 298.354,29.249 301.284 C 29.662 301.880,30.000 302.527,30.000 302.723 C 30.000 302.918,30.360 303.493,30.800 304.000 C 31.240 304.507,31.600 305.165,31.600 305.461 C 31.600 305.758,31.762 306.000,31.961 306.000 C 32.159 306.000,32.510 306.540,32.740 307.200 C 32.970 307.860,33.308 308.400,33.491 308.400 C 33.675 308.400,34.038 308.895,34.298 309.500 C 34.939 310.990,35.697 312.134,36.300 312.520 C 36.575 312.696,36.800 313.003,36.800 313.202 C 36.800 313.547,41.636 320.189,43.007 321.727 C 43.363 322.128,44.368 323.494,45.240 324.764 C 46.112 326.035,48.304 328.614,50.112 330.497 C 51.921 332.379,54.201 334.883,55.181 336.060 C 57.263 338.563,61.684 342.960,64.973 345.800 C 66.247 346.900,68.543 349.000,70.075 350.467 C 71.607 351.933,73.612 353.643,74.530 354.267 C 75.449 354.890,76.411 355.580,76.668 355.800 C 78.506 357.371,86.280 363.068,86.923 363.315 C 87.295 363.458,87.600 363.761,87.600 363.987 C 87.600 364.214,87.782 364.400,88.004 364.400 C 88.226 364.400,89.272 365.007,90.327 365.748 C 91.382 366.490,92.640 367.222,93.123 367.375 C 93.605 367.529,94.000 367.822,94.000 368.027 C 94.000 368.232,94.242 368.400,94.539 368.400 C 94.835 368.400,95.493 368.760,96.000 369.200 C 96.507 369.640,97.077 370.000,97.265 370.000 C 97.454 370.000,98.470 370.585,99.524 371.300 C 102.567 373.365,102.936 373.586,104.100 374.045 C 104.705 374.283,105.200 374.626,105.200 374.807 C 105.200 374.988,105.728 375.252,106.372 375.394 C 107.017 375.536,107.759 375.910,108.021 376.226 C 108.283 376.542,108.823 376.800,109.220 376.800 C 109.618 376.800,110.213 377.070,110.543 377.400 C 110.873 377.730,111.381 378.001,111.671 378.003 C 111.962 378.004,112.740 378.363,113.400 378.800 C 114.060 379.237,114.893 379.596,115.251 379.597 C 115.609 379.599,116.126 379.870,116.400 380.200 C 116.674 380.530,117.223 380.800,117.620 380.800 C 118.018 380.800,118.589 381.046,118.890 381.347 C 119.191 381.648,119.879 382.032,120.419 382.201 C 120.958 382.370,121.755 382.754,122.189 383.054 C 122.623 383.354,123.348 383.600,123.800 383.600 C 124.252 383.600,124.977 383.847,125.411 384.149 C 125.845 384.451,126.830 384.834,127.600 385.000 C 128.370 385.166,129.355 385.549,129.789 385.851 C 130.223 386.153,130.954 386.400,131.413 386.400 C 131.872 386.400,132.596 386.664,133.024 386.987 C 133.451 387.310,134.140 387.580,134.556 387.587 C 134.972 387.594,136.052 387.935,136.956 388.344 C 139.464 389.480,141.210 390.049,143.337 390.423 C 144.402 390.610,145.482 390.929,145.737 391.131 C 145.992 391.334,147.098 391.629,148.195 391.788 C 149.292 391.947,150.678 392.330,151.275 392.639 C 151.872 392.947,152.897 393.200,153.554 393.200 C 154.211 393.200,155.255 393.414,155.874 393.675 C 156.493 393.937,158.170 394.374,159.600 394.647 C 161.030 394.920,163.010 395.328,164.000 395.554 C 164.990 395.780,166.739 395.973,167.886 395.983 C 169.033 395.992,170.743 396.252,171.686 396.559 C 172.629 396.867,174.660 397.219,176.200 397.342 C 177.740 397.465,180.440 397.793,182.200 398.071 C 186.744 398.788,213.851 398.768,218.200 398.044 C 219.960 397.751,222.750 397.360,224.400 397.176 C 226.050 396.991,228.480 396.656,229.800 396.431 C 231.120 396.206,233.370 395.848,234.800 395.636 C 239.854 394.885,243.410 394.150,244.274 393.678 C 244.754 393.415,245.708 393.200,246.394 393.200 C 247.079 393.200,248.128 392.947,248.725 392.639 C 249.322 392.330,250.705 391.943,251.799 391.779 C 252.892 391.615,254.369 391.238,255.081 390.941 C 255.792 390.643,256.886 390.400,257.511 390.400 C 258.136 390.400,258.996 390.136,259.424 389.813 C 259.851 389.490,260.533 389.220,260.940 389.213 C 261.346 389.206,262.246 388.938,262.940 388.618 C 264.462 387.915,267.359 386.865,269.000 386.421 C 269.660 386.242,270.740 385.806,271.400 385.451 C 272.060 385.095,272.804 384.804,273.054 384.802 C 273.304 384.801,274.024 384.531,274.654 384.202 C 275.284 383.874,276.183 383.604,276.651 383.602 C 277.119 383.601,277.726 383.330,278.000 383.000 C 278.274 382.670,278.755 382.400,279.070 382.400 C 279.565 382.400,280.304 382.066,283.600 380.351 C 285.281 379.477,287.510 378.395,288.400 378.022 C 288.950 377.791,289.670 377.444,290.000 377.251 C 290.330 377.058,292.040 376.203,293.800 375.350 C 295.560 374.498,297.061 373.661,297.137 373.490 C 297.212 373.320,297.842 372.915,298.537 372.591 C 299.231 372.267,300.340 371.650,301.000 371.220 C 302.665 370.136,304.025 369.329,305.200 368.728 C 305.750 368.446,306.290 368.114,306.400 367.989 C 306.510 367.864,307.500 367.245,308.600 366.613 C 309.700 365.982,311.344 364.910,312.254 364.233 C 313.164 363.555,314.317 362.730,314.816 362.400 C 315.316 362.070,316.007 361.485,316.351 361.100 C 316.696 360.715,317.125 360.400,317.305 360.400 C 317.937 360.400,326.130 354.024,329.343 351.032 C 330.384 350.063,332.253 348.399,333.496 347.335 C 334.739 346.271,336.569 344.680,337.563 343.800 C 339.764 341.851,344.872 336.549,345.337 335.731 C 345.523 335.405,346.243 334.544,346.937 333.819 C 350.361 330.244,353.576 326.480,356.243 322.924 C 357.861 320.766,359.459 318.715,359.793 318.366 C 360.127 318.018,360.400 317.563,360.400 317.355 C 360.400 317.148,360.715 316.696,361.100 316.351 C 361.485 316.007,362.070 315.316,362.400 314.816 C 362.730 314.317,363.586 313.129,364.302 312.176 C 365.017 311.223,365.784 310.029,366.006 309.522 C 366.227 309.015,367.125 307.520,368.000 306.200 C 368.875 304.880,369.776 303.440,370.002 303.000 C 370.227 302.560,370.770 301.660,371.207 301.000 C 371.644 300.340,372.267 299.231,372.591 298.537 C 372.915 297.842,373.320 297.212,373.490 297.137 C 373.661 297.061,374.216 296.100,374.725 295.000 C 375.233 293.900,375.811 292.730,376.008 292.400 C 376.553 291.488,379.302 285.652,379.776 284.400 C 379.901 284.070,380.531 282.900,381.175 281.800 C 381.820 280.700,382.359 279.507,382.373 279.149 C 382.388 278.791,382.670 278.274,383.000 278.000 C 383.330 277.726,383.600 277.024,383.600 276.440 C 383.600 275.856,383.847 275.023,384.149 274.589 C 384.451 274.155,384.834 273.170,385.000 272.400 C 385.166 271.630,385.549 270.645,385.851 270.211 C 386.153 269.777,386.400 269.046,386.400 268.587 C 386.400 268.128,386.664 267.404,386.987 266.976 C 387.310 266.549,387.580 265.837,387.587 265.394 C 387.594 264.951,387.960 263.916,388.400 263.096 C 388.840 262.275,389.200 261.277,389.200 260.878 C 389.200 260.479,389.464 259.804,389.787 259.376 C 390.110 258.949,390.380 258.019,390.387 257.308 C 390.394 256.598,390.656 255.338,390.968 254.508 C 391.281 253.679,391.656 252.286,391.802 251.414 C 391.949 250.541,392.323 249.335,392.634 248.734 C 392.945 248.132,393.200 247.085,393.200 246.407 C 393.200 245.729,393.449 244.578,393.754 243.848 C 394.059 243.119,394.434 241.550,394.587 240.361 C 394.741 239.172,395.122 237.312,395.433 236.227 C 395.745 235.142,396.000 233.228,396.000 231.973 C 396.000 230.719,396.255 228.816,396.567 227.746 C 397.083 225.977,397.421 223.297,398.400 213.200 C 398.827 208.804,398.827 191.596,398.400 187.200 C 397.387 176.756,397.095 174.413,396.574 172.565 C 396.258 171.446,395.992 169.646,395.983 168.565 C 395.973 167.484,395.782 165.790,395.558 164.800 C 395.333 163.810,394.967 161.830,394.742 160.400 C 394.518 158.970,394.079 157.233,393.767 156.540 C 393.455 155.846,393.200 154.712,393.200 154.020 C 393.200 153.327,392.951 152.274,392.647 151.680 C 392.343 151.086,391.963 149.808,391.802 148.841 C 391.641 147.873,391.260 146.484,390.955 145.754 C 390.650 145.023,390.394 143.835,390.387 143.113 C 390.380 142.391,390.110 141.451,389.787 141.024 C 389.464 140.596,389.194 139.876,389.186 139.424 C 389.179 138.971,388.825 137.880,388.400 137.000 C 387.975 136.120,387.615 135.130,387.601 134.800 C 387.586 134.470,387.310 133.851,386.987 133.424 C 386.664 132.996,386.400 132.370,386.400 132.031 C 386.400 131.353,385.018 127.609,384.151 125.938 C 383.848 125.354,383.600 124.431,383.600 123.887 C 383.600 123.343,383.330 122.674,383.000 122.400 C 382.670 122.126,382.388 121.609,382.373 121.251 C 382.359 120.893,381.820 119.700,381.175 118.600 C 380.531 117.500,379.904 116.330,379.782 116.000 C 379.660 115.670,379.209 114.734,378.780 113.921 C 378.351 113.107,378.000 112.184,378.000 111.870 C 378.000 111.555,377.730 111.074,377.400 110.800 C 377.070 110.526,376.800 109.977,376.800 109.580 C 376.800 109.182,376.554 108.611,376.253 108.310 C 375.952 108.009,375.570 107.321,375.404 106.781 C 375.238 106.242,374.906 105.556,374.667 105.257 C 374.024 104.456,373.284 103.145,372.773 101.900 C 372.525 101.295,372.177 100.800,372.000 100.800 C 371.823 100.800,371.480 100.305,371.238 99.700 C 370.996 99.095,370.483 98.124,370.099 97.543 C 368.920 95.760,366.631 91.995,366.041 90.868 C 365.733 90.281,364.995 89.170,364.401 88.400 C 363.806 87.630,362.637 86.010,361.802 84.800 C 360.968 83.590,360.035 82.330,359.730 82.000 C 359.424 81.670,357.910 79.690,356.365 77.600 C 353.300 73.454,351.239 70.998,347.945 67.564 C 346.765 66.335,344.969 64.355,343.954 63.164 C 341.363 60.125,340.139 58.891,337.449 56.600 C 336.157 55.500,333.908 53.464,332.450 52.075 C 328.500 48.312,323.926 44.585,319.596 41.600 C 319.117 41.270,318.247 40.586,317.663 40.079 C 317.078 39.573,315.846 38.641,314.924 38.009 C 312.160 36.113,310.612 35.012,310.400 34.792 C 310.290 34.677,309.750 34.360,309.200 34.088 C 308.650 33.815,307.660 33.236,307.000 32.802 C 306.340 32.367,305.433 31.848,304.984 31.648 C 304.535 31.447,303.927 30.995,303.635 30.642 C 303.342 30.289,302.773 30.000,302.371 30.000 C 301.969 30.000,301.496 29.771,301.320 29.492 C 301.144 29.212,300.550 28.760,300.000 28.487 C 299.450 28.215,298.460 27.634,297.800 27.197 C 297.140 26.760,296.105 26.204,295.500 25.962 C 294.895 25.720,294.400 25.374,294.400 25.193 C 294.400 25.012,293.872 24.748,293.228 24.606 C 292.583 24.464,291.841 24.090,291.579 23.774 C 291.317 23.458,290.696 23.200,290.200 23.200 C 289.704 23.200,289.074 22.930,288.800 22.600 C 288.526 22.270,287.992 22.000,287.612 22.000 C 287.233 22.000,286.507 21.640,286.000 21.200 C 285.493 20.760,284.767 20.400,284.388 20.400 C 284.008 20.400,283.474 20.130,283.200 19.800 C 282.926 19.470,282.467 19.200,282.180 19.200 C 281.893 19.200,280.449 18.570,278.972 17.800 C 277.495 17.030,275.935 16.400,275.505 16.400 C 275.075 16.400,274.246 16.152,273.662 15.849 C 272.086 15.031,268.263 13.600,267.654 13.600 C 267.362 13.600,266.646 13.355,266.062 13.055 C 265.081 12.553,264.238 12.228,261.000 11.110 C 260.340 10.882,259.209 10.449,258.486 10.148 C 257.764 9.846,256.594 9.599,255.886 9.598 C 255.179 9.596,254.131 9.351,253.559 9.052 C 252.986 8.753,251.639 8.377,250.564 8.216 C 249.490 8.054,248.122 7.670,247.525 7.361 C 246.928 7.053,245.903 6.800,245.246 6.800 C 244.589 6.800,243.545 6.587,242.926 6.326 C 241.849 5.873,238.933 5.339,232.400 4.400 C 230.750 4.163,228.500 3.790,227.400 3.572 C 220.163 2.133,191.771 1.034,186.400 1.984 M206.492 109.959 C 207.011 110.156,209.489 110.535,212.000 110.800 C 214.511 111.065,217.023 111.459,217.582 111.676 C 218.142 111.892,219.410 112.221,220.400 112.408 C 223.342 112.961,229.227 114.811,231.332 115.844 C 231.955 116.150,232.691 116.400,232.966 116.400 C 233.461 116.400,241.405 120.367,243.864 121.842 C 248.212 124.450,249.180 125.070,250.800 126.277 C 258.352 131.910,263.206 136.393,267.601 141.796 C 269.030 143.554,270.433 145.264,270.718 145.596 C 271.699 146.738,274.695 151.001,275.360 152.200 C 275.727 152.860,276.568 154.300,277.231 155.400 C 277.894 156.500,278.709 158.030,279.043 158.800 C 279.376 159.570,280.170 161.280,280.807 162.600 C 282.556 166.224,283.600 168.827,283.600 169.562 C 283.600 169.925,283.847 170.577,284.150 171.011 C 284.452 171.445,284.828 172.564,284.985 173.498 C 285.141 174.432,285.418 175.288,285.600 175.400 C 285.782 175.512,286.042 176.368,286.177 177.302 C 286.313 178.236,286.679 179.900,286.990 181.000 C 289.585 190.183,289.581 210.971,286.982 219.254 C 286.662 220.273,286.403 221.443,286.406 221.854 C 286.413 222.817,284.873 227.884,284.154 229.262 C 283.849 229.846,283.600 230.552,283.600 230.830 C 283.600 231.536,281.890 235.727,280.430 238.600 C 279.759 239.920,279.208 241.125,279.205 241.279 C 279.192 242.004,274.587 249.318,270.314 255.400 C 268.257 258.327,257.214 269.508,255.000 270.905 C 254.120 271.460,253.040 272.259,252.599 272.680 C 251.913 273.337,250.403 274.384,244.400 278.369 C 242.351 279.729,231.518 284.798,230.650 284.802 C 230.403 284.804,229.672 285.080,229.026 285.417 C 227.901 286.004,227.226 286.211,223.200 287.209 C 222.210 287.454,220.539 287.922,219.488 288.248 C 218.436 288.575,216.276 289.004,214.688 289.202 C 213.099 289.401,211.080 289.747,210.200 289.972 C 209.320 290.197,204.460 290.381,199.400 290.381 C 194.340 290.381,189.480 290.197,188.600 289.972 C 187.720 289.747,185.701 289.401,184.112 289.202 C 182.524 289.004,180.364 288.575,179.312 288.248 C 178.261 287.922,176.590 287.454,175.600 287.209 C 171.250 286.131,170.651 285.941,169.859 285.386 C 169.399 285.064,168.724 284.800,168.361 284.800 C 167.014 284.800,156.133 279.610,153.942 277.923 C 153.141 277.305,152.318 276.800,152.115 276.800 C 151.812 276.800,148.653 274.638,147.000 273.300 C 146.780 273.122,144.890 271.614,142.800 269.948 C 135.985 264.518,127.238 254.568,123.585 248.091 C 123.247 247.491,122.514 246.280,121.958 245.400 C 120.334 242.832,116.400 234.796,116.400 234.046 C 116.400 233.669,116.236 233.189,116.037 232.980 C 115.506 232.425,113.445 226.003,111.999 220.400 C 111.744 219.410,111.366 217.340,111.159 215.800 C 110.952 214.260,110.585 212.190,110.343 211.200 C 109.697 208.559,109.435 195.530,109.961 192.200 C 110.204 190.660,110.589 187.870,110.816 186.000 C 111.044 184.130,111.493 181.921,111.815 181.092 C 112.137 180.262,112.400 179.054,112.400 178.405 C 112.400 177.757,112.645 176.636,112.944 175.914 C 113.243 175.191,113.886 173.340,114.373 171.800 C 115.367 168.660,116.207 166.379,117.026 164.600 C 117.330 163.940,117.763 162.950,117.988 162.400 C 118.214 161.850,118.607 161.040,118.862 160.600 C 119.593 159.340,119.944 158.688,120.586 157.400 C 120.915 156.740,121.355 155.930,121.564 155.600 C 121.773 155.270,122.627 153.830,123.461 152.400 C 125.177 149.462,129.396 143.830,131.871 141.173 C 132.780 140.198,134.120 138.674,134.849 137.787 C 135.578 136.900,136.900 135.580,137.787 134.854 C 138.674 134.127,140.210 132.777,141.200 131.853 C 144.682 128.603,150.504 124.349,154.526 122.115 C 155.007 121.848,155.670 121.445,156.000 121.220 C 157.212 120.392,165.363 116.400,165.841 116.400 C 166.113 116.400,166.845 116.150,167.468 115.844 C 169.573 114.811,175.458 112.961,178.400 112.408 C 179.390 112.221,180.653 111.894,181.207 111.680 C 181.760 111.466,184.100 111.082,186.407 110.827 C 188.713 110.573,191.230 110.211,192.000 110.023 C 193.895 109.561,205.313 109.511,206.492 109.959 " stroke="none" fill="#e40414" fill-rule="evenodd"></path></g></svg>