<svg id="svg" version="1.1" xmlns="http://www.w3.org/2000/svg" xmlns:xlink="http://www.w3.org/1999/xlink" width="400" height="412.0075046904315" viewBox="0, 0, 400,412.0075046904315"><g id="svgg"><path id="path0" d="M119.600 12.293 C 119.600 22.222,118.762 21.186,126.802 21.195 C 135.025 21.203,155.041 23.548,160.800 25.178 C 161.570 25.396,163.820 25.950,165.800 26.410 C 198.152 33.912,228.854 51.237,253.635 75.974 C 279.148 101.441,295.668 132.368,303.540 169.400 C 309.228 196.159,307.496 231.304,299.215 257.198 C 298.547 259.287,298.000 261.136,298.000 261.308 C 298.000 262.064,292.667 275.749,291.211 278.728 C 290.325 280.542,289.600 282.115,289.600 282.224 C 289.600 282.854,284.057 293.345,281.264 298.000 C 253.114 344.926,207.235 376.246,152.600 385.837 C 145.176 387.140,142.255 387.424,130.400 387.992 C 125.230 388.239,120.771 388.518,120.492 388.612 C 120.098 388.743,120.008 390.646,120.092 397.066 L 120.200 405.351 126.600 405.254 C 139.258 405.062,154.131 403.230,166.000 400.402 C 167.870 399.956,170.210 399.426,171.200 399.223 C 177.870 397.858,194.133 392.250,204.000 387.912 C 268.334 359.626,314.338 298.024,322.375 229.400 C 322.607 227.420,323.010 224.090,323.270 222.000 C 323.923 216.758,323.929 193.458,323.279 187.600 C 322.318 178.951,321.546 173.310,320.786 169.400 C 319.487 162.712,319.100 160.912,317.995 156.400 C 317.322 153.650,316.600 150.860,316.392 150.200 C 312.820 138.889,309.995 130.956,307.951 126.492 C 307.318 125.111,306.800 123.902,306.800 123.807 C 306.800 123.444,301.343 112.450,299.649 109.400 C 298.672 107.640,297.676 105.837,297.436 105.394 C 279.404 72.060,242.252 38.351,205.931 22.370 C 203.879 21.467,201.390 20.359,200.400 19.907 C 197.468 18.569,186.130 14.471,181.700 13.147 C 180.325 12.736,177.985 12.037,176.500 11.592 C 173.617 10.730,162.719 8.142,159.400 7.531 C 148.777 5.578,138.993 4.531,127.846 4.157 L 119.600 3.880 119.600 12.293 M119.859 34.674 C 119.717 34.817,119.600 38.233,119.600 42.267 L 119.600 49.600 123.700 49.602 C 173.708 49.626,224.903 77.707,251.923 119.933 C 256.629 127.286,257.871 129.474,261.389 136.600 C 280.919 176.165,282.632 218.848,266.437 262.400 C 255.288 292.383,229.436 322.197,199.407 339.703 C 185.523 347.797,163.658 355.711,148.800 358.020 C 147.590 358.208,145.520 358.547,144.200 358.773 C 140.412 359.423,128.579 360.390,124.349 360.395 C 119.321 360.402,119.556 360.005,119.690 368.253 L 119.800 375.000 124.800 375.120 C 142.342 375.543,169.752 369.852,187.600 362.081 C 198.822 357.196,206.865 352.887,215.600 347.081 C 292.949 295.668,315.322 192.857,266.191 114.600 C 262.705 109.047,255.311 98.746,253.988 97.600 C 253.861 97.490,252.796 96.230,251.621 94.800 C 237.762 77.936,212.956 58.993,194.124 50.891 C 193.016 50.415,190.960 49.493,189.555 48.843 C 172.624 41.007,149.466 35.744,128.632 34.998 C 124.875 34.863,121.422 34.677,120.959 34.584 C 120.497 34.491,120.002 34.531,119.859 34.674 M119.600 68.716 C 119.600 76.222,119.097 75.600,125.169 75.600 C 127.536 75.600,130.986 75.781,132.836 76.002 C 141.177 76.998,143.101 77.257,144.600 77.585 C 145.480 77.777,147.280 78.155,148.600 78.425 C 184.762 85.803,217.382 109.924,235.390 142.600 C 238.479 148.205,243.200 158.565,243.200 159.738 C 243.200 160.014,243.366 160.411,243.569 160.620 C 243.975 161.037,247.018 170.728,247.646 173.600 C 247.862 174.590,248.212 176.120,248.424 177.000 C 248.802 178.568,248.937 179.313,250.163 186.585 C 252.365 199.655,251.769 216.688,248.550 232.600 C 247.252 239.021,243.742 249.903,241.158 255.518 C 240.521 256.903,240.000 258.120,240.000 258.222 C 240.000 258.325,239.310 259.801,238.467 261.504 C 220.884 297.004,189.965 321.642,151.200 331.042 C 143.998 332.788,136.357 333.859,128.800 334.180 C 125.610 334.316,122.235 334.522,121.300 334.638 L 119.600 334.849 119.600 341.037 C 119.600 346.344,119.691 347.260,120.241 347.471 C 121.680 348.023,138.119 346.638,146.800 345.233 C 153.206 344.195,166.301 340.658,170.600 338.802 C 171.040 338.612,173.560 337.604,176.200 336.561 C 183.902 333.519,197.778 326.041,202.400 322.441 C 203.170 321.842,204.700 320.746,205.800 320.006 C 217.575 312.085,234.104 294.606,241.740 282.000 C 242.607 280.570,243.823 278.657,244.443 277.750 C 246.405 274.877,251.774 263.952,253.964 258.373 C 255.125 255.418,256.229 252.640,256.417 252.200 C 260.833 241.902,264.412 220.839,264.388 205.284 C 264.369 193.205,263.196 182.917,260.617 172.226 C 259.460 167.429,256.914 158.633,256.393 157.632 C 256.212 157.284,255.669 155.920,255.186 154.600 C 252.819 148.126,247.004 136.052,244.398 132.200 C 243.802 131.320,242.599 129.415,241.723 127.967 C 236.592 119.481,225.303 106.285,216.600 98.599 C 214.510 96.753,206.171 90.122,204.708 89.142 C 203.934 88.624,202.209 87.435,200.873 86.500 C 199.537 85.565,198.350 84.800,198.234 84.800 C 198.119 84.800,196.804 84.019,195.312 83.065 C 191.624 80.705,185.810 77.646,180.778 75.418 C 178.480 74.401,176.240 73.401,175.800 73.196 C 163.741 67.577,144.168 63.477,125.100 62.578 L 119.600 62.318 119.600 68.716 M119.600 92.950 C 119.600 96.976,119.732 98.469,120.100 98.590 C 120.375 98.680,123.750 98.941,127.600 99.169 C 200.807 103.503,247.326 179.171,218.484 247.000 C 202.720 284.072,167.992 308.346,127.000 310.944 L 119.800 311.400 119.800 316.800 L 119.800 322.200 125.824 322.161 C 137.306 322.086,150.445 319.495,162.600 314.909 C 192.512 303.622,217.173 279.806,229.190 250.600 C 229.915 248.840,230.661 247.040,230.849 246.600 C 232.273 243.266,235.784 230.726,236.392 226.800 C 236.580 225.590,237.054 222.620,237.447 220.200 C 238.316 214.838,238.450 196.579,237.658 191.400 C 236.479 183.687,235.920 180.663,234.985 176.954 C 233.740 172.016,231.206 163.927,230.746 163.420 C 230.556 163.211,230.400 162.818,230.400 162.547 C 230.400 161.819,228.172 156.866,225.369 151.360 C 212.217 125.531,190.309 105.849,162.876 95.219 C 156.167 92.619,146.814 90.059,140.800 89.176 C 133.694 88.133,132.271 87.994,126.100 87.741 L 119.600 87.475 119.600 92.950 M119.600 118.294 L 119.600 123.077 124.900 123.322 C 158.000 124.855,187.206 146.131,198.311 176.800 C 217.269 229.159,180.633 283.807,124.600 286.748 L 119.800 287.000 119.687 291.507 C 119.549 297.011,118.994 296.674,127.152 296.036 C 171.266 292.587,204.079 262.587,211.850 218.600 C 212.745 213.533,212.880 197.893,212.071 193.000 C 204.479 147.068,170.425 116.261,124.500 113.777 L 119.600 113.512 119.600 118.294 " stroke="none" fill="#f8f9fa" fill-rule="evenodd"></path><path id="path1" d="M0.000 206.000 L 0.000 412.000 200.000 412.000 L 400.000 412.000 400.000 206.000 L 400.000 0.000 200.000 0.000 L 0.000 0.000 0.000 206.000 M141.546 5.012 C 148.916 5.793,153.340 6.417,159.400 7.531 C 162.719 8.142,173.617 10.730,176.500 11.592 C 177.985 12.037,180.325 12.736,181.700 13.147 C 186.130 14.471,197.468 18.569,200.400 19.907 C 201.390 20.359,203.879 21.467,205.931 22.370 C 233.240 34.386,259.134 54.517,280.070 80.010 C 284.348 85.219,294.738 100.407,297.436 105.394 C 297.676 105.837,298.672 107.640,299.649 109.400 C 301.343 112.450,306.800 123.444,306.800 123.807 C 306.800 123.902,307.318 125.111,307.951 126.492 C 309.995 130.956,312.820 138.889,316.392 150.200 C 316.600 150.860,317.322 153.650,317.995 156.400 C 319.100 160.912,319.487 162.712,320.786 169.400 C 321.546 173.310,322.318 178.951,323.279 187.600 C 323.929 193.458,323.923 216.758,323.270 222.000 C 323.010 224.090,322.607 227.420,322.375 229.400 C 314.338 298.024,268.334 359.626,204.000 387.912 C 194.133 392.250,177.870 397.858,171.200 399.223 C 170.210 399.426,167.870 399.956,166.000 400.402 C 154.131 403.230,139.258 405.062,126.600 405.254 L 120.200 405.351 120.092 397.066 C 120.008 390.646,120.098 388.743,120.492 388.612 C 120.771 388.518,125.230 388.239,130.400 387.992 C 146.428 387.224,154.566 386.014,169.400 382.193 C 218.061 369.658,261.062 335.885,285.001 291.400 C 287.184 287.345,289.600 282.523,289.600 282.224 C 289.600 282.115,290.325 280.542,291.211 278.728 C 292.667 275.749,298.000 262.064,298.000 261.308 C 298.000 261.136,298.547 259.287,299.215 257.198 C 307.496 231.304,309.228 196.159,303.540 169.400 C 297.540 141.177,287.225 117.986,270.812 95.816 C 254.596 73.914,232.916 55.393,208.382 42.484 C 194.867 35.373,179.599 29.610,165.800 26.410 C 163.820 25.950,161.570 25.396,160.800 25.178 C 155.041 23.548,135.025 21.203,126.802 21.195 C 118.762 21.186,119.600 22.222,119.600 12.293 L 119.600 3.880 127.846 4.157 C 132.381 4.309,138.546 4.694,141.546 5.012 M128.632 34.998 C 149.466 35.744,172.624 41.007,189.555 48.843 C 190.960 49.493,193.016 50.415,194.124 50.891 C 212.956 58.993,237.762 77.936,251.621 94.800 C 252.796 96.230,253.861 97.490,253.988 97.600 C 255.311 98.746,262.705 109.047,266.191 114.600 C 315.322 192.857,292.949 295.668,215.600 347.081 C 206.865 352.887,198.822 357.196,187.600 362.081 C 169.752 369.852,142.342 375.543,124.800 375.120 L 119.800 375.000 119.690 368.253 C 119.556 360.005,119.321 360.402,124.349 360.395 C 128.579 360.390,140.412 359.423,144.200 358.773 C 145.520 358.547,147.590 358.208,148.800 358.020 C 186.424 352.173,224.588 328.200,248.234 295.560 C 275.187 258.352,284.321 207.853,271.993 164.200 C 268.364 151.350,261.454 135.102,255.719 125.933 C 246.913 111.856,241.741 105.255,231.633 95.198 C 202.818 66.525,162.803 49.621,123.700 49.602 L 119.600 49.600 119.600 42.267 C 119.600 34.521,119.636 34.317,120.959 34.584 C 121.422 34.677,124.875 34.863,128.632 34.998 M135.200 63.241 C 148.031 64.366,166.648 68.931,175.800 73.196 C 176.240 73.401,178.480 74.401,180.778 75.418 C 185.810 77.646,191.624 80.705,195.312 83.065 C 196.804 84.019,198.119 84.800,198.234 84.800 C 198.350 84.800,199.537 85.565,200.873 86.500 C 202.209 87.435,203.934 88.624,204.708 89.142 C 206.171 90.122,214.510 96.753,216.600 98.599 C 225.303 106.285,236.592 119.481,241.723 127.967 C 242.599 129.415,243.802 131.320,244.398 132.200 C 247.004 136.052,252.819 148.126,255.186 154.600 C 255.669 155.920,256.212 157.284,256.393 157.632 C 258.723 162.109,262.691 180.294,263.805 191.600 C 265.717 211.020,262.397 238.255,256.417 252.200 C 256.229 252.640,255.125 255.418,253.964 258.373 C 251.774 263.952,246.405 274.877,244.443 277.750 C 243.823 278.657,242.607 280.570,241.740 282.000 C 234.104 294.606,217.575 312.085,205.800 320.006 C 204.700 320.746,203.170 321.842,202.400 322.441 C 197.778 326.041,183.902 333.519,176.200 336.561 C 173.560 337.604,171.040 338.612,170.600 338.802 C 161.225 342.848,144.441 346.222,128.741 347.218 C 118.633 347.860,119.600 348.514,119.600 341.037 L 119.600 334.849 121.300 334.638 C 122.235 334.522,125.610 334.316,128.800 334.180 C 136.357 333.859,143.998 332.788,151.200 331.042 C 189.965 321.642,220.884 297.004,238.467 261.504 C 239.310 259.801,240.000 258.325,240.000 258.222 C 240.000 258.120,240.521 256.903,241.158 255.518 C 243.742 249.903,247.252 239.021,248.550 232.600 C 251.769 216.688,252.365 199.655,250.163 186.585 C 248.937 179.313,248.802 178.568,248.424 177.000 C 248.212 176.120,247.862 174.590,247.646 173.600 C 247.018 170.728,243.975 161.037,243.569 160.620 C 243.366 160.411,243.200 160.014,243.200 159.738 C 243.200 158.565,238.479 148.205,235.390 142.600 C 217.382 109.924,184.762 85.803,148.600 78.425 C 147.280 78.155,145.480 77.777,144.600 77.585 C 143.101 77.257,141.177 76.998,132.836 76.002 C 130.986 75.781,127.536 75.600,125.169 75.600 C 119.097 75.600,119.600 76.222,119.600 68.716 L 119.600 62.318 125.100 62.578 C 128.125 62.720,132.670 63.019,135.200 63.241 M135.200 88.372 C 142.154 89.346,144.110 89.692,148.000 90.640 C 184.878 99.625,213.689 123.950,229.117 159.127 C 229.822 160.736,230.400 162.275,230.400 162.547 C 230.400 162.818,230.556 163.211,230.746 163.420 C 231.206 163.927,233.740 172.016,234.985 176.954 C 235.920 180.663,236.479 183.687,237.658 191.400 C 238.450 196.579,238.316 214.838,237.447 220.200 C 237.054 222.620,236.580 225.590,236.392 226.800 C 235.784 230.726,232.273 243.266,230.849 246.600 C 230.661 247.040,229.915 248.840,229.190 250.600 C 217.173 279.806,192.512 303.622,162.600 314.909 C 150.445 319.495,137.306 322.086,125.824 322.161 L 119.800 322.200 119.800 316.800 L 119.800 311.400 127.000 310.944 C 167.992 308.346,202.720 284.072,218.484 247.000 C 247.326 179.171,200.807 103.503,127.600 99.169 C 123.750 98.941,120.375 98.680,120.100 98.590 C 119.732 98.469,119.600 96.976,119.600 92.950 L 119.600 87.475 126.100 87.741 C 129.675 87.888,133.770 88.172,135.200 88.372 M133.800 114.651 C 171.956 119.934,203.259 148.905,210.745 185.864 C 212.411 194.089,212.600 196.107,212.578 205.400 C 212.463 253.869,176.344 292.189,127.152 296.036 C 118.994 296.674,119.549 297.011,119.687 291.507 L 119.800 287.000 124.600 286.748 C 180.633 283.807,217.269 229.159,198.311 176.800 C 187.206 146.131,158.000 124.855,124.900 123.322 L 119.600 123.077 119.600 118.294 L 119.600 113.512 124.500 113.777 C 127.195 113.922,131.380 114.316,133.800 114.651 " stroke="none" fill="#136383" fill-rule="evenodd"></path></g></svg>