<svg id="svg" version="1.1" xmlns="http://www.w3.org/2000/svg" xmlns:xlink="http://www.w3.org/1999/xlink" width="400" height="400.2546148949713" viewBox="0, 0, 400,400.2546148949713"><g id="svgg"><path id="path0" d="M122.470 87.803 L 122.470 91.838 127.244 91.990 C 197.855 94.234,247.210 165.212,225.570 233.395 C 211.975 276.231,172.059 306.578,127.053 308.296 L 122.597 308.466 122.527 312.476 L 122.457 316.486 125.582 316.484 C 141.445 316.470,160.293 311.656,175.812 303.653 C 228.919 276.266,252.699 212.950,230.758 157.352 C 213.692 114.104,170.390 83.809,125.589 83.771 L 122.470 83.768 122.470 87.803 M122.470 113.098 L 122.470 116.280 126.735 116.441 C 180.404 118.473,218.429 171.505,203.526 223.540 C 193.577 258.275,160.064 284.150,125.023 284.150 L 122.470 284.150 122.470 287.333 L 122.470 290.516 125.278 290.516 C 166.153 290.516,204.112 258.084,211.699 216.677 C 221.562 162.856,181.031 112.001,126.735 110.068 L 122.470 109.916 122.470 113.098 " stroke="none" fill="#6cb43c" fill-rule="evenodd"></path><path id="path1" d="M122.470 63.233 L 122.470 68.237 126.098 68.238 C 137.972 68.242,153.524 71.013,166.136 75.372 C 234.556 99.018,271.310 172.720,248.854 241.248 C 231.705 293.580,182.825 330.183,127.689 331.979 L 122.597 332.145 122.528 337.086 L 122.458 342.027 128.002 341.867 C 197.156 339.866,255.566 286.692,264.257 217.823 C 274.677 135.261,210.905 60.773,127.753 58.381 L 122.470 58.229 122.470 63.233 " stroke="none" fill="#048454" fill-rule="evenodd"></path><path id="path2" d="M122.470 6.834 L 122.470 13.749 123.806 13.752 C 247.331 13.975,337.613 131.704,304.744 249.695 C 282.673 328.923,212.033 383.326,127.244 386.396 L 122.724 386.560 122.724 393.448 L 122.724 400.335 129.153 400.171 C 228.774 397.623,312.853 321.331,324.090 223.288 C 325.150 214.042,325.271 211.654,325.269 200.000 C 325.263 156.223,311.674 115.512,285.451 80.713 C 248.459 31.623,190.233 1.610,129.026 0.083 L 122.470 -0.081 122.470 6.834 M122.470 36.410 L 122.470 42.266 124.733 42.266 C 198.485 42.266,264.138 96.467,278.785 169.446 C 297.951 264.938,226.177 354.417,127.626 357.895 L 122.724 358.068 122.724 363.884 L 122.724 369.701 126.102 369.701 C 180.101 369.701,235.040 339.635,265.431 293.452 C 326.753 200.266,283.852 75.893,177.855 39.560 C 161.774 34.048,141.662 30.554,126.014 30.554 L 122.470 30.554 122.470 36.410 " stroke="none" fill="#0474ac" fill-rule="evenodd"></path><path id="path3" d="" stroke="none" fill="#000000" fill-rule="evenodd"></path><path id="path4" d="M2.169 0.582 C -0.711 2.214,-0.711 6.698,2.169 8.329 C 5.310 10.108,9.158 7.975,9.158 4.456 C 9.158 0.937,5.310 -1.196,2.169 0.582 M6.887 1.083 C 10.295 3.380,8.715 8.402,4.583 8.402 C 0.452 8.402,-1.129 3.380,2.279 1.083 C 3.468 0.282,5.698 0.282,6.887 1.083 M2.589 3.099 C 2.698 3.865,3.692 3.941,3.692 3.183 C 3.692 2.843,3.494 2.645,3.099 2.589 C 2.605 2.519,2.519 2.605,2.589 3.099 M5.432 2.945 C 5.348 3.165,5.401 3.466,5.551 3.616 C 5.947 4.012,6.620 3.664,6.620 3.063 C 6.620 2.435,5.665 2.340,5.432 2.945 M2.037 6.378 C 2.037 6.750,3.641 7.384,4.583 7.384 C 5.592 7.384,7.213 6.707,7.006 6.372 C 6.902 6.204,6.585 6.247,6.109 6.494 C 5.189 6.969,3.889 6.969,3.055 6.493 C 2.286 6.053,2.037 6.025,2.037 6.378 M393.003 391.162 C 389.015 393.420,390.774 399.482,395.417 399.482 C 398.115 399.482,399.992 397.658,399.992 395.035 C 399.992 392.412,398.115 390.588,395.417 390.588 C 394.433 390.588,393.715 390.758,393.003 391.162 M397.721 391.662 C 401.129 393.959,399.548 398.982,395.417 398.982 C 392.969 398.982,391.301 397.382,391.301 395.035 C 391.301 392.688,392.969 391.088,395.417 391.088 C 396.502 391.088,397.085 391.234,397.721 391.662 M393.423 393.678 C 393.479 394.073,393.677 394.271,394.017 394.271 C 394.775 394.271,394.699 393.277,393.933 393.169 C 393.439 393.099,393.353 393.184,393.423 393.678 M396.266 393.524 C 396.182 393.744,396.235 394.046,396.384 394.195 C 396.781 394.591,397.454 394.243,397.454 393.643 C 397.454 393.015,396.498 392.920,396.266 393.524 M392.871 396.958 C 392.871 397.330,394.475 397.963,395.417 397.963 C 396.426 397.963,398.047 397.286,397.840 396.951 C 397.736 396.783,397.419 396.827,396.943 397.073 C 396.023 397.549,394.722 397.548,393.889 397.072 C 393.119 396.632,392.871 396.604,392.871 396.958 " stroke="none" fill="#3ca8a8" fill-rule="evenodd"></path><path id="path5" d="" stroke="none" fill="#04aca8" fill-rule="evenodd"></path></g></svg>