<svg id="svg" version="1.1" xmlns="http://www.w3.org/2000/svg" xmlns:xlink="http://www.w3.org/1999/xlink" width="400" height="226.91292875989447" viewBox="0, 0, 400,226.91292875989447"><g id="svgg"><path id="path0" d="M148.813 2.296 L 148.813 4.675 152.045 4.856 C 204.490 7.806,231.605 67.240,199.046 107.878 C 187.834 121.872,170.802 130.425,151.898 131.555 L 148.813 131.740 148.813 134.116 L 148.813 136.492 152.704 136.326 C 194.301 134.558,225.009 95.245,216.625 54.496 C 210.412 24.300,183.471 1.365,152.704 0.080 L 148.813 -0.082 148.813 2.296 M148.813 12.376 L 148.813 14.512 150.462 14.520 C 171.531 14.625,192.068 29.228,199.598 49.458 C 212.146 83.169,189.024 118.791,152.704 121.701 L 148.813 122.012 148.813 124.083 L 148.813 126.153 151.385 125.988 C 173.679 124.551,191.947 112.585,201.328 93.272 C 219.472 55.916,193.777 13.061,151.649 10.417 L 148.813 10.239 148.813 12.376 M148.813 21.483 L 148.813 23.177 150.594 23.330 C 164.569 24.535,174.981 29.484,182.899 38.689 C 207.138 66.868,189.576 109.706,152.441 112.985 L 148.813 113.306 148.813 115.005 L 148.813 116.704 152.009 116.532 C 183.659 114.830,205.299 82.577,194.952 52.527 C 188.465 33.685,169.316 19.789,149.840 19.789 L 148.813 19.789 148.813 21.483 M148.813 29.665 C 148.813 30.746,148.910 31.135,149.180 31.135 C 173.804 31.135,191.607 56.222,183.745 79.843 C 179.052 93.944,164.740 104.749,150.757 104.749 L 148.813 104.749 148.813 106.239 L 148.813 107.729 151.913 107.567 C 163.044 106.985,174.372 100.683,180.956 91.410 C 199.317 65.550,182.816 30.834,150.989 28.365 L 148.813 28.196 148.813 29.665 M148.813 38.673 L 148.813 39.756 151.712 40.070 C 173.629 42.447,184.936 67.013,172.331 84.868 C 167.495 91.719,158.341 96.834,150.916 96.834 C 149.047 96.834,148.813 96.988,148.813 98.221 L 148.813 99.288 151.385 99.128 C 163.526 98.373,174.482 89.753,178.332 77.927 C 184.478 59.046,171.110 39.124,151.385 37.767 L 148.813 37.590 148.813 38.673 M385.553 173.021 L 385.620 208.047 392.810 208.118 L 400.000 208.188 400.000 173.091 L 400.000 137.995 392.743 137.995 L 385.486 137.995 385.553 173.021 M0.000 144.195 L 0.000 150.132 10.290 150.132 L 20.580 150.132 20.580 179.288 L 20.580 208.443 28.232 208.443 L 35.884 208.443 35.884 179.288 L 35.884 150.132 46.306 150.132 L 56.728 150.132 56.728 144.195 L 56.728 138.259 28.364 138.259 L 0.000 138.259 0.000 144.195 M271.636 146.624 C 268.734 147.694,265.557 148.872,264.578 149.242 L 262.797 149.914 262.797 154.640 L 262.797 159.367 258.179 159.367 L 253.562 159.367 253.562 164.248 L 253.562 169.129 258.166 169.129 L 262.769 169.129 262.849 184.499 C 262.943 202.610,263.024 203.105,266.381 206.053 C 269.886 209.130,278.823 209.932,286.913 207.895 L 288.127 207.589 288.126 202.805 L 288.126 198.021 284.103 198.021 C 276.879 198.021,277.203 198.770,277.097 181.860 L 277.017 169.129 282.842 169.129 L 288.666 169.129 288.594 164.314 L 288.522 159.499 282.788 159.428 L 277.053 159.356 276.983 152.018 L 276.913 144.679 271.636 146.624 M66.359 157.932 C 53.984 160.033,47.141 169.550,47.113 184.697 C 47.082 201.649,54.876 210.031,70.666 210.025 C 82.773 210.021,91.821 203.287,91.821 194.280 L 91.821 193.658 85.327 193.729 L 78.833 193.799 78.333 195.139 C 75.629 202.391,64.251 201.868,61.758 194.376 C 61.283 192.948,60.695 189.333,60.688 187.797 C 60.686 187.362,61.634 187.335,76.913 187.335 L 93.140 187.335 93.140 183.792 C 93.140 165.813,82.194 155.243,66.359 157.932 M226.385 157.640 C 226.168 157.693,225.099 157.880,224.011 158.055 C 213.271 159.787,206.370 168.382,205.246 181.428 C 203.543 201.191,214.536 212.286,233.342 209.782 C 242.706 208.536,249.868 201.926,249.868 194.530 L 249.868 193.668 243.462 193.668 L 237.057 193.668 236.309 195.385 C 234.794 198.861,232.034 200.433,227.832 200.212 C 222.254 199.919,219.019 195.854,219.002 189.116 L 218.997 187.335 235.080 187.335 L 251.163 187.335 251.342 186.386 C 251.579 185.121,251.258 179.861,250.766 176.955 C 249.193 167.661,243.518 160.789,235.478 158.443 C 233.276 157.801,227.735 157.311,226.385 157.640 M349.620 158.061 C 336.346 159.725,328.501 169.302,328.447 183.905 C 328.389 199.428,337.410 209.201,352.243 209.687 C 368.792 210.229,379.125 200.175,379.149 183.509 C 379.174 166.458,366.914 155.892,349.620 158.061 M116.906 158.583 C 105.440 160.979,99.077 170.037,99.117 183.905 C 99.165 200.379,106.999 209.328,121.372 209.328 C 133.616 209.328,141.689 202.205,141.689 191.402 L 141.689 190.237 134.709 190.237 L 127.728 190.237 127.585 191.227 C 126.662 197.591,123.717 200.672,119.697 199.479 C 112.536 197.353,111.738 171.907,118.721 168.344 C 122.672 166.328,125.944 168.746,127.079 174.520 L 127.523 176.781 134.474 176.781 L 141.425 176.781 141.425 175.448 C 141.425 168.186,136.173 161.611,128.364 159.097 C 126.297 158.431,119.165 158.111,116.906 158.583 M172.823 158.709 C 169.142 159.606,166.029 161.681,163.850 164.689 L 163.107 165.714 162.948 163.794 C 162.861 162.738,162.761 161.280,162.727 160.554 L 162.665 159.235 155.739 159.164 L 148.813 159.094 148.813 193.004 L 148.813 226.913 156.069 226.913 L 163.325 226.913 163.325 214.967 L 163.325 203.020 164.873 204.493 C 171.582 210.878,183.504 210.323,190.369 203.307 C 201.011 192.432,200.131 169.159,188.786 161.459 C 184.639 158.645,177.870 157.479,172.823 158.709 M321.074 159.122 C 316.244 159.831,312.556 162.332,310.355 166.389 L 309.513 167.942 309.506 165.541 C 309.502 164.221,309.422 162.232,309.328 161.122 L 309.157 159.103 302.452 159.103 L 295.746 159.103 295.896 160.224 C 296.339 163.550,296.567 173.603,296.568 189.908 L 296.570 208.179 303.681 208.179 L 310.792 208.179 310.876 193.997 C 310.958 180.150,310.974 179.774,311.547 178.073 C 313.011 173.728,317.029 171.614,323.464 171.801 L 325.989 171.875 326.060 165.357 L 326.131 158.839 324.345 158.871 C 323.363 158.889,321.891 159.002,321.074 159.122 M73.452 168.085 C 76.309 169.154,78.002 172.019,78.475 176.583 L 78.633 178.100 69.923 178.100 C 61.803 178.100,61.214 178.069,61.218 177.639 C 61.289 170.554,67.366 165.808,73.452 168.085 M177.125 168.341 C 185.582 172.316,185.438 194.240,176.927 198.429 C 170.884 201.405,164.695 197.494,163.169 189.735 C 160.460 175.963,168.176 164.135,177.125 168.341 M232.058 168.267 C 234.738 169.669,236.660 173.516,236.673 177.507 L 236.675 178.100 227.985 178.100 L 219.294 178.100 219.428 177.111 C 220.083 172.242,221.911 169.368,225.178 168.073 C 226.987 167.356,230.505 167.456,232.058 168.267 M355.769 167.803 C 361.714 168.776,364.172 173.229,364.222 183.113 C 364.276 193.787,361.946 198.387,355.937 199.476 C 347.691 200.970,343.256 195.486,343.277 183.820 C 343.298 171.980,347.599 166.465,355.769 167.803 " stroke="none" fill="#000000" fill-rule="evenodd"></path></g></svg>