<svg id="svg" version="1.1" xmlns="http://www.w3.org/2000/svg" xmlns:xlink="http://www.w3.org/1999/xlink" width="400" height="336.8421052631579" viewBox="0, 0, 400,336.8421052631579"><g id="svgg"><path id="path0" d="M149.705 40.473 C 149.168 41.030,149.156 43.546,149.688 44.078 C 149.934 44.324,151.155 44.485,152.805 44.490 C 154.297 44.494,156.125 44.643,156.866 44.821 C 157.607 44.999,159.579 45.379,161.247 45.667 C 164.152 46.169,170.652 48.007,171.356 48.526 C 171.542 48.663,172.300 48.965,173.041 49.197 C 181.064 51.711,196.142 63.696,199.965 70.598 C 200.273 71.154,201.103 72.410,201.810 73.388 C 204.141 76.614,207.758 84.398,208.913 88.673 C 209.245 89.903,209.607 91.055,209.716 91.232 C 210.483 92.472,211.761 102.644,211.740 107.329 C 211.701 115.620,208.838 128.800,206.212 132.772 C 206.028 133.050,205.779 133.580,205.658 133.951 C 204.980 136.038,202.276 140.471,198.819 145.166 C 194.964 150.401,188.029 156.734,182.420 160.142 C 181.895 160.461,181.238 160.868,180.960 161.047 C 180.682 161.226,180.000 161.592,179.444 161.860 C 178.888 162.127,177.523 162.830,176.411 163.422 C 173.137 165.163,169.162 166.551,162.932 168.126 C 160.242 168.807,155.088 169.503,152.743 169.503 C 151.010 169.503,150.196 169.650,149.813 170.032 C 149.188 170.658,149.096 173.224,149.678 173.806 C 150.269 174.397,158.018 173.989,160.741 173.224 C 161.946 172.885,163.911 172.428,165.108 172.207 C 166.305 171.987,167.670 171.612,168.141 171.374 C 168.612 171.136,169.584 170.835,170.301 170.705 C 171.018 170.575,172.411 170.100,173.396 169.649 C 174.382 169.198,175.293 168.829,175.420 168.829 C 175.548 168.829,176.885 168.201,178.391 167.434 C 179.897 166.667,181.692 165.756,182.381 165.410 C 183.740 164.727,185.168 163.791,187.059 162.342 C 187.725 161.832,188.383 161.415,188.522 161.415 C 190.205 161.415,201.826 149.325,205.055 144.215 C 207.301 140.660,210.612 134.496,210.617 133.858 C 210.618 133.724,210.863 133.159,211.162 132.603 C 211.913 131.204,213.851 125.152,214.133 123.325 C 214.261 122.497,214.696 120.758,215.101 119.461 C 216.118 116.197,216.219 98.486,215.239 95.295 C 214.914 94.237,214.357 92.038,214.002 90.409 C 213.221 86.830,212.524 84.643,211.435 82.359 C 210.984 81.414,210.611 80.504,210.606 80.337 C 210.599 80.071,210.102 79.054,207.413 73.799 C 207.081 73.151,206.599 72.375,206.341 72.075 C 206.084 71.775,205.378 70.713,204.773 69.716 C 202.385 65.777,196.419 59.062,192.252 55.623 C 190.299 54.012,184.140 49.650,182.914 49.009 C 181.361 48.198,176.085 45.604,174.726 44.984 C 167.865 41.851,151.261 38.857,149.705 40.473 M149.433 51.349 C 148.760 54.028,149.573 54.490,155.079 54.562 C 157.425 54.593,166.048 56.611,167.313 57.425 C 167.683 57.664,168.593 58.048,169.334 58.278 C 170.802 58.734,173.607 60.096,175.737 61.387 C 176.479 61.836,177.599 62.500,178.227 62.863 C 181.383 64.683,189.219 71.985,191.001 74.766 C 191.313 75.254,192.190 76.487,192.950 77.506 C 193.709 78.526,194.606 79.890,194.942 80.539 C 196.662 83.851,198.090 86.915,198.477 88.121 C 198.714 88.863,199.042 89.638,199.204 89.844 C 199.367 90.051,199.658 91.112,199.850 92.203 C 200.043 93.294,200.533 95.249,200.940 96.546 C 201.980 99.860,202.054 113.776,201.051 117.270 C 200.705 118.475,200.224 120.371,199.982 121.483 C 199.120 125.453,195.779 132.725,193.093 136.479 C 192.364 137.498,191.359 138.939,190.860 139.680 C 185.731 147.302,168.289 158.382,161.419 158.382 C 160.874 158.382,159.660 158.686,158.719 159.056 C 157.400 159.577,156.215 159.730,153.525 159.730 C 149.566 159.730,149.177 159.938,149.346 161.959 C 149.437 163.038,149.601 163.267,150.463 163.512 C 153.623 164.413,167.528 161.448,172.174 158.883 C 172.651 158.619,173.572 158.170,174.221 157.885 C 174.869 157.599,176.110 156.950,176.977 156.442 C 177.845 155.934,179.014 155.252,179.577 154.926 C 180.139 154.601,181.628 153.566,182.886 152.628 C 208.498 133.515,213.343 97.323,193.682 71.979 C 190.686 68.116,183.231 61.281,180.064 59.491 C 179.537 59.194,178.425 58.557,177.591 58.077 C 169.213 53.252,159.998 50.548,151.933 50.548 C 149.793 50.548,149.620 50.603,149.433 51.349 M149.537 59.832 C 148.042 61.391,149.740 62.917,153.237 63.157 C 159.816 63.609,169.169 66.707,173.132 69.747 C 177.221 72.885,178.277 73.738,179.569 74.948 C 184.711 79.763,190.396 88.795,191.254 93.513 C 191.389 94.254,191.768 95.553,192.097 96.398 C 193.776 100.716,193.661 113.506,191.898 118.503 C 191.450 119.771,191.081 121.084,191.077 121.419 C 191.053 123.461,186.998 130.721,183.456 135.064 C 180.090 139.191,172.020 145.914,170.432 145.914 C 170.256 145.914,169.704 146.205,169.206 146.560 C 168.180 147.290,165.328 148.376,162.089 149.268 C 160.885 149.600,159.520 150.029,159.056 150.222 C 158.593 150.415,156.470 150.754,154.339 150.975 C 149.562 151.471,149.213 151.631,149.349 153.266 C 149.478 154.815,150.917 155.043,155.181 154.190 C 156.664 153.894,158.711 153.490,159.730 153.292 C 163.951 152.474,168.676 150.614,173.773 147.765 C 177.323 145.781,184.767 139.192,186.652 136.366 C 187.854 134.563,188.537 133.606,188.736 133.446 C 189.533 132.802,193.676 124.399,194.467 121.820 C 197.538 111.806,197.221 97.514,193.779 90.830 C 193.401 90.096,193.092 89.301,193.092 89.064 C 193.092 88.827,192.339 87.186,191.420 85.417 C 185.202 73.460,174.379 64.595,161.941 61.272 C 160.633 60.922,159.031 60.495,158.382 60.322 C 156.761 59.890,149.848 59.507,149.537 59.832 M149.469 68.718 C 148.607 70.113,149.694 70.902,152.991 71.276 C 156.014 71.619,160.174 72.475,161.078 72.941 C 161.542 73.180,162.527 73.568,163.269 73.803 C 164.010 74.038,165.019 74.512,165.511 74.857 C 166.003 75.202,166.560 75.484,166.749 75.484 C 166.938 75.484,167.521 75.829,168.045 76.251 C 168.569 76.673,169.420 77.232,169.937 77.494 C 173.489 79.296,182.308 90.208,182.308 92.802 C 182.308 93.022,182.618 93.803,182.997 94.537 C 185.919 100.197,185.921 114.157,183.001 119.785 C 182.620 120.519,182.308 121.326,182.308 121.578 C 182.308 122.341,179.627 126.854,177.937 128.935 C 177.469 129.512,176.706 130.472,176.243 131.069 C 175.224 132.379,170.056 136.733,168.459 137.624 C 162.044 141.207,158.763 142.265,152.600 142.736 C 148.477 143.051,147.770 145.914,151.814 145.914 C 153.530 145.914,162.528 143.817,163.250 143.249 C 163.446 143.095,164.212 142.774,164.954 142.536 C 166.301 142.102,166.934 141.741,171.356 138.877 C 175.336 136.300,180.467 130.799,182.656 126.763 C 183.025 126.083,183.467 125.299,183.640 125.021 C 184.576 123.512,186.002 120.199,186.202 119.071 C 186.328 118.359,186.740 116.866,187.117 115.754 C 188.160 112.681,188.169 101.970,187.133 98.568 C 186.737 97.270,186.308 95.678,186.178 95.029 C 186.048 94.381,185.661 93.319,185.319 92.671 C 184.976 92.022,184.467 90.960,184.188 90.312 C 182.461 86.296,176.940 79.205,173.884 77.076 C 173.420 76.753,172.359 75.963,171.525 75.320 C 170.691 74.677,169.553 73.923,168.997 73.645 C 168.441 73.367,167.759 72.993,167.481 72.815 C 166.335 72.079,162.503 70.426,161.247 70.125 C 160.505 69.947,159.217 69.548,158.382 69.237 C 156.452 68.518,149.831 68.133,149.469 68.718 M149.688 77.594 C 148.944 78.491,150.048 79.191,152.207 79.191 C 155.247 79.191,160.325 81.034,164.617 83.696 C 167.608 85.551,173.884 92.470,173.884 93.914 C 173.884 94.107,174.182 94.643,174.546 95.107 C 174.910 95.570,175.373 96.682,175.574 97.580 C 175.775 98.477,176.197 99.749,176.512 100.406 C 177.339 102.129,177.344 112.638,176.519 113.901 C 176.217 114.364,175.780 115.613,175.548 116.676 C 175.316 117.739,174.847 118.862,174.505 119.171 C 174.163 119.481,173.884 119.914,173.884 120.135 C 173.884 121.367,169.518 126.692,166.612 129.006 C 164.382 130.780,159.296 133.446,158.138 133.446 C 157.705 133.446,156.786 133.696,156.097 134.002 C 155.408 134.308,153.826 134.664,152.581 134.794 C 150.063 135.056,149.036 135.605,149.658 136.355 C 150.194 137.000,154.738 136.975,156.006 136.319 C 156.534 136.046,157.702 135.664,158.601 135.469 C 162.859 134.548,173.210 127.343,173.210 125.300 C 173.210 125.175,173.577 124.636,174.027 124.102 C 175.172 122.740,176.549 120.127,177.269 117.944 C 177.605 116.925,178.102 115.484,178.373 114.743 C 179.502 111.650,179.321 100.390,178.112 98.545 C 177.839 98.129,177.437 97.054,177.219 96.156 C 177.000 95.258,176.631 94.297,176.397 94.019 C 176.164 93.741,175.729 92.982,175.431 92.334 C 173.655 88.469,167.745 82.620,163.677 80.701 C 163.082 80.420,162.216 79.980,161.752 79.723 C 158.026 77.654,150.710 76.363,149.688 77.594 M382.224 175.980 L 381.466 176.346 381.466 209.812 C 381.466 242.555,381.480 243.286,382.118 243.628 C 383.254 244.236,394.119 244.081,394.753 243.447 C 395.556 242.643,395.561 177.465,394.758 176.318 C 394.163 175.469,383.860 175.191,382.224 175.980 M4.381 176.235 C 3.714 176.655,3.337 184.970,3.923 186.356 C 4.463 187.634,4.899 187.690,14.238 187.695 C 22.125 187.700,22.615 187.737,23.252 188.374 C 23.915 189.037,23.926 189.497,23.926 216.163 L 23.926 243.279 24.656 243.669 C 25.714 244.236,37.417 244.096,38.010 243.510 C 38.361 243.164,38.443 237.881,38.424 216.716 C 38.409 199.135,38.521 189.911,38.759 189.027 L 39.116 187.700 48.160 187.700 C 56.154 187.700,57.258 187.635,57.667 187.144 C 58.297 186.387,58.519 178.264,57.948 176.884 L 57.542 175.906 31.214 175.911 C 15.268 175.914,4.687 176.042,4.381 176.235 M271.591 183.231 C 270.952 183.513,268.559 184.391,266.272 185.182 C 260.454 187.194,260.259 187.413,260.099 192.097 C 259.945 196.582,260.081 196.446,255.624 196.571 C 251.049 196.698,251.053 196.694,251.053 201.266 C 251.053 205.946,251.008 205.896,255.193 205.902 C 260.492 205.910,260.152 204.842,260.152 221.450 C 260.152 236.473,260.375 238.143,262.724 240.707 C 265.724 243.980,269.051 244.889,276.664 244.513 C 284.522 244.124,285.146 243.692,284.862 238.835 C 284.594 234.260,284.646 234.318,280.600 234.137 C 274.071 233.845,274.165 234.048,274.033 219.882 C 273.892 204.828,273.422 205.897,280.177 205.897 C 285.282 205.897,285.427 205.787,285.421 201.919 C 285.413 196.674,285.087 196.398,279.068 196.532 C 273.658 196.654,273.969 197.046,273.963 190.102 C 273.957 182.597,273.834 182.240,271.591 183.231 M68.745 195.077 C 61.520 196.007,55.125 200.848,52.003 207.751 C 48.917 214.575,48.375 222.546,50.458 230.497 C 53.141 240.738,60.070 245.498,72.283 245.489 C 83.042 245.482,88.918 242.257,92.145 234.588 C 94.022 230.128,93.678 229.823,86.772 229.823 L 81.235 229.823 80.129 231.391 C 77.986 234.428,76.803 235.431,74.878 235.843 C 69.415 237.013,65.933 235.353,63.669 230.497 C 63.085 229.245,62.861 225.350,63.324 224.486 L 63.714 223.757 78.108 223.752 C 95.666 223.746,94.154 224.172,94.284 219.200 C 94.536 209.535,89.520 200.276,82.308 197.094 C 81.521 196.746,80.219 196.173,79.417 195.820 C 77.758 195.090,71.842 194.678,68.745 195.077 M222.241 195.118 C 221.129 195.255,219.537 195.686,218.703 196.076 C 217.869 196.465,216.952 196.787,216.665 196.791 C 215.029 196.814,207.245 203.426,207.245 204.792 C 207.245 204.978,206.891 205.651,206.458 206.289 C 203.153 211.160,202.175 224.210,204.558 231.649 C 207.603 241.157,214.229 245.478,225.779 245.488 C 237.091 245.498,244.170 241.359,246.133 233.587 C 247.058 229.925,246.898 229.821,240.338 229.828 C 235.098 229.834,234.333 230.064,233.430 231.907 C 230.134 238.634,219.549 237.322,217.401 229.920 C 216.268 226.015,216.243 225.661,217.029 224.662 L 217.741 223.757 232.206 223.757 C 249.357 223.757,248.022 224.106,248.018 219.629 C 248.015 216.207,247.276 211.102,246.590 209.760 C 246.309 209.211,245.975 208.276,245.847 207.683 C 245.074 204.093,238.583 197.444,235.044 196.617 C 234.489 196.487,233.688 196.165,233.264 195.900 C 231.818 194.997,226.365 194.610,222.241 195.118 M121.146 195.342 C 113.844 196.964,110.886 198.240,107.798 201.099 C 105.930 202.829,103.454 206.066,103.454 206.780 C 103.454 206.948,103.145 207.663,102.768 208.366 C 100.010 213.512,100.010 227.263,102.768 232.409 C 103.145 233.112,103.454 233.884,103.454 234.123 C 103.454 235.176,106.847 239.435,109.035 241.129 C 121.024 250.411,141.674 243.113,141.979 229.486 C 142.041 226.690,142.281 226.790,135.512 226.790 C 128.652 226.790,128.627 226.799,128.083 229.431 C 126.592 236.644,119.909 237.914,117.037 231.529 C 114.579 226.066,114.701 213.127,117.255 208.335 C 120.335 202.558,126.776 204.082,127.877 210.848 C 128.226 212.994,128.557 213.127,133.868 213.260 C 142.756 213.482,143.083 213.149,140.631 206.395 C 138.945 201.750,134.283 197.836,128.728 196.402 C 123.679 195.099,122.794 194.975,121.146 195.342 M174.726 195.634 C 173.799 195.918,172.435 196.304,171.693 196.494 C 170.088 196.904,167.718 198.374,165.726 200.195 C 163.906 201.858,163.683 201.771,163.269 199.232 C 163.083 198.096,162.763 196.998,162.556 196.792 C 161.995 196.233,150.472 196.484,149.890 197.068 C 149.539 197.419,149.434 203.757,149.360 229.106 L 149.267 260.706 149.984 261.356 C 150.961 262.241,161.817 262.544,162.932 261.717 C 163.573 261.242,163.614 260.723,163.774 250.996 L 163.943 240.775 164.822 240.673 C 165.374 240.609,166.065 240.875,166.676 241.386 C 175.554 248.817,190.966 243.356,195.440 231.195 C 200.085 218.568,196.491 203.042,187.787 198.130 C 183.771 195.863,177.744 194.712,174.726 195.634 M345.746 195.324 C 344.900 195.587,341.954 196.401,340.482 196.780 C 325.086 200.736,319.983 226.693,332.163 239.090 C 342.407 249.517,363.487 247.173,370.597 234.817 C 375.131 226.937,375.491 213.727,371.348 207.245 C 371.171 206.967,370.658 206.057,370.208 205.223 C 368.287 201.659,362.213 197.312,357.966 196.461 C 357.083 196.285,355.754 195.916,355.013 195.642 C 353.726 195.166,346.997 194.935,345.746 195.324 M294.362 196.920 C 293.766 197.357,293.754 197.655,294.134 203.070 C 294.363 206.339,294.531 216.096,294.529 225.991 C 294.525 240.949,294.591 243.276,295.033 243.642 C 295.651 244.155,306.761 244.124,307.727 243.607 C 308.302 243.299,308.341 242.523,308.351 231.075 C 308.370 210.944,309.164 209.312,319.284 208.629 C 323.126 208.369,323.158 208.319,323.158 202.527 C 323.158 196.637,323.153 196.630,319.112 196.630 C 314.608 196.630,311.386 198.268,308.941 201.800 C 307.642 203.677,307.269 203.328,306.944 199.925 C 306.764 198.042,306.533 197.206,306.106 196.893 C 305.245 196.264,295.229 196.287,294.362 196.920 M74.579 204.940 C 77.171 206.020,78.320 207.272,79.329 210.115 C 81.041 214.938,80.810 215.072,71.071 214.930 C 62.349 214.803,62.134 214.634,64.489 209.763 C 66.736 205.113,70.582 203.275,74.579 204.940 M176.282 204.941 C 182.813 207.566,185.578 220.676,181.498 229.665 C 177.797 237.818,167.709 237.166,164.394 228.559 C 159.782 216.581,167.431 201.384,176.282 204.941 M228.659 205.048 C 232.286 206.763,234.842 211.981,233.124 214.164 L 232.470 214.996 225.470 214.996 C 217.241 214.996,217.085 214.938,217.516 212.065 C 218.382 206.290,223.917 202.804,228.659 205.048 M352.555 205.244 C 355.579 206.145,357.091 207.511,358.581 210.689 L 359.730 213.142 359.726 220.219 C 359.718 231.602,357.119 235.722,349.958 235.700 C 342.840 235.678,339.924 231.279,339.918 220.556 C 339.912 211.112,342.015 206.677,347.202 205.193 C 349.878 204.427,349.811 204.427,352.555 205.244 " stroke="none" fill="#eef4f8" fill-rule="evenodd"></path><path id="path1" d="M0.000 168.492 L 0.000 336.984 200.000 336.984 L 400.000 336.984 400.000 168.492 L 400.000 0.000 200.000 0.000 L 0.000 0.000 0.000 168.492 M163.437 41.486 C 167.569 42.472,172.725 44.070,174.726 44.984 C 176.085 45.604,181.361 48.198,182.914 49.009 C 184.140 49.650,190.299 54.012,192.252 55.623 C 196.419 59.062,202.385 65.777,204.773 69.716 C 205.378 70.713,206.084 71.775,206.341 72.075 C 206.599 72.375,207.081 73.151,207.413 73.799 C 210.102 79.054,210.599 80.071,210.606 80.337 C 210.611 80.504,210.984 81.414,211.435 82.359 C 212.524 84.643,213.221 86.830,214.002 90.409 C 214.357 92.038,214.914 94.237,215.239 95.295 C 216.219 98.486,216.118 116.197,215.101 119.461 C 214.696 120.758,214.261 122.497,214.133 123.325 C 213.851 125.152,211.913 131.204,211.162 132.603 C 210.863 133.159,210.618 133.724,210.617 133.858 C 210.612 134.496,207.301 140.660,205.055 144.215 C 201.826 149.325,190.205 161.415,188.522 161.415 C 188.383 161.415,187.725 161.832,187.059 162.342 C 185.168 163.791,183.740 164.727,182.381 165.410 C 181.692 165.756,179.897 166.667,178.391 167.434 C 176.885 168.201,175.548 168.829,175.420 168.829 C 175.293 168.829,174.382 169.198,173.396 169.649 C 172.411 170.100,171.018 170.575,170.301 170.705 C 169.584 170.835,168.612 171.136,168.141 171.374 C 167.670 171.612,166.305 171.987,165.108 172.207 C 163.911 172.428,161.946 172.885,160.741 173.224 C 158.018 173.989,150.269 174.397,149.678 173.806 C 149.096 173.224,149.188 170.658,149.813 170.032 C 150.196 169.650,151.010 169.503,152.743 169.503 C 155.088 169.503,160.242 168.807,162.932 168.126 C 169.162 166.551,173.137 165.163,176.411 163.422 C 177.523 162.830,178.888 162.127,179.444 161.860 C 180.000 161.592,180.682 161.226,180.960 161.047 C 181.238 160.868,181.895 160.461,182.420 160.142 C 188.029 156.734,194.964 150.401,198.819 145.166 C 202.276 140.471,204.980 136.038,205.658 133.951 C 205.779 133.580,206.028 133.050,206.212 132.772 C 208.838 128.800,211.701 115.620,211.740 107.329 C 211.761 102.644,210.483 92.472,209.716 91.232 C 209.607 91.055,209.245 89.903,208.913 88.673 C 207.758 84.398,204.141 76.614,201.810 73.388 C 201.103 72.410,200.273 71.154,199.965 70.598 C 196.142 63.696,181.064 51.711,173.041 49.197 C 172.300 48.965,171.542 48.663,171.356 48.526 C 170.652 48.007,164.152 46.169,161.247 45.667 C 159.579 45.379,157.607 44.999,156.866 44.821 C 156.125 44.643,154.297 44.494,152.805 44.490 C 151.155 44.485,149.934 44.324,149.688 44.078 C 149.156 43.546,149.168 41.030,149.705 40.473 C 150.443 39.707,158.463 40.298,163.437 41.486 M157.065 50.894 C 163.659 51.701,170.953 54.254,177.591 58.077 C 178.425 58.557,179.537 59.194,180.064 59.491 C 183.231 61.281,190.686 68.116,193.682 71.979 C 208.745 91.395,209.781 119.130,196.178 138.804 C 191.909 144.980,184.754 151.927,179.577 154.926 C 179.014 155.252,177.845 155.934,176.977 156.442 C 176.110 156.950,174.869 157.599,174.221 157.885 C 173.572 158.170,172.651 158.619,172.174 158.883 C 167.528 161.448,153.623 164.413,150.463 163.512 C 149.601 163.267,149.437 163.038,149.346 161.959 C 149.177 159.938,149.566 159.730,153.525 159.730 C 156.215 159.730,157.400 159.577,158.719 159.056 C 159.660 158.686,160.874 158.382,161.419 158.382 C 168.289 158.382,185.731 147.302,190.860 139.680 C 191.359 138.939,192.364 137.498,193.093 136.479 C 195.779 132.725,199.120 125.453,199.982 121.483 C 200.224 120.371,200.705 118.475,201.051 117.270 C 202.054 113.776,201.980 99.860,200.940 96.546 C 200.533 95.249,200.043 93.294,199.850 92.203 C 199.658 91.112,199.367 90.051,199.204 89.844 C 199.042 89.638,198.714 88.863,198.477 88.121 C 198.090 86.915,196.662 83.851,194.942 80.539 C 194.606 79.890,193.709 78.526,192.950 77.506 C 192.190 76.487,191.313 75.254,191.001 74.766 C 189.219 71.985,181.383 64.683,178.227 62.863 C 177.599 62.500,176.479 61.836,175.737 61.387 C 173.607 60.096,170.802 58.734,169.334 58.278 C 168.593 58.048,167.683 57.664,167.313 57.425 C 166.048 56.611,157.425 54.593,155.079 54.562 C 150.621 54.504,149.467 54.213,149.342 53.119 C 149.029 50.379,150.169 50.050,157.065 50.894 M158.382 60.322 C 159.031 60.495,160.633 60.922,161.941 61.272 C 174.379 64.595,185.202 73.460,191.420 85.417 C 192.339 87.186,193.092 88.827,193.092 89.064 C 193.092 89.301,193.401 90.096,193.779 90.830 C 197.221 97.514,197.538 111.806,194.467 121.820 C 193.676 124.399,189.533 132.802,188.736 133.446 C 188.537 133.606,187.854 134.563,186.652 136.366 C 185.562 138.000,180.595 142.848,177.922 144.887 C 172.541 148.991,165.765 152.122,159.730 153.292 C 158.711 153.490,156.664 153.894,155.181 154.190 C 150.917 155.043,149.478 154.815,149.349 153.266 C 149.213 151.631,149.562 151.471,154.339 150.975 C 156.470 150.754,158.593 150.415,159.056 150.222 C 159.520 150.029,160.885 149.600,162.089 149.268 C 165.328 148.376,168.180 147.290,169.206 146.560 C 169.704 146.205,170.256 145.914,170.432 145.914 C 172.020 145.914,180.090 139.191,183.456 135.064 C 186.998 130.721,191.053 123.461,191.077 121.419 C 191.081 121.084,191.450 119.771,191.898 118.503 C 193.661 113.506,193.776 100.716,192.097 96.398 C 191.768 95.553,191.389 94.254,191.254 93.513 C 190.396 88.795,184.711 79.763,179.569 74.948 C 178.277 73.738,177.221 72.885,173.132 69.747 C 169.169 66.707,159.816 63.609,153.237 63.157 C 149.740 62.917,148.042 61.391,149.537 59.832 C 149.848 59.507,156.761 59.890,158.382 60.322 M158.382 69.237 C 159.217 69.548,160.505 69.947,161.247 70.125 C 162.503 70.426,166.335 72.079,167.481 72.815 C 167.759 72.993,168.441 73.367,168.997 73.645 C 169.553 73.923,170.691 74.677,171.525 75.320 C 172.359 75.963,173.420 76.753,173.884 77.076 C 176.940 79.205,182.461 86.296,184.188 90.312 C 184.467 90.960,184.976 92.022,185.319 92.671 C 185.661 93.319,186.048 94.381,186.178 95.029 C 186.308 95.678,186.737 97.270,187.133 98.568 C 188.169 101.970,188.160 112.681,187.117 115.754 C 186.740 116.866,186.328 118.359,186.202 119.071 C 186.002 120.199,184.576 123.512,183.640 125.021 C 183.467 125.299,183.025 126.083,182.656 126.763 C 179.387 132.791,170.426 140.775,164.954 142.536 C 164.212 142.774,163.446 143.095,163.250 143.249 C 162.528 143.817,153.530 145.914,151.814 145.914 C 147.770 145.914,148.477 143.051,152.600 142.736 C 158.763 142.265,162.044 141.207,168.459 137.624 C 170.056 136.733,175.224 132.379,176.243 131.069 C 176.706 130.472,177.469 129.512,177.937 128.935 C 179.627 126.854,182.308 122.341,182.308 121.578 C 182.308 121.326,182.620 120.519,183.001 119.785 C 185.921 114.157,185.919 100.197,182.997 94.537 C 182.618 93.803,182.308 93.022,182.308 92.802 C 182.308 90.208,173.489 79.296,169.937 77.494 C 169.420 77.232,168.569 76.673,168.045 76.251 C 167.521 75.829,166.938 75.484,166.749 75.484 C 166.560 75.484,166.003 75.202,165.511 74.857 C 165.019 74.512,164.010 74.038,163.269 73.803 C 162.527 73.568,161.542 73.180,161.078 72.941 C 160.174 72.475,156.014 71.619,152.991 71.276 C 149.694 70.902,148.607 70.113,149.469 68.718 C 149.831 68.133,156.452 68.518,158.382 69.237 M158.551 78.349 C 159.848 78.847,161.289 79.465,161.752 79.723 C 162.216 79.980,163.082 80.420,163.677 80.701 C 167.745 82.620,173.655 88.469,175.431 92.334 C 175.729 92.982,176.164 93.741,176.397 94.019 C 176.631 94.297,177.000 95.258,177.219 96.156 C 177.437 97.054,177.839 98.129,178.112 98.545 C 179.321 100.390,179.502 111.650,178.373 114.743 C 178.102 115.484,177.605 116.925,177.269 117.944 C 176.549 120.127,175.172 122.740,174.027 124.102 C 173.577 124.636,173.210 125.175,173.210 125.300 C 173.210 127.343,162.859 134.548,158.601 135.469 C 157.702 135.664,156.534 136.046,156.006 136.319 C 154.738 136.975,150.194 137.000,149.658 136.355 C 149.036 135.605,150.063 135.056,152.581 134.794 C 153.826 134.664,155.408 134.308,156.097 134.002 C 156.786 133.696,157.705 133.446,158.138 133.446 C 159.296 133.446,164.382 130.780,166.612 129.006 C 169.518 126.692,173.884 121.367,173.884 120.135 C 173.884 119.914,174.163 119.481,174.505 119.171 C 174.847 118.862,175.316 117.739,175.548 116.676 C 175.780 115.613,176.217 114.364,176.519 113.901 C 177.344 112.638,177.339 102.129,176.512 100.406 C 176.197 99.749,175.775 98.477,175.574 97.580 C 175.373 96.682,174.910 95.570,174.546 95.107 C 174.182 94.643,173.884 94.107,173.884 93.914 C 173.884 92.470,167.608 85.551,164.617 83.696 C 160.325 81.034,155.247 79.191,152.207 79.191 C 150.048 79.191,148.944 78.491,149.688 77.594 C 150.376 76.765,155.582 77.208,158.551 78.349 M394.758 176.318 C 395.561 177.465,395.556 242.643,394.753 243.447 C 394.119 244.081,383.254 244.236,382.118 243.628 C 381.480 243.286,381.466 242.555,381.466 209.812 L 381.466 176.346 382.224 175.980 C 383.860 175.191,394.163 175.469,394.758 176.318 M57.948 176.884 C 58.519 178.264,58.297 186.387,57.667 187.144 C 57.258 187.635,56.154 187.700,48.160 187.700 L 39.116 187.700 38.759 189.027 C 38.521 189.911,38.409 199.135,38.424 216.716 C 38.443 237.881,38.361 243.164,38.010 243.510 C 37.417 244.096,25.714 244.236,24.656 243.669 L 23.926 243.279 23.926 216.163 C 23.926 189.497,23.915 189.037,23.252 188.374 C 22.615 187.737,22.125 187.700,14.238 187.695 C 4.899 187.690,4.463 187.634,3.923 186.356 C 3.337 184.970,3.714 176.655,4.381 176.235 C 4.687 176.042,15.268 175.914,31.214 175.911 L 57.542 175.906 57.948 176.884 M273.762 183.764 C 273.870 184.168,273.961 187.020,273.963 190.102 C 273.969 197.046,273.658 196.654,279.068 196.532 C 285.087 196.398,285.413 196.674,285.421 201.919 C 285.427 205.787,285.282 205.897,280.177 205.897 C 273.422 205.897,273.892 204.828,274.033 219.882 C 274.165 234.048,274.071 233.845,280.600 234.137 C 284.646 234.318,284.594 234.260,284.862 238.835 C 285.146 243.692,284.522 244.124,276.664 244.513 C 269.051 244.889,265.724 243.980,262.724 240.707 C 260.375 238.143,260.152 236.473,260.152 221.450 C 260.152 204.842,260.492 205.910,255.193 205.902 C 251.008 205.896,251.053 205.946,251.053 201.266 C 251.053 196.694,251.049 196.698,255.624 196.571 C 260.081 196.446,259.945 196.582,260.099 192.097 C 260.259 187.413,260.454 187.194,266.272 185.182 C 268.559 184.391,270.952 183.513,271.591 183.231 C 272.958 182.627,273.492 182.758,273.762 183.764 M79.417 195.820 C 80.219 196.173,81.521 196.746,82.308 197.094 C 89.520 200.276,94.536 209.535,94.284 219.200 C 94.154 224.172,95.666 223.746,78.108 223.752 L 63.714 223.757 63.324 224.486 C 62.113 226.749,63.702 231.908,66.346 234.296 C 70.421 237.978,76.365 236.725,80.129 231.391 L 81.235 229.823 86.772 229.823 C 93.678 229.823,94.022 230.128,92.145 234.588 C 88.918 242.257,83.042 245.482,72.283 245.489 C 60.070 245.498,53.141 240.738,50.458 230.497 C 45.889 213.055,54.205 196.948,68.745 195.077 C 71.842 194.678,77.758 195.090,79.417 195.820 M229.726 195.100 C 231.248 195.275,232.840 195.635,233.264 195.900 C 233.688 196.165,234.489 196.487,235.044 196.617 C 238.583 197.444,245.074 204.093,245.847 207.683 C 245.975 208.276,246.309 209.211,246.590 209.760 C 247.276 211.102,248.015 216.207,248.018 219.629 C 248.022 224.106,249.357 223.757,232.206 223.757 L 217.741 223.757 217.029 224.662 C 216.243 225.661,216.268 226.015,217.401 229.920 C 219.549 237.322,230.134 238.634,233.430 231.907 C 234.333 230.064,235.098 229.834,240.338 229.828 C 246.898 229.821,247.058 229.925,246.133 233.587 C 242.474 248.071,215.849 250.321,206.934 236.899 C 202.219 229.799,201.956 212.923,206.458 206.289 C 206.891 205.651,207.245 204.978,207.245 204.792 C 207.245 203.426,215.029 196.814,216.665 196.791 C 216.952 196.787,217.869 196.465,218.703 196.076 C 221.143 194.936,225.185 194.578,229.726 195.100 M124.853 195.446 C 135.444 197.830,139.522 201.304,141.674 209.773 C 142.523 213.114,141.755 213.457,133.868 213.260 C 128.557 213.127,128.226 212.994,127.877 210.848 C 126.776 204.082,120.335 202.558,117.255 208.335 C 114.701 213.127,114.579 226.066,117.037 231.529 C 119.909 237.914,126.592 236.644,128.083 229.431 C 128.627 226.799,128.652 226.790,135.512 226.790 C 142.281 226.790,142.041 226.690,141.979 229.486 C 141.674 243.113,121.024 250.411,109.035 241.129 C 106.847 239.435,103.454 235.176,103.454 234.123 C 103.454 233.884,103.145 233.112,102.768 232.409 C 100.010 227.263,100.010 213.512,102.768 208.366 C 103.145 207.663,103.454 206.948,103.454 206.780 C 103.454 206.066,105.930 202.829,107.798 201.099 C 110.886 198.240,113.844 196.964,121.146 195.342 C 122.262 195.094,123.431 195.127,124.853 195.446 M183.037 196.242 C 201.793 201.733,202.868 234.655,184.568 243.108 C 179.249 245.565,170.683 244.741,166.676 241.386 C 166.065 240.875,165.374 240.609,164.822 240.673 L 163.943 240.775 163.774 250.996 C 163.614 260.723,163.573 261.242,162.932 261.717 C 161.817 262.544,150.961 262.241,149.984 261.356 L 149.267 260.706 149.360 229.106 C 149.434 203.757,149.539 197.419,149.890 197.068 C 150.472 196.484,161.995 196.233,162.556 196.792 C 162.763 196.998,163.083 198.096,163.269 199.232 C 163.683 201.771,163.906 201.858,165.726 200.195 C 167.718 198.374,170.088 196.904,171.693 196.494 C 172.435 196.304,173.799 195.918,174.726 195.634 C 176.882 194.975,179.318 195.154,183.037 196.242 M355.013 195.642 C 355.754 195.916,357.083 196.285,357.966 196.461 C 362.213 197.312,368.287 201.659,370.208 205.223 C 370.658 206.057,371.171 206.967,371.348 207.245 C 373.686 210.904,374.800 218.568,373.918 224.937 C 372.196 237.381,363.722 244.996,350.969 245.559 C 343.209 245.902,336.632 243.639,332.163 239.090 C 319.983 226.693,325.086 200.736,340.482 196.780 C 341.954 196.401,344.900 195.587,345.746 195.324 C 346.997 194.935,353.726 195.166,355.013 195.642 M306.106 196.893 C 306.533 197.206,306.764 198.042,306.944 199.925 C 307.269 203.328,307.642 203.677,308.941 201.800 C 311.386 198.268,314.608 196.630,319.112 196.630 C 323.153 196.630,323.158 196.637,323.158 202.527 C 323.158 208.319,323.126 208.369,319.284 208.629 C 309.164 209.312,308.370 210.944,308.351 231.075 C 308.341 242.523,308.302 243.299,307.727 243.607 C 306.761 244.124,295.651 244.155,295.033 243.642 C 294.591 243.276,294.525 240.949,294.529 225.991 C 294.531 216.096,294.363 206.339,294.134 203.070 C 293.754 197.655,293.766 197.357,294.362 196.920 C 295.229 196.287,305.245 196.264,306.106 196.893 M69.178 204.998 C 66.780 206.033,65.819 207.010,64.489 209.763 C 62.134 214.634,62.349 214.803,71.071 214.930 C 80.810 215.072,81.041 214.938,79.329 210.115 C 77.621 205.303,73.399 203.175,69.178 204.998 M170.875 205.195 C 161.263 209.227,160.176 230.107,169.348 234.547 C 175.476 237.514,181.341 233.321,182.792 224.937 C 185.089 211.666,179.100 201.745,170.875 205.195 M224.094 204.527 C 220.427 205.647,218.074 208.343,217.516 212.065 C 217.085 214.938,217.241 214.996,225.470 214.996 L 232.470 214.996 233.124 214.164 C 236.027 210.474,229.040 203.017,224.094 204.527 M347.202 205.193 C 342.015 206.677,339.912 211.112,339.918 220.556 C 339.924 231.279,342.840 235.678,349.958 235.700 C 357.119 235.722,359.718 231.602,359.726 220.219 L 359.730 213.142 358.581 210.689 C 356.293 205.809,352.111 203.788,347.202 205.193 " stroke="none" fill="#0473ac" fill-rule="evenodd"></path></g></svg>