<svg id="svg" version="1.1" xmlns="http://www.w3.org/2000/svg" xmlns:xlink="http://www.w3.org/1999/xlink" width="400" height="226.82259268474746" viewBox="0, 0, 400,226.82259268474746"><g id="svgg"><path id="path0" d="M148.793 2.325 L 148.793 4.649 149.405 4.713 C 149.741 4.749,150.499 4.777,151.089 4.777 C 160.625 4.777,172.933 8.365,181.986 13.784 C 219.734 36.379,223.933 88.806,190.246 116.914 C 179.370 125.989,164.106 131.764,150.964 131.775 C 150.400 131.775,149.703 131.804,149.415 131.839 L 148.893 131.901 148.893 134.226 L 148.893 136.551 150.211 136.551 C 162.653 136.547,176.501 132.232,187.360 124.976 C 223.031 101.143,228.333 51.394,198.465 20.773 C 185.894 7.885,167.561 0.000,150.163 0.000 L 148.793 0.000 148.793 2.325 M148.793 12.441 L 148.793 14.431 149.117 14.433 C 181.460 14.568,206.501 42.814,202.629 74.795 C 199.467 100.906,177.270 121.180,150.958 121.988 L 148.893 122.052 148.893 124.076 L 148.893 126.101 149.614 126.100 C 164.886 126.070,180.495 119.250,191.210 107.925 C 214.996 82.787,211.547 42.748,183.811 22.021 C 174.135 14.790,161.471 10.468,149.913 10.452 L 148.793 10.450 148.793 12.441 M148.793 21.597 L 148.793 23.289 149.664 23.290 C 154.539 23.295,160.610 24.501,165.491 26.435 C 192.194 37.013,202.384 69.289,186.560 93.169 C 178.521 105.300,165.330 112.663,150.460 113.319 L 148.893 113.388 148.893 115.067 L 148.893 116.745 149.515 116.745 C 164.081 116.734,178.843 109.254,187.718 97.387 C 205.077 74.179,198.529 41.418,173.576 26.623 C 166.597 22.485,157.464 19.909,149.764 19.906 L 148.793 19.905 148.793 21.597 M148.793 29.743 L 148.793 31.125 149.255 31.188 C 149.509 31.223,150.070 31.252,150.502 31.252 C 154.774 31.252,160.746 32.794,165.289 35.071 C 186.577 45.738,192.345 73.430,177.113 91.832 C 170.543 99.768,159.785 105.001,150.040 105.001 L 148.893 105.001 148.893 106.410 L 148.893 107.818 150.759 107.756 C 173.185 107.003,190.713 86.499,188.250 63.900 C 186.160 44.724,170.252 29.419,151.471 28.515 C 150.847 28.485,149.989 28.438,149.565 28.411 L 148.793 28.361 148.793 29.743 M148.815 38.791 L 148.843 39.861 150.236 39.924 C 170.688 40.861,183.586 62.380,174.775 80.866 C 170.175 90.517,159.863 97.139,149.435 97.139 L 148.893 97.139 148.893 98.233 L 148.893 99.328 149.420 99.328 C 168.628 99.328,183.265 80.686,178.998 61.659 C 175.955 48.089,163.250 37.722,149.661 37.721 L 148.786 37.721 148.815 38.791 M385.668 172.929 L 385.668 207.912 392.834 207.912 L 400.000 207.912 400.000 172.929 L 400.000 137.945 392.834 137.945 L 385.668 137.945 385.668 172.929 M0.000 144.115 L 0.000 149.988 10.401 149.988 L 20.801 149.988 20.801 179.149 L 20.801 208.311 28.365 208.311 L 35.929 208.311 35.929 179.149 L 35.929 149.988 46.330 149.988 L 56.731 149.988 56.731 144.115 L 56.731 138.243 28.365 138.243 L 0.000 138.243 0.000 144.115 M269.818 147.304 L 262.901 149.874 262.875 154.658 L 262.850 159.443 258.222 159.443 L 253.595 159.443 253.595 164.220 L 253.595 168.997 258.219 168.997 L 262.843 168.997 262.879 183.702 C 262.915 198.313,262.917 198.415,263.132 199.536 C 263.997 204.047,266.175 206.662,270.180 207.996 C 274.075 209.294,280.774 209.207,286.739 207.781 L 288.082 207.460 288.107 202.704 L 288.133 197.947 287.709 198.005 C 281.745 198.815,278.336 197.973,277.535 195.495 C 277.043 193.973,277.053 194.245,277.013 181.214 L 276.975 168.997 282.752 168.997 L 288.529 168.997 288.529 164.220 L 288.529 159.443 282.757 159.443 L 276.984 159.443 276.984 152.078 C 276.984 146.246,276.958 144.715,276.860 144.724 C 276.791 144.730,273.623 145.891,269.818 147.304 M68.325 157.658 C 55.048 159.016,47.387 168.451,47.106 183.790 C 46.788 201.090,54.702 209.909,70.537 209.902 C 81.316 209.897,88.326 205.887,90.873 198.269 C 91.423 196.623,91.970 193.763,91.774 193.555 C 91.735 193.513,88.824 193.491,85.306 193.505 L 78.909 193.531 78.636 194.377 C 77.339 198.395,74.796 200.196,70.416 200.197 C 64.088 200.199,60.712 196.005,60.712 188.146 L 60.712 187.310 76.874 187.310 C 91.520 187.310,93.042 187.296,93.097 187.153 C 93.340 186.519,93.111 180.350,92.750 177.805 C 90.842 164.380,81.108 156.350,68.325 157.658 M226.872 157.620 C 212.519 158.860,204.276 170.013,205.208 186.931 C 206.068 202.561,214.072 210.158,229.381 209.876 C 240.178 209.678,246.943 205.450,249.250 197.460 C 249.516 196.539,249.913 194.358,249.913 193.817 L 249.913 193.481 243.464 193.481 L 237.014 193.481 236.788 194.252 C 235.667 198.079,233.053 200.085,229.012 200.220 C 222.770 200.427,219.254 196.724,218.909 189.575 C 218.880 188.959,218.835 188.197,218.810 187.883 L 218.764 187.310 234.971 187.310 L 251.178 187.310 251.242 186.699 C 251.412 185.074,251.263 180.829,250.950 178.407 C 249.185 164.720,239.678 156.512,226.872 157.620 M350.754 157.962 C 336.794 159.110,328.472 168.835,328.494 183.976 C 328.519 200.167,338.667 210.207,354.466 209.670 C 369.765 209.151,379.025 199.321,379.045 183.578 C 379.067 166.551,368.013 156.543,350.754 157.962 M119.831 158.250 C 110.036 158.965,102.501 165.241,100.124 174.664 C 99.370 177.651,99.179 179.466,99.179 183.628 C 99.179 200.156,107.135 209.331,121.473 209.338 C 133.649 209.344,140.933 202.772,141.669 191.117 L 141.721 190.296 134.716 190.296 L 127.711 190.296 127.657 190.669 C 127.628 190.875,127.576 191.356,127.541 191.739 C 127.082 196.855,124.024 200.230,120.372 199.651 C 116.166 198.985,113.921 193.253,113.920 183.180 C 113.920 172.824,116.402 167.598,121.320 167.605 C 124.578 167.610,126.600 170.152,127.295 175.118 C 127.356 175.556,127.428 176.060,127.455 176.238 L 127.503 176.561 134.466 176.561 L 141.428 176.561 141.428 176.138 C 141.419 165.155,132.010 157.362,119.831 158.250 M175.841 158.253 C 170.579 158.686,166.107 161.172,163.623 165.046 C 163.322 165.515,163.051 165.902,163.021 165.905 C 162.991 165.909,162.888 164.426,162.792 162.611 C 162.697 160.795,162.595 159.272,162.567 159.227 C 162.539 159.181,159.429 159.144,155.655 159.144 L 148.793 159.144 148.793 192.983 L 148.793 226.823 156.009 226.823 L 163.225 226.823 163.225 214.675 L 163.225 202.528 163.706 203.105 C 167.652 207.839,174.163 209.772,181.225 208.307 C 191.898 206.092,198.759 194.218,197.671 179.846 C 196.589 165.558,188.178 157.238,175.841 158.253 M295.896 159.169 C 295.896 159.292,295.941 159.908,295.995 160.537 C 296.424 165.546,296.426 165.694,296.464 187.335 L 296.500 208.111 303.608 208.111 L 310.715 208.111 310.750 194.700 C 310.790 179.076,310.775 179.289,312.007 176.711 C 313.729 173.108,318.454 171.160,324.226 171.674 C 324.904 171.735,325.569 171.784,325.705 171.784 L 325.952 171.784 325.952 165.365 L 325.952 158.945 324.185 158.947 C 317.300 158.955,312.740 161.533,310.145 166.886 L 309.555 168.103 309.492 166.734 C 309.458 165.981,309.382 163.976,309.324 162.279 C 309.267 160.582,309.201 159.138,309.179 159.069 C 309.147 158.972,307.725 158.945,302.516 158.945 L 295.895 158.945 295.896 159.169 M71.915 167.509 C 76.056 168.243,78.190 171.355,78.580 177.233 L 78.648 178.253 69.929 178.253 L 61.209 178.253 61.211 177.781 C 61.237 171.043,66.010 166.464,71.915 167.509 M230.887 167.697 C 234.489 168.737,236.676 172.426,236.676 177.462 L 236.676 178.253 227.962 178.253 L 219.249 178.253 219.309 177.631 C 219.891 171.627,222.320 168.300,226.706 167.500 C 227.563 167.344,230.073 167.462,230.887 167.697 M176.061 167.798 C 180.781 169.174,183.328 174.580,183.329 183.230 C 183.330 194.002,178.931 200.140,171.833 199.266 C 165.540 198.491,162.411 192.972,162.659 183.080 C 162.875 174.446,166.158 168.834,171.684 167.650 C 172.678 167.437,175.104 167.519,176.061 167.798 M355.611 167.649 C 361.689 168.571,364.416 173.402,364.403 183.230 C 364.389 194.348,361.377 199.317,354.466 199.623 C 347.132 199.948,343.575 195.411,343.214 185.269 C 342.764 172.634,347.172 166.369,355.611 167.649 " stroke="none" fill="#000000" fill-rule="evenodd"></path></g></svg>