<svg id="svg" version="1.1" xmlns="http://www.w3.org/2000/svg" xmlns:xlink="http://www.w3.org/1999/xlink" width="400" height="226.875" viewBox="0, 0, 400,226.875"><g id="svgg"><path id="path0" d="M148.750 2.316 L 148.750 4.631 151.484 4.828 C 182.270 7.043,205.917 27.046,211.720 55.781 C 219.475 94.175,191.933 128.905,151.484 131.740 L 148.750 131.931 148.750 134.247 L 148.750 136.563 151.378 136.562 C 189.861 136.562,222.190 99.427,217.492 60.617 C 213.433 27.086,183.891 0.000,151.378 0.000 L 148.750 0.000 148.750 2.316 M148.750 12.500 L 148.750 14.688 151.375 14.688 C 175.985 14.688,198.580 35.209,202.367 60.999 C 206.886 91.769,181.530 121.875,151.096 121.875 L 148.750 121.875 148.750 124.063 C 148.750 126.621,148.283 126.451,153.906 125.932 C 199.672 121.707,222.868 69.284,195.039 32.969 C 184.728 19.512,166.426 10.313,149.967 10.313 L 148.750 10.313 148.750 12.500 M148.750 21.507 L 148.750 23.343 151.953 23.527 C 181.015 25.189,200.829 54.704,191.569 82.538 C 185.874 99.657,169.898 112.049,152.266 113.024 L 148.750 113.218 148.750 115.089 L 148.750 116.961 151.797 116.740 C 189.398 114.019,210.016 72.536,189.236 41.411 C 180.567 28.426,167.912 21.316,150.859 19.851 L 148.750 19.670 148.750 21.507 M148.750 29.754 L 148.750 31.164 151.484 31.385 C 182.711 33.908,196.860 71.449,175.000 93.777 C 168.591 100.324,161.443 103.777,152.266 104.759 L 148.750 105.136 148.750 106.474 L 148.750 107.813 150.740 107.813 C 165.987 107.813,181.445 95.974,186.534 80.400 C 194.449 56.179,176.993 29.995,151.953 28.531 L 148.750 28.343 148.750 29.754 M148.750 38.704 L 148.750 39.908 151.367 40.109 C 169.968 41.539,182.104 60.734,175.628 78.480 C 172.151 88.008,162.642 95.655,152.969 96.704 C 148.628 97.174,148.750 97.128,148.750 98.309 C 148.750 99.599,149.645 99.695,154.216 98.898 C 174.208 95.412,185.426 73.647,176.745 55.187 C 171.942 44.974,160.409 37.628,148.984 37.503 C 148.855 37.501,148.750 38.042,148.750 38.704 M385.625 172.969 L 385.625 208.125 392.813 208.125 L 400.000 208.125 400.000 172.969 L 400.000 137.813 392.813 137.813 L 385.625 137.813 385.625 172.969 M0.000 144.063 L 0.000 150.000 10.313 150.000 L 20.625 150.000 20.625 179.219 L 20.625 208.438 28.281 208.438 L 35.938 208.438 35.938 179.219 L 35.938 150.000 46.406 150.000 L 56.875 150.000 56.875 144.063 L 56.875 138.125 28.438 138.125 L 0.000 138.125 0.000 144.063 M271.563 146.438 C 269.070 147.375,266.082 148.501,264.922 148.942 L 262.813 149.742 262.813 154.559 L 262.813 159.375 258.125 159.375 L 253.438 159.375 253.438 164.219 L 253.438 169.063 258.125 169.063 L 262.813 169.063 262.813 183.735 C 262.813 199.142,262.913 200.523,264.230 203.138 C 266.876 208.393,274.905 210.314,285.313 208.183 L 287.969 207.639 288.055 202.804 L 288.140 197.969 284.305 197.969 C 277.007 197.969,277.369 198.782,277.253 182.109 L 277.162 169.063 282.800 169.063 L 288.438 169.063 288.438 164.219 L 288.438 159.375 282.813 159.375 L 277.188 159.375 277.188 152.031 C 277.188 145.236,277.147 144.689,276.641 144.711 C 276.340 144.724,274.055 145.501,271.563 146.438 M65.313 157.946 C 54.714 160.298,48.423 168.190,47.163 180.711 C 45.247 199.756,54.516 210.639,72.031 209.908 C 83.568 209.426,90.320 204.281,91.727 194.900 L 91.946 193.438 85.397 193.438 L 78.849 193.438 78.490 194.637 C 77.444 198.126,74.425 200.150,70.313 200.118 C 64.628 200.073,61.443 196.634,61.017 190.078 L 60.849 187.500 77.027 187.500 L 93.205 187.500 93.043 182.266 C 92.502 164.761,80.809 154.506,65.313 157.946 M223.281 157.975 C 211.496 160.567,205.121 170.147,205.194 185.156 C 205.277 202.090,213.847 210.589,230.156 209.908 C 240.936 209.458,247.548 204.894,249.516 196.546 C 250.321 193.129,250.917 193.438,243.505 193.438 L 237.010 193.438 236.488 194.846 C 235.189 198.351,232.423 200.166,228.438 200.128 C 222.477 200.071,219.726 196.887,218.945 189.141 L 218.779 187.500 235.055 187.500 L 251.330 187.500 251.168 182.266 C 250.624 164.663,238.982 154.522,223.281 157.975 M347.031 158.312 C 334.792 161.014,328.043 170.803,328.525 185.156 C 329.027 200.082,337.647 209.013,352.120 209.601 C 368.705 210.275,379.042 200.277,379.058 183.543 C 379.071 170.605,372.876 161.685,361.719 158.579 C 359.004 157.824,349.987 157.659,347.031 158.312 M115.781 158.722 C 104.660 161.779,99.292 169.804,99.252 183.438 C 99.204 199.921,106.356 208.756,120.182 209.294 C 132.863 209.787,140.263 203.823,141.698 191.953 L 141.897 190.313 134.698 190.313 L 127.500 190.313 127.500 191.373 C 127.500 194.808,125.174 198.616,122.608 199.381 C 117.269 200.974,114.063 194.871,114.063 183.119 C 114.063 172.317,116.981 166.777,122.205 167.659 C 125.016 168.134,126.153 169.939,127.368 175.859 L 127.512 176.563 134.574 176.563 L 141.635 176.563 141.413 174.489 C 140.626 167.136,135.996 161.491,128.750 159.049 C 125.781 158.049,118.867 157.874,115.781 158.722 M172.578 158.608 C 169.317 159.486,165.956 161.658,164.309 163.952 C 163.068 165.680,162.866 165.364,162.834 161.641 L 162.813 159.063 155.781 159.063 L 148.750 159.063 148.750 192.969 L 148.750 226.875 156.094 226.875 L 163.438 226.875 163.438 214.955 L 163.438 203.034 165.104 204.610 C 170.884 210.077,181.527 210.272,188.438 205.039 C 200.386 195.991,201.063 170.772,189.594 161.923 C 185.221 158.550,178.012 157.145,172.578 158.608 M296.061 161.172 C 296.157 162.504,296.323 173.613,296.432 185.859 L 296.629 208.125 303.769 208.125 L 310.909 208.125 311.016 193.516 C 311.136 177.189,311.097 177.495,313.336 175.005 C 315.487 172.613,319.747 171.273,323.955 171.666 L 325.938 171.851 325.938 165.301 L 325.938 158.750 323.984 158.755 C 318.038 158.772,313.142 161.319,310.642 165.696 L 309.774 167.216 309.578 166.030 C 309.470 165.378,309.380 163.473,309.378 161.797 L 309.375 158.750 302.632 158.750 L 295.888 158.750 296.061 161.172 M74.764 168.625 C 76.653 169.950,78.090 172.856,78.340 175.859 L 78.528 178.125 69.847 178.125 L 61.165 178.125 61.364 176.641 C 61.914 172.537,63.617 169.661,66.301 168.300 C 68.725 167.071,72.771 167.226,74.764 168.625 M176.109 167.849 C 185.414 170.192,185.771 194.383,176.563 198.531 C 170.840 201.108,164.790 197.245,163.262 190.038 C 160.443 176.737,166.927 165.537,176.109 167.849 M231.281 167.856 C 234.137 168.812,236.131 171.898,236.465 175.877 L 236.653 178.125 227.974 178.125 L 219.294 178.125 219.497 176.600 C 220.421 169.629,225.445 165.902,231.281 167.856 M358.163 168.363 C 366.471 172.097,366.726 194.429,358.508 198.571 C 354.335 200.674,348.424 199.395,345.993 195.863 C 342.032 190.105,342.462 175.428,346.741 170.343 C 348.979 167.684,354.517 166.724,358.163 168.363 " stroke="none" fill="#000000" fill-rule="evenodd"></path></g></svg>