<svg id="svg" version="1.1" xmlns="http://www.w3.org/2000/svg" xmlns:xlink="http://www.w3.org/1999/xlink" width="400" height="370.70254110612854" viewBox="0, 0, 400,370.70254110612854"><g id="svgg"><path id="path0" d="M203.800 0.250 C 202.424 0.335,201.297 0.542,201.297 0.711 C 201.297 0.879,199.796 1.134,197.961 1.278 C 196.126 1.421,194.625 1.680,194.625 1.852 C 194.625 2.024,193.540 2.281,192.215 2.423 C 190.890 2.565,189.805 2.829,189.805 3.009 C 189.805 3.189,189.388 3.336,188.879 3.336 C 188.369 3.336,187.952 3.493,187.952 3.684 C 187.952 3.876,187.201 4.145,186.284 4.283 C 185.366 4.420,184.615 4.659,184.615 4.814 C 184.615 4.969,183.948 5.202,183.133 5.332 C 182.317 5.463,181.650 5.734,181.650 5.936 C 181.650 6.137,181.316 6.302,180.908 6.302 C 180.500 6.302,180.167 6.456,180.167 6.643 C 180.167 6.831,179.666 7.095,179.055 7.229 C 178.443 7.363,177.943 7.627,177.943 7.814 C 177.943 8.002,177.759 8.156,177.535 8.156 C 177.090 8.156,174.534 9.289,174.235 9.619 C 174.005 9.874,172.738 10.675,172.058 10.996 C 170.087 11.925,168.888 14.087,170.343 14.087 C 170.853 14.087,171.270 13.932,171.270 13.743 C 171.270 13.554,172.187 13.284,173.309 13.144 C 174.430 13.004,175.348 12.742,175.348 12.562 C 175.348 12.381,175.931 12.234,176.645 12.234 C 177.359 12.234,177.943 12.084,177.943 11.901 C 177.943 11.719,179.319 11.450,181.001 11.304 C 182.683 11.159,184.293 10.849,184.580 10.617 C 185.305 10.028,206.774 10.021,207.150 10.609 C 207.295 10.837,208.540 11.142,209.917 11.287 C 211.293 11.432,212.419 11.705,212.419 11.892 C 212.419 12.080,212.826 12.234,213.324 12.234 C 213.822 12.234,214.323 12.386,214.438 12.572 C 214.553 12.758,215.355 13.029,216.221 13.173 C 217.086 13.318,217.878 13.541,217.980 13.669 C 218.350 14.134,220.519 15.199,221.095 15.199 C 221.421 15.199,221.687 15.353,221.687 15.541 C 221.687 15.728,222.187 15.992,222.799 16.126 C 223.411 16.260,223.911 16.504,223.911 16.668 C 223.911 16.832,224.203 17.064,224.560 17.184 C 225.302 17.433,226.428 18.137,227.166 18.814 C 227.444 19.069,227.870 19.277,228.113 19.277 C 228.356 19.277,228.868 19.694,229.250 20.204 C 229.633 20.714,230.097 21.131,230.281 21.131 C 230.629 21.131,231.411 21.712,232.177 22.539 C 232.422 22.803,232.839 23.220,233.104 23.465 C 233.746 24.060,234.144 24.475,235.131 25.579 C 236.444 27.049,237.685 27.694,240.437 28.336 C 248.114 30.128,262.516 34.639,268.026 36.976 C 281.193 42.562,284.111 43.992,291.937 48.690 C 293.160 49.424,294.578 50.237,295.088 50.495 C 296.333 51.126,303.827 56.482,307.299 59.222 C 308.636 60.277,308.804 60.267,308.804 59.129 C 308.804 58.619,308.640 58.202,308.438 58.202 C 308.237 58.202,307.965 57.535,307.835 56.719 C 307.704 55.904,307.465 55.236,307.304 55.236 C 307.142 55.236,306.900 54.736,306.766 54.124 C 306.631 53.513,306.368 53.012,306.180 53.012 C 305.992 53.012,305.839 52.595,305.839 52.085 C 305.839 51.576,305.685 51.158,305.497 51.158 C 305.310 51.158,305.046 50.658,304.912 50.046 C 304.778 49.435,304.514 48.934,304.326 48.934 C 304.139 48.934,303.985 48.595,303.985 48.181 C 303.985 47.767,303.735 47.332,303.429 47.215 C 303.123 47.097,302.873 46.686,302.873 46.300 C 302.873 45.914,302.719 45.598,302.532 45.598 C 302.344 45.598,302.088 45.130,301.962 44.558 C 301.836 43.986,301.406 43.281,301.006 42.993 C 300.606 42.704,300.278 42.250,300.278 41.983 C 300.278 41.715,300.028 41.401,299.722 41.283 C 299.416 41.166,299.166 40.749,299.166 40.356 C 299.166 39.964,298.916 39.547,298.610 39.430 C 298.304 39.312,298.054 38.984,298.054 38.700 C 298.054 38.416,297.898 38.184,297.708 38.184 C 297.518 38.184,297.247 37.820,297.106 37.377 C 296.965 36.933,296.454 36.142,295.969 35.619 C 295.484 35.097,295.088 34.536,295.088 34.373 C 295.088 34.209,294.421 33.441,293.605 32.665 C 292.790 31.890,292.122 31.128,292.122 30.974 C 292.122 30.675,290.054 28.414,288.268 26.759 C 287.677 26.212,286.607 25.139,285.891 24.374 C 285.175 23.610,284.423 22.984,284.220 22.984 C 284.018 22.984,283.217 22.317,282.441 21.501 C 281.665 20.686,280.865 20.019,280.662 20.019 C 280.459 20.019,279.876 19.601,279.366 19.092 C 278.857 18.582,278.260 18.165,278.040 18.165 C 277.821 18.165,277.545 17.915,277.428 17.609 C 277.310 17.303,276.917 17.053,276.552 17.053 C 276.188 17.053,275.794 16.803,275.677 16.497 C 275.560 16.191,275.142 15.941,274.750 15.941 C 274.358 15.941,273.941 15.690,273.823 15.385 C 273.706 15.079,273.391 14.829,273.124 14.829 C 272.857 14.829,272.402 14.501,272.114 14.101 C 271.825 13.700,271.121 13.270,270.549 13.145 C 269.977 13.019,269.509 12.781,269.509 12.616 C 269.509 12.451,268.925 12.207,268.211 12.073 C 267.498 11.939,266.914 11.670,266.914 11.475 C 266.914 11.281,266.664 11.121,266.358 11.121 C 266.052 11.121,265.802 10.962,265.802 10.767 C 265.802 10.573,265.218 10.304,264.504 10.170 C 263.791 10.036,263.207 9.778,263.207 9.597 C 263.207 9.416,262.956 9.268,262.651 9.268 C 262.345 9.268,262.095 9.114,262.095 8.927 C 262.095 8.739,261.594 8.475,260.982 8.341 C 260.371 8.207,259.870 7.965,259.870 7.803 C 259.870 7.641,259.203 7.402,258.387 7.272 C 257.572 7.142,256.905 6.870,256.905 6.668 C 256.905 6.467,256.487 6.302,255.978 6.302 C 255.468 6.302,255.051 6.151,255.051 5.966 C 255.051 5.781,254.217 5.516,253.197 5.375 C 252.178 5.235,251.344 4.988,251.344 4.827 C 251.344 4.665,250.597 4.421,249.684 4.284 C 248.772 4.147,247.928 3.878,247.809 3.686 C 247.690 3.494,247.102 3.336,246.503 3.336 C 245.903 3.336,245.412 3.183,245.412 2.995 C 245.412 2.808,244.286 2.537,242.910 2.394 C 241.534 2.251,240.241 2.004,240.037 1.846 C 239.833 1.687,238.332 1.435,236.701 1.286 C 235.070 1.137,233.624 0.842,233.489 0.631 C 233.241 0.242,208.976 -0.068,203.800 0.250 M248.193 102.688 C 248.048 104.523,247.780 106.024,247.597 106.024 C 247.415 106.024,247.266 106.848,247.266 107.856 C 247.266 108.863,247.113 109.782,246.927 109.897 C 246.740 110.013,246.470 111.357,246.327 112.885 C 246.184 114.413,245.939 115.663,245.783 115.663 C 245.627 115.663,245.383 116.747,245.241 118.072 C 245.099 119.398,244.829 120.482,244.641 120.482 C 244.454 120.482,244.300 121.149,244.300 121.965 C 244.300 122.780,244.153 123.448,243.973 123.448 C 243.793 123.448,243.529 124.532,243.387 125.857 C 243.245 127.183,242.988 128.267,242.815 128.267 C 242.642 128.267,242.385 129.184,242.245 130.306 C 242.105 131.427,241.843 132.345,241.663 132.345 C 241.482 132.345,241.335 132.929,241.335 133.642 C 241.335 134.356,241.180 134.940,240.991 134.940 C 240.801 134.940,240.532 135.857,240.392 136.979 C 240.252 138.100,239.989 139.018,239.809 139.018 C 239.629 139.018,239.481 139.435,239.481 139.944 C 239.481 140.454,239.326 140.871,239.137 140.871 C 238.948 140.871,238.678 141.789,238.538 142.910 C 238.398 144.032,238.151 144.949,237.990 144.949 C 237.829 144.949,237.582 145.783,237.442 146.803 C 237.302 147.822,237.036 148.656,236.851 148.656 C 236.666 148.656,236.515 149.073,236.515 149.583 C 236.515 150.093,236.367 150.510,236.187 150.510 C 236.006 150.510,235.745 151.260,235.608 152.178 C 235.470 153.095,235.217 153.846,235.045 153.846 C 234.872 153.846,234.617 154.680,234.476 155.700 C 234.336 156.719,234.070 157.553,233.886 157.553 C 233.701 157.553,233.550 157.970,233.550 158.480 C 233.550 158.990,233.404 159.407,233.226 159.407 C 233.048 159.407,232.796 160.074,232.666 160.890 C 232.535 161.705,232.264 162.373,232.062 162.373 C 231.861 162.373,231.696 162.790,231.696 163.299 C 231.696 163.809,231.551 164.226,231.373 164.226 C 231.195 164.226,230.943 164.893,230.812 165.709 C 230.682 166.525,230.426 167.192,230.244 167.192 C 230.061 167.192,229.797 168.026,229.657 169.045 C 229.517 170.065,229.251 170.899,229.066 170.899 C 228.881 170.899,228.730 171.149,228.730 171.455 C 228.730 171.761,228.585 172.011,228.407 172.011 C 228.229 172.011,227.977 172.678,227.847 173.494 C 227.716 174.310,227.466 174.977,227.290 174.977 C 227.115 174.977,226.865 175.644,226.734 176.460 C 226.604 177.275,226.332 177.943,226.131 177.943 C 225.929 177.943,225.765 178.193,225.765 178.499 C 225.765 178.804,225.619 179.055,225.441 179.055 C 225.263 179.055,225.011 179.722,224.881 180.538 C 224.750 181.353,224.481 182.020,224.282 182.020 C 224.083 182.020,223.813 182.688,223.683 183.503 C 223.552 184.319,223.300 184.986,223.122 184.986 C 222.944 184.986,222.799 185.320,222.799 185.728 C 222.799 186.135,222.645 186.469,222.458 186.469 C 222.270 186.469,222.006 186.969,221.872 187.581 C 221.738 188.193,221.474 188.693,221.287 188.693 C 221.099 188.693,220.945 189.110,220.945 189.620 C 220.945 190.130,220.792 190.547,220.604 190.547 C 220.416 190.547,220.153 191.047,220.019 191.659 C 219.884 192.271,219.628 192.771,219.450 192.771 C 219.271 192.771,219.016 193.355,218.882 194.069 C 218.748 194.782,218.490 195.366,218.309 195.366 C 218.128 195.366,217.980 195.616,217.980 195.922 C 217.980 196.228,217.826 196.478,217.638 196.478 C 217.451 196.478,217.187 196.979,217.053 197.590 C 216.918 198.202,216.674 198.703,216.509 198.703 C 216.344 198.703,216.099 199.286,215.965 200.000 C 215.831 200.714,215.562 201.297,215.368 201.297 C 215.173 201.297,215.014 201.636,215.014 202.051 C 215.014 202.890,214.311 204.528,213.110 206.487 C 212.673 207.201,211.866 208.619,211.317 209.639 C 210.275 211.574,207.999 215.515,206.822 217.424 C 206.445 218.035,205.793 219.120,205.374 219.833 C 202.953 223.960,199.774 228.360,199.214 228.360 C 198.933 228.360,198.703 228.573,198.703 228.833 C 198.703 229.094,198.369 229.593,197.961 229.942 C 197.553 230.291,197.220 230.789,197.220 231.048 C 197.220 231.308,196.803 231.833,196.293 232.216 C 195.783 232.599,195.366 233.211,195.366 233.577 C 195.366 233.942,195.041 234.344,194.644 234.470 C 194.246 234.596,193.806 235.066,193.665 235.515 C 193.372 236.447,191.078 238.740,190.438 238.740 C 190.203 238.740,190.424 239.031,190.928 239.387 C 193.857 241.454,221.638 246.690,236.701 248.014 C 253.044 249.449,262.836 249.285,262.836 247.576 C 262.836 247.403,263.253 246.898,263.763 246.455 C 264.272 246.012,264.690 245.453,264.690 245.212 C 264.690 244.972,265.107 244.462,265.616 244.079 C 266.126 243.696,266.543 243.185,266.543 242.943 C 266.543 242.702,267.044 242.003,267.655 241.392 C 268.267 240.780,268.767 240.100,268.767 239.880 C 268.767 239.661,268.923 239.481,269.113 239.481 C 269.303 239.481,269.570 239.131,269.706 238.703 C 269.842 238.275,270.270 237.608,270.658 237.220 C 271.045 236.832,271.362 236.283,271.362 235.999 C 271.362 235.715,272.963 233.088,274.919 230.162 C 278.975 224.093,281.884 219.320,285.394 212.975 C 287.705 208.799,293.661 196.829,295.079 193.513 C 297.160 188.645,298.925 185.153,299.576 184.615 C 299.699 184.513,299.915 183.804,300.056 183.040 C 300.197 182.275,300.471 181.650,300.666 181.650 C 300.860 181.650,301.019 181.233,301.019 180.723 C 301.019 180.213,301.172 179.796,301.358 179.796 C 301.544 179.796,301.808 179.129,301.946 178.313 C 302.084 177.498,302.349 176.830,302.535 176.830 C 302.721 176.830,302.873 176.423,302.873 175.925 C 302.873 175.428,303.030 174.923,303.222 174.805 C 303.414 174.686,303.684 173.842,303.820 172.929 C 303.957 172.017,304.202 171.270,304.363 171.270 C 304.525 171.270,304.772 170.436,304.912 169.416 C 305.052 168.397,305.318 167.563,305.503 167.563 C 305.688 167.563,305.839 167.262,305.839 166.895 C 305.839 166.528,306.010 166.057,306.219 165.847 C 306.429 165.638,306.702 164.604,306.827 163.549 C 306.952 162.494,307.186 161.631,307.347 161.631 C 307.507 161.631,307.754 160.714,307.894 159.592 C 308.034 158.471,308.296 157.553,308.476 157.553 C 308.657 157.553,308.804 157.136,308.804 156.627 C 308.804 156.117,308.958 155.700,309.146 155.700 C 309.333 155.700,309.603 154.615,309.745 153.290 C 309.887 151.965,310.140 150.880,310.308 150.880 C 310.476 150.880,310.728 149.713,310.869 148.285 C 311.009 146.858,311.270 145.690,311.447 145.690 C 311.625 145.690,311.770 145.107,311.770 144.393 C 311.770 143.677,311.958 143.095,312.188 143.095 C 313.814 143.095,312.204 139.234,309.496 136.640 C 305.966 133.259,296.880 125.672,296.361 125.672 C 296.227 125.672,295.321 125.005,294.347 124.189 C 293.373 123.373,292.479 122.706,292.361 122.706 C 292.242 122.706,291.131 121.997,289.891 121.131 C 287.347 119.352,286.206 118.611,284.337 117.523 C 282.421 116.406,281.686 115.941,280.377 115.015 C 279.728 114.556,279.042 114.180,278.853 114.180 C 278.664 114.180,277.939 113.792,277.241 113.319 C 274.999 111.798,262.297 105.161,258.743 103.655 C 257.834 103.269,256.423 102.629,255.607 102.232 C 253.744 101.325,249.014 99.354,248.696 99.353 C 248.564 99.352,248.338 100.853,248.193 102.688 M85.264 255.978 C 85.264 256.487,85.410 256.905,85.587 256.905 C 85.765 256.905,86.018 257.572,86.148 258.387 C 86.278 259.203,86.529 259.870,86.704 259.870 C 86.879 259.870,87.130 260.538,87.260 261.353 C 87.390 262.169,87.662 262.836,87.864 262.836 C 88.065 262.836,88.230 263.086,88.230 263.392 C 88.230 263.698,88.393 263.948,88.593 263.948 C 88.794 263.948,89.062 264.365,89.190 264.875 C 89.318 265.385,89.552 265.802,89.710 265.802 C 89.868 265.802,90.095 266.094,90.215 266.450 C 90.464 267.193,91.168 268.318,91.844 269.056 C 92.099 269.334,92.308 269.789,92.308 270.066 C 92.308 270.344,92.633 270.674,93.030 270.800 C 93.428 270.926,93.868 271.396,94.009 271.845 C 94.151 272.293,94.910 273.305,95.697 274.094 C 96.483 274.882,97.127 275.690,97.127 275.888 C 97.127 276.308,100.355 279.518,100.778 279.518 C 100.935 279.518,101.929 280.352,102.986 281.372 C 104.044 282.391,105.054 283.225,105.230 283.225 C 105.406 283.225,105.863 283.642,106.246 284.152 C 106.628 284.662,107.154 285.079,107.413 285.079 C 107.673 285.079,108.171 285.412,108.520 285.820 C 108.869 286.228,109.411 286.562,109.724 286.562 C 110.038 286.562,110.493 286.880,110.737 287.270 C 110.980 287.659,111.687 288.089,112.309 288.226 C 112.930 288.362,113.438 288.610,113.438 288.775 C 113.438 288.941,113.855 289.181,114.365 289.309 C 114.875 289.437,115.292 289.705,115.292 289.905 C 115.292 290.105,115.542 290.269,115.848 290.269 C 116.154 290.269,116.404 290.422,116.404 290.610 C 116.404 290.798,116.905 291.061,117.516 291.196 C 118.128 291.330,118.628 291.554,118.628 291.694 C 118.628 292.058,121.461 293.234,122.338 293.234 C 122.744 293.234,123.077 293.399,123.077 293.601 C 123.077 293.802,123.744 294.074,124.560 294.204 C 125.375 294.335,126.043 294.587,126.043 294.765 C 126.043 294.943,126.293 295.088,126.599 295.088 C 126.905 295.088,127.155 295.239,127.155 295.424 C 127.155 295.609,127.989 295.875,129.008 296.015 C 130.028 296.155,130.862 296.405,130.862 296.569 C 130.862 296.734,131.863 296.985,133.086 297.127 C 134.310 297.269,135.310 297.536,135.310 297.719 C 135.310 297.903,135.894 298.054,136.608 298.054 C 137.322 298.054,137.905 298.201,137.905 298.381 C 137.905 298.561,139.198 298.829,140.778 298.976 C 142.359 299.124,143.771 299.435,143.916 299.669 C 144.285 300.260,174.516 300.274,174.898 299.683 C 175.043 299.457,176.664 299.154,178.499 299.010 C 180.334 298.865,181.891 298.591,181.959 298.400 C 182.027 298.210,182.559 298.054,183.142 298.054 C 183.724 298.054,184.289 297.911,184.397 297.736 C 184.505 297.561,185.542 297.320,186.701 297.201 C 187.861 297.081,188.908 296.833,189.029 296.649 C 189.150 296.465,190.038 296.209,191.002 296.080 C 191.966 295.951,193.134 295.649,193.597 295.409 C 195.375 294.487,195.749 294.353,197.203 294.121 C 198.028 293.989,198.703 293.757,198.703 293.605 C 198.703 293.453,199.377 293.221,200.202 293.090 C 201.588 292.868,203.078 292.250,203.522 291.712 C 203.624 291.589,204.333 291.373,205.097 291.232 C 205.862 291.092,206.487 290.817,206.487 290.623 C 206.487 290.428,206.738 290.269,207.044 290.269 C 207.349 290.269,207.600 290.121,207.600 289.939 C 207.600 289.758,208.176 289.502,208.881 289.369 C 209.586 289.237,210.629 288.886,211.198 288.589 C 211.768 288.292,212.442 288.048,212.697 288.047 C 212.952 288.046,213.160 287.878,213.160 287.674 C 213.160 287.470,213.411 287.303,213.716 287.303 C 214.022 287.303,214.272 287.149,214.272 286.962 C 214.272 286.774,214.761 286.513,215.359 286.382 C 215.957 286.251,216.644 285.904,216.887 285.611 C 217.130 285.318,217.559 285.079,217.840 285.079 C 218.121 285.079,218.350 284.912,218.350 284.708 C 218.350 284.504,218.684 284.337,219.092 284.337 C 219.993 284.337,220.082 283.698,219.204 283.529 C 218.858 283.462,216.648 283.545,214.292 283.713 C 208.501 284.125,190.253 283.735,184.986 283.087 C 170.883 281.351,160.614 279.262,148.409 275.647 C 143.905 274.313,140.381 274.140,139.680 275.219 C 139.308 275.791,118.944 275.785,118.222 275.213 C 117.936 274.986,116.785 274.697,115.665 274.571 C 114.545 274.445,113.572 274.172,113.502 273.964 C 113.433 273.757,112.807 273.587,112.110 273.587 C 111.413 273.587,110.843 273.422,110.843 273.220 C 110.843 273.019,110.176 272.747,109.361 272.617 C 108.545 272.486,107.878 272.236,107.878 272.061 C 107.878 271.885,107.210 271.635,106.395 271.505 C 105.579 271.374,104.912 271.122,104.912 270.944 C 104.912 270.766,104.662 270.621,104.356 270.621 C 104.050 270.621,103.800 270.467,103.800 270.280 C 103.800 270.092,103.292 269.827,102.672 269.691 C 102.051 269.554,101.149 269.082,100.668 268.642 C 99.243 267.337,98.782 267.018,97.933 266.749 C 97.490 266.608,97.127 266.338,97.127 266.147 C 97.127 265.957,96.947 265.802,96.728 265.802 C 96.508 265.802,95.846 265.343,95.257 264.782 C 93.812 263.408,93.117 262.836,92.894 262.836 C 92.552 262.836,89.342 259.571,89.342 259.224 C 89.342 259.036,88.846 258.395,88.240 257.800 C 87.634 257.206,87.134 256.582,87.128 256.415 C 87.085 255.143,85.264 254.716,85.264 255.978 " stroke="none" fill="#034ea2" fill-rule="evenodd"></path><path id="path1" d="M176.182 22.864 C 174.500 22.947,173.123 23.153,173.123 23.322 C 173.123 23.492,171.121 23.750,168.675 23.896 C 166.228 24.042,164.226 24.314,164.226 24.500 C 164.226 24.686,163.392 24.838,162.373 24.838 C 161.353 24.838,160.519 24.987,160.519 25.170 C 160.519 25.353,159.184 25.620,157.553 25.765 C 155.922 25.909,154.588 26.163,154.588 26.330 C 154.588 26.496,153.503 26.748,152.178 26.890 C 150.853 27.032,149.768 27.296,149.768 27.476 C 149.768 27.656,149.268 27.804,148.656 27.804 C 148.044 27.804,147.544 27.951,147.544 28.131 C 147.544 28.311,146.460 28.575,145.134 28.717 C 143.809 28.859,142.725 29.128,142.725 29.316 C 142.725 29.504,142.308 29.657,141.798 29.657 C 141.288 29.657,140.871 29.808,140.871 29.993 C 140.871 30.178,140.037 30.444,139.018 30.584 C 137.998 30.724,137.164 30.971,137.164 31.133 C 137.164 31.294,136.413 31.539,135.496 31.677 C 134.578 31.814,133.828 32.083,133.828 32.275 C 133.828 32.466,133.411 32.623,132.901 32.623 C 132.391 32.623,131.974 32.768,131.974 32.946 C 131.974 33.124,131.307 33.376,130.491 33.507 C 129.676 33.637,129.008 33.887,129.008 34.063 C 129.008 34.238,128.341 34.488,127.525 34.619 C 126.710 34.749,126.043 35.021,126.043 35.222 C 126.043 35.424,125.626 35.589,125.116 35.589 C 124.606 35.589,124.189 35.748,124.189 35.942 C 124.189 36.137,123.605 36.406,122.892 36.540 C 122.178 36.674,121.594 36.931,121.594 37.113 C 121.594 37.294,121.344 37.442,121.038 37.442 C 120.732 37.442,120.482 37.588,120.482 37.765 C 120.482 37.943,119.815 38.195,118.999 38.326 C 118.184 38.456,117.516 38.715,117.516 38.900 C 117.516 39.085,117.016 39.347,116.404 39.481 C 115.792 39.615,115.292 39.879,115.292 40.067 C 115.292 40.254,114.958 40.408,114.551 40.408 C 114.143 40.408,113.809 40.561,113.809 40.749 C 113.809 40.937,113.309 41.200,112.697 41.335 C 112.085 41.469,111.585 41.714,111.585 41.880 C 111.585 42.045,111.168 42.286,110.658 42.414 C 110.148 42.542,109.731 42.810,109.731 43.010 C 109.731 43.210,109.481 43.373,109.175 43.373 C 108.869 43.373,108.619 43.533,108.619 43.727 C 108.619 43.922,108.047 44.189,107.347 44.320 C 106.648 44.451,105.986 44.792,105.876 45.078 C 105.766 45.364,105.482 45.598,105.245 45.598 C 105.008 45.598,104.544 45.908,104.214 46.286 C 103.884 46.665,103.239 47.093,102.780 47.238 C 102.322 47.383,101.946 47.657,101.946 47.847 C 101.946 48.037,101.696 48.193,101.390 48.193 C 101.084 48.193,100.834 48.348,100.834 48.539 C 100.834 48.729,100.459 49.002,100.000 49.146 C 99.541 49.290,98.799 49.802,98.349 50.283 C 97.900 50.765,97.435 51.158,97.314 51.158 C 97.049 51.158,96.179 51.856,95.350 52.734 C 95.013 53.091,94.600 53.383,94.432 53.383 C 94.264 53.383,93.292 54.217,92.272 55.236 C 91.253 56.256,90.267 57.090,90.081 57.090 C 89.617 57.090,79.333 67.400,79.333 67.866 C 79.333 68.072,78.665 68.876,77.850 69.652 C 77.034 70.427,76.367 71.255,76.367 71.490 C 76.367 71.726,76.211 71.918,76.021 71.918 C 75.831 71.918,75.572 72.244,75.446 72.641 C 75.320 73.038,74.892 73.467,74.494 73.593 C 74.097 73.719,73.772 74.121,73.772 74.486 C 73.772 74.852,73.355 75.464,72.845 75.847 C 72.335 76.230,71.918 76.755,71.918 77.015 C 71.918 77.274,71.585 77.772,71.177 78.121 C 70.769 78.470,70.436 78.908,70.436 79.094 C 70.436 79.279,70.126 79.701,69.747 80.031 C 69.369 80.360,68.940 81.006,68.795 81.464 C 68.651 81.923,68.395 82.298,68.227 82.298 C 68.058 82.298,67.816 82.715,67.688 83.225 C 67.560 83.735,67.292 84.152,67.092 84.152 C 66.892 84.152,66.728 84.402,66.728 84.708 C 66.728 85.014,66.565 85.264,66.365 85.264 C 66.165 85.264,65.896 85.681,65.769 86.191 C 65.641 86.701,65.387 87.118,65.205 87.118 C 65.024 87.118,64.875 87.368,64.875 87.674 C 64.875 87.980,64.711 88.230,64.511 88.230 C 64.311 88.230,64.043 88.647,63.915 89.157 C 63.787 89.666,63.552 90.083,63.392 90.083 C 63.232 90.083,62.997 90.500,62.869 91.010 C 62.741 91.520,62.473 91.937,62.273 91.937 C 62.073 91.937,61.909 92.187,61.909 92.493 C 61.909 92.799,61.756 93.049,61.568 93.049 C 61.380 93.049,61.117 93.550,60.982 94.161 C 60.848 94.773,60.603 95.273,60.438 95.273 C 60.273 95.273,60.029 95.857,59.895 96.571 C 59.761 97.285,59.492 97.868,59.297 97.868 C 59.103 97.868,58.943 98.119,58.943 98.424 C 58.943 98.730,58.790 98.981,58.602 98.981 C 58.415 98.981,58.151 99.481,58.017 100.093 C 57.882 100.704,57.638 101.205,57.473 101.205 C 57.309 101.205,57.062 101.956,56.924 102.873 C 56.786 103.791,56.517 104.541,56.326 104.541 C 56.134 104.541,55.978 104.791,55.978 105.097 C 55.978 105.403,55.811 105.653,55.607 105.653 C 55.403 105.653,55.236 105.904,55.236 106.209 C 55.236 106.555,55.586 106.766,56.163 106.766 C 56.740 106.766,57.090 106.555,57.090 106.209 C 57.090 105.904,57.245 105.653,57.436 105.653 C 57.626 105.653,57.899 105.278,58.043 104.819 C 58.187 104.361,58.866 103.454,59.551 102.805 C 60.236 102.156,60.797 101.471,60.797 101.282 C 60.797 100.821,65.553 96.015,66.010 96.015 C 66.208 96.015,66.916 95.454,67.582 94.768 C 68.248 94.082,69.147 93.408,69.580 93.271 C 70.013 93.133,70.461 92.777,70.575 92.479 C 70.689 92.181,71.002 91.937,71.269 91.937 C 71.536 91.937,71.991 91.609,72.279 91.209 C 72.568 90.809,73.272 90.379,73.844 90.253 C 74.416 90.127,74.884 89.889,74.884 89.724 C 74.884 89.559,75.459 89.317,76.161 89.185 C 76.935 89.040,77.523 88.676,77.655 88.261 C 77.780 87.865,78.374 87.476,79.063 87.338 C 80.572 87.037,82.298 86.279,82.298 85.919 C 82.298 85.768,82.966 85.537,83.781 85.406 C 84.597 85.276,85.264 85.045,85.264 84.893 C 85.264 84.742,85.931 84.511,86.747 84.380 C 87.563 84.250,88.230 83.978,88.230 83.777 C 88.230 83.575,88.647 83.411,89.157 83.411 C 89.666 83.411,90.083 83.263,90.083 83.083 C 90.083 82.902,91.001 82.640,92.122 82.500 C 93.244 82.360,94.161 82.104,94.161 81.931 C 94.161 81.758,95.246 81.500,96.571 81.358 C 97.896 81.216,98.981 80.953,98.981 80.772 C 98.981 80.592,99.481 80.445,100.093 80.445 C 100.704 80.445,101.205 80.291,101.205 80.102 C 101.205 79.913,102.706 79.642,104.541 79.498 C 106.376 79.355,107.878 79.092,107.878 78.914 C 107.878 78.737,108.698 78.591,109.700 78.591 C 110.703 78.591,111.579 78.435,111.647 78.245 C 111.715 78.054,114.231 77.780,117.238 77.635 C 120.246 77.490,122.706 77.229,122.706 77.055 C 122.706 76.880,129.045 76.738,136.793 76.738 C 144.541 76.738,150.880 76.880,150.880 77.054 C 150.880 77.228,153.925 77.490,157.646 77.635 C 161.367 77.781,164.467 78.055,164.535 78.246 C 164.603 78.436,165.729 78.591,167.037 78.591 C 168.346 78.591,169.416 78.734,169.416 78.909 C 169.416 79.084,171.293 79.345,173.587 79.489 C 175.880 79.633,177.813 79.907,177.881 80.098 C 177.949 80.289,178.908 80.445,180.012 80.445 C 181.117 80.445,182.020 80.599,182.020 80.788 C 182.020 80.976,183.522 81.248,185.357 81.392 C 187.192 81.535,188.693 81.781,188.693 81.937 C 188.693 82.093,190.028 82.339,191.659 82.484 C 193.290 82.628,194.625 82.896,194.625 83.078 C 194.625 83.261,195.209 83.411,195.922 83.411 C 196.636 83.411,197.220 83.556,197.220 83.733 C 197.220 83.911,198.387 84.171,199.815 84.312 C 201.242 84.453,202.410 84.705,202.410 84.873 C 202.410 85.040,203.494 85.294,204.819 85.436 C 206.145 85.578,207.229 85.847,207.229 86.035 C 207.229 86.223,207.720 86.376,208.319 86.376 C 208.919 86.376,209.502 86.527,209.616 86.711 C 209.730 86.894,210.824 87.161,212.048 87.303 C 213.271 87.445,214.272 87.712,214.272 87.896 C 214.272 88.079,214.690 88.230,215.199 88.230 C 215.709 88.230,216.126 88.373,216.126 88.549 C 216.126 88.724,217.001 88.972,218.070 89.098 C 219.139 89.225,220.068 89.491,220.135 89.690 C 220.201 89.890,221.245 90.164,222.454 90.301 C 223.663 90.438,224.652 90.695,224.652 90.873 C 224.652 91.050,225.070 91.196,225.579 91.196 C 226.089 91.196,226.506 91.352,226.506 91.544 C 226.506 91.735,227.257 92.004,228.174 92.142 C 229.092 92.279,229.842 92.524,229.842 92.686 C 229.842 92.847,230.677 93.094,231.696 93.234 C 232.715 93.375,233.550 93.641,233.550 93.825 C 233.550 94.010,233.967 94.161,234.476 94.161 C 234.986 94.161,235.403 94.326,235.403 94.528 C 235.403 94.729,236.070 95.001,236.886 95.131 C 237.702 95.261,238.369 95.492,238.369 95.644 C 238.369 95.796,239.036 96.027,239.852 96.157 C 240.667 96.288,241.335 96.559,241.335 96.761 C 241.335 96.962,241.752 97.127,242.261 97.127 C 242.771 97.127,243.188 97.292,243.188 97.493 C 243.188 97.695,243.855 97.966,244.671 98.097 C 245.487 98.227,246.154 98.479,246.154 98.657 C 246.154 98.835,246.404 98.981,246.710 98.981 C 247.016 98.981,247.266 99.165,247.266 99.391 C 247.266 99.635,247.613 99.715,248.121 99.588 C 248.931 99.384,251.948 100.450,255.607 102.232 C 256.423 102.629,257.834 103.269,258.743 103.655 C 262.297 105.161,274.999 111.798,277.241 113.319 C 277.939 113.792,278.664 114.180,278.853 114.180 C 279.042 114.180,279.728 114.556,280.377 115.015 C 281.686 115.941,282.421 116.406,284.337 117.523 C 286.206 118.611,287.347 119.352,289.891 121.131 C 291.131 121.997,292.242 122.706,292.361 122.706 C 292.479 122.706,293.373 123.373,294.347 124.189 C 295.321 125.005,296.227 125.672,296.361 125.672 C 296.608 125.672,299.027 127.589,303.975 131.707 C 308.014 135.068,312.141 139.070,312.141 139.624 C 312.141 139.889,313.142 141.145,314.365 142.414 C 315.589 143.684,316.589 144.864,316.589 145.036 C 316.589 145.209,317.257 145.984,318.072 146.760 C 318.888 147.536,319.555 148.287,319.555 148.429 C 319.555 148.675,319.914 149.161,320.945 150.311 C 321.200 150.595,321.409 150.988,321.409 151.185 C 321.409 151.382,321.659 151.639,321.965 151.756 C 322.271 151.873,322.521 152.308,322.521 152.722 C 322.521 153.137,322.692 153.475,322.901 153.475 C 323.110 153.475,323.441 153.897,323.637 154.412 C 323.832 154.927,324.241 155.443,324.544 155.560 C 324.847 155.676,325.201 156.333,325.330 157.020 C 325.471 157.774,325.838 158.356,326.254 158.488 C 326.674 158.622,327.037 159.206,327.183 159.984 C 327.315 160.686,327.558 161.260,327.723 161.260 C 327.888 161.260,328.133 161.761,328.267 162.373 C 328.401 162.984,328.665 163.485,328.852 163.485 C 329.040 163.485,329.194 163.891,329.194 164.387 C 329.194 164.925,329.459 165.373,329.853 165.497 C 330.280 165.633,330.743 166.519,331.171 168.025 C 331.534 169.300,331.967 170.677,332.134 171.084 C 334.151 176.011,335.069 189.578,333.840 196.293 C 331.828 207.280,326.462 216.241,317.702 223.243 C 316.784 223.976,316.139 224.684,316.268 224.817 C 316.702 225.266,318.415 224.585,318.640 223.874 C 318.763 223.487,319.191 223.170,319.592 223.170 C 319.992 223.170,320.416 222.919,320.533 222.614 C 320.651 222.308,321.068 222.057,321.460 222.057 C 321.852 222.057,322.269 221.807,322.387 221.501 C 322.504 221.196,322.756 220.945,322.947 220.945 C 323.413 220.945,324.568 219.938,326.866 217.528 C 327.116 217.267,327.511 216.864,327.745 216.634 C 327.979 216.403,328.645 215.736,329.226 215.151 C 329.807 214.566,330.496 213.892,330.757 213.653 C 331.209 213.240,332.082 212.214,333.670 210.231 C 334.063 209.741,334.384 209.155,334.384 208.928 C 334.384 208.702,334.801 208.204,335.310 207.821 C 335.820 207.438,336.237 206.898,336.237 206.621 C 336.237 206.344,336.404 206.117,336.608 206.117 C 336.812 206.117,336.979 205.778,336.979 205.364 C 336.979 204.950,337.229 204.515,337.535 204.397 C 337.841 204.280,338.091 203.951,338.091 203.667 C 338.091 203.383,338.246 203.151,338.437 203.151 C 338.627 203.151,338.899 202.776,339.043 202.317 C 339.186 201.858,339.414 201.399,339.550 201.297 C 339.894 201.040,341.057 198.494,341.057 197.998 C 341.057 197.774,341.210 197.590,341.398 197.590 C 341.585 197.590,341.849 197.090,341.983 196.478 C 342.118 195.867,342.381 195.366,342.569 195.366 C 342.757 195.366,342.910 195.032,342.910 194.625 C 342.910 194.217,343.062 193.883,343.248 193.883 C 343.434 193.883,343.699 193.216,343.837 192.400 C 343.975 191.585,344.218 190.918,344.378 190.918 C 344.538 190.918,344.776 190.250,344.906 189.435 C 345.036 188.619,345.308 187.952,345.509 187.952 C 345.711 187.952,345.876 187.535,345.876 187.025 C 345.876 186.515,346.032 186.098,346.224 186.098 C 346.415 186.098,346.684 185.348,346.822 184.430 C 346.960 183.513,347.198 182.762,347.353 182.762 C 347.507 182.762,347.747 181.761,347.885 180.538 C 348.024 179.314,348.295 178.313,348.489 178.313 C 348.683 178.313,348.842 177.646,348.842 176.830 C 348.842 176.015,348.998 175.348,349.190 175.348 C 349.381 175.348,349.653 174.180,349.794 172.753 C 349.934 171.325,350.195 170.158,350.372 170.158 C 350.550 170.158,350.695 169.273,350.695 168.193 C 350.695 167.112,350.904 166.019,351.158 165.765 C 351.515 165.409,351.622 161.684,351.622 149.688 C 351.622 137.527,351.519 134.041,351.158 133.920 C 350.857 133.820,350.695 132.998,350.695 131.572 C 350.695 130.366,350.546 129.379,350.363 129.379 C 350.180 129.379,349.913 128.044,349.768 126.413 C 349.624 124.782,349.356 123.448,349.174 123.448 C 348.991 123.448,348.842 122.947,348.842 122.335 C 348.842 121.724,348.696 121.223,348.519 121.223 C 348.341 121.223,348.084 120.234,347.947 119.025 C 347.810 117.816,347.535 116.772,347.336 116.706 C 347.137 116.639,346.871 115.710,346.744 114.641 C 346.618 113.572,346.370 112.697,346.195 112.697 C 346.019 112.697,345.876 112.447,345.876 112.141 C 345.876 111.835,345.725 111.585,345.540 111.585 C 345.355 111.585,345.089 110.751,344.949 109.731 C 344.809 108.712,344.545 107.878,344.363 107.878 C 344.180 107.878,343.924 107.210,343.794 106.395 C 343.663 105.579,343.411 104.912,343.233 104.912 C 343.056 104.912,342.910 104.662,342.910 104.356 C 342.910 104.050,342.745 103.800,342.544 103.800 C 342.342 103.800,342.071 103.133,341.940 102.317 C 341.810 101.501,341.558 100.834,341.380 100.834 C 341.202 100.834,341.057 100.651,341.057 100.427 C 341.057 99.931,339.894 97.385,339.550 97.127 C 339.414 97.025,339.173 96.525,339.015 96.015 C 338.856 95.505,338.428 94.828,338.063 94.510 C 337.698 94.192,337.286 93.483,337.149 92.934 C 337.011 92.386,336.750 91.937,336.568 91.937 C 336.386 91.937,336.237 91.598,336.237 91.184 C 336.237 90.770,335.987 90.335,335.681 90.217 C 335.375 90.100,335.125 89.772,335.125 89.488 C 335.125 89.204,334.961 88.971,334.761 88.971 C 334.561 88.971,334.293 88.554,334.165 88.044 C 334.037 87.535,333.795 87.118,333.627 87.118 C 333.459 87.118,333.203 86.742,333.058 86.284 C 332.913 85.825,332.509 85.199,332.159 84.893 C 331.810 84.588,331.406 83.962,331.261 83.503 C 331.116 83.044,330.842 82.669,330.652 82.669 C 330.461 82.669,330.306 82.494,330.306 82.281 C 330.306 82.067,329.912 81.525,329.431 81.076 C 328.949 80.627,328.440 79.893,328.299 79.444 C 328.159 78.996,327.727 78.529,327.340 78.406 C 326.953 78.283,326.523 77.825,326.384 77.388 C 326.246 76.951,325.236 75.698,324.141 74.603 C 323.046 73.508,322.150 72.461,322.150 72.278 C 322.150 71.842,314.441 64.133,314.006 64.133 C 313.822 64.133,312.755 63.216,311.633 62.095 C 310.512 60.973,309.315 60.056,308.975 60.056 C 308.634 60.056,307.880 59.680,307.299 59.222 C 303.827 56.482,296.333 51.126,295.088 50.495 C 294.578 50.237,293.160 49.424,291.937 48.690 C 284.111 43.992,281.193 42.562,268.026 36.976 C 262.510 34.636,248.123 30.131,240.415 28.331 C 238.992 27.998,237.495 27.493,237.089 27.209 C 236.683 26.924,235.804 26.691,235.135 26.691 C 234.467 26.691,233.920 26.540,233.920 26.354 C 233.920 26.168,232.502 25.898,230.769 25.754 C 229.036 25.610,227.618 25.344,227.618 25.165 C 227.618 24.985,226.784 24.838,225.765 24.838 C 224.745 24.838,223.911 24.687,223.911 24.504 C 223.911 24.320,221.951 24.049,219.555 23.901 C 217.159 23.753,215.090 23.459,214.955 23.249 C 214.711 22.864,182.661 22.546,176.182 22.864 M0.000 301.946 L 0.000 309.546 14.829 309.546 L 29.657 309.546 29.657 332.715 C 29.657 345.936,29.798 355.885,29.986 355.885 C 30.166 355.885,30.427 356.636,30.564 357.553 C 30.702 358.471,30.971 359.222,31.163 359.222 C 31.354 359.222,31.511 359.477,31.511 359.789 C 31.511 360.101,31.761 360.453,32.067 360.570 C 32.373 360.688,32.623 361.011,32.623 361.288 C 32.623 361.943,35.092 364.411,35.747 364.411 C 36.024 364.411,36.347 364.662,36.464 364.968 C 36.581 365.273,37.005 365.524,37.405 365.524 C 37.806 365.524,38.238 365.851,38.365 366.252 C 38.511 366.714,39.064 367.068,39.873 367.220 C 40.575 367.352,41.149 367.598,41.149 367.766 C 41.149 367.935,41.900 368.186,42.817 368.323 C 43.735 368.461,44.486 368.721,44.486 368.902 C 44.486 369.083,45.056 369.231,45.752 369.231 C 46.449 369.231,47.074 369.389,47.142 369.583 C 47.210 369.777,48.809 370.051,50.695 370.192 L 54.124 370.449 54.124 339.998 L 54.124 309.546 70.581 309.546 C 85.246 309.546,87.063 309.482,87.263 308.959 C 87.387 308.637,87.488 305.217,87.488 301.360 L 87.488 294.347 43.744 294.347 L 0.000 294.347 0.000 301.946 M113.438 310.287 C 113.438 310.504,112.203 310.658,110.473 310.658 C 108.842 310.658,107.507 310.800,107.507 310.974 C 107.507 311.148,106.231 311.398,104.672 311.530 C 103.113 311.662,101.653 311.918,101.428 312.099 C 101.203 312.280,100.144 312.546,99.073 312.690 C 98.003 312.834,97.127 313.103,97.127 313.288 C 97.127 313.473,96.877 313.624,96.571 313.624 C 96.265 313.624,96.015 313.769,96.015 313.947 C 96.015 314.125,95.348 314.377,94.532 314.508 C 93.716 314.638,93.049 314.909,93.049 315.111 C 93.049 315.312,92.799 315.477,92.493 315.477 C 92.187 315.477,91.937 315.641,91.937 315.841 C 91.937 316.041,91.520 316.309,91.010 316.437 C 90.500 316.565,90.083 316.819,90.083 317.000 C 90.083 317.182,89.841 317.331,89.544 317.331 C 89.248 317.331,88.588 317.748,88.078 318.258 C 87.568 318.767,87.014 319.184,86.846 319.184 C 86.678 319.184,86.265 319.476,85.929 319.833 C 85.592 320.190,85.096 320.682,84.827 320.928 C 84.106 321.584,83.411 322.458,83.411 322.708 C 83.411 322.829,82.994 323.313,82.485 323.785 C 81.976 324.257,81.455 325.162,81.328 325.795 C 81.202 326.429,80.805 327.041,80.446 327.154 C 80.035 327.285,79.710 327.892,79.564 328.802 C 79.438 329.595,79.168 330.299,78.966 330.367 C 78.764 330.435,78.490 331.534,78.357 332.808 C 78.224 334.082,77.972 335.125,77.797 335.125 C 77.622 335.125,77.479 337.711,77.479 340.871 C 77.479 344.032,77.622 346.617,77.797 346.617 C 77.972 346.617,78.223 347.651,78.355 348.913 C 78.487 350.176,78.748 351.304,78.934 351.419 C 79.121 351.535,79.389 352.086,79.529 352.645 C 79.669 353.204,79.933 353.661,80.114 353.661 C 80.296 353.661,80.445 353.911,80.445 354.217 C 80.445 354.523,80.598 354.773,80.786 354.773 C 80.974 354.773,81.241 355.291,81.380 355.924 C 81.598 356.914,82.728 358.222,85.720 360.948 C 85.979 361.184,86.525 361.802,86.932 362.321 C 87.340 362.840,87.971 363.273,88.334 363.282 C 88.697 363.292,89.091 363.550,89.208 363.855 C 89.325 364.161,89.654 364.411,89.938 364.411 C 90.222 364.411,90.454 364.575,90.454 364.775 C 90.454 364.975,90.871 365.243,91.381 365.371 C 91.891 365.499,92.308 365.753,92.308 365.935 C 92.308 366.116,92.641 366.265,93.049 366.265 C 93.457 366.265,93.791 366.417,93.791 366.603 C 93.791 366.789,94.458 367.054,95.273 367.192 C 96.089 367.330,96.756 367.584,96.756 367.758 C 96.756 367.931,97.507 368.186,98.424 368.323 C 99.342 368.461,100.093 368.721,100.093 368.902 C 100.093 369.083,100.663 369.231,101.359 369.231 C 102.056 369.231,102.681 369.378,102.749 369.558 C 102.969 370.140,111.226 370.714,119.370 370.714 C 127.514 370.714,135.771 370.140,135.990 369.558 C 136.058 369.378,136.600 369.231,137.195 369.231 C 137.790 369.231,138.276 369.080,138.276 368.895 C 138.276 368.710,139.110 368.444,140.130 368.304 C 141.149 368.164,141.983 367.898,141.983 367.713 C 141.983 367.528,142.149 367.377,142.351 367.377 C 142.950 367.377,145.690 366.112,145.690 365.836 C 145.690 365.697,146.191 365.473,146.803 365.338 C 147.414 365.204,147.915 364.940,147.915 364.753 C 147.915 364.565,148.093 364.411,148.312 364.411 C 148.530 364.411,148.942 364.203,149.226 363.948 C 150.346 362.943,150.859 362.558,151.074 362.558 C 151.443 362.558,155.329 358.622,155.329 358.248 C 155.329 358.058,155.663 357.618,156.070 357.269 C 156.478 356.919,156.812 356.382,156.812 356.074 C 156.812 355.766,156.979 355.514,157.183 355.514 C 157.386 355.514,157.553 355.264,157.553 354.958 C 157.553 354.652,157.702 354.402,157.883 354.402 C 158.064 354.402,158.322 353.818,158.456 353.105 C 158.589 352.391,158.846 351.807,159.026 351.807 C 159.206 351.807,159.468 350.890,159.608 349.768 C 159.748 348.647,160.011 347.729,160.191 347.729 C 160.371 347.729,160.519 346.812,160.519 345.690 C 160.519 344.569,160.686 343.652,160.890 343.652 C 161.104 343.652,161.260 342.478,161.260 340.871 C 161.260 339.265,161.104 338.091,160.890 338.091 C 160.681 338.091,160.519 337.040,160.519 335.681 C 160.519 334.356,160.371 333.272,160.190 333.272 C 160.010 333.272,159.749 332.521,159.612 331.603 C 159.474 330.686,159.227 329.935,159.062 329.935 C 158.897 329.935,158.665 329.336,158.546 328.604 C 158.428 327.872,158.013 326.996,157.624 326.658 C 157.236 326.319,156.799 325.667,156.655 325.209 C 156.510 324.750,156.254 324.374,156.086 324.374 C 155.918 324.374,155.678 323.968,155.554 323.472 C 155.429 322.976,155.003 322.467,154.606 322.341 C 154.209 322.215,153.781 321.787,153.655 321.390 C 153.529 320.992,153.283 320.667,153.108 320.667 C 152.934 320.667,152.291 320.167,151.679 319.555 C 151.067 318.943,150.387 318.443,150.168 318.443 C 149.948 318.443,149.768 318.279,149.768 318.079 C 149.768 317.879,149.363 317.614,148.868 317.490 C 148.373 317.366,147.878 317.029,147.768 316.741 C 147.658 316.454,147.228 316.219,146.814 316.219 C 146.400 316.219,146.061 316.052,146.061 315.848 C 146.061 315.644,145.811 315.477,145.505 315.477 C 145.199 315.477,144.949 315.312,144.949 315.111 C 144.949 314.909,144.282 314.638,143.466 314.508 C 142.651 314.377,141.983 314.125,141.983 313.947 C 141.983 313.769,141.733 313.624,141.427 313.624 C 141.121 313.624,140.871 313.473,140.871 313.288 C 140.871 313.103,139.995 312.833,138.925 312.687 C 137.854 312.541,136.890 312.282,136.781 312.111 C 136.672 311.941,135.213 311.687,133.537 311.547 C 131.862 311.407,130.491 311.150,130.491 310.975 C 130.491 310.801,129.157 310.658,127.525 310.658 C 125.795 310.658,124.560 310.504,124.560 310.287 C 124.560 310.057,122.459 309.917,118.999 309.917 C 115.539 309.917,113.438 310.057,113.438 310.287 M276.552 310.978 C 276.552 311.155,275.796 311.402,274.871 311.529 C 273.756 311.682,272.900 312.073,272.327 312.692 C 271.851 313.204,271.348 313.624,271.208 313.624 C 270.876 313.624,258.017 326.444,258.017 326.774 C 258.017 326.913,257.516 327.527,256.905 328.139 C 256.293 328.750,255.792 329.393,255.792 329.568 C 255.792 329.742,255.459 329.991,255.051 330.120 C 254.643 330.250,254.310 330.589,254.310 330.874 C 254.310 331.159,253.809 331.904,253.197 332.530 C 252.586 333.156,252.085 333.837,252.085 334.043 C 252.085 334.250,251.668 334.806,251.158 335.278 C 250.649 335.750,250.232 336.265,250.232 336.423 C 250.232 336.580,249.834 337.077,249.348 337.527 C 248.862 337.977,248.351 338.705,248.211 339.145 C 248.072 339.585,247.802 339.944,247.612 339.944 C 247.422 339.944,247.266 340.195,247.266 340.500 C 247.266 340.806,247.102 341.057,246.902 341.057 C 246.702 341.057,246.434 341.474,246.306 341.983 C 246.178 342.493,245.936 342.910,245.768 342.910 C 245.600 342.910,245.344 343.285,245.199 343.744 C 245.054 344.203,244.650 344.829,244.300 345.134 C 243.951 345.440,243.536 346.100,243.378 346.600 C 243.220 347.100,242.862 347.738,242.583 348.017 C 242.304 348.296,242.076 348.762,242.076 349.053 C 242.076 349.345,241.909 349.583,241.705 349.583 C 241.501 349.583,241.335 349.833,241.335 350.139 C 241.335 350.445,241.175 350.695,240.981 350.695 C 240.786 350.695,240.517 351.279,240.383 351.993 C 240.249 352.706,239.992 353.290,239.810 353.290 C 239.629 353.290,239.481 353.540,239.481 353.846 C 239.481 354.152,239.327 354.402,239.140 354.402 C 238.952 354.402,238.689 354.903,238.554 355.514 C 238.420 356.126,238.178 356.627,238.016 356.627 C 237.854 356.627,237.615 357.294,237.485 358.109 C 237.355 358.925,237.083 359.592,236.882 359.592 C 236.680 359.592,236.515 360.009,236.515 360.519 C 236.515 361.029,236.364 361.446,236.179 361.446 C 235.995 361.446,235.724 362.322,235.578 363.392 C 235.433 364.462,235.189 365.422,235.038 365.524 C 234.886 365.626,234.644 366.668,234.500 367.841 L 234.238 369.972 244.115 369.972 C 255.352 369.972,254.800 370.129,255.188 366.816 C 255.331 365.596,255.608 364.541,255.805 364.473 C 256.002 364.405,256.163 363.947,256.163 363.454 C 256.163 362.961,256.309 362.558,256.486 362.558 C 256.664 362.558,256.916 361.891,257.047 361.075 C 257.177 360.259,257.449 359.592,257.650 359.592 C 257.852 359.592,258.017 359.413,258.017 359.195 C 258.017 357.758,258.302 357.739,279.855 357.739 L 300.635 357.739 300.867 358.665 C 300.995 359.175,301.227 359.592,301.383 359.592 C 301.539 359.592,301.773 360.259,301.903 361.075 C 302.034 361.891,302.305 362.558,302.507 362.558 C 302.708 362.558,302.873 362.975,302.873 363.485 C 302.873 363.994,303.018 364.411,303.196 364.411 C 303.373 364.411,303.635 365.435,303.776 366.686 C 304.169 370.160,303.605 369.999,314.994 369.886 L 324.930 369.787 325.049 368.953 C 325.114 368.494,324.989 368.119,324.771 368.119 C 324.553 368.119,324.374 367.451,324.374 366.636 C 324.374 365.820,324.223 365.153,324.038 365.153 C 323.854 365.153,323.586 364.304,323.443 363.266 C 323.300 362.228,322.952 360.935,322.669 360.393 C 322.386 359.851,322.154 359.232,322.152 359.017 C 322.149 358.409,321.254 356.633,320.950 356.629 C 320.799 356.628,320.569 355.959,320.439 355.144 C 320.309 354.328,320.056 353.661,319.878 353.661 C 319.701 353.661,319.555 353.411,319.555 353.105 C 319.555 352.799,319.406 352.549,319.225 352.549 C 319.043 352.549,318.789 352.132,318.661 351.622 C 318.534 351.112,318.278 350.695,318.095 350.695 C 317.911 350.695,317.651 350.195,317.516 349.583 C 317.382 348.971,317.118 348.471,316.931 348.471 C 316.743 348.471,316.589 348.155,316.589 347.769 C 316.589 347.383,316.339 346.971,316.033 346.854 C 315.728 346.737,315.477 346.385,315.477 346.073 C 315.477 345.761,315.310 345.505,315.107 345.505 C 314.903 345.505,314.736 345.166,314.736 344.752 C 314.736 344.338,314.486 343.903,314.180 343.786 C 313.874 343.668,313.624 343.274,313.624 342.910 C 313.624 342.546,313.373 342.152,313.068 342.035 C 312.762 341.917,312.512 341.642,312.512 341.422 C 312.512 341.202,312.095 340.606,311.585 340.096 C 311.075 339.586,310.658 339.002,310.658 338.798 C 310.658 338.593,310.241 338.040,309.731 337.567 C 309.222 337.095,308.804 336.580,308.804 336.423 C 308.804 336.265,308.387 335.750,307.878 335.278 C 307.368 334.806,306.951 334.221,306.951 333.978 C 306.951 333.736,306.450 333.059,305.839 332.474 C 305.227 331.890,304.727 331.245,304.727 331.042 C 304.727 330.839,303.892 329.856,302.873 328.858 C 301.854 327.860,301.019 326.930,301.019 326.792 C 301.019 326.654,300.561 326.056,300.000 325.462 C 297.045 322.333,288.091 313.624,287.829 313.624 C 287.689 313.624,287.167 313.185,286.669 312.648 C 286.042 311.971,285.264 311.616,284.125 311.488 C 283.222 311.386,282.484 311.158,282.484 310.981 C 282.484 310.803,281.149 310.658,279.518 310.658 C 277.887 310.658,276.552 310.802,276.552 310.978 M340.686 310.975 C 340.686 311.149,339.491 311.392,338.030 311.515 C 336.570 311.637,335.277 311.886,335.157 312.069 C 335.038 312.251,334.566 312.598,334.108 312.839 C 333.545 313.135,333.201 313.752,333.041 314.748 C 332.912 315.557,332.661 316.219,332.483 316.219 C 332.304 316.219,332.159 322.618,332.159 330.491 C 332.159 338.341,332.302 344.764,332.477 344.764 C 332.651 344.764,332.885 346.537,332.995 348.704 C 333.106 350.871,333.355 352.748,333.549 352.874 C 333.743 353.001,333.999 353.852,334.119 354.765 C 334.238 355.678,334.513 356.484,334.730 356.557 C 334.948 356.629,335.125 356.925,335.125 357.213 C 335.125 357.502,335.292 357.739,335.496 357.739 C 335.700 357.739,335.867 358.078,335.867 358.492 C 335.867 358.906,336.117 359.341,336.423 359.458 C 336.728 359.576,336.979 359.828,336.979 360.018 C 336.979 360.769,340.621 364.411,341.372 364.411 C 341.563 364.411,341.815 364.662,341.932 364.968 C 342.049 365.273,342.484 365.524,342.898 365.524 C 343.313 365.524,343.652 365.690,343.652 365.894 C 343.652 366.098,343.902 366.265,344.208 366.265 C 344.513 366.265,344.764 366.416,344.764 366.601 C 344.764 366.786,345.598 367.052,346.617 367.192 C 347.637 367.332,348.471 367.588,348.471 367.760 C 348.471 367.933,349.639 368.189,351.066 368.329 C 352.493 368.470,353.661 368.730,353.661 368.908 C 353.661 369.086,354.912 369.231,356.441 369.231 C 358.048 369.231,359.222 369.387,359.222 369.601 C 359.222 369.844,366.265 369.972,379.611 369.972 L 400.000 369.972 400.000 362.743 L 400.000 355.514 382.576 355.514 C 372.994 355.514,365.153 355.372,365.153 355.197 C 365.153 355.023,363.958 354.780,362.497 354.658 C 361.037 354.535,359.744 354.283,359.624 354.098 C 359.505 353.912,359.040 353.646,358.592 353.506 C 358.143 353.367,357.676 352.936,357.553 352.549 C 357.430 352.162,357.022 351.748,356.646 351.628 C 356.235 351.498,355.869 350.910,355.727 350.153 C 355.597 349.462,355.288 348.828,355.039 348.745 C 354.695 348.631,354.558 344.547,354.465 331.631 L 354.343 314.667 353.313 313.589 C 352.746 312.997,352.106 312.512,351.891 312.512 C 351.675 312.512,351.443 312.346,351.375 312.145 C 351.307 311.943,350.209 311.669,348.934 311.536 C 347.660 311.403,346.617 311.151,346.617 310.976 C 346.617 310.801,345.283 310.658,343.652 310.658 C 342.020 310.658,340.686 310.801,340.686 310.975 M165.338 318.628 L 165.338 325.487 177.943 325.487 L 190.547 325.487 190.547 346.142 L 190.547 366.798 191.531 367.643 C 192.073 368.109,192.740 368.489,193.014 368.489 C 193.288 368.489,193.513 368.656,193.513 368.860 C 193.513 369.064,193.916 369.231,194.408 369.231 C 194.901 369.231,195.374 369.439,195.459 369.694 C 195.574 370.040,197.191 370.158,201.854 370.158 C 206.516 370.158,208.133 370.040,208.248 369.694 C 208.333 369.439,208.806 369.231,209.299 369.231 C 209.791 369.231,210.195 369.082,210.195 368.900 C 210.195 368.718,210.609 368.466,211.116 368.339 C 211.684 368.196,212.125 367.754,212.268 367.186 C 212.395 366.680,212.648 366.265,212.830 366.265 C 213.019 366.265,213.160 357.569,213.160 345.876 L 213.160 325.487 225.178 325.487 C 231.788 325.487,237.460 325.385,237.782 325.262 C 238.287 325.068,238.369 324.110,238.369 318.403 L 238.369 311.770 201.854 311.770 L 165.338 311.770 165.338 318.628 M127.147 325.835 C 127.253 326.002,128.216 326.258,129.286 326.403 C 130.357 326.549,131.233 326.819,131.233 327.004 C 131.233 327.189,131.483 327.340,131.789 327.340 C 132.095 327.340,132.345 327.486,132.345 327.665 C 132.345 327.843,132.817 328.083,133.393 328.199 C 134.782 328.476,137.775 331.465,138.088 332.886 C 138.224 333.506,138.489 334.013,138.676 334.013 C 138.864 334.013,139.018 334.249,139.018 334.538 C 139.018 334.827,139.226 335.133,139.481 335.218 C 139.824 335.332,139.944 336.802,139.944 340.871 C 139.944 344.941,139.824 346.410,139.481 346.525 C 139.226 346.610,139.018 346.915,139.018 347.204 C 139.018 347.493,138.864 347.729,138.676 347.729 C 138.489 347.729,138.225 348.230,138.091 348.842 C 137.956 349.453,137.704 349.954,137.530 349.954 C 137.356 349.954,137.111 350.279,136.985 350.676 C 136.859 351.073,136.389 351.514,135.940 351.656 C 135.492 351.797,134.865 352.212,134.547 352.577 C 134.229 352.942,133.520 353.353,132.972 353.491 C 132.423 353.629,131.974 353.888,131.974 354.067 C 131.974 354.247,131.307 354.500,130.491 354.631 C 129.676 354.761,129.008 355.013,129.008 355.191 C 129.008 355.369,128.341 355.514,127.525 355.514 C 126.710 355.514,126.043 355.681,126.043 355.885 C 126.043 356.119,123.448 356.256,118.999 356.256 C 114.551 356.256,111.956 356.119,111.956 355.885 C 111.956 355.681,111.455 355.514,110.843 355.514 C 110.232 355.514,109.731 355.369,109.731 355.191 C 109.731 355.014,108.897 354.758,107.878 354.623 C 106.858 354.487,106.024 354.234,106.024 354.059 C 106.024 353.884,105.603 353.635,105.088 353.506 C 103.890 353.206,100.173 349.475,99.870 348.270 C 99.744 347.765,99.491 347.260,99.310 347.148 C 99.129 347.036,98.981 346.634,98.981 346.256 C 98.981 345.877,98.807 345.509,98.596 345.439 C 98.358 345.359,98.211 343.611,98.211 340.871 C 98.211 338.132,98.358 336.383,98.596 336.304 C 98.807 336.233,98.981 335.772,98.981 335.280 C 98.981 334.787,99.129 334.384,99.311 334.384 C 99.493 334.384,99.751 333.948,99.885 333.416 C 100.191 332.196,103.866 328.543,105.099 328.233 C 105.608 328.106,106.024 327.852,106.024 327.671 C 106.024 327.489,106.344 327.340,106.735 327.340 C 107.125 327.340,107.502 327.170,107.571 326.963 C 107.640 326.755,108.572 326.482,109.641 326.355 C 110.710 326.228,111.585 325.989,111.585 325.824 C 111.585 325.137,126.709 325.148,127.147 325.835 M282.985 332.280 C 284.699 333.978,286.212 335.721,286.350 336.154 C 286.487 336.587,286.916 337.041,287.303 337.164 C 287.690 337.287,288.121 337.748,288.261 338.190 C 288.401 338.631,289.059 339.520,289.724 340.165 C 290.388 340.810,291.044 341.692,291.181 342.124 C 291.319 342.556,291.586 342.910,291.777 342.910 C 291.967 342.910,292.122 343.160,292.122 343.466 C 292.122 343.772,292.289 344.022,292.493 344.022 C 292.697 344.022,292.864 344.189,292.864 344.393 C 292.864 344.633,288.230 344.764,279.703 344.764 C 265.548 344.764,265.662 344.781,267.285 342.910 C 267.692 342.440,268.026 341.896,268.026 341.702 C 268.026 341.508,268.443 341.021,268.953 340.620 C 269.462 340.219,269.880 339.652,269.880 339.361 C 269.880 339.070,270.035 338.832,270.225 338.832 C 270.415 338.832,270.674 338.507,270.800 338.110 C 270.926 337.712,271.346 337.287,271.733 337.164 C 272.120 337.041,272.549 336.586,272.687 336.152 C 272.980 335.227,278.750 329.297,279.416 329.236 C 279.666 329.213,281.272 330.583,282.985 332.280 " stroke="none" fill="#ed1a3a" fill-rule="evenodd"></path><path id="path2" d="M127.744 96.331 C 127.637 96.505,125.085 96.768,122.075 96.914 C 119.064 97.060,116.514 97.315,116.410 97.480 C 116.305 97.645,114.509 97.901,112.419 98.050 C 110.329 98.198,108.619 98.468,108.619 98.650 C 108.619 98.832,107.952 98.981,107.136 98.981 C 106.321 98.981,105.653 99.128,105.653 99.308 C 105.653 99.488,104.402 99.752,102.873 99.895 C 101.344 100.039,100.093 100.286,100.093 100.445 C 100.093 100.603,99.356 100.834,98.455 100.958 C 96.447 101.233,93.791 102.039,93.791 102.372 C 93.791 102.508,92.956 102.733,91.937 102.873 C 90.918 103.013,90.083 103.279,90.083 103.464 C 90.083 103.649,89.666 103.800,89.157 103.800 C 88.647 103.800,88.230 103.951,88.230 104.136 C 88.230 104.321,87.396 104.586,86.376 104.727 C 85.357 104.867,84.523 105.115,84.523 105.277 C 84.523 105.440,84.064 105.684,83.503 105.819 C 82.075 106.164,80.445 106.899,80.445 107.197 C 80.445 107.335,79.944 107.558,79.333 107.692 C 78.721 107.827,78.221 108.090,78.221 108.278 C 78.221 108.466,77.954 108.619,77.629 108.619 C 77.057 108.619,74.891 109.680,74.513 110.145 C 74.411 110.270,73.911 110.502,73.401 110.661 C 72.892 110.820,72.224 111.235,71.918 111.585 C 71.613 111.934,70.987 112.339,70.528 112.484 C 70.070 112.628,69.694 112.884,69.694 113.052 C 69.694 113.220,69.277 113.463,68.767 113.591 C 68.258 113.719,67.841 113.987,67.841 114.187 C 67.841 114.387,67.666 114.551,67.452 114.551 C 66.835 114.551,64.504 116.974,64.504 117.615 C 64.504 117.935,64.356 118.251,64.175 118.319 C 62.804 118.834,59.414 125.283,58.360 129.379 C 56.993 134.696,57.856 144.819,60.029 148.947 C 60.213 149.297,60.645 150.250,60.988 151.066 C 63.666 157.430,66.633 162.023,72.378 168.694 C 74.227 170.841,74.376 170.888,74.699 169.416 C 74.833 168.804,75.097 168.304,75.284 168.304 C 75.472 168.304,75.626 168.054,75.626 167.748 C 75.626 167.442,75.789 167.192,75.989 167.192 C 76.189 167.192,76.458 166.775,76.585 166.265 C 76.713 165.755,76.956 165.338,77.124 165.338 C 77.292 165.338,77.546 164.969,77.689 164.518 C 77.833 164.067,78.344 163.388,78.827 163.008 C 79.309 162.629,79.712 162.122,79.722 161.882 C 79.732 161.642,80.398 160.778,81.202 159.963 C 82.006 159.147,82.665 158.354,82.666 158.200 C 82.670 157.850,87.088 153.475,87.438 153.475 C 87.579 153.475,88.356 152.814,89.167 152.005 C 89.977 151.196,90.779 150.529,90.948 150.522 C 91.118 150.515,91.824 149.926,92.517 149.212 C 93.210 148.499,94.007 147.915,94.288 147.915 C 94.569 147.915,95.104 147.508,95.478 147.010 C 95.852 146.513,96.542 146.009,97.013 145.891 C 97.483 145.773,97.868 145.513,97.868 145.313 C 97.868 145.113,98.053 144.949,98.278 144.949 C 98.504 144.949,99.320 144.449,100.093 143.837 C 100.865 143.225,101.672 142.725,101.886 142.725 C 102.100 142.725,102.508 142.392,102.792 141.986 C 103.077 141.580,103.837 141.142,104.482 141.013 C 105.126 140.884,105.653 140.640,105.653 140.472 C 105.653 140.303,106.279 139.873,107.044 139.518 C 107.808 139.162,108.517 138.779,108.619 138.666 C 108.931 138.322,110.201 137.599,112.048 136.714 C 113.017 136.250,113.809 135.745,113.809 135.591 C 113.809 135.437,113.975 135.310,114.177 135.310 C 114.776 135.310,117.516 134.046,117.516 133.770 C 117.516 133.630,118.017 133.406,118.628 133.272 C 119.240 133.137,119.741 132.892,119.741 132.727 C 119.741 132.562,120.324 132.318,121.038 132.184 C 121.752 132.050,122.335 131.781,122.335 131.587 C 122.335 131.392,122.586 131.233,122.892 131.233 C 123.197 131.233,123.448 131.068,123.448 130.866 C 123.448 130.665,124.115 130.393,124.930 130.263 C 125.746 130.132,126.413 129.893,126.413 129.732 C 126.413 129.570,126.912 129.328,127.521 129.195 C 128.131 129.061,128.724 128.797,128.841 128.609 C 128.957 128.421,129.376 128.267,129.772 128.267 C 130.167 128.267,130.491 128.100,130.491 127.896 C 130.491 127.692,130.793 127.525,131.162 127.525 C 131.531 127.525,132.156 127.281,132.552 126.981 C 132.948 126.682,133.579 126.432,133.956 126.425 C 134.332 126.419,135.083 126.178,135.624 125.890 C 137.558 124.863,139.327 124.189,140.093 124.189 C 140.521 124.189,140.871 124.022,140.871 123.818 C 140.871 123.614,141.102 123.448,141.385 123.448 C 141.667 123.448,142.376 123.198,142.960 122.894 C 143.544 122.589,144.304 122.339,144.649 122.338 C 144.994 122.337,145.367 122.188,145.479 122.008 C 145.590 121.827,146.434 121.567,147.354 121.429 C 148.274 121.291,149.027 121.021,149.027 120.830 C 149.027 120.639,149.444 120.482,149.954 120.482 C 150.463 120.482,150.880 120.331,150.880 120.146 C 150.880 119.961,151.715 119.695,152.734 119.555 C 153.753 119.415,154.588 119.168,154.588 119.006 C 154.588 118.845,155.334 118.601,156.247 118.464 C 157.160 118.327,158.004 118.058,158.123 117.866 C 158.241 117.673,158.662 117.516,159.058 117.516 C 159.454 117.516,159.778 117.371,159.778 117.193 C 159.778 117.016,160.778 116.757,162.002 116.619 C 163.225 116.481,164.226 116.209,164.226 116.015 C 164.226 115.821,164.727 115.663,165.338 115.663 C 165.950 115.663,166.450 115.508,166.450 115.319 C 166.450 115.129,167.368 114.860,168.489 114.720 C 169.611 114.580,170.528 114.337,170.528 114.180 C 170.528 114.024,171.613 113.779,172.938 113.637 C 174.263 113.495,175.348 113.226,175.348 113.038 C 175.348 112.850,175.931 112.697,176.645 112.697 C 177.359 112.697,177.943 112.540,177.943 112.349 C 177.943 112.157,179.110 111.885,180.538 111.745 C 181.965 111.604,183.133 111.361,183.133 111.204 C 183.133 111.047,184.301 110.801,185.729 110.658 C 187.157 110.514,188.418 110.247,188.531 110.064 C 188.644 109.881,189.468 109.731,190.361 109.731 C 191.255 109.731,192.081 109.578,192.197 109.390 C 192.313 109.202,194.074 108.931,196.111 108.786 C 198.148 108.642,199.815 108.396,199.815 108.240 C 199.815 108.083,202.400 107.835,205.561 107.686 C 210.728 107.444,211.307 107.351,211.307 106.755 C 211.307 106.242,210.890 106.036,209.453 105.839 C 208.434 105.699,207.600 105.452,207.600 105.291 C 207.600 105.129,206.682 104.883,205.561 104.743 C 204.439 104.603,203.522 104.333,203.522 104.144 C 203.522 103.955,203.031 103.800,202.432 103.800 C 201.832 103.800,201.248 103.649,201.135 103.466 C 201.021 103.282,199.927 103.015,198.703 102.873 C 197.479 102.731,196.478 102.464,196.478 102.281 C 196.478 102.097,195.894 101.946,195.181 101.946 C 194.467 101.946,193.883 101.793,193.883 101.605 C 193.883 101.417,192.757 101.147,191.381 101.004 C 190.005 100.861,188.703 100.604,188.488 100.433 C 188.273 100.262,186.729 100.008,185.059 99.869 C 183.388 99.729,182.020 99.473,182.020 99.298 C 182.020 99.123,181.200 98.981,180.198 98.981 C 179.195 98.981,178.319 98.826,178.251 98.636 C 178.184 98.447,176.460 98.173,174.421 98.027 C 172.382 97.882,170.627 97.631,170.521 97.469 C 170.416 97.308,167.616 97.056,164.300 96.911 C 160.983 96.765,158.182 96.504,158.075 96.330 C 157.820 95.917,128.000 95.918,127.744 96.331 M327.711 167.194 C 326.793 168.202,325.738 169.129,325.367 169.255 C 324.995 169.380,324.077 170.135,323.328 170.932 C 322.578 171.729,321.786 172.381,321.568 172.381 C 321.350 172.382,320.809 172.799,320.366 173.309 C 319.923 173.818,319.309 174.235,319.002 174.235 C 318.694 174.235,318.443 174.364,318.443 174.522 C 318.443 174.679,317.859 175.123,317.146 175.507 C 316.432 175.891,315.848 176.346,315.848 176.518 C 315.848 176.690,315.606 176.830,315.310 176.830 C 315.015 176.830,314.639 177.039,314.476 177.294 C 314.129 177.836,312.971 178.613,312.048 178.923 C 311.691 179.043,311.399 179.270,311.399 179.427 C 311.399 179.585,310.825 179.821,310.123 179.953 C 309.345 180.099,308.761 180.462,308.627 180.882 C 308.494 181.304,307.909 181.666,307.124 181.813 C 306.417 181.946,305.839 182.200,305.839 182.378 C 305.839 182.557,305.338 182.813,304.727 182.947 C 304.115 183.082,303.614 183.345,303.614 183.533 C 303.614 183.720,303.281 183.874,302.873 183.874 C 302.465 183.874,302.132 184.028,302.132 184.215 C 302.132 184.403,301.631 184.666,301.019 184.801 C 300.408 184.935,299.907 185.179,299.907 185.343 C 299.907 185.507,299.604 185.720,299.234 185.817 C 298.549 185.996,297.222 188.449,295.071 193.513 C 293.678 196.791,287.738 208.739,285.394 212.975 C 281.884 219.320,278.975 224.093,274.919 230.162 C 271.009 236.012,270.815 236.515,272.475 236.515 C 273.086 236.515,273.587 236.372,273.587 236.197 C 273.587 236.021,275.964 235.759,278.869 235.613 C 281.775 235.467,284.208 235.193,284.276 235.004 C 284.344 234.816,285.126 234.662,286.015 234.662 C 286.903 234.662,287.718 234.519,287.826 234.345 C 287.933 234.171,289.223 233.917,290.693 233.781 C 292.162 233.644,293.544 233.392,293.763 233.221 C 293.982 233.050,295.066 232.808,296.172 232.684 C 297.278 232.559,298.354 232.286,298.563 232.077 C 298.772 231.867,299.411 231.696,299.981 231.696 C 300.552 231.696,301.019 231.545,301.019 231.360 C 301.019 231.175,301.854 230.909,302.873 230.769 C 303.892 230.629,304.727 230.382,304.727 230.220 C 304.727 230.059,305.477 229.814,306.395 229.676 C 307.312 229.539,308.063 229.270,308.063 229.078 C 308.063 228.887,308.480 228.730,308.990 228.730 C 309.500 228.730,309.917 228.571,309.917 228.376 C 309.917 228.182,310.500 227.913,311.214 227.779 C 311.928 227.645,312.512 227.387,312.512 227.206 C 312.512 227.025,312.762 226.877,313.068 226.877 C 313.373 226.877,313.624 226.723,313.624 226.535 C 313.624 226.348,314.117 226.086,314.719 225.954 C 315.322 225.821,315.914 225.399,316.036 225.014 C 316.159 224.629,317.321 223.469,318.619 222.436 C 326.579 216.102,331.880 206.996,333.840 196.293 C 335.067 189.587,334.162 176.142,332.141 171.084 C 331.979 170.677,331.551 169.342,331.191 168.119 C 330.608 166.135,330.138 165.337,329.564 165.356 C 329.462 165.359,328.628 166.186,327.711 167.194 M96.756 169.950 C 96.756 170.486,100.127 174.235,100.609 174.235 C 100.888 174.235,101.721 174.880,102.427 175.643 C 102.672 175.908,103.093 176.325,103.363 176.570 C 103.632 176.815,104.128 177.308,104.464 177.665 C 104.801 178.021,105.221 178.313,105.398 178.313 C 105.575 178.313,106.449 179.064,107.341 179.981 C 108.233 180.899,109.122 181.650,109.318 181.650 C 109.514 181.650,110.175 182.150,110.786 182.762 C 111.398 183.373,112.008 183.874,112.141 183.874 C 112.274 183.874,112.884 184.374,113.495 184.986 C 114.107 185.598,114.805 186.098,115.047 186.098 C 115.289 186.098,115.800 186.515,116.183 187.025 C 116.565 187.535,117.113 187.952,117.400 187.952 C 117.688 187.952,118.309 188.369,118.781 188.879 C 119.254 189.388,119.769 189.805,119.926 189.805 C 120.083 189.805,120.598 190.222,121.070 190.732 C 121.543 191.242,122.170 191.659,122.463 191.659 C 122.757 191.659,123.094 191.909,123.211 192.215 C 123.328 192.521,123.640 192.771,123.903 192.771 C 124.167 192.771,124.832 193.188,125.381 193.698 C 125.931 194.208,126.537 194.625,126.728 194.625 C 126.919 194.625,127.171 194.875,127.289 195.181 C 127.406 195.487,127.823 195.737,128.216 195.737 C 128.608 195.737,129.025 195.987,129.142 196.293 C 129.260 196.599,129.683 196.849,130.084 196.849 C 130.484 196.849,130.913 197.166,131.036 197.554 C 131.159 197.941,131.670 198.361,132.173 198.487 C 132.675 198.613,133.086 198.880,133.086 199.080 C 133.086 199.280,133.336 199.444,133.642 199.444 C 133.948 199.444,134.198 199.611,134.198 199.815 C 134.198 200.019,134.437 200.185,134.728 200.185 C 135.019 200.185,135.486 200.414,135.765 200.693 C 136.044 200.971,136.639 201.316,137.089 201.459 C 137.538 201.602,137.905 201.874,137.905 202.064 C 137.905 202.254,138.156 202.410,138.462 202.410 C 138.767 202.410,139.018 202.558,139.018 202.740 C 139.018 202.922,139.435 203.175,139.944 203.303 C 140.454 203.431,140.871 203.686,140.871 203.870 C 140.871 204.054,141.372 204.314,141.983 204.449 C 142.595 204.583,143.095 204.846,143.095 205.034 C 143.095 205.222,143.411 205.375,143.797 205.375 C 144.183 205.375,144.595 205.626,144.712 205.931 C 144.830 206.237,145.181 206.487,145.493 206.487 C 145.806 206.487,146.061 206.636,146.061 206.817 C 146.061 206.998,146.645 207.256,147.359 207.390 C 148.072 207.524,148.656 207.792,148.656 207.987 C 148.656 208.182,148.906 208.341,149.212 208.341 C 149.518 208.341,149.768 208.505,149.768 208.705 C 149.768 208.905,150.185 209.173,150.695 209.301 C 151.205 209.429,151.622 209.682,151.622 209.864 C 151.622 210.046,151.872 210.195,152.178 210.195 C 152.484 210.195,152.734 210.354,152.734 210.549 C 152.734 210.743,153.318 211.012,154.032 211.146 C 154.745 211.280,155.329 211.524,155.329 211.689 C 155.329 211.854,155.829 212.099,156.441 212.234 C 157.053 212.368,157.553 212.631,157.553 212.819 C 157.553 213.007,157.804 213.160,158.109 213.160 C 158.415 213.160,158.665 213.309,158.665 213.490 C 158.665 213.671,159.249 213.929,159.963 214.063 C 160.677 214.197,161.260 214.444,161.260 214.613 C 161.260 214.781,161.928 215.026,162.743 215.156 C 163.559 215.287,164.226 215.558,164.226 215.760 C 164.226 215.961,164.476 216.126,164.782 216.126 C 165.088 216.126,165.338 216.285,165.338 216.480 C 165.338 216.675,165.922 216.943,166.636 217.077 C 167.349 217.211,167.933 217.469,167.933 217.650 C 167.933 217.831,168.257 217.980,168.653 217.980 C 169.049 217.980,169.468 218.134,169.584 218.322 C 169.700 218.510,170.305 218.776,170.928 218.913 C 171.551 219.050,172.509 219.395,173.056 219.680 C 173.603 219.966,174.342 220.200,174.699 220.202 C 175.056 220.203,175.348 220.371,175.348 220.575 C 175.348 220.778,175.681 220.945,176.089 220.945 C 176.497 220.945,176.830 221.091,176.830 221.269 C 176.830 221.446,177.498 221.699,178.313 221.829 C 179.129 221.960,179.796 222.210,179.796 222.385 C 179.796 222.561,180.471 222.812,181.295 222.944 C 182.743 223.175,183.109 223.306,184.877 224.217 C 185.327 224.449,186.370 224.746,187.194 224.878 C 188.019 225.010,188.693 225.248,188.693 225.406 C 188.693 225.565,189.527 225.810,190.547 225.950 C 191.566 226.090,192.400 226.356,192.400 226.541 C 192.400 226.726,192.901 226.877,193.513 226.877 C 194.124 226.877,194.625 227.025,194.625 227.205 C 194.625 227.386,195.417 227.648,196.386 227.788 C 197.354 227.928,198.494 228.125,198.919 228.226 C 199.753 228.424,202.199 225.244,205.374 219.833 C 205.793 219.120,206.445 218.035,206.822 217.424 C 207.999 215.515,210.275 211.574,211.317 209.639 C 211.866 208.619,212.673 207.201,213.110 206.487 C 214.190 204.725,215.014 202.911,215.014 202.294 C 215.014 201.886,213.482 201.734,207.346 201.530 C 203.128 201.389,199.500 201.131,199.283 200.956 C 199.066 200.781,197.011 200.518,194.717 200.371 C 192.424 200.224,190.547 199.956,190.547 199.774 C 190.547 199.593,189.713 199.444,188.693 199.444 C 187.674 199.444,186.840 199.294,186.840 199.112 C 186.840 198.929,185.505 198.662,183.874 198.517 C 182.243 198.373,180.908 198.123,180.908 197.961 C 180.908 197.800,179.574 197.549,177.943 197.405 C 176.311 197.261,174.977 196.993,174.977 196.810 C 174.977 196.628,174.393 196.478,173.679 196.478 C 172.966 196.478,172.382 196.333,172.382 196.155 C 172.382 195.978,171.214 195.718,169.787 195.577 C 168.360 195.436,167.192 195.164,167.192 194.973 C 167.192 194.781,166.608 194.625,165.894 194.625 C 165.181 194.625,164.597 194.471,164.597 194.283 C 164.597 194.096,163.513 193.826,162.187 193.684 C 160.862 193.542,159.778 193.298,159.778 193.141 C 159.778 192.985,158.860 192.742,157.739 192.602 C 156.617 192.462,155.700 192.192,155.700 192.003 C 155.700 191.814,155.233 191.659,154.662 191.659 C 154.091 191.659,153.452 191.488,153.243 191.278 C 153.034 191.069,152.000 190.796,150.945 190.671 C 149.890 190.546,149.027 190.310,149.027 190.147 C 149.027 189.984,148.276 189.738,147.359 189.601 C 146.441 189.463,145.690 189.203,145.690 189.022 C 145.690 188.841,145.107 188.693,144.393 188.693 C 143.679 188.693,143.095 188.545,143.095 188.365 C 143.095 188.184,142.345 187.923,141.427 187.786 C 140.510 187.648,139.759 187.395,139.759 187.222 C 139.759 187.050,138.925 186.795,137.905 186.654 C 136.886 186.514,136.052 186.248,136.052 186.063 C 136.052 185.879,135.635 185.728,135.125 185.728 C 134.615 185.728,134.198 185.576,134.198 185.392 C 134.198 185.207,133.364 184.941,132.345 184.801 C 131.325 184.661,130.491 184.395,130.491 184.210 C 130.491 184.025,130.260 183.874,129.978 183.874 C 129.695 183.874,128.986 183.625,128.402 183.320 C 127.818 183.016,127.058 182.765,126.713 182.764 C 126.368 182.763,125.992 182.610,125.877 182.423 C 125.762 182.237,125.002 181.972,124.187 181.835 C 123.373 181.697,122.706 181.432,122.706 181.246 C 122.706 181.060,122.373 180.908,121.965 180.908 C 121.557 180.908,121.223 180.756,121.223 180.570 C 121.223 180.384,120.556 180.119,119.741 179.981 C 118.925 179.844,118.258 179.589,118.258 179.416 C 118.258 179.242,117.507 178.988,116.589 178.850 C 115.672 178.712,114.921 178.452,114.921 178.271 C 114.921 178.090,114.671 177.943,114.365 177.943 C 114.059 177.943,113.809 177.789,113.809 177.601 C 113.809 177.414,113.311 177.151,112.701 177.017 C 112.092 176.883,111.498 176.619,111.382 176.431 C 111.265 176.243,110.847 176.089,110.451 176.089 C 110.055 176.089,109.731 175.922,109.731 175.718 C 109.731 175.514,109.523 175.342,109.268 175.335 C 109.013 175.328,108.137 175.000,107.322 174.606 C 106.506 174.212,105.630 173.884,105.375 173.877 C 105.120 173.870,104.912 173.698,104.912 173.494 C 104.912 173.290,104.662 173.123,104.356 173.123 C 104.050 173.123,103.800 172.970,103.800 172.782 C 103.800 172.594,103.258 172.323,102.595 172.179 C 101.932 172.036,101.307 171.814,101.205 171.687 C 100.911 171.319,99.597 170.527,98.888 170.289 C 98.531 170.169,98.239 169.924,98.239 169.744 C 98.239 169.563,97.905 169.416,97.498 169.416 C 97.090 169.416,96.756 169.657,96.756 169.950 " stroke="none" fill="#f8981d" fill-rule="evenodd"></path><path id="path3" d="M62.438 118.416 C 61.607 119.246,60.611 120.426,60.223 121.038 C 59.836 121.650,59.195 122.443,58.801 122.802 C 58.128 123.412,57.476 124.373,56.852 125.672 C 56.705 125.978,56.293 126.488,55.936 126.806 C 55.578 127.124,55.173 127.833,55.036 128.382 C 54.898 128.930,54.637 129.379,54.455 129.379 C 54.273 129.379,54.124 129.616,54.124 129.905 C 54.124 130.514,52.955 132.843,52.560 133.020 C 52.414 133.086,52.181 133.754,52.044 134.503 C 51.906 135.253,51.692 135.950,51.568 136.052 C 50.953 136.560,50.353 138.149,50.159 139.787 C 50.040 140.791,49.810 141.613,49.646 141.613 C 49.483 141.613,49.235 142.780,49.094 144.208 C 48.953 145.635,48.693 146.803,48.516 146.803 C 48.338 146.803,48.193 147.794,48.193 149.005 C 48.193 150.216,48.026 151.311,47.822 151.437 C 47.319 151.748,47.319 170.032,47.822 170.343 C 48.026 170.469,48.193 171.647,48.193 172.960 C 48.193 174.273,48.338 175.348,48.516 175.348 C 48.693 175.348,48.956 176.849,49.100 178.684 C 49.243 180.519,49.491 182.020,49.651 182.020 C 49.810 182.020,50.049 183.056,50.181 184.321 C 50.313 185.587,50.587 186.788,50.790 186.990 C 50.993 187.193,51.158 187.909,51.158 188.582 C 51.158 189.255,51.313 189.805,51.503 189.805 C 51.692 189.805,51.961 190.723,52.101 191.844 C 52.241 192.966,52.504 193.883,52.684 193.883 C 52.864 193.883,53.012 194.170,53.012 194.520 C 53.012 195.253,54.152 198.426,54.515 198.703 C 54.649 198.804,54.874 199.513,55.014 200.278 C 55.155 201.043,55.429 201.668,55.624 201.668 C 55.818 201.668,55.978 202.085,55.978 202.595 C 55.978 203.105,56.145 203.522,56.348 203.522 C 56.552 203.522,56.719 203.717,56.719 203.956 C 56.719 204.561,59.011 209.240,59.382 209.391 C 59.549 209.459,59.692 209.793,59.701 210.133 C 59.710 210.473,60.129 211.418,60.634 212.234 C 61.138 213.049,61.650 214.008,61.773 214.365 C 61.895 214.722,62.124 215.014,62.280 215.014 C 62.436 215.014,62.665 215.306,62.788 215.663 C 62.912 216.019,63.350 216.812,63.763 217.424 C 64.175 218.035,64.611 218.816,64.730 219.159 C 64.850 219.501,65.182 219.872,65.467 219.981 C 65.753 220.091,65.987 220.399,65.987 220.666 C 65.987 220.934,66.321 221.393,66.728 221.687 C 67.136 221.981,67.470 222.397,67.470 222.613 C 67.470 222.828,67.970 223.552,68.582 224.222 C 69.194 224.892,69.694 225.522,69.694 225.622 C 69.694 225.723,70.194 226.338,70.805 226.990 C 71.415 227.641,71.916 228.327,71.917 228.514 C 71.918 228.700,73.336 230.239,75.070 231.934 C 76.803 233.628,78.221 235.109,78.221 235.224 C 78.221 235.712,79.882 237.627,80.306 237.627 C 80.560 237.627,82.094 238.962,83.714 240.593 C 85.334 242.224,86.770 243.559,86.904 243.559 C 87.225 243.559,88.048 244.244,89.241 245.505 C 89.772 246.066,90.368 246.525,90.566 246.525 C 90.763 246.525,91.312 246.942,91.784 247.451 C 92.256 247.961,92.826 248.378,93.049 248.378 C 93.272 248.378,93.842 248.795,94.314 249.305 C 94.787 249.815,95.333 250.232,95.529 250.232 C 95.725 250.232,96.277 250.649,96.756 251.158 C 97.235 251.668,97.840 252.085,98.100 252.085 C 98.360 252.085,98.706 252.294,98.869 252.549 C 99.216 253.091,100.375 253.868,101.297 254.178 C 101.654 254.298,101.946 254.529,101.946 254.690 C 101.946 254.852,102.655 255.342,103.522 255.778 C 105.429 256.737,106.395 257.320,107.020 257.889 C 107.279 258.125,107.995 258.541,108.611 258.814 C 109.227 259.087,109.731 259.436,109.731 259.590 C 109.731 259.744,109.970 259.870,110.261 259.870 C 110.552 259.870,111.014 260.079,111.287 260.334 C 112.083 261.076,114.057 262.095,114.700 262.095 C 115.026 262.095,115.292 262.248,115.292 262.436 C 115.292 262.623,115.792 262.887,116.404 263.021 C 117.016 263.156,117.516 263.380,117.516 263.519 C 117.516 263.787,120.249 265.060,120.824 265.060 C 121.010 265.060,121.217 265.197,121.285 265.363 C 121.462 265.797,126.167 268.026,126.906 268.026 C 127.247 268.026,127.525 268.193,127.525 268.397 C 127.525 268.601,127.859 268.767,128.267 268.767 C 128.675 268.767,129.008 268.932,129.008 269.134 C 129.008 269.335,129.676 269.607,130.491 269.737 C 131.307 269.868,131.974 270.112,131.974 270.281 C 131.974 270.449,132.600 270.702,133.364 270.843 C 134.129 270.984,134.838 271.200,134.940 271.323 C 135.357 271.829,136.788 272.440,138.138 272.688 C 138.928 272.833,139.657 273.057,139.759 273.184 C 140.131 273.650,142.044 274.328,142.987 274.328 C 143.520 274.328,145.948 274.918,148.384 275.640 C 160.862 279.336,170.793 281.327,186.469 283.279 C 193.171 284.113,226.881 283.768,227.183 282.862 C 227.253 282.654,228.129 282.484,229.132 282.484 C 230.134 282.484,230.955 282.334,230.955 282.152 C 230.955 281.969,232.289 281.701,233.920 281.557 C 235.551 281.413,236.886 281.164,236.886 281.006 C 236.886 280.847,237.999 280.597,239.359 280.452 C 240.719 280.306,242.095 280.056,242.417 279.896 C 243.944 279.137,244.989 278.799,246.525 278.567 C 247.442 278.428,248.276 278.208,248.378 278.076 C 248.575 277.822,251.215 277.004,252.919 276.669 C 253.480 276.559,253.939 276.331,253.939 276.162 C 253.939 275.994,254.690 275.744,255.607 275.606 C 256.525 275.469,257.275 275.208,257.275 275.027 C 257.275 274.847,257.660 274.699,258.131 274.699 C 258.602 274.699,259.311 274.454,259.707 274.155 C 260.102 273.855,260.788 273.605,261.230 273.598 C 261.671 273.592,262.088 273.462,262.156 273.309 C 262.361 272.848,264.699 271.733,265.461 271.733 C 265.852 271.733,266.172 271.566,266.172 271.362 C 266.172 271.158,266.426 270.992,266.735 270.992 C 267.045 270.992,268.236 270.491,269.383 269.880 C 270.529 269.268,271.693 268.767,271.971 268.767 C 272.248 268.767,272.475 268.614,272.475 268.426 C 272.475 268.238,272.975 267.975,273.587 267.841 C 274.198 267.706,274.699 267.443,274.699 267.255 C 274.699 267.067,274.882 266.914,275.106 266.914 C 275.795 266.914,278.203 265.685,278.517 265.173 C 278.680 264.907,279.055 264.690,279.351 264.690 C 279.647 264.690,279.889 264.562,279.889 264.407 C 279.889 264.111,280.192 263.929,282.996 262.549 C 283.937 262.085,284.708 261.582,284.708 261.431 C 284.708 261.281,285.334 260.867,286.098 260.512 C 287.960 259.648,288.910 259.039,289.268 258.480 C 289.431 258.225,289.814 258.017,290.120 258.017 C 290.425 258.017,291.061 257.600,291.534 257.090 C 292.006 256.580,292.516 256.163,292.668 256.163 C 293.002 256.163,295.966 253.871,296.138 253.478 C 296.206 253.324,296.427 253.197,296.628 253.197 C 296.830 253.197,297.227 252.989,297.511 252.734 C 298.657 251.706,299.147 251.344,299.388 251.344 C 299.528 251.344,300.120 250.843,300.705 250.232 C 301.289 249.620,301.925 249.120,302.117 249.120 C 302.309 249.120,303.034 248.536,303.727 247.822 C 304.420 247.108,305.121 246.525,305.285 246.525 C 305.449 246.525,306.199 245.877,306.953 245.084 C 307.706 244.292,308.681 243.452,309.120 243.218 C 309.558 242.983,309.917 242.464,309.917 242.063 C 309.917 241.316,309.378 241.077,309.017 241.662 C 308.905 241.842,307.895 242.104,306.770 242.245 C 305.646 242.385,304.727 242.631,304.727 242.791 C 304.727 242.951,303.691 243.191,302.426 243.323 C 301.160 243.455,299.959 243.729,299.757 243.932 C 299.554 244.134,298.838 244.300,298.165 244.300 C 297.492 244.300,296.942 244.450,296.942 244.632 C 296.942 244.815,295.607 245.083,293.976 245.227 C 292.345 245.371,291.010 245.639,291.010 245.822 C 291.010 246.004,290.358 246.154,289.560 246.154 C 288.762 246.154,286.802 246.404,285.204 246.710 C 283.606 247.016,281.437 247.266,280.383 247.266 C 279.330 247.266,278.412 247.428,278.344 247.626 C 278.273 247.833,274.930 248.076,270.436 248.200 C 266.154 248.318,262.016 248.603,261.240 248.833 C 259.781 249.266,245.605 248.792,236.701 248.012 C 221.635 246.694,194.035 241.487,190.872 239.367 C 190.337 239.009,189.044 238.614,187.999 238.491 C 186.953 238.367,186.098 238.141,186.098 237.989 C 186.098 237.836,185.348 237.599,184.430 237.461 C 183.513 237.324,182.762 237.055,182.762 236.863 C 182.762 236.672,182.178 236.515,181.464 236.515 C 180.751 236.515,180.167 236.367,180.167 236.187 C 180.167 236.006,179.420 235.746,178.507 235.609 C 177.594 235.472,176.756 235.213,176.645 235.032 C 176.534 234.852,175.696 234.593,174.783 234.456 C 173.870 234.319,173.123 234.059,173.123 233.878 C 173.123 233.697,172.716 233.550,172.218 233.550 C 171.721 233.550,171.216 233.392,171.098 233.200 C 170.979 233.008,170.135 232.739,169.222 232.602 C 168.309 232.465,167.563 232.246,167.563 232.115 C 167.563 231.822,165.901 231.087,164.436 230.733 C 163.838 230.588,162.921 230.246,162.397 229.973 C 161.874 229.700,161.070 229.475,160.612 229.474 C 160.153 229.473,159.778 229.346,159.778 229.192 C 159.778 228.868,158.201 228.142,156.719 227.784 C 156.158 227.649,155.700 227.397,155.700 227.224 C 155.700 227.052,155.074 226.795,154.310 226.655 C 153.545 226.514,152.836 226.298,152.734 226.175 C 152.350 225.709,150.187 224.652,149.618 224.652 C 149.293 224.652,149.027 224.507,149.027 224.329 C 149.027 224.151,148.360 223.899,147.544 223.769 C 146.728 223.638,146.061 223.367,146.061 223.165 C 146.061 222.964,145.811 222.799,145.505 222.799 C 145.199 222.799,144.949 222.632,144.949 222.428 C 144.949 222.224,144.750 222.057,144.508 222.057 C 144.006 222.057,139.302 219.783,139.014 219.401 C 138.910 219.263,138.368 219.036,137.809 218.896 C 137.250 218.755,136.793 218.492,136.793 218.310 C 136.793 218.128,136.460 217.980,136.052 217.980 C 135.644 217.980,135.310 217.831,135.310 217.649 C 135.310 217.467,134.893 217.214,134.384 217.086 C 133.874 216.958,133.457 216.703,133.457 216.519 C 133.457 216.335,132.956 216.075,132.345 215.941 C 131.733 215.806,131.233 215.582,131.233 215.443 C 131.233 215.303,130.565 214.900,129.750 214.546 C 128.934 214.193,128.267 213.777,128.267 213.623 C 128.267 213.468,127.725 213.106,127.062 212.819 C 126.399 212.532,125.459 211.991,124.973 211.616 C 124.487 211.242,123.846 210.936,123.550 210.936 C 123.253 210.936,122.733 210.611,122.395 210.214 C 122.056 209.817,120.991 209.082,120.028 208.580 C 118.488 207.779,117.149 206.892,115.820 205.795 C 115.600 205.614,115.058 205.351,114.615 205.210 C 114.172 205.070,113.809 204.799,113.809 204.609 C 113.809 204.419,113.559 204.263,113.253 204.263 C 112.947 204.263,112.697 204.108,112.697 203.917 C 112.697 203.727,112.328 203.455,111.877 203.311 C 111.426 203.168,110.747 202.657,110.367 202.174 C 109.988 201.692,109.468 201.297,109.213 201.297 C 108.957 201.297,108.357 200.880,107.878 200.371 C 107.399 199.861,106.786 199.444,106.516 199.444 C 106.245 199.444,106.024 199.291,106.024 199.103 C 106.024 198.916,105.399 198.383,104.634 197.918 C 103.869 197.453,102.974 196.772,102.644 196.405 C 102.314 196.037,101.871 195.737,101.658 195.737 C 101.445 195.737,100.850 195.236,100.335 194.625 C 99.820 194.013,99.222 193.513,99.004 193.513 C 98.787 193.513,97.943 192.845,97.127 192.030 C 96.311 191.214,95.554 190.547,95.443 190.547 C 95.190 190.547,94.534 189.989,92.718 188.230 C 91.929 187.465,91.163 186.840,91.016 186.840 C 90.870 186.840,87.138 183.262,82.724 178.889 C 78.310 174.516,74.050 170.304,73.256 169.528 C 68.666 165.043,63.766 157.669,60.988 151.066 C 60.645 150.250,60.213 149.297,60.029 148.947 C 57.856 144.819,56.993 134.696,58.360 129.379 C 59.414 125.283,62.804 118.834,64.175 118.319 C 64.575 118.169,64.612 117.245,64.226 117.047 C 64.073 116.969,63.269 117.585,62.438 118.416 " stroke="none" fill="#4395d1" fill-rule="evenodd"></path></g></svg>