<svg width="3400" height="2468" xmlns="http://www.w3.org/2000/svg" xmlns:xlink="http://www.w3.org/1999/xlink" xml:space="preserve" overflow="hidden"><defs><clipPath id="clip0"><rect x="500" y="4" width="3400" height="2468"/></clipPath></defs><g clip-path="url(#clip0)" transform="translate(-500 -4)"><path d="M3431.4 1225.06C3457.84 1224.3 3473.98 1230.41 3492.69 1243.39 3517.64 1260.69 3545.13 1298.36 3550.73 1331.95 3556.33 1365.54 3552.77 1413.39 3526.29 1444.94 3499.81 1476.5 3463.16 1495.33 3391.87 1521.29 3320.59 1547.25 3221.3 1588.48 3098.6 1600.69 3037.24 1606.8 2959.34 1611.12 2880.36 1611L2775 1607.53 2919.38 1311.56 2944.66 1313.45C3036.81 1316.82 3142.51 1298.17 3214.69 1286.14 3297.17 1272.4 3354.7 1235.24 3401.04 1228.12 3412.62 1226.34 3422.58 1225.32 3431.4 1225.06Z" fill="#FED700" fill-rule="evenodd"/><path d="M2630.73 1221 2683.7 1246.81C2752.78 1276.68 2835.77 1301.82 2910.73 1310.61L2924 1311.6 2779.4 1608 2767.38 1607.6C2729.23 1604.98 2692.73 1600.9 2659.84 1595.04 2561.17 1577.45 2468.81 1543.81 2389.21 1503.14L2343 1476.89Z" fill="#B1D822" fill-rule="evenodd"/><path d="M2513.44 1137 2525.63 1150.32C2553.45 1176.42 2586.16 1199.39 2624.35 1220.57L2635 1225.77 2347.7 1482 2318.85 1465.56C2272 1435.96 2230.76 1401.76 2194.74 1364.5L2178 1345.15Z" fill="#72CD68" fill-rule="evenodd"/><path d="M2434.85 1013 2435.71 1015.81C2443.12 1035.33 2451.61 1053.77 2460.9 1070.59 2470.19 1087.41 2480.56 1103.11 2492.09 1117.87L2518 1146.15 2182.68 1354 2149.26 1315.41C2133.81 1295.47 2119.63 1274.96 2106.65 1254.06 2093.67 1233.17 2082.12 1211.54 2071.88 1189.25L2069 1181.87Z" fill="#40C4A3" fill-rule="evenodd"/><path d="M2431.66 990.806 2437.83 995.526 2432.93 994.942ZM2013.67 951.583 2282.47 977.796C2312.69 980.849 2339.54 983.871 2364.85 986.837L2432.93 994.942 2440 1018 2073.34 1186.63 2076.23 1194C2045.46 1127.23 2026.52 1054.52 2016.19 977.796ZM2013.52 950 2013.67 951.583 2012 951.42Z" fill="#1199E0" fill-rule="evenodd"/><path d="M3097.7 4.05392C3113.43 4.22178 3129.04 4.78711 3144.45 5.80585 3267.73 13.9565 3413.42 47.068 3514.28 88.3301 3615.15 129.592 3694.11 188.174 3749.63 253.379 3805.16 318.583 3836.23 398.56 3847.44 479.556 3858.65 560.553 3849.48 666 3816.87 739.355 3792.42 794.371 3752.21 842.224 3703.33 882.268L3689.93 892 3366.18 630.165 3370.63 629.322C3427.17 618.116 3436.34 607.418 3447.04 589.589 3457.74 571.759 3456.72 545.779 3434.81 522.347 3412.91 498.914 3379.29 467.84 3315.61 448.992 3251.93 430.144 3145.98 410.786 3052.75 409.258 2959.53 407.73 2847.46 411.296 2756.27 439.822 2665.09 468.349 2563.21 513.687 2505.64 580.419 2498.45 588.761 2491.67 597.763 2485.31 607.295L2480.58 615.271 2452.65 611.581C2333.75 595.2 2201.83 574.585 2076.95 554.511L2066 552.742 2087.29 507.446C2112.63 460.835 2143.96 416.135 2181.65 372.58 2257.05 285.471 2382.36 186.646 2481.19 131.121 2580.02 75.5952 2664.07 60.313 2774.61 39.4271 2871.34 21.1519 2987.56 2.8767 3097.7 4.05392Z" fill="#1770F9" fill-rule="evenodd"/><path d="M3429.86 608 3768 816.975 3753.2 835.351C3724.99 865.439 3691.87 892.156 3655.95 915.309 3584.12 961.618 3487.83 992.151 3390.02 1013.01L3350.86 1020 3283 640.895 3327.43 634.192C3344.93 631.131 3360.6 628.045 3374.73 625.247 3388.87 622.448 3400.05 619.681 3409.03 616.826Z" fill="#8434D5" fill-rule="evenodd"/><path d="M3287.94 641 3356 1019.62 3322.06 1025.65C3297.54 1029.16 3272.68 1031.89 3246.79 1033.99L3174.58 1038 3150 651.672 3202.55 649.886C3228.73 648.163 3252.44 645.797 3273.99 643.097Z" fill="#922EBD" fill-rule="evenodd"/><path d="M2982 651 3020.25 652.096C3056.15 652.652 3089.72 652.747 3121 652.62L3154.53 651.475 3179 1037.9 3169.75 1038.41C3141.21 1039.38 3110.95 1039.86 3078.28 1039.99 3061.94 1040.05 3044.47 1039.87 3026.16 1039.48L2991.45 1038.43Z" fill="#B02288" fill-rule="evenodd"/><path d="M2815.7 643 2909.85 648.46 2986.53 650.657 2996 1039 2973.47 1038.32C2933.95 1036.8 2892.17 1034.64 2850.42 1032.15L2809 1029.44Z" fill="#CB175A" fill-rule="evenodd"/><path d="M2634.17 627 2642.01 627.923C2692.42 633.393 2740.35 637.687 2785.85 641.042L2821 643.08 2814.3 1029 2732.83 1023.65C2693.41 1020.87 2656.27 1018.1 2623.68 1015.69L2623 1015.63Z" fill="#EB0A21" fill-rule="evenodd"/><path d="M761.927 314.415C778.669 315.499 798.02 318.557 827.811 321.871 887.394 328.497 991.79 344.301 1069.2 358.574 1146.6 372.848 1151.19 381.004 1292.25 407.512L1924.74 520.682 2012.22 534.921 2093.29 548.04 2093.11 548.419 2136.88 554.955 2093.29 548.04 2136.92 554.962 2505.67 610.024C2505.68 610.131 2505.69 610.237 2505.7 610.344L2507.74 610.613 2505.7 610.344 2507.74 610.613 2566.21 618.346 2638 626.81 2626.82 1016.12 2539.83 1008.56 1903.35 942.773C1903.35 942.773 1790.3 927.48 1695.58 918.304 1707.8 1019.24 1721.04 1077.35 1738.35 1162.99 1742.68 1184.41 1748.22 1207.95 1754.2 1232.22L1755.36 1236.82 1439.82 1302 1433.52 1283.68C1404.1 1198.18 1365.64 1087.22 1344.19 1034.53 1316.18 965.713 1321.79 968.771 1289.19 939.715 1256.6 910.658 1211.28 880.071 1148.64 860.19 1086 840.309 995.864 830.623 913.365 820.428 830.867 810.233 718.831 822.467 653.647 799.017 588.463 775.568 546.704 728.669 522.26 679.731 497.816 630.792 494.76 555.856 506.983 505.389 519.205 454.921 561.473 408.022 595.592 376.926 629.712 345.83 672.999 327.988 711.702 318.812 731.053 314.224 745.185 313.332 761.927 314.415Z" fill="#FE0201" fill-rule="evenodd"/><path d="M1748.52 1232 1765.88 1300.78C1775.05 1337.13 1783.5 1371.96 1788.65 1400.5L1789 1402.8 1491.01 1474 1482.51 1446.98C1474.23 1420.04 1464.43 1387.89 1450.43 1347.48 1446.93 1337.37 1442.97 1325.91 1438.68 1313.46L1433 1296.99Z" fill="#FF5F00" fill-rule="evenodd"/><path d="M1791.86 1398 1795.48 1422.02C1802.6 1485.67 1800.06 1505.02 1777.16 1535.06 1754.25 1565.1 1696.23 1595.15 1658.05 1602.27 1619.88 1609.4 1573.05 1593.11 1548.11 1577.83 1523.17 1562.56 1524.19 1549.83 1508.41 1510.62 1504.46 1500.82 1500.81 1490.47 1497.1 1479.21L1494 1469.33Z" fill="#FF7F00" fill-rule="evenodd"/><path d="M3034.31 2162.36C2996.76 2162.36 2966.32 2189.5 2966.32 2222.98 2966.32 2256.46 2996.76 2283.6 3034.31 2283.6 3071.86 2283.6 3102.3 2256.46 3102.3 2222.98 3102.3 2189.5 3071.86 2162.36 3034.31 2162.36ZM1442.43 2162.36C1404.87 2162.36 1374.43 2189.5 1374.43 2222.98 1374.43 2256.46 1404.87 2283.6 1442.43 2283.6 1479.98 2283.6 1510.42 2256.46 1510.42 2222.98 1510.42 2189.5 1479.98 2162.36 1442.43 2162.36ZM903.052 2162.36C864.789 2162.36 833.771 2189.5 833.771 2222.98 833.771 2256.46 864.789 2283.6 903.052 2283.6 941.314 2283.6 972.332 2256.46 972.332 2222.98 972.332 2189.5 941.314 2162.36 903.052 2162.36ZM3493.85 2143.12C3467.2 2143.12 3444.33 2160.23 3434.57 2184.62L3433.63 2189.49 3554.07 2189.49 3553.13 2184.62C3543.37 2160.23 3520.5 2143.12 3493.85 2143.12ZM2537.2 2143.12C2510.55 2143.12 2487.68 2160.23 2477.92 2184.62L2476.98 2189.49 2597.42 2189.49 2596.49 2184.62C2586.72 2160.23 2563.85 2143.12 2537.2 2143.12ZM903.052 2088.17C982.33 2088.17 1046.6 2148.52 1046.6 2222.98 1046.6 2297.44 982.33 2357.79 903.052 2357.79 823.773 2357.79 759.505 2297.44 759.505 2222.98 759.505 2148.52 823.773 2088.17 903.052 2088.17ZM3270.04 2080.43C3289.02 2080.43 3304.41 2092.16 3304.41 2106.62L3304.41 2132.81 3303.93 2132.81 3304.41 2133.96 3304.41 2346.35C3304.41 2352.67 3299.28 2357.79 3292.95 2357.79L3247.13 2357.79C3240.8 2357.79 3235.67 2352.67 3235.67 2346.35L3235.67 2133.96 3236.15 2132.81 3235.67 2132.81 3235.67 2106.62C3235.67 2092.16 3251.06 2080.43 3270.04 2080.43ZM3146.48 2080.43C3163.09 2080.43 3176.56 2092.16 3176.56 2106.62L3176.56 2122.51 3176.56 2132.81 3176.56 2222.98 3176.56 2357.79 3174.93 2357.79 3174.71 2364.13C3173.62 2380.55 3171.43 2397.01 3167.99 2407.6 3161.12 2428.78 3146.65 2438.08 3133.61 2447.96 3120.57 2457.83 3108.4 2462.84 3089.77 2466.85 3071.15 2470.85 3043.21 2472 3021.87 2472 3000.52 2472 2978.32 2470.85 2961.7 2466.85 2945.08 2462.84 2932.33 2454.83 2922.16 2447.96 2911.99 2441.09 2902.53 2433.65 2900.67 2425.63 2898.81 2417.62 2905.25 2405.88 2910.98 2399.87 2916.71 2393.86 2925.6 2389.42 2935.05 2389.57 2944.51 2389.71 2957.4 2397.29 2967.71 2400.73 2967.71 2400.73 2984.19 2408.6 2996.94 2410.17 3009.69 2411.75 3029.75 2411.75 3044.22 2410.17 3058.68 2408.6 3073.73 2406.02 3083.75 2400.73 3093.78 2395.43 3099.8 2388.28 3104.38 2378.4 3106.68 2373.47 3107.43 2367.38 3108.09 2360.96L3108.61 2357.79 3107.82 2357.79 3107.82 2337.87 3089.68 2347.2C3072.66 2354.02 3053.95 2357.79 3034.31 2357.79 2955.74 2357.79 2892.05 2297.44 2892.05 2222.98 2892.05 2148.52 2955.74 2088.17 3034.31 2088.17 3063.77 2088.17 3091.14 2096.65 3113.84 2111.19L3116.39 2113.18 3116.39 2106.62C3116.39 2092.16 3129.86 2080.43 3146.48 2080.43ZM1554.6 2080.43C1571.21 2080.43 1584.68 2092.16 1584.68 2106.62L1584.68 2132.81 1584.68 2132.81 1584.68 2222.98 1584.68 2222.98 1584.68 2222.98 1584.68 2357.79 1524.51 2357.79 1524.51 2332.78 1521.96 2334.77C1499.26 2349.31 1471.89 2357.79 1442.43 2357.79 1363.86 2357.79 1300.17 2297.44 1300.17 2222.98 1300.17 2148.52 1363.86 2088.17 1442.43 2088.17 1471.89 2088.17 1499.26 2096.65 1521.96 2111.19L1524.51 2113.18 1524.51 2106.62C1524.51 2092.16 1537.98 2080.43 1554.6 2080.43ZM2242.62 2079.74C2254.49 2080.19 2266.24 2081.73 2275.77 2084.73 2294.82 2090.74 2311.87 2105.34 2323.04 2117.36 2334.22 2129.38 2338.8 2139.4 2342.81 2156.86 2344.82 2165.59 2345.93 2177.47 2346.52 2189.38L2346.86 2200.26 2347.14 2200.94 2347.14 2345.25C2347.14 2351.57 2342.01 2356.7 2335.68 2356.7L2289.84 2356.7C2283.51 2356.7 2278.38 2351.57 2278.38 2345.25L2278.38 2200.94 2278.77 2199.99 2277.46 2197.7C2276.31 2195.78 2275.16 2193.75 2274.05 2191.21 2269.61 2181.05 2268.89 2169.88 2259.44 2162.01 2249.98 2154.14 2232.07 2144.7 2217.32 2143.98 2202.56 2143.27 2182.22 2150.14 2170.9 2157.72 2165.24 2161.51 2161.09 2165.66 2157.74 2170.76L2150.93 2186.07 2150.93 2357.79 2082.17 2357.79 2082.17 2122.51 2082.17 2122.51 2082.17 2106.62C2082.17 2092.16 2095.64 2080.43 2112.25 2080.43 2128.87 2080.43 2142.34 2092.16 2142.34 2106.62L2142.34 2112.34 2155.43 2101.05C2169.47 2092.32 2188.67 2084.02 2208.72 2081.3 2218.75 2079.94 2230.75 2079.29 2242.62 2079.74ZM3488.51 2079.6C3565.52 2079.6 3627.96 2143.23 3627.96 2221.72L3626.01 2241.45 3599.51 2241.45 3598.49 2241.87 3426.1 2241.87 3430.12 2250.46C3437.42 2261.62 3444.58 2281.23 3459.34 2289.1 3474.1 2296.97 3500.89 2297.97 3518.65 2297.69 3531.97 2297.47 3544.49 2292.1 3555.48 2289.19L3564.13 2287.69 3576.29 2281.13C3589.03 2274.25 3605.76 2280.52 3613.66 2295.12 3621.56 2309.72 3617.63 2327.13 3604.9 2334.01L3581.83 2346.46 3580.99 2344.91 3573.5 2348.99C3566.93 2352.21 3559.69 2355.08 3553.03 2356.94 3546.37 2358.8 3540.14 2359.98 3533.32 2360.64L3515.16 2361.1 3488.51 2363.84C3411.49 2363.84 3349.05 2300.21 3349.05 2221.72 3349.05 2143.23 3411.49 2079.6 3488.51 2079.6ZM2531.86 2079.6C2608.88 2079.6 2671.31 2143.23 2671.31 2221.72L2669.36 2241.45 2642.86 2241.45 2641.84 2241.87 2469.45 2241.87 2473.47 2250.46C2480.77 2261.62 2487.94 2281.23 2502.69 2289.1 2517.45 2296.97 2544.24 2297.97 2562 2297.69 2575.32 2297.47 2587.84 2292.1 2598.83 2289.19L2607.48 2287.69 2619.64 2281.13C2632.38 2274.25 2649.11 2280.52 2657.01 2295.12 2664.91 2309.72 2660.98 2327.13 2648.25 2334.01L2625.18 2346.46 2624.34 2344.91 2616.85 2348.99C2610.28 2352.21 2603.05 2355.08 2596.38 2356.94 2589.72 2358.8 2583.49 2359.98 2576.67 2360.64L2558.51 2361.1 2531.86 2363.84C2454.84 2363.84 2392.4 2300.21 2392.4 2221.72 2392.4 2143.23 2454.84 2079.6 2531.86 2079.6ZM2849.09 2079.58C2861.7 2078.01 2870.3 2081.15 2877.46 2084.73 2884.62 2088.31 2889.49 2094.75 2892.07 2101.05 2894.65 2107.34 2894.65 2116.79 2892.93 2122.51 2891.21 2128.24 2886.63 2132.25 2881.76 2135.39 2876.89 2138.54 2871.59 2139.69 2863.71 2141.41 2855.83 2143.12 2842.22 2143.98 2834.48 2145.7 2826.75 2147.42 2823.74 2147.27 2817.29 2151.71 2810.84 2156.15 2801.53 2161.87 2795.8 2172.32 2790.07 2182.77 2786.35 2201.51 2782.91 2214.39 2781.19 2220.83 2779.61 2225.88 2778.29 2231.19L2776.73 2238.5 2776.73 2357.79 2712.3 2357.79 2712.3 2122.51 2712.38 2122.51 2712.38 2106.62C2712.38 2092.16 2725.85 2080.43 2742.47 2080.43 2759.08 2080.43 2772.55 2092.16 2772.55 2106.62L2772.55 2122.51 2776.01 2122.51 2776.89 2120.8C2785.06 2106.77 2789.79 2101.05 2801.82 2094.18 2813.85 2087.31 2836.49 2081.15 2849.09 2079.58ZM3761.09 2076.14C3777.71 2074.86 3797.48 2077 3813.52 2079.58 3829.57 2082.16 3845.9 2086.02 3857.36 2091.6 3868.82 2097.18 3878.28 2105.05 3882.29 2113.07 3886.3 2121.08 3884.01 2132.82 3881.43 2139.69 3878.85 2146.56 3873.26 2151.57 3866.82 2154.29 3860.37 2157 3850.34 2157.43 3842.75 2156 3835.15 2154.57 3830.43 2148.7 3821.26 2145.7 3812.09 2142.69 3799.91 2138.54 3787.74 2137.97 3775.56 2137.4 3757.65 2139.97 3749.06 2143.98 3740.46 2147.99 3735.02 2156 3736.16 2162.01 3737.31 2168.02 3745.9 2175.9 3755.93 2180.05 3765.96 2184.2 3779.71 2183.19 3796.33 2186.92 3812.95 2190.64 3839.6 2194.21 3855.64 2202.37 3871.69 2210.53 3885.44 2221.12 3892.6 2235.86 3899.76 2250.6 3901.63 2274.22 3898.62 2290.82 3895.61 2307.42 3887.44 2323.73 3874.55 2335.47 3861.66 2347.2 3840.03 2356.51 3821.26 2361.23L3761.95 2363.81C3743.47 2363.09 3726.85 2362.09 3710.37 2356.94 3693.9 2351.78 3672.98 2341.34 3663.1 2332.89 3653.21 2324.45 3651.78 2314.14 3651.07 2306.27 3650.35 2298.4 3653.36 2290.67 3658.8 2285.66 3664.25 2280.66 3675.13 2275.65 3683.73 2276.22 3692.32 2276.79 3700.92 2285.24 3710.37 2289.1 3719.83 2292.96 3729 2296.97 3740.46 2299.4 3751.92 2301.84 3767.97 2304.56 3779.14 2303.7 3790.31 2302.84 3801.49 2298.83 3807.51 2294.25 3813.52 2289.67 3816.67 2281.8 3815.24 2276.22 3813.81 2270.64 3808.94 2264.91 3798.91 2260.76 3788.88 2256.61 3771.12 2254.75 3755.07 2251.32 3755.07 2251.32 3718.54 2248.88 3702.64 2240.15 3686.74 2231.42 3667.11 2215.4 3659.66 2198.94 3652.21 2182.48 3654.93 2156.72 3657.94 2141.41 3660.95 2126.09 3668.4 2116.07 3677.71 2107.06 3687.02 2098.04 3699.92 2092.46 3713.81 2087.31 3727.71 2082.16 3744.47 2077.43 3761.09 2076.14ZM1096.45 1995.42 1165.22 1995.42 1165.22 2088.17 1219.37 2088.17 1221.95 2088.17 1245.59 2088.17C1260.07 2088.17 1271.8 2101.62 1271.8 2118.22 1271.8 2134.82 1260.07 2148.27 1245.59 2148.27L1221.95 2148.27 1219.37 2148.27 1165.22 2148.27 1165.22 2250.52 1165.97 2252.34C1166.51 2256.72 1166.36 2261.05 1166.94 2264.2 1168.08 2270.49 1165.65 2273.5 1167.8 2277.94 1169.94 2282.37 1174.39 2287.81 1179.83 2290.82 1185.27 2293.82 1192.72 2294.68 1200.46 2295.97L1225.62 2298.48 1242.95 2288.7C1246.1 2286.92 1249.52 2285.95 1253 2285.74 1263.44 2285.08 1274.45 2291.13 1280.58 2301.97 1288.76 2316.42 1285.17 2333.9 1272.56 2341.02L1251.71 2352.8 1251.17 2353.5C1246.16 2358.65 1243.01 2356.94 1233.98 2358.65 1224.96 2360.37 1210.49 2364.23 1197.02 2363.81 1183.55 2363.38 1165.5 2359.94 1153.18 2356.08 1140.86 2352.21 1131.69 2349.92 1123.1 2340.62 1114.5 2331.32 1105.48 2315.72 1101.61 2300.26 1099.68 2292.53 1098.17 2282.62 1097.69 2273.05L1097.75 2265.05 1096.45 2265.05 1096.45 2148.27 1063.79 2148.27 1063.79 2088.17 1096.45 2088.17ZM1685.25 1995.42C1704.24 1995.42 1719.63 2007.15 1719.63 2021.61L1719.63 2047.8 1719.63 2047.8 1719.63 2357.79 1650.87 2357.79 1650.87 2037.51 1650.87 2037.51 1650.87 2021.61C1650.87 2007.15 1666.26 1995.42 1685.25 1995.42ZM1788.17 1991.99 2014.81 1991.99C2021.3 1991.99 2026.56 1997.25 2026.56 2003.73L2026.56 2050.67C2026.56 2057.15 2021.3 2062.41 2014.81 2062.41L1852.86 2062.41 1852.86 2141.65 1993.26 2141.65C1999.75 2141.65 2005.01 2146.9 2005.01 2153.39L2005.01 2200.33C2005.01 2206.81 1999.75 2212.06 1993.26 2212.06L1852.86 2212.06 1852.86 2284.15 2019.48 2284.15C2026.17 2284.15 2031.59 2289.56 2031.59 2296.24L2031.59 2344.6C2031.59 2351.28 2026.17 2356.7 2019.48 2356.7L1788.53 2356.7C1781.85 2356.7 1776.43 2351.28 1776.43 2344.6L1776.43 2334.61 1776.43 2334.61 1776.43 2014.32 1776.43 2014.32 1776.43 2003.73C1776.43 1997.25 1781.69 1991.99 1788.17 1991.99ZM511.748 1991.99 806.208 1991.99C812.696 1991.99 817.955 1997.25 817.955 2003.73L817.955 2050.67C817.955 2057.15 812.696 2062.41 806.208 2062.41L692.459 2062.41 692.459 2357.79 623.694 2357.79 623.694 2062.41 511.748 2062.41C505.259 2062.41 500 2057.15 500 2050.67L500 2003.73C500 1997.25 505.259 1991.99 511.748 1991.99ZM3271.53 1968C3292.96 1968 3310.33 1985.47 3310.33 2007.02 3310.33 2028.57 3292.96 2046.04 3271.53 2046.04 3250.1 2046.04 3232.73 2028.57 3232.73 2007.02 3232.73 1985.47 3250.1 1968 3271.53 1968Z" fill="#FC0103" fill-rule="evenodd"/></g></svg>