<svg width="819" height="594" xmlns="http://www.w3.org/2000/svg" xmlns:xlink="http://www.w3.org/1999/xlink" xml:space="preserve" overflow="hidden"><defs><clipPath id="clip0"><rect x="2659" y="124" width="819" height="594"/></clipPath></defs><g clip-path="url(#clip0)" transform="translate(-2659 -124)"><path d="M3365.61 418.015C3372.01 417.831 3375.9 419.303 3380.43 422.43 3386.45 426.599 3393.1 435.674 3394.45 443.768 3395.8 451.861 3394.94 463.388 3388.55 470.992 3382.15 478.595 3373.29 483.132 3356.06 489.386 3338.84 495.64 3314.85 505.573 3285.2 508.516 3270.37 509.988 3251.54 511.03 3232.46 511L3207 510.164 3241.89 438.855 3248 439.31C3270.27 440.121 3295.81 435.628 3313.25 432.731 3333.18 429.42 3347.08 420.468 3358.28 418.751 3361.08 418.322 3363.48 418.077 3365.61 418.015Z" fill="#FED700" fill-rule="evenodd"/><path d="M3172.84 417 3185.51 423.204C3202.04 430.381 3221.89 436.421 3239.83 438.534L3243 438.772 3208.4 510 3205.53 509.905C3196.4 509.273 3187.67 508.294 3179.8 506.885 3156.2 502.659 3134.1 494.574 3115.05 484.802L3104 478.493Z" fill="#B1D822" fill-rule="evenodd"/><path d="M3144.74 397 3147.68 400.206C3154.37 406.483 3162.24 412.009 3171.44 417.105L3174 418.357 3104.85 480 3097.9 476.044C3086.63 468.923 3076.7 460.695 3068.03 451.732L3064 447.078Z" fill="#72CD68" fill-rule="evenodd"/><path d="M3125.81 367 3126.02 367.676C3127.82 372.369 3129.88 376.804 3132.14 380.849 3134.39 384.893 3136.91 388.669 3139.71 392.217L3146 399.019 3064.6 449 3056.48 439.72C3052.73 434.925 3049.29 429.992 3046.14 424.968 3042.99 419.943 3040.19 414.742 3037.7 409.382L3037 407.608Z" fill="#40C4A3" fill-rule="evenodd"/><path d="M3124.99 361.7 3126.48 362.822 3125.3 362.683ZM3024.4 352.376 3089.09 358.607C3096.36 359.333 3102.82 360.051 3108.91 360.756L3125.3 362.683 3127 368.164 3038.76 408.249 3039.46 410C3032.05 394.128 3027.49 376.844 3025.01 358.607ZM3024.37 352 3024.4 352.376 3024 352.338Z" fill="#1199E0" fill-rule="evenodd"/><path d="M3285.39 124.013C3289.18 124.054 3292.94 124.19 3296.65 124.435 3326.33 126.399 3361.41 134.379 3385.69 144.323 3409.97 154.267 3428.99 168.384 3442.35 184.098 3455.72 199.812 3463.2 219.085 3465.9 238.605 3468.6 258.124 3466.39 283.536 3458.54 301.214 3452.66 314.472 3442.97 326.004 3431.21 335.655L3427.98 338 3350.03 274.9 3351.1 274.697C3364.72 271.996 3366.93 269.418 3369.5 265.122 3372.08 260.825 3371.83 254.564 3366.56 248.917 3361.28 243.27 3353.19 235.781 3337.86 231.239 3322.53 226.697 3297.02 222.032 3274.57 221.663 3252.13 221.295 3225.15 222.155 3203.19 229.029 3181.24 235.904 3156.71 246.83 3142.85 262.912 3141.12 264.922 3139.49 267.092 3137.95 269.389L3136.82 271.311 3130.09 270.421C3101.46 266.474 3069.7 261.506 3039.64 256.668L3037 256.242 3042.12 245.326C3048.23 234.093 3055.77 223.321 3064.84 212.825 3083 191.832 3113.17 168.016 3136.96 154.635 3160.76 141.254 3180.99 137.571 3207.61 132.538 3230.89 128.134 3258.88 123.729 3285.39 124.013Z" fill="#1770F9" fill-rule="evenodd"/><path d="M3365.43 269 3447 319.215 3443.43 323.631C3436.62 330.861 3428.64 337.28 3419.97 342.844 3402.64 353.971 3379.41 361.308 3355.82 366.322L3346.37 368 3330 276.904 3340.72 275.294C3344.94 274.558 3348.72 273.817 3352.13 273.144 3355.54 272.472 3358.24 271.807 3360.4 271.121Z" fill="#8434D5" fill-rule="evenodd"/><path d="M3330.81 277 3347 368.555 3338.93 370.014C3333.09 370.863 3327.18 371.523 3321.02 372.03L3303.85 373 3298 279.581 3310.5 279.149C3316.73 278.732 3322.37 278.16 3327.49 277.507Z" fill="#922EBD" fill-rule="evenodd"/><path d="M3257 279 3266.32 279.265C3275.07 279.399 3283.25 279.422 3290.87 279.392L3299.04 279.115 3305 372.492 3302.75 372.617C3295.79 372.851 3288.42 372.966 3280.46 372.997 3276.48 373.012 3272.22 372.968 3267.76 372.875L3259.3 372.62Z" fill="#B02288" fill-rule="evenodd"/><path d="M3217.61 278 3240.27 279.31 3258.72 279.837 3261 373 3255.58 372.836C3246.07 372.473 3236.02 371.954 3225.97 371.358L3216 370.705Z" fill="#CB175A" fill-rule="evenodd"/><path d="M3173.65 274 3175.51 274.223C3187.48 275.543 3198.86 276.579 3209.66 277.388L3218 277.88 3216.41 371 3197.07 369.71C3187.71 369.038 3178.9 368.371 3171.16 367.787L3171 367.774Z" fill="#EB0A21" fill-rule="evenodd"/><path d="M2722.22 198.1C2726.26 198.361 2730.93 199.098 2738.12 199.896 2752.5 201.492 2777.69 205.299 2796.37 208.738 2815.06 212.176 2816.16 214.141 2850.21 220.526L3002.86 247.788 3023.97 251.218 3043.53 254.378 3043.49 254.469 3054.06 256.044 3043.53 254.378 3054.07 256.045 3143.06 269.309C3143.06 269.335 3143.07 269.361 3143.07 269.386L3143.56 269.451 3143.07 269.386 3143.56 269.451 3157.67 271.314 3175 273.353 3172.3 367.134 3151.31 365.312 2997.69 349.466C2997.69 349.466 2970.41 345.782 2947.55 343.571 2950.5 367.885 2953.69 381.885 2957.87 402.515 2958.92 407.672 2960.25 413.344 2961.7 419.191L2961.98 420.299 2885.82 436 2884.3 431.586C2877.2 410.991 2867.92 384.262 2862.74 371.569 2855.98 354.992 2857.34 355.728 2849.47 348.729 2841.6 341.729 2830.66 334.361 2815.55 329.572 2800.43 324.783 2778.68 322.45 2758.76 319.994 2738.85 317.538 2711.81 320.485 2696.08 314.836 2680.35 309.187 2670.27 297.89 2664.37 286.101 2658.47 274.312 2657.74 256.261 2660.69 244.104 2663.64 231.947 2673.84 220.649 2682.07 213.158 2690.31 205.668 2700.75 201.37 2710.09 199.159 2714.76 198.054 2718.17 197.839 2722.22 198.1Z" fill="#FE0201" fill-rule="evenodd"/><path d="M2960.22 419 2964.42 435.768C2966.63 444.632 2968.67 453.122 2969.92 460.08L2970 460.641 2898.01 478 2895.96 471.412C2893.96 464.844 2891.59 457.005 2888.21 447.153 2887.36 444.69 2886.41 441.896 2885.37 438.859L2884 434.845Z" fill="#FF5F00" fill-rule="evenodd"/><path d="M2970.29 460 2971.16 465.712C2972.86 480.853 2972.25 485.455 2966.77 492.602 2961.29 499.748 2947.4 506.894 2938.26 508.59 2929.13 510.285 2917.92 506.409 2911.95 502.776 2905.98 499.142 2906.22 496.114 2902.45 486.788 2901.5 484.456 2900.63 481.996 2899.74 479.316L2899 476.966Z" fill="#FF7F00" fill-rule="evenodd"/><path d="M3269.47 643.661C3260.42 643.661 3253.09 650.177 3253.09 658.216 3253.09 666.254 3260.42 672.77 3269.47 672.77 3278.52 672.77 3285.85 666.254 3285.85 658.216 3285.85 650.177 3278.52 643.661 3269.47 643.661ZM2886.01 643.661C2876.97 643.661 2869.64 650.177 2869.64 658.216 2869.64 666.254 2876.97 672.77 2886.01 672.77 2895.06 672.77 2902.39 666.254 2902.39 658.216 2902.39 650.177 2895.06 643.661 2886.01 643.661ZM2756.09 643.661C2746.87 643.661 2739.4 650.177 2739.4 658.216 2739.4 666.254 2746.87 672.77 2756.09 672.77 2765.3 672.77 2772.78 666.254 2772.78 658.216 2772.78 650.177 2765.3 643.661 2756.09 643.661ZM3380.17 639.044C3373.75 639.044 3368.24 643.151 3365.89 649.005L3365.66 650.176 3394.67 650.176 3394.45 649.005C3392.09 643.151 3386.59 639.044 3380.17 639.044ZM3149.73 639.044C3143.31 639.044 3137.8 643.151 3135.45 649.005L3135.22 650.176 3164.23 650.176 3164.01 649.005C3161.65 643.151 3156.15 639.044 3149.73 639.044ZM2756.09 625.85C2775.18 625.85 2790.67 640.34 2790.67 658.216 2790.67 676.091 2775.18 690.582 2756.09 690.582 2736.99 690.582 2721.51 676.091 2721.51 658.216 2721.51 640.34 2736.99 625.85 2756.09 625.85ZM3326.25 623.993C3330.83 623.993 3334.53 626.808 3334.53 630.28L3334.53 636.568 3334.42 636.568 3334.53 636.844 3334.53 687.834C3334.53 689.352 3333.3 690.582 3331.77 690.582L3320.73 690.582C3319.21 690.582 3317.97 689.352 3317.97 687.834L3317.97 636.844 3318.09 636.568 3317.97 636.568 3317.97 630.28C3317.97 626.808 3321.68 623.993 3326.25 623.993ZM3296.49 623.993C3300.49 623.993 3303.74 626.808 3303.74 630.28L3303.74 634.096 3303.74 636.568 3303.74 658.216 3303.74 690.582 3303.34 690.582 3303.29 692.102C3303.03 696.045 3302.5 699.996 3301.67 702.539 3300.02 707.624 3296.53 709.857 3293.39 712.228 3290.25 714.599 3287.32 715.801 3282.83 716.763 3278.34 717.725 3271.62 718 3266.47 718 3261.33 718 3255.98 717.725 3251.98 716.763 3247.98 715.801 3244.91 713.877 3242.46 712.228 3240 710.579 3237.73 708.792 3237.28 706.868 3236.83 704.944 3238.38 702.126 3239.76 700.683 3241.14 699.24 3243.28 698.175 3245.56 698.209 3247.84 698.244 3250.94 700.065 3253.43 700.889 3253.43 700.889 3257.4 702.779 3260.47 703.157 3263.54 703.535 3268.37 703.535 3271.86 703.157 3275.34 702.779 3278.97 702.161 3281.38 700.889 3283.8 699.618 3285.25 697.9 3286.35 695.529 3286.9 694.344 3287.08 692.884 3287.24 691.342L3287.37 690.582 3287.18 690.582 3287.18 685.798 3282.81 688.038C3278.71 689.676 3274.2 690.582 3269.47 690.582 3250.54 690.582 3235.2 676.091 3235.2 658.216 3235.2 640.34 3250.54 625.85 3269.47 625.85 3276.57 625.85 3283.16 627.887 3288.63 631.377L3289.24 631.856 3289.24 630.28C3289.24 626.808 3292.49 623.993 3296.49 623.993ZM2913.03 623.993C2917.04 623.993 2920.28 626.808 2920.28 630.28L2920.28 636.568 2920.28 636.568 2920.28 658.215 2920.28 658.216 2920.28 658.216 2920.28 690.582 2905.79 690.582 2905.79 684.576 2905.17 685.054C2899.7 688.544 2893.11 690.582 2886.01 690.582 2867.09 690.582 2851.75 676.091 2851.75 658.216 2851.75 640.34 2867.09 625.85 2886.01 625.85 2893.11 625.85 2899.7 627.887 2905.17 631.377L2905.79 631.856 2905.79 630.28C2905.79 626.808 2909.03 623.993 2913.03 623.993ZM3078.77 623.827C3081.63 623.934 3084.46 624.304 3086.75 625.025 3091.34 626.468 3095.45 629.973 3098.14 632.859 3100.83 635.745 3101.94 638.15 3102.9 642.342 3103.38 644.438 3103.65 647.29 3103.79 650.15L3103.88 652.76 3103.94 652.924 3103.94 687.569C3103.94 689.087 3102.71 690.318 3101.18 690.318L3090.14 690.318C3088.62 690.318 3087.38 689.087 3087.38 687.569L3087.38 652.924 3087.47 652.696 3087.16 652.147C3086.88 651.685 3086.6 651.198 3086.34 650.588 3085.27 648.149 3085.09 645.469 3082.82 643.579 3080.54 641.689 3076.23 639.421 3072.67 639.25 3069.12 639.078 3064.22 640.727 3061.49 642.548 3060.13 643.459 3059.13 644.455 3058.32 645.679L3056.68 649.355 3056.68 690.582 3040.12 690.582 3040.12 634.096 3040.12 634.096 3040.12 630.28C3040.12 626.808 3043.36 623.993 3047.36 623.993 3051.37 623.993 3054.61 626.808 3054.61 630.28L3054.61 631.653 3057.76 628.942C3061.15 626.846 3065.77 624.853 3070.6 624.2 3073.02 623.874 3075.91 623.719 3078.77 623.827ZM3378.88 623.793C3397.43 623.793 3412.47 639.069 3412.47 657.913L3412 662.65 3405.62 662.65 3405.37 662.751 3363.85 662.751 3364.81 664.813C3366.57 667.493 3368.3 672.2 3371.85 674.089 3375.41 675.979 3381.86 676.22 3386.14 676.151 3389.35 676.1 3392.36 674.811 3395.01 674.112L3397.1 673.752 3400.02 672.176C3403.09 670.525 3407.12 672.029 3409.03 675.535 3410.93 679.041 3409.98 683.221 3406.91 684.872L3401.36 687.861 3401.16 687.489 3399.35 688.469C3397.77 689.242 3396.03 689.929 3394.42 690.376 3392.82 690.822 3391.32 691.106 3389.67 691.265L3385.3 691.375 3378.88 692.033C3360.33 692.033 3345.29 676.757 3345.29 657.913 3345.29 639.069 3360.33 623.793 3378.88 623.793ZM3148.44 623.793C3166.99 623.793 3182.03 639.069 3182.03 657.913L3181.56 662.65 3175.18 662.65 3174.93 662.751 3133.41 662.751 3134.37 664.813C3136.13 667.493 3137.86 672.2 3141.41 674.089 3144.97 675.979 3151.42 676.22 3155.7 676.151 3158.91 676.1 3161.92 674.811 3164.57 674.112L3166.66 673.752 3169.58 672.176C3172.65 670.525 3176.68 672.029 3178.59 675.535 3180.49 679.041 3179.54 683.221 3176.47 684.872L3170.92 687.861 3170.72 687.489 3168.91 688.469C3167.33 689.242 3165.59 689.929 3163.98 690.376 3162.38 690.822 3160.88 691.106 3159.23 691.265L3154.86 691.375 3148.44 692.033C3129.89 692.033 3114.85 676.757 3114.85 657.913 3114.85 639.069 3129.89 623.793 3148.44 623.793ZM3224.86 623.788C3227.89 623.41 3229.96 624.166 3231.69 625.025 3233.41 625.884 3234.59 627.43 3235.21 628.942 3235.83 630.454 3235.83 632.721 3235.42 634.096 3235 635.47 3233.9 636.432 3232.72 637.188 3231.55 637.944 3230.27 638.219 3228.38 638.631 3226.48 639.043 3223.2 639.25 3221.34 639.662 3219.47 640.074 3218.75 640.04 3217.19 641.105 3215.64 642.17 3213.4 643.544 3212.02 646.053 3210.64 648.561 3209.74 653.062 3208.91 656.154 3208.5 657.7 3208.12 658.911 3207.8 660.187L3207.42 661.941 3207.42 690.582 3191.9 690.582 3191.9 634.096 3191.92 634.096 3191.92 630.28C3191.92 626.808 3195.17 623.993 3199.17 623.993 3203.17 623.993 3206.42 626.808 3206.42 630.28L3206.42 634.096 3207.25 634.096 3207.46 633.683C3209.43 630.316 3210.57 628.942 3213.47 627.293 3216.37 625.643 3221.82 624.166 3224.86 623.788ZM3444.54 622.963C3448.54 622.654 3453.3 623.17 3457.17 623.788 3461.03 624.407 3464.97 625.334 3467.73 626.674 3470.49 628.014 3472.77 629.904 3473.73 631.828 3474.7 633.752 3474.15 636.57 3473.53 638.219 3472.91 639.868 3471.56 641.071 3470.01 641.723 3468.45 642.376 3466.04 642.479 3464.21 642.136 3462.38 641.792 3461.24 640.383 3459.03 639.662 3456.82 638.94 3453.89 637.944 3450.96 637.807 3448.02 637.669 3443.71 638.287 3441.64 639.25 3439.57 640.212 3438.26 642.136 3438.53 643.579 3438.81 645.022 3440.88 646.912 3443.3 647.908 3445.71 648.904 3449.03 648.664 3453.03 649.557 3457.03 650.451 3463.45 651.31 3467.31 653.268 3471.18 655.227 3474.49 657.769 3476.22 661.308 3477.94 664.847 3478.39 670.516 3477.67 674.502 3476.94 678.487 3474.98 682.404 3471.87 685.222 3468.76 688.039 3463.55 690.273 3459.03 691.406L3444.75 692.025C3440.29 691.853 3436.29 691.613 3432.32 690.376 3428.35 689.139 3423.32 686.631 3420.94 684.603 3418.55 682.576 3418.21 680.102 3418.04 678.213 3417.86 676.323 3418.59 674.467 3419.9 673.265 3421.21 672.062 3423.83 670.86 3425.9 670.997 3427.97 671.135 3430.05 673.162 3432.32 674.089 3434.6 675.017 3436.81 675.979 3439.57 676.563 3442.33 677.147 3446.2 677.8 3448.89 677.594 3451.58 677.388 3454.27 676.426 3455.72 675.326 3457.17 674.227 3457.93 672.337 3457.58 670.997 3457.24 669.657 3456.06 668.283 3453.65 667.286 3451.23 666.29 3446.95 665.843 3443.09 665.019 3443.09 665.019 3434.29 664.435 3430.46 662.339 3426.63 660.243 3421.9 656.395 3420.11 652.443 3418.31 648.492 3418.97 642.308 3419.69 638.631 3420.42 634.955 3422.21 632.55 3424.45 630.385 3426.7 628.22 3429.8 626.88 3433.15 625.643 3436.5 624.406 3440.54 623.273 3444.54 622.963ZM2802.67 603.584 2819.24 603.584 2819.24 625.85 2832.28 625.85 2832.9 625.85 2838.6 625.85C2842.09 625.85 2844.91 629.08 2844.91 633.065 2844.91 637.05 2842.09 640.28 2838.6 640.28L2832.9 640.28 2832.28 640.28 2819.24 640.28 2819.24 664.828 2819.42 665.264C2819.55 666.316 2819.52 667.355 2819.65 668.111 2819.93 669.623 2819.34 670.344 2819.86 671.41 2820.38 672.475 2821.45 673.78 2822.76 674.502 2824.07 675.223 2825.86 675.429 2827.73 675.739L2833.79 676.342 2837.96 673.993C2838.72 673.566 2839.55 673.334 2840.38 673.282 2842.9 673.125 2845.55 674.578 2847.03 677.179 2849 680.648 2848.13 684.846 2845.1 686.555L2840.07 689.382 2839.94 689.551C2838.74 690.788 2837.98 690.376 2835.8 690.788 2833.63 691.2 2830.14 692.128 2826.9 692.025 2823.66 691.922 2819.31 691.097 2816.34 690.169 2813.37 689.242 2811.16 688.692 2809.09 686.459 2807.02 684.225 2804.85 680.48 2803.92 676.769 2803.45 674.914 2803.09 672.535 2802.97 670.237L2802.99 668.316 2802.67 668.316 2802.67 640.28 2794.81 640.28 2794.81 625.85 2802.67 625.85ZM2944.51 603.584C2949.08 603.584 2952.79 606.399 2952.79 609.872L2952.79 616.159 2952.79 616.159 2952.79 690.582 2936.22 690.582 2936.22 613.687 2936.22 613.687 2936.22 609.872C2936.22 606.399 2939.93 603.584 2944.51 603.584ZM2969.3 602.76 3023.89 602.76C3025.45 602.76 3026.72 604.022 3026.72 605.578L3026.72 616.848C3026.72 618.404 3025.45 619.665 3023.89 619.665L2984.88 619.665 2984.88 638.69 3018.7 638.69C3020.26 638.69 3021.53 639.951 3021.53 641.508L3021.53 652.777C3021.53 654.333 3020.26 655.595 3018.7 655.595L2984.88 655.595 2984.88 672.901 3025.02 672.901C3026.63 672.901 3027.93 674.201 3027.93 675.804L3027.93 687.415C3027.93 689.018 3026.63 690.318 3025.02 690.318L2969.38 690.318C2967.77 690.318 2966.47 689.018 2966.47 687.415L2966.47 685.016 2966.47 685.016 2966.47 608.121 2966.47 608.121 2966.47 605.578C2966.47 604.022 2967.74 602.76 2969.3 602.76ZM2661.83 602.76 2732.76 602.76C2734.32 602.76 2735.59 604.022 2735.59 605.578L2735.59 616.848C2735.59 618.404 2734.32 619.665 2732.76 619.665L2705.36 619.665 2705.36 690.582 2688.8 690.582 2688.8 619.665 2661.83 619.665C2660.27 619.665 2659 618.404 2659 616.848L2659 605.578C2659 604.022 2660.27 602.76 2661.83 602.76ZM3326.61 597C3331.78 597 3335.96 601.194 3335.96 606.368 3335.96 611.541 3331.78 615.735 3326.61 615.735 3321.45 615.735 3317.27 611.541 3317.27 606.368 3317.27 601.194 3321.45 597 3326.61 597Z" fill="#FC0103" fill-rule="evenodd"/></g></svg>