<svg width="1505" height="1314" xmlns="http://www.w3.org/2000/svg" xmlns:xlink="http://www.w3.org/1999/xlink" xml:space="preserve" overflow="hidden"><defs><clipPath id="clip0"><rect x="339" y="248" width="1505" height="1314"/></clipPath></defs><g clip-path="url(#clip0)" transform="translate(-339 -248)"><path d="M1487.71 249.714 1843.3 249.715 1083.51 1561.76 906.22 1253.53C895.907 1234.78 883.279 1210.25 876.809 1190.4 870.341 1170.55 867.924 1151.11 867.407 1134.43 866.889 1117.76 868.736 1107.42 873.702 1090.33 878.668 1073.24 881.277 1065.75 885.886 1054.68L1305.2 331.237C1312.5 321.724 1317.69 315.728 1330.03 302.9 1342.37 290.073 1350.41 283.32 1365.12 275.452 1379.84 267.585 1397.89 259.989 1418.32 255.7 1438.75 251.41 1466.32 250.124 1487.71 249.714Z" fill="#02306B" fill-rule="evenodd"/><path d="M339 248 823.155 248C823.158 248.216 823.161 248.432 823.164 248.649L830.341 248.287C988.658 248.287 1117 376.493 1117 534.643 1117 692.794 988.658 821 830.341 821 731.392 821 644.153 770.919 592.638 694.748L582.552 676.185 339 248Z" fill="#53BD5B" fill-rule="evenodd"/></g></svg>