<svg id="svg" version="1.1" xmlns="http://www.w3.org/2000/svg" xmlns:xlink="http://www.w3.org/1999/xlink" width="400" height="435.7142857142857" viewBox="0, 0, 400,435.7142857142857"><g id="svgg"><path id="path0" d="M95.820 14.100 C 95.971 14.595,96.343 15.284,96.647 15.631 C 96.951 15.979,97.200 16.465,97.200 16.712 C 97.200 16.958,97.425 17.304,97.700 17.480 C 97.975 17.656,98.470 18.289,98.800 18.888 C 99.706 20.530,103.358 25.781,103.700 25.933 C 103.865 26.007,104.000 26.225,104.000 26.419 C 104.000 26.613,105.092 28.353,106.428 30.285 C 110.792 36.604,113.386 40.452,114.200 41.815 C 114.640 42.551,115.360 43.580,115.800 44.100 C 116.889 45.389,118.400 47.522,118.400 47.771 C 118.400 48.101,121.772 52.987,122.100 53.133 C 122.265 53.207,122.400 53.429,122.400 53.628 C 122.400 54.038,126.536 60.169,127.661 61.426 C 128.067 61.880,128.400 62.398,128.400 62.578 C 128.400 62.758,128.997 63.736,129.727 64.752 C 132.353 68.408,133.854 70.611,134.123 71.200 C 134.273 71.530,135.118 72.790,136.001 74.000 C 136.883 75.210,138.604 77.640,139.825 79.400 C 141.046 81.160,143.371 84.490,144.991 86.800 C 146.611 89.110,149.131 92.710,150.590 94.800 C 152.049 96.890,154.582 100.490,156.219 102.800 C 157.856 105.110,160.045 108.260,161.084 109.800 C 162.124 111.340,163.656 113.500,164.490 114.600 C 165.324 115.700,166.143 116.780,166.310 117.000 C 166.477 117.220,167.277 118.390,168.087 119.600 C 168.897 120.810,170.387 122.970,171.398 124.400 C 173.919 127.968,177.715 133.510,178.200 134.334 C 178.420 134.707,179.089 135.649,179.688 136.428 C 182.063 139.519,182.201 140.527,180.570 142.901 C 177.520 147.340,174.663 150.800,174.045 150.803 C 172.781 150.808,166.960 149.936,164.600 149.388 C 163.280 149.081,160.940 148.647,159.400 148.422 C 157.860 148.197,155.971 147.830,155.203 147.606 C 154.434 147.383,153.202 147.200,152.464 147.200 C 151.727 147.200,150.160 146.920,148.983 146.578 C 147.807 146.236,145.619 145.801,144.122 145.613 C 140.180 145.115,136.277 144.441,132.400 143.586 C 130.530 143.173,128.190 142.762,127.200 142.671 C 126.210 142.580,124.140 142.236,122.600 141.905 C 121.060 141.574,118.000 141.002,115.800 140.633 C 113.600 140.264,110.630 139.707,109.200 139.396 C 107.770 139.084,105.231 138.648,103.558 138.427 C 101.885 138.205,100.028 137.839,99.432 137.612 C 98.836 137.385,97.595 137.201,96.674 137.201 C 95.753 137.202,93.470 136.850,91.600 136.420 C 87.457 135.466,84.237 134.863,80.800 134.397 C 79.370 134.203,77.127 133.765,75.816 133.422 C 74.505 133.080,72.772 132.800,71.966 132.800 C 71.160 132.800,69.780 132.546,68.899 132.235 C 68.018 131.924,66.240 131.551,64.948 131.406 C 63.657 131.261,61.430 130.901,60.000 130.606 C 58.570 130.312,56.050 129.856,54.400 129.593 C 52.750 129.330,49.960 128.884,48.200 128.601 C 46.440 128.319,44.493 127.888,43.874 127.644 C 43.255 127.400,41.995 127.196,41.074 127.191 C 40.153 127.185,38.062 126.825,36.427 126.391 C 34.792 125.956,32.901 125.600,32.224 125.600 C 31.548 125.600,30.366 125.414,29.597 125.187 C 28.829 124.960,26.310 124.495,24.000 124.154 C 21.690 123.812,19.216 123.438,18.502 123.323 C 13.244 122.473,17.478 125.475,24.000 127.221 C 24.770 127.428,26.660 128.061,28.200 128.630 C 29.740 129.198,31.544 129.801,32.209 129.969 C 32.875 130.137,33.808 130.483,34.283 130.737 C 34.758 130.992,35.474 131.201,35.874 131.202 C 36.273 131.204,37.140 131.492,37.800 131.842 C 38.460 132.192,39.720 132.718,40.600 133.011 C 42.708 133.711,45.601 134.741,46.600 135.147 C 47.737 135.609,51.184 136.791,52.600 137.204 C 54.672 137.810,57.752 138.866,59.000 139.399 C 59.660 139.681,61.640 140.386,63.400 140.966 C 65.160 141.546,66.913 142.196,67.295 142.410 C 67.677 142.625,68.249 142.800,68.566 142.800 C 68.884 142.800,71.001 143.410,73.272 144.156 C 75.542 144.902,78.029 145.646,78.798 145.810 C 79.568 145.973,80.738 146.338,81.398 146.620 C 83.590 147.556,87.841 148.800,88.848 148.800 C 89.394 148.800,90.011 148.971,90.220 149.179 C 90.569 149.527,91.717 149.886,97.400 151.420 C 98.500 151.718,100.300 152.251,101.400 152.605 C 102.500 152.960,104.300 153.506,105.400 153.820 C 109.465 154.980,113.033 156.051,114.200 156.463 C 114.860 156.695,116.120 157.031,117.000 157.208 C 117.880 157.385,119.320 157.808,120.200 158.147 C 121.080 158.487,122.154 158.773,122.587 158.782 C 123.019 158.792,124.099 159.047,124.987 159.349 C 125.874 159.651,127.680 160.211,129.000 160.594 C 130.320 160.977,132.480 161.612,133.800 162.005 C 135.120 162.397,137.550 163.113,139.200 163.595 C 140.850 164.077,142.740 164.653,143.400 164.874 C 144.060 165.096,145.320 165.428,146.200 165.614 C 147.080 165.799,148.588 166.232,149.550 166.576 C 150.513 166.919,151.824 167.200,152.463 167.200 C 153.103 167.200,154.222 167.449,154.952 167.754 C 155.681 168.059,157.174 168.431,158.270 168.582 C 159.493 168.750,160.695 169.228,161.384 169.820 L 162.507 170.785 161.528 172.092 C 160.635 173.285,159.785 174.752,156.593 180.600 C 155.992 181.700,155.187 183.140,154.804 183.800 C 153.501 186.045,151.074 190.588,148.394 195.800 C 146.923 198.660,145.132 201.989,144.413 203.197 C 143.695 204.405,142.948 205.755,142.754 206.197 C 142.560 206.639,142.233 207.270,142.026 207.600 C 141.615 208.254,140.552 210.666,139.292 213.800 C 137.600 218.006,135.514 223.049,134.988 224.200 C 134.687 224.860,133.970 226.570,133.395 228.000 C 132.820 229.430,132.091 231.167,131.775 231.860 C 131.459 232.554,131.200 233.245,131.200 233.396 C 131.200 233.547,130.661 234.836,130.001 236.260 C 129.342 237.685,128.689 239.334,128.550 239.925 C 128.411 240.516,127.965 241.630,127.559 242.400 C 126.405 244.588,124.000 250.057,124.000 250.493 C 124.000 250.709,123.449 252.039,122.777 253.449 C 122.104 254.859,120.589 258.305,119.410 261.106 C 116.378 268.314,114.753 272.016,112.618 276.574 C 111.595 278.760,110.122 282.090,109.345 283.974 C 108.568 285.858,107.296 288.750,106.517 290.400 C 105.739 292.050,104.921 293.790,104.701 294.267 C 103.945 295.901,105.261 301.200,106.422 301.200 C 106.742 301.200,107.935 299.522,108.698 298.000 C 108.974 297.450,109.560 296.460,110.001 295.800 C 110.441 295.140,111.077 294.060,111.414 293.400 C 111.750 292.740,112.374 291.660,112.800 291.000 C 113.226 290.340,113.852 289.260,114.191 288.600 C 114.530 287.940,115.533 286.230,116.421 284.800 C 117.309 283.370,118.216 281.840,118.438 281.400 C 118.660 280.960,119.237 279.942,119.721 279.139 C 120.204 278.335,121.463 276.175,122.518 274.339 C 123.573 272.502,124.602 270.730,124.805 270.400 C 128.432 264.499,129.528 262.672,129.844 262.000 C 130.284 261.063,133.349 255.823,133.587 255.600 C 133.833 255.369,134.699 253.848,136.205 251.000 C 136.787 249.900,137.519 248.716,137.832 248.369 C 138.144 248.021,138.405 247.571,138.411 247.369 C 138.418 247.166,139.138 245.924,140.011 244.609 C 140.885 243.293,141.600 241.988,141.600 241.709 C 141.600 241.429,141.762 241.200,141.961 241.200 C 142.159 241.200,142.526 240.705,142.777 240.100 C 143.027 239.495,143.629 238.345,144.116 237.544 C 144.602 236.743,145.618 235.033,146.374 233.744 C 147.129 232.455,147.853 231.310,147.982 231.200 C 148.111 231.090,148.436 230.550,148.705 230.000 C 148.974 229.450,149.369 228.730,149.582 228.400 C 149.796 228.070,151.732 224.772,153.885 221.071 C 156.038 217.371,158.160 213.730,158.600 212.981 C 159.040 212.232,159.915 210.670,160.545 209.509 C 161.174 208.349,161.918 207.130,162.197 206.800 C 162.477 206.470,162.829 205.795,162.980 205.300 C 163.130 204.805,163.410 204.400,163.600 204.400 C 163.790 204.400,164.070 203.995,164.220 203.500 C 164.371 203.005,164.725 202.330,165.007 202.000 C 165.289 201.670,166.033 200.470,166.660 199.333 C 167.590 197.648,170.696 192.372,172.391 189.600 C 173.473 187.831,176.934 181.723,177.253 181.019 C 178.789 177.631,181.113 174.594,182.256 174.480 C 183.409 174.365,187.596 176.120,187.603 176.721 C 187.618 177.973,188.885 186.855,189.184 187.800 C 189.393 188.460,189.757 190.440,189.994 192.200 C 190.230 193.960,190.782 197.470,191.221 200.000 C 191.659 202.530,192.205 205.860,192.433 207.400 C 192.661 208.940,193.017 211.280,193.223 212.600 C 193.430 213.920,193.859 216.802,194.176 219.004 C 194.494 221.206,194.928 223.816,195.141 224.804 C 195.354 225.792,195.657 227.945,195.814 229.589 C 195.988 231.412,196.786 234.612,197.860 237.789 C 198.829 240.655,199.806 243.713,200.032 244.584 C 200.257 245.456,200.586 246.356,200.762 246.584 C 200.939 246.813,201.274 247.720,201.508 248.600 C 201.742 249.480,202.408 251.460,202.987 253.000 C 203.566 254.540,204.208 256.340,204.414 257.000 C 204.620 257.660,204.957 258.560,205.164 259.000 C 205.371 259.440,206.035 261.420,206.640 263.400 C 207.245 265.380,207.866 267.270,208.019 267.600 C 208.172 267.930,208.705 269.550,209.203 271.200 C 209.702 272.850,210.356 274.830,210.658 275.600 C 210.960 276.370,211.372 277.810,211.573 278.800 C 212.102 281.405,213.014 284.505,213.542 285.492 C 213.794 285.963,214.000 286.697,214.000 287.124 C 214.000 287.967,215.889 292.475,216.379 292.800 C 216.545 292.910,216.857 293.540,217.073 294.200 C 218.699 299.161,218.337 288.741,216.593 280.400 C 216.294 278.970,215.937 276.630,215.800 275.200 C 215.663 273.770,215.303 271.430,215.000 270.000 C 214.698 268.570,214.267 266.050,214.042 264.400 C 213.209 258.275,212.782 255.333,212.361 252.800 C 212.123 251.370,211.769 248.804,211.575 247.098 C 211.380 245.393,210.946 242.937,210.611 241.641 C 210.275 240.345,209.998 238.411,209.996 237.342 C 209.993 236.274,209.732 234.547,209.416 233.504 C 209.100 232.461,208.732 230.481,208.599 229.104 C 208.466 227.727,208.101 225.070,207.787 223.200 C 206.978 218.376,206.443 214.807,205.829 210.139 C 205.535 207.905,205.188 205.904,205.057 205.693 C 204.927 205.482,204.634 203.668,204.407 201.663 C 204.180 199.657,203.725 196.985,203.397 195.724 C 203.069 194.463,202.800 192.602,202.800 191.589 C 202.800 190.575,202.549 188.858,202.241 187.773 C 201.565 185.384,201.108 180.374,201.510 179.746 C 201.913 179.116,205.618 179.812,208.262 181.015 C 210.023 181.817,210.620 182.410,212.353 185.077 C 215.020 189.182,217.897 193.348,224.125 202.124 C 226.944 206.096,229.444 209.709,229.682 210.154 C 229.920 210.598,232.123 213.670,234.578 216.981 C 237.033 220.291,240.832 225.510,243.021 228.579 C 247.419 234.744,248.659 236.088,258.758 245.617 C 271.587 257.721,278.604 264.851,280.680 267.889 C 281.165 268.598,282.568 270.398,283.798 271.889 C 285.028 273.380,286.170 274.780,286.336 275.000 C 286.502 275.220,287.754 276.807,289.119 278.526 C 290.483 280.246,291.605 281.776,291.611 281.926 C 291.618 282.077,292.355 283.010,293.249 284.000 C 294.144 284.990,295.295 286.430,295.807 287.200 C 296.319 287.970,297.303 289.230,297.992 290.000 C 298.682 290.770,299.857 292.305,300.604 293.412 C 302.784 296.644,303.707 297.344,305.378 297.031 C 307.355 296.660,307.241 295.597,304.892 292.526 C 303.851 291.165,302.370 289.127,301.600 287.998 C 300.830 286.868,300.020 285.732,299.800 285.472 C 299.580 285.212,298.908 284.341,298.306 283.535 C 297.704 282.729,296.977 281.829,296.689 281.535 C 296.401 281.241,295.274 279.771,294.183 278.269 C 293.092 276.767,291.253 274.247,290.095 272.669 C 288.937 271.091,287.563 269.170,287.042 268.400 C 286.521 267.630,285.693 266.550,285.202 266.000 C 284.711 265.450,283.908 264.460,283.418 263.800 C 282.928 263.140,280.928 260.440,278.972 257.800 C 277.017 255.160,275.206 252.780,274.948 252.511 C 274.690 252.241,274.069 251.341,273.569 250.511 C 273.069 249.680,272.377 248.709,272.030 248.354 C 271.684 247.998,271.130 247.307,270.800 246.817 C 270.257 246.012,262.703 235.961,261.918 235.000 C 261.738 234.780,259.357 231.596,256.625 227.925 C 253.893 224.254,250.970 220.346,250.129 219.240 C 249.288 218.134,247.610 215.866,246.400 214.201 C 245.190 212.535,242.273 208.613,239.917 205.486 C 237.562 202.359,235.025 198.990,234.279 198.000 C 233.534 197.010,232.240 195.210,231.404 194.000 C 230.569 192.790,229.641 191.530,229.342 191.200 C 227.789 189.485,225.600 186.352,225.600 185.845 C 225.600 185.527,225.375 185.163,225.100 185.037 C 224.825 184.911,224.960 184.886,225.400 184.983 C 225.840 185.079,227.320 185.355,228.688 185.595 C 230.057 185.835,231.806 186.294,232.575 186.615 C 233.345 186.937,234.532 187.200,235.213 187.200 C 235.895 187.200,236.823 187.398,237.275 187.640 C 237.727 187.882,239.470 188.327,241.148 188.628 C 242.827 188.930,245.190 189.368,246.400 189.603 C 251.569 190.606,255.170 191.200,256.080 191.200 C 256.616 191.200,258.392 191.556,260.027 191.991 C 261.662 192.425,263.630 192.783,264.400 192.784 C 265.170 192.786,267.420 193.139,269.400 193.569 C 274.759 194.732,277.456 195.215,280.939 195.635 C 282.665 195.843,284.401 196.186,284.795 196.398 C 285.190 196.609,287.067 196.958,288.968 197.174 C 290.868 197.390,292.592 197.671,292.799 197.799 C 293.006 197.927,294.666 198.202,296.488 198.410 C 298.310 198.617,300.970 199.051,302.400 199.374 C 306.559 200.314,309.168 200.781,312.777 201.234 C 314.635 201.467,316.885 201.912,317.777 202.223 C 318.670 202.534,320.156 202.791,321.080 202.794 C 322.005 202.797,323.805 203.073,325.080 203.406 C 326.356 203.740,328.390 204.106,329.600 204.220 C 330.810 204.334,333.060 204.683,334.600 204.996 C 336.140 205.309,338.750 205.750,340.400 205.977 C 347.736 206.985,351.710 207.621,352.071 207.844 C 352.285 207.976,354.291 208.333,356.530 208.637 C 360.365 209.157,362.353 209.481,367.600 210.437 C 368.810 210.658,371.150 211.011,372.800 211.222 C 374.450 211.434,376.974 211.889,378.410 212.235 C 385.191 213.870,385.182 211.821,378.400 209.957 C 377.630 209.746,376.550 209.333,376.000 209.040 C 375.450 208.747,374.250 208.394,373.334 208.255 C 372.417 208.115,371.157 207.742,370.534 207.426 C 368.333 206.309,365.240 205.200,364.326 205.200 C 363.817 205.200,361.780 204.675,359.800 204.034 C 357.820 203.392,354.490 202.482,352.400 202.010 C 350.310 201.537,347.790 200.893,346.800 200.577 C 345.810 200.261,344.190 199.835,343.200 199.631 C 342.210 199.426,339.960 198.865,338.200 198.383 C 336.440 197.902,334.280 197.376,333.400 197.214 C 331.835 196.927,328.592 195.994,326.200 195.142 C 325.540 194.907,324.280 194.583,323.400 194.423 C 322.520 194.263,320.900 193.837,319.800 193.478 C 318.700 193.118,316.270 192.444,314.400 191.980 C 312.530 191.517,310.460 190.977,309.800 190.780 C 309.140 190.584,307.430 190.242,306.000 190.020 C 304.570 189.799,302.680 189.445,301.800 189.233 C 300.920 189.022,299.210 188.662,298.000 188.432 C 296.790 188.202,295.080 187.843,294.200 187.634 C 293.320 187.425,290.800 186.869,288.600 186.400 C 286.400 185.931,283.790 185.357,282.800 185.124 C 281.810 184.891,280.100 184.540,279.000 184.344 C 276.923 183.972,273.531 183.245,268.900 182.178 C 267.415 181.836,265.210 181.396,264.000 181.200 C 262.790 181.004,260.720 180.572,259.400 180.241 C 257.069 179.655,255.558 179.323,247.600 177.645 C 243.971 176.880,238.333 175.622,231.400 174.033 C 229.640 173.629,227.578 173.025,226.818 172.691 L 225.437 172.084 228.598 171.787 C 230.387 171.620,234.808 171.700,238.780 171.972 C 242.641 172.237,250.570 172.712,256.400 173.026 C 262.230 173.341,268.980 173.763,271.400 173.963 C 278.632 174.563,295.910 174.650,296.469 174.091 C 297.273 173.287,295.720 172.765,289.000 171.581 C 287.680 171.349,285.790 170.986,284.800 170.775 C 283.810 170.563,281.486 170.203,279.635 169.975 C 277.785 169.746,275.985 169.409,275.635 169.225 C 275.286 169.042,273.830 168.766,272.400 168.612 C 270.970 168.459,268.784 168.078,267.542 167.767 C 266.301 167.455,264.664 167.200,263.906 167.200 C 263.148 167.200,261.644 166.929,260.564 166.597 C 259.484 166.266,257.250 165.881,255.600 165.742 C 253.950 165.604,252.277 165.324,251.883 165.122 C 251.228 164.785,248.747 164.317,241.600 163.181 C 240.170 162.953,237.830 162.505,236.400 162.184 C 234.970 161.864,232.720 161.437,231.400 161.235 C 227.106 160.579,223.441 159.965,221.400 159.559 C 220.300 159.340,217.780 158.906,215.800 158.594 C 213.820 158.283,211.571 157.841,210.803 157.614 C 210.034 157.386,208.733 157.200,207.911 157.200 C 205.024 157.200,203.339 156.139,200.356 152.444 C 196.679 147.889,196.693 148.017,199.366 143.476 C 200.595 141.388,201.600 139.496,201.600 139.273 C 201.600 139.050,201.746 138.807,201.924 138.733 C 202.102 138.660,202.867 137.545,203.624 136.256 C 204.381 134.967,205.396 133.257,205.879 132.456 C 206.363 131.655,206.959 130.554,207.204 130.008 C 207.450 129.463,207.777 128.923,207.933 128.808 C 208.089 128.694,208.440 128.150,208.712 127.600 C 208.985 127.050,209.561 126.060,209.992 125.400 C 210.422 124.740,211.056 123.660,211.399 123.000 C 211.743 122.340,212.694 120.679,213.512 119.309 C 217.085 113.326,219.886 108.555,220.151 108.000 C 220.309 107.670,220.835 106.745,221.319 105.944 C 221.804 105.143,222.819 103.433,223.576 102.144 C 224.333 100.855,225.098 99.740,225.276 99.667 C 225.454 99.593,225.600 99.360,225.600 99.148 C 225.600 98.812,227.270 95.856,230.281 90.861 C 230.765 90.058,231.292 89.130,231.452 88.800 C 231.611 88.470,232.203 87.480,232.766 86.600 C 233.330 85.720,234.019 84.550,234.299 84.000 C 234.578 83.450,235.210 82.329,235.703 81.509 C 236.197 80.690,237.118 79.070,237.751 77.909 C 238.385 76.749,239.032 75.710,239.190 75.600 C 239.455 75.415,239.941 74.578,241.280 72.000 C 241.566 71.450,242.385 70.104,243.100 69.009 C 243.815 67.914,244.400 66.811,244.400 66.558 C 244.400 66.305,244.670 65.874,245.000 65.600 C 245.952 64.810,245.711 63.935,243.988 61.925 L 242.380 60.050 240.290 60.780 C 232.899 63.360,227.600 69.267,227.600 74.927 C 227.600 76.669,226.712 78.565,224.244 82.090 C 222.900 84.010,221.298 86.350,220.685 87.290 C 220.071 88.231,218.762 90.080,217.775 91.400 C 216.788 92.720,215.185 95.001,214.212 96.470 C 213.240 97.938,212.164 99.468,211.823 99.870 C 211.481 100.271,210.436 101.710,209.501 103.066 C 208.565 104.422,206.540 107.277,205.000 109.410 C 201.991 113.577,199.062 117.691,195.680 122.500 C 194.007 124.878,193.394 125.471,192.775 125.309 C 191.918 125.085,191.860 124.889,191.256 120.200 C 190.812 116.758,190.212 112.838,189.540 109.000 C 189.309 107.680,188.868 104.890,188.561 102.800 C 187.434 95.144,186.848 91.494,186.453 89.668 C 186.231 88.641,185.858 86.360,185.623 84.600 C 185.389 82.840,184.827 79.510,184.375 77.200 C 183.922 74.890,183.394 71.650,183.201 70.000 C 182.869 67.161,182.200 64.310,180.484 58.429 C 179.720 55.808,178.751 54.858,177.700 55.698 C 177.087 56.188,177.039 64.637,177.615 70.600 C 177.827 72.800,178.183 78.470,178.404 83.200 C 178.626 87.930,178.999 93.330,179.233 95.200 C 179.467 97.070,179.816 101.660,180.008 105.400 C 180.200 109.140,180.561 115.140,180.811 118.734 C 181.061 122.328,181.169 125.365,181.051 125.482 C 180.801 125.732,178.191 123.056,177.263 121.600 C 176.913 121.050,175.462 119.070,174.040 117.200 C 170.263 112.235,166.550 107.271,163.425 103.007 C 162.999 102.425,162.369 101.600,162.025 101.173 C 161.681 100.746,160.410 99.034,159.200 97.370 C 157.990 95.705,156.084 93.141,154.965 91.671 C 153.845 90.202,152.244 88.010,151.407 86.800 C 150.570 85.590,149.639 84.330,149.339 84.000 C 148.608 83.196,144.870 78.189,143.513 76.197 C 142.915 75.318,141.880 74.004,141.213 73.275 C 140.546 72.547,140.000 71.864,140.000 71.759 C 140.000 71.580,138.806 69.833,137.719 68.424 C 136.552 66.909,131.205 59.739,129.200 57.000 C 127.990 55.347,126.505 53.410,125.900 52.697 C 125.295 51.984,124.313 50.680,123.719 49.800 C 123.124 48.920,122.073 47.480,121.383 46.600 C 120.694 45.720,119.444 44.010,118.607 42.800 C 117.770 41.590,116.838 40.330,116.536 40.000 C 116.235 39.670,114.686 37.648,113.094 35.506 C 111.502 33.364,109.570 30.767,108.800 29.733 C 108.030 28.700,106.921 27.164,106.335 26.320 C 105.750 25.475,104.810 24.203,104.246 23.492 C 99.084 16.978,96.800 13.945,96.800 13.604 C 96.800 13.382,96.518 13.200,96.173 13.200 C 95.708 13.200,95.617 13.433,95.820 14.100 M173.400 319.459 C 150.051 326.921,142.538 351.955,158.543 368.962 C 159.984 370.494,163.273 372.601,165.800 373.611 C 167.120 374.139,168.555 374.802,168.989 375.085 C 169.423 375.368,170.018 375.600,170.311 375.600 C 170.871 375.600,173.808 376.795,175.732 377.805 C 176.355 378.132,177.056 378.400,177.289 378.400 C 177.522 378.400,178.452 378.746,179.356 379.168 C 183.095 380.915,184.668 381.600,184.943 381.600 C 186.902 381.600,191.041 386.601,191.995 390.120 C 194.429 399.098,178.588 405.101,165.409 400.195 C 162.272 399.027,157.260 396.850,156.219 396.204 C 154.804 395.325,153.309 395.138,153.053 395.807 C 152.603 396.979,152.682 416.042,153.139 416.499 C 153.734 417.094,156.191 417.981,158.591 418.466 C 159.686 418.688,160.903 419.041,161.294 419.251 C 161.686 419.460,163.130 419.794,164.503 419.991 C 165.877 420.189,167.810 420.534,168.800 420.758 C 171.713 421.417,184.316 421.308,186.636 420.604 C 187.716 420.277,189.050 420.006,189.600 420.002 C 190.150 419.998,191.083 419.743,191.673 419.435 C 192.263 419.127,193.343 418.748,194.073 418.592 C 194.803 418.435,195.850 418.079,196.400 417.799 C 196.950 417.519,197.850 417.088,198.400 416.841 C 198.950 416.594,199.940 416.033,200.600 415.595 C 201.260 415.158,202.250 414.572,202.800 414.295 C 206.052 412.655,211.593 407.494,211.598 406.100 C 211.599 405.825,211.766 405.600,211.969 405.600 C 212.172 405.600,212.555 404.925,212.821 404.100 C 213.087 403.275,213.442 402.420,213.610 402.200 C 214.738 400.722,215.641 394.780,215.497 389.785 C 215.313 383.433,214.801 381.396,211.846 375.238 C 210.827 373.114,207.531 369.638,205.600 368.650 C 204.830 368.257,203.480 367.512,202.600 366.997 C 199.086 364.938,189.787 360.894,186.000 359.778 C 181.072 358.326,175.115 354.170,173.542 351.087 C 170.627 345.372,175.500 337.918,182.873 336.814 C 189.037 335.891,197.422 337.303,205.436 340.615 C 206.116 340.896,206.867 341.006,207.106 340.858 C 207.858 340.393,207.948 322.066,207.200 321.596 C 204.033 319.603,178.083 317.962,173.400 319.459 M16.663 320.283 C 16.123 320.422,15.992 320.705,16.174 321.336 C 16.311 321.811,16.706 323.267,17.053 324.572 C 17.400 325.877,17.823 327.227,17.995 327.572 C 18.438 328.466,20.990 335.698,21.604 337.800 C 22.322 340.257,23.271 343.021,23.625 343.686 C 23.826 344.064,24.161 345.054,24.370 345.886 C 24.579 346.719,25.226 348.660,25.807 350.200 C 26.388 351.740,27.032 353.681,27.237 354.514 C 27.442 355.346,27.767 356.336,27.958 356.714 C 28.724 358.225,30.000 361.858,30.000 362.528 C 30.000 362.919,30.265 363.752,30.589 364.378 C 30.912 365.004,31.349 366.210,31.560 367.058 C 31.870 368.308,34.429 375.762,36.758 382.200 C 36.997 382.860,37.632 384.750,38.170 386.400 C 38.708 388.050,39.336 389.940,39.565 390.600 C 41.322 395.645,42.519 399.211,42.855 400.400 C 43.073 401.170,43.510 402.367,43.826 403.060 C 44.142 403.754,44.401 404.564,44.402 404.860 C 44.404 405.157,44.657 405.883,44.965 406.473 C 45.273 407.063,45.649 408.110,45.800 408.800 C 45.951 409.490,46.327 410.537,46.635 411.127 C 46.943 411.717,47.196 412.533,47.198 412.940 C 47.201 413.835,48.395 416.486,48.979 416.894 C 49.211 417.056,54.710 417.188,61.200 417.188 C 67.690 417.188,73.203 417.056,73.451 416.894 C 74.102 416.469,77.203 408.130,77.204 406.800 C 77.205 406.470,77.452 405.726,77.755 405.146 C 78.057 404.567,79.065 401.777,79.995 398.946 C 80.925 396.116,81.921 393.170,82.209 392.400 C 82.798 390.821,83.868 387.600,84.400 385.800 C 85.017 383.716,86.060 380.630,86.429 379.800 C 86.625 379.360,87.314 377.380,87.961 375.400 C 88.607 373.420,89.333 371.260,89.573 370.600 C 89.813 369.940,90.810 366.970,91.788 364.000 C 93.498 358.808,95.551 352.718,96.441 350.200 C 96.674 349.540,97.039 348.370,97.251 347.600 C 97.464 346.830,97.798 345.840,97.994 345.400 C 98.190 344.960,98.471 344.150,98.619 343.600 C 98.768 343.050,99.113 342.060,99.388 341.400 C 101.261 336.892,105.689 322.408,105.466 321.519 L 105.211 320.506 96.237 320.214 C 84.391 319.830,85.077 319.625,83.801 323.928 C 83.235 325.838,82.508 327.910,82.186 328.532 C 81.864 329.155,81.600 329.965,81.600 330.332 C 81.600 330.946,80.611 334.175,79.373 337.600 C 79.094 338.370,78.198 341.160,77.382 343.800 C 74.451 353.273,73.901 355.012,73.590 355.800 C 72.886 357.580,71.074 363.399,70.227 366.600 C 69.936 367.700,69.510 369.050,69.281 369.600 C 69.052 370.150,68.206 372.760,67.403 375.400 C 66.599 378.040,65.620 381.100,65.226 382.200 C 64.832 383.300,64.009 385.775,63.396 387.700 C 62.783 389.625,62.236 391.200,62.180 391.200 C 61.775 391.200,60.339 387.965,59.419 384.981 C 58.812 383.012,58.094 380.860,57.823 380.200 C 57.552 379.540,57.011 377.920,56.620 376.600 C 56.229 375.280,55.665 373.660,55.367 373.000 C 55.068 372.340,54.437 370.540,53.965 369.000 C 53.492 367.460,52.788 365.300,52.400 364.200 C 51.133 360.604,50.741 359.420,50.349 358.000 C 50.136 357.230,49.813 356.240,49.631 355.800 C 49.029 354.345,46.354 346.228,45.968 344.686 C 45.760 343.854,45.433 342.864,45.242 342.486 C 44.402 340.830,40.402 328.786,40.398 327.901 C 40.396 327.625,40.146 326.922,39.841 326.339 C 39.537 325.755,39.076 324.636,38.817 323.853 C 38.559 323.069,37.837 321.882,37.213 321.214 L 36.079 320.000 26.740 320.046 C 21.603 320.072,17.068 320.178,16.663 320.283 M115.347 320.302 C 114.837 320.637,114.083 414.771,114.578 416.329 C 114.930 417.441,132.343 417.715,133.824 416.632 C 134.655 416.024,135.289 325.616,134.489 321.761 L 134.165 320.200 124.982 320.102 C 119.932 320.048,115.596 320.138,115.347 320.302 M219.941 320.268 C 218.712 320.594,218.113 336.308,219.300 337.076 C 219.575 337.254,225.416 337.490,232.281 337.600 C 241.770 337.752,244.886 337.925,245.281 338.320 C 245.697 338.736,245.840 346.678,246.000 378.187 C 246.110 399.827,246.350 417.684,246.533 417.867 C 246.920 418.255,265.312 418.559,266.738 418.201 L 267.699 417.960 267.428 378.680 C 267.258 354.113,267.299 339.192,267.536 338.845 C 267.845 338.393,270.288 338.282,280.724 338.245 C 287.769 338.220,293.683 338.050,293.867 337.868 C 294.393 337.343,294.523 321.777,294.009 320.817 C 293.598 320.050,222.740 319.524,219.941 320.268 M321.078 321.181 C 320.485 321.885,320.000 322.712,320.000 323.018 C 320.000 323.325,319.661 324.256,319.246 325.088 C 318.832 325.919,317.831 328.310,317.023 330.400 C 316.215 332.490,315.306 334.740,315.004 335.400 C 314.702 336.060,314.340 337.050,314.200 337.600 C 314.060 338.150,313.690 339.140,313.379 339.800 C 313.068 340.460,311.808 343.610,310.579 346.800 C 308.099 353.241,306.933 356.202,306.404 357.400 C 305.182 360.173,304.400 362.152,304.400 362.473 C 304.400 362.677,304.053 363.605,303.629 364.536 C 303.205 365.466,302.735 366.718,302.585 367.318 C 302.434 367.917,302.151 368.506,301.956 368.627 C 301.760 368.748,301.600 369.132,301.600 369.480 C 301.600 369.828,301.254 370.852,300.831 371.756 C 300.408 372.660,299.659 374.480,299.166 375.800 C 298.673 377.120,297.939 378.932,297.535 379.826 C 297.131 380.721,296.800 381.720,296.800 382.046 C 296.800 382.373,296.653 382.811,296.473 383.020 C 296.293 383.229,295.636 384.750,295.013 386.400 C 294.390 388.050,293.531 390.210,293.104 391.200 C 292.233 393.219,292.049 393.685,290.885 396.800 C 289.570 400.320,285.643 410.435,284.828 412.400 C 283.675 415.179,283.040 417.573,283.368 417.902 C 283.532 418.066,288.598 418.256,294.626 418.323 L 305.588 418.447 306.436 416.523 C 306.903 415.466,307.536 414.090,307.842 413.468 C 308.149 412.845,308.400 412.144,308.400 411.911 C 308.400 411.678,308.746 410.748,309.169 409.844 C 309.592 408.940,310.337 407.120,310.825 405.800 C 312.075 402.417,312.547 401.278,313.640 399.000 L 314.600 397.000 332.180 397.000 L 349.760 397.000 350.734 399.400 C 351.270 400.720,351.927 402.340,352.196 403.000 C 352.464 403.660,353.101 405.370,353.611 406.800 C 354.121 408.230,354.777 409.755,355.069 410.189 C 355.361 410.623,355.606 411.253,355.614 411.589 C 355.621 411.925,355.975 412.920,356.400 413.800 C 356.825 414.680,357.179 415.582,357.186 415.804 C 357.194 416.026,357.656 416.700,358.214 417.302 L 359.229 418.396 369.514 418.177 C 382.095 417.909,382.400 417.871,382.400 416.605 C 382.400 416.078,382.220 415.536,382.000 415.400 C 381.780 415.264,381.600 414.868,381.600 414.520 C 381.600 414.172,381.254 413.148,380.831 412.244 C 380.408 411.340,379.663 409.520,379.175 408.200 C 378.141 405.401,377.600 404.086,376.443 401.556 C 375.979 400.542,375.600 399.530,375.600 399.307 C 375.600 398.932,374.748 396.809,373.367 393.740 C 373.055 393.046,372.800 392.264,372.800 392.001 C 372.800 391.738,372.552 391.046,372.249 390.462 C 371.946 389.878,371.302 388.320,370.818 387.000 C 370.334 385.680,369.592 383.860,369.169 382.956 C 368.746 382.052,368.400 381.130,368.400 380.907 C 368.400 380.532,367.548 378.409,366.167 375.340 C 365.855 374.646,365.600 373.864,365.600 373.601 C 365.600 373.338,365.351 372.646,365.048 372.062 C 364.395 370.807,363.384 368.360,361.429 363.300 C 360.643 361.265,359.357 357.935,358.571 355.900 C 357.784 353.865,356.814 351.390,356.413 350.400 C 356.013 349.410,355.364 347.790,354.972 346.800 C 354.579 345.810,353.943 344.274,353.558 343.386 C 353.173 342.498,352.735 341.282,352.585 340.682 C 352.434 340.083,352.151 339.494,351.956 339.373 C 351.760 339.252,351.600 338.846,351.600 338.470 C 351.600 338.095,351.240 337.116,350.800 336.296 C 350.360 335.475,350.000 334.532,350.000 334.200 C 350.000 333.868,349.640 332.925,349.200 332.104 C 348.760 331.284,348.400 330.399,348.400 330.138 C 348.400 329.878,348.134 329.155,347.808 328.532 C 347.482 327.910,346.732 326.102,346.140 324.517 C 345.548 322.931,344.810 321.536,344.500 321.417 C 343.379 320.987,336.849 320.443,329.578 320.174 L 322.156 319.900 321.078 321.181 M333.480 349.232 C 333.743 349.764,334.314 351.190,334.748 352.400 C 335.182 353.610,336.108 356.130,336.805 358.000 C 337.503 359.870,338.224 362.030,338.408 362.800 C 338.911 364.904,341.501 372.047,342.212 373.292 C 342.555 373.893,342.942 375.278,343.071 376.371 C 343.375 378.940,343.803 378.853,331.600 378.713 L 321.800 378.600 321.664 377.640 C 321.590 377.112,321.725 376.302,321.965 375.840 C 322.337 375.125,324.240 369.963,325.668 365.800 C 325.894 365.140,326.331 364.033,326.640 363.340 C 326.948 362.646,327.200 361.864,327.200 361.600 C 327.200 361.336,327.453 360.554,327.762 359.860 C 328.071 359.167,328.727 357.340,329.221 355.800 C 329.715 354.260,330.452 352.260,330.860 351.356 C 331.267 350.452,331.600 349.447,331.600 349.123 C 331.600 347.684,332.745 347.750,333.480 349.232 " stroke="none" fill="#ffffff" fill-rule="evenodd"></path><path id="path1" d="M0.000 217.800 L 0.000 435.600 200.000 435.600 L 400.000 435.600 400.000 217.800 L 400.000 0.000 200.000 0.000 L 0.000 0.000 0.000 217.800 M96.800 13.604 C 96.800 13.945,99.084 16.978,104.246 23.492 C 104.810 24.203,105.750 25.475,106.335 26.320 C 106.921 27.164,108.030 28.700,108.800 29.733 C 109.570 30.767,111.502 33.364,113.094 35.506 C 114.686 37.648,116.235 39.670,116.536 40.000 C 116.838 40.330,117.770 41.590,118.607 42.800 C 119.444 44.010,120.694 45.720,121.383 46.600 C 122.073 47.480,123.124 48.920,123.719 49.800 C 124.313 50.680,125.295 51.984,125.900 52.697 C 126.505 53.410,127.990 55.347,129.200 57.000 C 131.205 59.739,136.552 66.909,137.719 68.424 C 138.806 69.833,140.000 71.580,140.000 71.759 C 140.000 71.864,140.546 72.547,141.213 73.275 C 141.880 74.004,142.915 75.318,143.513 76.197 C 144.870 78.189,148.608 83.196,149.339 84.000 C 149.639 84.330,150.570 85.590,151.407 86.800 C 152.244 88.010,153.845 90.202,154.965 91.671 C 156.084 93.141,157.990 95.705,159.200 97.370 C 160.410 99.034,161.681 100.746,162.025 101.173 C 162.369 101.600,162.999 102.425,163.425 103.007 C 166.550 107.271,170.263 112.235,174.040 117.200 C 175.462 119.070,176.913 121.050,177.263 121.600 C 178.191 123.056,180.801 125.732,181.051 125.482 C 181.169 125.365,181.061 122.328,180.811 118.734 C 180.561 115.140,180.200 109.140,180.008 105.400 C 179.816 101.660,179.467 97.070,179.233 95.200 C 178.999 93.330,178.626 87.930,178.404 83.200 C 178.183 78.470,177.827 72.800,177.615 70.600 C 177.039 64.637,177.087 56.188,177.700 55.698 C 178.751 54.858,179.720 55.808,180.484 58.429 C 182.200 64.310,182.869 67.161,183.201 70.000 C 183.394 71.650,183.922 74.890,184.375 77.200 C 184.827 79.510,185.389 82.840,185.623 84.600 C 185.858 86.360,186.231 88.641,186.453 89.668 C 186.848 91.494,187.434 95.144,188.561 102.800 C 188.868 104.890,189.309 107.680,189.540 109.000 C 190.212 112.838,190.812 116.758,191.256 120.200 C 191.860 124.889,191.918 125.085,192.775 125.309 C 193.394 125.471,194.007 124.878,195.680 122.500 C 199.062 117.691,201.991 113.577,205.000 109.410 C 206.540 107.277,208.565 104.422,209.501 103.066 C 210.436 101.710,211.481 100.271,211.823 99.870 C 212.164 99.468,213.240 97.938,214.212 96.470 C 215.185 95.001,216.788 92.720,217.775 91.400 C 218.762 90.080,220.071 88.231,220.685 87.290 C 221.298 86.350,222.900 84.010,224.244 82.090 C 226.712 78.565,227.600 76.669,227.600 74.927 C 227.600 69.267,232.899 63.360,240.290 60.780 L 242.380 60.050 243.988 61.925 C 245.711 63.935,245.952 64.810,245.000 65.600 C 244.670 65.874,244.400 66.305,244.400 66.558 C 244.400 66.811,243.815 67.914,243.100 69.009 C 242.385 70.104,241.566 71.450,241.280 72.000 C 239.941 74.578,239.455 75.415,239.190 75.600 C 239.032 75.710,238.385 76.749,237.751 77.909 C 237.118 79.070,236.197 80.690,235.703 81.509 C 235.210 82.329,234.578 83.450,234.299 84.000 C 234.019 84.550,233.330 85.720,232.766 86.600 C 232.203 87.480,231.611 88.470,231.452 88.800 C 231.292 89.130,230.765 90.058,230.281 90.861 C 227.270 95.856,225.600 98.812,225.600 99.148 C 225.600 99.360,225.454 99.593,225.276 99.667 C 225.098 99.740,224.333 100.855,223.576 102.144 C 222.819 103.433,221.804 105.143,221.319 105.944 C 220.835 106.745,220.309 107.670,220.151 108.000 C 219.886 108.555,217.085 113.326,213.512 119.309 C 212.694 120.679,211.743 122.340,211.399 123.000 C 211.056 123.660,210.422 124.740,209.992 125.400 C 209.561 126.060,208.985 127.050,208.712 127.600 C 208.440 128.150,208.089 128.694,207.933 128.808 C 207.777 128.923,207.450 129.463,207.204 130.008 C 206.959 130.554,206.363 131.655,205.879 132.456 C 205.396 133.257,204.381 134.967,203.624 136.256 C 202.867 137.545,202.102 138.660,201.924 138.733 C 201.746 138.807,201.600 139.050,201.600 139.273 C 201.600 139.496,200.595 141.388,199.366 143.476 C 196.693 148.017,196.679 147.889,200.356 152.444 C 203.339 156.139,205.024 157.200,207.911 157.200 C 208.733 157.200,210.034 157.386,210.803 157.614 C 211.571 157.841,213.820 158.283,215.800 158.594 C 217.780 158.906,220.300 159.340,221.400 159.559 C 223.441 159.965,227.106 160.579,231.400 161.235 C 232.720 161.437,234.970 161.864,236.400 162.184 C 237.830 162.505,240.170 162.953,241.600 163.181 C 248.747 164.317,251.228 164.785,251.883 165.122 C 252.277 165.324,253.950 165.604,255.600 165.742 C 257.250 165.881,259.484 166.266,260.564 166.597 C 261.644 166.929,263.148 167.200,263.906 167.200 C 264.664 167.200,266.301 167.455,267.542 167.767 C 268.784 168.078,270.970 168.459,272.400 168.612 C 273.830 168.766,275.286 169.042,275.635 169.225 C 275.985 169.409,277.785 169.746,279.635 169.975 C 281.486 170.203,283.810 170.563,284.800 170.775 C 285.790 170.986,287.680 171.349,289.000 171.581 C 295.720 172.765,297.273 173.287,296.469 174.091 C 295.910 174.650,278.632 174.563,271.400 173.963 C 268.980 173.763,262.230 173.341,256.400 173.026 C 250.570 172.712,242.641 172.237,238.780 171.972 C 234.808 171.700,230.387 171.620,228.598 171.787 L 225.437 172.084 226.818 172.691 C 227.578 173.025,229.640 173.629,231.400 174.033 C 238.333 175.622,243.971 176.880,247.600 177.645 C 255.558 179.323,257.069 179.655,259.400 180.241 C 260.720 180.572,262.790 181.004,264.000 181.200 C 265.210 181.396,267.415 181.836,268.900 182.178 C 273.531 183.245,276.923 183.972,279.000 184.344 C 280.100 184.540,281.810 184.891,282.800 185.124 C 283.790 185.357,286.400 185.931,288.600 186.400 C 290.800 186.869,293.320 187.425,294.200 187.634 C 295.080 187.843,296.790 188.202,298.000 188.432 C 299.210 188.662,300.920 189.022,301.800 189.233 C 302.680 189.445,304.570 189.799,306.000 190.020 C 307.430 190.242,309.140 190.584,309.800 190.780 C 310.460 190.977,312.530 191.517,314.400 191.980 C 316.270 192.444,318.700 193.118,319.800 193.478 C 320.900 193.837,322.520 194.263,323.400 194.423 C 324.280 194.583,325.540 194.907,326.200 195.142 C 328.592 195.994,331.835 196.927,333.400 197.214 C 334.280 197.376,336.440 197.902,338.200 198.383 C 339.960 198.865,342.210 199.426,343.200 199.631 C 344.190 199.835,345.810 200.261,346.800 200.577 C 347.790 200.893,350.310 201.537,352.400 202.010 C 354.490 202.482,357.820 203.392,359.800 204.034 C 361.780 204.675,363.817 205.200,364.326 205.200 C 365.240 205.200,368.333 206.309,370.534 207.426 C 371.157 207.742,372.417 208.115,373.334 208.255 C 374.250 208.394,375.450 208.747,376.000 209.040 C 376.550 209.333,377.630 209.746,378.400 209.957 C 385.182 211.821,385.191 213.870,378.410 212.235 C 376.974 211.889,374.450 211.434,372.800 211.222 C 371.150 211.011,368.810 210.658,367.600 210.437 C 362.353 209.481,360.365 209.157,356.530 208.637 C 354.291 208.333,352.285 207.976,352.071 207.844 C 351.710 207.621,347.736 206.985,340.400 205.977 C 338.750 205.750,336.140 205.309,334.600 204.996 C 333.060 204.683,330.810 204.334,329.600 204.220 C 328.390 204.106,326.356 203.740,325.080 203.406 C 323.805 203.073,322.005 202.797,321.080 202.794 C 320.156 202.791,318.670 202.534,317.777 202.223 C 316.885 201.912,314.635 201.467,312.777 201.234 C 309.168 200.781,306.559 200.314,302.400 199.374 C 300.970 199.051,298.310 198.617,296.488 198.410 C 294.666 198.202,293.006 197.927,292.799 197.799 C 292.592 197.671,290.868 197.390,288.968 197.174 C 287.067 196.958,285.190 196.609,284.795 196.398 C 284.401 196.186,282.665 195.843,280.939 195.635 C 277.456 195.215,274.759 194.732,269.400 193.569 C 267.420 193.139,265.170 192.786,264.400 192.784 C 263.630 192.783,261.662 192.425,260.027 191.991 C 258.392 191.556,256.616 191.200,256.080 191.200 C 255.170 191.200,251.569 190.606,246.400 189.603 C 245.190 189.368,242.827 188.930,241.148 188.628 C 239.470 188.327,237.727 187.882,237.275 187.640 C 236.823 187.398,235.895 187.200,235.213 187.200 C 234.532 187.200,233.345 186.937,232.575 186.615 C 231.806 186.294,230.057 185.835,228.688 185.595 C 227.320 185.355,225.840 185.079,225.400 184.983 C 224.960 184.886,224.825 184.911,225.100 185.037 C 225.375 185.163,225.600 185.527,225.600 185.845 C 225.600 186.352,227.789 189.485,229.342 191.200 C 229.641 191.530,230.569 192.790,231.404 194.000 C 232.240 195.210,233.534 197.010,234.279 198.000 C 235.025 198.990,237.562 202.359,239.917 205.486 C 242.273 208.613,245.190 212.535,246.400 214.201 C 247.610 215.866,249.288 218.134,250.129 219.240 C 250.970 220.346,253.893 224.254,256.625 227.925 C 259.357 231.596,261.738 234.780,261.918 235.000 C 262.703 235.961,270.257 246.012,270.800 246.817 C 271.130 247.307,271.684 247.998,272.030 248.354 C 272.377 248.709,273.069 249.680,273.569 250.511 C 274.069 251.341,274.690 252.241,274.948 252.511 C 275.206 252.780,277.017 255.160,278.972 257.800 C 280.928 260.440,282.928 263.140,283.418 263.800 C 283.908 264.460,284.711 265.450,285.202 266.000 C 285.693 266.550,286.521 267.630,287.042 268.400 C 287.563 269.170,288.937 271.091,290.095 272.669 C 291.253 274.247,293.092 276.767,294.183 278.269 C 295.274 279.771,296.401 281.241,296.689 281.535 C 296.977 281.829,297.704 282.729,298.306 283.535 C 298.908 284.341,299.580 285.212,299.800 285.472 C 300.020 285.732,300.830 286.868,301.600 287.998 C 302.370 289.127,303.851 291.165,304.892 292.526 C 307.241 295.597,307.355 296.660,305.378 297.031 C 303.707 297.344,302.784 296.644,300.604 293.412 C 299.857 292.305,298.682 290.770,297.992 290.000 C 297.303 289.230,296.319 287.970,295.807 287.200 C 295.295 286.430,294.144 284.990,293.249 284.000 C 292.355 283.010,291.618 282.077,291.611 281.926 C 291.605 281.776,290.483 280.246,289.119 278.526 C 287.754 276.807,286.502 275.220,286.336 275.000 C 286.170 274.780,285.028 273.380,283.798 271.889 C 282.568 270.398,281.165 268.598,280.680 267.889 C 278.604 264.851,271.587 257.721,258.758 245.617 C 248.659 236.088,247.419 234.744,243.021 228.579 C 240.832 225.510,237.033 220.291,234.578 216.981 C 232.123 213.670,229.920 210.598,229.682 210.154 C 229.444 209.709,226.944 206.096,224.125 202.124 C 217.897 193.348,215.020 189.182,212.353 185.077 C 210.620 182.410,210.023 181.817,208.262 181.015 C 205.618 179.812,201.913 179.116,201.510 179.746 C 201.108 180.374,201.565 185.384,202.241 187.773 C 202.549 188.858,202.800 190.575,202.800 191.589 C 202.800 192.602,203.069 194.463,203.397 195.724 C 203.725 196.985,204.180 199.657,204.407 201.663 C 204.634 203.668,204.927 205.482,205.057 205.693 C 205.188 205.904,205.535 207.905,205.829 210.139 C 206.443 214.807,206.978 218.376,207.787 223.200 C 208.101 225.070,208.466 227.727,208.599 229.104 C 208.732 230.481,209.100 232.461,209.416 233.504 C 209.732 234.547,209.993 236.274,209.996 237.342 C 209.998 238.411,210.275 240.345,210.611 241.641 C 210.946 242.937,211.380 245.393,211.575 247.098 C 211.769 248.804,212.123 251.370,212.361 252.800 C 212.782 255.333,213.209 258.275,214.042 264.400 C 214.267 266.050,214.698 268.570,215.000 270.000 C 215.303 271.430,215.663 273.770,215.800 275.200 C 215.937 276.630,216.294 278.970,216.593 280.400 C 218.337 288.741,218.699 299.161,217.073 294.200 C 216.857 293.540,216.545 292.910,216.379 292.800 C 215.889 292.475,214.000 287.967,214.000 287.124 C 214.000 286.697,213.794 285.963,213.542 285.492 C 213.014 284.505,212.102 281.405,211.573 278.800 C 211.372 277.810,210.960 276.370,210.658 275.600 C 210.356 274.830,209.702 272.850,209.203 271.200 C 208.705 269.550,208.172 267.930,208.019 267.600 C 207.866 267.270,207.245 265.380,206.640 263.400 C 206.035 261.420,205.371 259.440,205.164 259.000 C 204.957 258.560,204.620 257.660,204.414 257.000 C 204.208 256.340,203.566 254.540,202.987 253.000 C 202.408 251.460,201.742 249.480,201.508 248.600 C 201.274 247.720,200.939 246.813,200.762 246.584 C 200.586 246.356,200.257 245.456,200.032 244.584 C 199.806 243.713,198.829 240.655,197.860 237.789 C 196.786 234.612,195.988 231.412,195.814 229.589 C 195.657 227.945,195.354 225.792,195.141 224.804 C 194.928 223.816,194.494 221.206,194.176 219.004 C 193.859 216.802,193.430 213.920,193.223 212.600 C 193.017 211.280,192.661 208.940,192.433 207.400 C 192.205 205.860,191.659 202.530,191.221 200.000 C 190.782 197.470,190.230 193.960,189.994 192.200 C 189.757 190.440,189.393 188.460,189.184 187.800 C 188.885 186.855,187.618 177.973,187.603 176.721 C 187.596 176.120,183.409 174.365,182.256 174.480 C 181.113 174.594,178.789 177.631,177.253 181.019 C 176.934 181.723,173.473 187.831,172.391 189.600 C 170.696 192.372,167.590 197.648,166.660 199.333 C 166.033 200.470,165.289 201.670,165.007 202.000 C 164.725 202.330,164.371 203.005,164.220 203.500 C 164.070 203.995,163.790 204.400,163.600 204.400 C 163.410 204.400,163.130 204.805,162.980 205.300 C 162.829 205.795,162.477 206.470,162.197 206.800 C 161.918 207.130,161.174 208.349,160.545 209.509 C 159.915 210.670,159.040 212.232,158.600 212.981 C 158.160 213.730,156.038 217.371,153.885 221.071 C 151.732 224.772,149.796 228.070,149.582 228.400 C 149.369 228.730,148.974 229.450,148.705 230.000 C 148.436 230.550,148.111 231.090,147.982 231.200 C 147.853 231.310,147.129 232.455,146.374 233.744 C 145.618 235.033,144.602 236.743,144.116 237.544 C 143.629 238.345,143.027 239.495,142.777 240.100 C 142.526 240.705,142.159 241.200,141.961 241.200 C 141.762 241.200,141.600 241.429,141.600 241.709 C 141.600 241.988,140.885 243.293,140.011 244.609 C 139.138 245.924,138.418 247.166,138.411 247.369 C 138.405 247.571,138.144 248.021,137.832 248.369 C 137.519 248.716,136.787 249.900,136.205 251.000 C 134.699 253.848,133.833 255.369,133.587 255.600 C 133.349 255.823,130.284 261.063,129.844 262.000 C 129.528 262.672,128.432 264.499,124.805 270.400 C 124.602 270.730,123.573 272.502,122.518 274.339 C 121.463 276.175,120.204 278.335,119.721 279.139 C 119.237 279.942,118.660 280.960,118.438 281.400 C 118.216 281.840,117.309 283.370,116.421 284.800 C 115.533 286.230,114.530 287.940,114.191 288.600 C 113.852 289.260,113.226 290.340,112.800 291.000 C 112.374 291.660,111.750 292.740,111.414 293.400 C 111.077 294.060,110.441 295.140,110.001 295.800 C 109.560 296.460,108.974 297.450,108.698 298.000 C 107.935 299.522,106.742 301.200,106.422 301.200 C 105.261 301.200,103.945 295.901,104.701 294.267 C 104.921 293.790,105.739 292.050,106.517 290.400 C 107.296 288.750,108.568 285.858,109.345 283.974 C 110.122 282.090,111.595 278.760,112.618 276.574 C 114.753 272.016,116.378 268.314,119.410 261.106 C 120.589 258.305,122.104 254.859,122.777 253.449 C 123.449 252.039,124.000 250.709,124.000 250.493 C 124.000 250.057,126.405 244.588,127.559 242.400 C 127.965 241.630,128.411 240.516,128.550 239.925 C 128.689 239.334,129.342 237.685,130.001 236.260 C 130.661 234.836,131.200 233.547,131.200 233.396 C 131.200 233.245,131.459 232.554,131.775 231.860 C 132.091 231.167,132.820 229.430,133.395 228.000 C 133.970 226.570,134.687 224.860,134.988 224.200 C 135.514 223.049,137.600 218.006,139.292 213.800 C 140.552 210.666,141.615 208.254,142.026 207.600 C 142.233 207.270,142.560 206.639,142.754 206.197 C 142.948 205.755,143.695 204.405,144.413 203.197 C 145.132 201.989,146.923 198.660,148.394 195.800 C 151.074 190.588,153.501 186.045,154.804 183.800 C 155.187 183.140,155.992 181.700,156.593 180.600 C 159.785 174.752,160.635 173.285,161.528 172.092 L 162.507 170.785 161.384 169.820 C 160.695 169.228,159.493 168.750,158.270 168.582 C 157.174 168.431,155.681 168.059,154.952 167.754 C 154.222 167.449,153.103 167.200,152.463 167.200 C 151.824 167.200,150.513 166.919,149.550 166.576 C 148.588 166.232,147.080 165.799,146.200 165.614 C 145.320 165.428,144.060 165.096,143.400 164.874 C 142.740 164.653,140.850 164.077,139.200 163.595 C 137.550 163.113,135.120 162.397,133.800 162.005 C 132.480 161.612,130.320 160.977,129.000 160.594 C 127.680 160.211,125.874 159.651,124.987 159.349 C 124.099 159.047,123.019 158.792,122.587 158.782 C 122.154 158.773,121.080 158.487,120.200 158.147 C 119.320 157.808,117.880 157.385,117.000 157.208 C 116.120 157.031,114.860 156.695,114.200 156.463 C 113.033 156.051,109.465 154.980,105.400 153.820 C 104.300 153.506,102.500 152.960,101.400 152.605 C 100.300 152.251,98.500 151.718,97.400 151.420 C 91.717 149.886,90.569 149.527,90.220 149.179 C 90.011 148.971,89.394 148.800,88.848 148.800 C 87.841 148.800,83.590 147.556,81.398 146.620 C 80.738 146.338,79.568 145.973,78.798 145.810 C 78.029 145.646,75.542 144.902,73.272 144.156 C 71.001 143.410,68.884 142.800,68.566 142.800 C 68.249 142.800,67.677 142.625,67.295 142.410 C 66.913 142.196,65.160 141.546,63.400 140.966 C 61.640 140.386,59.660 139.681,59.000 139.399 C 57.752 138.866,54.672 137.810,52.600 137.204 C 51.184 136.791,47.737 135.609,46.600 135.147 C 45.601 134.741,42.708 133.711,40.600 133.011 C 39.720 132.718,38.460 132.192,37.800 131.842 C 37.140 131.492,36.273 131.204,35.874 131.202 C 35.474 131.201,34.758 130.992,34.283 130.737 C 33.808 130.483,32.875 130.137,32.209 129.969 C 31.544 129.801,29.740 129.198,28.200 128.630 C 26.660 128.061,24.770 127.428,24.000 127.221 C 17.478 125.475,13.244 122.473,18.502 123.323 C 19.216 123.438,21.690 123.812,24.000 124.154 C 26.310 124.495,28.829 124.960,29.597 125.187 C 30.366 125.414,31.548 125.600,32.224 125.600 C 32.901 125.600,34.792 125.956,36.427 126.391 C 38.062 126.825,40.153 127.185,41.074 127.191 C 41.995 127.196,43.255 127.400,43.874 127.644 C 44.493 127.888,46.440 128.319,48.200 128.601 C 49.960 128.884,52.750 129.330,54.400 129.593 C 56.050 129.856,58.570 130.312,60.000 130.606 C 61.430 130.901,63.657 131.261,64.948 131.406 C 66.240 131.551,68.018 131.924,68.899 132.235 C 69.780 132.546,71.160 132.800,71.966 132.800 C 72.772 132.800,74.505 133.080,75.816 133.422 C 77.127 133.765,79.370 134.203,80.800 134.397 C 84.237 134.863,87.457 135.466,91.600 136.420 C 93.470 136.850,95.753 137.202,96.674 137.201 C 97.595 137.201,98.836 137.385,99.432 137.612 C 100.028 137.839,101.885 138.205,103.558 138.427 C 105.231 138.648,107.770 139.084,109.200 139.396 C 110.630 139.707,113.600 140.264,115.800 140.633 C 118.000 141.002,121.060 141.574,122.600 141.905 C 124.140 142.236,126.210 142.580,127.200 142.671 C 128.190 142.762,130.530 143.173,132.400 143.586 C 136.277 144.441,140.180 145.115,144.122 145.613 C 145.619 145.801,147.807 146.236,148.983 146.578 C 150.160 146.920,151.727 147.200,152.464 147.200 C 153.202 147.200,154.434 147.383,155.203 147.606 C 155.971 147.830,157.860 148.197,159.400 148.422 C 160.940 148.647,163.280 149.081,164.600 149.388 C 166.960 149.936,172.781 150.808,174.045 150.803 C 174.663 150.800,177.520 147.340,180.570 142.901 C 182.201 140.527,182.063 139.519,179.688 136.428 C 179.089 135.649,178.420 134.707,178.200 134.334 C 177.715 133.510,173.919 127.968,171.398 124.400 C 170.387 122.970,168.897 120.810,168.087 119.600 C 167.277 118.390,166.477 117.220,166.310 117.000 C 166.143 116.780,165.324 115.700,164.490 114.600 C 163.656 113.500,162.124 111.340,161.084 109.800 C 160.045 108.260,157.856 105.110,156.219 102.800 C 154.582 100.490,152.049 96.890,150.590 94.800 C 149.131 92.710,146.611 89.110,144.991 86.800 C 143.371 84.490,141.046 81.160,139.825 79.400 C 138.604 77.640,136.883 75.210,136.001 74.000 C 135.118 72.790,134.273 71.530,134.123 71.200 C 133.854 70.611,132.353 68.408,129.727 64.752 C 128.997 63.736,128.400 62.758,128.400 62.578 C 128.400 62.398,128.067 61.880,127.661 61.426 C 126.536 60.169,122.400 54.038,122.400 53.628 C 122.400 53.429,122.265 53.207,122.100 53.133 C 121.772 52.987,118.400 48.101,118.400 47.771 C 118.400 47.522,116.889 45.389,115.800 44.100 C 115.360 43.580,114.640 42.551,114.200 41.815 C 113.386 40.452,110.792 36.604,106.428 30.285 C 105.092 28.353,104.000 26.613,104.000 26.419 C 104.000 26.225,103.865 26.007,103.700 25.933 C 103.358 25.781,99.706 20.530,98.800 18.888 C 98.470 18.289,97.975 17.656,97.700 17.480 C 97.425 17.304,97.200 16.958,97.200 16.712 C 97.200 16.465,96.951 15.979,96.647 15.631 C 95.718 14.569,95.451 13.200,96.173 13.200 C 96.518 13.200,96.800 13.382,96.800 13.604 M196.200 319.574 C 201.456 320.122,206.262 321.005,207.200 321.596 C 207.948 322.066,207.858 340.393,207.106 340.858 C 206.867 341.006,206.116 340.896,205.436 340.615 C 200.162 338.436,195.566 337.238,190.787 336.799 C 180.998 335.898,176.269 337.807,173.617 343.729 C 170.808 350.002,176.100 356.860,186.000 359.778 C 189.787 360.894,199.086 364.938,202.600 366.997 C 203.480 367.512,204.830 368.257,205.600 368.650 C 207.531 369.638,210.827 373.114,211.846 375.238 C 214.801 381.396,215.313 383.433,215.497 389.785 C 215.641 394.780,214.738 400.722,213.610 402.200 C 213.442 402.420,213.087 403.275,212.821 404.100 C 212.555 404.925,212.172 405.600,211.969 405.600 C 211.766 405.600,211.599 405.825,211.598 406.100 C 211.593 407.494,206.052 412.655,202.800 414.295 C 202.250 414.572,201.260 415.158,200.600 415.595 C 199.940 416.033,198.950 416.594,198.400 416.841 C 197.850 417.088,196.950 417.519,196.400 417.799 C 195.850 418.079,194.803 418.435,194.073 418.592 C 193.343 418.748,192.263 419.127,191.673 419.435 C 191.083 419.743,190.150 419.998,189.600 420.002 C 189.050 420.006,187.716 420.277,186.636 420.604 C 184.316 421.308,171.713 421.417,168.800 420.758 C 167.810 420.534,165.877 420.189,164.503 419.991 C 163.130 419.794,161.686 419.460,161.294 419.251 C 160.903 419.041,159.686 418.688,158.591 418.466 C 156.191 417.981,153.734 417.094,153.139 416.499 C 152.682 416.042,152.603 396.979,153.053 395.807 C 153.309 395.138,154.804 395.325,156.219 396.204 C 157.260 396.850,162.272 399.027,165.409 400.195 C 178.588 405.101,194.429 399.098,191.995 390.120 C 191.041 386.601,186.902 381.600,184.943 381.600 C 184.668 381.600,183.095 380.915,179.356 379.168 C 178.452 378.746,177.522 378.400,177.289 378.400 C 177.056 378.400,176.355 378.132,175.732 377.805 C 173.808 376.795,170.871 375.600,170.311 375.600 C 170.018 375.600,169.423 375.368,168.989 375.085 C 168.555 374.802,167.120 374.139,165.800 373.611 C 152.336 368.228,145.537 347.929,152.974 335.323 C 156.773 328.884,165.768 321.898,173.400 319.459 C 175.801 318.692,188.342 318.755,196.200 319.574 M37.213 321.214 C 37.837 321.882,38.559 323.069,38.817 323.853 C 39.076 324.636,39.537 325.755,39.841 326.339 C 40.146 326.922,40.396 327.625,40.398 327.901 C 40.402 328.786,44.402 340.830,45.242 342.486 C 45.433 342.864,45.760 343.854,45.968 344.686 C 46.354 346.228,49.029 354.345,49.631 355.800 C 49.813 356.240,50.136 357.230,50.349 358.000 C 50.741 359.420,51.133 360.604,52.400 364.200 C 52.788 365.300,53.492 367.460,53.965 369.000 C 54.437 370.540,55.068 372.340,55.367 373.000 C 55.665 373.660,56.229 375.280,56.620 376.600 C 57.011 377.920,57.552 379.540,57.823 380.200 C 58.094 380.860,58.812 383.012,59.419 384.981 C 60.339 387.965,61.775 391.200,62.180 391.200 C 62.236 391.200,62.783 389.625,63.396 387.700 C 64.009 385.775,64.832 383.300,65.226 382.200 C 65.620 381.100,66.599 378.040,67.403 375.400 C 68.206 372.760,69.052 370.150,69.281 369.600 C 69.510 369.050,69.936 367.700,70.227 366.600 C 71.074 363.399,72.886 357.580,73.590 355.800 C 73.901 355.012,74.451 353.273,77.382 343.800 C 78.198 341.160,79.094 338.370,79.373 337.600 C 80.611 334.175,81.600 330.946,81.600 330.332 C 81.600 329.965,81.864 329.155,82.186 328.532 C 82.508 327.910,83.235 325.838,83.801 323.928 C 85.077 319.625,84.391 319.830,96.237 320.214 L 105.211 320.506 105.466 321.519 C 105.689 322.408,101.261 336.892,99.388 341.400 C 99.113 342.060,98.768 343.050,98.619 343.600 C 98.471 344.150,98.190 344.960,97.994 345.400 C 97.798 345.840,97.464 346.830,97.251 347.600 C 97.039 348.370,96.674 349.540,96.441 350.200 C 95.551 352.718,93.498 358.808,91.788 364.000 C 90.810 366.970,89.813 369.940,89.573 370.600 C 89.333 371.260,88.607 373.420,87.961 375.400 C 87.314 377.380,86.625 379.360,86.429 379.800 C 86.060 380.630,85.017 383.716,84.400 385.800 C 83.868 387.600,82.798 390.821,82.209 392.400 C 81.921 393.170,80.925 396.116,79.995 398.946 C 79.065 401.777,78.057 404.567,77.755 405.146 C 77.452 405.726,77.205 406.470,77.204 406.800 C 77.203 408.130,74.102 416.469,73.451 416.894 C 73.203 417.056,67.690 417.188,61.200 417.188 C 54.710 417.188,49.211 417.056,48.979 416.894 C 48.395 416.486,47.201 413.835,47.198 412.940 C 47.196 412.533,46.943 411.717,46.635 411.127 C 46.327 410.537,45.951 409.490,45.800 408.800 C 45.649 408.110,45.273 407.063,44.965 406.473 C 44.657 405.883,44.404 405.157,44.402 404.860 C 44.401 404.564,44.142 403.754,43.826 403.060 C 43.510 402.367,43.073 401.170,42.855 400.400 C 42.519 399.211,41.322 395.645,39.565 390.600 C 39.336 389.940,38.708 388.050,38.170 386.400 C 37.632 384.750,36.997 382.860,36.758 382.200 C 34.429 375.762,31.870 368.308,31.560 367.058 C 31.349 366.210,30.912 365.004,30.589 364.378 C 30.265 363.752,30.000 362.919,30.000 362.528 C 30.000 361.858,28.724 358.225,27.958 356.714 C 27.767 356.336,27.442 355.346,27.237 354.514 C 27.032 353.681,26.388 351.740,25.807 350.200 C 25.226 348.660,24.579 346.719,24.370 345.886 C 24.161 345.054,23.826 344.064,23.625 343.686 C 23.271 343.021,22.322 340.257,21.604 337.800 C 20.990 335.698,18.438 328.466,17.995 327.572 C 17.823 327.227,17.400 325.877,17.053 324.572 C 16.706 323.267,16.311 321.811,16.174 321.336 C 15.827 320.128,16.060 320.099,26.740 320.046 L 36.079 320.000 37.213 321.214 M134.489 321.761 C 135.289 325.616,134.655 416.024,133.824 416.632 C 132.343 417.715,114.930 417.441,114.578 416.329 C 114.083 414.771,114.837 320.637,115.347 320.302 C 115.596 320.138,119.932 320.048,124.982 320.102 L 134.165 320.200 134.489 321.761 M294.009 320.817 C 294.523 321.777,294.393 337.343,293.867 337.868 C 293.683 338.050,287.769 338.220,280.724 338.245 C 270.288 338.282,267.845 338.393,267.536 338.845 C 267.299 339.192,267.258 354.113,267.428 378.680 L 267.699 417.960 266.738 418.201 C 265.312 418.559,246.920 418.255,246.533 417.867 C 246.350 417.684,246.110 399.827,246.000 378.187 C 245.840 346.678,245.697 338.736,245.281 338.320 C 244.886 337.925,241.770 337.752,232.281 337.600 C 225.416 337.490,219.575 337.254,219.300 337.076 C 218.113 336.308,218.712 320.594,219.941 320.268 C 222.740 319.524,293.598 320.050,294.009 320.817 M340.468 320.825 C 345.071 321.324,344.909 321.218,346.140 324.517 C 346.732 326.102,347.482 327.910,347.808 328.532 C 348.134 329.155,348.400 329.878,348.400 330.138 C 348.400 330.399,348.760 331.284,349.200 332.104 C 349.640 332.925,350.000 333.868,350.000 334.200 C 350.000 334.532,350.360 335.475,350.800 336.296 C 351.240 337.116,351.600 338.095,351.600 338.470 C 351.600 338.846,351.760 339.252,351.956 339.373 C 352.151 339.494,352.434 340.083,352.585 340.682 C 352.735 341.282,353.173 342.498,353.558 343.386 C 353.943 344.274,354.579 345.810,354.972 346.800 C 355.364 347.790,356.013 349.410,356.413 350.400 C 356.814 351.390,357.784 353.865,358.571 355.900 C 359.357 357.935,360.643 361.265,361.429 363.300 C 363.384 368.360,364.395 370.807,365.048 372.062 C 365.351 372.646,365.600 373.338,365.600 373.601 C 365.600 373.864,365.855 374.646,366.167 375.340 C 367.548 378.409,368.400 380.532,368.400 380.907 C 368.400 381.130,368.746 382.052,369.169 382.956 C 369.592 383.860,370.334 385.680,370.818 387.000 C 371.302 388.320,371.946 389.878,372.249 390.462 C 372.552 391.046,372.800 391.738,372.800 392.001 C 372.800 392.264,373.055 393.046,373.367 393.740 C 374.748 396.809,375.600 398.932,375.600 399.307 C 375.600 399.530,375.979 400.542,376.443 401.556 C 377.600 404.086,378.141 405.401,379.175 408.200 C 379.663 409.520,380.408 411.340,380.831 412.244 C 381.254 413.148,381.600 414.172,381.600 414.520 C 381.600 414.868,381.780 415.264,382.000 415.400 C 382.220 415.536,382.400 416.078,382.400 416.605 C 382.400 417.871,382.095 417.909,369.514 418.177 L 359.229 418.396 358.214 417.302 C 357.656 416.700,357.194 416.026,357.186 415.804 C 357.179 415.582,356.825 414.680,356.400 413.800 C 355.975 412.920,355.621 411.925,355.614 411.589 C 355.606 411.253,355.361 410.623,355.069 410.189 C 354.777 409.755,354.121 408.230,353.611 406.800 C 353.101 405.370,352.464 403.660,352.196 403.000 C 351.927 402.340,351.270 400.720,350.734 399.400 L 349.760 397.000 332.180 397.000 L 314.600 397.000 313.640 399.000 C 312.547 401.278,312.075 402.417,310.825 405.800 C 310.337 407.120,309.592 408.940,309.169 409.844 C 308.746 410.748,308.400 411.678,308.400 411.911 C 308.400 412.144,308.149 412.845,307.842 413.468 C 307.536 414.090,306.903 415.466,306.436 416.523 L 305.588 418.447 294.626 418.323 C 288.598 418.256,283.532 418.066,283.368 417.902 C 283.040 417.573,283.675 415.179,284.828 412.400 C 285.643 410.435,289.570 400.320,290.885 396.800 C 292.049 393.685,292.233 393.219,293.104 391.200 C 293.531 390.210,294.390 388.050,295.013 386.400 C 295.636 384.750,296.293 383.229,296.473 383.020 C 296.653 382.811,296.800 382.373,296.800 382.046 C 296.800 381.720,297.131 380.721,297.535 379.826 C 297.939 378.932,298.673 377.120,299.166 375.800 C 299.659 374.480,300.408 372.660,300.831 371.756 C 301.254 370.852,301.600 369.828,301.600 369.480 C 301.600 369.132,301.760 368.748,301.956 368.627 C 302.151 368.506,302.434 367.917,302.585 367.318 C 302.735 366.718,303.205 365.466,303.629 364.536 C 304.053 363.605,304.400 362.677,304.400 362.473 C 304.400 362.152,305.182 360.173,306.404 357.400 C 306.933 356.202,308.099 353.241,310.579 346.800 C 311.808 343.610,313.068 340.460,313.379 339.800 C 313.690 339.140,314.060 338.150,314.200 337.600 C 314.340 337.050,314.702 336.060,315.004 335.400 C 315.306 334.740,316.215 332.490,317.023 330.400 C 317.831 328.310,318.832 325.919,319.246 325.088 C 319.661 324.256,320.000 323.325,320.000 323.018 C 320.000 322.712,320.485 321.885,321.078 321.181 L 322.156 319.900 329.578 320.174 C 333.660 320.325,338.561 320.618,340.468 320.825 M331.875 348.258 C 331.724 348.410,331.600 348.799,331.600 349.123 C 331.600 349.447,331.267 350.452,330.860 351.356 C 330.452 352.260,329.715 354.260,329.221 355.800 C 328.727 357.340,328.071 359.167,327.762 359.860 C 327.453 360.554,327.200 361.336,327.200 361.600 C 327.200 361.864,326.948 362.646,326.640 363.340 C 326.331 364.033,325.894 365.140,325.668 365.800 C 324.240 369.963,322.337 375.125,321.965 375.840 C 321.725 376.302,321.590 377.112,321.664 377.640 L 321.800 378.600 331.600 378.713 C 343.803 378.853,343.375 378.940,343.071 376.371 C 342.942 375.278,342.555 373.893,342.212 373.292 C 341.501 372.047,338.911 364.904,338.408 362.800 C 338.224 362.030,337.503 359.870,336.805 358.000 C 336.108 356.130,335.182 353.610,334.748 352.400 C 333.374 348.570,332.633 347.501,331.875 348.258 " stroke="none" fill="#504184" fill-rule="evenodd"></path></g></svg>