<svg id="svg" version="1.1" xmlns="http://www.w3.org/2000/svg" xmlns:xlink="http://www.w3.org/1999/xlink" width="400" height="350.34106412005457" viewBox="0, 0, 400,350.34106412005457"><g id="svgg"><path id="path0" d="M0.000 177.564 L 0.000 335.145 200.000 335.145 L 400.000 335.145 400.000 177.564 L 400.000 19.982 200.000 19.982 L 0.000 19.982 0.000 177.564 M75.082 131.727 C 75.367 132.064,76.256 133.681,77.057 135.320 C 79.037 139.372,79.366 139.900,88.217 153.243 C 92.638 159.907,93.593 161.102,93.861 160.307 C 93.940 160.071,96.336 156.364,99.184 152.069 C 105.973 141.833,108.288 138.242,108.700 137.311 C 108.887 136.891,109.431 135.852,109.909 135.002 C 110.388 134.152,110.780 133.245,110.780 132.986 C 110.780 131.100,110.644 131.113,130.938 131.113 C 142.651 131.113,149.693 131.239,149.693 131.449 C 149.693 131.633,149.120 132.225,148.420 132.763 C 145.849 134.740,143.522 136.900,142.099 138.630 C 141.297 139.605,139.404 141.876,137.892 143.677 C 136.381 145.478,134.829 147.392,134.443 147.931 C 134.058 148.470,132.480 150.450,130.938 152.331 C 129.395 154.213,127.897 156.104,127.607 156.534 C 126.956 157.501,119.416 166.810,116.560 170.173 C 113.834 173.383,110.991 177.040,110.481 177.994 C 109.281 180.234,110.191 206.649,111.516 208.046 C 113.030 209.642,113.044 209.641,93.416 209.641 C 72.690 209.641,74.145 209.870,75.422 206.799 C 76.182 204.973,76.214 204.445,76.339 191.536 L 76.469 178.165 75.441 176.988 C 74.875 176.340,72.407 173.287,69.955 170.202 C 67.503 167.117,65.232 164.277,64.908 163.891 C 64.583 163.506,63.377 162.007,62.226 160.561 C 61.076 159.115,59.875 157.616,59.557 157.230 C 59.239 156.845,58.133 155.504,57.097 154.251 C 56.062 152.997,54.747 151.346,54.174 150.581 C 53.602 149.815,52.261 148.137,51.195 146.850 C 50.128 145.564,47.781 142.695,45.980 140.476 C 44.178 138.257,41.654 135.598,40.371 134.567 C 37.426 132.203,37.160 131.948,37.160 131.489 C 37.160 130.752,74.455 130.986,75.082 131.727 M233.226 131.748 C 237.512 132.317,241.894 133.697,244.801 135.392 C 245.725 135.931,246.629 136.372,246.809 136.372 C 247.227 136.372,253.111 142.027,253.111 142.430 C 253.111 142.595,253.575 143.405,254.143 144.230 C 254.710 145.055,255.284 146.187,255.418 146.747 C 255.552 147.307,255.789 147.928,255.944 148.127 C 257.604 150.259,257.604 163.151,255.944 165.283 C 255.789 165.481,255.565 166.052,255.446 166.550 C 255.108 167.969,253.471 170.695,252.182 171.984 C 251.536 172.630,251.008 173.291,251.008 173.454 C 251.008 174.064,245.995 177.450,243.126 178.778 C 236.591 181.804,232.322 182.326,214.425 182.285 C 206.355 182.267,199.659 182.345,199.545 182.459 C 198.890 183.114,199.453 204.344,200.185 206.611 C 201.244 209.889,202.711 209.641,182.265 209.641 C 163.095 209.641,162.797 209.616,163.990 208.146 C 165.595 206.169,165.644 205.048,165.644 170.552 C 165.644 136.686,165.642 136.637,164.215 133.802 C 163.941 133.256,163.716 132.424,163.716 131.952 L 163.716 131.096 196.933 131.218 C 219.561 131.301,231.130 131.470,233.226 131.748 M355.057 131.534 C 355.840 132.317,355.638 149.693,354.847 149.693 C 354.500 149.693,354.066 149.555,353.883 149.386 C 352.243 147.872,350.600 147.765,329.010 147.765 L 308.326 147.765 308.326 156.880 L 308.326 165.995 325.855 165.995 C 338.800 165.995,344.015 165.875,345.800 165.537 C 348.959 164.940,348.759 164.359,348.883 174.493 C 349.009 184.682,349.258 184.056,345.496 183.000 C 343.086 182.324,342.126 182.294,325.645 182.381 L 308.326 182.472 308.326 192.989 C 308.326 203.646,308.499 205.458,309.764 208.006 C 310.581 209.653,310.725 209.641,291.323 209.641 C 272.264 209.641,271.688 209.598,272.884 208.276 C 273.192 207.936,273.450 207.354,273.457 206.984 C 273.464 206.613,273.695 205.916,273.970 205.434 C 274.395 204.691,274.473 199.404,274.484 170.804 C 274.497 134.354,274.551 135.543,272.725 132.130 C 272.556 131.814,272.517 131.456,272.639 131.334 C 273.088 130.886,354.606 131.083,355.057 131.534 M199.563 146.326 C 199.305 146.746,199.397 167.164,199.659 167.588 C 200.306 168.635,212.917 167.689,216.890 166.295 C 225.276 163.352,225.830 151.153,217.742 147.563 C 215.160 146.417,200.136 145.395,199.563 146.326 " stroke="none" fill="#04549a" fill-rule="evenodd"></path><path id="path1" d="M37.160 131.489 C 37.160 131.948,37.426 132.203,40.371 134.567 C 41.654 135.598,44.178 138.257,45.980 140.476 C 47.781 142.695,50.128 145.564,51.195 146.850 C 52.261 148.137,53.602 149.815,54.174 150.581 C 54.747 151.346,56.062 152.997,57.097 154.251 C 58.133 155.504,59.239 156.845,59.557 157.230 C 59.875 157.616,61.076 159.115,62.226 160.561 C 63.377 162.007,64.583 163.506,64.908 163.891 C 65.232 164.277,67.503 167.117,69.955 170.202 C 72.407 173.287,74.875 176.340,75.441 176.988 L 76.469 178.165 76.339 191.536 C 76.214 204.445,76.182 204.973,75.422 206.799 C 74.145 209.870,72.690 209.641,93.416 209.641 C 113.044 209.641,113.030 209.642,111.516 208.046 C 110.191 206.649,109.281 180.234,110.481 177.994 C 110.991 177.040,113.834 173.383,116.560 170.173 C 119.416 166.810,126.956 157.501,127.607 156.534 C 127.897 156.104,129.395 154.213,130.938 152.331 C 132.480 150.450,134.058 148.470,134.443 147.931 C 134.829 147.392,136.381 145.478,137.892 143.677 C 139.404 141.876,141.297 139.605,142.099 138.630 C 143.522 136.900,145.849 134.740,148.420 132.763 C 149.120 132.225,149.693 131.633,149.693 131.449 C 149.693 131.239,142.651 131.113,130.938 131.113 C 110.644 131.113,110.780 131.100,110.780 132.986 C 110.780 133.245,110.388 134.152,109.909 135.002 C 109.431 135.852,108.887 136.891,108.700 137.311 C 108.288 138.242,105.973 141.833,99.184 152.069 C 96.336 156.364,93.940 160.071,93.861 160.307 C 93.593 161.102,92.638 159.907,88.217 153.243 C 79.366 139.900,79.037 139.372,77.057 135.320 C 76.256 133.681,75.367 132.064,75.082 131.727 C 74.455 130.986,37.160 130.752,37.160 131.489 M163.716 131.952 C 163.716 132.424,163.941 133.256,164.215 133.802 C 165.642 136.637,165.644 136.686,165.644 170.552 C 165.644 205.048,165.595 206.169,163.990 208.146 C 162.797 209.616,163.095 209.641,182.265 209.641 C 202.711 209.641,201.244 209.889,200.185 206.611 C 199.453 204.344,198.890 183.114,199.545 182.459 C 199.659 182.345,206.355 182.267,214.425 182.285 C 232.322 182.326,236.591 181.804,243.126 178.778 C 245.995 177.450,251.008 174.064,251.008 173.454 C 251.008 173.291,251.536 172.630,252.182 171.984 C 253.471 170.695,255.108 167.969,255.446 166.550 C 255.565 166.052,255.789 165.481,255.944 165.283 C 257.604 163.151,257.604 150.259,255.944 148.127 C 255.789 147.928,255.552 147.307,255.418 146.747 C 255.284 146.187,254.710 145.055,254.143 144.230 C 253.575 143.405,253.111 142.595,253.111 142.430 C 253.111 142.027,247.227 136.372,246.809 136.372 C 246.629 136.372,245.725 135.931,244.801 135.392 C 238.123 131.498,236.577 131.363,196.933 131.218 L 163.716 131.096 163.716 131.952 M272.639 131.334 C 272.517 131.456,272.556 131.814,272.725 132.130 C 274.551 135.543,274.497 134.354,274.484 170.804 C 274.473 199.404,274.395 204.691,273.970 205.434 C 273.695 205.916,273.464 206.613,273.457 206.984 C 273.450 207.354,273.192 207.936,272.884 208.276 C 271.688 209.598,272.264 209.641,291.323 209.641 C 310.725 209.641,310.581 209.653,309.764 208.006 C 308.499 205.458,308.326 203.646,308.326 192.989 L 308.326 182.472 325.645 182.381 C 342.126 182.294,343.086 182.324,345.496 183.000 C 349.258 184.056,349.009 184.682,348.883 174.493 C 348.759 164.359,348.959 164.940,345.800 165.537 C 344.015 165.875,338.800 165.995,325.855 165.995 L 308.326 165.995 308.326 156.880 L 308.326 147.765 329.010 147.765 C 350.600 147.765,352.243 147.872,353.883 149.386 C 354.066 149.555,354.500 149.693,354.847 149.693 C 355.638 149.693,355.840 132.317,355.057 131.534 C 354.606 131.083,273.088 130.886,272.639 131.334 M213.322 146.522 C 225.005 147.870,227.648 162.519,216.890 166.295 C 212.917 167.689,200.306 168.635,199.659 167.588 C 199.397 167.164,199.305 146.746,199.563 146.326 C 199.801 145.941,209.477 146.079,213.322 146.522 " stroke="none" fill="#f4f8f9" fill-rule="evenodd"></path></g></svg>